<svg xmlns="http://www.w3.org/2000/svg" xml:space="preserve" viewBox="0 0 1075 1075">
  <defs>
    <linearGradient id="a" x1="202.5" x2="872.5" gradientUnits="userSpaceOnUse">
      <stop offset=".15125" stop-color="#cd3b55"/>
      <stop offset=".15125" stop-color="#f77b28"/>
      <stop offset=".26" stop-color="#f77b28"/>
      <stop offset=".26" stop-color="#f0ce64"/>
      <stop offset=".39" stop-color="#f0ce64"/>
      <stop offset=".39" stop-color="#639c5c"/>
      <stop offset=".5285" stop-color="#639c5c"/>
      <stop offset=".5285" stop-color="#4f7fd4"/>
      <stop offset=".6385" stop-color="#4f7fd4"/>
      <stop offset=".6385" stop-color="#a77cc6"/>
      <stop offset=".765" stop-color="#a77cc6"/>
      <stop offset=".765" stop-color="#7b2d21"/>
      <stop offset=".90375" stop-color="#7b2d21"/>
      <stop offset=".90375" stop-color="#3e3e3e"/>
    </linearGradient>
  </defs>
  <circle cx="537.5" cy="537.5" r="500" fill="#fff"/>
  <path fill="url(#a)" d="M519 188c-56 0-113 9-167 23-11 2-60 16-65 25a125 125 0 0 1 93 96c2 15 1 30 1 45 35 4 73 12 95 44 15 21 16 43 14 69l32 2-96 114-52-24c-20-7-57-14-61 18-5 28 18 39 40 44-47 27-100-24-91-72 8-51 72-67 107-31 17 17 25 61 60 44 26-13 11-52-2-69-47-64-134-67-188-13-51 51-50 140 12 182a129 129 0 0 0 146 2l3 112c-1 20-7 50 0 68a31 31 0 0 0 48 14c24-20 8-62 9-89 3-1 17 4 18 5 8 6 22 34 30 43 20 22 53 36 82 22 20-8 21-35 0-44l-23-5c-18-6-26-28-36-42 24-16 32-40 27-69-8-38-37-60-73-69l92-113c28 22 44 56 57 89l20-3a148 148 0 0 1 45 4c32 11 58 46 65 78a72 72 0 0 1 44-1c19 4 39 27 45 44 14-27 17-60 20-89 9-109-3-227-65-319l-29-36c12-15 17-36 2-51-16-16-40-6-53 9-62-41-133-57-206-57zm6 17c150 2 265 76 309 222 23 71 25 150 17 223-20-40-52-78-97-89-4-37-13-74-36-103-22-29-55-54-93-47-18-63-87-109-153-95-8-55-65-84-116-87a581 581 0 0 1 169-24zm233 38c17 1 17 22 5 31l-22-19c2-5 12-12 17-12zm-412 2c41 1 93 22 107 63l-54 42c0-41-21-81-53-105zm110 83 4 7a121 121 0 0 1 123 36l-75 87c-3-53-49-87-98-94zm137 59 7 13-63 76-19-3zm13 30 6 16 19-3-181 218c39-5 83 17 91 57 7 32-7 49-34 63 21 25 27 55 63 61 6 2 20-2 20 9 2 15-21 16-32 15-14-1-34-15-43-27-11-12-23-41-39-43-5-2-27-4-30-3-2 0-3 0-3 3-1 21 3 43 3 64-2 13-5 33-23 27-16-6-9-57-8-73l-3-140c-33 21-21 15-33 21-73 35-161-8-162-93 0-104 137-151 198-64 7 9 24 41 7 48-17 8-21-12-27-22-57-96-187-18-139 72 27 51 92 60 129 14 0-2-45-11-53-18-8-9-5-25 7-27 8-2 23 4 32 7l61 24 98-117zm47 12a47 47 0 0 1 22 11l-41 130a258 258 0 0 0-47-65zm37 23a172 172 0 0 1 45 120l20 8-2 53c-24-36-66-48-107-43zm84 136a125 125 0 0 1 46 46c11 16 22 37 22 56a69 69 0 0 0-71-21zm-309 90c-7-1-14 0-22 1v77c21 2 49 3 66-13 19-18 4-47-15-58-9-4-18-7-29-7zm-2 16c15 1 29 5 38 19 11 28-24 33-44 31v-50z"/>
  <g fill="none">
    <circle cx="537.5" cy="537.5" r="500" stroke="#5bcefa" stroke-width="75"/>
    <circle cx="537.5" cy="537.5" r="500" stroke="#f5a9b8" stroke-width="46.9"/>
    <circle cx="537.5" cy="537.5" r="500" stroke="#fff" stroke-width="18.8"/>
  </g>
</svg>
