<svg width="3713" height="2049" version="1.1" viewBox="0 0 3713 2049" xmlns="http://www.w3.org/2000/svg"><polygon transform="translate(.5 -2047.5)" points="0 4096 3712 4096 3712 2048 0 2048" fill="#76d3c1" stroke="#000"/><path d="m3611.794921875 12.361328125-231.5390625 98.609375-64.400390625 211.673828125 25.533203125 156.810546875 108.240234375 142.3046875 172.421875 31.7578125 86.470703125-20.09375-66.21484375 77.634765625-39.6015625 113.70703125-13.50390625 181.19140625 120.98828125 121.744140625 8.16796875 2.84765625 97.2421875 33.8671875 96.591796875-61.01953125 83.833984375-149.806640625-15.12890625-132.771484375-63.951171875-141.60546875-82.1640625-64.654296875-8.16796875-2.84375-60.0859375.625 47.267578125-57.89453125 62.787109375-179.630859375-22.685546875-89.818359375 18.314453125-59.68359375-10.4296875-48.25-108.5625-120.109375zm-3067.720703125 44.626953125-196.841796875 44.2734375-45.98828125 86.203125-59.755859375 112.01171875-14.3984375 204.642578125 70.34765625 304.796875 290.84375 154.619140625 161.072265625-31.751953125 119.42578125-104.236328125 10.400390625-15.326171875 60.9453125-257.59765625-28.76953125-199.65234375-57.0234375-57.638671875-140.43359375-162.892578125-125.587890625-53.361328125zm1503.18359375 15.77734375-104.470703125 37.591796875-66.28515625 68.130859375 9.279296875 105.4375 46.984375 84.46484375 106.203125 102.177734375 154.5703125-13.830078125 2.43359375-4.4453125 98.5390625-108.71875-53.0859375-153.955078125-66.62109375-64.833984375zm-742.48828125 98.73828125-151.365234375 97.138671875-111.3828125 158.259765625-42.73046875 183.857421875 151.623046875 342.412109375 160.18359375 39.302734375 208.005859375-88.875 107.13671875-90.22265625 42.833984375-110.28515625 63.22265625-48.580078125 24.84375-57.947265625-24.15234375-205.35546875-114.23046875-151.052734375zm1525.546875 238.146484375-151.5625 31.4375-36.3828125 65.53515625-47.275390625 85.15625-13.66796875 156.794921875 50.0546875 234.708984375 221.12109375 122.3359375 123.962890625-22.29296875 92.947265625-78.42578125 8.17578125-11.623046875 50.052734375-196.818359375-19.509765625-153.51953125-148.638671875-171.69921875-95.6640625-42.548828125zm-898.76171875 258.310546875-116.375 11.2265625-75.126953125 106.322265625-23.0703125 116.619140625 9.314453125 91.185546875-124.216796875-67.69140625-32.525390625-4.94140625-213.654296875 57.181640625-103.90625 195.33984375-5.09765625 158.79296875 78.8515625 160.46484375 172.375 92.765625 171.24609375-6.021484375 26.69140625-82.767578125 48.80078125-65.287109375 43.0390625-84.447265625 4.322265625-14.470703125-4.990234375-92.50390625 29.451171875-55.046875-.8828125-45.587890625 75.646484375 53.28515625 99.732421875 19.73046875 71.37109375-77.642578125 7.0859375-8.060546875 53.66015625-143.703125-2.111328125-116.869140625-97.587890625-141.068359375-68.353515625-39.759765625zm-1525.6484375 480.615234375-161.51171875 151.22265625-56.193359375 148.60546875 22.701171875 177.34375 133.09375 143.541015625 163.98828125 49.701171875 52.03125-69.681640625 67.296875-45.98828125 68.04296875-65.984375 8.771484375-12.29296875 25.203125-89.14453125 45.673828125-42.560546875 15.064453125-47.01171875-34.0703125-158.27734375-100.25-109.263671875-29.177734375-15.197265625zm1774.6171875 24.150390625-242.94140625 65.6796875-70.0859375 122.146484375-20.240234375 150.17578125 36.701171875 143.166015625 228.984375 183.1484375 125.482421875-30.533203125 112.42578125-136.859375 41.85546875-101.369140625-10.0625-92.08984375 26.384765625-56.58203125-3.6640625-49.228515625-90.93359375-133.955078125zm1012.787109375 7.751953125-115.908203125 15.306640625-71.345703125 108.892578125-18.962890625 117.357421875 24.73828125 179.572265625 159.80859375 104.375 100.36328125 16.21484375 68.6015625-80.099609375 6.80078125-8.3046875 48.580078125-145.49609375-6.212890625-116.724609375-102.48046875-137.5546875-69.708984375-37.337890625zm-456.90625 225.3515625-240.734375 73.35546875-86.607421875 203.599609375 8.666015625 158.638671875 92.447265625 153.037109375 168.052734375 49.96484375 139.42578125-17.0234375 61.7890625-61.037109375 81.583984375-171.912109375-12.978515625-91.724609375 24.57421875-57.388671875-5.22265625-49.091796875-95.13671875-131z" fill="#6ea09e"/></svg>
