<svg width="3713" height="2049" version="1.1" viewBox="0 0 3713 2049" xmlns="http://www.w3.org/2000/svg"><polygon transform="translate(.5 -2047.5)" points="3712 2048 0 2048 0 4096 3712 4096" fill="#76d3c1" stroke="#000"/><path d="m2688.5.5-8.9609375 128.001953125-5.119140625 128 17.919921875 127.998046875 24.3203125 64 39.6796875 64 47.359375 128.001953125 14.080078125 63.998046875 2.560546875 64 15.361328125 128 21.759765625 64.001953125 34.55859375 63.998046875 30.720703125 128 11.521484375 128-7.681640625 128.001953125-30.71875 127.998046875-29.44140625 64-46.080078125 64-39.6796875 128.001953125-37.12109375 63.998046875-42.23828125 64-15.361328125 64 2.560546875 64h1024v-255.998046875h-128v-256.001953125h128v-512h-128v-256h-128v-384h128v-127.998046875h128v-256.001953125h-960z" fill="#ece49b"/><path d="m3667.701171875.5v45.49609375l-.26953125 77.861328125-11.01953125 23.431640625-45.125 60.412109375-44.720703125 32.9140625-70.98046875 47.923828125-47.095703125 34.677734375-17.603515625 21.37109375-10.986328125 16.30078125-8.7109375 23.115234375-7.6796875 41.55078125-2.298828125 32.3125 6.453125 53.669921875 2.28125 12.470703125 8.267578125 33.900390625 4.951171875 82.603515625-5.703125 70.810546875-.666015625 29.09375 2.8125 19.544921875 8.455078125 21.572265625 14.99609375 19.728515625 13.521484375 15.09375 26.068359375 17.81640625 15.755859375 15.421875 20.48828125 19.9140625 11.994140625 25.099609375 3.498046875 21.37109375.197265625 17.525390625.125 27.04296875-.59375 29.052734375 2.076171875 17.158203125 2.849609375 19.6328125 10.279296875 15.033203125 16.646484375 17.87890625 35.865234375 34.5 53.5546875 32.5 14.83984375 20.5703125 6.046875 52.091796875-.107421875 22.494140625-3.533203125 43.53515625-.509765625 15.505859375.482421875 60.4609375 1.25390625 35.22265625-4.83984375 35.12109375-13.828125 24.119140625-31.54296875 24.185546875-54.705078125 37.125-16.322265625 17-14.375 20.84765625-3.21875 24.271484375-1.154296875 11.728515625 2.564453125 36.4296875-1.0234375 57.48828125-2.7578125 67.068359375 4.888671875 41.1640625 3.171875 19.775390625 13.8671875 22.56640625 14.900390625 18.1328125 48.4140625 42.224609375 41.259765625 16.96484375 13.0234375 22.505859375 1.171875 22.513671875-4.869140625 47.0546875-.78125 64.029296875h44.798828125v-255.998046875h-128v-256.001953125h128v-512h-128v-256h-128v-384h128v-127.998046875h128v-256.001953125z" fill="#356b35"/></svg>
