<svg width="3713" height="2049" version="1.1" viewBox="0 0 3713 2049" xmlns="http://www.w3.org/2000/svg"><polygon transform="translate(-2431.5,-2047.5)" points="2432 4096 6144 4096 6144 2048 2432 2048" fill="#76d3c1" stroke="#000"/><path d="m.5.498046875v256h128v128h128v256.001953125h128v383.998046875h-128v256h-128v384.001953125h-128v384h1024l10.240234375-64.001953125-12.798828125-63.998046875-71.681640625-128-40.958984375-128-7.681640625-64 2.5625-64.001953125 10.87890625-63.998046875 26.240234375-64.001953125 96-128 116.478515625-127.998046875 35.201171875-64 8.638671875-32.001953125 3.521484375-32-2.240234375-31.998046875-7.361328125-32.001953125-33.919921875-63.998046875-58.87890625-64.001953125-21.76171875-32-16.638671875-31.998046875-8.958984375-32-3.83984375-32.001953125 6.3984375-63.998046875-3.83984375-64-25.599609375-64.001953125-49.919921875-64-39.6796875-64-10.880859375-32-4.48046875-32 3.841796875-31.998046875 8.9609375-32.001953125 29.4375-63.998046875 44.80078125-64.001953125 23.0390625-64-5.119140625-64h-896z" fill="#ece49b"/><path d="m.5.498046875v256h128v128h128v256.001953125h128v383.998046875h-128v256h-128v384.001953125h-128v384h44.80078125l6.3984375-43.51953125-11.517578125-84.48046875 4.21484375-64.9921875 2.5390625-35.869140625.3046875-15.95703125-1.939453125-11.181640625 2.06640625-9.25390625 45.884765625-44.4765625 15.716796875-16.65234375 28.66796875-28.357421875 12.103515625-12.919921875 10.953125-16.33984375 9.111328125-64.19140625 1.83203125-31.208984375-1.224609375-32.6015625 13.033203125-42.732421875-.072265625-59.07421875-2.654296875-26.193359375 14.033203125-25.263671875 32.0859375-28.294921875 12.169921875-11.931640625 23.8125-26.126953125 28.669921875-36.3828125 10.935546875-61.71484375-.939453125-66.248046875 1.771484375-7.32421875 31.708984375-30.560546875 25.689453125-15.84375 7.560546875-7.189453125 40.02734375-49.294921875 13.25390625-17.767578125 3.16015625-16.36328125 2.125-11.98046875 2.470703125-15.833984375-5.146484375-83.876953125 5.75390625-70.052734375 3.498046875-42.544921875.25-15.41015625-.138671875-16.26171875-4.447265625-44.185546875 1.361328125-67.544921875-10.853515625-20.455078125-19.705078125-20.380859375-35.4765625-32.271484375-23.9609375-23.126953125-10.125-8.4453125-23.7578125-12.857421875-10.326171875-10.46484375 1.2265625-12.365234375-1.404296875-33.0546875-6.064453125-64.658203125-4.205078125-17.921875-8.751953125-15.359375-42.671875-55.353515625-14.140625-16.232421875-46.90234375-41.189453125-26.693359375-32.84375-24.7734375-28.66796875-17.30078125-16.923828125-52.798828125-37.908203125-8.958984375-11.521484375-1.279296875-7.375 6.3984375-56.625 1.28125-35.837890625-3.83984375-28.162109375h-25.6015625z" fill="#356b35"/></svg>
