<svg width="3713" height="2049" version="1.1" viewBox="0 0 3713 2049" xmlns="http://www.w3.org/2000/svg"><polygon transform="translate(-2431.5,-2047.5)" points="2432 4096 6144 4096 6144 2048 2432 2048" fill="#76d3c1" stroke="#000"/><path d="m.5.498046875v256h128v128h128v128h128v384.001953125h-128v383.998046875h-128v256h-128v512.001953125h1024l14.078125-70.400390625 21.76171875-57.599609375 44.16015625-64.001953125 64.640625-63.998046875 76.798828125-64.001953125 42.240234375-63.998046875 10.880859375-64-5.759765625-64.001953125 7.6796875-63.998046875 30.720703125-64.001953125 74.23828125-128 37.12109375-127.998046875 10.240234375-128.001953125-8.9609375-127.998046875-35.83984375-128-40.9609375-64.001953125-58.87890625-63.998046875-84.48046875-64-52.48046875-64.001953125-12.478515625-32-2.240234375-32 6.080078125-32 16.3203125-32 7.6796875-32-1.28125-32-24.318359375-64-52.482421875-63.998046875-43.517578125-64.001953125-29.44140625-66.55859375-11.51953125-61.44140625h-896z" fill="#ece49b"/><path d="m.5.498046875v256h128v128h128v128h128v384.001953125h-128v383.998046875h-128v256h-128l-2.560546875 128.001953125 2.560546875 128v256h44.80078125v-12.80078125l1.119140625-34.427734375 1.59765625-57.12109375.1171875-23.650390625-7.583984375-65.197265625 2.375-62.75 1.28125-16.357421875 1.685546875-46.681640625-6.736328125-50.548828125.24609375-14.3359375 7.5625-13.826171875 35.173828125-33.9140625 37.509765625-34.716796875 35.41015625-32.8125 13.169921875-12.8359375 5.58203125-14.5703125-.076171875-17.33203125-.03515625-32.240234375 4.5703125-63.8828125 17.62109375-18.107421875 40.89453125-48.9765625 27.90625-23.02734375 17.537109375-17.662109375 17.982421875-20.2265625 3.173828125-17.693359375 2.22265625-43.244140625-6.6953125-66.166015625 3.89453125-62.82421875-.701171875-66.966796875 10.630859375-21.71875 28.115234375-16.5546875 52.595703125-43.935546875 7.658203125-6.57421875 18.8046875-30.08984375 4.732421875-18.81640625 1.08984375-56.69140625.83203125-60.72265625-9.3671875-59.33203125 8.08203125-68.66796875 5.619140625-86.708984375-5.8671875-39.46484375-11.138671875-17.845703125-51.26171875-41.02734375-49.580078125-64.96875-9.392578125-9.716796875-9.7578125-10.251953125-17.59765625-19.037109375-42.841796875-34.216796875-64.21484375-63.330078125-53.439453125-54.36328125-18.01953125-17.51171875-42.708984375-37.740234375-6.85546875-15.818359375-2.5390625-13.181640625-1.150390625-26.005859375.767578125-39.119140625v-49.693359375h-12.80078125z" fill="#356b35"/></svg>
