<svg width="3713" height="2049" version="1.1" viewBox="0 0 3713 2049" xmlns="http://www.w3.org/2000/svg"><polygon transform="translate(-2431.5,-2047.5)" points="2432 4096 6144 4096 6144 2048 2432 2048" fill="#76d3c1" stroke="#000"/><path d="m.5.498046875v256h512.001953125v128h268.796875l103.4296875 128h132.076171875l11.412109375-71.265625 60.283203125-.966796875 64.001953125 1.537109375 34.173828125 4.22265625 72.576171875-9.599609375 21.248046875 7.423828125 9.7265625 6.529296875 42.625 39.619140625 18.048828125 22.5v128.001953125l-3.83984375 46.974609375.0390625.662109375-.0390625.490234375 3.822265625 63.822265625v.001953125l-3.822265625 16.048828125-10.498046875 14.080078125-43.90234375 45.740234375-12.16015625 8.064453125-15.48828125 3.583984375-50.431640625-3.583984375-62.078125 7.6796875-45.099609375 35.599609375-64.982421875 69.712890625-17.919921875 11.51953125-22.3984375.412109375-50.3046875 6.150390625-55.298828125-5.1875-96.25390625 2.30078125-31.7421875 8.380859375-39.42578125-.048828125-47.744140625-4.388671875-35.384765625-1.220703125 14.7890625-70.794921875h-137.681640625l-97.59375 127.998046875h-122.880859375l-174.080078125 117.76171875h-128v394.23828125h128v256.001953125h-128v256h1024v-64.001953125l6.400390625-63.998046875 2.560546875-64.001953125-7.6796875-63.998046875-24.3203125-64.001953125-39.681640625-63.998046875-57.59765625-64-60.162109375-64.001953125-55.0390625-63.998046875-48.640625-64.001953125-51.869140625-64-33.44140625-64-24.0234375-63.998046875-1.765625-64-1.79296875-64 6.548828125-64.001953125 7.84375-37.544921875 69.390625 6.986328125 20.40625 4.052734375 36.865234375 1.712890625 127.99609375-25.658203125 60.546875.580078125 45.439453125-.134765625 22.015625-6.939453125 17.79296875-6.78515625 37.716796875-42.880859375 72.4921875-64.86328125 91.767578125-8.53515625 18.0546875.728515625 18.17578125-4.09765625 13.822265625-9.34375 47.6171875-45.228515625.255859375-.25390625 16.384765625-17.79296875 3.83984375-16.76953125v-.126953125l-3.80859375-63.48828125 3.80859375-47.615234375 3.83984375-33.28125v-51.83984375l-3.83984375-42.880859375-.599609375-.73046875-.00390625-.00390625-22.30859375-27.140625-19.326171875-18.697265625-24.322265625-31.291015625-15.359375-18.43359375-19.7109375-7.0390625-13.64453125 2.03515625-94.642578125-14.1953125-119.79296875 16.173828125 4.591796875-28.677734375 11.51953125-64 3.83984375-64-7.6796875-63.998046875-11.51953125-64.001953125-8.9609375-64v-64h-896z" fill="#ece49b"/><path d="m.5.498046875v256h512.001953125v128h256v128h511.998046875v256.001953125h-256v128h-128.001953125l44.53125 57.140625h-.001953125l-44.529296875-57.140625h-511.998046875v127.998046875h-256v128.001953125h-128v383.998046875h128v256.001953125h-128v256h44.80078125l2.17578125-10.625 1.279296875-32.384765625 3.7109375-59.623046875 10.66015625-25.3671875 55.251953125-63.103515625 44.18359375-49.50390625 9.998046875-15.392578125 2.591796875-17.8359375-.033203125-41.556640625-4.22265625-43.13671875 1.0234375-25.470703125 3.45703125-40.447265625-1.94140625-85.03515625-11.615234375-24.306640625-84.4375-77.986328125-26.787109375-28.611328125-1.779296875-7.3203125-7.244140625-23.26171875 3.189453125-48.25-.875-47.35546875 13.90234375-19.896484375 99.7265625-83.6171875 63.1953125-52.759765625 42.408203125-29.71875 21.642578125-3.775390625 68.642578125 6.671875 15.677734375-2.697265625 22.451171875-6.81640625 5.197265625-3.03515625 19.40234375-19.5625 39.068359375-34.69140625 43.44921875-41.568359375 13.94140625-17.00390625 20.912109375-2.31640625 71.03515625-2.43359375 35.98828125 2.232421875 28.21875.89453125 12.83984375-.630859375 48.001953125 5.98046875 38.990234375 1.17578125 31.28125-10.251953125 96.626953125-5.03125 56.072265625 5.7265625 49.826171875-4.55859375 22.1484375-1.7578125 5.74609375-2.177734375 12.275390625-7.986328125 64.57421875-70.203125 45.423828125-35.82421875 62.013671875-8.2578125 50.1171875 3.396484375 15.798828125-3.576171875 12.818359375-7.908203125 22.501953125-20.8203125 23.6640625-24.59375 15.1875-15.873046875 3.474609375-16.751953125-3.94921875-64.337890625 1.666015625-47.0703125 4.013671875-33.2421875v-53.671875l-3.861328125-41.03515625-10.97265625-13.578125-10.650390625-10.05078125-42.640625-41.08203125-11.009765625-7.240234375-21.4375-7.142578125-72.37890625 9.5859375-34.279296875-4.3125-63.857421875-2.462890625-64.30859375.375-81.5234375-2.08203125-46.421875 2.0703125-45.08203125-17.568359375-52.494140625-76.572265625-13.302734375-9.423828125-15.712890625-5.380859375-61.798828125-.80078125-49.859375 1.779296875-23.271484375-5.474609375-51.119140625-54.640625-30.279296875-42.220703125-13.158203125-10.73828125-11.876953125-9.078125-16.060546875-6.49609375-36.1171875-3.896484375-88.533203125.380859375-46.44140625-4.87890625-14.45703125.2109375-70.453125 9.287109375-67.43359375 7.484375-34.462890625-6.333984375-25.443359375-6.05078125-62.80078125-57.80859375-7.302734375-14.931640625-2.505859375-17.5859375-9.580078125-44.271484375-1.669921875-61.123046875h-12.80078125z" fill="#356b35"/></svg>
