<svg width="3713" height="2049" version="1.1" viewBox="0 0 3713 2049" xmlns="http://www.w3.org/2000/svg"><polygon transform="translate(.5 -2047.5)" points="3712 2048 0 2048 0 4096 3712 4096" fill="#76d3c1" stroke="#000"/><path d="m2688.5.5-10.240234375 128.001953125 1.279296875 63.998046875 14.080078125 64.001953125 33.28125 63.998046875 42.240234375 64 25.599609375 64 12.798828125 64 2.560546875 128.001953125-25.599609375 127.998046875-46.080078125 128-34.560546875 64.001953125-32 63.998046875-16.638671875 64-5.12109375 64 8.9609375 64 24.3203125 64 72.958984375 128.001953125 23.041015625 63.998046875 5.119140625 64-2.560546875 64-15.359375 64-66.560546875 128.001953125-20.48046875 63.998046875-3.83984375 64 12.80078125 128h1024v-384h-128v-255.998046875h-128v-768h128v-384h128v-256.001953125h-960z" fill="#ece49b"/><path d="m3667.701171875.5-1.30859375 41.759765625.76953125 48.7890625.47265625 22.431640625-4.703125 14.990234375-28.533203125 36.30859375-36.482421875 22.63671875-9.73046875 9.162109375-43.68359375 53.931640625-3.779296875 23.494140625-2.083984375 17.232421875 2.84765625 24.349609375 10.595703125 68.935546875-6.8125 63.755859375-6.080078125 64.189453125-9.83984375 19.640625-41.171875 29.1484375-17.0078125 18.087890625-40.3046875 36.205078125-17.201171875 24.919921875-3.283203125 36.953125 2.51953125 31.98828125 9.365234375 59.10546875 2.060546875 60.955078125-1.310546875 67.005859375-7.91796875 62.662109375 3.935546875 65.388671875 2.158203125 33.296875-5.296875 94.646484375-1.712890625 18.0625 4.595703125 51.927734375-3.552734375 41.62890625-1.734375 16.41015625-.107421875 60.486328125 2.77734375 65.59765625 10.494140625 16.947265625 56.126953125 58.619140625 12.365234375 13.251953125 42.923828125 36.416015625.478515625 11.705078125 7.8125 31.73828125-.189453125 89.25 46.9765625 63.5859375 14.619140625 15.68359375 49.62109375 28.87890625 3.2421875 35.76171875 15.890625 42.1171875.0546875 51.345703125.865234375 18.658203125-8.595703125 56.703125-1.14453125 71.25390625h44.798828125v-384h-128v-255.998046875h-128v-768h128v-384h128v-256.001953125h-32z" fill="#356b35"/></svg>
