<svg width="3713" height="2049" version="1.1" viewBox="0 0 3713 2049" xmlns="http://www.w3.org/2000/svg"><polygon transform="translate(.5 -2047.5)" points="0 4096 3712 4096 3712 2048 0 2048" fill="#76d3c1" stroke="#000"/><path d="m3784.96875-16.48828125-240.734375 73.353515625-86.60546875 203.603515625 8.666015625 158.63671875 92.4453125 153.037109375 168.0546875 49.96484375 139.423828125-17.0234375 61.791015625-61.037109375 81.583984375-171.91015625-12.978515625-91.7265625 24.57421875-57.388671875-5.22265625-49.08984375-95.138671875-131.001953125zm-1387.35546875 18.853515625-47.23046875 12.025390625-258.513671875 201.296875-29.056640625 326.474609375 84.666015625 219.59765625 8.66015625 7.50390625-107.37890625-23.560546875-151.435546875 97.029296875-111.5 158.1796875-42.86328125 183.82421875 151.375 342.5234375 160.15234375 39.419921875 208.072265625-88.7265625 107.201171875-90.142578125 42.916015625-110.25390625 63.2578125-48.53515625 24.88671875-57.927734375-24.00390625-205.373046875-14.94921875-19.796875 174.49609375 16.3828125 138.017578125-64.173828125-7.783203125 14.630859375-7.552734375 235.232421875 115.60546875 235.255859375-64.732421875 23.294921875-66.287109375 68.130859375 9.279296875 105.435546875 46.984375 84.46484375 106.205078125 102.1796875 154.568359375-13.83203125 2.43359375-4.4453125 98.5390625-108.71875-42.447265625-123.1015625 12.015625 6.466796875 253.681640625-8.919921875 39.5390625-122.611328125 72.29296875-96.712890625 63.7578125-125.1015625 6.400390625-21.43359375-7.390625-137.03515625 43.625-81.544921875-1.4140625-73.119140625-123.60546875-205.533203125-192.88671875-105.111328125-48.18359375-7.322265625-316.50390625 84.708984375-63.865234375 120.064453125-1.458984375-16.50390625 28.912109375-117.232421875 9.99609375-140.0546875-2.453125-22.234375-60.181640625-123.333984375 8.41796875-92.09765625-29.78125-66.79296875-193.90234375-141.15625zm-712.8671875 10.984375-32.900390625.017578125-202.5859375 88.751953125-73.2578125 208.775390625 18.908203125 157.74609375 102.150390625 146.736328125 184.392578125 65.708984375 168.380859375-31.779296875 13.90234375-85.84765625 38.3984375-71.8984375 29.80859375-89.97265625 2.08984375-14.955078125-18.8828125-90.6953125 20.8125-58.859375-8.388671875-48.6484375-103.41015625-124.57421875zm-1192.3984375 69.283203125-196.841796875 44.271484375-45.98828125 86.203125-59.755859375 112.01171875-14.400390625 204.64453125 70.349609375 304.794921875 231.3515625 122.9921875-128.337890625-18.66015625-212.73046875 134.4609375-30.908203125 137.392578125 24.986328125 149.45703125 77.326171875 125.955078125 272.84375 107.3984375 110.876953125-66.2109375 67.01953125-163.9453125 10.068359375-109.208984375-36.794921875-85.015625 8.5078125-61.849609375-18.03125-45.955078125-99.94140625-79.95703125 14.607421875 7.765625 161.0703125-31.75 119.427734375-104.23828125 10.400390625-15.32421875 60.9453125-257.59765625-28.76953125-199.65234375-57.015625-57.630859375-140.44140625-162.90234375-125.587890625-53.361328125zm2157.7109375 4.771484375 59.64453125 111.625-.00390625-.001953125zm1490.45703125 392.630859375-100.46484375 1.044921875-83.83984375 98.30078125-39.603515625 113.70703125-9.908203125 132.9453125-91.80078125-55.12890625-94.6953125-8.26953125-75.8125 73.86328125-35.72265625 89.80859375-11.998046875 146.888671875 108.45703125 110.994140625 4.982421875-.92578125 46.90234375 2.4296875-95.203125 34.181640625-85.796875 82.287109375-88.36328125 158.271484375 64.759765625 179.5546875 70.37109375 73.373046875 103.001953125-22.65625 10.427734375-2.53515625 126.388671875-86.923828125 65.314453125-96.9375.990234375-171.53125-33.17578125-71.76953125-9.62890625-27.560546875-79.919921875-45.20703125 50.466796875 2.61328125 85.697265625-138.478515625 8.095703125-92.607421875-16.771484375-54.736328125 90.42578125 90.9921875 8.16796875 2.845703125 89.072265625 31.0234375 8.169921875 2.84375 96.591796875-61.017578125 83.833984375-149.80859375-15.12890625-132.767578125-63.94921875-141.609375-82.166015625-64.65234375zm-3174.26953125 281.328125-105.865234375 49.615234375-35.10546875 125.36328125 17.38671875 117.6015625 77.84375 163.701171875 183.87890625 51.205078125 100.5703125-14.87109375 41.189453125-97.083984375 3.97265625-9.970703125 2.345703125-153.376953125-41.1953125-109.388671875-139.255859375-100.158203125-77.736328125-14.52734375h-.00390625zm-111.0546875 598.9375-153.1640625 22.37890625-40.2109375 63.2578125-52.248046875 82.19921875-22.9609375 155.705078125 36.025390625 237.267578125 213.4609375 135.25390625 125.068359375-14.88671875 97.4453125-72.767578125 8.849609375-11.115234375 61.65625-193.498046875-10.35546875-154.408203125-138.177734375-180.2265625-92.95703125-48.15234375zm3336.09375.560546875-231.537109375 98.607421875-64.400390625 211.677734375 25.533203125 156.80859375 108.23828125 142.3046875 172.423828125 31.7578125 136.814453125-31.79296875 54.927734375-67.27734375 62.7890625-179.6328125-22.685546875-89.81640625 18.3125-59.68359375-10.427734375-48.251953125-108.564453125-120.109375zm-1199.552734375 87.203125.00390625.001953125.19140625.197265625z" fill="#6ea09e"/></svg>
