<svg width="3713" height="2049" version="1.1" viewBox="0 0 3713 2049" xmlns="http://www.w3.org/2000/svg"><polygon transform="translate(-2431.5,-2047.5)" points="2432 4096 6144 4096 6144 2048 2432 2048" fill="#76d3c1" stroke="#000"/><path d="m.5.498046875v384h128v256.001953125h-128v512h128v640h-128v256h1024v-64.001953125l5.119140625-63.998046875 8.958984375-64.001953125 26.8828125-63.998046875 48.638671875-64.001953125 38.40234375-63.998046875 17.91796875-64 5.119140625-64.001953125-3.83984375-63.998046875-19.197265625-64.001953125-37.76171875-64-36.48046875-64-22.400390625-63.998046875-16-64-11.517578125-64-3.841796875-64.001953125 1.28125-64 8.958984375-63.998046875 12.16015625-64.001953125 24.958984375-63.998046875 42.880859375-64.001953125 35.19921875-63.998046875 19.201171875-64 8.958984375-64.001953125 1.919921875-64-1.919921875-64-7.6796875-64-17.91796875-64-31.361328125-63.998046875-44.162109375-64.001953125-35.837890625-64-16.640625-64h-896z" fill="#ece49b"/><path d="m.5.498046875v384h128v256.001953125h-128v512h128v640h-128v256h44.80078125l1.279296875-54.015625-1.279296875-39.681640625-1.28125-25.0859375 1.28125-9.216796875 18.337890625-18.2734375 41.509765625-47.318359375 39.865234375-37.9609375 10.751953125-11.390625 7.294921875-13.056640625 7.6796875-23.80859375.072265625-10.078125-2.6328125-25.37890625 1.279296875-68.734375-5.119140625-88.83203125-1.279296875-39.169921875v-11.646484375l1.279296875-29.82421875 3.83984375-65.0234375v-21.505859375l5.12109375-74.3671875-2.560546875-53.6328125v-15.87109375l-3.83984375-37.6328125 1.279296875-56.0625v-18.431640625l-2.876953125-10.47265625-8.921875-12.0859375-16.13671875-16.814453125-26.46484375-24.626953125-18.171875-15.173828125-43.267578125-35.771484375-7.0390625-13.056640625-.767578125-11.005859375-2.81640625-31.74609375 3.0703125-31.486328125-.3828125-31.361328125v-22.3984375l-1.15234375-16.255859375-3.0703125-51.712890625 1.154296875-35.833984375.466796875-15.69140625 3.87109375-8.546875 6.662109375-8.791015625 16.67578125-16.955078125 44.099609375-40.4375 36.62109375-41.43359375 18.857421875-20.337890625 3.5546875-16.3515625.40625-6.271484375 2.052734375-63.888671875-6.423828125-41.494140625-1.279296875-40.0625 3.83984375-48.12890625v-25.470703125l-3.83984375-14.337890625-7.126953125-13.0234375-52.572265625-53.865234375-50.63671875-47.029296875-11.263671875-14.08203125-2.560546875-12.927734375v-46.974609375l6.400390625-50.560546875v-17.537109375l-3.83984375-64v-64h-12.80078125z" fill="#356b35"/></svg>
