<svg width="3713" height="2049" version="1.1" viewBox="0 0 3713 2049" xmlns="http://www.w3.org/2000/svg"><polygon transform="translate(-2431.5,-2047.5)" points="2432 4096 6144 4096 6144 2048 2432 2048" fill="#76d3c1" stroke="#000"/><path d="m.5.498046875v256h128v384.001953125h-128v639.998046875h128v512.001953125h-128v256h1024l1.28125-64.001953125 14.078125-63.998046875.640625-64.001953125-16-63.998046875-64-128-43.51953125-128.001953125-20.482421875-128-6.3984375-128 6.3984375-127.998046875 12.802734375-128.001953125 19.19921875-127.998046875 24.255859375-64.001953125 41.0234375-63.998046875 10.240234375-64.001953125-10.240234375-63.998046875-38.3984375-64-46.080078125-64.001953125-14.720703125-64v-64l12.80078125-64 22.3984375-64 46.72265625-63.998046875 35.19921875-64.001953125 12.798828125-64v-64h-896zm672.65234375 539.57421875 26.228515625 36.427734375h128l38.3984375 64 10.240234375 63.998046875-10.240234375 64.001953125h-128l-40.958984375 63.998046875-24.318359375 64.001953125-19.201171875 127.998046875-12.80078125 128.001953125-4.84765625 94.5546875-106.009765625-108.125-43.078125-60.17578125-77.125-54.255859375-2.201171875-36.80078125-67.568359375-56.22265625-2.701171875-34.974609375 22.306640625-123.533203125 25.224609375-43.86328125 34.462890625-22.453125 2.2734375-66.150390625 44.28515625-40.314453125 54.578125-6.494140625 79.638671875-1.8515625z" fill="#ece49b"/><path d="m.5.498046875v256h128v384.001953125h-128v639.998046875h128v512.001953125h-128v256h44.80078125v-58.880859375l-.486328125-11.19921875-2.07421875-23.357421875 2.560546875-34.5625 21.759765625-32.001953125 42.240234375-32 31.08203125-23.513671875 9.560546875-8.2578125 18.314453125-21.255859375 3.99609375-10.955078125 4.541015625-62.84375-6.849609375-75.58984375-7.955078125-32.478515625-3.517578125-42.642578125.009765625-41.61328125 8.591796875-63.615234375-4.15625-65.24609375 4.501953125-65.19921875 1.13671875-31.2578125-6.39453125-31.53125-9.59765625-15.998046875-13.783203125-12.953125-38.44140625-35.046875-12.712890625-13.154296875-33.6875-34.845703125-8.638671875-16v-85.52734375l-7.681640625-42.474609375.48046875-11.93359375 3.71484375-92.9296875.92578125-23.134765625 1.666015625-18.814453125 4.09375-46.41015625-2.365234375-46.412109375-.833984375-16.36328125 14.3984375-32 46.400390625-32.001953125 49.79296875-48 9.658203125-15.998046875 2.431640625-33.11328125 1.28125-20.931640625.046875-33.11328125-.10546875-12.529296875-5.068359375-28.314453125.0625-58.576171875 3.6953125-23.541015625 5.40625-45.8828125.380859375-18.189453125.158203125-44.275390625-2.0390625-24.8828125-1.98828125-15.736328125-3.927734375-24.888671875-4.1796875-8.615234375-56.244140625-55.41015625-39.041015625-32-21.119140625-32.001953125-1.537109375-8.318359375-.703125-56.9765625-1.599609375-21.84765625 3.83984375-40.857421875h-12.80078125z" fill="#356b35"/><path d="m899.33203125 320.404296875-182.03125 6.494140625-65.7265625 53.2578125-1.64453125 3.125-1.53515625 48.599609375.333984375.6640625-8.96875-2.19140625-1.076171875.37109375-1.458984375 3.625 8.11328125 89.0703125.037109375.091796875 1.7421875 3.0546875 1.765625 1.212890625-66.6328125 54.0078125-124.412109375 8.767578125-6.771484375 2.861328125-44.193359375 44.5703125-1.564453125 2.9765625-5.138671875 56.03515625 3.888671875 7.06640625-14.376953125 5.212890625-44.509765625 55.166015625-4.58203125 7.73046875-6.638671875 153.4296875 4.140625 16.208984375 54.962890625 58.837890625 2.15234375 11.615234375 1.791015625 3.42578125 53.181640625 58.7109375 3.521484375 1.921875 23.865234375 8.4921875 5.16796875-.732421875-.75 4.27734375v3.173828125l1.19921875 16.857421875 1.21484375 4.587890625 74.251953125 78.61328125 83.15625 74.6015625 2.73046875.84375 87.3671875 4.013671875 72.171875-4.4609375 2-1.396484375 20.158203125-50.357421875 73.8515625-54.71875 2.873046875-2.447265625 19.3984375-22.59765625 3.759765625-4.12109375 38.9375-40.330078125 2.619140625-27.138671875 13.35546875-138.34375-4.302734375-14.130859375 1.431640625-46.494140625-9.857421875-17.46875-.029296875-.052734375v-.001953125l-.001953125-.005859375-.259765625-1.01171875-6.15234375-3.380859375 1.4296875-1.67578125.771484375-.849609375.59375-.71484375 2.11328125-2.37109375 59.38671875-54.671875 2.146484375-3.052734375 9.40234375-25.251953125-4.83203125-109.009765625 3.638671875-4.458984375-.310546875-77.75390625-3.1015625-5.611328125-74.3203125-44.365234375-40.119140625-.2109375 38.615234375-36.80859375.705078125-1.65234375v-.001953125l.705078125-1.65234375 2.064453125-86.04296875-.642578125-1.67578125-.001953125-.001953125-.642578125-1.671875-59.759765625-62.58984375z" fill="#666d7c"/></svg>
