<svg width="3713" height="2049" version="1.1" viewBox="0 0 3713 2049" xmlns="http://www.w3.org/2000/svg"><polygon transform="translate(.5 -2047.5)" points="3712 2048 0 2048 0 4096 3712 4096" fill="#76d3c1" stroke="#000"/><path d="m2642.419921875.5-1.279296875 64 2.560546875 64.001953125 14.078125 63.998046875 26.880859375 64.001953125 47.361328125 63.998046875 66.55859375 64 70.400390625 64 71.6796875 64 60.16015625 64 39.6796875 64.001953125 12.16015625 31.998046875 1.919921875 32-3.83984375 64 6.400390625 64 11.51953125 64 37.119140625 64.001953125 51.201171875 63.998046875 25.599609375 64 6.400390625 64-5.12109375 64-26.87890625 64-46.080078125 64.001953125-69.12109375 64-61.439453125 63.998046875-37.119140625 64-16.640625 64-30.71875 64-53.76171875 64-79.359375 64.001953125-49.919921875 63.998046875-23.041015625 64-3.83984375 64 2.560546875 64h1024v-255.998046875l-128-128.001953125v-640l128-128v-384l-128-128v-127.998046875l128-128v-128.001953125h-1006.080078125z" fill="#ece49b"/><path d="m3667.701171875.5-.51171875 40.9609375.458984375 21.857421875 5.6171875 58.107421875-3.005859375 7.076171875-78.232421875 68.009765625-47.056640625 44.26171875-11.958984375 16.203125.072265625 59.42578125 1.9140625 18.09765625 6.939453125 50 7.28125 13.80078125 78.15625 73.3671875 37.765625 40.83203125.671875 45.568359375.109375 15.744140625 6.8984375 66.689453125.51171875 41.59765625-5.625 86.400390625-2.181640625 57.216796875-2.3046875 70.783203125-49.900390625 51.455078125-51.072265625 53.76171875-9.892578125 16.2890625-4.236328125 6.46484375-6.716796875 18.029296875-.92578125 9.77734375 3.447265625 100.22265625.494140625 18.25-.494140625 42.05859375-4.919921875 52.2890625-.19921875 15.40234375-.6484375 60.802734375 2.109375 18.556640625 8.4921875 48.642578125 3.07421875 87.619140625 4.255859375 40.37890625-5.146484375 57.455078125-.484375 17.697265625 2.921875 34.373046875 3.69140625 18.474609375 38.630859375 56.982421875 16.91796875 17.224609375 53.16015625 45.728515625 5.50390625 8.06640625 1.6640625 18.046875 1.708984375 91.0078125.970703125 18.943359375-.607421875 29.568359375-7.888671875 73.576171875.5703125 24.85546875h44.798828125v-384h-128v-640h128v-640h-128v-127.998046875h128v-256.001953125z" fill="#356b35"/><path d="m3528.177734375 449.2109375-1.185546875.361328125-134.833984375 141.00390625-.8515625 2.87890625.005859375 36.2734375 27.85546875 164.36328125 2.1171875 5.517578125 70.5390625 80.19921875-14.21875 7.400390625-1.90625 3.51171875-6.580078125 41.880859375.4765625 3.162109375 27.4765625 51.173828125 2.396484375 2.744140625 30.533203125 19.498046875 32.580078125 10.15625.37109375-.146484375 2.384765625.908203125 37.083984375-36.1875 7.33984375-6.822265625.517578125-.845703125.630859375-1.07421875 2.1015625-7.69140625 9.46484375-30.36328125-8.400390625-40.75 8.828125-3.20703125 32.80859375-21.708984375 26.58203125-95.421875 1.9453125-38.86328125 2.5234375-14.646484375.681640625-32.0546875-2.263671875-27.466796875-.021484375-1.212890625 7.1953125-154.390625-56.109375-52.912109375-58.5390625-4.453125z" fill="#666d7c"/></svg>
