<svg width="3713" height="2049" version="1.1" viewBox="0 0 3713 2049" xmlns="http://www.w3.org/2000/svg"><polygon transform="translate(.5 -2047.5)" points="3712 2048 0 2048 0 4096 3712 4096" fill="#76d3c1" stroke="#000"/><path d="m2642.419921875.5v64l1.79296875 64.001953125 4.86328125 63.998046875 6.14453125 64.001953125 11.51953125 63.998046875 21.759765625 64 33.279296875 64 44.80078125 64 53.759765625 64 65.279296875 64.001953125 67.841796875 63.998046875 51.19921875 64 28.16015625 64 11.51953125 64 7.6796875 64.001953125 2.560546875 63.998046875 1.279296875 64-1.279296875 64-6.400390625 64-7.6796875 64-15.359375 64.001953125-23.0390625 64-35.841796875 63.998046875-46.080078125 64-61.439453125 64-51.201171875 64-47.359375 64-35.482421875 64.001953125-16.9453125 63.998046875-10.138671875 64-6.451171875 64-2.662109375 64h1024v-384h-128v-128h-128v-512h128v-383.998046875h128v-640.001953125h-1006.080078125z" fill="#ece49b"/><path d="m3667.701171875.5-.55078125 40.9609375.673828125 21.859375 6.8203125 65.181640625-4.09765625 49.869140625.9921875 18.224609375-9.30859375 59.90625-.806640625 44.12890625.796875 15.84375.826171875 18.072265625 6.203125 49.953125 2.568359375 87.16796875-2.134765625 18.771484375-3.095703125 22.060546875-4.267578125 6.853515625-45.703125 36.51171875-17.46484375 17.52734375-45.224609375 49.67578125-6.220703125 12.458984375-1.3984375 4.974609375-2.302734375 27.056640625 1.298828125 14.259765625-4.7734375 86.681640625-1.2890625 16.8671875-1.40625 40.111328125 2.009765625 59.07421875-3.955078125 11.91015625-8.626953125 11.5625-40.423828125 39.578125-42.8671875 53.890625-17.451171875 16.853515625-3.880859375 6.15234375-6.296875 17.95703125-.978515625 9.7265625.55859375 100.31640625.421875 18.259765625.189453125 42.017578125-5.62890625 52.2890625-.2734375 15.43359375.857421875 60.837890625 9.201171875 67.1640625 3.265625 87.55078125 2.6875 26.841796875 4.978515625 13.60546875 6.216796875 13.890625 15.15234375 16.904296875 43.111328125 43.9453125 39.220703125 34.849609375 18.158203125 18.41015625 43.103515625 56.87890625 16.1015625 16.625 53.091796875 46.431640625 5.59765625 8.06640625 1.5703125 17.8359375 3.07421875 90.796875-.640625 19.365234375-.2578125 29.423828125-7.595703125 74.1875.173828125 24.388671875h44.798828125v-384h-128v-128h-125.951171875l-2.048828125-7.3515625v-504.6484375h128v-383.998046875h128v-640.001953125z" fill="#356b35"/></svg>
