<svg width="3713" height="2049" version="1.1" viewBox="0 0 3713 2049" xmlns="http://www.w3.org/2000/svg"><polygon transform="translate(.5 -2047.5)" points="0 4096 3712 4096 3712 2048 0 2048" fill="#76d3c1" stroke="#000"/><path d="m2688.5.5v128.001953125l-38.400390625 128-102.400390625 127.998046875-76.798828125 110.03125-51.19921875 145.970703125-25.6015625 127.998046875-25.59765625 256v128l12.798828125 128 51.19921875 128.001953125 76.80078125 127.998046875 102.400390625 128 64 128.001953125 12.798828125 127.998046875v128h256.001953125v-.001953125h128l128 .001953125h511.998046875v-2048h-959.998046875zm-76.798828125 384h460.80078125v256h-128.001953125v384h128.001953125v512l-204.80078125 128-102.400390625-128-76.80078125-127.998046875-51.19921875-128.001953125-12.80078125-128v-128l12.80078125-128 12.798828125-128 25.6015625-127.998046875h-192l51.19921875-123.853515625z" fill="#ece49b"/><path d="m3667.701171875.5v2048h44.80078125v-2048h-32.001953125z" fill="#356b35"/><path d="m2294.46875 204.890625-53.892578125 76.2578125-9.296875 54.8125 65.583984375 168.9765625-115.705078125 116.6171875.466796875 11.767578125-2.642578125-.041015625-2.45703125-.037109375-2.822265625-.04296875-5.94140625 83.8203125 6.17578125 113.748046875-7.25 3.7890625.89453125 177.396484375-15.14453125 179.01953125 19.30859375 217.94921875 130.029296875 123.50390625 3.21875 1.70703125 47.787109375 7.24609375 79.7421875 11.783203125 51.171875 11.8828125 9.6171875-2.5546875 1.333984375-1.763671875 4.50390625-7.365234375-.57421875 15.861328125 4.7265625 16.44140625 24.818359375 52.447265625 70.232421875 67.60546875 1.24609375 1.19140625 62.904296875 59.751953125 87.369140625 83.017578125 4.736328125 1.03125 28.146484375-1.181640625 93.3359375-3.916015625 61.837890625 56.814453125 4.826171875-1.09375 60.443359375-32.80078125 1.458984375-1.798828125 106.81640625-131.810546875 54.634765625-48.97265625.6953125-.708984375 27.826171875-35.119140625.1171875-3.599609375 3.482421875-106.14453125-5.830078125-8.0078125 6.177734375-4.83984375-1.8984375-163.21875-.19921875-5.76953125-7.78515625-63.275390625-.03515625-.23046875-.287109375-.58984375-2.5625-6.509765625 2.736328125-9.427734375 20.1640625-17.181640625-30.875 13.076171875 23.072265625-106.56640625.447265625-4.291015625-7.71484375-62.623046875 2.943359375-70.982421875-2.970703125-.890625-.55859375-.16796875-1.556640625-.466796875 1.62109375-2.44921875-.9140625-1.408203125-72.11328125-121.37109375-9.052734375-7.369140625 2.060546875-127.318359375 6.810546875-54.265625 4.451171875-44.234375 6.677734375-28.70703125-4.876953125-128.052734375-.3125-58.73828125 4.21875-71.0078125-2.875-65.455078125-50.6875-56.650390625-93.267578125 9.390625-61.189453125-8.75-63.087890625 6.1640625-19.61328125 4.275390625.15625-.82421875-10.9375-9.486328125-161.564453125-53.52734375-169.037109375 10.916015625zm771.0625 711.12109375h.001953125l-8.50390625 22.845703125zm-34.173828125 305.052734375 15.365234375 16.267578125-15.365234375-15.94140625zm-166.033203125 289.326171875 1.865234375 3.953125h-.001953125z" fill="#666d7c"/></svg>
