<svg width="3713" height="2049" version="1.1" viewBox="0 0 3713 2049" xmlns="http://www.w3.org/2000/svg"><polygon transform="translate(-2431.5,-2047.5)" points="2432 4096 6144 4096 6144 2048 2432 2048" fill="#76d3c1" stroke="#000"/><path d="m101.205078125 12.359375-141.421875 44.591796875-108.564453125 120.109375-10.4296875 48.251953125 18.314453125 59.68359375-22.685546875 89.818359375 62.787109375 179.630859375 47.267578125 57.89453125-60.0859375-.625-8.16796875 2.84375-82.1640625 64.65234375-63.94921875 141.607421875-15.130859375 132.76953125 83.833984375 149.80859375 96.591796875 61.017578125 97.2421875-33.8671875 8.16796875-2.845703125 120.986328125-121.744140625-13.501953125-181.19140625-39.603515625-113.70703125-66.21484375-77.634765625 86.47265625 20.09375 172.421875-31.7578125 108.240234375-142.306640625 25.533203125-156.80859375-64.400390625-211.67578125zm3067.720703125 44.626953125-44.234375 24.087890625-125.58984375 53.36328125-140.447265625 162.908203125-57.009765625 57.625-28.76953125 199.65234375 60.9453125 257.59765625 10.3984375 15.326171875 119.427734375 104.234375 161.072265625 31.751953125 290.84375-154.619140625 70.34765625-304.796875-14.3984375-204.640625-59.755859375-112.013671875-45.98828125-86.203125zm-1503.181640625 15.77734375-127.55078125 52.01953125-66.619140625 64.833984375-53.0859375 153.955078125 98.5390625 108.71875 2.435546875 4.4453125 154.568359375 13.83203125 106.203125-102.177734375 46.984375-84.466796875 9.28125-105.4375-66.287109375-68.130859375zm742.486328125 98.73828125-313.98828125 68.654296875-114.23046875 151.05078125-24.15234375 205.35546875 24.84375 57.947265625 63.22265625 48.58203125 42.8359375 110.28515625 107.134765625 90.220703125 208.005859375 88.876953125 160.18359375-39.302734375 151.625-342.412109375-42.73046875-183.857421875-111.384765625-158.259765625zm-1525.546875 238.146484375-33.626953125 19.046875-95.650390625 42.54296875-148.638671875 171.69921875-19.5078125 153.51953125 50.052734375 196.8203125 8.173828125 11.623046875 92.947265625 78.42578125 123.96484375 22.291015625 221.119140625-122.3359375 50.056640625-234.70703125-13.671875-156.794921875-47.2734375-85.158203125-36.3828125-65.53515625zm898.76171875 258.3125-23.68359375 17.041015625-68.359375 39.763671875-97.587890625 141.06640625-2.111328125 116.87109375 53.658203125 143.701171875 7.087890625 8.060546875 71.37109375 77.64453125 99.734375-19.73046875 75.64453125-53.28515625-.880859375 45.587890625 29.44921875 55.046875-4.990234375 92.50390625 4.322265625 14.46875 43.037109375 84.44921875 48.80078125 65.28515625 26.693359375 82.76953125 171.24609375 6.021484375 172.375-92.765625 78.8515625-160.46484375-5.09765625-158.794921875-103.90625-195.337890625-213.65625-57.18359375-32.5234375 4.943359375-124.21484375 67.689453125 9.3125-91.18359375-23.072265625-116.62109375-75.123046875-106.322265625zm315.80859375 277.958984375h.001953125l-58.494140625 86.8828125zm1209.837890625 202.65625-220.662109375 15.009765625-29.177734375 15.19921875-100.251953125 109.263671875-34.06640625 158.27734375 15.0625 47.01171875 45.671875 42.55859375 25.205078125 89.14453125 8.771484375 12.294921875 68.04296875 65.982421875 67.294921875 45.98828125 52.033203125 69.68359375 163.98828125-49.703125 133.09375-143.5390625 22.701171875-177.345703125-56.1953125-148.60546875zm-1774.615234375 24.150390625-133.90625 63.69921875-90.93359375 133.953125-3.662109375 49.23046875 26.380859375 56.580078125-10.05859375 92.091796875 41.853515625 101.369140625 112.423828125 136.857421875 125.484375 30.53515625 228.986328125-183.1484375 36.69921875-143.16796875-20.240234375-150.173828125-70.0859375-122.146484375zm-1012.787109375 7.751953125-24.263671875 16.1953125-69.716796875 37.341796875-102.482421875 137.5546875-6.212890625 116.7265625 48.58203125 145.49609375 6.798828125 8.3046875 68.599609375 80.099609375 100.365234375-16.216796875 159.810546875-104.373046875 24.736328125-179.572265625-18.962890625-117.357421875-71.345703125-108.89453125zm456.91015625 225.3515625-135.86328125 59.41796875-95.13671875 131-5.22265625 49.091796875 24.572265625 57.388671875-12.978515625 91.724609375 81.587890625 171.912109375 61.787109375 61.037109375 139.42578125 17.021484375 168.052734375-49.96484375 92.447265625-153.03515625 8.666015625-158.638671875-86.60546875-203.599609375z" fill="#6ea09e"/></svg>
