<svg width="3713" height="2049" version="1.1" viewBox="0 0 3713 2049" xmlns="http://www.w3.org/2000/svg"><polygon transform="translate(-2431.5,-2047.5)" points="2432 4096 6144 4096 6144 2048 2432 2048" fill="#76d3c1" stroke="#000"/><path d="m.5.498046875v640.001953125h128v1024h-128v384h1024l3.841796875-64.001953125-15.36328125-63.998046875-35.837890625-64.001953125-52.48046875-63.998046875-24.3203125-64.001953125-6.3984375-63.998046875-25.6015625-64-44.80078125-64.001953125-26.87890625-63.998046875-12.80078125-64.001953125-8.958984375-64 1.279296875-64 5.119140625-63.998046875-7.6796875-64-29.4375-64-44.80078125-64.001953125-30.720703125-64-16.638671875-63.998046875-2.560546875-64.001953125 2.560546875-63.998046875 10.23828125-64.001953125 25.599609375-63.998046875 43.521484375-64 55.0390625-64.001953125 76.80078125-64 66.55859375-64 55.041015625-64 40.9609375-64 27.904296875-63.998046875 13.822265625-64.001953125 5.6328125-64-2.560546875-64h-942.080078125z" fill="#ece49b"/><path d="m.5.498046875v640.001953125h128v1024h-128v384h44.80078125v-11.666015625l-1.595703125-28.72265625 3.53515625-65.392578125.0625-22.21875-.208984375-17.947265625-5.6328125-45.92578125 3.83984375-38.3984375.044921875-15.70703125 4.13671875-10.021484375 7.5703125-12.509765625 15.767578125-15.767578125 32.3828125-30.21875 43.498046875-49.919921875 11.798828125-19.583984375 7.935546875-22.654296875.80859375-7.896484375 2.775390625-97.451171875-10.4375-128 7.822265625-112.16796875.609375-15.83203125-.25390625-15.87109375-6.994140625-40.693359375-.986328125-71.43359375 7.6796875-86.3203125 1.28125-41.681640625-.14453125-11.51953125-4.529296875-28.27734375 3.392578125-88.201171875-3.73046875-79.033203125.224609375-48.966796875 3.76171875-61.296875-1.818359375-52.142578125-6.1171875-14.560546875-10.240234375-16.111328125-17.755859375-17.888671875-30.5078125-27.953125-48.759765625-56.3203125-5.5390625-9.728515625.076171875-11.3828125-.345703125-1.751953125-5.859375-29.990234375 6.43359375-62.373046875.501953125-22.501953125-.25390625-18.74609375-4.228515625-55.80078125.23828125-53.453125 5.3359375-53.212890625-5.302734375-74.787109375 4.986328125-84.994140625-.669921875-13.173828125-4.587890625-29.83203125h-12.80078125z" fill="#356b35"/><path d="m251.451171875 1169.7421875-6.224609375.7265625-2.91796875.80859375-3.08984375.37890625-86.033203125 104.79296875-19.208984375 261.240234375 20.888671875 21.185546875 2.9609375 4.01171875 45.0390625 48.56640625 42.458984375 44.220703125 3.44921875.19140625 228.728515625-122.216796875 2.111328125-2.80859375 19.64453125-88.5625.232421875-3.779296875-14.505859375-144.87890625-1.572265625-3.265625-113.1328125-106.345703125-3.28515625-1.53515625zm194.650390625 402.77734375-144.189453125 67.513671875-1.6796875 2.755859375 3.55078125 33.626953125.1953125 23.6171875 14.396484375 13.935546875 48.44140625 52.88671875 5.658203125 5.21484375 3.4609375-.025390625 84.361328125-54.19921875 2.884765625-2.412109375 40.400390625-47.01953125 1.4609375-3.357421875 2.96875-52.96484375-.244140625-.484375.005859375-.09375-.076171875-.048828125-1.16796875-2.31640625-56.986328125-36.392578125z" fill="#666d7c"/></svg>
