<svg width="3713" height="2049" version="1.1" viewBox="0 0 3713 2049" xmlns="http://www.w3.org/2000/svg"><polygon transform="translate(-2431.5,-2047.5)" points="2432 4096 6144 4096 6144 2048 2432 2048" fill="#76d3c1" stroke="#000"/><path d="m.5.498046875v256h128v128h908.80078125l8.958984375-64 .07421875-1.251953125 42.166015625-4.890625 64.001953125 7.9375 34.173828125 4.095703125 72.576171875-3.072265625 21.248046875 7.421875 10.3671875 6.78515625 35.583984375 32 14.208984375 16.25390625 3.83984375 126.720703125v128.001953125l-3.83984375 46.974609375.0390625.662109375-.0390625.490234375-1.279296875 79.873046875-47.533203125 51.35546875-11.34765625 7.5234375-15.48828125 3.583984375-50.431640625 2.81640625-62.078125-5.119140625-43.265625 3.837890625-66.81640625-3.837890625-17.919921875 5.119140625-22.3984375 17.0234375-50.3046875 66.43359375-55.298828125 48.3828125-96.25390625 86.912109375-4.85546875 3.740234375 1.271484375-31.7734375h-412.16015625v128.001953125h-128v127.998046875h-128v128h-128v640.001953125h1024v-64.001953125l6.400390625-63.998046875-1.28125-64.001953125-10.23828125-63.998046875-25.6015625-64.001953125-39.677734375-63.998046875-44.80078125-64-38.400390625-64.001953125-30.71875-63.998046875-20.48046875-64.001953125-13.44140625-64-5.759765625-64-8.9609375-127.998046875 2.955078125-73.869140625 132.27734375-127.732421875 30.2734375-26.49609375 1.5546875-2.068359375 65.900390625-81.8984375 76.9375 1.849609375h.0390625l5.19921875.197265625 45.826171875-4.86328125 62.205078125 3.072265625 47.6171875-4.48046875.306640625-.068359375 17.869140625-4.02734375 2.0625-1.392578125 11.759765625-7.951171875 41.216796875-36.224609375.2578125-.25390625 16.3828125-17.79296875 3.841796875-16.76953125v-.126953125l-3.810546875-63.48828125 3.810546875-47.615234375 3.837890625-33.28125v-51.83984375l-3.837890625-42.880859375 2.55859375-28.03125v-.896484375l-2.55859375-74.3671875-3.841796875-23.42578125-19.072265625-21.630859375-36.607421875-42.3671875-16-18.6875-19.7109375-7.041015625-55.744140625 3.267578125-52.54296875-2.626953125-64.001953125-11.77734375-40.236328125 2.173828125 1.8359375-30.58984375-1.919921875-63.998046875-12.16015625-64.001953125-11.51953125-64v-64h-896zm793.6015625 256 50.251953125 25.90234375h-.00390625z" fill="#ece49b"/><path d="m.5.498046875v256h128v128h1152v384.001953125h-384.001953125v128h-127.99609375v127.998046875h-256l22.123046875 56.82421875h-.001953125l-22.12109375-56.82421875h-128.001953125v128.001953125h-128v127.998046875h-128v128h-128v640.001953125h44.80078125l1.154296875-10.40625.685546875-32.435546875 6.08984375-65.3515625-1.85546875-33.068359375-4.794921875-50.04296875-1.8515625-64.6953125-.068359375-58.921875-5.1015625-43.771484375-.658203125-25.306640625 5.177734375-40.072265625 12.998046875-60.20703125 4.12890625-40.140625 5.107421875-8.953125 36.298828125-36.150390625 6.916015625-8.380859375 36.11328125-28.078125 8.5625-8.2109375 6.44921875-6.7421875 68.94921875-78.32421875 47.123046875-39.697265625 9.587890625-11.6875 43.8828125-57.486328125 55.134765625-53.701171875 83.580078125-60.71484375 30.564453125-19.029296875 13.02734375-3.51953125 21.826171875 1.666015625 70.107421875-6.662109375 28.9296875 3.078125 7.134765625-.048828125 41.37890625-.62890625 48.48046875-9.7265625 38.193359375-8.84375 31.40234375-24.970703125 96.91015625-89.85546875 56.029296875-48.68359375 49.6875-64.63671875 21.9453125-18.423828125 18.017578125-3.947265625 66.341796875 3.2265625 43.55859375-3.921875 62.130859375 4.513671875 50.052734375-2.9609375 15.912109375-3.4921875 12.681640625-8.228515625 19.630859375-16.80078125 20.126953125-19.421875 13.69140625-16.076171875 4.0703125-16.556640625-3.849609375-64.470703125 2.412109375-47.03125 3.892578125-33.2578125.01953125-53.462890625-3.806640625-41.28125 2.41796875-27.740234375-2.6171875-75.494140625-3.431640625-23.47265625-8.9765625-9.896484375-8.6796875-7.8515625-35.9296875-33.720703125-11.58203125-6.84765625-21.33203125-7.236328125-72.3359375 3.23046875-34.44140625-4.080078125-63.94140625-8.779296875-64.013671875 6.740234375-81.416015625 4.30078125h-27.001953125l-19.630859375-.0078125-23.822265625.220703125-38.3671875-6.333984375-65.865234375-5.82421875-60.322265625 2.783203125-67.5625 4.421875-87.16796875 6.22265625-40.716796875 5.873046875-36.2890625-3.552734375h-88.626953125l-46.11328125-4.73828125-14.828125.384765625-49.04296875 8.4140625-21.2734375-1.51953125-21.203125-15.697265625-45.58984375-48.15625-34.759765625-36.3203125-25.625-31.34765625-63.416015625-58.05859375-5.24609375-14.732421875-13.58984375-62.1328125-1.76953125-61.05078125h-12.80078125z" fill="#356b35"/></svg>
