<svg width="3713" height="2049" version="1.1" viewBox="0 0 3713 2049" xmlns="http://www.w3.org/2000/svg"><polygon transform="translate(-2431.5,-2047.5)" points="2432 4096 6144 4096 6144 2048 2432 2048" fill="#76d3c1" stroke="#000"/><path d="m2519.53125 14.158203125-193.13671875 73.83984375-39.81640625 48.88671875-13.720703125 78.54296875-77.83984375 89.09765625-30.244140625 136.759765625 17.7265625 225.501953125 109.109375 123.6875 373.6796875-24.470703125 143.072265625-123.126953125 88.552734375-172.076171875 15.86328125-179.154296875-206.4453125-246.337890625zm-1366.53125 38.416015625-83.673828125 45.103515625-64.75390625 90.1875 15.115234375 136.916015625 44.119140625 81.82421875 133.541015625 93.205078125 131.541015625-65.01171875 4.94140625-1.123046875 55.619140625-144.87890625-69.203125-130.119140625-68.376953125-68.3125zm-631.7265625 108.17578125-8.55859375 1.23828125-92.958984375 47.849609375-89.712890625 126.861328125-40.103515625 127.46875 31.751953125 96.177734375-169.90625 14.494140625-34.91796875 36.314453125-103.640625 88.744140625-84.787109375 197.6796875-36.974609375 72.12890625 32.775390625 199.03515625 135.7890625 227.2265625 14.537109375 11.474609375 145.30078125 63.369140625 126.767578125-14.216796875-9.78515625 5.33203125-83.44140625 138.74609375-.953125 49.35546875 29.44921875 55.046875-4.990234375 92.50390625 4.322265625 14.470703125 43.037109375 84.447265625 48.802734375 65.287109375 26.69140625 82.767578125 171.24609375 6.021484375 172.375-92.765625 9.833984375-20.009765625 80.10546875 23.169921875 189.091796875-26.03125 99.134765625-151.755859375 33.033203125-114.19921875-17.94140625-128.939453125-98.240234375-63.39453125-28.876953125 4.271484375-78.970703125 3.94921875-151.451171875 80.53515625-.439453125.81640625-65.4296875-123.0078125-213.658203125-57.185546875-32.5234375 4.9453125-50.84765625 27.708984375 197.482421875-201.294921875-22.7890625-286.099609375 1.93359375 4.07421875 61.7890625 61.037109375 139.42578125 17.0234375 168.052734375-49.96484375 92.4453125-153.03515625 8.66796875-158.638671875-86.60546875-203.6015625-240.734375-73.35546875-38.326171875 16.76171875-14.2265625-98.255859375-63.615234375-112.44921875zm-15.728515625 8.095703125-116.26171875 111.1953125.001953125-.00390625zm1374.931640625 161.42578125-46.27734375 19.91796875-129.955078125 41.568359375-154.8515625 149.283203125-62.07421875 52.130859375-47.029296875 196.154296875 33.828125 239.85546875-47.7109375-61.40625-121.978515625-70.380859375-243.041015625 65.30859375-83.755859375 122.365234375-11.298828125 161.5078125 21.57421875 44.40234375 51.244140625 35.66015625 37.583984375 84.671875 87.12890625 66.603515625 165.9765625 61.8203125 123.828125-36.662109375 105.927734375-273.41796875-34.162109375-120.798828125 70.08984375 73.59375 157.462890625 46.44921875 303.845703125-127.18359375 98.115234375-297.0234375 4.501953125-205.099609375-49.189453125-117.0390625-37.853515625-90.0703125zm1178.927734375 223.919921875-183.33203125 84.236328125-20.548828125 45.990234375-67.453125 118.611328125-12.802734375 214.712890625-10.35546875 80.39453125 98.265625 176.16015625 204.73828125 167.7890625 17.564453125 5.873046875 158.17578125 10.3984375 147.302734375-72.48828125 137.3828125-299.37109375-129.009765625-284.96875-135.607421875-153.93359375-115.4609375-52.78515625zm-2538.013671875 137.595703125-4.5 31.80078125-3.48046875-8.796875-19.453125-19.03125zm2026.201171875 93.82421875-111.982421875 33.60546875-15.482421875 24.728515625-48.25390625 62.658203125-37.01171875 167.4921875 42.232421875 108.99609375 104.0078125 112.748046875 9.60546875 4.783203125 95.4296875 44.896484375 84.869140625-55.97265625 102.90625-160.759765625-51.126953125-173.90625-65.447265625-99.240234375zm124.927734375 572.9765625-32.7734375 2.849609375-134.482421875 62.4765625-92.1484375 133.119140625-4.111328125 49.1953125 25.865234375 56.8203125-10.900390625 91.994140625 3.384765625 14.716796875 37.546875 87.029296875 44.521484375 68.275390625 21.33984375 84.30859375 170.509765625 16.96875 177.958984375-81.541015625 88.9609375-155.087890625 5.076171875-158.794921875-91.19140625-201.58984375zm-916.681640625 19.763671875-135.861328125 59.419921875-95.13671875 131-5.224609375 49.08984375 24.576171875 57.390625-12.978515625 91.72265625 81.5859375 171.912109375 61.787109375 61.037109375 139.427734375 17.0234375 168.05078125-49.96484375 92.447265625-153.037109375 8.666015625-158.63671875-86.60546875-203.6015625z" fill="#6ea09e"/></svg>
