<svg width="3713" height="2049" version="1.1" viewBox="0 0 3713 2049" xmlns="http://www.w3.org/2000/svg"><polygon transform="translate(.5 -2047.5)" points="0 4096 3712 4096 3712 2048 0 2048" fill="#76d3c1" stroke="#000"/><path d="m2688.5.5-3.83984375 64 16.640625 64.001953125 34.560546875 63.998046875 47.359375 64.001953125 23.0390625 63.998046875 11.51953125 64 1.28125 64-15.361328125 64-84.478515625 128.001953125-6.400390625 127.998046875 44.798828125 128 39.681640625 128 19.19921875 128 6.400390625 128-6.400390625 128.001953125-20.478515625 127.998046875-43.521484375 128-64 128.001953125-16.640625 63.998046875 1.28125 64 14.080078125 64 1.279296875 64h1024v-255.998046875h-128v-384h128v-512.001953125h-128v-639.998046875h128v-256.001953125h-960zm449.279296875 563.19921875 98.560546875 83.201171875 65.28125 64 3.83984375 62.720703125v122.87890625l-2.560546875 43.521484375-5.119140625 140.798828125-75.521484375 71.6796875-144.640625 94.720703125-133.119140625-94.720703125-19.19921875-128-30.720703125-128-47.359375-128v-127.998046875l38.3984375-64.001953125h128z" fill="#ece49b"/><path d="m3667.701171875.5 3.837890625 40.85546875-1.599609375 21.84765625-.703125 56.9765625-1.53515625 8.322265625-21.12109375 32-39.041015625 31.998046875-57.357421875 57.552734375-2.80078125 6.44921875-5.802734375 24.544921875-1.970703125 16.267578125 3.29296875 24.71875 4.607421875 62.466796875-5.294921875 86.90625-2.642578125 41.09375.001953125 40.8515625 1.58203125 20.919921875 11.21875 66.23046875 1.15234375 65.40625-5.376953125 62.591796875-3.19140625 62.81640625 5.494140625 65.18359375 9.501953125 15.83984375 46.93359375 48.271484375 46.166015625 31.865234375 14.6484375 32.0234375 5.119140625 42.474609375-5.119140625 85.525390625 2.046875 65.53515625-5.248046875 62.46484375-8 16-31.119140625 33.55859375-13.49609375 14.48046875-55.03125 47.87109375-8.943359375 16.041015625-7.5703125 84.251953125.7578125 13.21875 4.8359375 31.0078125-7.513671875 40.41015625-4.48046875 44.080078125.06640625 33.54296875.826171875 26.166015625.900390625 48.587890625-.07421875 23.314453125.21875 16.03125 3.822265625 23.439453125 4.16015625 10.8984375 53.44140625 53.099609375 48.638671875 32 21.76171875 32 2.55859375 34.5625-2.072265625 23.357421875-.615234375 10.55859375.12890625 47.59765625v11.923828125h44.798828125v-255.998046875h-128v-384h128v-512.001953125h-128v-639.998046875h128v-256.001953125h-32z" fill="#356b35"/><path d="m2873.814453125 337.8125-183.748046875 2.46484375-3.826171875.033203125-128.23046875 105.73828125-1.64453125 3.12109375-1.73828125 129.642578125 1.7421875 3.0546875 62.873046875 67.296875 3.4296875 2.466796875 64.25 23.0625-1.396484375 19.162109375-5.986328125 74.64453125-2.55859375 64 5.119140625 64v62.080078125l1.421875 3.212890625 66.501953125 60.455078125 4.388671875-.021484375-1.345703125 3.958984375-.56640625 1.6640625v58.73046875l1.357421875 3.27734375 62.794921875 62.751953125 37.146484375 26.30859375 29.84765625 35.568359375 3.119140625.3515625 58.51953125 34.732421875 2 1.3984375 33.810546875 17.525390625 138.56640625 1.107421875 7.0078125-1.517578125 37.8125-29.013671875 41.39453125-59.625 51.466796875-33.80859375 2.791015625-2.564453125 43.771484375-48.671875 2.48828125-4.7109375 8.072265625-73.109375-.275390625-3.7734375-4.67578125-17.78125-3.728515625-5.8515625 7.455078125-14.482421875.955078125-3.64453125 2.373046875-69.6171875-6.572265625-56.43359375.056640625-75.6796875-6.740234375-63.8203125-5.22265625-7.728515625-64.578125-56.802734375-1.693359375-1.82421875-31.556640625-47.001953125-9.072265625-8.2265625-43.177734375-38.40625-19.82421875-12.357421875-58.583984375-15.740234375-55.330078125-49.298828125-5.58203125-3.5546875-54.732421875-7.958984375-2.181640625.34375.06640625-48.921875-71.27734375-44.66796875v2.560546875l-1.2890625 5.166015625-1.67578125-29.486328125zm-38.87109375 210.935546875-.486328125 1.94921875-1.95703125 4.828125zm-9.970703125 27.654296875.10546875.09765625h-.140625z" fill="#666d7c"/></svg>
