<svg width="3713" height="2049" version="1.1" viewBox="0 0 3713 2049" xmlns="http://www.w3.org/2000/svg"><polygon transform="translate(-2431.5,-2047.5)" points="2432 4096 6144 4096 6144 2048 2432 2048" fill="#76d3c1" stroke="#000"/><path d="m2514.880859375 57.923828125-178.98046875 75.873046875-35.763671875 47.267578125-10.25 74.255859375-70.140625 86.330078125-23.81640625 129.509765625 24.23828125 211.275390625 106.673828125 112.541015625 350.26953125-35.556640625 130.28125-120.494140625 77.416015625-164.654296875 8.876953125-168.857421875-202.248046875-224.505859375zm623.552734375 73.794921875-23.982421875 16.630859375-69.03515625 38.564453125-100.02734375 139.349609375-4.146484375 116.81640625 51.15234375 144.61328125 6.947265625 8.18359375 70.009765625 78.87109375 100.060546875-17.9921875 157.935546875-107.189453125 21.55078125-179.982421875-21.037109375-117.001953125-73.267578125-107.61328125zm-188.32421875 313.904296875 48.609375 148.349609375-.001953125-.001953125zm-990.0234375 74.361328125-32.83203125 2.064453125-135.94140625 59.234375-95.314453125 130.87109375-5.291015625 49.08203125 24.49609375 57.423828125-13.1015625 91.70703125 3.033203125 14.794921875 35.447265625 87.904296875 42.873046875 69.322265625 19.310546875 84.794921875 146 18.076171875-102.908203125 87.72265625-85.234375 197.52734375-37.1171875 72.017578125 32.337890625 199.10546875 135.291015625 227.5234375 14.51171875 11.5078125 145.162109375 63.689453125 163.1875-17.943359375 151.068359375-153.306640625 59.19140625 55.912109375 40.46484375 76.978515625 169.751953125-23.375 153.953125-120.896484375 50.2265625-171.59375-32.19921875-155.576171875-135.8046875-174.67578125-84.65234375-7.59765625 172.35546875-127.02734375 32.9609375-111.40234375-11.3203125-119.037109375-51.103515625-98.814453125-187.85546875-60.759765625-8.6484375 3.7109375-107.740234375 45.712890625-75.619140625 102.37109375-3.890625 38.44921875 19.71875 45.203125-9.734375 71.783203125 30.982421875 80.833984375 86.06640625 110.978515625 40.662109375 11.4296875-62.470703125-5.607421875-31.19921875 10.435546875-37.322265625 29.626953125-35.828125-91.189453125-90.55859375-88.978515625-69.69140625-68.47265625-100.302734375 8.333984375 67.228515625-28.875 92.65234375-152.912109375 8.880859375-158.626953125-86.33203125-203.716796875zm-48.23046875 21.08203125h.001953125l-65.90625 81.40234375zm1429.576171875 122.67578125-30.615234375 29.353515625-87.603515625 69.392578125-93.416015625 173.515625-38.287109375 62.521484375-11.802734375 190.025390625 55.009765625 229.70703125 8.125 12.595703125 90.13671875 78 116.767578125 4.08984375 201.498046875-189.533203125 36.947265625-294.26953125-19.337890625-187.8515625-47.73828125-94.638671875-36.7421875-72.830078125zm-1500.27734375 652.171875-20.53515625 187.40234375z" fill="#6ea09e"/></svg>
