<svg width="3713" height="2049" version="1.1" viewBox="0 0 3713 2049" xmlns="http://www.w3.org/2000/svg"><polygon transform="translate(-2431.5,-2047.5)" points="2432 4096 6144 4096 6144 2048 2432 2048" fill="#76d3c1" stroke="#000"/><path d="m337.169921875 12.359375-141.423828125 44.591796875-108.564453125 120.109375-10.427734375 48.251953125 18.3125 59.68359375-22.68359375 89.818359375 62.787109375 179.630859375 54.927734375 67.279296875 136.81640625 31.79296875 172.421875-31.7578125 108.23828125-142.306640625 25.533203125-156.80859375-64.400390625-211.67578125zm1459.9140625 62.88671875-28.474609375 6.490234375-78.41796875 10.02734375-144.787109375 91.98046875-47.41796875 106.841796875-6.48046875 153.255859375 3.392578125 10.181640625 35.537109375 99.294921875 99.548828125 20.62890625 186.51953125-40.54296875 87.130859375-158.953125 24.123046875-116.40625-27.8359375-127.17578125zm1156.033203125 80.623046875-220.666015625 15.009765625-29.17578125 15.19921875-100.251953125 109.263671875-34.06640625 158.275390625 15.064453125 47.013671875 45.671875 42.55859375 25.203125 89.146484375 8.771484375 12.29296875 68.044921875 65.982421875 67.294921875 45.98828125 52.03125 69.68359375 163.986328125-49.703125 133.09765625-143.541015625 22.69921875-177.34375-56.193359375-148.603515625zm-1753.353515625 15.6328125-313.98828125 68.654296875-114.23046875 151.05078125-24.15234375 205.35546875 24.841796875 57.947265625 63.22265625 48.58203125 42.8359375 110.28515625 107.134765625 90.220703125 208.0078125 88.876953125 160.181640625-39.302734375 151.623046875-342.412109375-42.728515625-183.857421875-111.384765625-158.259765625zm1497.1484375 38.203125-27.2421875 101.1328125zm-2773.279296875 476.107421875-33.615234375 19.0390625-95.662109375 42.548828125-148.638671875 171.701171875-19.509765625 153.51953125 50.0546875 196.8203125 8.171875 11.62109375 92.94921875 78.427734375 62.59375 11.255859375-9.548828125-.099609375-8.16796875 2.845703125-82.1640625 64.65234375-63.94921875 141.609375-15.130859375 132.767578125 83.833984375 149.80859375 96.591796875 61.01953125 97.2421875-33.869140625 8.16796875-2.84375 120.98828125-121.744140625-3.71484375-49.853515625 71.884765625 151.46875 61.7890625 61.037109375 139.427734375 17.0234375 168.05078125-49.96484375 92.447265625-153.03515625 8.6640625-158.638671875-86.603515625-203.603515625-240.734375-73.3515625-135.861328125 59.41796875-95.13671875 131-5.224609375 49.08984375 24.57421875 57.388671875-7.62109375 53.86328125-5.443359375-73.03515625-39.603515625-113.70703125-83.83984375-98.30078125-11.103515625-.115234375 202.67578125-112.130859375 50.0546875-234.708984375-13.669921875-156.794921875-47.275390625-85.15625-36.380859375-65.537109375zm840.328125 141.724609375-24.279296875 16.20703125-69.69921875 37.330078125-102.482421875 137.556640625-6.212890625 116.72265625 48.580078125 145.498046875 6.80078125 8.3046875 68.6015625 80.099609375 100.36328125-16.216796875 159.810546875-104.375 24.736328125-179.5703125-18.9609375-117.357421875-71.345703125-108.892578125zm869.92578125 30.0078125-91.607421875 25.37890625-83.1796875 73.5390625-15.6953125 136.8515625 24.830078125 89.583984375 109.484375 120.552734375 142.701171875-34.150390625 5.068359375.00390625 86.42578125-128.89453125-38.55078125-142.24609375-51.48046875-81.798828125zm626.046875 13.13671875-152.73828125 53.69140625-32.205078125 37.416015625-12.40625 61.185546875-62.8203125 68.0859375-5.896484375 13.90234375-20.68359375 92.498046875-4.025390625 81.41015625-32.205078125 80.78125 128.091796875 113.818359375 191.939453125 38.4296875 163.052734375-73.34765625 97.310546875-125.5859375 44.490234375-216.736328125-128.14453125-180.271484375-28.208984375-16.927734375zm651.65234375 208.9765625-44.236328125 24.08984375-125.587890625 53.361328125-140.455078125 162.9140625-57.001953125 57.619140625-28.771484375 199.65234375 60.9453125 257.59765625 10.40234375 15.32421875 119.42578125 104.236328125 161.0703125 31.751953125 290.84375-154.619140625 70.349609375-304.796875-14.400390625-204.642578125-59.755859375-112.01171875-45.986328125-86.203125zm-1075.638671875 307.248046875-154.283203125 49.0859375-33.310546875 36.435546875-14.236328125 60.78515625-64.8359375 66.169921875-29.7578125 105.5546875 3.7734375 177.07421875 79.763671875 101.568359375 293.20703125-2.419921875 117.349609375-89.8515625 76.919921875-130.55859375 20.41015625-139.33984375-150.3671875-201.798828125z" fill="#6ea09e"/></svg>
