<svg width="3713" height="2049" version="1.1" viewBox="0 0 3713 2049" xmlns="http://www.w3.org/2000/svg"><polygon transform="translate(.5 -2047.5)" points="3712 2048 0 2048 0 4096 3712 4096" fill="#76d3c1" stroke="#000"/><path d="m2688.5.5-5.119140625 64 8.958984375 64.001953125 25.599609375 63.998046875 38.400390625 64.001953125 15.359375 63.998046875-1.279296875 64-14.080078125 128 .921875 30.73828125-68.76171875-.955078125-128-17.279296875-94.853515625 14.892578125-13.43359375-1.837890625-19.712890625 7.041015625-15.359375 18.431640625-24.31640625 31.283203125-19.33203125 18.705078125-22.912109375 27.876953125-3.83984375 42.87890625v51.841796875l3.83984375 33.279296875 3.79296875 47.40625v.001953125l-4.923828125 31.302734375 1.130859375 32.521484375 3.83984375 16.767578125 16.384765625 17.79296875.255859375.25390625 47.615234375 45.23046875 13.82421875 9.34375 18.17578125 4.095703125 17.458984375-1.033203125 92.365234375 7.9453125 79.19921875 72.068359375 31.0078125 34.84375 17.79296875 9.564453125 22.015625 4.9921875 45.439453125.134765625 60.544921875-.580078125 127.8203125 25.580078125.1796875.076171875 36.86328125-1.712890625 20.634765625-4.09765625 39.576171875-3.97265625 2.765625 34.578125-3.83984375 62.720703125-20.48046875 65.279296875-48.638671875 64.001953125-16 31.998046875-8.3203125 32.001953125-10.240234375 63.998046875-12.80078125 32-20.48046875 32-62.71875 64-62.720703125 64-47.359375 64-32 64.001953125-14.080078125 63.998046875-3.83984375 64 7.6796875 64v64h1024v-255.998046875h-128v-256.001953125l1.28125-127.998046875h-129.28125v-193.28125h-109.15234375l-9.44921875-8.388671875-23.81640625-7.16796875 6.73828125-47.1640625-6.400390625-128h-280.318359375l5.73828125 71.734375-8.171875.28125-47.744140625 4.388671875-39.423828125.05078125-31.7421875-8.3828125-96.2578125-2.30078125-55.296875 5.189453125-50.302734375-3.05078125-22.400390625-3.513671875-17.919921875-11.51953125-64.982421875-69.708984375-45.09765625-35.603515625-62.080078125-7.6796875-50.431640625 4.48046875-15.48828125-3.583984375-11.626953125-7.712890625-47.109375-50.427734375-6.005859375-9.744140625-2.931640625-10.423828125 1.11328125-69.44921875-.060546875-.76171875.060546875-.390625-3.83984375-46.974609375v-128.001953125l18.048828125-22.498046875 42.623046875-39.62109375 9.728515625-6.529296875 21.248046875-7.423828125 72.576171875 8.705078125 34.17578125-4.224609375 64-1.53515625 64 1.0234375 69.5-1.42578125 2.1796875 72.63671875h64l60.16015625-128.001953125h166.400390625l149.76171875-128h383.998046875v-127.998046875h128v-256.001953125h-960zm732.35546875 1404.6875 3.64453125 3.314453125z" fill="#ece49b"/><path d="m3667.701171875.5-1.380859375 61.1875-10.1015625 43.677734375-2.943359375 18.310546875-6.32421875 14.81640625-44.404296875 53.671875-40.328125 36.271484375-34.876953125 41.794921875-70.841796875 48.28125-70.498046875-7.439453125-60.69921875 1.025390625-88.53125-.0390625-36.236328125 6.8203125-36.97265625 31.5390625-44.263671875 43.966796875-41.978515625 39.408203125-22.984375 4.984375-49.119140625-.388671875-61.533203125 1.30859375-14.943359375 4.498046875-13.4375 10.052734375-53.884765625 84.62109375-40.451171875 19.693359375-50.880859375 5.611328125-81.60546875.361328125-63.98046875-.041015625-64.015625 2.498046875-34.359375 4.23828125-72.345703125-8.71484375-21.462890625 7.154296875-10.54296875 7.515625-43.029296875 40.47265625-10.79296875 10.2109375-10.73828125 13.43359375-3.701171875 41.25390625-.08203125 53.576171875 3.958984375 33.263671875 2.423828125 47.021484375-5.546875 32.181640625 1.724609375 32.181640625 4.3203125 16.615234375 13.26171875 15.94921875 23.861328125 24.720703125 22.150390625 20.84375 12.880859375 7.865234375 15.861328125 3.755859375 50.095703125-4.373046875 62.02734375 8.126953125 45.404296875 35.837890625 64.603515625 70.119140625 17.888671875 11.216796875 22.240234375 3.12109375 49.833984375 2.126953125 56.0703125-5.654296875 96.609375 5.09375 31.421875 9.873046875 38.923828125-.4140625 33.24609375-3.427734375 27.54296875-2.328125 28.19921875-.841796875 35.9765625-2.248046875 70.87109375 2.30859375 21.1875 2.2890625 12.39453125 11.671875 81.689453125 75.744140625 19.923828125 15.951171875 18.75 6.1484375 45.4140625 40.12109375 22.716796875 38.947265625 6.4296875 111.28515625 4.994140625 15.478515625 31.591796875 34.146484375 13.81640625 13.259765625 64.7578125 51.986328125 17.380859375 23.783203125-.90625 81.3515625.041015625 9.751953125 4.52734375 33.515625-.74609375 25.43359375-5.142578125 43.36328125-.08984375 41.5703125 3.0546875 17.634765625 9.150390625 15.40234375 43.900390625 49.4921875 58.857421875 63.103515625 9.779296875 25.1171875-.958984375 13.400390625 4.462890625 46.056640625.16796875 32.3515625 1.275390625 11.07421875h44.798828125v-255.998046875h-128l-21.728515625-11.421875 21.728515625 11.421875v-384h-128v-256.001953125h-128v-128h-640v-128h-256v-128l-63.52734375-27.7109375 63.52734375 27.7109375v-127.998046875h512v-128.001953125h256.001953125v-128h383.998046875v-127.998046875h128v-256.001953125z" fill="#356b35"/></svg>
