<svg width="3713" height="2049" version="1.1" viewBox="0 0 3713 2049" xmlns="http://www.w3.org/2000/svg"><polygon transform="translate(.5 -2047.5)" points="3712 2048 0 2048 0 4096 3712 4096" fill="#76d3c1" stroke="#000"/><path d="m2688.5.5v64l15.359375 64.001953125 32.640625 63.998046875 33.919921875 64.001953125 24.9609375 63.998046875 12.158203125 64 8.9609375 128-8.9609375 128.001953125-14.71875 63.998046875-26.240234375 64-36.48046875 64-39.0390625 64-17.919921875 64.001953125-1.28125 63.998046875 8.9609375 64 11.51953125 64-3.83984375 64-24.3203125 64-39.6796875 64.001953125-48.640625 64-33.279296875 63.998046875-8.958984375 64-2.560546875 64 7.6796875 64 15.359375 64 24.3203125 64.001953125 39.6796875 63.998046875 48.640625 64 21.759765625 64v64h1024v-384h-128v-512h128v-640h-128v-255.998046875h128v-256.001953125h-960z" fill="#ece49b"/><path d="m3667.69921875.5-3.85546875 54.607421875 1.626953125 22.4921875 6.94921875 40.68359375-1.900390625 10.21875-16.173828125 21.251953125-48.71875 37.126953125-59.587890625 58.458984375-6.33984375 11.162109375-8.341796875 41.810546875.037109375 15.8359375 2.27734375 18.177734375 12.427734375 52.173828125-2.025390625 87.38671875 1.841796875 12.841796875 4.923828125 26.4921875 62.275390625 65.359375 22.703125 31.9140625 29.9609375 32.0078125 1.8515625 3.9921875-4.7890625 56.796875 3.71875 51.248046875 2.037109375 32.189453125 9.47265625 93.443359375 2.306640625 18.328125-12.7734375 87.279296875-.03125 40.720703125-51.779296875 64.005859375-56.703125 44.81640625-13.24609375 19.177734375-1.66015625 18.353515625-3.71875 45.19921875 5.3828125 48.298828125.12890625 32.849609375-6.3359375 93.443359375.060546875 17.857421875 8.80859375 86.1484375.150390625 41.849609375-10.943359375 56.013671875-.45703125 23.76953125 1.294921875 21.896484375 4.220703125 23.759765625 4.38671875 9.23828125 65.49609375 60.64453125 19.287109375 29.646484375 35.37109375 29.87890625 3.84375 9.498046875-2.865234375 32.919921875 8.23828125 86.734375-8.87109375 86.80078125.037109375 41.19921875h44.80078125v-384h-128v-512h128v-640h-128v-255.998046875h128v-256.001953125h-32.001953125z" fill="#356b35"/></svg>
