<svg width="3713" height="2049" version="1.1" viewBox="0 0 3713 2049" xmlns="http://www.w3.org/2000/svg"><polygon transform="translate(.5 -2047.5)" points="0 4096 3712 4096 3712 2048 0 2048" fill="#76d3c1" stroke="#000"/><path d="m3375.83203125 12.361328125-231.5390625 98.609375-64.400390625 211.673828125 25.533203125 156.810546875 108.23828125 142.3046875 172.423828125 31.7578125 136.814453125-31.79296875 54.927734375-67.279296875 62.787109375-179.630859375-22.68359375-89.818359375 18.3125-59.68359375-10.427734375-48.25-108.564453125-120.109375zm-1459.916015625 62.88671875-102.837890625 55.623046875-27.833984375 127.173828125 24.12109375 116.40625 87.12890625 158.953125 186.521484375 40.54296875 99.548828125-20.62890625 35.537109375-99.29296875 3.392578125-10.181640625-6.48046875-153.2578125-47.41796875-106.83984375-144.787109375-91.98046875-78.43359375-10.03125h-.00390625zm-1156.033203125 80.62109375-161.51171875 151.22265625-56.193359375 148.60546875 22.701171875 177.34375 133.095703125 143.541015625 163.986328125 49.703125 52.03125-69.68359375 67.296875-45.990234375 68.04296875-65.982421875 8.771484375-12.29296875 25.203125-89.14453125 45.673828125-42.560546875 15.064453125-47.01171875-34.068359375-158.275390625-100.251953125-109.265625-29.177734375-15.197265625zm1753.35546875 15.634765625-151.365234375 97.138671875-111.384765625 158.259765625-42.73046875 183.857421875 151.625 342.412109375 160.181640625 39.302734375 208.005859375-88.875 107.13671875-90.22265625 42.8359375-110.28515625 63.22265625-48.580078125 24.84375-57.947265625-24.154296875-205.35546875-114.228515625-151.052734375zm1050.921875 30.205078125v.001953125l-134.849609375 53.904296875zm-2610.0234375 26.765625 89.900390625 84.859375v.001953125zm2835.232421875 457.337890625-151.5625 31.4375-36.3828125 65.53515625-47.275390625 85.158203125-13.669921875 156.79296875 50.0546875 234.708984375 202.6796875 112.1328125-11.10546875.115234375-83.841796875 98.298828125-39.6015625 113.70703125-5.443359375 73.044921875-7.623046875-53.87109375 24.57421875-57.390625-5.224609375-49.08984375-95.13671875-131-135.859375-59.41796875-240.734375 73.353515625-86.607421875 203.6015625 8.66796875 158.638671875 92.447265625 153.03515625 168.05078125 49.96484375 139.42578125-17.021484375 61.7890625-61.0390625 71.884765625-151.46875-3.71484375 49.853515625 120.98828125 121.744140625 8.16796875 2.84375 97.2421875 33.869140625 96.591796875-61.01953125 83.833984375-149.806640625-15.130859375-132.76953125-63.94921875-141.607421875-82.1640625-64.65234375-8.16796875-2.845703125-9.560546875.099609375 62.60546875-11.2578125 92.94921875-78.42578125 8.173828125-11.623046875 50.052734375-196.8203125-19.509765625-153.51953125-148.638671875-171.69921875-95.650390625-42.54296875zm-840.33203125 141.724609375-115.908203125 15.306640625-71.34765625 108.892578125-18.9609375 117.357421875 24.736328125 179.572265625 159.810546875 104.373046875 100.36328125 16.21875 68.6015625-80.1015625 6.80078125-8.3046875 48.580078125-145.49609375-6.212890625-116.724609375-102.482421875-137.5546875-69.697265625-37.330078125zm-869.923828125 30.009765625-87.99609375 58.818359375-51.482421875 81.802734375-38.55078125 142.244140625 86.427734375 128.892578125 5.068359375-.00390625 142.701171875 34.150390625 109.484375-120.552734375 24.830078125-89.583984375-15.6953125-136.8515625-83.1796875-73.5390625zm-626.046875 13.134765625-145.55078125 28.349609375-28.208984375 16.9296875-128.14453125 180.26953125 44.48828125 216.736328125 97.3125 125.5859375 163.052734375 73.349609375 191.94140625-38.4296875 128.091796875-113.818359375-32.20703125-80.783203125-4.02734375-81.41015625-20.681640625-92.498046875-5.896484375-13.90234375-62.818359375-68.083984375-12.408203125-61.18359375-32.203125-37.419921875zm-651.65234375 208.978515625-196.841796875 44.2734375-45.986328125 86.201171875-59.7578125 112.01171875-14.3984375 204.642578125 70.34765625 304.798828125 290.845703125 154.6171875 161.0703125-31.751953125 119.427734375-104.234375 10.400390625-15.326171875 60.9453125-257.59765625-28.771484375-199.65234375-57-57.615234375-140.45703125-162.91796875-125.595703125-53.365234375zm1075.640625 307.248046875-144.634765625 32.703125-150.3671875 201.80078125 20.412109375 139.33984375 76.919921875 130.556640625 117.345703125 89.8515625 293.208984375 2.419921875 79.763671875-101.568359375 3.775390625-177.07421875-29.759765625-105.5546875-64.8359375-66.169921875-14.236328125-60.78515625-33.310546875-36.43359375z" fill="#6ea09e"/></svg>
