<svg width="3713" height="2049" version="1.1" viewBox="0 0 3713 2049" xmlns="http://www.w3.org/2000/svg"><polygon transform="translate(-2431.5,-2047.5)" points="2432 4096 6144 4096 6144 2048 2432 2048" fill="#76d3c1" stroke="#000"/><path d="m.5.498046875v384h128v768.001953125h128v383.998046875h-128v128.001953125h-128v384h1024l2.560546875-128 12.798828125-128 17.921875-128 7.6796875-128.001953125-2.560546875-128-13.439453125-64-26.240234375-64-112.640625-127.998046875-56.3203125-64-44.798828125-64.001953125-26.240234375-64-14.71875-63.998046875v-128l9.59765625-64.001953125 24.958984375-63.998046875 62.720703125-64 30.71875-64.001953125 5.12109375-64 16.640625-64 46.720703125-64 51.83984375-64 20.48046875-63.998046875-2.560546875-64.001953125-10.240234375-64v-64h-896z" fill="#ece49b"/><path d="m.5.498046875v384h128v768.001953125h128v383.998046875h-128v128.001953125h-128v384h44.802734375l4.685546875-58.69921875-4.685546875-69.30078125-6.275390625-65.15234375 7.357421875-62.822265625 8.515625-16.02734375 54.435546875-47.912109375 51.01171875-64.111328125 35.8046875-35.169921875 48.35546875-35.3515625 48.828125-42.4453125 8.1015625-15.025390625 4.931640625-35.015625 1.30859375-23.666015625.1328125-22.11328125-1.755859375-47.197265625-9.51171875-65.169921875-.59375-62.8671875 7.6328125-62.728515625 1.42578125-32.640625-8.11328125-32.583984375-3.986328125-8.044921875-6.94140625-8.482421875-20.1875-23.47265625-8.931640625-6.390625-24.576171875-17.60546875-33.298828125-32.0078125-25.671875-31.998046875-8.330078125-47.080078125v-29.755859375l2.572265625-21.263671875 5.759765625-29.8984375v-18.361328125l-.10546875-46.947265625-5.8359375-47.30078125-1.740234375-15.390625-.142578125-16.0234375-1.845703125-94.4609375-.361328125-17.501953125 10.173828125-128.009765625.87109375-58.525390625-1.90234375-22.669921875-6.79296875-46.810546875-8.509765625-16.0234375-14.126953125-13.70703125-37.330078125-35.12109375-30.7734375-34.52734375-21.09375-16.1015625-7.318359375-12.51171875-6.287109375-31.4296875-2.185546875-31.373046875 2.185546875-65.205078125 4.798828125-46.587890625.830078125-17.349609375-.376953125-17.146484375-.130859375-46.916015625h-12.802734375z" fill="#366b35"/><path d="m622.32421875 391.5390625-103.861328125 2.740234375-12.0078125 3.568359375-62.890625 65.134765625-19.767578125 33.64453125-28.673828125 26.111328125-1.78125 3.240234375-3.533203125 97.099609375 2.234375 8.974609375-.146484375 71.326171875 1.7578125 5.55859375 43.59375 44.572265625 4.5234375 4.802734375 40.669921875 21.171875 38.796875 36.74609375 4.4921875 4.408203125 114.76953125 9.203125 1.998046875.203125 58.037109375 5.841796875h3.599609375l62.44921875 5.798828125 3.380859375-1.08203125 71.138671875-74.796875.2578125-2.490234375 5.38671875-52.17578125 1.53515625-3.2890625 60.228515625-61.693359375 1.85546875-4.365234375 3.095703125-97.98828125-14.8828125-30.63671875-13.943359375-8.076171875-21.64453125-18.8125-33.447265625-34.330078125-59.279296875 1.76171875-2.697265625.16796875-1.29296875-2.75-28.880859375-26.51953125-31.109375-27.73046875-62.595703125 2.76953125zm299.109375 592.267578125-1.630859375.724609375-27.646484375 6.935546875-92.671875 78.015625-1.44921875 3.3203125-10.599609375 80.134765625 1.1640625 3.333984375 2.625 3.875-84.810546875 3.52734375-3.732421875 1.8359375-62.181640625 59.94921875h-55.48828125l-5.162109375 2.630859375-55.830078125 52.408203125-6.23828125 18.5625 1.119140625 140.158203125 8.19921875 41.57421875 8.76171875 5.4609375-10.279296875 10.375 5.931640625 42.212890625 2.255859375 5.341796875 84.970703125 92.15625 32.185546875 18.908203125 54.392578125 60.904296875 24.94921875 33.142578125 33.04296875 24.759765625 6.400390625 4.046875 62.7890625 10.55859375h63.998046875v3.83984375l32.431640625.8671875.0078125.001953125 22.841796875 2.994140625 23.87109375-1.740234375 46.357421875 1.349609375 1.326171875.0390625.052734375.001953125 2.494140625-.556640625 20.66015625-21.8046875 105.44921875-107.9375.9296875-.93359375.81640625-2.287109375 10.099609375-137.25.75390625-3.734375 18.85546875-55.86328125.6171875-3.740234375.064453125-42.50390625.0703125-5.349609375-.05859375-2.06640625.001953125-1.05078125-.236328125-.23046875 5.990234375 5.634765625 32.748046875 2.466796875 32.03515625 2.490234375 1.955078125.068359375 1.544921875-1.16015625 30.5703125-47.373046875 1.447265625-3.107421875.09375-.611328125-2.30859375-79.857421875-.09375-1.927734375-1.212890625-1.505859375-59.8359375-74.208984375-56.548828125-61.560546875-6.5625-16.087890625-44.505859375-65.78125-3.271484375-5.603515625-61.177734375-72.986328125-.037109375-.0390625-1.24609375-1.431640625-1.88671875-.185546875-63.091796875-1.9375zm1.943359375.19140625 1.154296875 1.19921875h-.001953125zm-78.962890625 251.66015625 59.974609375 8.3359375.005859375.001953125zm412.765625 184.857421875v.001953125l-2.291015625.71484375zm-359.71484375 168.11328125-62.279296875 32.033203125v-.001953125z" fill="#666d7c"/></svg>
