<svg width="3713" height="2049" version="1.1" viewBox="0 0 3713 2049" xmlns="http://www.w3.org/2000/svg"><polygon transform="translate(-2431.5,-2047.5)" points="2432 4096 6144 4096 6144 2048 2432 2048" fill="#76d3c1" stroke="#000"/><path d="m.5.498046875v256h128v512.001953125h-128v1280h1070.080078125l-1.279296875-64.001953125-3.83984375-63.998046875-8.9609375-64.001953125-25.599609375-63.998046875-42.240234375-64.001953125-49.919921875-63.998046875-30.720703125-64-11.521484375-64.001953125 1.28125-63.998046875 6.40234375-64.001953125-1.28125-64-12.80078125-64-25.59765625-63.998046875-39.681640625-64-24.3203125-64-12.80078125-64.001953125-7.6796875-64-3.83984375-63.998046875-4.095703125-64.001953125-3.58203125-63.998046875 2.046875-64.001953125 5.88671875-63.998046875 15.103515625-64 30.720703125-64.001953125 50.6875-64 67.072265625-64 55.041015625-64 29.439453125-64 8.9609375-63.998046875-1.28125-64.001953125-5.119140625-64-2.560546875-64h-896z" fill="#ece49b"/><path d="m.5.498046875-1.279296875 128 1.279296875 128h128v512.001953125h-128v1280h44.80078125l.099609375-56.935546875 4.025390625-49.03125.1875-22.033203125-.318359375-17.7890625-1.048828125-44.986328125-.166015625-49.51953125-.220703125-15.705078125v-16.001953125l-5.119140625-40.447265625 2.560546875-53.759765625v-17.791015625l5.041015625-86.11328125.0625-53.6796875-4.60546875-27.357421875 3.671875-66.16796875.359375-22.603515625-.486328125-52.48828125-3.921875-75.58203125-.12109375-15.880859375-2.4609375-44.904296875 4.787109375-48.494140625.23046875-18.67578125.001953125-84.150390625-2.3671875-43.935546875-.140625-11.576171875-3.681640625-31.861328125 2.76953125-49.82421875.41796875-17.052734375 4.166015625-12.53125.873046875-5.04296875 16.630859375-22.404296875 35.55078125-30.4375 10.896484375-11.3046875 37.71484375-46.8203125 10.546875-17.111328125 5.9921875-71.947265625 3.5703125-38.201171875.615234375-17.78125-.884765625-21.458984375-3.369140625-66.6875-3.990234375-39.92578125.05859375-11.64453125.09765625-31.212890625 6.419921875-62.708984375.021484375-22.43359375-.044921875-18.244140625-2.490234375-46.2421875.42578125-43.501953125-.962890625-5.498046875-3.49609375-14.513671875-9.869140625-15.3046875-18.326171875-18.904296875-33.685546875-28.443359375-44.015625-51.556640625-7.169921875-13.791015625-.396484375-9.36328125-5.33203125-23.67578125.896484375-94.9609375h-12.80078125z" fill="#356b35"/><path d="m281.103515625 387.96484375-15.01171875.384765625-3.095703125 1.166015625-1.158203125 1.185546875-.91796875.11328125-111.53515625 116.40234375-13.251953125 125.66015625 10.189453125 137.484375 94.4609375 48.65625-105.990234375-10.853515625-6.0390625 83.1484375 3.546875 97.001953125 1.53125 3.197265625 32.587890625 34.0703125 3.34765625 1.140625 81.404296875-5.08984375 3.228515625-1.53515625 49.44140625-53.548828125 36.751953125-38.525390625 1.380859375-9.32421875 11.69921875-72.728515625-.77734375-1.048828125.26953125-1.814453125-53.0625-11.75 55.76171875 11.462890625 2.365234375-.322265625h.001953125l2.140625.330078125 5.201171875-1.697265625 65.734375-16.83984375 3.068359375-2.07421875 58.1640625-60.302734375 1.271484375-3.396484375 6.005859375-82.736328125 1.625-3.216796875 8.39453125-7.447265625 1.326171875-3.234375-6.478515625-146.4140625-1.509765625-3.236328125-109.201171875-110.263671875-3.287109375-1.6484375-5.130859375-2.3828125-3.287109375-1.525390625z" fill="#666d7c"/></svg>
