<svg width="3713" height="2049" version="1.1" viewBox="0 0 3713 2049" xmlns="http://www.w3.org/2000/svg"><polygon transform="translate(-2431.5,-2047.5)" points="2432 4096 6144 4096 6144 2048 2432 2048" fill="#76d3c1" stroke="#000"/><path d="m.5.498046875v256h128v384.001953125h-128v895.998046875h128v256.001953125h-128v256h1024v-384l4.48046875-64 14.71875-64.001953125 48.001953125-63.998046875 55.6796875-64.001953125 29.3046875-64 7.0390625-64 .708984375-63.998046875-8.13671875-64-17.654296875-64h-257.287109375l12.28515625 64 16.369140625 64-6.62890625 63.998046875-7.041015625 64-24.958984375 64-55.681640625 64.001953125-48 63.998046875-14.71875 64.001953125-4.478515625 64v119.115234375l-128.001953125-19.580078125-144.173828125-13.82421875-77.64453125-85.7109375-6.76953125-128.001953125-2.560546875-128-4.279296875-128-2.130859375-127.998046875 36.482421875-38.8203125 73.078125-75.12109375 40.89453125-14.060546875-23.794921875-127.998046875.087890625-128 16.142578125-45.734375 94.66796875-82.265625v-128.001953125l-37.23046875-129.775390625 9.970703125-68.224609375 48.033203125-34.927734375 53.71875-53.25390625 53.509765625 30.181640625 79.998046875-63.998046875 47.998046875 63.998046875 16.001953125 64 3.201171875 64-10.240234375 64v64l16.638671875 64.001953125 3.841796875 64-7.04296875 63.998046875h265.88671875l.994140625-63.998046875-7.6796875-64-16.638671875-64.001953125v-64l10.23828125-64-3.197265625-64-16-64-48.001953125-63.998046875-54.400390625-64.001953125-22.400390625-64-3.19921875-64h-896z" fill="#ece49b"/><path d="m.5.498046875v256h128v384.001953125h-128v895.998046875h128v256.001953125h-128v256h44.80078125l.7578125-12.62890625 2.759765625-46.013671875-1.634765625-21.662109375-1.8828125-15.697265625.349609375-8.76953125.9296875-23.228515625 20.6015625-32.001953125 36.998046875-32 42.240234375-30.71875 22.720703125-24.919921875 4.16015625-8.359375v-62.720703125l-2.748046875-47.06640625-1.09375-18.212890625v-43.796875l3.6328125-43.908203125-4.78125-39.44921875-.130859375-.84765625-5.119140625-10.55859375-25.599609375-21.44140625-29.439453125-31.998046875-43.51953125-32-19.201171875-32.001953125-1.76171875-8-2.078125-57.150390625 2.8828125-46.888671875.95703125-15.9609375v-127.998046875l-7.396484375-87.88671875-1.5625-40.115234375.357421875-11.974609375 1.390625-46.369140625 4.7421875-47.2265625 2.46875-22.427734375.798828125-20.404296875 1.759765625-44.931640625-1.85546875-45.076171875-.703125-17.587890625 7.298828125-16.001953125 21.8203125-24 19.244140625-15.19140625 20.798828125-12.7578125 13.6796875-10.744140625 38.44140625-40.57421875 2.654296875-8.82421875 6.373046875-87.017578125-6.15234375-40.890625.11328125-11.08203125.451171875-44.708984375-4.806640625-50.216796875-2.080078125-21.9921875 1.015625-17.41015625 5.3125-47.783203125-4.478515625-47.705078125-.646484375-15.1015625-8.478515625-16-47.201171875-47.998046875-39.421875-31.779296875-21.064453125-24.908203125-2.873046875-7.314453125-2.560546875-43.998046875 2.560546875-44.001953125v-40h-12.80078125z" fill="#356b35"/><path d="m1151.892578125 123.400390625-64.494140625 1.296875-63.171875 1.265625-7.896484375 2.53515625h-119.83203125l-127.99609375 12.80078125-10.466796875 6.25-71.88671875 74.294921875-27.451171875 18.359375-68.751953125 84.61328125-10.1328125 69.59765625-54.14453125 60.798828125-3.005859375 6.669921875-8.984375 178.6171875 11.623046875 63.998046875 12.001953125 15.00390625-20.962890625 48.998046875-3.837890625 128 9.96484375 74.123046875 1.7890625 3.43359375 8.240234375 9.419921875 1.107421875 2.55859375 11.646484375 15.869140625-8.197265625 2.728515625-19.154296875 19.865234375-14.01953125 3.53515625-51.6640625 60.466796875-57.15625 56.037109375-4.130859375 12.1171875 1.498046875 123.84375 2.51171875 127.876953125 7.95703125 44.349609375 5.96484375 4.23046875-4.46484375 7.162109375-8.62890625 12.23046875-2.482421875 124.15234375 13.8515625 76.99609375 2.984375 6.552734375 77.40625 80.13671875 62.359375 8.419921875 3.544921875-.423828125 1.853515625 2.005859375 36.65625 10.49609375 176.5625 1.6875 17.806640625-1.705078125 99.12109375-43.603515625 2.958984375-2.3203125 8.109375-10.244140625 42.5625-42.037109375 18.9453125-10.279296875 10.427734375-25.1640625 5.42578125-95.01953125-6.44921875-10.396484375 52.568359375-2.939453125 7.07421875-2.322265625 42.62109375-42.384765625 4.921875-1.09765625 2.74609375-.720703125 87.958984375-87.638671875 49.794921875-48.09765625 1.40625-1.357421875v-136.14453125l-64-192-19.203125-15.359375-97.365234375-3.435546875 1.056640625-10.98046875 12.8671875-82.822265625-4.220703125-15.87890625-1.380859375-5.607421875 3.380859375-2.46484375 13.8125-9.087890625 36.490234375-33.724609375 7.201171875-18.23828125 47.201171875-64.958984375 115.19921875-102.3984375 12.798828125-25.6015625 14.1015625-159.90234375-5.580078125-12.083984375-.0546875-.080078125-8.08203125-6.947265625 15.970703125-19.205078125 3.00390625-57.623046875-12.478515625-32 1.09375-96.751953125-3.791015625-7.615234375-63.501953125-58.791015625-63.3203125-63.3203125zm-191.392578125 23.01953125-17.404296875 27.53515625-.06640625.0234375.994140625-1.494140625zm-307.083984375 884.5 33.41796875 27.912109375-33.5703125-27.70703125zm137.3046875 375.703125-22.189453125 1.802734375v-.001953125zm-123.150390625 144.36328125 93.4375 104.34375h-.001953125zm132.11328125 120.1328125 93.369140625 11.208984375z" fill="#666d7c"/></svg>
