<svg width="3713" height="2049" version="1.1" viewBox="0 0 3713 2049" xmlns="http://www.w3.org/2000/svg"><polygon transform="translate(-2431.5,-2047.5)" points="2432 4096 6144 4096 6144 2048 2432 2048" fill="#76d3c1" stroke="#000"/><path d="m1960.0859375 23.9453125-32.83203125 2.064453125-135.94140625 59.234375-95.314453125 130.873046875-5.291015625 49.08203125 24.49609375 57.421875-13.1015625 91.708984375 3.033203125 14.79296875 35.447265625 87.904296875 42.873046875 69.32421875 19.310546875 84.794921875 170.0546875 21.052734375 179.865234375-77.251953125 92.65234375-152.912109375 8.880859375-158.626953125-86.33203125-203.71875zm1173.0546875 15.92578125-184.1640625 44.1484375-149.06640625 143.294921875-17.60546875 60.5390625 17.98828125 77.67578125-36.943359375 112.3984375 25.466796875 137.728515625 104.2421875 200.74609375 148.69921875 71.359375 334.568359375-168.22265625 83.74609375-169.16015625 14.45703125-192.98828125-55.240234375-171.16015625zm-572.509765625 698.53515625-10.94921875 4.6953125-136.376953125 57.865234375-95.724609375 129.58203125-4.919921875 48.669921875 24.9609375 57.216796875-12.3203125 90.86328125 39.21875 102.322265625 108.9375 140.478515625 125.466796875 35.265625 4.0078125-1.71875 232.78125-171.560546875 41.72265625-141.013671875-14.330078125-150.677734375-64.6875-125.078125zm-558.755859375 286.685546875-32.876953125 1.248046875-137.365234375 55.845703125-98.53125 128.46875-6.505859375 48.935546875 23.06640625 58.013671875-15.373046875 91.353515625 2.6640625 14.865234375 33.2578125 88.755859375 41.142578125 70.365234375 17.201171875 85.248046875 169.48046875 25.26171875 181.72265625-72.76953125 96.416015625-150.56640625 12.8125-158.357421875-81.25390625-205.794921875zm1248.189453125 106.43359375-201.068359375 16.70703125-34.984375 36.22265625-103.8515625 88.52734375-85.21484375 197.4921875-37.13671875 72.052734375 32.33984375 199.10546875 135.2890625 227.5234375 14.513671875 11.5078125 145.16015625 63.689453125 163.1875-17.943359375 231.193359375-234.619140625-24.154296875-311.876953125-75.025390625-190.9375-90.556640625-88.978515625zm-660.978515625 355.30078125-111.203125 36.103515625-14.935546875 25.087890625-46.826171875 63.705078125-33.25390625 168.28125 44.662109375 108.01953125 106.50390625 110.392578125 9.712890625 4.56640625 96.41015625 42.748046875 83.59765625-57.857421875 99.279296875-163.021484375-55.009765625-172.720703125-67.65234375-97.75z" fill="#6ea09e"/></svg>
