<svg width="3713" height="2049" version="1.1" viewBox="0 0 3713 2049" xmlns="http://www.w3.org/2000/svg"><polygon transform="translate(.5 -2047.5)" points="0 4096 3712 4096 3712 2048 0 2048" fill="#76d3c1" stroke="#000"/><path d="m2688.5.5v128.001953125l-42.240234375 128-90.87890625 127.998046875-24.3203125 128v128.001953125l24.3203125 127.998046875 46.080078125 128 52.734375 80.640625 27.904296875 111.359375-48.3828125 111.359375-78.3359375 80.640625-39.681640625 128.001953125 7.681640625 127.998046875 14.080078125 64 24.3203125 64 74.240234375 128.001953125 36.478515625 63.998046875 16 64v128h1024v-255.998046875h-128v-128.001953125h-128v-255.998046875h-128v-384.001953125h128v-128h128v-512h128v-384h-960z" fill="#ece49b"/><path d="m3667.701171875.5v128.001953125l-.001953125 128.076171875-7.224609375 10.595703125-110.505859375 104.54296875-6.857421875 12.783203125-5.408203125 63.578125 3.38671875 64.421875.46875 40.890625-2.068359375 87.111328125 3.248046875 71.373046875.373046875 56.625-7.271484375 8.642578125-37.7421875 46.751953125-75.466796875 69.677734375-88.26171875 64.451171875-40.4140625 56.595703125-5.564453125 9.880859375-2.833984375 56.947265625 9.30859375 71.052734375-8.265625 67.0625 6.83984375 60.9375-8.173828125 62.458984375 3.0234375 65.591796875 8.22265625 14.76171875 48.75390625 51.4140625 58.673828125 50.59375 6.935546875 11.205078125 1.705078125 11.8359375.271484375 31.068359375.7578125 84.814453125 6.103515625 11.912109375 41.42578125 47.705078125 67.33203125 68.7734375 9.345703125 7.90234375 76.107421875 53.970703125 49.5546875 65.140625 4.220703125 10.94140625.724609375 53.91015625-.72265625 64h44.798828125l-.001953125-128 .001953125-127.998046875h-128v-128.001953125h-128v-255.998046875h-128v-384.001953125h128v-128h128v-512h128v-384h-32z" fill="#356b35"/><path d="m2568.048828125 246.515625-5.810546875 2.361328125-63.31640625 56.986328125-68.08984375 63.486328125-3.7890625 6.853515625-8.03125 91.224609375 3.16015625 49.724609375 5.26953125 61.091796875 1 2.1953125 69.47265625 58.400390625.20703125.044921875 9.466796875 2.248046875-6.42578125 4.970703125-.0546875.07421875-5.580078125 10.875-4.701171875 73.80078125 2.6171875 87.064453125 62.078125 74.546875 1.466796875 3.34375-174.48828125 37.86328125-.185546875.0390625-35.935546875 7.689453125-1.1171875 1.603515625-112.521484375 161.423828125-1.53515625 2.28515625-33.86328125 50.435546875-.859375 2.72265625-.314453125 4.630859375 23.2109375 100.626953125 150.505859375 144.15625 1.583984375 1.255859375 120.494140625-12.39453125 3.537109375 75.318359375 4.3828125 93.376953125.146484375 1.0625 9.42578125 24.06640625.90234375 1.0546875 23.470703125 12.736328125 38.03515625 39.583984375 8.111328125 10.240234375 2.958984375 2.322265625 105.9609375 7.6953125 100.466796875-10.087890625 24.671875-.03515625 6.05859375-3.05078125 10.064453125-11.935546875 29.025390625-50.228515625 1.853515625-2.005859375 3.544921875.42578125 28.677734375-12.3984375 2.3203125-2.30859375 23.185546875-21.7265625 21.6484375-24.064453125 24.724609375-19.388671875 23.185546875-21.7265625 33.298828125-31.1875 29.484375-35.193359375 4.83203125-9.599609375 5.693359375-58.111328125-8.62890625-12.232421875-4.466796875-7.158203125 5.96484375-4.234375 9.236328125-42.935546875.04296875-3.48828125-.044921875-62.900390625-2.60546875-62.900390625 5.1171875-61.271484375-.00390625-61.26953125-7.814453125-11.349609375-6.810546875-46.423828125-26.302734375-46.845703125 30.50390625-11.95703125 32.009765625-42.943359375 2.6875-4.05078125 4.083984375-.388671875 83.921875-101.044921875 12.423828125-28.345703125 2.8515625-173.552734375-3.00390625-6.00390625-1.853515625-55.43359375-4.49609375-9.40234375-64.763671875-44.08203125-75.90234375-86.775390625-84.404296875-91.041015625-14.966796875-9.09765625-120.96484375-2.7265625-95.5 3.37109375-32.2265625-17.673828125-63.171875-1.13671875zm207.900390625 60.7578125.955078125 1.29296875-.056640625-.013671875zm206.65234375 712.2734375 16.224609375 10.255859375-16.224609375-10.25390625z" fill="#666d7c"/></svg>
