<svg width="3713" height="2049" version="1.1" viewBox="0 0 3713 2049" xmlns="http://www.w3.org/2000/svg"><polygon transform="translate(-2431.5,-2047.5)" points="2432 4096 6144 4096 6144 2048 2432 2048" fill="#76d3c1" stroke="#000"/><path d="m2292.076171875 75.24609375-28.4765625 6.490234375-78.4140625 10.02734375-144.787109375 91.98046875-47.41796875 106.841796875-6.482421875 153.255859375 3.392578125 10.181640625 35.5390625 99.294921875 99.548828125 20.62890625 186.51953125-40.54296875 87.130859375-158.953125 24.119140625-116.40625-27.833984375-127.17578125zm993.931640625 80.623046875-220.666015625 15.009765625-29.1796875 15.19921875-100.25 109.263671875-34.068359375 158.275390625 15.064453125 47.013671875 45.673828125 42.55859375 25.205078125 89.146484375 8.76953125 12.29296875 68.04296875 65.982421875 67.296875 45.98828125 52.03125 69.68359375 163.98828125-49.703125 133.095703125-143.541015625 22.703125-177.34375-56.197265625-148.60546875zm-576.30078125 461.962890625-32.875 1.25-137.3671875 55.84765625-98.53125 128.466796875-6.50390625 48.9375 23.0625 58.01171875-15.37109375 91.35546875 2.6640625 14.86328125 33.259765625 88.755859375 41.138671875 70.365234375 17.203125 85.248046875 169.478515625 25.26171875 181.724609375-72.767578125 96.41796875-150.56640625 12.810546875-158.357421875-81.251953125-205.796875zm-790.65625 49.271484375-173.419921875 76.09765625-121.30078125 167.453125-6.59375 62.701171875 31.474609375 73.2578125-16.43359375 117.1640625 49.48046875 131.033203125 138.181640625 179.0859375 158.994140625 43.869140625 299.4453125-224.873046875 52.427734375-181.330078125-19.982421875-192.4921875-84.7109375-158.65625zm1272.49609375 412.5546875-44.240234375 24.08984375-125.583984375 53.361328125-140.4453125 162.90625-57.009765625 57.626953125-28.771484375 199.65234375 60.9453125 257.59765625 10.40234375 15.32421875 119.42578125 104.236328125 161.0703125 31.751953125 290.845703125-154.619140625 70.34765625-304.796875-14.3984375-204.642578125-59.755859375-112.01171875-45.98828125-86.203125zm-863.521484375 298.6875-11.6796875 2.337890625-145.37890625 28.5078125-120.380859375 107.064453125-14.849609375 46.607421875 12.62890625 61.134765625-30.7890625 86.373046875 17.283203125 108.208984375 77.642578125 159.919921875 115.5 60.373046875 4.275390625-.85546875 263.1484375-119.88671875 69.896484375-129.3828125 17.04296875-150.396484375-37.515625-135.7265625z" fill="#6ea09e"/></svg>
