<svg width="3713" height="2049" version="1.1" viewBox="0 0 3713 2049" xmlns="http://www.w3.org/2000/svg"><polygon transform="translate(.5 -2047.5)" points="0 4096 3712 4096 3712 2048 0 2048" fill="#76d3c1" stroke="#000"/><path d="m1193.46875 14.16015625-186.80078125 31.1484375-206.4453125 246.337890625 15.86328125 179.154296875 88.5546875 172.078125 143.0703125 123.126953125 373.6796875 24.46875 109.107421875-123.685546875 17.728515625-225.50390625-30.244140625-136.759765625-77.841796875-89.09765625-13.716796875-78.54296875-39.818359375-48.8828125zm1366.53125 38.416015625-98.869140625 37.791015625-68.376953125 68.310546875-69.201171875 130.12109375 55.6171875 144.876953125 4.94140625 1.123046875 131.54296875 65.013671875 133.541015625-93.205078125 44.1171875-81.82421875 15.115234375-136.91796875-64.75390625-90.185546875zm631.724609375 108.17578125-98.43359375 20.130859375-63.615234375 112.44921875-14.228515625 98.2578125-38.32421875-16.76171875-240.732421875 73.353515625-86.607421875 203.6015625 8.666015625 158.640625 92.447265625 153.033203125 168.052734375 49.96484375 139.42578125-17.021484375 61.7890625-61.037109375 1.93359375-4.07421875-22.791015625 286.099609375 197.482421875 201.29296875-50.845703125-27.708984375-32.525390625-4.943359375-213.654296875 57.18359375-65.4296875 123.005859375-.439453125-.814453125-151.455078125-80.53515625-78.953125-3.947265625-28.892578125-4.2734375-98.240234375 63.39453125-17.94140625 128.94140625 33.033203125 114.197265625 99.134765625 151.7578125 189.091796875 26.03125 80.10546875-23.171875 9.833984375 20.01171875 172.375 92.763671875 171.24609375-6.01953125 26.69140625-82.76953125 48.80078125-65.28515625 43.0390625-84.447265625 4.322265625-14.470703125-4.990234375-92.50390625 29.44921875-55.046875-.953125-49.357421875-83.44140625-138.744140625-9.787109375-5.333984375 126.76953125 14.21875 145.30078125-63.369140625 14.5390625-11.474609375 135.7890625-227.228515625 32.775390625-199.03515625-36.98046875-72.13671875-84.78125-197.673828125-103.646484375-88.74609375-34.9140625-36.30859375-169.904296875-14.494140625 31.75-96.177734375-40.1015625-127.470703125-89.712890625-126.859375-92.9609375-47.849609375zm-1359.201171875 169.521484375-191.9296875 62.208984375-37.85546875 90.072265625-49.1875 117.037109375 4.50390625 205.099609375 98.115234375 297.025390625 303.84375 127.181640625 157.462890625-46.44921875 70.091796875-73.59375-34.1640625 120.798828125 105.927734375 273.41796875 123.830078125 36.6640625 165.974609375-61.822265625 87.130859375-66.6015625 37.58203125-84.673828125 51.244140625-35.658203125 21.57421875-44.404296875-11.298828125-161.505859375-83.755859375-122.3671875-243.041015625-65.306640625-121.978515625 70.37890625-47.7109375 61.408203125 33.828125-239.85546875-47.03125-196.154296875-62.0625-52.123046875-154.861328125-149.291015625-129.966796875-41.572265625zm-1178.9296875 223.91796875-88.857421875 40.62109375-115.462890625 52.783203125-135.607421875 153.935546875-129.0078125 284.96875 137.3828125 299.37109375 147.30078125 72.486328125 158.177734375-10.396484375 17.56640625-5.873046875 204.736328125-167.791015625 98.265625-176.16015625-10.35546875-80.39453125-12.802734375-214.7109375-67.451171875-118.611328125-20.55078125-45.9921875zm2538.015625 137.59765625 27.435546875 3.97265625-19.455078125 19.03125-3.48046875 8.796875zm-2026.201171875 93.82421875-109.74609375 70.02734375-65.447265625 99.240234375-51.126953125 173.908203125 102.90625 160.759765625 84.869140625 55.970703125 95.4296875-44.896484375 9.607421875-4.78125 104.005859375-112.75 42.23046875-108.994140625-37.009765625-167.4921875-48.25390625-62.66015625-15.482421875-24.728515625zm-124.927734375 572.974609375-209.556640625 70.740234375-91.189453125 201.58984375 5.07421875 158.794921875 88.9609375 155.087890625 177.958984375 81.54296875 170.51171875-16.970703125 21.337890625-84.306640625 44.5234375-68.275390625 37.544921875-87.029296875 3.384765625-14.716796875-10.8984375-91.99609375 25.86328125-56.818359375-4.109375-49.1953125-92.150390625-133.12109375-134.48046875-62.474609375zm916.681640625 19.765625-240.734375 73.353515625-86.60546875 203.6015625 8.666015625 158.638671875 92.447265625 153.03515625 168.052734375 49.96484375 139.42578125-17.0234375 61.7890625-61.03515625 81.583984375-171.912109375-12.9765625-91.724609375 24.57421875-57.390625-5.224609375-49.08984375-95.13671875-131z" fill="#6ea09e"/></svg>
