<svg width="3713" height="2049" version="1.1" viewBox="0 0 3713 2049" xmlns="http://www.w3.org/2000/svg"><polygon transform="translate(.5 -2047.5)" points="3712 2048 0 2048 0 4096 3712 4096" fill="#76d3c1" stroke="#000"/><path d="m2688.5.5-2.560546875 64 7.6796875 64.001953125 24.3203125 63.998046875 53.759765625 64.001953125 67.83984375 63.998046875 79.361328125 64 65.279296875 64 46.08203125 64 26.87890625 64 12.80078125 64.001953125 2.55859375 63.998046875v64l-2.55859375 64-7.681640625 64-12.798828125 64.001953125-33.28125 63.998046875-53.759765625 64-71.6796875 64-57.599609375 64-37.119140625 64-12.80078125 64.001953125-1.28125 64 6.400390625 63.998046875 11.521484375 64-1.28125 64-6.400390625 32-14.080078125 32-47.359375 64-48.640625 64.001953125-25.599609375 63.998046875-8.9609375 64-3.837890625 64-1.28125 64h1070.080078125v-384h-128v-128h-128v-895.998046875h128v-384h128v-256.001953125h-960z" fill="#ece49b"/><path d="m3667.701171875.5-.103515625 11.5703125 1.779296875 29.287109375-3.37890625 58.0859375-2.802734375 29.05859375-4.53125 12.36328125-36.86328125 30.234375-19.31640625 20.197265625-41.138671875 45.298828125-13.2109375 19.90625-3.19921875 8.638671875.537109375 53.82421875-2.802734375 49.1640625-1.1640625 32.9609375 4.466796875 40.666015625-3.23828125 60.1328125-3.09765625 10.611328125-12.146484375 12.16015625-49.806640625 53.888671875-40.716796875 36.455078125-16.267578125 17.662109375-5.208984375 7.8359375-3.392578125 10.31640625-1.216796875 26.9296875 5.861328125 90.751953125 1.357421875 62.515625-3.046875 65.484375 2.150390625 56.33203125 5.58203125 71.66796875 5.248046875 86.681640625 1.5859375 41.318359375-2.431640625 39.962890625-5.70703125 65.970703125-3.046875 40.7421875 1.203125 42.943359375-3.59765625 66.3828125-5.478515625 58.341796875-.716796875 39.283203125.83203125 18.404296875 3.890625 11.96875 8.013671875 12.146484375 48.166015625 54.74609375 64.064453125 61.107421875 16.435546875 17.560546875 48.8828125 44.7109375 15.615234375 16.73046875 39.74609375 35.0078125 12.46484375 13.9921875 1.41015625 12.669921875-2.3828125 74.35546875-3.505859375 40.97265625-.4609375 35.59765625 4.685546875 92.40234375h44.798828125v-384h-128v-128h-128v-367.23046875l1.28125-16.76953125-1.28125-29.171875v-482.826171875h128v-384h128v-256.001953125z" fill="#356b35"/></svg>
