<svg width="3713" height="2049" version="1.1" viewBox="0 0 3713 2049" xmlns="http://www.w3.org/2000/svg"><polygon transform="translate(-2431.5,-2047.5)" points="2432 4096 6144 4096 6144 2048 2432 2048" fill="#76d3c1" stroke="#000"/><path d="m1641.1015625 72.763671875-127.548828125 52.01953125-66.62109375 64.833984375-53.083984375 153.955078125 98.537109375 108.71875 2.435546875 4.4453125 154.568359375 13.83203125 106.205078125-102.177734375 46.982421875-84.466796875 9.28125-105.4375-66.287109375-68.130859375zm-862.3984375 53.6171875-37.759765625 8.19921875-103.9765625 12.216796875-192.923828125 119.80859375-64.22265625 140.80078125-10.65625 202.8046875 4.353515625 13.525390625 65.462890625 102.4921875 111.75 58.1015625 247.474609375-51.1484375 117.501953125-209.251953125 33.51171875-153.78125-19.8515625-95.353515625-15.275390625-73.384765625zm1575.408203125 22.625-184.994140625 40.52734375-151.84375 140.349609375-18.787109375 60.18359375 16.4609375 78.01171875-39.138671875 111.65234375 22.763671875 138.201171875 100.291015625 202.75 147.271484375 74.259765625 337.80078125-161.63671875 87.044921875-167.48828125 18.234375-192.666015625-51.876953125-172.2109375zm754.26171875 156.90625-44.251953125 24.09765625-125.568359375 53.353515625-140.435546875 162.892578125-57.0234375 57.638671875-28.76953125 199.654296875 60.9453125 257.595703125 10.400390625 15.328125 119.427734375 104.234375 161.0703125 31.751953125 290.84375-154.6171875 70.34765625-304.796875-14.3984375-204.642578125-59.755859375-112.013671875-45.986328125-86.203125zm-3488.30859375 169.396484375-8.16796875 2.84375-82.166015625 64.65234375-63.94921875 141.607421875-15.12890625 132.76953125 83.833984375 149.80859375 96.591796875 61.017578125 97.2421875-33.8671875 8.16796875-2.845703125 120.98828125-121.744140625-13.50390625-181.193359375-39.6015625-113.70703125-83.83984375-98.298828125zm1409.4765625 51.126953125-23.6953125 17.05078125-68.34375 39.75390625-97.591796875 141.06640625-2.109375 116.87109375 53.66015625 143.703125 7.0859375 8.05859375 71.37109375 77.642578125 99.732421875-19.728515625 156.046875-109.919921875 18.416015625-180.330078125-23.0703125-116.619140625-75.125-106.32421875zm576.4296875 234.294921875-48.18359375 7.322265625-192.884765625 105.111328125-123.60546875 205.533203125-1.416015625 73.119140625 43.626953125 81.544921875-7.390625 137.03515625 6.40234375 21.435546875 63.755859375 125.099609375 72.29296875 96.712890625 39.537109375 122.61328125 253.685546875 8.91796875 255.353515625-137.419921875 116.80859375-237.708984375-7.552734375-235.234375-153.923828125-289.373046875zm-1498.283203125 63.169921875-24.275390625 16.205078125-69.705078125 37.333984375-102.48046875 137.5546875-6.212890625 116.724609375 48.580078125 145.498046875 6.80078125 8.302734375 68.6015625 80.099609375 100.361328125-16.21484375 159.8125-104.375 24.736328125-179.572265625-18.962890625-117.35546875-71.345703125-108.89453125zm-565.810546875 282.666015625-141.423828125 44.591796875-108.5625 120.107421875-10.4296875 48.25390625 18.3125 59.681640625-22.685546875 89.818359375 62.7890625 179.630859375 54.927734375 67.279296875 136.81640625 31.79296875 172.421875-31.7578125 108.23828125-142.3046875 25.533203125-156.810546875-64.400390625-211.67578125zm2857.681640625 204.455078125-231.759765625 98.087890625-66.14453125 132.716796875 11.005859375 161.52734375 27.47265625 41.015625 55.658203125 28.279296875 48.86328125 78.705078125 95.45703125 53.994140625 172.896484375 38.423828125 117.61328125-53.33203125 67.34765625-285.380859375-59.384765625-135.341796875-108.533203125-105.748046875zm809.974609375 25.64453125-139.419921875 50.505859375-103.408203125 124.57421875-8.388671875 48.6484375 20.8125 58.859375-18.8828125 90.693359375 2.087890625 14.95703125 29.8125 89.97265625 38.396484375 71.8984375 13.90234375 85.84765625 168.380859375 31.77734375 184.39453125-65.70703125 102.1484375-146.73828125 18.908203125-157.744140625-73.2578125-208.77734375-202.587890625-88.75zm-2232.93359375 22.158203125-135.86328125 59.41796875-95.13671875 131-5.22265625 49.08984375 24.572265625 57.390625-12.978515625 91.724609375 81.587890625 171.91015625 61.787109375 61.037109375 139.42578125 17.0234375 168.052734375-49.96484375 92.447265625-153.03515625 8.666015625-158.638671875-86.60546875-203.6015625z" fill="#6ea09e"/></svg>
