<svg width="3713" height="2049" version="1.1" viewBox="0 0 3713 2049" xmlns="http://www.w3.org/2000/svg"><polygon transform="translate(.5 -2047.5)" points="0 4096 3712 4096 3712 2048 0 2048" fill="#76d3c1" stroke="#000"/><path d="m1198.119140625 57.92578125-176.556640625 22.982421875-202.248046875 224.505859375 8.87890625 168.857421875 77.4140625 164.65625 130.28125 120.4921875 350.267578125 35.55859375 106.673828125-112.541015625 24.240234375-211.27734375-23.81640625-129.5078125-70.142578125-86.33203125-10.248046875-74.25390625-35.763671875-47.26953125zm-623.552734375 73.79296875-116.162109375 13.251953125-73.263671875 107.611328125-21.0390625 117.00390625 21.55078125 179.98046875 157.9375 107.19140625 100.05859375 17.990234375 70.009765625-78.87109375 6.947265625-8.18359375 51.15234375-144.61328125-4.146484375-116.81640625-100.02734375-139.349609375-69.0390625-38.56640625zm188.32421875 313.90625-48.607421875 148.345703125-.001953125.001953125zm990.0234375 74.359375-207.80078125 75.744140625-86.33203125 203.71875 8.880859375 158.626953125 92.654296875 152.91015625 67.228515625 28.875-100.3046875-8.333984375 114.765625 14.544921875.001953125.001953125-114.767578125-14.546875-69.69140625 68.4765625-90.55859375 88.974609375-35.830078125 91.1875-37.3203125-29.625-31.19921875-10.435546875-62.46484375 5.607421875 40.65625-11.427734375 86.06640625-110.978515625 30.982421875-80.8359375-9.736328125-71.78125 19.720703125-45.205078125-3.888671875-38.44921875-75.62109375-102.37109375-107.740234375-45.712890625-8.6484375-3.708984375-187.85546875 60.7578125-51.103515625 98.814453125-11.322265625 119.037109375 32.962890625 111.40234375 172.357421875 127.02734375-84.654296875 7.599609375-135.8046875 174.673828125-32.19921875 155.578125 50.2265625 171.591796875 153.953125 120.896484375 169.751953125 23.375 40.462890625-76.978515625 59.193359375-55.912109375 151.0703125 153.30859375 163.1875 17.94140625 145.16015625-63.6875 14.513671875-11.5078125 135.2890625-227.525390625 32.33984375-199.10546875-37.14453125-72.068359375-85.208984375-197.474609375-102.91015625-87.724609375 146.001953125-18.07421875 19.310546875-84.794921875 42.873046875-69.32421875 35.447265625-87.904296875 3.033203125-14.794921875-13.1015625-91.70703125 24.49609375-57.421875-5.2890625-49.083984375-95.31640625-130.87109375-135.94140625-59.234375zm177.390625 109.017578125 15.181640625 84.068359375-.001953125-.001953125zm-1558.73828125 34.740234375-142.939453125 10.078125-36.7421875 72.83203125-47.73828125 94.63671875-19.337890625 187.853515625 36.947265625 294.267578125 201.498046875 189.533203125 116.767578125-4.087890625 90.13671875-78 8.125-12.59765625 55.01171875-229.705078125-11.8046875-190.02734375-38.28125-62.513671875-93.421875-173.5234375-87.603515625-69.390625zm1594.658203125 280.71484375v.001953125l-129.796875 60.14453125zm-676.609375 565.814453125v.001953125l-110.763671875 65.9296875zm2.970703125 306.662109375-73.83984375 12.97265625.00390625-.001953125zm-130.3984375 71.125 64.875 88.869140625z" fill="#6ea09e"/></svg>
