<svg width="3713" height="2049" version="1.1" viewBox="0 0 3713 2049" xmlns="http://www.w3.org/2000/svg"><polygon transform="translate(-2431.5,-2047.5)" points="2432 4096 6144 4096 6144 2048 2432 2048" fill="#76d3c1" stroke="#000"/><path d="m.5.498046875v768.001953125h128v384h128v383.998046875h-128v256.001953125h-128v256h1024l3.841796875-64.001953125-15.36328125-63.998046875-44.798828125-64.001953125-33.279296875-63.998046875-17.919921875-64.001953125-14.080078125-63.998046875-30.720703125-64-55.0390625-64.001953125-75.51953125-63.998046875-48.640625-64.001953125-24.3203125-64-14.080078125-64-6.3984375-63.998046875-3.841796875-64-1.279296875-64 1.279296875-64.001953125 2.560546875-64 7.6796875-63.998046875 8.958984375-64.001953125 25.6015625-63.998046875 43.51953125-64.001953125 26.87890625-63.998046875 12.802734375-64 29.4375-64.001953125 56.322265625-64 66.55859375-64 62.720703125-64 39.6796875-64 24.0625-63.998046875 11.265625-64.001953125 5.6328125-64 2.55859375-64h-942.080078125z" fill="#ece49b"/><path d="m.5.498046875v768.001953125h128v384h128v383.998046875h-128v256.001953125h-128v256h44.80078125v-11.904296875l-3.83984375-31.359375 3.83984375-53.759765625v-22.658203125l9.919921875-22.95703125 91.92578125-87.623046875 16.29296875-16.73046875 4.896484375-8.9375 4.849609375-15.73828125.296875-17.8828125-1.388671875-82.013671875.181640625-12.435546875 7.16796875-14.9765625 52.353515625-53.119140625 29.083984375-29.68359375 13.99609375-15.298828125 9.08984375-14.03515625 1.482421875-12.412109375 10.5-94.146484375 2.40625-22.330078125 3.841796875-67.0703125-3.841796875-60.9296875-.0546875-15.814453125-3.953125-42.59765625.853515625-69.5859375-7.083984375-15.361328125-45.58984375-44.1796875-18.615234375-17.880859375-41.32421875-33.017578125-11.58984375-17.564453125-2.1328125-26.08984375.40234375-30.51953125 3.107421875-71.37109375-.330078125-18.61328125-4.248046875-50.5234375-4.298828125-46.1875-2.669921875-12.69140625-7.748046875-14.2890625-18.419921875-17.599609375-25.595703125-22.611328125-52.060546875-58.44140625-6.890625-15.05859375-3.6484375-17.4921875-4.095703125-67.49609375 1.650390625-43.013671875-1.349609375-42.3671875 3.9609375-62.2265625.435546875-23.40625 4.900390625-67.966796875-2.16015625-60.021484375-5.763671875-60.009765625-1.091796875-68.001953125 3.068359375-38.271484375-.71875-89.728515625h-12.80078125zm274.80078125 1135.359375.015625.001953125z" fill="#356b35"/></svg>
