<svg width="3713" height="2049" version="1.1" viewBox="0 0 3713 2049" xmlns="http://www.w3.org/2000/svg"><polygon transform="translate(.5 -2047.5)" points="0 4096 3712 4096 3712 2048 0 2048" fill="#76d3c1" stroke="#000"/><path d="m2688.5.5-3.83984375 64 11.51953125 64.001953125 30.720703125 63.998046875 53.759765625 64.001953125 62.720703125 63.998046875 71.6796875 64 55.041015625 64 42.23828125 64 30.720703125 64 20.48046875 64.001953125 14.078125 63.998046875 3.841796875 64-3.841796875 64-7.677734375 64-19.201171875 64.001953125-35.83984375 63.998046875-49.919921875 64-55.041015625 64-53.771484375 64-35.841796875 64-15.357421875 64.001953125-1.26953125 64-6.3984375 63.998046875-24.3203125 64-44.80078125 64-38.400390625 64-21.759765625 64-15.359375 64.001953125-6.400390625 63.998046875-3.83984375 64-1.279296875 64 1.279296875 64h1070.080078125v-512h-128v-384h-128v-129.279296875l-8.9609375-126.720703125v-128l2.560546875-127.998046875 6.400390625-128.001953125h128v-255.998046875h128v-256.001953125h-960z" fill="#ece49b"/><path d="m3667.701171875.5-3.314453125 87.3515625-1.234375 40.650390625-7.4296875 13.779296875-48.689453125 48.798828125-30.529296875 31.705078125-15.40625 18.138671875-11.6015625 15.578125-3.35546875 14.48046875-.205078125 5.484375-1.3671875 37.626953125-1.845703125 70.40625-111.5859375 104.04296875-19.125 23.95703125-8.6171875 103.9296875.390625 24.072265625.376953125 17.708984375 3.02734375 38.470703125 6.232421875 71.818359375 1.931640625 63.8984375-4.708984375 64.1328125 2.79296875 36.28125 5.97265625 91.6875-10.033203125 61.4609375 6.666015625 61.5546875 1.853515625 8.142578125 3.91796875 7.12109375 11.990234375 14.748046875 39.74609375 41.857421875 58.212890625 61.115234375.853515625 21.25390625 4.205078125 65.052734375 2.619140625 41.6953125-.326171875 36.642578125-1.8671875 63.78125-.220703125 20.466796875 1.765625 8.71484375 5.4921875 7.380859375 42.86328125 49.390625 70.421875 62.09375 4.216796875 7.52734375-1.66015625 17.79296875.716796875 53.865234375 1.736328125 40.29296875 2.09375 16.05078125-6.458984375 86.681640625-.568359375 41.31640625 1.1171875 38.337890625 8.9375 89.662109375h44.798828125v-512h-128v-384h-128v-640h128v-255.998046875h128l1.279296875-128-1.279296875-128.001953125z" fill="#356b35"/><path d="m2928.98046875 611.033203125-187.255859375 11.482421875-7.767578125 3.283203125-17.5 16.404296875-.00390625.001953125-8.40625 6.548828125-76.416015625 133.26953125-30.865234375 327.482421875 2.3359375 2.216796875 59.916015625 36.72265625 3.931640625 2.130859375 148.251953125-20.708984375 3.52734375-2.111328125 105.529296875-82.8671875 13.359375-10.28125 3.255859375-1.923828125 30.072265625-8.841796875 1.505859375-1.79296875 85.005859375-128.806640625 2.08203125-125.671875-44.34375-90.31640625z" fill="#666d7c"/></svg>
