<svg width="3713" height="2049" version="1.1" viewBox="0 0 3713 2049" xmlns="http://www.w3.org/2000/svg"><polygon transform="translate(-2431.5,-2047.5)" points="2432 4096 6144 4096 6144 2048 2432 2048" fill="#76d3c1" stroke="#000"/><path d="m.5.498046875v384h128v512.001953125h-128v511.998046875h128v384.001953125h-128v256h1024v-64.001953125l5.119140625-63.998046875 1.28125-64.001953125-11.51953125-63.998046875-35.841796875-64.001953125-47.357421875-63.998046875-28.162109375-64-10.240234375-64.001953125-7.6796875-128 6.3984375-128 11.521484375-63.998046875 25.6015625-64 49.91796875-64 32-64.001953125 10.2421875-64-1.28125-63.998046875 7.6796875-64.001953125 17.919921875-63.998046875 39.6796875-64.001953125 55.041015625-63.998046875 35.83984375-64 12.80078125-64.001953125 5.119140625-64-7.6796875-64-19.201171875-64-35.83984375-64-60.158203125-63.998046875-40.9609375-64.001953125-10.240234375-64v-64h-896z" fill="#ece49b"/><path d="m.5.498046875v384h128v512.001953125h-128v511.998046875h128v384.001953125h-128v256h44.80078125l2.24609375-56.697265625-4.138671875-57.6953125 1.892578125-13.607421875 19.314453125-31.982421875 45.29296875-31.884765625 39.8046875-42.513671875 13.544921875-14.84765625 3.3984375-6.6953125 4.939453125-28.82421875 2.58984375-15.87890625 2.095703125-29.703125-1.4453125-53.669921875.626953125-21.638671875-4.806640625-65.548828125-4.65234375-40.814453125-.044921875-8.654296875 5.77734375-48.04296875-5.4765625-71.302734375-3.927734375-8.9453125-22.208984375-27.56640625-38.638671875-27.5-51.53125-48.044921875-7.0859375-15.943359375-.072265625-63.986328125-7.990234375-64.01171875 11.5703125-86.650390625 1.228515625-41.3515625 5.580078125-10.166015625 58.017578125-53.634765625 53.185546875-49.548828125 8.9140625-14.6484375 5.099609375-60.8984375-6.380859375-67.1015625.130859375-63.296875-7.810546875-64.703125 3.65625-54.380859375 6.02734375-33.087890625-5.458984375-40.533203125 7.4921875-56.09765625-1.546875-22.166015625-6.330078125-49.736328125-6.087890625-10.236328125-27.302734375-26.884765625-39.58984375-26.884765625-30.068359375-28.796875-16.998046875-28.759765625-1.935546875-7.716796875 1.34765625-23.08203125-1.60546875-38.443359375-.2109375-18.03125-5.546875-47.1640625 5.05859375-87.06640625.060546875-40.93359375z" fill="#356b35"/></svg>
