<svg width="3713" height="2049" version="1.1" viewBox="0 0 3713 2049" xmlns="http://www.w3.org/2000/svg"><polygon transform="translate(-2431.5,-2047.5)" points="2432 4096 6144 4096 6144 2048 2432 2048" fill="#76d3c1" stroke="#000"/><path d="m.498046875.498046875v384h128.001953125v410l29.806640625 1.537109375 12.03125-.326171875 86.162109375.55078125 64 4.232421875 32 2.115234375 32-.701171875 31.16015625-4.337890625 32.837890625-6.5625 32.001953125-10.361328125 32.001953125-16.248046875 64-49.2421875 31.998046875-16.33203125 32-14.22265625 35.08984375-6.39453125 35.08984375-.7421875 37.7890625-2.326171875 62.888671875-7.341796875 74.009765625-1.798828125 14.64453125-12.75 14.64453125-12.74609375 67.482421875-64 26.544921875-32 9.1015625-32.001953125 16.474609375-128-2.896484375-128 .1875-128-7.05078125-128h-896zm162.9453125 1253.6328125-34.943359375 2.3671875v13.001953125l20.48046875 5.751953125 3.83984375 5.24609375 2.640625 9.421875-26.9609375 20.916015625v225.662109375h-128v512.001953125h1024l-2.6875-128v-128l15.392578125-128-5.70703125-64-15.236328125-64.001953125-13.009765625-32-23.16796875-31.998046875-29.3125-32-34.689453125-32.001953125-35.197265625-26.494140625-67.328125-5.6328125-67.330078125-5.759765625-142.71875-46.20703125-45.50390625-29.568359375-45.501953125-19.328125-36.482421875-7.423828125-41.291015625-3.45703125-50.228515625-2.201171875-32-1.8515625-32-3.134765625-32.255859375-1.7734375-32.2578125.783203125-61.822265625 3.443359375-23.80859375-2.048828125z" fill="#ece49b"/><path d="m.5.498046875v384h128v407l22.78515625-10.966796875 3.79296875-3.326171875 3.759765625-7.681640625 6.767578125-31.748046875-.04296875-42.869140625-10.5390625-53.509765625-1.673828125-64.58984375 6.826171875-64.25 2.51953125-88.3046875-4.80078125-35.95703125-1.58203125-3.796875-4.44140625-7.01953125-8.521484375-11.234375-46.701171875-45.767578125-8.822265625-7.97265625-29.048828125-24.00390625-4.083984375-8.994140625-12.52734375-18.353515625-1.08984375-4.654296875-2.634765625-41.93359375 1.521484375-22.27734375-1.447265625-63.7890625 6.3203125-46.68359375 1.361328125-17.31640625-.896484375-64h-12.80078125zm128 1257.001953125v278.998046875h-128v512.001953125h44.80078125l-.212890625-56.01171875-.037109375-25.216796875-7.416015625-46.771484375-1.21484375-65.0234375 9.0625-62.9765625.24609375-63.10546875-2.80078125-23.16015625-1.12109375-18.4375 1.125-23.296875 1.5390625-11.099609375 17.1015625-25.01171875 29.544921875-20.978515625 6.87890625-6.830078125 42.9921875-33.345703125 14.029296875-18.712890625 2.958984375-5.3046875 3.52734375-6.71875 4.298828125-15.232421875 3.0234375-25.515625-.765625-25.861328125.8515625-61.390625 5.19921875-25.375 1.39453125-16.0546875.88671875-25.640625-2.16015625-24.634765625-3.794921875-14.0078125-7.12109375-24.333984375-5.359375-6.353515625-5.634765625-3.169921875z" fill="#356b35"/><path d="m236.705078125 649.869140625-1.73828125 1.30078125-30.947265625 89.431640625-2.35546875 6.19140625-31.3203125 4.421875-1.07421875 1.3203125-2.775390625 41.087890625.68359375 6.23046875.580078125 5.84375.42578125 2.33984375 12.373046875 32.033203125 29.904296875 23.640625 1.857421875.51171875 35.884765625-5.64453125 35.88671875-5.642578125 9.125-22.224609375-.2890625-2.86328125-3.818359375-7.9609375-3.501953125-5.630859375 45.53125 32.23046875 2.3515625.24609375 56.08984375-2.236328125.70703125-1.169921875 48.82421875-80.951171875.615234375-2.361328125-13.5078125-51.7265625-70.533203125-56.34765625-2.412109375-.849609375zm400.904296875 614.55859375-2.70703125.01953125-33.072265625 14.826171875-31.7890625 69.875-.337890625 1.84375-.001953125.728515625 59.87109375 113.912109375 1.7578125 1.998046875 86.236328125 61.6796875 3.361328125.8515625 62.552734375-2.09375 2.388671875-1.251953125 83.49609375-70.98046875.505859375-1.765625 2.51171875-2.048828125-26.7265625-98.76171875-3.373046875-4.30859375-46.529296875-34.29296875-2.287109375-1.2578125z" fill="#666d7c"/></svg>
