<svg width="3713" height="2049" version="1.1" viewBox="0 0 3713 2049" xmlns="http://www.w3.org/2000/svg"><polygon transform="translate(.5 -2047.5)" points="3712 2048 0 2048 0 4096 3712 4096" fill="#76d3c1" stroke="#000"/><path d="m2688.5.5-1.931640625 128.001953125.1875 128-1.7421875 127.998046875 10.201171875 128 9.1015625 32 26.544921875 32 67.484375 64.001953125 25.447265625 24.21484375 71.44921875 8.197265625 65.83203125 7.85546875 40.478515625 5.310546875 70.947265625 8.50390625 128.001953125 71.861328125 63.998046875 24.5625 64 10.900390625 128-5.646484375 86.162109375-.55078125 13.46484375-2.294921875-1.43359375 2.619140625 29.806640625-3.53515625v-280h128.001953125v-512h-960.001953125zm384.001953125 640.001953125v33.275390625l-.001953125 11.69140625zm384.46484375 606.48828125-64.466796875 7.1015625-64 4.853515625-64 15.880859375-32 14.962890625-31.998046875 15.828125-87.20703125 55.845703125-136.248046875 9.173828125-77.595703125 5.6953125-88.90234375 6.974609375-27.751953125 25.1953125-32.130859375 31.998046875-24.087890625 32-15.5703125 32-9.255859375 32-13.251953125 128v384h1024.001953125v-639.998046875h-128.001953125v-97.6640625l-23.736328125-18.421875-.564453125-11.916015625 3.76171875-5.220703125 4.984375-2.130859375 15.5546875-3.6484375v-13l-35.00390625-3.783203125-6.833984375 6.638671875-23.8359375.509765625z" fill="#ece49b"/><path d="m3667.701171875.5 3.32421875 64 3.322265625 64.001953125-3.650390625 64.87109375 5.521484375 63.12890625-2.9453125 50.8828125-5.10546875 77.115234375-22.02734375 66.99609375-30.267578125 23.908203125-40.77734375 25.57421875-12.66015625 11.4453125-2.22265625 7.837890625-11.30078125 111.4296875-.599609375 9.76171875 1.328125 57.89453125 1.80859375 62.125.630859375 9 4.908203125 6.0625 6.5390625 6.1015625 20.97265625 8.86328125v-263.09375l1.146484375-10.6640625 9.708984375-5.2421875h117.14453125l.001953125-128v-384h-32.00390625zm-83.201171875 1257-18.638671875 12.416015625-3.5859375 2.439453125-5.515625.740234375-8.537109375 3.912109375 2.56640625 65.865234375.076171875 16.998046875 4.318359375 48.62109375 64.4296875 65.20703125 52.208984375 62.791015625 2.1875 75.892578125 2.720703125 52.1171875-3.83984375 64.759765625-3.85546875 63.2421875 2.916015625 63.177734375 2.619140625 64.8203125-3.68359375 64-3.185546875 64h44.80078125v-128l-.001953125-127.998046875.001953125-128v-128.001953125l-.001953125-127.998046875h-128v-142.001953125z" fill="#356b35"/><path d="m3026.337890625 616.603515625-11.30078125 13.658203125-59.3203125 17.533203125-12.359375 1.9765625 21.4609375 79.328125 127.888671875 55.212890625 2.103515625 1.599609375 36.576171875-1.5625 69.115234375-17.904296875 8.4921875-17.658203125-38.814453125-94.671875-.080078125-.271484375-115.955078125-17.2265625zm191.275390625 652.876953125-103.0078125 76.025390625-3.255859375-27.201171875-2.509765625-1.5703125-102.01171875-37.109375-1.546875.205078125-28.712890625 4.85546875-1.037109375 1.234375-97.140625 119.1640625.31640625 2.76953125 25.46484375 103.09765625.0234375.01953125 1.203125.490234375 10.18359375 4.140625 70.041015625-25.447265625 32.185546875-11.681640625 1.294921875-.25.310546875-.103515625 57.947265625-69.08203125-20.650390625 38.451171875 13.412109375 15.068359375 47.298828125 19.26171875 165.501953125-27.453125 2.875-.4765625 26.4296875-30.533203125 12.591796875-70.904296875-.048828125-.337890625-2.591796875-15.6640625-104.111328125-66.736328125z" fill="#666d7c"/></svg>
