<svg width="3713" height="2049" version="1.1" viewBox="0 0 3713 2049" xmlns="http://www.w3.org/2000/svg"><polygon transform="translate(.5 -2047.5)" points="0 4096 3712 4096 3712 2048 0 2048" fill="#76d3c1" stroke="#000"/><path d="m1420.921875 75.248046875-102.8359375 55.623046875-27.8359375 127.173828125 24.12109375 116.40625 87.130859375 158.953125 186.51953125 40.54296875 99.548828125-20.62890625 35.5390625-99.29296875 3.392578125-10.181640625-6.482421875-153.2578125-47.41796875-106.83984375-144.787109375-91.98046875-78.43359375-10.03125h-.00390625zm-993.927734375 80.62109375-161.51171875 151.22265625-56.1953125 148.60546875 22.701171875 177.34375 133.09765625 143.541015625 163.984375 49.703125 52.033203125-69.68359375 67.296875-45.990234375 68.04296875-65.982421875 8.76953125-12.29296875 25.205078125-89.14453125 45.673828125-42.560546875 15.064453125-47.01171875-34.068359375-158.275390625-100.25-109.265625-29.1796875-15.197265625zm576.298828125 461.966796875-205.859375 80.87109375-81.251953125 205.796875 12.810546875 158.357421875 96.41796875 150.56640625 181.72265625 72.76953125 169.48046875-25.26171875 17.203125-85.248046875 41.140625-70.365234375 33.2578125-88.755859375 2.6640625-14.865234375-15.37109375-91.353515625 23.0625-58.013671875-6.50390625-48.935546875-98.529296875-128.46875-137.3671875-55.84765625zm790.65625 49.26953125-307.5625 93.30859375-84.7109375 158.65625-19.984375 192.494140625 52.4296875 181.328125 299.447265625 224.873046875 158.9921875-43.8671875 138.1796875-179.0859375 49.482421875-131.033203125-16.43359375-117.166015625 31.474609375-73.255859375-6.59375-62.701171875-121.30078125-167.455078125zm-1272.49609375 412.5546875-196.84375 44.2734375-45.98828125 86.201171875-59.755859375 112.01171875-14.3984375 204.642578125 70.349609375 304.798828125 290.84375 154.6171875 161.0703125-31.751953125 119.42578125-104.234375 10.400390625-15.326171875 60.947265625-257.59765625-28.771484375-199.65234375-57-57.615234375-140.45703125-162.91796875-125.5859375-53.359375zm863.521484375 298.685546875-216.82421875 124.279296875-37.515625 135.728515625 17.04296875 150.39453125 69.8984375 129.3828125 263.146484375 119.88671875 4.275390625.85546875 115.5-60.373046875 77.642578125-159.919921875 17.28125-108.208984375-30.787109375-86.369140625 12.62890625-61.13671875-14.849609375-46.609375-120.380859375-107.064453125-145.376953125-28.5078125z" fill="#6ea09e"/></svg>
