<svg width="3713" height="2049" version="1.1" viewBox="0 0 3713 2049" xmlns="http://www.w3.org/2000/svg"><polygon transform="translate(.5 -2047.5)" points="0 4096 3712 4096 3712 2048 0 2048" fill="#76d3c1" stroke="#000"/><path d="m1752.9140625 23.947265625-207.80078125 75.744140625-86.33203125 203.716796875 8.880859375 158.626953125 92.654296875 152.912109375 179.86328125 77.251953125 170.0546875-21.052734375 19.310546875-84.794921875 42.873046875-69.322265625 35.447265625-87.904296875 3.033203125-14.794921875-13.1015625-91.70703125 24.49609375-57.423828125-5.2890625-49.08203125-95.31640625-130.87109375-135.94140625-59.234375zm-1173.0546875 15.92578125-286.150390625 146.357421875-55.23828125 171.16015625 14.45703125 192.98828125 83.74609375 169.16015625 334.568359375 168.224609375 148.69921875-71.361328125 104.2421875-200.74609375 25.466796875-137.728515625-36.943359375-112.396484375 17.98828125-77.67578125-17.60546875-60.5390625-149.06640625-143.296875zm1386.365234375 408.546875v.001953125l-129.796875 60.14453125zm-813.85546875 289.986328125-237.787109375 76.91015625-64.689453125 125.078125-14.328125 150.677734375 41.72265625 141.015625 232.78125 171.55859375 4.0078125 1.71875 125.46484375-35.265625 108.94140625-140.478515625 39.216796875-102.3203125-12.3203125-90.86328125 24.9609375-57.21875-4.919921875-48.669921875-95.724609375-129.580078125-136.376953125-57.8671875zm558.755859375 286.685546875-205.857421875 80.873046875-81.25390625 205.794921875 12.810546875 158.357421875 96.41796875 150.568359375 181.72265625 72.767578125 169.48046875-25.26171875 17.203125-85.248046875 41.140625-70.365234375 33.2578125-88.755859375 2.6640625-14.865234375-15.37109375-91.353515625 23.064453125-58.01171875-6.505859375-48.9375-98.529296875-128.466796875-137.3671875-55.845703125zm-1248.189453125 106.43359375-69.693359375 68.4765625-90.5546875 88.974609375-75.025390625 190.9375-24.154296875 311.876953125 231.19140625 234.62109375 163.189453125 17.94140625 145.162109375-63.6875 14.51171875-11.5078125 135.2890625-227.525390625 32.33984375-199.10546875-37.140625-72.0625-85.2109375-197.48046875-103.849609375-88.525390625-34.98828125-36.2265625zm660.978515625 355.302734375-111.28515625 67.552734375-67.654296875 97.751953125-55.0078125 172.71875 99.28125 163.021484375 83.595703125 57.857421875 96.41015625-42.748046875 9.712890625-4.564453125 106.50390625-110.392578125 44.662109375-108.021484375-33.25390625-168.28125-46.833984375-63.71875-14.927734375-25.072265625z" fill="#6ea09e"/></svg>
