<svg width="3713" height="2049" version="1.1" viewBox="0 0 3713 2049" xmlns="http://www.w3.org/2000/svg"><polygon transform="translate(-2431.5,-2047.5)" points="2432 4096 6144 4096 6144 2048 2432 2048" fill="#76d3c1" stroke="#000"/><path d="m.5.498046875v128l128 128v128l-128 128v256.001953125l128 128v511.998046875l-128 128v512.001953125h1024l2.560546875-64.001953125-5.119140625-63.998046875-21.759765625-64.001953125-49.921875-63.998046875-76.287109375-64.001953125-55.16796875-63.998046875-30.71875-64-44.416015625-64.001953125-41.857421875-63.998046875-34.81640625-64.001953125-25.728515625-64-11.390625-64-6.912109375-63.998046875.640625-64 8.703125-64 15.232421875-64.001953125 28.03125-64 36.9921875-63.998046875 33.408203125-64.001953125 24.44921875-63.998046875 17.40625-64.001953125 3.201171875-63.998046875-5.376953125-64 14.20703125-64.001953125 42.880859375-64 66.560546875-64 71.6796875-64 51.19921875-64 23.041015625-63.998046875 14.080078125-64.001953125 2.55859375-64-1.279296875-64h-942.080078125z" fill="#ece49b"/><path d="m.5.498046875v256h128v128h-128v512.001953125h128v511.998046875h-128v640.001953125h44.80078125l.072265625-9.60546875-7.5546875-99.451171875 1.3046875-51.966796875 2.611328125-94.9765625-1.37109375-67.224609375-12.162109375-60.775390625 11.666015625-65.408203125-.75390625-14.400390625-3.4609375-38.70703125 3.1640625-9.39453125 34.875-27.482421875 23.388671875-22.1328125 60.70703125-65.765625 7.615234375-12.7109375 2.7734375-10.87890625 5.1796875-51.951171875.876953125-65.169921875-.34765625-17.818359375-5.19140625-52.6953125v-57.484375l-4.865234375-128.001953125 10.224609375-76.798828125-4.4765625-39.431640625-3.447265625-12.5234375-2.896484375-3.974609375-7.806640625-9.326171875-13.490234375-15.1171875-40.6796875-43.744140625-16.763671875-15.2265625-37.853515625-33.7421875-2.09375-6.087890625-5.517578125-86.80859375-.890625-41.216796875 8.259765625-67.212890625.26171875-17.267578125 1.201171875-43.521484375-.068359375-5.474609375 25.25390625-22.751953125 11.8671875-12.603515625 56.9375-53.2578125 18.560546875-18.359375 10.298828125-15.552734375 7.455078125-49.53515625 2.03125-18.548828125-1.421875-59.916015625-12.408203125-19.384765625-12.810546875-11.498046875-37.986328125-29.146484375-18.59765625-18.201171875-52.638671875-49.76953125-2.62109375-9.1484375 3.716796875-57.794921875.349609375-20.095703125-.4765625-40.9609375h-12.80078125z" fill="#356b35"/><path d="m379.630859375 380.716796875-64.865234375 7.8125-1.634765625 1.66796875 2.96875 68.94921875-1.263671875-16.765625-4.65625-3.51171875-.654296875-.314453125 1.357421875-8.48828125-81.517578125-30.802734375-16.658203125 2.025390625-95.171875 7.4453125-3.677734375 2.767578125-33.46484375 37.1015625-55.970703125 52.7265625-2.853515625 144.34375 1.5625 136.11328125 84.77734375 80.794921875 49.28125-31.27734375 22.322265625-9.294921875 85.009765625-55.2890625 3.755859375-4.93359375 12.947265625-29.015625 1.095703125-3.564453125 5.7421875-29.23828125 11.291015625-39.740234375 8.421875-25.03515625 13.3359375-108.892578125 19.970703125 68.041015625 1.73828125 2.685546875 17.14453125 17.46875 45.314453125-.26953125 2.38671875-2.26171875 34.53515625-39.55078125 1.275390625-2 4.828125-64.865234375-.017578125-2.392578125-19.705078125-80.685546875-1.25390625-2.287109375-45.748046875-38.8984375z" fill="#666d7c"/></svg>
