<svg width="3713" height="2049" version="1.1" viewBox="0 0 3713 2049" xmlns="http://www.w3.org/2000/svg"><polygon transform="translate(-2431.5,-2047.5)" points="2432 4096 6144 4096 6144 2048 2432 2048" fill="#76d3c1" stroke="#000"/><path d="m1041.546875-16.490234375-135.861328125 59.419921875-95.13671875 131-5.224609375 49.08984375 24.57421875 57.390625-12.978515625 91.724609375 81.587890625 171.912109375 61.787109375 61.03515625 139.42578125 17.0234375 168.052734375-49.96484375 92.447265625-153.03515625 8.666015625-158.638671875-86.607421875-203.6015625zm599.5546875 89.25390625-127.548828125 52.01953125-66.62109375 64.833984375-53.083984375 153.955078125 98.537109375 108.71875 2.435546875 4.4453125 154.568359375 13.83203125 106.205078125-102.177734375 46.982421875-84.466796875 9.28125-105.4375-66.287109375-68.130859375zm1203.271484375 7.189453125-139.419921875 50.5078125-103.41015625 124.572265625-8.384765625 48.650390625 20.810546875 58.859375-18.8828125 90.693359375 2.08984375 14.955078125 29.810546875 89.974609375 38.39453125 71.896484375 13.904296875 85.84765625 168.37890625 31.779296875 106.10546875-37.810546875-33.537109375 17.37109375-138.177734375 180.2265625-10.35546875 154.408203125 61.658203125 193.498046875 8.849609375 11.115234375 97.443359375 72.767578125 125.068359375 14.888671875 213.462890625-135.255859375 36.0234375-237.267578125-22.9609375-155.705078125-52.248046875-82.197265625-40.2109375-63.259765625-150.380859375-21.970703125 85.806640625-123.25390625 18.90625-157.74609375-73.2578125-208.775390625-202.587890625-88.75zm-567.7734375 2.677734375-44.232421875 24.087890625-125.591796875 53.361328125-140.443359375 162.90625-57.013671875 57.626953125-28.76953125 199.654296875 60.9453125 257.595703125 10.400390625 15.326171875 119.42578125 104.236328125 161.072265625 31.751953125 290.84375-154.619140625 70.349609375-304.796875-14.400390625-204.642578125-59.755859375-112.01171875-45.98828125-86.203125zm-2194.8046875 397.404296875-8.16796875 2.845703125-82.166015625 64.65234375-63.94921875 141.607421875-4.341796875 38.11328125-37.884765625-71.220703125-316.505859375-84.708984375-48.181640625 7.322265625-192.88671875 105.11328125-123.607421875 205.533203125-1.4140625 73.1171875 43.626953125 81.546875-7.392578125 137.033203125 6.40234375 21.435546875 63.755859375 125.099609375 72.29296875 96.71484375 39.541015625 122.611328125 253.68359375 8.919921875 255.3515625-137.419921875 116.810546875-237.7109375-5.80078125-180.65625 51.84765625 32.751953125 97.2421875-33.869140625 8.16796875-2.84375 120.986328125-121.744140625-13.50390625-181.193359375-39.599609375-113.70703125-83.83984375-98.298828125zm597.681640625 46.400390625-23.685546875 17.041015625-68.357421875 39.763671875-97.58984375 141.06640625-2.109375 116.87109375 53.658203125 143.703125 7.087890625 8.05859375 71.37109375 77.642578125 99.732421875-19.728515625 156.046875-109.919921875 18.41796875-180.330078125-23.072265625-116.619140625-75.125-106.32421875zm984.763671875 219.265625-313.939453125 68.884765625-114.119140625 151.134765625-24.001953125 205.373046875 24.884765625 57.927734375 63.2578125 48.53515625 42.916015625 110.25390625 107.203125 90.142578125 208.0703125 88.724609375 160.15234375-39.41796875 151.375-342.5234375-42.86328125-183.826171875-111.501953125-158.177734375zm831.623046875 193.189453125-146.744140625 21.333984375-126.419921875 101.14453125-18.03125 45.955078125 8.5078125 61.84765625-36.796875 85.017578125 10.068359375 109.20703125 67.01953125 163.9453125 110.87890625 66.212890625 272.84375-107.3984375 77.32421875-125.955078125 24.98828125-149.45703125-30.91015625-137.392578125zm-2202.560546875 286.0546875-101.763671875 57.564453125-9.630859375 27.568359375-33.173828125 71.76171875.9921875 171.529296875 65.314453125 96.939453125 126.388671875 86.923828125 10.427734375 2.53515625 103 22.654296875 70.37109375-73.37109375 64.76171875-179.5546875-88.36328125-158.271484375-85.798828125-82.2890625zm805.60546875 90.443359375-141.421875 44.58984375-108.5625 120.109375-10.431640625 48.251953125 18.314453125 59.68359375-22.685546875 89.818359375 62.7890625 179.630859375 54.927734375 67.279296875 136.81640625 31.79296875 172.421875-31.7578125 108.23828125-142.306640625 25.53515625-156.80859375-64.40234375-211.67578125z" fill="#6ea09e"/></svg>
