<svg width="3713" height="2049" version="1.1" viewBox="0 0 3713 2049" xmlns="http://www.w3.org/2000/svg"><polygon transform="translate(.5 -2047.5)" points="0 4096 3712 4096 3712 2048 0 2048" fill="#76d3c1" stroke="#000"/><path d="m2688.5.5-2.560546875 128.001953125-12.798828125 128-17.919921875 127.998046875h256l13.5-90.69140625 126.048828125 123.203125 98.28515625 95.48828125 30.70703125 128.001953125-16.39453125 127.998046875h-371.1875l23.041015625 64 6.3984375 64 30.720703125 64.001953125 51.19921875 63.998046875 26.240234375 64 14.720703125 64v128h256.001953125l70.908203125 26.552734375 23.857421875 101.44921875-18.90625 127.998046875-23.26171875 51.298828125-52.59765625 57.11328125-141.541015625-12.03125 8.419921875-32.380859375 5.119140625-64h-256l-5.119140625 64-16.640625 64-46.720703125 64-59.51953125 64.001953125-14.080078125 63.998046875 3.83984375 64 10.240234375 64v64h1024v-384h-128v-768h-128v-384h128v-128h128v-384h-960z" fill="#ece49b"/><path d="m3667.697265625.5-5.810546875 58.1328125 3.642578125 43.80859375 2.16796875 26.060546875 1.814453125 18.12890625 4.4609375 47.021484375-4.6796875 46.87890625-1.595703125 15.970703125-9.595703125 15.998046875-54.40234375 48-51.19921875 64-36 36-47.263671875 34.849609375-48.65625 42.25390625-8.880859375 14.896484375-1.28515625 12.845703125-4.5078125 45.103515625-.38671875 44.560546875-.21875 25.4921875 1.775390625 18.044921875 4.623046875 46.9765625.955078125 46.912109375.326171875 16.064453125-.82421875 15.740234375-2.46484375 47.05859375.181640625 32.560546875 5.666015625 32.640625 4.16015625 8 7.333984375 8.52734375 20.1875 23.47265625 8.921875 6.373046875 24.677734375 17.62890625 33.279296875 32 25.599609375 31.998046875 10.240234375 48 .23046875 29.541015625-2.775390625 21.044921875-7.697265625 29.4140625v18.359375l.255859375 46.92578125 5.5859375 47.162109375 1.841796875 15.552734375.318359375 15.91015625 1.896484375 94.810546875.34375 17.28125-10.2421875 127.998046875.65625 10.90625 5.744140625 95.703125 1.283203125 21.390625 7.359375 16 14.46484375 13.150390625 38.333984375 35.74609375 16.416015625 18.31640625 15.189453125 13.298828125 21.08984375 18.482421875 7.462890625 13.0078125.923828125 7.55078125 5.8359375 47.740234375.923828125 7.5546875-.927734375 47.216796875-.353515625 17.935546875-4.8203125 48.20703125-1.578125 15.79296875-.001953125 16.94140625-.001953125 47.05859375h44.802734375v-384h-128v-768h-128v-384h128v-128h128v-384h-32.001953125z" fill="#356b35"/><path d="m2873.4609375 70.244140625-138.697265625 8.822265625-1.904296875.068359375-1.322265625 1.373046875-44.90625 46.611328125-3.244140625 1.51953125-61.859375 4.478515625-1.935546875.140625-1.46875 1.251953125-64.240234375 54.705078125 7.2109375 65.962890625.208984375 1.91796875 55.8671875 58.498046875-8.892578125-5.390625-111.77734375 3.896484375-37.75390625 37.3515625-31.28515625 30.953125-1.37109375 4.7578125-1.26953125 250.61328125 1.357421875 4.88671875 32.26953125 44.4921875.97265625 1.337890625 24.576171875 10.669921875.88671875.880859375 74.259765625 73.5 3.27734375 1.357421875 49.986328125-.48046875 1.298828125-.134765625.650390625-.06640625 9.626953125-4.958984375.0078125-.00390625h.001953125l.080078125-.0390625.16015625-.072265625 11.9453125 28.98046875 47.109375 41.978515625 67.005859375 62.19921875 4.908203125 1.896484375 59.38671875-1.2578125 3.099609375-1.544921875 58.97265625-56.095703125 2.99609375 8.83203125 53.32421875 32.494140625 11.51953125 4.75390625 62.0859375-2.216796875 3.732421875-1.8359375 62.181640625-58.66796875h1.544921875l52.640625-1.900390625 5.162109375-2.630859375 50.763671875-57.419921875 5.248046875-18.69140625.158203125-138.236328125-15.185546875-48.640625.966796875-43.521484375-5.91015625-12.80078125-73.626953125-92.158203125-18.951171875-.873046875-8.95703125 2.068359375 1.34375-3.5859375 1.568359375-4.185546875-5.03515625-13.259765625-66.962890625-86.59375-10.52734375-6.208984375-28.6875-27.2578125-25.072265625-9.86328125-.31640625-.0390625 2.134765625-2.521484375.99609375-51.146484375 1.958984375-25.224609375 3.748046875-9.326171875.0703125-35.970703125-1.576171875-3.23046875-63.224609375-64.00390625zm-167.4921875 567.228515625 11.7265625 8.58984375zm240.4453125 508.97265625-3.37890625 1.06640625-90.1171875 74.96875-9.099609375 24.458984375-33.560546875 33.560546875-6.078125 60.771484375.44921875 4.267578125-3.0703125 1.259765625-7.712890625 3.873046875-28.78125 30.826171875-25.20703125 27.00390625 4.96875 65.283203125 1.44921875 3.328125 66.3828125 72.029296875 65.4453125 57.626953125 5.3515625 1.05859375 32.662109375-3.94140625 26.462890625-3.193359375h.005859375l1.955078125-.107421875.171875.36328125 2.396484375 5.09765625 28.498046875 18.341796875 31.107421875 23.890625 3.677734375 1.322265625 58.919921875-1.529296875 3.158203125-2.271484375 3.099609375 3.5703125 15.10546875 6.80859375 2.96875.017578125 108.13671875-.791015625 1.869140625-.330078125 11.107421875-6.296875 57.0390625-63.376953125 11.0078125-33.03125 19.583984375-26.111328125 1.78125-3.23828125 13.765625-97.099609375-2.236328125-8.97265625-8.447265625-11.904296875-8.447265625-66.81640625-34.3046875-57.728515625-51.265625-57.15234375-15.294921875-2.111328125-61.439453125-68.736328125h-64l-77.099609375-1.3046875zm-1.865234375 454.140625h.001953125l2.564453125 5.458984375z" fill="#666d7c"/></svg>
