<svg width="3713" height="2049" version="1.1" viewBox="0 0 3713 2049" xmlns="http://www.w3.org/2000/svg"><polygon transform="translate(-2431.5,-2047.5)" points="2432 4096 6144 4096 6144 2048 2432 2048" fill="#76d3c1" stroke="#000"/><path d="m-71.96875-16.490234375-135.859375 59.419921875-95.13671875 131-5.224609375 49.08984375 24.57421875 57.390625-12.978515625 91.724609375 81.583984375 171.912109375 61.791015625 61.03515625 139.42578125 17.0234375 168.052734375-49.96484375 92.4453125-153.03515625 8.666015625-158.638671875-86.60546875-203.6015625zm1387.357421875 18.85546875-218.595703125 21.681640625-193.900390625 141.15625-29.78125 66.794921875 8.41796875 92.09765625-60.18359375 123.33203125-2.453125 22.236328125 9.99609375 140.052734375 28.912109375 117.234375-1.458984375 16.505859375-63.865234375-120.06640625-316.50390625-84.7109375-48.18359375 7.322265625-192.88671875 105.111328125-123.60546875 205.53515625-1.4140625 73.1171875 43.625 81.546875-7.390625 137.033203125 6.40234375 21.435546875 63.755859375 125.099609375 72.29296875 96.71484375 39.541015625 122.611328125 253.681640625 8.919921875 12.013671875-6.46484375-42.447265625 123.099609375 98.5390625 108.71875 2.43359375 4.4453125 154.5703125 13.83203125 106.203125-102.1796875 46.984375-84.466796875 9.279296875-105.435546875-66.287109375-68.12890625-64.73046875-23.29296875 115.60546875-235.2578125-7.5546875-235.232421875-7.783203125-14.630859375 138.017578125 64.173828125 174.49609375-16.384765625-14.94921875 19.798828125-24.001953125 205.373046875 24.884765625 57.927734375 63.2578125 48.53515625 42.916015625 110.25390625 107.203125 90.142578125 208.0703125 88.724609375 160.15234375-39.41796875 151.375-342.5234375-42.86328125-183.826171875-111.501953125-158.177734375-151.43359375-97.03125-107.376953125 23.560546875 8.658203125-7.501953125 84.66796875-219.59765625-29.05859375-326.474609375-258.513671875-201.298828125zm712.865234375 10.982421875-139.41796875 50.5078125-103.41015625 124.57421875-8.38671875 48.6484375 20.810546875 58.859375-18.8828125 90.693359375 2.08984375 14.95703125 29.80859375 89.97265625 38.3984375 71.896484375 13.904296875 85.849609375 168.37890625 31.779296875 184.39453125-65.708984375 102.150390625-146.73828125 18.90625-157.744140625-73.2578125-208.77734375-202.5859375-88.751953125zm1192.3984375 69.283203125-44.228515625 24.083984375-125.595703125 53.365234375-140.462890625 162.92578125-56.9921875 57.607421875-28.771484375 199.654296875 60.9453125 257.595703125 10.400390625 15.326171875 119.42578125 104.236328125 161.072265625 31.751953125 14.603515625-7.763671875-99.935546875 79.955078125-18.033203125 45.955078125 8.509765625 61.84765625-36.798828125 85.017578125 10.0703125 109.20703125 67.017578125 163.9453125 110.87890625 66.212890625 272.84375-107.3984375 77.326171875-125.955078125 24.986328125-149.45703125-30.908203125-137.392578125-212.73046875-134.4609375-128.333984375 18.658203125 231.345703125-122.990234375 70.3515625-304.796875-14.400390625-204.642578125-59.755859375-112.01171875-45.98828125-86.203125zm-2268.451171875 192.712890625v.001953125l-16.025390625 11.0546875v-.001953125zm-1379.716796875 204.69140625-8.16796875 2.845703125-82.1640625 64.65234375-63.951171875 141.607421875-15.12890625 132.767578125 83.833984375 149.810546875 96.591796875 61.017578125 97.2421875-33.869140625 8.16796875-2.84375 90.42578125-90.9921875-16.771484375 54.736328125 8.09765625 92.60546875 85.697265625 138.478515625 50.46484375-2.61328125-79.919921875 45.208984375-9.626953125 27.552734375-33.177734375 71.775390625.990234375 171.53125 65.314453125 96.939453125 126.388671875 86.923828125 10.4296875 2.53515625 102.998046875 22.65625 70.373046875-73.375 64.759765625-179.552734375-88.36328125-158.2734375-85.796875-82.28515625-95.205078125-34.181640625 46.904296875-2.4296875 4.982421875.92578125 108.45703125-110.99609375-11.998046875-146.88671875-35.72265625-89.80859375-75.810546875-73.86328125-94.697265625 8.26953125-91.80078125 55.126953125-9.90625-132.9453125-39.603515625-113.70703125-83.83984375-98.298828125zm1465.7265625 200.720703125v.001953125l-155.955078125 39.931640625zm1708.54296875 80.607421875-28.029296875 8.109375-77.736328125 14.525390625-139.2578125 100.158203125-41.193359375 109.390625 2.345703125 153.376953125 3.97265625 9.96875 41.189453125 97.0859375 100.5703125 14.87109375 183.87890625-51.205078125 77.84375-163.703125 17.38671875-117.6015625-35.10546875-125.361328125zm-1688.685546875 26.69140625.001953125.001953125 14.697265625 137.953125zm1799.73828125 572.24609375-32.435546875 21.009765625-92.953125 48.150390625-138.177734375 180.2265625-10.353515625 154.40625 61.65625 193.498046875 8.8515625 11.115234375 97.44140625 72.76953125 125.0703125 14.88671875 213.4609375-135.25390625 36.025390625-237.267578125-22.958984375-155.705078125-52.251953125-82.19921875-40.208984375-63.2578125zm-3336.091796875.560546875-141.421875 44.591796875-108.564453125 120.107421875-10.4296875 48.251953125 18.3125 59.68359375-22.685546875 89.818359375 62.7890625 179.630859375 54.927734375 67.279296875 136.81640625 31.79296875 172.421875-31.7578125 108.23828125-142.3046875 25.533203125-156.810546875-64.3984375-211.67578125zm1199.55078125 87.205078125h.001953125l-.193359375.197265625z" fill="#6ea09e"/></svg>
