<svg width="3713" height="2049" version="1.1" viewBox="0 0 3713 2049" xmlns="http://www.w3.org/2000/svg"><polygon transform="translate(.5 -2047.5)" points="0 4096 3712 4096 3712 2048 0 2048" fill="#76d3c1" stroke="#000"/><path d="m2671.453125-16.48828125-240.732421875 73.353515625-86.607421875 203.603515625 8.66796875 158.63671875 92.4453125 153.037109375 168.052734375 49.96484375 139.42578125-17.0234375 61.7890625-61.037109375 81.5859375-171.91015625-12.978515625-91.7265625 24.57421875-57.388671875-5.224609375-49.08984375-95.13671875-131.001953125zm-599.5546875 89.25390625-104.46875 37.591796875-66.287109375 68.130859375 9.28125 105.4375 46.984375 84.46484375 106.203125 102.177734375 154.5703125-13.830078125 2.431640625-4.4453125 98.541015625-108.71875-53.0859375-153.955078125-66.62109375-64.833984375zm-1203.271484375 7.1875-32.8984375.01953125-202.587890625 88.751953125-73.2578125 208.7734375 18.90625 157.748046875 85.8046875 123.251953125-150.37890625 21.97265625-40.2109375 63.2578125-52.248046875 82.19921875-22.9609375 155.705078125 36.0234375 237.265625 213.462890625 135.255859375 125.068359375-14.88671875 97.443359375-72.767578125 8.849609375-11.115234375 61.65625-193.5-10.353515625-154.40625-138.177734375-180.2265625-33.53125-17.369140625 106.099609375 37.80859375 168.37890625-31.779296875 13.90234375-85.84765625 38.396484375-71.8984375 29.8125-89.97265625 2.087890625-14.95703125-18.8828125-90.693359375 20.810546875-58.859375-8.38671875-48.6484375-103.408203125-124.572265625zm567.7734375 2.6796875-196.841796875 44.271484375-45.98828125 86.203125-59.755859375 112.01171875-14.400390625 204.64453125 70.349609375 304.794921875 290.84375 154.619140625 161.072265625-31.75 119.42578125-104.23828125 10.400390625-15.32421875 60.9453125-257.59765625-28.76953125-199.65234375-57.015625-57.630859375-140.44140625-162.90234375-125.587890625-53.361328125zm2194.8046875 397.40234375-100.466796875 1.044921875-83.83984375 98.30078125-39.599609375 113.70703125-13.50390625 181.19140625 120.986328125 121.744140625 8.16796875 2.845703125 97.2421875 33.8671875 51.84765625-32.751953125-5.80078125 180.658203125 116.810546875 237.708984375 255.353515625 137.419921875 253.68359375-8.919921875 39.5390625-122.611328125 72.29296875-96.712890625 63.7578125-125.099609375 6.400390625-21.435546875-7.392578125-137.03515625 43.626953125-81.546875-1.4140625-73.115234375-123.607421875-205.533203125-192.88671875-105.11328125-48.181640625-7.32421875-316.50390625 84.7109375-37.884765625 71.22265625-4.34375-38.115234375-63.951171875-141.609375-82.1640625-64.65234375zm-597.6796875 46.400390625-116.376953125 11.2265625-75.125 106.322265625-23.0703125 116.619140625 18.416015625 180.328125 156.048828125 109.921875 99.73046875 19.73046875 71.37109375-77.642578125 7.087890625-8.060546875 53.66015625-143.701171875-2.111328125-116.87109375-97.58984375-141.068359375-68.349609375-39.7578125zm-2341.61328125 159.45703125.00390625.001953125 67.75 71.06640625zm1356.84765625 59.810546875-151.435546875 97.029296875-111.5 158.1796875-42.86328125 183.82421875 151.375 342.5234375 160.15234375 39.419921875 208.072265625-88.7265625 107.201171875-90.142578125 42.916015625-110.25390625 63.2578125-48.53515625 24.88671875-57.927734375-24.00390625-205.373046875-114.119140625-151.134765625zm-831.62109375 193.1875-212.73046875 134.4609375-30.91015625 137.392578125 24.98828125 149.45703125 77.32421875 125.955078125 272.84375 107.3984375 110.87890625-66.2109375 67.01953125-163.9453125 10.068359375-109.208984375-36.794921875-85.015625 8.505859375-61.849609375-18.03125-45.955078125-126.419921875-101.142578125zm2202.55859375 286.0546875-122.52734375 43.9921875-85.796875 82.287109375-88.361328125 158.271484375 64.759765625 179.5546875 70.37109375 73.373046875 103-22.654296875 10.4296875-2.537109375 126.38671875-86.921875 65.31640625-96.94140625.990234375-171.529296875-33.177734375-71.7734375-9.626953125-27.556640625zm-805.60546875 90.443359375-231.5390625 98.607421875-64.40234375 211.677734375 25.53515625 156.80859375 108.23828125 142.3046875 172.423828125 31.7578125 136.814453125-31.79296875 54.927734375-67.27734375 62.7890625-179.6328125-22.6875-89.81640625 18.314453125-59.68359375-10.427734375-48.251953125-108.564453125-120.109375zm190.150390625 299.724609375v.001953125l-127.95703125 66.72265625z" fill="#6ea09e"/></svg>
