<svg width="3713" height="2049" version="1.1" viewBox="0 0 3713 2049" xmlns="http://www.w3.org/2000/svg"><polygon transform="translate(-2431.5,-2047.5)" points="2432 4096 6144 4096 6144 2048 2432 2048" fill="#76d3c1" stroke="#000"/><path d="m.5.498046875v256h128v256h128v640.001953125h-128v640h-128v256h1070.080078125l-1.279296875-64.001953125-3.83984375-63.998046875-3.841796875-64.001953125-7.6796875-63.998046875-11.51953125-64.001953125-17.919921875-63.998046875-40.9609375-64-46.078125-64.001953125-25.599609375-63.998046875-7.6796875-64.001953125v-64l6.3984375-64-3.328125-63.998046875-18.431640625-64-31.359375-64-43.51953125-64.001953125-47.744140625-64-31.6171875-63.998046875-17.919921875-64.001953125-9.984375-63.998046875-3.96875-64.001953125v-63.998046875l4.9921875-64 16.896484375-64.001953125 35.83984375-64 53.759765625-64 60.80078125-64 55.552734375-64 49.15234375-63.998046875 32-64.001953125 15.359375-64-2.560546875-64h-896z" fill="#ece49b"/><path d="m.5.498046875v256h128v256h128v640.001953125h-128v640h-128v256h44.80078125v-11.904296875l-1.28125-31.359375 1.28125-52.9921875v-22.78515625l1.279296875-8.958984375 8.67578125-12.09375 16.77734375-18.3984375 30.837890625-37.046875 35.513671875-31.349609375 15.552734375-16.29296875 9.123046875-12.818359375 4.421875-14.294921875 2.4921875-31.73828125.765625-63.919921875v-18.046875l1.15234375-38.017578125.638671875-22.142578125-5.630859375-67.841796875 2.55859375-41.470703125 5.12109375-86.529296875-.9375-18.892578125-6.7421875-45.6171875 2.55859375-34.81640625 2.234375-28.572265625 11.744140625-16.91796875 15.458984375-16.248046875 66.693359375-63.4453125 16.638671875-18.43359375 8.83203125-13.0546875 3.83984375-25.6015625 1.126953125-19.736328125.619140625-28.505859375-5.41796875-54.177734375-.197265625-11.87109375-.8125-29.99609375-.439453125-63.583984375.298828125-22.4921875-.298828125-18.466796875 1.28125-50.560546875 4.646484375-43.09765625.154296875-15.857421875 2.8359375-60.8671875-5.078125-67.185546875 7.681640625-64-6.400390625-51.841796875-5.12109375-12.16015625-6.52734375-11.646484375-45.6953125-40.576171875-58.369140625-62.20703125-9.728515625-13.5703125 2.560546875-67.7109375-3.83984375-51.583984375-3.83984375-8.705078125-13.0546875-20.3515625-48.255859375-55.806640625-16.87109375-14.583984375-30.619140625-25.09765625-8.958984375-12.16015625-6.3984375-29.18359375 5.119140625-98.81640625h-12.80078125z" fill="#356b35"/></svg>
