<svg width="3713" height="2049" version="1.1" viewBox="0 0 3713 2049" xmlns="http://www.w3.org/2000/svg"><polygon transform="translate(.5 -2047.5)" points="3712 2048 0 2048 0 4096 3712 4096" fill="#76d3c1" stroke="#000"/><path d="m2688.5.5-2.560546875 64-5.119140625 64.001953125-9.599609375 63.998046875-18.560546875 64.001953125-8.3203125 63.998046875.640625 64 14.080078125 64 29.439453125 64 46.080078125 64 38.400390625 64.001953125 16 63.998046875 1.919921875 64-3.201171875 64-21.119140625 64-38.400390625 64.001953125-34.560546875 63.998046875-19.19921875 64-6.400390625 64 8.9609375 64 16.638671875 64 34.560546875 64.001953125 34.560546875 64 21.759765625 63.998046875 15.361328125 64 5.119140625 64-2.55859375 64-10.2421875 64-26.87890625 64.001953125-44.80078125 63.998046875-25.599609375 64-7.6796875 64 1.279296875 64h1024v-384h-128v-384h128v-512h-128v-511.998046875h128v-256.001953125h-960z" fill="#ece49b"/><path d="m3667.701171875.5.123046875 11.486328125-.298828125 32.6796875 1.609375 50.62109375.396484375 21.28515625-1.0703125 11.80859375-7.140625 10.541015625-14.87890625 16.521484375-43.197265625 44.994140625-35.552734375 31.904296875-13.361328125 15.361328125-5.669921875 8.798828125-4.98046875 57.916015625-3.55078125 52.68359375-1.029296875 17.470703125.27734375 19.6796875 5.443359375 66.6484375v18.81640625l-2.55859375 22.783203125v107.263671875l-1.28125 20.73828125.35546875 17.853515625 1.78125 41.654296875-.984375 40.07421875.59765625 15.470703125 2.08984375 12.9453125 8.294921875 12.30078125 15.115234375 15.759765625 31.064453125 35.060546875 40.1171875 37.23046875 16.767578125 15.873046875 10.2421875 11.775390625 1.279296875 10.751953125 1.279296875 76.16015625-5.119140625 41.087890625v39.552734375l3.83984375 70.52734375-3.83984375 17.919921875-10.49609375 14.3359375-19.330078125 21.6328125-34.55859375 42.23828125-31.48828125 25.857421875-14.080078125 14.080078125-5.248046875 9.85546875-2.560546875 12.03125 1.28125 16.255859375 1.279296875 32.896484375-5.12109375 47.6171875-1.27734375 19.201171875 5.119140625 86.525390625-5.119140625 41.47265625 1.27734375 11.775390625 2.560546875 24.3203125-2.560546875 56.3203125 1.28125 17.6640625 4.76953125 17.96484375 9.103515625 16.20703125 44.91796875 51.693359375 7.212890625 7.53515625 33.1953125 27.576171875 17.28125 15.19921875 6.400390625 9.74609375 1.279296875 13.181640625-2.55859375 44.416015625v52.095703125l-1.28125 18.3046875 5.119140625 86.14453125-2.55859375 41.85546875h44.798828125v-384h-128v-384h128v-512h-128v-511.998046875h128v-256.001953125z" fill="#356b35"/></svg>
