<svg width="3713" height="2049" version="1.1" viewBox="0 0 3713 2049" xmlns="http://www.w3.org/2000/svg"><polygon transform="translate(-2431.5,-2047.5)" points="2432 4096 6144 4096 6144 2048 2432 2048" fill="#76d3c1" stroke="#000"/><path d="m.5.498046875v256h128v256h128v256.001953125h-128v128h-128v383.998046875h128v512.001953125h-128v256h1024v-64.001953125l-8.9609375-63.998046875-23.041015625-64.001953125-56.31640625-63.998046875-33.919921875-64.001953125-5.763671875-63.998046875 8.962890625-64-8.962890625-64.001953125-28.158203125-63.998046875-46.080078125-64.001953125-35.19921875-64-17.279296875-64-5.12109375-63.998046875 5.12109375-64 10.87890625-64 26.240234375-64.001953125 45.439453125-64 63.361328125-63.998046875 58.87890625-64.001953125 38.443359375-63.998046875 9.65234375-32 1.072265625-32.001953125-3.75390625-31.998046875-9.7734375-32-25.400390625-64-23.375-64.001953125-15.927734375-64-8.12890625-64 5.703125-64 9-31.998046875 13.826171875-32.001953125 25.94140625-63.998046875 16-64.001953125 11.521484375-64 5.119140625-64h-896z" fill="#ece49b"/><path d="m.5.498046875v256h128v256h128v256.001953125h-128v128h-128v383.998046875h128v512.001953125h-128v256h44.80078125l2.55859375-42.240234375-2.359375-85.841796875 16.185546875-21.677734375 39.466796875-34.919921875 38.48046875-33.482421875 9.625-8.201171875 5.03515625-5.453125 17.216796875-24.18359375 1.63671875-23.357421875-.861328125-16.115234375-1.8046875-23.28515625-1.021484375-65.2421875 2.53125-63.462890625-6.125-64.5390625 2.00390625-43.662109375-3.56640625-84.318359375 8.353515625-31.255859375 1.74609375-18.97265625 1.841796875-30.541015625-1.87890625-17.05078125-8.744140625-30.19921875-4.494140625-5.482421875-16.37109375-13.33203125-19.841796875-27.13671875-9.251953125-9.873046875-18.767578125-18.94921875-41.578125-36.404296875-13.818359375-16.8203125.2421875-14.056640625 4.283203125-49.974609375-1.37109375-63.970703125 18.46484375-31.39453125 34.69140625-36.75390625 44.8359375-36.0625 25.560546875-23.642578125 60.43359375-46.576171875 15.60546875-16.16015625 55.916015625-65.32421875 2.916015625-18.15625-2.6328125-91.04296875-.794921875-32.427734375-3.28515625-37.658203125 5.27734375-37.548828125.458984375-13.5-.767578125-6.904296875-3.87109375-18.84765625-12.125-13.24609375-31.779296875-35.392578125-21.63671875-18.79296875-47.923828125-39.8515625-14.451171875-20.716796875-3.5625-111.7734375-1.638671875-16.2265625-3.359375-10.462890625-13.634765625-17.357421875-37.0625-37.349609375-17.96875-18.630859375-40.419921875-30.537109375-7.74609375-13.662109375-2.564453125-18.302734375 3.17578125-45.697265625.537109375-64h-12.80078125z" fill="#356b35"/></svg>
