<svg width="3713" height="2049" version="1.1" viewBox="0 0 3713 2049" xmlns="http://www.w3.org/2000/svg"><polygon transform="translate(.5 -2047.5)" points="0 4096 3712 4096 3712 2048 0 2048" fill="#76d3c1" stroke="#000"/><path d="m2688.5.5v128.001953125l6.400390625 128 4.296875 32 12.46484375 31.998046875 39.322265625 64 34.767578125 38.044921875 75.765625 25.8515625 57.126953125 14.56640625 31.96484375 8.853515625 84.76953125 91.8828125 54.0859375 57.0703125 38.806640625 33.6953125 36.115234375 24.294921875 36.115234375 15.173828125 21.919921875 13.580078125 18.3984375 17.455078125 17.28125 18.974609375 31.998046875 28.6640625 19.201171875 9.9921875 19.19921875 7.431640625 32.001953125 5.56640625 31.998046875.798828125 32-1.853515625 32-1.193359375 86.162109375 2.361328125 25.80078125 2.36328125 16.037109375-3.57421875v-153.998046875h128v-640.001953125h-960zm736.232421875 1252.32421875-32.232421875 1.720703125-31.998046875 4.583984375-32.001953125 6.90625-36.1015625 13.82421875-32.23046875 19.625-30.92578125 26.251953125-29.271484375 36.970703125-23.099609375 38.33203125-23.1171875 38.61328125-22.4921875 29.517578125-31.21875 38.71484375-34.599609375 33.49609375-1.373046875 18.748046875-10.8984375 61.748046875-120.92578125 7.3203125-66.412109375 5.693359375-68.0859375 5.6953125-18.79296875 23.9140625-27.22265625 32-25.087890625 32-20.224609375 32-11.51953125 32.001953125-6.400390625 127.998046875v128h1024l.001953125-128-.001953125-127.998046875.001953125-128.001953125h-128.001953125v-362.720703125l-25.228515625-16.1015625.927734375-5.177734375 3.76171875-5.220703125 20.5390625-5.779296875v-15l-12.55078125-1.486328125-29.287109375 6.341796875-23.8359375.509765625-61.859375-6.36328125z" fill="#ece49b"/><path d="m3667.701171875.5 1.02734375 41.19921875 5.19140625 86.802734375.30859375 67.98828125-.74609375 60.01171875-1.1640625 67.982421875-.265625 60.015625 12.73046875 70.900390625.013671875 44.720703125.61328125 8.783203125-1.080078125 3.595703125-1.9609375 3.0234375-23.658203125 31.27734375-34.470703125 24.4609375-8.24609375 6.71875-59.220703125 50.419921875-10.33984375 12.96875-3.556640625 60.22265625 1.27734375 40.689453125 2.34765625 17.56640625 4.04296875 9.90234375 6.166015625 7.564453125 27.7890625 14.185546875v-150.998046875h128v-640.001953125h-32.001953125zm-83.201171875 1257-27.861328125 11.037109375-6.75 9.62109375-1.345703125 8.314453125-1.6875 56.37109375.724609375 14.853515625 1.353515625 50.8046875-6.5078125 86.625.986328125 42.140625 1.181640625 10.943359375 1.625 46.482421875 6.765625 64.984375 1.890625 6.7421875 25.16015625 30.14453125 7.802734375 8.765625 26.830078125 23.171875 31.55859375 31.998046875 21.677734375 30.1640625 2.126953125 5.037109375 7.341796875 59.775390625-1.66015625 65.0234375-6.828125 87.705078125-1.18359375 40.294921875h44.80078125v-128l-.001953125-127.998046875v-128h-128v-398.001953125z" fill="#356b35"/><path d="m3031.943359375 434.359375-71.666015625 5.87890625-3.85546875 3.923828125-11.791015625 93.755859375 1.525390625 3.38671875 71.150390625 57.970703125 1.1796875 1.009765625.322265625-.134765625-2.779296875 16.076171875 4.763671875 9.05078125 51.580078125 39.3125 15.1171875 11.90234375 43.966796875 25.27734375 3.65234375 1.1015625h64.173828125l3.44921875-1.373046875 62.357421875-59.390625 1.4375-3.42578125-1.876953125-123.1640625-1.443359375-3.44140625-58.951171875-60.037109375-3.552734375-1.69140625-151.171875-6.728515625-.61328125-1.71875-13.01171875-6.765625zm11.70703125 1084.958984375-180.458984375 67.671875-2.845703125 2.345703125-42.81640625 73.40234375-1.029296875 3.6875v34.4921875l1.14453125 3.583984375 21.234375 26.076171875 45.30078125 60.400390625 48.029296875 2.359375 17.900390625 2.361328125 3.65234375-1.109375 69.8125-52.19140625 2.59375-2.763671875 45.326171875-73.501953125 1.00390625-3.669921875v-123.908203125l-1.625-3.13671875-23.658203125-15.775390625z" fill="#666d7c"/></svg>
