<svg width="2048" height="3712" version="1.1" viewBox="0 0 2048 3712" xmlns="http://www.w3.org/2000/svg"><polygon transform="matrix(.9996710066922961 0 0 .9997306760128379 -2110.468441501528 -63.48289792681522)" points="2111.663 3776 4159.337 3776 4159.337 64 2111.663 64" fill="#76d3c1" stroke="#000"/><path d="m810.0059573940607-23.81627948576294-110.2293561952361 14.7440787602579-90.7591999677507 50.06269836236965-112.8534927746309 108.3067885940917 7.474103293102 147.5872325644412 3.5945204186523 6.5197297020928 42.8042754688267 77.6334031822398 96.9563796574862 16.4740819097204 139.8485168421422-47.7449627659683 66.665565005139-93.7599223824748 40.4808212058208-127.498888995969-15.4421846774145-88.68121110510332-3.5945204186521-6.52363490107561zm366.0768152386552 143.8323837423013-160.386681037582 78.8322992700167-92.7194924720039 172.3266681216477-35.8651524009902 171.2019708145476 124.611342834993 26.6842246507327 33.619797440944 25.1358132539798-64.0062837394168 9.3119469749264-72.3160495741664 10.5186534606687-47.1290243701393 19.5123267184822-90.0504487934054 63.0416271823185-48.9858352979712 80.4139048581252-31.1889566363666 77.6705025725779 70.7813982710369 162.8057930011322 39.4030508249981 20.578446040837 50.4736270193254 27.428165056991 70.3948067213947-9.542353714922 153.3928884576735 53.030649589438 95.952803614473-59.954567386269 60.622631438747-8.704688533072 38.161271907961-38.981696248151 39.959508358575-129.5354502655944-32.020714212872-139.6909202208468-74.551642121344-68.4347069778199 64.070715664353-3.4561010999411 55.019006451492 29.4412951327198 49.333377196137-.9548211513397 138.677027297769-83.4189554755317 91.887734895497-187.3597316066451-73.18099935443-188.9237637993317-195.244352430409-103.8782929473873zm425.377615974829 526.9441195700269-105.656642007031 36.3437343351455-87.318925672442 47.3192960768223-58.652576521627 202.3615534997814 20.399537932688 48.6294903356153 25.343223809944 63.3267067080772 71.533104062009 44.626661378056 99.95929785623 164.67638331398 133.067544862794 17.938531528341 61.97179689735 37.985870507489 64.387017841334-6.695463656326 134.615863543939-88.052474068842 76.55293675965-151.871235848777-35.271597698505-257.9833026144311-139.059713882265-84.8814524946597-74.026424308953-45.1870574321134-57.832533840563-17.8877639415601zm-1294.788818918637 12.4849211486016-153.4827026560736 30.0758899674546-73.49534904883593 128.1940144149404-.50178802150657 7.4296410651275-5.45914127677978 81.0231158994709-.50178802150661 7.4315936646199 72.6557815420349 66.2927053356528 119.5309831775602 29.5564985027199-76.0570061858652 87.144515305298-72.9818461318854 158.961124602385 115.575253482726 53.696486016035 52.7931763171846 62.063374837082 72.743643257863 60.70241299151 13.1441126878691 7.423783266653 91.2551305415357 15.675468717699 47.1094995444001 40.928437941169 48.3141812925284 10.028550988304 153.7345729081137-50.531322240326 131.1951140743713-162.270780740462-29.406340046345-200.46167419456-167.3043267971052-144.6544281282241-153.6213289188224-40.2255021242319-25.0054443246489 5.9300446556615 32.176912818788-26.6725090537841 34.9494380738021-82.9522841970641.4998355389322-7.4296410651289-23.7539029947408-83.176833138584-100.695383786611-47.2119031047905zm751.1961930210918 680.7542867138561-60.3141391920648 5.162673055506-124.4824789851124 39.005127442048-84.2535280313306 73.3962622857-63.1393814765755 76.674676831919 21.6862239489245 209.574456021353 37.2221277898891 37.441095249365 47.2364109117073 49.111782410011 83.0566562134959 14.464857032973 154.5077560074045 115.02763604381 130.050959286034-33.399214301976 71.702970045942 11.904999099628 57.151117422254-30.407831881007 91.659294434344-132.202701170975 13.876293653102-169.516877453392-129.623365602337-225.806415594126-160.759605209206-26.385476928537zm711.472935053966 260.882912859296-153.484655138647 30.075889967453-73.495349048834 128.192061815451-.50178802151 7.431593664619-5.960929298285 88.45470956409 72.606969477686 66.249748146839-58.236697733372 39.458130524076-180.444534519827 155.95997918396 30.447013258264 143.039628348751 64.470974592013 59.152048995266 61.475866323563 146.058347162605 148.749884896806 23.450719892822 122.87753830932 34.049429932641 163.02253251242-85.029850056012 80.102550079102-160.376759233716-30.843367220778-206.438581238016-74.946043601283-123.259795499941-74.268532148122-35.138980448893 100.837915014509-83.586879031798 34.949438073804-82.950331597575.501788021506-7.431593664619-23.753902994742-83.176833138586-100.699288751759-47.211903104792zm-1284.083356965638 21.164225888283-110.613995262305 15.730141503462-94.6836899414017 29.970449594916-95.8102723865737 187.638953333928 10.869470489211 51.695071537258 12.9117672615681 66.888248180558 61.8195032565811 57.33613146818 67.0638714502262 180.597879567607 127.2842914787378 42.752165866222 53.6854608534807 49.010247236453 64.490499417753 5.588339744652 69.5806214880547-28.539194167649-4.5961439790913 8.626584553414-.2713950777802 7.441356662076-3.2137863167305 88.597249326971 74.6766010060785 64.008163930605 144.4856629552869 31.001422126425 105.3832944466783-46.108684392098 100.2814574809338-88.51719274782 32.360446180739-83.994972325519.269442595207-7.44135666208-26.321417579494-82.399698540974-102.114838617879-44.064312724503-103.5752955831949-3.758754021124-51.4869654752089 11.760506737257 17.2169913371406-22.327975185217 14.075446875646-260.00229048863-120.5267492902775-109.622840651356-64.1624823453285-58.359293601723-53.4140657757024-28.488426580871zm1508.089730192987 125.341266557871v.0019525994l-24.146351992107 12.354096982673zm-1751.562354682673 800.114741029285-145.4365219688035 127.157184084958-3.78391122832592 8.972194663406-45.03205808571121 106.801334386151 61.58325286513306 112.901255197573 162.2259196222466 104.9541752672 150.2044844144022-7.445261861064 163.6453744535104-61.651376344374 78.522991676772-87.650238573598 3.7819587457518-8.97219466341 6.054648461836-112.936401988416-104.3738609559432-101.255951830311-124.8593081218829-52.669418683513zm1313.649800583049 144.730579508387-108.144104806253 26.305420349385-145.938309990308 86.632934238527-42.855040015751 135.369817546174 33.381594566918 132.991551365535 94.045228139719 30.077842566945 9.63550150247 2.848842658087 18.165897868084-1.392203437435-33.979054234549 30.35511169474-22.23682403478 195.584080664813 80.842540974631 172.027920399447 135.953314107099 15.855107870917 13.868483722807 1.308241659301 191.876319990334-53.095085372659 121.198403295718-91.264500232347 73.893655493921-210.050890297276-10.289583164745-102.136574200978-.134721297602-37.884335333932-100.44741849972-113.76039897383-148.332053625981 1.802249330647 2.686616021764-4.569082810091 6.874691142897-73.724299000271 5.156506477817-26.84043261005-55.339213593622-94.462858199413zm-896.5956178209916 159.999907531859v.0019525994l-35.1095416448702 4.983033902289zm-346.561751911965 244.53379731703-170.7328861969711 97.905291102912-90.71234038597599 167.033170900213 67.73943042081448 118.962124019165 7.1597535986953 11.951861487422 156.4036165867109 123.201217515194 145.2998481886259 43.634740836378 212.9787516496467-64.839971313986 76.1819650705994-68.772506689848 30.4470132582627-22.550571527242 32.1573879930485-148.327267771715-101.7048172773458-134.950008655503-135.0278373670464-74.667404554663zm-171.1624323632412 107.929936892233-9.7819376955176 227.743394289685zm908.8162062513778 390.412505326417-180.3664352168697 21.195467480145-96.4663065314229 141.893452447247-1.2398264344621 8.558243571214-14.7490533636603 101.880783667591 51.4030087245287 54.666927963307-144.6047643922975 141.137796444043-39.0320791359461 156.141570936685-64.9122356537273-65.517523337533-138.7746514264646-29.205030594253-138.7746514264665 29.205030594253-93.7211160324416 102.472421313505-139.2822968956952 193.621718175863 62.83674667761258 132.052351010132 76.4475027006566 42.549095519109 93.7191635498676 127.778110723254 150.1263851114441-11.756601538279 127.422917741487 4.565177611109 138.8137010779451-120.586686796084 40.6584971200507-174.601446529241-27.9224532901385-69.366096935255 9.3270092557865 9.616552495585 11.4747400871365 11.315314053204 210.7841612365221 92.764096641813 175.350507484377 6.857529414121 58.281604832574-39.696347662034 161.523025895621-94.511673186711 65.443310913844-99.04951440493 27.588578769992-34.065050728576-.312397211834-8.013468313081 61.512963492471 68.711976105606 187.272366080947 66.958541762252 148.761599792249-42.843938042321 149.466446001448-100.326514472365 58.047306923699-106.328805309202 1.677182531026-9.880153426956-20.52449681742-114.596111556202-128.432351232225-76.879699778527-137.517252648838-23.362852915705-5.39470935184.499865469823 66.288735868367-81.739719912849 18.015556709887-88.195013831721-.964526391534-7.382778677335-39.592441634671-76.907036171402-107.995716130632-26.553400484806-102.770872762725 13.435837100953-144.610621840023 59.581620883394-46.951348455907 140.11658690999 11.488407465155 87.90602910698.964526391534 7.384731276828 84.23790817074 50.765634179304 14.627999444074.659978628124-72.731928362419 101.548841754041-.833710059078 4.90883512161-.581839807038-14.898334120086-152.916482709624-121.740673095559-78.163734883165-20.166447548133 59.136792199964-41.828586306749 47.822155683896-92.933972797573 1.239826434459-8.558243571209-20.120332924613-98.409061771717-112.396611852326-63.598118037391zm246.346678838549 189.503685848304v.0019525994l-29.050988217886 12.156884434029zm735.033542273888 330.41107555236v.0019525995l-34.008341473158 13.265960945197z" fill="#6ea09e" stroke-width=".999701"/></svg>
