<svg width="3713" height="2049" version="1.1" viewBox="0 0 3713 2049" xmlns="http://www.w3.org/2000/svg"><polygon transform="translate(.5 -2047.5)" points="3712 2048 0 2048 0 4096 3712 4096" fill="#76d3c1" stroke="#000"/><path d="m2688.5.5-2.560546875 64-5.119140625 64.001953125-1.28125 63.998046875 8.9609375 64.001953125 29.439453125 63.998046875 55.041015625 64 67.072265625 64 50.6875 64 30.720703125 64 15.103515625 64.001953125 5.88671875 63.998046875 2.048828125 64-3.58203125 64-4.09765625 64-3.83984375 64.001953125-7.6796875 63.998046875-14.080078125 64-23.041015625 64-35.83984375 64-33.279296875 64-12.80078125 64.001953125-1.279296875 64 5.119140625 63.998046875 6.400390625 64-2.560546875 64-7.0390625 32-14.720703125 32-47.359375 64-60.16015625 64.001953125-30.720703125 63.998046875-10.23828125 64v64l-1.28125 64h1070.080078125v-1280h-128v-511.998046875h128v-256.001953125h-960z" fill="#ece49b"/><path d="m3667.701171875.5-3.072265625 87.361328125-2.048828125 40.640625-7.087890625 13.693359375-30.890625 32.06640625-17.3671875 18.232421875-46.423828125 48.48046875-11.09765625 15.52734375-4.998046875 19.97265625.044921875 37.591796875-1.724609375 70.43359375 4.59765625 86.60546875.203125 12.4765625 1.03515625 28.91796875-6.826171875 94.107421875-.408203125 33.89453125.767578125 17.521484375 3.55078125 38.45703125 3.166015625 61.396484375 2.099609375 10.623046875 11.162109375 17.08203125 32.14453125 46.951171875 38.14453125 41.634765625 16.50390625 22.33203125.396484375 5.1328125 2.091796875 12.53125-.03125 18.5390625 5.6484375 91.796875 9.28515625 61.439453125-1.24609375 66.560546875.36328125 18.2109375 4.576171875 48.98828125-2.583984375 44.9296875-.087890625 15.87109375-2.693359375 86.287109375.052734375 12.66796875 2.486328125 29.046875-.220703125 36.625.4140625 91.373046875-2.486328125 44.134765625-.5078125 17.78125-2.962890625 66.083984375-1.609375 18.099609375.462890625 53.453125 2.12890625 40.447265625 1.751953125 16.001953125-6.216796875 86.734375-.42578125 41.263671875 1.376953125 38.19921875 8.5625 89.80078125h44.798828125v-1280h-128v-511.998046875h128l1.279296875-128-1.279296875-128.001953125z" fill="#356b35"/><path d="m3471.73046875 422.232421875-20.185546875 9.38671875-58.55078125 24.822265625-91.416015625 95.705078125-.021484375.021484375-75.52734375 75.48046875-1.517578125 3.203125-20.7578125 162.8125-.06640625 3.828125 17.40625 103.04296875 1.537109375 3.51953125 67.755859375 34.685546875 3.736328125.279296875.6640625-.287109375 8.126953125-5.19140625 256.958984375-160.134765625 1.986328125-2.8671875 22.6953125-135.845703125-.013671875-3.82421875-6.48828125-122.478515625-1.517578125-3.298828125-101.59375-81.677734375zm112.85546875 367.953125-143.736328125 66.6640625-133.263671875 98.96875-.19921875 2.05078125 37.416015625 59.939453125 4.240234375.3046875 128.685546875 4.283203125 3.54296875-.705078125 88.794921875-38.75390625 1.62109375-3.205078125 10.107421875-69.9453125.033203125-3.4765625 5.078125-115.57421875z" fill="#666d7c"/></svg>
