<svg width="3713" height="2049" version="1.1" viewBox="0 0 3713 2049" xmlns="http://www.w3.org/2000/svg"><polygon transform="translate(.5 -2047.5)" points="3712 2048 0 2048 0 4096 3712 4096" fill="#76d3c1" stroke="#000"/><path d="m2688.5.5v128.001953125l-17.279296875 128-11.392578125 32-22.52734375 31.998046875-82.9453125 64-54.52734375 64-31.232421875 64-6.041015625 27.455078125h-30.0546875l-99.703125 13.962890625-28.224609375 1.54296875-128 13.533203125-15.587890625 3.833984375-17.728515625 10.64453125-19.150390625 24.73828125-7.279296875 32.482421875-.162109375.435546875-10.771484375 67.806640625-3.724609375 59.564453125-.373046875 64 1.185546875 64.76953125 5.3046875 11.6796875 18.677734375 17.708984375.00390625.00390625 9.537109375 10.31640625 32.291015625 29.34375 50.892578125 56.201171875 5.24609375 9.4375 5.490234375 124.78515625 14.58203125 19.505859375 16.189453125 17.751953125 18.701171875 12.80859375 20.306640625 11.0546875 6.513671875 3.5703125 53.9765625-1.90234375 71.806640625 6.939453125v182.02734375l10.240234375 63.998046875 25.6015625 64 45.310546875 64 56.064453125 64 60.416015625 64 36.990234375 64.001953125 14.849609375 63.998046875 6.52734375 64v128h1024v-639.998046875h-128v-128.001953125h-383.998046875v-128h-768.001953125v57.173828125l-63.998046875 1.052734375-62.623046875 1.068359375-46.935546875-52.02734375-25.052734375-124.38671875-.24609375-3.9140625-.998046875-2.267578125-.39453125-1.95703125-.953125-1.10546875-1.591796875-3.61328125-19.669921875-26.728515625-12.8515625-9.185546875-18.55078125-21.494140625-16.77734375-60.333984375 1.265625-136.28125 8.455078125-127.728515625 3.8671875-35.087890625 29.728515625-35.265625 3.380859375-.75 31.98046875-4.162109375 7.228515625-1.134765625h.0078125l-7.236328125 1.134765625 31.982421875.314453125 31.982421875 4.05078125 128 6.2265625 22.017578125.39453125-14.08203125 64.009765625h282.625l93.439453125 127.998046875h384.001953125v-127.998046875h255.998046875v-128.001953125h128v-128h128v-384h-960z" fill="#ece49b"/><path d="m3667.69921875.5 1.626953125 110.177734375.859375 17.82421875-13.849609375 127.8515625-19.92578125 31.251953125-79.154296875 73.89453125-49.85546875 73.671875-62.443359375 61.693359375-69.072265625 67.787109375-44.962890625 17.81640625-18.453125 4.8515625-57.359375-.39453125-36.728515625-2.498046875-14.744140625 4.1015625-7.513671875 3.07421875-117.720703125 107.904296875-6.109375 2.4765625-53.115234375-1.365234375-19.931640625.60546875-54.64453125-.537109375-53.494140625-1.205078125-22.142578125-.962890625-50.080078125-5.63671875-5.80078125-1.705078125-64.30078125-50.931640625-53.458984375-61.724609375-8.37109375-6.041015625-21.798828125-1.34375-28.71875-.35546875-49.689453125 1.171875-26.2109375 1.53125-37.478515625-2.634765625-26.40234375 2.7109375-26.81640625-1.755859375-37.337890625-.7890625-128-3.8671875-26.294921875-4.36328125-27.451171875-.140625-20.708984375 2.52734375-26.892578125 3.720703125-26.7421875 6.17578125-15.873046875 4.775390625-17.41796875 11.962890625-18.326171875 23.51953125-8.4765625 25.716796875-4.951171875 33.298828125-1.9921875 37.287109375-1.12890625 56.953125-.595703125 64.1171875 1.376953125 64.869140625 2.517578125 8.75 22.384765625 33.26953125 35.140625 31.234375 37.583984375 28.0390625 20 24.09375 2.99609375 8.732421875 7.958984375 120.837890625 13.53125 20.0390625 15.404296875 17.708984375 16.380859375 12.470703125 18.36328125 10.748046875 4.57421875 1.029296875 61.4921875-.41796875 19.75.71484375 45.400390625-.521484375 64.119140625 4.166015625 63.916015625.458984375 79.455078125 5.90625 48.5859375-.849609375 19.814453125-3.12109375 108.390625-13.86328125 32.119140625-.380859375 78.740234375.06640625 16.85546875-.13671875 128-2.494140625 22.7890625 9.71875 40.833984375 36.033203125 30.33984375 40.8203125 15.97265625 17.189453125 18.06640625 15.001953125 8.642578125 5.125 119.35546875-.615234375 128 .072265625 93.91015625 92.982421875 9.41796875 8.673828125 8.18359375 8.2734375 85.00390625 79.8515625 4.24609375 8.58984375 12.939453125 138.734375.373046875 128.001953125-1.130859375 127.998046875-.4609375 20.01171875-1.283203125 107.98828125h44.80078125v-639.998046875h-128v-128.001953125h-383.998046875l-15.91796875-4.986328125 15.91796875 4.986328125v-128h-896.001953125v-256h-128v-255.998046875h512v127.998046875h512.001953125v-127.998046875h255.998046875v-128.001953125h128v-128h128v-384z" fill="#356b35"/></svg>
