<svg width="3713" height="2049" version="1.1" viewBox="0 0 3713 2049" xmlns="http://www.w3.org/2000/svg"><polygon transform="translate(.5 -2047.5)" points="3712 2048 0 2048 0 4096 3712 4096" fill="#76d3c1" stroke="#000"/><path d="m2642.419921875.5v64l6.912109375 64.001953125 16.384765625 63.998046875 24.0625 64.001953125 46.08203125 63.998046875 61.439453125 64 62.71875 64 66.560546875 64 64 64 43.521484375 64.001953125 25.59765625 63.998046875 10.2421875 64 2.55859375 64-2.55859375 64-16.640625 64.001953125-28.16015625 63.998046875-49.919921875 64-35.83984375 64-7.6796875 64 5.119140625 64 1.279296875 64.001953125-8.958984375 64-12.80078125 63.998046875-26.87890625 64-52.48046875 64-67.83984375 64-48.640625 64-32 64.001953125-8.9609375 63.998046875 1.28125 64 2.560546875 64 5.119140625 64h1024v-512h-128v-1024h128v-512h-1006.080078125z" fill="#ece49b"/><path d="m3329.18359375 1166.5546875-2.384765625 2.52734375-115.517578125 141.34375-.072265625 3.65625 16.236328125 203.884765625 2.359375 2.392578125 104.177734375 121.140625 3.076171875 2.48046875 4.69140625.771484375 91.271484375-30.2734375 3.259765625-1.875 51.427734375-41.416015625-91.779296875 112.60546875-1.650390625 2.357421875.5234375 4.041015625 1.6640625 9.873046875 53.662109375 68.525390625 4.046875 2.1171875 13.478515625 6.234375 21.375 12.15625 2.712890625.60546875 78.611328125-40.1953125 6.20703125-3.3984375.27734375-.560546875 7.095703125-72.83203125.83984375-8.625 2.482421875-25.462890625-16.73046875-105.240234375-1.640625-2.216796875-60.986328125 31.01171875-6.498046875 2.294921875-8.18359375 3.07421875-2.697265625 1.37890625 6.7421875-5.375 72.130859375-58.525390625 1.240234375-3.57421875 1.8046875-135.8515625 4.044921875-56.58203125-.857421875-3.404296875-100.978515625-113.5078125-14.34765625-16.76953125-3.193359375-1.1015625z" fill="#666d7c"/><path d="m3667.701171875.5-.470703125 38.333984375-2.08984375 89.66796875 3.876953125 61.439453125-2.0625 66.560546875 5.234375 53.478515625-2.970703125 47.46875 1.64453125 18.126953125-1.3046875 8.923828125-9.732421875 11.021484375-46.83984375 36.501953125-18.640625 17.244140625-49.921875 58.26171875-2.3515625 4.970703125-1.68359375 10.033203125-2.62890625 48.53125 8.8125 69.4375-2.294921875 87.498046875-.73828125 40.5.93359375 39.060546875-.126953125 88.939453125-4.884765625 42.603515625.21484375 18.7109375 2.203125 66.685546875 4.486328125 59.6484375-5.08984375 68.3515625 4.44140625 86.271484375-2.3828125 41.728515625.23046875 33.775390625 7.681640625 94.2265625-8.767578125 93.6015625-.23046875 34.396484375 7.294921875 9.6953125 13.08984375 17.28125 34.2421875 41.279296875 12.16796875 16.009765625 29.27734375 35.486328125 6.33984375 8.248046875 1.80859375 9.529296875 10.3515625 76.287109375 3.02734375 42.185546875 2.75390625 40.5234375-3.994140625 64.634765625.349609375 22.76171875 1.46484375 18.06640625 5.578125 43.4296875 1.701171875 66.58203125h44.798828125v-512h-128v-1024h128v-512z" fill="#356b35"/></svg>
