<svg width="3713" height="2049" version="1.1" viewBox="0 0 3713 2049" xmlns="http://www.w3.org/2000/svg"><polygon transform="translate(.5 -2047.5)" points="0 4096 3712 4096 3712 2048 0 2048" fill="#76d3c1" stroke="#000"/><path d="m2071.8984375 72.765625-104.46875 37.591796875-66.287109375 68.130859375 9.28125 105.4375 46.984375 84.46484375 106.203125 102.177734375 154.5703125-13.830078125 2.431640625-4.4453125 98.541015625-108.71875-53.0859375-153.955078125-66.62109375-64.833984375zm862.400390625 53.615234375-135.390625 75.03125-15.275390625 73.384765625-19.8515625 95.353515625 33.51171875 153.779296875 117.501953125 209.25390625 247.4765625 51.146484375 111.748046875-58.099609375 65.46484375-102.4921875 4.353515625-13.52734375-10.658203125-202.802734375-64.22265625-140.798828125-192.923828125-119.810546875-103.96875-12.216796875h-.001953125zm-1575.41015625 22.625-283.2265625 151.935546875-51.876953125 172.208984375 18.236328125 192.666015625 87.041015625 167.490234375 337.802734375 161.63671875 147.271484375-74.259765625 100.291015625-202.75 22.763671875-138.203125-39.138671875-111.650390625 16.462890625-78.013671875-18.7890625-60.181640625-151.84375-140.349609375zm-754.26171875 156.908203125-196.84375 44.2734375-45.986328125 86.203125-59.7578125 112.01171875-14.3984375 204.642578125 70.34765625 304.796875 290.84375 154.619140625 161.0703125-31.75390625 119.427734375-104.234375 10.400390625-15.326171875 60.9453125-257.595703125-28.76953125-199.654296875-57.0234375-57.638671875-140.435546875-162.892578125-125.580078125-53.359375zm3488.310546875 169.39453125-100.466796875 1.04296875-83.83984375 98.30078125-39.603515625 113.70703125-13.50390625 181.193359375 120.98828125 121.744140625 8.16796875 2.84375 97.2421875 33.869140625 96.591796875-61.01953125 83.833984375-149.80859375-15.12890625-132.767578125-63.94921875-141.609375-82.166015625-64.650390625zm-1409.48046875 51.126953125-116.375 11.2265625-75.125 106.322265625-23.0703125 116.619140625 18.416015625 180.328125 156.046875 109.921875 99.732421875 19.73046875 71.37109375-77.642578125 7.087890625-8.060546875 53.66015625-143.701171875-2.111328125-116.87109375-97.587890625-141.068359375-68.357421875-39.76171875zm-576.427734375 234.294921875-316.505859375 84.708984375-153.923828125 289.373046875-7.552734375 235.234375 116.810546875 237.708984375 255.353515625 137.421875 253.681640625-8.919921875 39.541015625-122.61328125 72.29296875-96.712890625 63.755859375-125.099609375 6.400390625-21.435546875-7.390625-137.03515625 43.626953125-81.544921875-1.4140625-73.1171875-123.607421875-205.533203125-192.884765625-105.11328125zm1498.28125 63.169921875-115.908203125 15.306640625-71.345703125 108.89453125-18.9609375 117.35546875 24.736328125 179.57421875 159.80859375 104.373046875 100.36328125 16.216796875 68.6015625-80.099609375 6.80078125-8.3046875 48.580078125-145.498046875-6.212890625-116.724609375-102.48046875-137.5546875-69.703125-37.33203125zm565.8125 282.666015625-231.537109375 98.607421875-64.400390625 211.677734375 25.533203125 156.80859375 108.23828125 142.3046875 172.423828125 31.759765625 136.814453125-31.794921875 54.927734375-67.279296875 62.7890625-179.630859375-22.6875-89.818359375 18.314453125-59.681640625-10.427734375-48.251953125-108.564453125-120.109375zm-2857.6796875 204.455078125-130.494140625 52.947265625-108.533203125 105.748046875-59.384765625 135.341796875 67.34765625 285.380859375 117.61328125 53.333984375 172.896484375-38.423828125 95.45703125-53.99609375 48.86328125-78.705078125 55.658203125-28.27734375 27.47265625-41.017578125 11.005859375-161.52734375-66.14453125-132.71484375zm-809.974609375 25.64453125-32.900390625.01953125-202.587890625 88.75-73.2578125 208.775390625 18.908203125 157.74609375 102.150390625 146.736328125 184.39453125 65.708984375 168.37890625-31.779296875 13.90234375-85.84765625 38.3984375-71.896484375 29.810546875-89.974609375 2.08984375-14.95703125-18.8828125-90.69140625 20.80859375-58.859375-8.384765625-48.650390625-103.41015625-124.572265625zm2232.935546875 22.158203125-240.734375 73.35546875-86.607421875 203.599609375 8.666015625 158.638671875 92.447265625 153.03515625 168.052734375 49.96484375 139.42578125-17.021484375 61.7890625-61.037109375 81.583984375-171.912109375-12.978515625-91.724609375 24.57421875-57.390625-5.22265625-49.08984375-95.13671875-131z" fill="#6ea09e"/></svg>
