<svg width="3713" height="2049" version="1.1" viewBox="0 0 3713 2049" xmlns="http://www.w3.org/2000/svg"><polygon transform="translate(-2431.5,-2047.5)" points="2432 4096 6144 4096 6144 2048 2432 2048" fill="#76d3c1" stroke="#000"/><path d="m.5.498046875v256h128v256h-128v640.001953125h128v127.998046875h128v256h-128v128.001953125h-128v384h1024v-64.001953125l-19.19921875-63.998046875-44.80078125-64.001953125-42.240234375-63.998046875-9.599609375-32.001953125-1.919921875-32 1.919921875-31.998046875 9.599609375-32 42.240234375-64 51.201171875-64.001953125 78.078125-63.998046875 62.72265625-64.001953125 35.837890625-64 15.359375-64 12.802734375-127.998046875v-128.001953125l-12.802734375-127.998046875-44.798828125-128-53.759765625-64.001953125-61.44140625-63.998046875-72.958984375-64-48.640625-64.001953125-8.958984375-32-2.560546875-32 2.560546875-32 8.958984375-32 38.400390625-64 49.921875-64 26.87890625-63.998046875v-64.001953125l-12.80078125-64v-64h-896z" fill="#ece49b"/><path d="m.5.498046875.001953125 128v128h128v256h-128v640.001953125h128v127.998046875h128v256h-128v128.001953125h-128v256l-.001953125 128h44.80078125l3.904296875-55.1875-3.904296875-72.8125 10.75390625-72.478515625-2.01953125-41.36328125-1.572265625-14.12890625 2.94140625-10.853515625 57.365234375-46.544921875 58.35546875-68.642578125 23.1171875-33 30.724609375-34.01171875 41.65625-29.173828125 16.44921875-16.544921875 15.044921875-17.1875 2.794921875-12.931640625 5.17578125-45.83984375-9.97265625-69.30078125 6.025390625-59.80859375-1.603515625-50.38671875-4.966796875-18.142578125-9.44140625-13.876953125-22.955078125-28.994140625-38.314453125-28.990234375-44.865234375-55.837890625-71.31640625-69.19140625-8.44140625-7.837890625-31.646484375-21.546875-24.458984375-29.3828125-.50390625-21.681640625-1.654296875-30.626953125 7.81640625-37.83984375 2.25390625-37.853515625-7.3515625-72.38671875-7.865234375-55.646484375 7.69140625-66.193359375-3.251953125-44.423828125 7.998046875-17.349609375 55.197265625-52.265625 46.669921875-61.96484375 7.40234375-13.771484375 3.951171875-20.291015625-4.3671875-42.609375-1.208984375-65.080078125 8.849609375-59.259765625-.484375-49.1640625-2.361328125-22.16796875-11.873046875-20.849609375-35.375-27.359375-14.775390625-10.576171875-47.9765625-66.642578125-4.90625-13.302734375 4.607421875-54.09765625-7.3125-60.599609375h-12.80078125z" fill="#356b35"/><path d="m724.349609375 517.5859375-53.984375 7.369140625-49.064453125-2.447265625-36.0625 2.55859375-9.826171875 7.240234375-7.91015625-11.650390625-34.521484375-1.662109375-76.640625 10.181640625-52.439453125-1.3828125-10.18359375 4.833984375-64.990234375 40.1796875-50.169921875 54.50390625-5.2265625 16.41015625 1.099609375 55.810546875-.478515625 3.833984375-9.92578125 46.30859375-.486328125 3.791015625 4.029296875 100.87109375 7.583984375 42.46484375 2.7265625 7.681640625 72.23046875 78.166015625 33.81640625 35.29296875 3.041015625 2.525390625 42.521484375 26.81640625 12.318359375 21.71875 2.2734375 3.5234375 57.56640625 55.068359375 9.7578125 5.279296875 105.154296875 11.736328125 4.208984375-.48046875 13.98046875-4.111328125 5.890625-6.001953125 1.501953125 5.705078125 9.853515625 16.537109375 88.19140625 64.078125 32.080078125 53.33203125 4.55078125 2.146484375-1.177734375 4.2421875-3.064453125 42.46875 8.849609375 83.60546875 7.0625 14.4921875 2.01953125 4.681640625 70.671875 62.94921875 35.3203125 38.095703125 49.05859375-2.63671875 5.37890625-1.37109375 2.7890625.88671875 49.6640625 22.69140625 3.822265625.333984375 71.6171875-3.037109375 35.59375 1.900390625 36.16796875-4.9375 3.259765625-1.4453125.009765625-.0078125 37.7578125-36.453125.984375-.951171875 1.75390625-1.693359375.00390625-.001953125 11.01171875-4.671875 2.96484375-2.25v-.001953125l.08203125-.09375.01171875-.013671875 70.822265625-81.359375 1.263671875-2.966796875 1.263671875-2.970703125 11.521484375-147.7109375-4.224609375-13.568359375.376953125-89.54296875 21.638671875 1.919921875 63.95703125 6.24609375 3.509765625.1796875 2.99609375-.16796875 88.3359375-68.29296875-.125-156.36328125-.361328125-1.87890625-112.27734375-92.9296875-5.453125-1.341796875-138.76953125-192.623046875-3.22265625-1.837890625-110.943359375-7.37890625-3.181640625 1.001953125-2.41796875 1.41796875-67.236328125 59.25390625h.513671875l-1.1015625 2.05078125-.814453125-6.2734375-58.880859375-65.279296875-10.140625-1.328125-31.19140625-22.779296875-91.787109375-15.31640625-38.900390625-43.529296875-25.09765625-27.251953125zm-247.28125 50.1796875 4.29296875 24.3125h-.001953125z" fill="#666d7c"/></svg>
