<svg width="3713" height="2049" version="1.1" viewBox="0 0 3713 2049" xmlns="http://www.w3.org/2000/svg"><polygon transform="translate(-2431.5,-2047.5)" points="2432 4096 6144 4096 6144 2048 2432 2048" fill="#76d3c1" stroke="#000"/><path d="m.5.498046875v384h128v128h128v128.001953125h1012.86328125l-11.1953125-72.224609375 21.947265625 2.845703125-22.130859375-4.029296875-8.4609375-54.59375-16-64-18.55859375-64-21.50390625-64-26.240234375-64-43.13671875-63.998046875-58.623046875-64.001953125-35.841796875-64-5.119140625-64h-896zm1279.615234375 570.623046875 112.76953125 2.05078125 89.11328125 113.689453125 22.166015625 69.609375 12.314453125 272.689453125-.767578125 2.724609375.80859375 56.744140625-14.462890625 57.21484375-72.06640625 108.927734375-36.46484375 84.48046875-54.017578125 3.328125-45.796875 2.5390625-13.2109375-1.00390625-66.41796875 3.169921875-30.791015625 1.48828125-30.7890625-3.6328125-9.244140625-3.6015625-6.1640625-5.3046875-35.876953125-38.912109375-12.716796875-18.294921875-24.3203125-26.095703125 23.6796875-36.431640625 39.041015625-64h-261.953125l-45.630859375-128.001953125h-434.81640625v128.001953125h-128v383.998046875h-128v128.001953125h-128v384h1024l5.119140625-64.001953125 2.560546875-63.998046875-1.279296875-64.001953125-13.18359375-63.998046875-25.728515625-64.001953125-34.3046875-63.998046875-27.134765625-64-11.009765625-64.001953125 6.40234375-63.998046875 25.85546875-64.001953125 46.462890625-64 48-64 15.619140625-24.029296875 29.552734375 31.462890625 23.69140625 35.556640625 28.134765625 25.6953125 9.244140625 3.763671875 58.37890625 6.892578125 69.619140625-.236328125 71.80859375-2.943359375 54.013671875-3.328125 3.7734375-2.30078125 2.755859375-.259765625 19.6484375-12.958984375 19.263671875-19.681640625 13.697265625-18.943359375 19.455078125-17.791015625 44.671875-46.720703125 59.8671875-51.046875 18.341796875-23.705078125 3.966796875-9.345703125 2.302734375-29.6953125 2.43359375-26.623046875-7.935546875-57.345703125 1.408203125-11.646484375 3.447265625-72.775390625-2.55078125-55.9921875-.392578125-40.91796875 1.158203125-26.5390625-5.2265625-49.421875-1.044921875-13.681640625-2.873046875-8.55859375-15.046875-17.810546875-20.9921875-19.19921875-17.857421875-13.005859375-16.701171875-15.154296875-8.44921875-5.349609375-48.51171875-50.970703125-34.943359375-30.9765625-2.55859375-2.8671875-16.515625-21.580078125-6.525390625-7.423828125-9.310546875-5.146484375-19.3515625-3.794921875-19.3515625 1.326171875-18.62109375.974609375z" fill="#ece49b"/><path d="m.5.498046875v384h128v128h128v128.001953125h1152v128h128v255.998046875l53.33203125-49.3671875v.001953125l-53.33203125 49.365234375v128.001953125l56.859375-52.77734375v.001953125l-56.859375 52.775390625h-128v127.998046875h-255.998046875v-127.998046875h-256.00390625v-128.001953125h-127.99609375l20.658203125 40.658203125-.005859375-.0078125-20.65234375-40.650390625h-384.001953125v128.001953125h-128v383.998046875h-128v128.001953125h-128v128l69.96875-41.16015625-.00390625.00390625-69.96484375 41.15625v256h44.80078125l.10546875-59.5390625 6.33203125-68.4609375 1.78125-34.04296875 1.216796875-20.599609375-3.591796875-64.9921875 1.376953125-8.349609375 5.529296875-7.794921875 62.220703125-56.212890625 27.80078125-31.8984375 33.416015625-32.029296875 35.6796875-22.427734375 15.81640625-10.203125 20.173828125-20.65234375 11.212890625-12.115234375 45.154296875-62.625 4.140625-12.921875.99609375-15.912109375 1.888671875-39.150390625-.03125-21.228515625-4.4296875-40.21484375-10.38671875-86.9609375 4.705078125-27.31640625 1.58203125-13.009765625 3.3828125-7.390625 44.19921875-44.822265625 30.31640625-19.49609375 27.69921875-29.78125 56.482421875-65.142578125 9.353515625-9.216796875 24.119140625-23.271484375 8.958984375-4.341796875 8.08203125.6015625 11.8515625-.2421875 39.294921875-1.09375 68.76953125 6.734375 63.99609375 1.1796875 63.98046875-4.50390625 13.546875 7.431640625 36.6640625 54.806640625 7.044921875 7.939453125 40.400390625 41.958984375 20.3828125 15.96484375 5.986328125 3.064453125 4.03125 1.109375 40.80859375 5.01171875 27.25390625 1.810546875 49.82421875-3.08984375 9.873046875 1.90234375 32.173828125 29.36328125 31.962890625 34.416015625 26.62109375 38.591796875 28.1796875 24.048828125 9.271484375 3.765625 17.908203125 1.767578125 18.361328125 2.244140625 52.63671875-.359375 39.0703125-2.103515625 38.134765625 2.78515625 27.42578125-.3984375 18.71875.3984375 23.48046875-.630859375 17.830078125-1.615234375 6.65625-1.986328125 8.009765625-5.44921875 10.21875-7.583984375 16.802734375-19.748046875 13.677734375-17.900390625 18.830078125-17.826171875 45.068359375-45.119140625 59.419921875-50.37109375 18.064453125-23.4375 4.755859375-9.17578125 2.59375-30.5234375-.705078125-30.78515625-2.353515625-22.859375-2.169921875-32.701171875 1.53125-10.080078125-1.294921875-61.3359375-.193359375-65.85546875 1.6484375-67.783203125-3.951171875-60.216796875-2.662109375-7.68359375-13.1796875-17.8515625-20.064453125-19.650390625-35.6484375-27.390625-8.427734375-5.619140625-48.40234375-53.517578125-33.984375-31.0390625-19.759765625-26.353515625-7.697265625-5.7109375-6.712890625-3.173828125-26.544921875-4.939453125-26.544921875.177734375-72.8046875 3.966796875-65.232421875-10.599609375-63.0234375-9.23828125-63.48828125 5.24609375-64 16.51171875-20.8671875-.126953125-66.125 1.7890625-41.009765625 4.609375-11.7734375.12890625-43.85546875 1.302734375-23.677734375.607421875-48.689453125-.7578125-55.5859375-6.123046875-7.9609375-2.544921875-34.541015625-.587890625-29.78515625.6796875-64.126953125 9.087890625-64 3.7109375-86.5078125-9.75390625-36.025390625 4.04296875-5.46875-.560546875-6.19140625-2.466796875-47.59375-41.818359375-54.41796875-61.314453125-54.892578125-50.619140625-75.50390625-56.220703125-83.228515625-94.5703125-4.91015625-13.630859375-7.06640625-63.728515625-13.955078125-40.91015625-2.23828125-23.361328125 10.28515625-87.9375.513671875-40.0625h-12.80078125z" fill="#356b35"/></svg>
