<svg width="3713" height="2049" version="1.1" viewBox="0 0 3713 2049" xmlns="http://www.w3.org/2000/svg"><polygon transform="translate(-2431.5,-2047.5)" points="2432 4096 6144 4096 6144 2048 2432 2048" fill="#76d3c1" stroke="#000"/><path d="m.5.498046875v384l128 128v256.001953125l128 128v511.998046875l-128 128v256.001953125l-128 128v128h1070.080078125l-12.03125-64.001953125-28.80078125-63.998046875-42.240234375-64.001953125-49.6640625-63.998046875-21.630859375-32.001953125-13.951171875-32-20.48046875-63.998046875-14.59375-32.001953125-22.26953125-31.998046875-56.06640625-64.001953125-55.55078125-63.998046875-44.544921875-64.001953125-29.056640625-64-11.390625-64-2.177734375-63.998046875 8.193359375-64 20.736328125-64 31.998046875-64.001953125 42.2421875-64 53.7578125-63.998046875 57.986328125-64.001953125 38.52734375-63.998046875 12.416015625-64.001953125-2.6875-63.998046875 6.400390625-64 21.759765625-64.001953125 31.744140625-64 25.21484375-64 14.462890625-64 7.80859375-64 5.12109375-63.998046875 3.83984375-64.001953125 1.279296875-64-2.431640625-64h-896z" fill="#ece49b"/><path d="m.5.498046875v512h128v384.001953125h128v511.998046875h-128v384.001953125h-128l-1.279296875 128 1.279296875 128h44.80078125l3.072265625-87.423828125 2.046875-40.576171875 6.783203125-13.6953125 48.76953125-50.43359375 46.181640625-48.228515625 11.091796875-15.689453125 3.431640625-14.58203125.861328125-5.33984375.76953125-37.630859375 11.693359375-70.400390625 1.5859375-63.615234375.658203125-24.83203125-4.310546875-32.486328125 1.1171875-8.603515625 66.326171875-63.15625 42.69921875-51.158203125 9.873046875-12.150390625 3.1953125-14.427734375 4.810546875-41.763671875-8.0625-71.80859375.0703125-63.87109375 4.080078125-64.126953125-2.17578125-36.48046875-4.86328125-91.521484375-.078125-61.439453125-.41015625-54.787109375-2.052734375-11.771484375-5.458984375-8.7890625-10.921875-15.576171875-37.00390625-42.833984375-46.564453125-44.41796875-19.21484375-16.3828125-2.0234375-6.00390625 5.7109375-80.140625-3.6875-41.85546875.3828125-36.607421875-.59765625-77.212890625-.21875-14.181640625-7.724609375-13.72265625-42.716796875-47.97265625-56.8828125-49.728515625-9.35546875-16.576171875.6328125-17.791015625-3.83984375-53.759765625-2.560546875-40.44921875-1.279296875-16 5.625-86.80078125 1.16015625-41.19921875-1.41015625-38.271484375-9.21484375-89.728515625h-12.80078125z" fill="#356b35"/><path d="m764.5546875 1216.85546875-50.423828125 61.578125-.1796875 15.26953125-2.1875 118.318359375-.001953125.015625-.103515625 1.2578125.078125.154296875 2.013671875 3.1875 161.912109375 122.890625 8.341796875 1.859375 7.583984375-.6796875-1.7578125 3.599609375-.49609375 3.3203125 17.8359375 74.23828125 2.072265625 2.1640625 60.296875 38.46484375 2.53125.9140625 57.076171875 4.27734375 3.51953125-.283203125 54.474609375-30.66796875 2.345703125-2.439453125 11.48046875-61.22265625-1.552734375-34.494140625-.5859375-5.78125-.943359375-3.482421875-1.8046875-5.107421875-38.1953125-59.021484375-5.443359375-2.123046875-15.935546875-5.560546875-.654296875-.732421875-.263671875-1.52734375-2.3828125-106.431640625-68.482421875-75.56640625-78.5234375-54.48046875-1.802734375-.748046875z" fill="#666d7c"/></svg>
