<svg width="3713" height="2049" version="1.1" viewBox="0 0 3713 2049" xmlns="http://www.w3.org/2000/svg"><polygon transform="translate(-2431.5,-2047.5)" points="2432 4096 6144 4096 6144 2048 2432 2048" fill="#76d3c1" stroke="#000"/><path d="m.498046875.498046875v512h128.001953125v282l20.0390625 1.802734375 21.798828125-.591796875 20.2421875-5.49609375 65.919921875-16.291015625 33.279296875-14.87890625 30.720703125-17.4375 33.279296875-27.677734375 30.720703125-30.23828125 35.19921875-25.896484375 35.201171875-20.775390625 71.6796875-26.09765625 58.150390625-30.94921875 81.716796875-36.892578125 79.908203125-30.580078125 99.1484375-41.421875 34.744140625-31.62109375 12.798828125-19.21875 21.609375-35.73828125 67.482421875-64 26.544921875-31.998046875 9.416015625-32.001953125 7.80859375-63.998046875-1.408203125-64.001953125v-128h-896zm148.92578125 1252.21875-20.923828125 1.783203125v15l20.5390625 5.77734375 3.759765625 5.220703125.71875 13.087890625-25.017578125 50.912109375v64h-128v128l-.001953125 128.001953125v384h1024.001953125v-128l-6.400390625-128-10.240234375-32.001953125-16.640625-32-24.318359375-31.998046875-37.12109375-32-29.439453125-26.474609375-87.734375-5.6953125-77.931640625-5.693359375-94.173828125-40.216796875-60.015625-20.48046875-49.7734375-33.279296875-31.646484375-28.435546875-26.525390625-33.556640625-34.560546875-46.962890625-53.478515625-52.8671875-64-47.3515625-64.466796875-38.9140625-61.859375-24.70703125-23.8359375-.51171875z" fill="#ece49b"/><path d="m.5.498046875v512h128v279l26.63671875-15.337890625 5.3984375-6.794921875 6.201171875-30.8203125 3.830078125-49.123046875-6.173828125-48.822265625-2.39453125-56.451171875 2.70703125-25.654296875-.93359375-12.796875-2.943359375-24.943359375-2.2734375-8.255859375-9.751953125-15.369140625-25.431640625-30.1875-33.84375-27.8984375-21.6640625-20.736328125-5.490234375-6.8359375-19.888671875-26.97265625-3.712890625-18.595703125.736328125-49.251953125-1.158203125-36.109375 1.771484375-24.04296875 6.80859375-39.908203125.849609375-16.298828125.30859375-65.693359375-3.12109375-66.986328125.333984375-67.11328125h-12.80078125zm128 1257.001953125v150.998046875h-128v640.001953125h44.80078125l.59765625-12.45703125-.306640625-28.3125-4.408203125-43.6796875-1.48828125-43.55078125 3.939453125-47.25390625.951171875-17.76953125-.6875-62.9765625-4.095703125-62.9765625-2.3359375-65.0234375 7.26171875-48.201171875-2.701171875-20.326171875 1.107421875-39.810546875.408203125-9.736328125 3.337890625-9.927734375 27.73046875-39.259765625 27.826171875-23.794921875 28.923828125-29.98828125 23.859375-26.751953125 3.470703125-8.205078125 6.814453125-53.583984375.66015625-13.80078125-2.671875-5.82421875-1.404296875-55.4296875-8.8046875-11.021484375z" fill="#356b35"/><path d="m642.107421875 386.146484375-122.0625 7.65234375-3.015625 2.166015625-63.44921875 95.6953125-1.095703125 4.630859375 18.232421875 88.015625 8.595703125 5.224609375 51.796875 34.77734375 3.34765625.583984375 28.814453125-13.23046875 23.419921875-8.435546875 35.76953125-12.63671875 3.2578125-1.806640625 37.9375-33.9609375 37.935546875-33.9609375 3.078125-9.22265625-17.576171875-81.126953125-1.982421875-3.380859375-39.40625-40.083984375zm-67.1015625 1170.068359375-3.5390625 1.064453125-40.447265625 32.080078125-1.85546875 3.162109375-8.0625 37.232421875.83984375 3.708984375 37.904296875 63.224609375 2.59765625 2.783203125 21.34375 15.796875 58.234375 38.63671875 7.736328125 5.44921875.517578125.029296875 2.39453125 1.587890625 3.494140625 1.576171875 53.88671875 3.275390625 3.498046875-.79296875 13.46875-6.44140625 4.677734375-7.6171875-.046875.375-8.203125 45.548828125.765625 3.369140625 47.357421875 48.8515625 3.396484375 1.02734375 41.00390625-3.42578125 41.00390625-9.826171875 2.427734375-2.185546875.9375-1.69140625 14.703125-63.517578125-21.6875-47.818359375-2.947265625-3.28125-49.162109375-42.462890625-22.140625-3.703125-.587890625.69921875-1.111328125-3.65625-6.5546875-25.02734375-102.658203125-85.634765625-3.31640625-1.349609375z" fill="#666d7c"/></svg>
