<svg width="3713" height="2049" version="1.1" viewBox="0 0 3713 2049" xmlns="http://www.w3.org/2000/svg"><polygon transform="translate(.5 -2047.5)" points="3712 2048 0 2048 0 4096 3712 4096" fill="#76d3c1" stroke="#000"/><path d="m2688.5.5v128.001953125l-5.509765625 35.552734375-122.490234375 9.373046875-111.67578125 132.89453125-16.32421875 13.79296875-14.591796875 2.689453125-71.80859375-2.3046875-33.279296875 2.81640625-8.3203125.255859375-1.78515625 1.78515625-126.0859375 100.7421875-26.240234375 44.033203125-13.3125 12.287109375-27.646484375 24.576171875-3.841796875 9.0859375.255859375 124.802734375-3.072265625 60.798828125-.638671875 66.81640625-3.583984375 34.177734375 4.478515625 94.58984375 1.408203125 11.6484375-6.015625 57.34375 3.45703125 56.3203125 9.087890625 9.34375 72.447265625 74.75390625 49.53515625 44.92578125 10.638671875 14.279296875 17.650390625 24.25 18.6875 12.80078125 19.19921875 10.111328125 7.552734375 4.607421875 54.015625 5.759765625 71.80859375 6.912109375 73.47265625 5.408203125 138.47265625 16 9.494140625 28.767578125 27.521484375 64.001953125 32.3828125 64 37.376953125 63.998046875 42.240234375 64 27.390625 64 4.865234375 64-9.984375 64-29.568359375 64.001953125-55.552734375 63.998046875-30.591796875 64-16.638671875 64 5.119140625 64h1024v-384h-128v-255.998046875h-128v-256.001953125h-128v-128h-462.9765625l38.24609375 95.61328125-4.58203125 6.01953125-25.52734375 26.3671875h-261.9609375l19.85546875 60.166015625-33.806640625-1.669921875-37.248046875-2.814453125-36.86328125 6.142578125-91.13671875-7.16796875-63.998046875 7.423828125-35.70703125-3.78125-7.19140625-4.44140625-58.3828125-55.33203125-94.755859375-119.1015625-3.583984375-9.34375 2.90625-57.47265625-9.943359375-60.3515625 1.216796875-136.255859375 3.83984375-127.744140625-15.744140625-136.318359375 10.171875-31.283203125 2.5-1.357421875 24.447265625-25.857421875 55.16796875-61.951171875 33.15234375-31.23046875 12.890625-13.64453125 7.4609375-7.603515625 2.541015625-2.541015625 5.01171875-3.091796875 6.26953125-1.9296875h.001953125l.384765625.0078125 18.130859375.244140625 63.298828125.94921875 28.650390625.470703125 11.263671875.12890625 16.12890625-16.255859375 47.87109375-48.51171875 11.44921875-15.6640625 15.6875-13.392578125 32.126953125-32 4.736328125-2.17578125 8.064453125-2.6875 55.935546875-4.865234375 54.419921875.109375-10.259765625 66.197265625h209.65625l2.18359375 2.173828125 19.19921875 22.78515625 15.98828125 18.921875-14.32421875 20.1171875-65.408203125 64h236.544921875v128h512v-128h128v-384h-960zm-575.513671875 767 .154296875 1z" fill="#ece49b"/><path d="m3667.701171875.5-.548828125 51.583984375.248046875 76.41796875-4.0625 31.615234375-4.15625 31.23046875-3.939453125 58.12109375-1.20703125 7.033203125-10.865234375 15.998046875-56.505859375 57.279296875-7.91015625 6.990234375-21.25 24.423828125-28.017578125 17.2578125-8.6328125 6.875-13.92578125 13.005859375-39.947265625 41.11328125-13.314453125 7.46484375-9.734375 3.775390625-46.322265625.51953125-51.404296875-2.30859375-17.703125-.646484375-85.822265625-1.669921875-35.138671875 4.755859375-7.125-1.537109375-6.939453125-4.578125-56.57421875-55.078125-22.25-21.35546875-22.939453125-21.919921875-12.16796875-10.94140625-6.984375-3.302734375-11.712890625-4.1875-29.912109375-5.119140625-78.716796875 1.408203125-7.6328125-3.166015625-7.859375-6.11328125-24.78515625-29.53515625-12.11328125-12.8671875-13.970703125-15.8984375-5.322265625-5.326171875-41.7265625-41.611328125-17.361328125-16.298828125-4.953125-1.955078125-11.5625-2.890625-51.134765625 1.64453125-48.40234375-4.291015625-16.923828125.35546875-64.046875 1.017578125-58.0078125 3.97265625-6.0078125 1.67578125-3.416015625 1.5546875-33.919921875 35.8671875-26.794921875 23.78125-47.859375 51.005859375-15.990234375 14.2578125-12.265625 2.451171875-72.255859375-2.236328125-37.306640625 2.5703125-6.27734375 2.2421875-4.25390625 2.232421875-23.7265625 25.1953125-33.619140625 30.9765625-54.740234375 61.837890625-24.3515625 25.34375-13.484375 7.15234375-13.45703125 12.94140625-20.302734375 21.50390625-3.46875 7.205078125-2.94921875 121.8203125-1.361328125 59.51953125.3359375 21.560546875 1.052734375 46.296875-3.908203125 29.900390625 4.60546875 98.890625 1.009765625 8.263671875-4.490234375 36.822265625-1.443359375 18.85546875 6.30859375 61.337890625 1.93359375 5.2421875 2.533203125 3.912109375 24.45703125 25.341796875 47.201171875 48.1171875 49.298828125 43.78125 13.904296875 19.583984375 15.076171875 18.126953125 15.92578125 12.740234375 10.146484375 5.80078125 8.421875 4.04296875 5.1640625 1.11328125 60.73828125 6.6171875 65.63671875-4.8046875 33.76171875 2.78515625 53.767578125 3.634765625 40.455078125-3.568359375 39.505859375 2.107421875 88.51171875 4.443359375 63.11328125 4.45703125 54.0703125-6.185546875 10.82421875-4.40625 16.3515625-14.169921875 65.142578125-66.015625 13.966796875-14.728515625 24.603515625-32.490234375 7.947265625-9.037109375 38.484375-.3125 89.478515625 3.599609375 65.09375-1.888671875 54.87109375-3.5859375 8.037109375-.099609375 8.890625 4.076171875 33.044921875 34.27734375 44.412109375 50.962890625 12.31640625 13.587890625 57.5234375 49.412109375 44.908203125 43.455078125 3.32421875 7.24609375 1.734375 8.912109375-2.041015625 47.302734375 3.353515625 64.138671875 1.75 7.0078125 5.8203125 8.1796875 45.404296875 43.333984375 52.44140625 61.181640625 14.287109375 16.68359375 2.845703125 9.48828125 6.646484375 78.103515625 5.658203125 31.455078125 5.080078125 9.068359375 10.693359375 10.607421875 58.080078125 68.873046875 41.40625 38.486328125 4.009765625 9.919921875 3.048828125 34.076171875-3.83984375 93.921875 6.181640625 63.037109375.21875 64.962890625h44.798828125v-255.998046875l-23.80859375 20.4921875v-.001953125l23.80859375-20.490234375v-128.001953125h-128v-255.998046875h-128v-256.001953125h-128v-128h-512v128l64.138671875-20.453125-.001953125.001953125-64.13671875 20.451171875h-512v-128h-128v-512h128v-128h256v-127.998046875h256v127.998046875h256v128h512v-128h128v-384z" fill="#356b35"/></svg>
