<svg width="3713" height="2049" version="1.1" viewBox="0 0 3713 2049" xmlns="http://www.w3.org/2000/svg"><polygon transform="translate(.5 -2047.5)" points="3712 2048 0 2048 0 4096 3712 4096" fill="#76d3c1" stroke="#000"/><path d="m2688.5.5-11.51953125 61.439453125-29.44140625 66.5625-33.279296875 55.037109375-49.91796875 72.962890625-24.322265625 63.998046875-8.958984375 64-8.9609375 128-20.478515625 128.001953125-21.76171875 60.158203125-33.279296875 67.83984375-66.560546875 128-42.240234375 64.001953125-40.958984375 63.998046875-38.400390625 128-8.958984375 128 8.958984375 128.001953125 33.279296875 127.998046875 48.640625 71.6796875 53.759765625 56.3203125 162.560546875 128.001953125 104.958984375 127.998046875 21.76171875 55.0390625 5.119140625 72.9609375h1024v-255.998046875h-128v-256.001953125h-128v-127.998046875h-128v-256.001953125h128v-511.998046875h128v-256.001953125h128v-384h-960z" fill="#ece49b"/><path d="m3667.701171875.5v12.83203125l-1.00390625 34.541015625-2.59375 57.5234375-1.30078125 44.095703125 1.677734375 50.806640625 4.6171875 56.123046875-13.6875 18.724609375-34.83984375 26.888671875-50.828125 42.810546875-15.9140625 17.994140625-14.392578125 21.66015625-3.5703125 48.30078125-.43359375 15.294921875.44921875 16.140625 7.05078125 48.162109375-17.3359375 21.63671875-27.2734375 15.943359375-17.765625 17.5-32.904296875 32.767578125-16.412109375 16.83203125-18.576171875 23.392578125-7.947265625 67.015625 15.55078125 61.08203125-1.21875 60.837890625-4.970703125 47.857421875-1.02734375 18.318359375-6.37890625 91.72265625-.091796875 13.140625 4.904296875 24.99609375-11.337890625 21.40625-38.521484375 29.4921875-39.912109375 25.927734375-12.572265625 12.74609375-27.60546875 37.359375-1.8203125 18.5-3.6796875 48.650390625 13.58203125 60.9765625 3.111328125 59.576171875-2.041015625 50.40625-1.40625 18.01953125 5.400390625 19.712890625 5.35546875 10.927734375 57.419921875 58.111328125 10.87109375 9.546875 43.158203125 29.244140625 24.818359375 18.953125 26.224609375 12.361328125 22.798828125 16.908203125 44.14453125 51.232421875 9.13671875 29.013671875-4.64453125 67.150390625 9.037109375 60.884765625 4.087890625 5.787109375 15.783203125 20.22265625 31.05859375 30.748046875 61.275390625 55.486328125 7.185546875 15.728515625 5.216796875 78.517578125.091796875 49.4609375h44.798828125v-255.998046875h-128v-256.001953125h-128v-127.998046875h-128v-256.001953125h128v-511.998046875h128v-256.001953125h128v-384z" fill="#356b35"/></svg>
