<svg width="2048" height="3712" version="1.1" viewBox="0 0 2048 3712" xmlns="http://www.w3.org/2000/svg"><polygon transform="matrix(1.998048780157433,0,0,1.998922994258901,-5114.00585281295,-3069.346257684543)" points="2560 3392 3584 3392 3584 1536 2560 1536" fill="#76d3c1" stroke="#000"/><path d="m1057.849760236344-27.6805083351528-60.2848758440705 5.16128193848261-124.421458864352 38.99461724778027-84.2107286276023 73.37843724189268-44.7570715338976 54.36914695560474-13.9824385130313-71.80897026816345-96.2302403831522-55.66141951357597-102.3804840606678-15.81179413831669-155.4185309014733 16.7878308135215-84.1795091165492 121.3838250751628-1.1356097145664 7.3593165310435-13.5180482861122 87.5934353795747 66.6692658544863 72.2618512854585 139.8165802525483 47.6344938966922 109.986337441046-33.4858662529243 109.8692642745969-76.1933270131832 25.2409746866551-47.9468256327576 18.5873163934039 179.6883519051934 37.0731693758855 37.2963134329233 47.3404860735643 49.235194044028 83.0165823298107 14.4609593798336 108.6790204156868 80.9212486678748-72.0234120001408 15.1598016392795-93.6741429156573 102.4448094294902-139.2156046647708 193.5714975733058 62.8097538005128 132.0148165414929 76.4097533031396 42.539582452124 93.6741429156574 127.743680050797 150.052677439175-11.755385716167 127.35999534225 4.563947493257 138.747311998971-120.552241827887 9.951219148264-42.734789787165 17.693657889502 44.226173826876 71.496582751115 44.61268435026 99.91414268745 164.633962226836 132.999019526267 17.935649943562 61.943412368781 37.971730812166 64.355119597656-6.691707445204 134.548287762291-88.026795663366 76.515119152946-151.83226519485-35.254632857027-257.9118352028025-138.989263209633-84.8605326890011-73.990241196504-45.1748814751766-57.80682715421-17.8809918897508-129.947312320799-10.6466080531334-105.603898576928 36.3319891978215-87.278045588598 47.3065455738233-23.242925979237 80.2145981150269-54.575607760185-135.598823212845-101.475118240121-102.4448094294897-47.266339734811-9.9477657936872 17.615609111868-4.5249060262488 71.668290061908 11.8959349973951 57.123900349916-30.3976862125763 91.613655186135-132.1631741161237 8.561950906388-104.6116108484444 53.182437079427 122.3520534569656 39.480974165877 20.6217028737258 50.353168890215 27.368068372741 70.357070597667-9.5378303901009 153.319018783133 53.0183121971211 95.906337955975-59.9403642976734 60.593168515723-8.7023429961256 38.142437629462-38.9711923675748 39.937559515033-129.5005460661659-31.999998829712-139.6552316349954-161.533652629054-148.3068207240108-135.773653571136 19.75498230614438-72.280972966331 10.51386706530512-47.106339740664 19.50511691729199-90.005850366886 63.02464019132082-48.959998209458 80.3941888632644-15.98438965933 39.8144880549519-121.8809711523839-212.3621556443475-160.679018513966-26.37641511073321zm-720.4799736509492 765.5680307102937-110.5638983955341 15.7259029108991-94.6380453194303 29.9604217820846-95.75804527847029 187.5903448276513 10.8526825299301 51.6245318249291 12.91317025945306 66.924882745439 61.79121725239632 57.320681861424 67.0321926704818 180.547264179374 127.2195075425107 42.742598080566 53.6585346229914 48.997041095278 64.4604854474599 5.590738075573 148.7453604138136-61.025717080501 103.8048742524783-134.642307271145 14.068292168428-259.930279047126-120.4682882772179-109.593302038689-64.1287781425178-58.3435682970388-53.3892663401561-28.4807501824745zm975.184354579924 452.7599887472761-108.093654583435 26.294428030016-145.865360519141 86.613494557668-42.833169165233 135.329437090489 33.365852438297 132.95571589639 93.998045342836 30.069737889708 9.631219159967 2.850027091598 18.154145677538-1.389876225492-33.959023148311 30.343028158765-22.228291870004 195.531379217117 80.807801922784 171.981566317777 135.886824298706 15.850835605325 13.861462907699 1.307889144775 191.781456400894-53.080778544336 121.139507764865-91.23990839814 73.857558274526-209.996242743651-10.282926453206-102.081723786314-.136585360858-37.901456171551-100.398045108778-113.727793394857-148.261457992488 1.803715775779 2.684877950591-4.567851639958 6.872194870625-73.714193858163 5.155121762689-26.825391981328-55.313168708821-94.43740454611zm152.714140756475 180.441852218451-29.689755011761 49.067315735893zm-828.6204575009655 15.792273404813-170.6497498566394 97.880861936233-78.2126800664722 144.043492526716-145.6195068695948-20.285946257456-145.3658483422862 127.122920725367-3.78146327634026 8.967824971781-45.01073006120613 106.774508120698 61.55707091949589 112.872785267378 162.1424330945945 104.92394258451 150.1346286556894-7.44130361176 163.5629208475231-61.63476396583 71.0360949630774-79.312740227137 25.4360966307391 7.636510946802-70.3999974253652 103.577011972727-1.2370731254899 8.553985421494-14.7434140949571 101.855283277666 78.1970703109456 83.177845460949 162.860481848822 53.787429097182 127.3443855867241-40.079970030607 126.7356051211828-89.66653727771 47.800973861602-92.906979039388 1.240975564372-8.557889568195-20.113169996138-98.380592713938-112.339508086695-63.582933169538-38.243901040386-5.539984168462 71.793168106121-64.828355967099 30.427315960397-22.538638903829 32.144389068334-148.287299990506-101.658532867558-134.915597540201-134.9580438448667-74.643380772958zm351.6097432386571 450.706407582645-113.1512153740828 32.908052541204zm-348.2224262893658 78.27423720472.00780487777.0039041467-16.1170725813057 2.28782996668z" fill="#6ea09e" stroke-width="1.99849"/></svg>
