<svg width="512" height="512" version="1.1" viewBox="0 0 512 512" xmlns="http://www.w3.org/2000/svg">
    <desc>River3A,0</desc>
    <path id="0A.0.W" d="m 92,0 6.44043,14.27246 5.14453,103.2168 -0.0498,107.03418 -2.9668,173.2539 -5.0293,93.59375 L 92,512 h 328 l 23.21191,-23.90136 23.21192,-23.90137 22.78808,-22.09863 L 512,420 V 92 L 488.09864,68.78809 464.19727,45.5752 442.09864,22.78809 420,0 Z" fill="#76d3c1" stroke-width=".5"/>
    <path id="0A.0.G" d="m0 0v512h92l3.53906-20.62891 5.0293-93.59375 2.9668-173.2539.0498-107.03418-5.14453-103.2168-6.44043-14.27246h-64zm420 0 22.09864 22.78809 22.09863 22.78711 23.90137 23.21289 23.90136 23.21191v-92h-56zm92 420-22.78809 22.09864-22.78808 22.09863-23.21192 23.90137-23.21191 23.90136h92v-56z" fill="#356b35" stroke-width=".5"/>
</svg>
