<svg width="1024" height="1024" version="1.1" viewBox="0 0 1024 1024" xmlns="http://www.w3.org/2000/svg">
    <desc>River3A,0</desc>
    <path id="0A.0.W" d="m 184,0 12.88086,28.544922 10.28906,206.433598 -0.0996,214.06836 -5.93359,346.50781 -10.0586,187.1875 L 184,1024 h 656 l 46.42383,-47.80273 46.42383,-47.80274 45.57617,-44.19726 L 1024,840 V 184 L 976.19727,137.57617 928.39453,91.150391 884.19727,45.576172 840,0 Z" fill="#76d3c1"/>
    <path id="0A.0.G" d="m0 0v1024h184l7.07812-41.25781 10.0586-187.1875 5.93359-346.50781.0996-214.06836-10.28905-206.433598-12.88086-28.544922h-128zm840 0 44.19727 45.576172 44.19726 45.574219 47.80274 46.425779 47.80273 46.42383v-184h-112zm184 840-45.57617 44.19727-45.57617 44.19726-46.42383 47.80274-46.42383 47.80273h184v-112z" fill="#356b35"/>
</svg>
