<svg width="128" height="128" version="1.1" viewBox="0 0 128 128" xmlns="http://www.w3.org/2000/svg"><path d="m0 0v128h128v-128z" fill="#356b35"/><path d="m4 0-2.33984375 6-1.66015625 61 1.75390625 53.41015625 2.24609375 7.58984375h13l-11-16-2-25.33203125 1-8.66796875 4-12.185546875-1-9.814453125-1.435546875-14.66796875 1.9296875-21.646484375 8.505859375-19.685546875h-13zm107 0 6 11 11 6v-13l-2.5-1.5-1.5-2.5h-13z" fill="#92bf3f"/><path d="m3.5 0-2 9.544921875-1.5 26.09765625v56.71484375l1.5 26.09765625 2 9.544921875h124.5v-124.5l-3.5-3.5h-121z" fill="#359535"/></svg>
