<svg width="128" height="128" version="1.1" viewBox="0 0 128 128" xmlns="http://www.w3.org/2000/svg"><path d="m0 0v128h128v-128z" fill="#356b35"/><path d="m128 4-9.61328125 3.384765625-18.595703125 11.484375-14.76953125 12.7265625-6.537109375 7.923828125-1.03515625.80859375-41.55078125 38.22265625-6.138671875 7.208984375-22.626953125 31.85546875-3.1328125 10.384765625h13l-2.09375-10.2265625 14.09375-23.47265625 18.689453125-7.427734375 2.201171875-10.798828125 13.51171875-15.28125 5.580078125-5.9140625 14.70703125-4.005859375 6.03125-11.087890625 25.779296875-22.78515625h12.5v-13z" fill="#92bf3f"/><path d="m128 3.5-10.814453125 4.283203125-18.712890625 11.03515625-15.8515625 14.11328125-9.41796875 16.126953125-13.8515625 13.78125-15.916015625 10.458984375-13.00390625 11.1953125-22.876953125 32.224609375-4.0546875 11.28125h124.5v-124.5z" fill="#359535"/></svg>
