<svg width="128" height="128" version="1.1" viewBox="0 0 128 128" xmlns="http://www.w3.org/2000/svg"><path d="m0 0v128h128v-128z" fill="#356b35"/><path d="m61 0-53.41015625 1.75390625-5.716796875 5.482421875-.212890625 1-1.66015625 53.408203125.85546875 30.138671875.306640625 8.525390625.591796875 21.69140625 2.24609375 6h13l-8.529296875-12-2.560546875-18 .95703125-18 2.1328125-10-1-10 1-24.62890625 1.138671875-17.37109375 5.861328125-12 25.33203125-2 8.66796875 1 12.185546875 4 9.814453125-1 14.66796875-1.435546875 21.646484375 1.9296875 19.685546875 8.505859375v-13l-6-2.33984375-61-1.66015625zm67 111-11 6-6 11h13l1.5-2.5 2.5-1.5v-13z" fill="#92bf3f"/><path d="m35.642578125 0-26.09765625 1.5-8.044921875 8.044921875-1.5 26.09765625v56.71484375l1.5 26.09765625 2 9.544921875h121l3.5-3.5v-121l-9.544921875-2-26.09765625-1.5h-28.357421875z" fill="#359535"/></svg>
