<svg width="128" height="128" version="1.1" viewBox="0 0 128 128" xmlns="http://www.w3.org/2000/svg"><path d="m0 0v128h128v-128z" fill="#356b35"/><path d="m62.087890625 0-56.087890625 1.75390625-4.33984375 4.24609375-1.66015625 61 1.75390625 53.41015625 2.24609375 7.58984375h13l-11-16-2-25.33203125 1-8.66796875 4-12.185546875-1-9.814453125-1.435546875-14.66796875 1.9296875-21.646484375 3.505859375-11.21484375 29.33203125-2.560546875 14.66796875.955078125 6.1875 2.134765625 9.8125-1 14.66796875-1 20.33203125 1.13671875 21 8.86328125v-13l-6.912109375-2.33984375-59-1.66015625zm65.912109375 111-11 6-6 11h13l1.5-2.5 2.5-1.5v-13z" fill="#92bf3f"/><path d="m35.642578125 0-26.09765625 1.5-8.044921875 8.044921875-1.5 26.09765625v56.71484375l1.5 26.09765625 2 9.544921875h121l3.5-3.5v-121l-9.544921875-2-26.09765625-1.5h-56.71484375z" fill="#359535"/></svg>
