<svg width="128" height="128" version="1.1" viewBox="0 0 128 128" xmlns="http://www.w3.org/2000/svg"><path d="m0 0v128h128v-128z" fill="#356b35"/><path d="m4 0-2.33984375 6.912109375-1.66015625 59 1.75390625 56.087890625 2.24609375 6h13l-8.529296875-12-2.560546875-29.33203125.955078125-14.66796875 2.134765625-6.1875-1-9.8125-1-14.66796875 1.13671875-20.33203125 8.86328125-21h-13zm107 0 6 11 11 6v-13l-2.5-1.5-1.5-2.5h-13z" fill="#92bf3f"/><path d="m3.5 0-2 9.544921875-1.5 26.09765625v56.71484375l1.5 26.09765625 2 9.544921875h124.5v-124.5l-3.5-3.5h-121z" fill="#359535"/></svg>
