<svg width="128" height="128" version="1.1" viewBox="0 0 128 128" xmlns="http://www.w3.org/2000/svg"><path d="m0 0v128h128v-128z" fill="#356b35"/><path d="m128 4-9.599609375 4.400390625-43.599609375 26-40.93359375 40.1328125-25.494140625 42.7734375-4.373046875 10.693359375h13l-2.09375-10.2265625 14.09375-23.47265625 15-14.30078125 2.19921875-10.80078125-3.947265625 1.794921875v-.001953125l3.947265625-1.79296875 19.087890625-20.0703125 14.712890625-5.12890625 7.09375-10.572265625 28.40625-16.427734375h12.5v-13z" fill="#92bf3f"/><path d="m128 3.5-10.80078125 5.30078125-36.3984375 22.3984375-10.80078125 8-30 30-9.19921875 12.80078125-21.6015625 34.80078125-5.69921875 11.19921875h124.5v-124.5z" fill="#359535"/></svg>
