<svg width="128" height="128" version="1.1" viewBox="0 0 128 128" xmlns="http://www.w3.org/2000/svg"><path d="m0 0v128h128v-128z" fill="#356b35"/><path d="M 4,0 1.66015625,6.912109375 0,65.912109375 1.75390625,122 4,128 H 17 L 8.470703125,116 5.91015625,86.66796875 6.865234375,72 9,65.8125 8,56 7,41.33203125 8.13671875,21 17,0 Z m 107,0 6,11 11,6 V 4 L 125.5,2.5 124,0 Z m 17,111 -11,6 -6,11 h 13 l 1.5,-2.5 2.5,-1.5 z" fill="#92bf3f"/><path d="m3.5 0-2 9.544921875-1.5 26.09765625v56.71484375l1.5 26.09765625 2 9.544921875h121l3.5-3.5v-121l-3.5-3.5z" fill="#359535"/></svg>
