<svg width="128" height="128" version="1.1" viewBox="0 0 128 128" xmlns="http://www.w3.org/2000/svg"><path d="m0 0v128h128v-128z" fill="#356b35"/><path d="M 61,0 7.58984375,1.75390625 1.873046875,7.236328125 l -0.212890625,1 L 0,61.64453125 0.85546875,91.783203125 1.162109375,100.30859375 1.75390625,122 4,128 h 1 5 7 L 8.470703125,116 5.91015625,98 6.8671875,80 9,70 8,60 9,35.37109375 10.138671875,18 16,6 41.33203125,4 50,5 62.185546875,9 72,8 86.66796875,6.564453125 108.314453125,8.494140625 119.529296875,12 122.08984375,41.33203125 121.134765625,56 119,62.185546875 120,72 121,86.66796875 119.86328125,107 111,128 h 7 6 l 2.33984375,-6.912109375 1.66015625,-59 L 126.24609375,6 122,1.66015625 Z" fill="#92bf3f"/><path d="m35.642578125 0-26.09765625 1.5-8.044921875 8.044921875-1.5 26.09765625v56.71484375l1.5 26.09765625 2 9.544921875h121l2-9.544921875 1.5-26.09765625v-56.71484375l-1.5-26.09765625-8.044921875-8.044921875-26.09765625-1.5h-28.357421875z" fill="#359535"/></svg>
