<svg width="128" height="128" version="1.1" viewBox="0 0 128 128" xmlns="http://www.w3.org/2000/svg"><path d="m0 0v128h128v-128z" fill="#356b35"/><path d="M 64.00000000000001,0 6.86328125,1.75390625 1.66015625,6.912109375000007 0,65.91210937500001 1.75390625,122 6,126.33984375 67.00000000000001,128 120.41015625,126.24609375 l 5.716796875,-5.482421875 0.212890625,-1 L 128,66.35546875 127.14453125,36.216796875 126.837890625,27.69140624999998 126.24609375,5.999999999999993 120.984375,1.66015625 Z m -24.99999999999997,5.910156250000007 12,0.955078125 11.185546875,2.134765625 9.81445312499997,-1 h 14.66796875 l 21.33203124999998,1 11.529296875,3.000000000000003 L 122.08984375,30 l -0.95703125,18.00000000000002 -2.1328125,10 1,9.999999999999992 L 119,92.62890625 117.861328125,110 112,122 l -25.33203124999998,2 -8.66796875,-1 -12.185546875,-4 -9.81445312499985,1 -14.66796875,1.435546875 L 19.685546875,119.505859375 8.470703125,116 5.91015625,86.66796875 6.865234375,72.00000000000001 9,65.81250000000001 8,56.00000000000003 7,41.33203125000002 8.13671875,21.00000000000001 17,8.470703125000014 Z" fill="#92bf3f"/><path d="m35.642578125 0-26.09765625 1.5-8.044921875 8.044921875-1.5 26.09765625v56.71484375l1.5 26.09765625 8.044921875 8.044921875 26.09765625 1.5h56.71484375l26.09765625-1.5 8.044921875-8.044921875 1.5-26.09765625v-56.71484375l-1.5-26.09765625-8.044921875-8.044921875-26.09765625-1.5h-56.71484375z" fill="#359535"/></svg>
