<svg width="128" height="128" version="1.1" viewBox="0 0 128 128" xmlns="http://www.w3.org/2000/svg"><path d="m0 0v128h128v-128z" fill="#356b35"/><path d="m128 4-9.599609375 4.400390625-1.037109375.76171875-36.09375 31.833984375-14.431640625 10.314453125-.001953125.001953125-23.63671875 15.88671875-9.33203125 7.333984375-25.494140625 42.7734375-4.373046875 10.693359375h13l-2.09375-10.2265625 14.09375-23.47265625 15-14.30078125 2.19921875-10.80078125 22.9375-10.951171875 12.318359375-3.44921875 3.755859375-6.548828125 30.2890625-31.25h12.5v-13z" fill="#92bf3f"/><path d="m128 3.5-10.80078125 5.30078125-21.35546875 20.076171875-9.154296875 11.15625-14.84375 7.630859375-31.845703125 21.53515625-9.19921875 12.80078125-21.6015625 34.80078125-5.69921875 11.19921875h124.5v-124.5z" fill="#359535"/></svg>
