<svg width="128" height="128" version="1.1" viewBox="0 0 128 128" xmlns="http://www.w3.org/2000/svg"><path d="m0 0v128h128v-128z" fill="#356b35"/><path d="m128 4-5.634765625 2.583984375-.005859375.001953125-4.919921875 1.3828125-32.67578125 19.767578125-9.962890625 6.6640625-7.150390625 9.31640625-1.1328125 2.0859375-24.689453125 33.9921875-5.763671875 5.650390625-4.37890625 5.57421875v.001953125l-4.23046875 4.6796875-19.7890625 20.97265625-3.666015625 11.326171875h13l-2.09375-10.2265625 18.583984375-22.513671875 18.189453125-10.140625 2.201171875-10.798828125 16.802734375-22.09375 9.31640625-8.2265625 7.09375-10.572265625 28.40625-16.427734375h12.5v-13z" fill="#92bf3f"/><path d="m128 3.5-10.80078125 3.02734375-34.791015625 21.615234375-14.009765625 13.171875-19.748046875 32.13671875-8.849609375 13.541015625-11.990234375 8.126953125-19.318359375 21.048828125-4.9921875 11.83203125h124.5v-124.5z" fill="#359535"/></svg>
