<svg width="128" height="128" version="1.1" viewBox="0 0 128 128" xmlns="http://www.w3.org/2000/svg"><path d="m0 0v128h128v-128z" fill="#356b35"/><path d="m4 0-2.33984375 7.015625-1.66015625 56.984375 1.75390625 57.13671875 2.24609375 6.86328125h13l-8.529296875-17-2.560546875-22 .955078125-12 2.134765625-11.185546875-1-9.814453125v-14.66796875l1-21.33203125 8-20h-13zm124 111-11 6-6 11h13l1.5-2.5 2.5-1.5v-13z" fill="#92bf3f"/><path d="m3.5 0-2 9.544921875-1.5 26.09765625v56.71484375l1.5 26.09765625 2 9.544921875h121l3.5-3.5v-124.5h-124.5z" fill="#359535"/></svg>
