<svg width="128" height="128" version="1.1" viewBox="0 0 128 128" xmlns="http://www.w3.org/2000/svg"><path d="m0 0v128h128v-128z" fill="#356b35"/><path d="M 64.00000000000001,0 6.863281250000007,1.75390625 1.660156250000002,6.912109375 1.77635683940025e-15,65.912109375 1.753906250000002,122 4.000000000000006,128 H 10 17 L 8.470703125000003,116 5.910156250000005,86.66796875 6.865234375000005,72 l 2.134765624999998,-6.1875 -1,-9.8125 L 7.000000000000005,41.33203125 8.136718750000003,21 17,8.470703125 39,5.91015625 51.00000000000002,6.865234375 62.18554687500002,9 72.00000000000001,8 H 86.66796875 L 108,9 119.529296875,12 122.08984375,30 121.1328125,48 119,58 120,68 119,92.62890625 117.861328125,110 111,128 h 7 6 l 2.126953125,-7.236328125 0.212890625,-1 L 128,66.35546875 127.14453125,36.216796875 126.8359375,27.677734375 126.24609375,6 120.984375,1.66015625 Z" fill="#92bf3f"/><path d="m35.64257812500002 0-26.09765625000002 1.5-8.044921875 8.044921875-1.5 26.09765625000002v56.71484374999999l1.5 26.09765624999999 2 9.544921875h121l2-9.544921875 1.5-26.09765624999998v-56.71484374999999l-1.5-26.09765625000003-8.044921875-8.044921875-26.09765624999998-1.5h-28.35742187500002z" fill="#359535"/></svg>
