<svg width="128" height="128" version="1.1" viewBox="0 0 128 128" xmlns="http://www.w3.org/2000/svg"><path d="m0 0v128h128v-128z" fill="#356b35"/><path d="m66.35546875 0-30.138671875.85546875-8.5390625.30859375-.07421875.001953125-21.603515625.587890625-4.33984375 5.26171875-1.66015625 56.984375 1.75390625 57.13671875 2.24609375 6.86328125h13l-8.529296875-17-2.560546875-22 .955078125-12 2.134765625-11.185546875-1-9.814453125v-14.66796875l1-21.33203125 3-11.529296875 18-2.560546875 18 .95703125 10 2.1328125 10-1 24.62890625 1 17.37109375 1.13671875 18 6.86328125v-13l-7.236328125-2.126953125-1-.212890625-53.408203125-1.66015625z" fill="#92bf3f"/><path d="m35.642578125 0-26.09765625 1.5-8.044921875 8.044921875-1.5 26.09765625v56.71484375l1.5 26.09765625 2 9.544921875h124.5v-124.5l-9.544921875-2-26.09765625-1.5h-56.71484375z" fill="#359535"/></svg>
