<svg width="128" height="128" version="1.1" viewBox="0 0 128 128" xmlns="http://www.w3.org/2000/svg"><path d="m0 0v128h128v-128z" fill="#356b35"/><path d="M 64 0 L 6.86328125 1.75390625 L 1.66015625 6.912109375 L 0 65.912109375 L 1.75390625 122 L 4 128 L 5 128 L 10 128 L 17 128 L 8.470703125 116 L 5.91015625 86.66796875 L 6.865234375 72 L 9 65.8125 L 8 56 L 7 41.33203125 L 8.13671875 21 L 17 8.470703125 L 39 5.91015625 L 51 6.865234375 L 62.185546875 9 L 72 8 L 86.66796875 8 L 108 9 L 128 17 L 128 10 L 128 5 L 128 4 L 120.984375 1.66015625 L 64 0 z " fill="#92bf3f"/><path d="m35.642578125 0-26.09765625 1.5-8.044921875 8.044921875-1.5 26.09765625v56.71484375l1.5 26.09765625 2 9.544921875h124.5v-124.5l-9.544921875-2-26.09765625-1.5h-56.71484375z" fill="#359535"/></svg>
