<svg width="128" height="128" version="1.1" viewBox="0 0 128 128" xmlns="http://www.w3.org/2000/svg"><path d="m0 0v128h128v-128z" fill="#356b35"/><path d="M 62.087890625 0 L 6 1.75390625 L 1.66015625 6 L 0 67 L 1.75390625 120.41015625 L 4 128 L 10 128 L 17 128 L 6 112 L 4 86.66796875 L 5 78 L 9 65.814453125 L 8 56 L 6.564453125 41.33203125 L 8.494140625 19.685546875 L 12 8.470703125 L 41.33203125 5.91015625 L 56 6.865234375 L 62.185546875 9 L 72 8 L 86.66796875 7 L 107 8.13671875 L 119.529296875 17 L 122.08984375 39 L 121.134765625 51 L 119 62.185546875 L 120 72 L 120 86.66796875 L 119 108 L 111 128 L 118 128 L 123 128 L 124 128 L 126.33984375 120.984375 L 128 64 L 126.24609375 6.86328125 L 121.087890625 1.66015625 L 62.087890625 0 z " fill="#92bf3f"/><path d="m35.642578125 0-26.09765625 1.5-8.044921875 8.044921875-1.5 26.09765625v56.71484375l1.5 26.09765625 2 9.544921875h121l2-9.544921875 1.5-26.09765625v-56.71484375l-1.5-26.09765625-8.044921875-8.044921875-26.09765625-1.5h-28.357421875z" fill="#359535"/></svg>
