<svg width="128" height="128" version="1.1" viewBox="0 0 128 128" xmlns="http://www.w3.org/2000/svg"><path d="m0 0v128h128v-128z" fill="#356b35"/><path d="M 66.35546875,0 36.216796875,0.85546875 27.69140625,1.162109375 6,1.75390625 1.66015625,7.015625 0,64 1.75390625,121.13671875 4,128 h 6 7 L 8.470703125000003,111 5.91015625,89 6.865234375,77 9.000000000000003,65.814453125 l -1,-9.814453125 V 41.33203125 l 1,-21.33203125 L 12,8.470703125 30,5.91015625 48,6.8671875 58,9 68,8 92.62890625,9 110,10.13671875 122,16 124,41.33203125 123,50 119,62.185546875 120,72 l 1.435546875,14.66796875 -1.9296875,21.646484375 L 111,128 h 7 6 l 2.33984375,-6 L 128,61 126.24609375,7.58984375 l -5.482421875,-5.716796875 -1,-0.212890625 z" fill="#92bf3f"/><path d="m35.64257812500002 7.105427357601002e-15-26.09765625000002 1.5-8.044921874999999 8.044921875-1.5 26.09765625000001v56.71484374999999l1.5 26.09765624999999 2 9.544921875h121l2-9.544921875 1.5-26.09765624999998v-56.71484374999999l-1.5-26.09765625000003-8.044921875-8.044921875-26.09765624999998-1.5h-28.35742187500002z" fill="#359535"/></svg>
