<svg width="128" height="128" version="1.1" viewBox="0 0 128 128" xmlns="http://www.w3.org/2000/svg"><path d="m0 0v128h128v-128z" fill="#76d3c1"/><path d="m0 0v11l7 2.470703125 10.279296875.880859375-6.279296875-14.3515625h-11zm14 0 .5703125 2.28515625 8.12109375 5.193359375 4.201171875-.38671875.107421875-7.091796875h-13zm32 0 2.671875 3.259765625 9.896484375-3.259765625h-12.568359375zm-46 46v36l15.19921875-2.13671875.591796875-4.0703125.53515625-15.025390625.2578125-14.767578125h-16.583984375zm0 48v17l9.001953125-1.564453125 1.05859375-5-4.888671875.091796875 5.53125-3.12890625 1.56640625-7.3984375h-12.26953125zm72.923828125 9.369140625-8.923828125 3.123046875-38.521484375 4.80078125-9.787109375-3.896484375-5.98828125 7.150390625-9.703125 9.453125v4h128v-23l-3.89453125-.884765625-51.181640625-.74609375z" fill="#356b35"/><path d="m0 0v124.5l10.62890625-12.65234375 11.001953125-29.171875 3.462890625-34.728515625.783203125-13.646484375-.158203125-3.83984375 2.02734375-5.41015625 3.408203125.16796875 27.259765625-.541015625 65.59765625-1.2265625 3.98828125-.451171875v-23l-31.9296875 12.00390625 31.9296875-12.00390625z" fill="#359535"/></svg>
