<svg width="128" height="128" version="1.1" viewBox="0 0 128 128" xmlns="http://www.w3.org/2000/svg"><path d="m0 0v128h128v-128z" fill="#76d3c1"/><path d="m117.64453125 0-5.787109375 19.107421875.234375 41.400390625.177734375 15.708984375.53125 3.646484375 15.19921875 2.13671875v-82h-10.35546875zm-1.9140625 94 3.267578125 15.435546875 9.001953125 1.564453125v-17h-12.26953125zm-60.048828125 9.580078125-51.693359375.96875-3.98828125.451171875v23h128v-4l-9.703125-9.453125-7.287109375-6.7578125-7.345703125 3.50390625-39.6640625-4.80078125-8.318359375-2.912109375z" fill="#356b35"/><path d="m0 0v23l5.697265625-5.525390625 5.697265625-5.5234375 5.802734375-5.9765625 5.802734375-5.974609375h-16zm105 0-4.1953125 16 2.1015625 31.947265625 6.25 32.62109375 7.875 31.794921875 10.96875 12.13671875v-124.5h-14z" fill="#359535"/></svg>
