<svg width="128" height="128" version="1.1" viewBox="0 0 128 128" xmlns="http://www.w3.org/2000/svg"><path d="m0 0v128h128v-128z" fill="#76d3c1"/><path d="m0 0v34h16.794921875l.0625-3.583984375-12.390625-7.5546875 13.533203125-6.861328125 4.69140625-8.521484375 4.201171875-.38671875.107421875-7.091796875h-27zm101 0-.76953125 10.869140625 2.36328125-.46484375 7.40625 5.595703125 13.46484375 7.111328125-11.546875 6.533203125.0234375 4.35546875h16.05859375v-34h-27zm-101 46v65l9.001953125-1.564453125 6.056640625-28.607421875.732421875-5.037109375.53515625-15.0234375.2578125-14.767578125h-16.583984375zm112.009765625 0 .08203125 14.5078125.177734375 15.7109375.671875 4.609375 6.056640625 28.607421875 9.001953125 1.564453125v-65h-15.990234375zm-97.884765625 63.267578125-4.421875 5.279296875-9.703125 9.453125v4h23l-1.20703125-17.525390625-7.66796875-1.20703125zm98.662109375.169921875-6.580078125 1.037109375-1.20703125 17.525390625h23v-4l-9.703125-9.453125-5.509765625-5.109375z" fill="#356b35"/><path d="m0 0v124.5l10.62890625-12.65234375 11.001953125-29.171875 3.462890625-34.728515625.783203125-13.646484375-.158203125-3.83984375 2.02734375-5.41015625 3.408203125.16796875 27.259765625-.541015625 32.798828125.32421875 4.099609375-.193359375 7.212890625 6.97265625.244140625 3.982421875.13671875 12.18359375 6.25 32.62109375 7.875 31.794921875 10.96875 12.13671875v-124.5z" fill="#359535"/></svg>
