<svg width="128" height="128" version="1.1" viewBox="0 0 128 128" xmlns="http://www.w3.org/2000/svg"><path d="m0 0v128h128v-128z" fill="#76d3c1"/><path d="m0 0v111l9.001953125-1.564453125 6.056640625-28.607421875.732421875-5.037109375.53515625-15.0234375.724609375-41.45703125-2.1875-10.482421875-3.86328125-8.828125h-11zm117.64453125 0-5.787109375 19.107421875.234375 41.400390625.177734375 15.7109375.671875 4.609375 6.056640625 28.607421875 9.001953125 1.564453125v-111h-10.35546875zm-53.64453125 106.4921875-38.521484375 4.80078125-9.787109375-3.896484375-5.98828125 7.150390625-9.703125 9.453125v4h128v-4l-9.703125-9.453125-7.287109375-6.7578125-7.345703125 3.50390625-39.6640625-4.80078125z" fill="#356b35"/><path d="M 0,0 V 124.5 L 10.62890625,111.84765625 21.630859375,82.67578125 25.09375,47.947265625 25.462890625,16 23,0 H 7 Z m 105,0 -4.1953125,16 2.1015625,31.947265625 6.25,32.62109375 7.875,31.794921875 L 128,124.5 V 0 h -14 z" fill="#359535"/></svg>
