<svg width="128" height="124.5" version="1.1" viewBox="0 0 128 124.5" xmlns="http://www.w3.org/2000/svg"><path d="m0 0v128h128v-128z" fill="#76d3c1"/><path d="m0 0v111l9.001953125-1.564453125 6.056640625-28.607421875.732421875-5.03515625.53515625-15.025390625.724609375-41.45703125-2.1875-10.482421875-3.86328125-8.828125h-11zm79.904296875 69.173828125-15.904296875 5.56640625 15.908203125-5.56640625h-.00390625zm48.095703125 24.517578125-32 1.6015625-32 11.19921875-38.521484375 4.80078125-9.787109375-3.896484375-5.98828125 7.150390625-9.703125 9.453125v4h128v-34.30859375z" fill="#356b35"/><path d="m0 0v124.5l10.62890625-12.65234375 11.001953125-29.171875 3.462890625-34.728515625.369140625-31.947265625-2.462890625-16h-16z" fill="#359535"/></svg>
