<svg width="128" height="128" version="1.1" viewBox="0 0 128 128" xmlns="http://www.w3.org/2000/svg"><path d="m0 0v128h128v-128z" fill="#76d3c1"/><path d="m0 0v11l7 2.470703125 10.279296875.880859375-6.279296875-14.3515625h-11zm14 0 .5703125 2.28515625 8.12109375 5.193359375 4.201171875-.38671875.107421875-7.091796875h-13zm32 0 2.671875 3.259765625 9.896484375-3.259765625h-12.568359375zm-46 46v65l9.001953125-1.564453125 6.056640625-28.607421875.732421875-5.03515625.53515625-15.025390625.2578125-14.767578125h-16.583984375zm14.125 63.267578125-4.421875 5.279296875-9.703125 9.453125v4h23l-1.20703125-17.525390625-7.66796875-1.20703125z" fill="#356b35"/><path d="m0 0v124.5l10.62890625-12.65234375 11.001953125-29.171875 3.462890625-34.728515625.783203125-13.646484375-.158203125-3.83984375 2.02734375-5.41015625 3.408203125.16796875 27.259765625-.541015625 65.59765625-1.2265625 3.98828125-.451171875v-23l-31.9296875 12.00390625 31.9296875-12.00390625z" fill="#359535"/></svg>
