<svg width="128" height="128" version="1.1" viewBox="0 0 128 128" xmlns="http://www.w3.org/2000/svg"><path d="m0 0v128h128v-128z" fill="#76d3c1"/><path d="m0 0v82l15.19921875-2.13671875.591796875-4.0703125.53515625-15.025390625.724609375-41.45703125-2.1875-10.482421875-3.86328125-8.828125h-11zm0 94v17l9.001953125-1.564453125 1.05859375-5-4.888671875.091796875 5.53125-3.12890625 1.56640625-7.3984375h-12.26953125zm72.923828125 9.369140625-8.923828125 3.123046875-38.521484375 4.80078125-9.787109375-3.896484375-5.98828125 7.150390625-9.703125 9.453125v4h128v-23l-3.89453125-.884765625-51.181640625-.74609375z" fill="#356b35"/><path d="m0 0v124.5l10.62890625-12.65234375 11.001953125-29.171875 3.462890625-34.728515625.369140625-31.947265625-2.462890625-16h-16zm105 0 5.525390625 5.697265625 5.5234375 5.697265625 5.9765625 5.802734375 5.974609375 5.802734375v-23h-14z" fill="#359535"/></svg>
