<svg width="128" height="128" version="1.1" viewBox="0 0 128 128" xmlns="http://www.w3.org/2000/svg"><path d="m0 0v128h128v-128z" fill="#76d3c1"/><path d="m68.21875 0 9.638671875 3.681640625 4.142578125-3.681640625h-13.78125zm32.78125 0-.76953125 10.869140625 2.36328125-.46484375 10.74609375-7.759765625.66015625-2.64453125h-13zm16 0-6.63671875 15.16796875 10.63671875-1.455078125 2.46484375 9.3984375-11.546875 6.533203125.0234375 4.35546875h16.05859375v-34h-11zm11 34-16.048828125 1.50390625.140625 25.00390625.177734375 15.708984375.53125 3.646484375 15.19921875 2.13671875v-48zm-12.26953125 60 3.267578125 15.435546875 9.001953125 1.564453125v-17h-12.26953125zm-60.048828125 9.580078125-51.693359375.96875-3.98828125.451171875v23h128v-4l-9.703125-9.453125-7.287109375-6.7578125-7.345703125 3.50390625-39.6640625-4.80078125-8.318359375-2.912109375z" fill="#356b35"/><path d="m0 0v23l3.89453125.884765625 54.51953125.79296875 32.798828125.32421875 4.099609375-.193359375 7.212890625 6.97265625.244140625 3.982421875.13671875 12.18359375 6.25 32.62109375 7.875 31.794921875 10.96875 12.13671875v-124.5z" fill="#359535"/></svg>
