<svg width="128" height="128" version="1.1" viewBox="0 0 128 128" xmlns="http://www.w3.org/2000/svg"><path d="m0 0v128h128v-128z" fill="#76d3c1"/><path d="M 0,0 V 111 L 9.001953125,109.435546875 15.05859375,80.828125 15.791015625,75.791015625 16.326171875,60.767578125 17.05078125,19.310546875 14.86328125,8.828125 11,0 Z m 117.64453125,0 -5.787109375,19.107421875 0.234375,41.400390625 0.177734375,15.7109375 0.671875,4.609375 6.056640625,28.607421875 L 128,111 V 0 Z M 14.125,109.267578125 9.703125,114.546875 0,124 v 4 H 23 L 21.79296875,110.474609375 Z M 112.787109375,109.4375 106.20703125,110.474609375 105,128 h 23 v -4 l -9.703125,-9.453125 z" fill="#356b35"/><path d="m0 0v124.5l10.62890625-12.65234375 11.001953125-29.171875 3.462890625-34.728515625.369140625-31.947265625-2.462890625-16h-16zm105 0-4.1953125 16 2.1015625 31.947265625 6.25 32.62109375 7.875 31.794921875 10.96875 12.13671875v-124.5h-14z" fill="#359535"/></svg>
