<svg width="128" height="128" version="1.1" viewBox="0 0 128 128" xmlns="http://www.w3.org/2000/svg"><path d="m0 0v128h128v-128z" fill="#76d3c1"/><path d="m0 0v111l9.001953125-1.564453125 6.056640625-28.607421875.732421875-5.03515625.53515625-15.025390625.724609375-41.45703125-2.1875-10.482421875-3.86328125-8.828125h-11zm14.125 109.267578125-4.421875 5.279296875-9.703125 9.453125v4h23l-1.20703125-17.525390625-7.66796875-1.20703125z" fill="#356b35"/><path d="m0 0v124.5l10.62890625-12.65234375 11.001953125-29.171875 3.462890625-34.728515625.369140625-31.947265625-2.462890625-16h-16zm105 0 5.525390625 5.697265625 5.5234375 5.697265625 5.9765625 5.802734375 5.974609375 5.802734375v-23h-14z" fill="#359535"/></svg>
