<svg width="128" height="128" version="1.1" viewBox="0 0 128 128" xmlns="http://www.w3.org/2000/svg"><path d="m0 0v128h128v-128z" fill="#76d3c1"/><path d="m117.19921875 96-.30078125 3.515625 2.099609375 9.919921875 2.90625.505859375-4.705078125-13.94140625zm-106.609375 5.931640625-3.158203125 7.77734375 1.5703125-.2734375 1.587890625-7.50390625zm53.41015625 4.560546875-38.521484375 4.80078125-9.58984375-3.818359375-.576171875.375-5.609375 6.697265625-9.703125 9.453125v4h128v-4l-9.703125-9.453125-7.287109375-6.7578125-7.345703125 3.50390625-39.6640625-4.80078125z" fill="#356b35"/><path d="m0 0v124.5l10.62890625-12.65234375 11.001953125-29.171875 3.462890625-34.728515625.783203125-13.646484375-.158203125-3.83984375 2.02734375-5.41015625 3.408203125.16796875 27.259765625-.541015625 32.798828125.32421875 4.099609375-.193359375 7.212890625 6.97265625.244140625 3.982421875.13671875 12.18359375 6.25 32.62109375 7.875 31.794921875 10.96875 12.13671875v-124.5z" fill="#359535"/></svg>
