<svg viewBox="0 0 96 96" xmlns="http://www.w3.org/2000/svg">
	<path d="m34.57 0h26.88a34.56 34.56 0 0134.56 34.56v26.88a34.56 34.56 0 01-34.56 34.56h-26.88a34.56 34.56 0 01-34.56-34.56v-26.88a34.56 34.56 0 0134.56-34.56z" fill="#ced936"/>
	<path d="M70.576 73.831H25.424a6.85 6.85 0 01-6.847-6.847V46.81a6.85 6.85 0 016.847-6.848h45.152a6.85 6.85 0 016.847 6.847v20.174a6.85 6.85 0 01-6.847 6.847z" fill="#5E4537"/>
	<path d="M56.983 44.338h4.891v4.89h-4.89v-4.89zm9.297 6.628v4.89h-4.891v-4.89h4.89zm-24.54 6.58h4.89v4.892h-4.89v-4.891zm-4.171-1.69v-4.89h4.89v4.89h-4.89zm7.942 0v-4.89h4.891v4.89h-4.89zm3.85 1.69h4.891v4.892h-4.89v-4.891zm4.085-1.69v-4.89h4.891v4.89h-4.89zm-4.085-11.518h4.891v4.89h-4.89v-4.89zm-7.621 0h4.89v4.89h-4.89v-4.89zm-7.614 0h4.89v4.89h-4.89v-4.89zm.39 6.628v4.89h-4.89v-4.89h4.89zm-8.012-6.628h4.89v4.89h-4.89v-4.89zm4.89 18.1h-4.89v-4.891h4.89v4.89zm2.732-4.891h4.89v4.89h-4.89v-4.89zm23.898 11.91H37.89v-4.89h20.134v4.89zm3.85-7.02h-4.89v-4.89h4.89v4.89zm7.614 0h-4.89v-4.89h4.89v4.89zm0-13.208h-4.89v-4.891h4.89v4.89z" fill="#CED936"/>
	<path d="M60.389 16.512H35.616a8.476 8.476 0 00-8.48 8.48 8.476 8.476 0 008.48 8.478h7.556c2.738 0 4.208 3.77 4.756 3.77.555 0 1.47-3.77 4.951-3.77h7.502a8.476 8.476 0 008.48-8.479c.007-4.686-3.795-8.48-8.472-8.48z" fill="#F5F1E3"/>
	<path d="m48 27.53a2.543 2.543 0 100-5.087 2.543 2.543 0 000 5.086zm-8.944 0a2.543 2.543 0 100-5.087 2.543 2.543 0 000 5.086zm17.881 0a2.543 2.543 0 100-5.087 2.543 2.543 0 000 5.086z" fill="#5E4537"/>
	<path d="m34.752 20.103h-5.94a3.88 3.88 0 110-7.763h5.94a3.88 3.88 0 013.881 3.882 3.876 3.876 0 01-3.881 3.881z" fill="#F88191"/>
</svg>
