<svg viewBox="0 0 96 96" xmlns="http://www.w3.org/2000/svg">
	<path d="m34.57 0h26.88a34.56 34.56 0 0134.56 34.56v26.88a34.56 34.56 0 01-34.56 34.56h-26.88a34.56 34.56 0 01-34.56-34.56v-26.88a34.56 34.56 0 0134.56-34.56z" fill="#f88d62"/>
	<path d="M25.221 19.151c-1.921.863-1.694 3.169 1.341 7.906.848 1.317 1.828 2.125 2.941 1.623 1.122-.502 1.318-1.898.887-3.45-1.592-5.726-3.24-6.941-5.169-6.079zM13.018 35.778c-.478 2.054 1.49 3.27 7.098 3.725 1.56.125 2.8-.165 3.074-1.357.275-1.192-.706-2.196-2.204-2.792-5.52-2.204-7.49-1.639-7.968.424zm3.208-9.231c-1.145 1.772.298 3.576 5.435 5.898 1.427.643 2.69.784 3.356-.243.667-1.036.071-2.306-1.137-3.373-4.462-3.937-6.509-4.062-7.654-2.282zm29.708-5.592c1.858 1.004 1.458 3.279-1.922 7.788-.941 1.255-1.976 1.984-3.059 1.404-1.082-.58-1.176-1.992-.627-3.506 2.023-5.592 3.757-6.69 5.608-5.686zm-9.027-3.717c2.086.322 2.478 2.596.808 7.976-.463 1.498-1.193 2.533-2.408 2.345-1.216-.189-1.773-1.475-1.773-3.09.024-5.937 1.287-7.553 3.373-7.231z" fill="#F4DD5C"/>
	<path d="m76.715 37.401c-.008-6.8-5.23-13.12-12.775-14.454-7.545-1.333-14.61 2.823-16.948 9.215-2.337 6.392-3.027 12.69-.745 15.842 2.282 3.153 7.121 5.31 12.18 6.196 5.058.894 10.336.517 13.56-1.663 3.23-2.172 4.736-8.337 4.728-15.136z" fill="#F5F1E3"/>
	<path d="M63.72 24.272s1.106-3.944 7.23-4.525c5.475-.517 8.486 4.047 8.565 8.47.078 4.423.133 8.894 1.859 11.552 1.984 3.043 5.238 1.13 5.238 1.13s.557 9.16-9.732 5.842c-5.427-1.749-8.988-10.101-8.988-10.101L63.72 24.272z" fill="#F7F3E1"/>
	<path d="m45.784 37.173s-2.4-1.043-3.905.87c-1.184 1.507-1.028 4.934 1.639 6.495 2.282 1.34 3.262.658 3.262.658l-.996-8.023zm30.351 5.373s2.611-.157 3.364 2.156c.596 1.82-.73 4.988-3.764 5.537-2.604.47-3.294-.502-3.294-.502l3.694-7.191z" fill="#F5F1E3"/>
	<path d="m66.975 44.357a2.157 2.157 0 100-4.314 2.157 2.157 0 000 4.314zm-12.462-2.204a2.157 2.157 0 100-4.313 2.157 2.157 0 000 4.313zm9.56 4.235c-.384-.282-.996-.314-1.506.243a4.535 4.535 0 00-.384.51c-.196.282-.377.549-.635.706-.502.298-1.232.415-1.914.298-.682-.118-1.325-.479-1.694-.934-.188-.235-.266-.548-.353-.878a4.2 4.2 0 00-.188-.604c-.282-.69-.87-.87-1.333-.745a1.115 1.115 0 00-.8 1.247c.133.816.541 1.6 1.184 2.275.635.666 1.71 1.192 2.87 1.395.37.063.745.095 1.106.095.777 0 1.506-.15 2.07-.424.832-.408 1.49-1.012 1.899-1.733a1.127 1.127 0 00-.322-1.45z" fill="#5E4537"/>
	<path d="m86.612 40.898s-3.254 1.914-5.238-1.129c-1.734-2.658-1.78-7.129-1.86-11.552-.078-4.423-3.09-8.987-8.563-8.47-3.882.369-5.74 2.079-6.588 3.294-.133-.031-.266-.063-.408-.094-7.544-1.333-14.61 2.816-16.947 9.2a41.558 41.558 0 00-1.475 4.932 4.72 4.72 0 00-.486-.125c.173.039.714.188 1.192.73l.58.658 1.53-4.713s2.125-.526 5.944.078c.604-2.227 1.451-4.188 3.396-5.498 0 0-1.043 1.522-1.757 5.56 5.2.244 10.368 2.055 10.368 2.055s.385-2.8 1.373-4.642c.008 3.388.07 3.082.212 5.113 3.96.972 5.983 1.921 5.983 1.921s.55.934 0 4.863c2.126-2.353 5.082-.612 5.608 1.74a4.288 4.288 0 01-.275 2.699c.032-.071.07-.134.094-.197 7.772 1.232 7.317-6.422 7.317-6.422z" fill="#5E4537"/>
	<path d="m46.741 56.717c-2.337-6.392-9.395-10.548-16.94-9.215-7.544 1.333-12.76 7.654-12.775 14.454-.016 6.8 1.49 12.963 4.721 15.136 3.224 2.18 8.51 2.549 13.56 1.662 5.058-.894 9.89-3.05 12.18-6.195 2.29-3.153 1.591-9.458-.746-15.842z" fill="#F5F1E3"/>
	<path d="m17.607 67.077s-2.612-.165-3.373 2.149c-.596 1.82.722 4.987 3.757 5.544 2.604.479 3.294-.494 3.294-.494l-3.678-7.2zm30.358-5.325s2.4-1.043 3.897.878c1.185 1.506 1.02 4.933-1.646 6.494-2.283 1.333-3.263.659-3.263.659l1.012-8.031z" fill="#F5F1E3"/>
	<path d="m39.236 66.716a2.157 2.157 0 100-4.313 2.157 2.157 0 000 4.313zm-12.469 2.18a2.157 2.157 0 100-4.313 2.157 2.157 0 000 4.313zm11.175.588c-.455-.125-1.043.047-1.333.737a4.535 4.535 0 00-.188.604c-.087.33-.165.643-.353.879-.369.454-1.02.815-1.702.933-.682.117-1.412.008-1.914-.298-.258-.157-.439-.424-.635-.706-.125-.18-.243-.36-.384-.51-.502-.557-1.114-.517-1.506-.243a1.13 1.13 0 00-.33 1.443c.408.722 1.06 1.318 1.89 1.733.675.338 1.428.424 2.048.424a7.17 7.17 0 001.129-.094c1.16-.204 2.235-.722 2.87-1.396.643-.675 1.051-1.459 1.192-2.275.102-.533-.25-1.082-.784-1.23z" fill="#5E4537"/>
	<path d="m48.71 61.54a3.53 3.53 0 00-.494.126 40.041 40.041 0 00-1.467-4.933c-2.33-6.392-9.395-10.548-16.932-9.23-7.544 1.325-12.767 7.638-12.783 14.437-.008 1.78.094 3.506.306 5.137a4.15 4.15 0 00-.534.063c.157-.024 1.326-.165 2.84.486-.557-5.882 2.203-9.529 2.203-9.529l3.514 2.596 3.113-4.478 4.172 2.988 2.95-4.243 3.881 3.302 2.345-3.294s3.631 3.333 5.13 7.96c.493-.815 1.144-1.207 1.756-1.388z" fill="#5E4537"/>
</svg>
