<svg viewBox="0 0 96 96" xmlns="http://www.w3.org/2000/svg">
	<path d="m34.57 0h26.88a34.56 34.56 0 0134.56 34.56v26.88a34.56 34.56 0 01-34.56 34.56h-26.88a34.56 34.56 0 01-34.56-34.56v-26.88a34.56 34.56 0 0134.56-34.56z" fill="#c0a971"/>
	<path d="M78.424 50.63v3.661a.858.858 0 01-.86.861h-1.84l-1.533 12.254a1.511 1.511 0 01-1.495 1.323H23.304c-.76 0-1.401-.563-1.495-1.323l-1.534-12.254h-1.839a.858.858 0 01-.86-.86v-3.663h11.816v2.802c0 .477.383.86.86.86h5.314c.477 0 .86-.383.86-.86v-2.802h23.132v2.802c0 .477.383.86.86.86h5.314c.477 0 .86-.383.86-.86v-2.802h11.832zm0-7.552v3.662H66.608v-3.16a.858.858 0 00-.86-.861h-5.314a.858.858 0 00-.86.86v3.162H36.442V43.58a.858.858 0 00-.86-.861h-5.314a.858.858 0 00-.86.86v3.162h-11.84v-3.662c0-.478.383-.86.86-.86h1.831l.79-6.472a1.505 1.505 0 011.495-1.323h12.067L35.307 24a1.728 1.728 0 011.722-1.612h21.918c.908 0 1.66.704 1.722 1.612l.697 10.423h12.066c.759 0 1.409.571 1.495 1.323l.79 6.471h1.831c.493 0 .876.391.876.86zm-21.973-8.655l-1.048-6.002s-2.763.752-7.403.752-7.403-.752-7.403-.752l-1.048 6.002H56.45z" fill="#F4DD5C"/>
	<path d="M35.542 54.315H30.23a.858.858 0 01-.86-.86v-9.876c0-.478.383-.861.86-.861h5.313c.478 0 .861.383.861.86v9.876a.858.858 0 01-.86.861zm30.229 0h-5.313a.858.858 0 01-.861-.86v-9.876c0-.478.383-.861.86-.861h5.314c.478 0 .86.383.86.86v9.876a.857.857 0 01-.86.861z" fill="#5E4537"/>
</svg>
