<svg viewBox="0 0 96 96" xmlns="http://www.w3.org/2000/svg">
	<path d="m34.57 0h26.88a34.56 34.56 0 0134.56 34.56v26.88a34.56 34.56 0 01-34.56 34.56h-26.88a34.56 34.56 0 01-34.56-34.56v-26.88a34.56 34.56 0 0134.56-34.56z" fill="#c1eb76"/>
	<path d="m48 80c17.673 0 32-14.327 32-32s-14.327-32-32-32-32 14.327-32 32 14.327 32 32 32z" fill="#45A74C"/>
	<path d="m47.265 27.013c-11.59.407-20.659 10.133-20.252 21.722.407 11.59 10.133 20.659 21.722 20.252 11.59-.407 20.659-10.133 20.252-21.722-.407-11.59-10.133-20.659-21.722-20.252z" fill="#DDEAC5"/>
	<path d="m60.973 50.693c-.293 2.453-1.427 4.933-3.533 6.186-.107.067-.787.413-.907.48a.1.1 0 01-.133-.133c.053-.12.44-.427.56-.72.653-1.547.186-3.334-.907-4.334-1.253-1.146-3.347-1.293-4.853-.48a4.248 4.248 0 00-2.134 4.48c.32 1.854 1.814 2.934 4.08 2.92.054 0 .08.067.027.094-1.387.947-6.093 1.08-9.133.72-2.907-.347-5.734-1.213-8.52-2.133-.227-.08-.574-.214-.574-.427 0-.12.16-.347.227-.453a21.086 21.086 0 002.027-5.494c.666-3.013.706-6.28 2.333-8.92 2.613-4.213 8.387-5.44 12.507-3.013.733.426 1.36 1.267 1.946 1.933.067.08.2.067.24-.04a22.303 22.303 0 001.787-6.547 6.75 6.75 0 013.307 1.974 26.543 26.543 0 00-4.027 5.466c-.067.107.013.24.133.267 1.76.214 3.374 1.307 4.36 2.8 1.054 1.56 1.4 3.52 1.187 5.373z" fill="#45A74C"/>
</svg>
