<svg viewBox="0 0 96 96" xmlns="http://www.w3.org/2000/svg">
	<path d="m34.57 0h26.88a34.56 34.56 0 0134.56 34.56v26.88a34.56 34.56 0 01-34.56 34.56h-26.88a34.56 34.56 0 01-34.56-34.56v-26.88a34.56 34.56 0 0134.56-34.56z" fill="#ce9ad6"/>
	<path d="m59.265 47.687-8.077-16.164a.632.632 0 00-1.153.055l-4.557 11.834a46.725 46.725 0 00-4.235-.196c-1.411 0-2.784.07-4.125.188l-3.89-11.771a.63.63 0 00-1.153-.102l-8.673 16.03c-4.486 2.863-7.239 7.129-7.239 12.783 0 11.372 11.12 17.12 25.08 17.12 13.952 0 25.08-5.748 25.08-17.12 0-5.584-2.69-9.795-7.058-12.657z" fill="#5E4537"/>
	<path d="m72.59 24.167c1.804 1.686.682 4.156-4.486 8.258-1.435 1.137-2.83 1.67-3.882.682-1.05-.98-.745-2.604.322-4.164 3.945-5.733 6.235-6.462 8.046-4.776zm7.184 11.615c.596 2.4-1.694 3.858-8.258 4.486-1.828.172-3.287-.142-3.632-1.538s.793-2.588 2.541-3.31c6.44-2.681 8.753-2.038 9.349.362zm-19.418-18.156c-2.44-.431-3.733 1.945-3.922 8.54-.054 1.836.361 3.263 1.78 3.514 1.42.251 2.534-.965 3.138-2.753 2.227-6.603 1.443-8.87-.996-9.3z" clip-rule="evenodd" fill="#FFE760" fill-rule="evenodd"/>
</svg>
