<svg viewBox="0 0 64 64" xmlns="http://www.w3.org/2000/svg">
	<path d="m30.51 19.44c-.01-2.86.41-9.41 4.35-12.21.11-.08.24-.12.37-.14l2.89-.36c.27-.03.54.08.7.3l2.86 3.74c.29.38.18.92-.24 1.14-1.75.94-5.79 3.6-6.89 8.58-.32 1.46-1.58 1.36-2.6 1.01a2.181 2.181 0 01-1.44-2.06z" fill="#FE837A"/>
	<path d="M52.64 26.59c-1.51-6.93-6.54-10.08-11.28-10.94a.447.447 0 00-.35.09c-.63.51-1.66 1.74-2.28 2.4-.24.25-.1.69.25.72 4 .28 2.48 3.73.5 4.19-2.41.56-2.34 1.99-4.77 1.62-2.51-.38-4.78.58-6.19-.8-1.38-1.35-1.55-1.17-2.91-1.57-1.99-.59-2.35-4.71 1.38-4.51a.4.4 0 00.41-.41c.02-.65.02-1.67.08-2.37.02-.26-.18-.49-.44-.47-6.47.4-14.19 2.4-16.18 13.59-.82 4.62.78 13.04 4.79 18.88 3.54 5.28 8.83 8.25 15.73 8.16 6.72-.09 12.08-2.45 15.78-7.24 4.85-6.13 6.81-15.26 5.48-21.34zM18.4 32.7c-1.74-.54-2.5-2.09-2.36-3.83.12-1.54 1.25-3.32 3.13-3.24 1.86.07 4.16 1.26 4.06 3.58-.11 2.34-2.8 4.12-4.83 3.49z" fill="#FE837A"/>
</svg>
