<svg viewBox="0 0 40 40" xmlns="http://www.w3.org/2000/svg">
	<path d="M14 10.293h12.113c4.707 0 8.524 3.816 8.528 8.523v1.793a8.524 8.524 0 01-8.524 8.524H23.473c-1.746 0-2.57 1.352-3.038 2.12-.185.304-.315.517-.423.517-.119 0-.299-.253-.548-.6-.557-.78-1.457-2.037-2.776-2.037H14a8.524 8.524 0 01-8.523-8.524v-1.793A8.524 8.524 0 0114 10.293zM22.129 20a2.129 2.129 0 11-4.258 0 2.129 2.129 0 014.258 0zm-9.625 2.129a2.129 2.129 0 100-4.258 2.129 2.129 0 000 4.258zM29.625 20a2.129 2.129 0 11-4.258 0 2.129 2.129 0 014.258 0z" clip-rule="evenodd" fill="#fff" fill-rule="evenodd"/>
</svg>
