<svg viewBox="0 0 1006 24" xmlns="http://www.w3.org/2000/svg">
	<path d="m1006 0h-1006v24c17.992 0 26.988-4.4 35.983-8.8 8.994-4.399 17.987-8.798 35.972-8.798 17.992 0 26.987 4.4 35.982 8.8 8.994 4.4 17.987 8.798 35.972 8.798 17.993 0 26.988-4.4 35.983-8.8 8.994-4.399 17.987-8.798 35.972-8.798 17.991 0 26.986 4.4 35.982 8.8 8.996 4.398 17.991 8.798 35.982 8.798 17.993 0 26.988-4.4 35.983-8.8 8.994-4.399 17.987-8.798 35.972-8.798 17.992 0 26.988 4.4 35.983 8.8 8.993 4.4 17.987 8.798 35.971 8.798 17.987 0 26.98-4.4 35.973-8.799 8.993-4.4 17.986-8.799 35.972-8.799 17.992 0 26.988 4.4 35.983 8.8 8.994 4.4 17.987 8.798 35.972 8.798s26.978-4.399 35.971-8.798c8.995-4.4 17.991-8.8 35.983-8.8 17.991 0 26.987 4.4 35.983 8.8 8.995 4.398 17.991 8.798 35.982 8.798 17.985 0 26.978-4.399 35.971-8.798 8.995-4.4 17.991-8.8 35.983-8.8 17.985 0 26.978 4.399 35.972 8.798 8.995 4.4 17.991 8.8 35.983 8.8s26.988-4.4 35.983-8.8c8.994-4.399 17.987-8.798 35.972-8.798 17.992 0 26.988 4.4 35.982 8.8 8.762 4.286 17.523 8.57 34.598 8.79v-23.992z" fill="currentColor"/>
</svg>
