<svg viewBox="0 0 575 24" xmlns="http://www.w3.org/2000/svg">
	<path d="M575 0H0v24c17.992 0 26.988-4.4 35.983-8.8 8.994-4.399 17.987-8.798 35.972-8.798 17.992 0 26.987 4.4 35.982 8.8 8.994 4.4 17.987 8.798 35.972 8.798 17.993 0 26.988-4.4 35.983-8.8 8.994-4.399 17.987-8.798 35.972-8.798 17.991 0 26.986 4.4 35.982 8.8C260.842 19.6 269.837 24 287.828 24c17.993 0 26.988-4.4 35.983-8.8 8.994-4.399 17.987-8.798 35.972-8.798 17.992 0 26.988 4.4 35.983 8.8 8.993 4.4 17.987 8.798 35.971 8.798 17.987 0 26.98-4.4 35.973-8.799 8.993-4.4 17.986-8.799 35.972-8.799 17.992 0 26.988 4.4 35.983 8.8 8.887 4.347 17.773 8.693 35.335 8.796V0z" fill="currentColor"/>
</svg>
