<svg viewBox="0 0 431 24" xmlns="http://www.w3.org/2000/svg">
	<path d="M431 0H0v24c17.992 0 26.988-4.4 35.983-8.8 8.994-4.399 17.987-8.798 35.972-8.798 17.992 0 26.987 4.4 35.982 8.8 8.994 4.4 17.987 8.798 35.972 8.798 17.993 0 26.988-4.4 35.983-8.8 8.994-4.399 17.987-8.798 35.972-8.798 17.991 0 26.986 4.4 35.982 8.8C260.842 19.6 269.837 24 287.828 24c17.993 0 26.988-4.4 35.983-8.8 8.994-4.399 17.987-8.798 35.972-8.798 17.992 0 26.988 4.4 35.983 8.8 8.87 4.339 17.739 8.677 35.234 8.796V0z" fill="currentColor"/>
</svg>
