<svg viewBox="0 -10 209 74" xmlns="http://www.w3.org/2000/svg">
	<path d="M31.295 2.24A2.24 2.24 0 0133.528 0h22.353a2.24 2.24 0 012.233 2.24v24.094c0 1.433-1.326 2.5-2.723 2.184l-10.205-2.27a2.233 2.233 0 00-.97 0l-10.206 2.27a2.238 2.238 0 01-2.723-2.184V2.24h.008z" fill="#F03C4A"/>
	<path d="m48.043 21.982a1.761 1.761 0 01-.765-1.456v-5.278h-6.038v5.278c0 .65-.324 1.148-.766 1.456a2.488 2.488 0 01-1.413.428c-.481 0-.994-.127-1.413-.428a1.761 1.761 0 01-.765-1.456v-14.148c0-.649.323-1.155.758-1.472.418-.3.939-.427 1.42-.427.482 0 .995.126 1.42.427.443.317.759.815.759 1.472v4.629h6.038v-4.63c0-.648.323-1.154.757-1.47.419-.302.94-.428 1.421-.428s.994.126 1.42.427c.443.317.758.815.758 1.472v14.156c0 .649-.323 1.148-.765 1.456a2.488 2.488 0 01-1.413.427c-.482-.008-1.002-.134-1.413-.435z" fill="#fff" clipRule="evenodd" fillRule="evenodd"/>
	<path d="M61.469 2.24A2.24 2.24 0 0163.702 0h22.353a2.24 2.24 0 012.233 2.24v24.094c0 1.433-1.326 2.5-2.723 2.184l-10.205-2.27a2.233 2.233 0 00-.97 0l-10.206 2.27a2.238 2.238 0 01-2.723-2.184V2.24h.008z" fill="#BAE143"/>
	<path d="m81.761 22.425c-.766 0-1.602-.372-2.013-1.282l-1.405-3.03h-6.787l-1.366 3.023c-.41.91-1.247 1.281-2.012 1.281-.987 0-2.242-.696-2.242-2.041 0-.293.063-.61.213-.918l6.07-13.23c.529-1.172 1.665-1.726 2.762-1.726 1.081 0 2.218.562 2.747 1.725l6.061 13.239a2.1 2.1 0 01.213.918c0 1.337-1.254 2.041-2.241 2.041zm-5.304-8.538-1.5-3.3-1.5 3.3h3z" fill="#fff" clipRule="evenodd" fillRule="evenodd"/>
	<path d="M91.643 2.24A2.24 2.24 0 0193.876 0h22.353a2.24 2.24 0 012.233 2.24v24.094c0 1.433-1.326 2.5-2.723 2.184l-10.205-2.27a2.234 2.234 0 00-.971 0l-10.205 2.27a2.238 2.238 0 01-2.723-2.184V2.24h.008z" fill="#F5AD35"/>
	<path d="M111.201 15.003c-1.129 1.155-2.826 1.788-5.075 1.788h-3.607v3.886a1.87 1.87 0 01-.758 1.527c-.426.324-.955.459-1.452.459a2.452 2.452 0 01-1.452-.46 1.87 1.87 0 01-.758-1.526V7.73c0-.863.213-1.646.781-2.216.569-.57 1.35-.783 2.21-.783h4.989c2.194 0 3.891.593 5.043 1.685 1.152 1.1 1.658 2.612 1.658 4.25.007 1.63-.45 3.189-1.579 4.336zm-8.682-5.966v3.45h3.591c.884 0 1.444-.238 1.768-.538.324-.293.497-.713.497-1.243 0-.514-.181-.902-.505-1.17-.331-.286-.9-.507-1.768-.507h-3.583v.008z" fill="#fff" clipRule="evenodd" fillRule="evenodd"/>
	<path d="M121.817 2.24A2.24 2.24 0 01124.05 0h22.353a2.24 2.24 0 012.233 2.24v24.094c0 1.433-1.326 2.5-2.723 2.184l-10.205-2.27a2.234 2.234 0 00-.971 0l-10.205 2.27a2.238 2.238 0 01-2.723-2.184V2.24h.008z" fill="#40D0B5"/>
	<path d="M141.754 15.003c-1.129 1.155-2.826 1.788-5.075 1.788h-3.607v3.886a1.87 1.87 0 01-.758 1.527c-.426.324-.955.459-1.452.459a2.451 2.451 0 01-1.452-.46 1.87 1.87 0 01-.758-1.526V7.73c0-.863.213-1.646.781-2.216.569-.57 1.35-.783 2.21-.783h4.988c2.195 0 3.892.593 5.044 1.685 1.152 1.1 1.657 2.612 1.657 4.25.016 1.63-.449 3.189-1.578 4.336zm-8.682-5.966v3.45h3.591c.884 0 1.444-.238 1.768-.538.324-.293.497-.713.497-1.243 0-.514-.181-.902-.505-1.17-.331-.286-.9-.507-1.768-.507h-3.583v.008z" fill="#fff" clipRule="evenodd" fillRule="evenodd"/>
	<path d="M151.991 2.24A2.24 2.24 0 01154.224 0h22.353a2.24 2.24 0 012.233 2.24v24.094c0 1.433-1.326 2.5-2.723 2.184l-10.205-2.27a2.234 2.234 0 00-.971 0l-10.205 2.27a2.238 2.238 0 01-2.723-2.184V2.24h.008z" fill="#6E4FB7"/>
	<path d="m165.827 11.331 4.278-5.966a2.062 2.062 0 011.689-.863c.568 0 1.112.222 1.531.57.418.348.75.886.75 1.535 0 .443-.142.855-.427 1.258v.008l-5.643 7.684v4.977c0 .649-.324 1.147-.766 1.456a2.486 2.486 0 01-1.412.427c-.482 0-.995-.126-1.413-.427a1.742 1.742 0 01-.766-1.456v-4.961l-5.643-7.708-.008-.008c-.245-.356-.418-.783-.418-1.226 0-1.282 1.184-2.144 2.257-2.144a2.05 2.05 0 011.697.886l4.294 5.958z" fill="#fff" clipRule="evenodd" fillRule="evenodd"/>
	<path d="M0 40.34a2.24 2.24 0 012.234-2.24h19.005a2.24 2.24 0 012.234 2.24v21.42a2.236 2.236 0 01-2.739 2.184l-8.5-1.962c-.332-.079-.671-.079-1.003 0L2.74 63.937A2.236 2.236 0 010 61.753V40.34z" fill="#E94975"/>
	<path d="M17.23 56.388c-1.066.854-2.573 1.203-4.365 1.203h-4.72c-.75 0-1.444-.19-1.941-.689-.505-.506-.687-1.203-.687-1.947v-9.97c0-.752.19-1.448.687-1.947.505-.506 1.2-.688 1.941-.688h4.405c1.68 0 3.085.317 4.088 1.068 1.042.784 1.523 1.947 1.523 3.363 0 .958-.284 1.852-.86 2.493.947.744 1.531 1.891 1.531 3.26-.008 1.638-.505 2.967-1.602 3.854zm-3.189-9.979c-.205-.118-.623-.229-1.413-.229H9.44v1.48h3.473c.623 0 .947-.135 1.104-.261.135-.103.222-.27.222-.57 0-.15-.024-.23-.048-.277a.434.434 0 00-.15-.143zm.442 5.302c-.292-.19-.805-.324-1.61-.324H9.432v2.358h3.441c.86 0 1.358-.166 1.626-.364.229-.166.37-.42.37-.855 0-.443-.141-.665-.386-.815z" fill="#fff" clipRule="evenodd" fillRule="evenodd"/>
	<path d="M26.504 40.34a2.24 2.24 0 012.233-2.24h19.006a2.24 2.24 0 012.234 2.24v21.42a2.236 2.236 0 01-2.739 2.184l-8.5-1.962c-.332-.079-.671-.079-1.003 0l-8.492 1.955a2.24 2.24 0 01-2.74-2.184V40.34z" fill="#3CD67B"/>
	<path d="M36.946 57.424c-.403-.277-.718-.728-.718-1.33V43.878c0-.601.3-1.068.71-1.353.387-.269.86-.388 1.294-.388.435 0 .908.111 1.295.388.41.285.71.752.71 1.353v12.218c0 .601-.316 1.052-.718 1.33-.387.26-.852.38-1.286.38-.435-.009-.9-.12-1.287-.38z" fill="#fff" clipRule="evenodd" fillRule="evenodd"/>
	<path d="M53.008 40.34a2.24 2.24 0 012.233-2.24h19.006a2.24 2.24 0 012.234 2.24v21.42a2.236 2.236 0 01-2.74 2.184l-8.5-1.962c-.331-.079-.67-.079-1.002 0l-8.493 1.955a2.24 2.24 0 01-2.738-2.184V40.34z" fill="#F3C639"/>
	<path d="M68.099 56.83c-.608-.933-.924-1.875-1.169-2.674-.055-.19-.11-.364-.157-.53-.166-.578-.3-1.02-.49-1.393-.094-.182-.315-.348-.544-.348h-3.386v4.083c0 .594-.26 1.076-.663 1.393-.38.3-.86.435-1.303.435-.442 0-.923-.134-1.302-.435a1.732 1.732 0 01-.663-1.393V44.985c0-.752.19-1.448.687-1.947.505-.506 1.2-.688 1.941-.688h4.736c1.736 0 3.197.356 4.239 1.155 1.073.823 1.602 2.05 1.602 3.537 0 1.512-.616 2.81-1.745 3.561.04.072.087.143.119.222v.016c.229.482.386 1.013.529 1.503.047.158.094.317.134.46.197.624.442 1.257.9 1.906.268.356.386.752.386 1.124 0 1.203-1.128 1.97-2.139 1.97-.631-.008-1.27-.309-1.712-.973zm-.695-10.341c-.276-.167-.758-.301-1.507-.301h-3.544v1.844h3.812c.6 0 .994-.159 1.223-.34a.833.833 0 00.332-.69c0-.213-.08-.371-.316-.513z" fill="#fff" clipRule="evenodd" fillRule="evenodd"/>
	<path d="M79.512 40.34a2.24 2.24 0 012.233-2.24h19.006a2.24 2.24 0 012.234 2.24v21.42a2.236 2.236 0 01-2.739 2.184l-8.5-1.962c-.332-.079-.672-.079-1.003 0l-8.5 1.962a2.24 2.24 0 01-2.74-2.183V40.34h.009z" fill="#F25F3A"/>
	<path d="M89.97 57.416a1.557 1.557 0 01-.727-1.329V46.22H86.6a1.597 1.597 0 01-1.326-.673 2.138 2.138 0 01-.394-1.258c0-.427.118-.886.394-1.258.292-.396.75-.673 1.326-.673h9.282c.584 0 1.042.277 1.326.673.276.372.395.839.395 1.258 0 .427-.119.886-.395 1.258a1.62 1.62 0 01-1.326.673h-2.644v9.875c0 .601-.316 1.053-.718 1.322-.379.26-.845.364-1.263.364-.434 0-.908-.103-1.287-.364z" fill="#fff" clipRule="evenodd" fillRule="evenodd"/>
	<path d="M106.015 40.34a2.24 2.24 0 012.234-2.24h19.006a2.24 2.24 0 012.233 2.24v21.42a2.236 2.236 0 01-2.738 2.184l-8.501-1.962a2.145 2.145 0 00-1.002 0l-8.501 1.962a2.239 2.239 0 01-2.738-2.183V40.34h.007z" fill="#66D569"/>
	<path d="M120.988 57.416a1.597 1.597 0 01-.695-1.321v-4.487h-5.067v4.487c0 .593-.3 1.044-.694 1.322-.379.268-.837.38-1.271.38-.426 0-.892-.111-1.271-.38a1.598 1.598 0 01-.694-1.322V43.838c0-.594.292-1.053.694-1.337a2.222 2.222 0 011.271-.388c.426 0 .892.11 1.271.388.402.284.694.743.694 1.337v3.925h5.067v-3.925c0-.594.292-1.053.695-1.337a2.22 2.22 0 011.271-.388c.426 0 .892.11 1.27.388.403.284.695.743.695 1.337v12.25c0 .593-.3 1.044-.695 1.32-.378.27-.836.38-1.27.38a2.187 2.187 0 01-1.271-.371z" fill="#fff" clipRule="evenodd" fillRule="evenodd"/>
	<path d="M132.519 40.34a2.24 2.24 0 012.234-2.24h19.006a2.24 2.24 0 012.233 2.24v21.42a2.236 2.236 0 01-2.739 2.184l-8.5-1.962a2.145 2.145 0 00-1.002 0l-8.501 1.962a2.24 2.24 0 01-2.739-2.183V40.34h.008z" fill="#F03C4A"/>
	<path d="m149.394 55.478c-1.35 1.369-3.283 2.105-5.62 2.105h-3.504c-.75 0-1.444-.19-1.942-.689-.505-.506-.694-1.203-.694-1.947v-9.962c0-.752.189-1.448.694-1.947.505-.506 1.2-.688 1.942-.688h3.291c2.368 0 4.341.815 5.73 2.208 1.382 1.385 2.139 3.292 2.139 5.396-.008 2.224-.694 4.155-2.036 5.524zm-7.83-9.298v7.565h2.226c1.208 0 2.123-.427 2.739-1.076.623-.657.987-1.607.987-2.722 0-2.232-1.737-3.767-3.876-3.767h-2.076z" fill="#fff" clipRule="evenodd" fillRule="evenodd"/>
	<path d="M159.023 40.34a2.24 2.24 0 012.234-2.24h19.006a2.24 2.24 0 012.233 2.24v21.42a2.236 2.236 0 01-2.739 2.184l-8.492-1.962a2.15 2.15 0 00-1.003 0l-8.492 1.962a2.236 2.236 0 01-2.739-2.183V40.34h-.008z" fill="#A39FD2"/>
	<path d="m176.656 57.796c-.687 0-1.445-.332-1.816-1.155l-1.192-2.572h-5.769l-1.16 2.564c-.371.823-1.121 1.155-1.816 1.155-.876 0-2.02-.625-2.02-1.843 0-.261.055-.546.197-.831l5.241-11.442c.473-1.045 1.484-1.543 2.462-1.543.963 0 1.974.498 2.447 1.543l5.241 11.442c.134.277.197.562.197.83.008 1.227-1.136 1.852-2.012 1.852zm-4.712-7.54-1.169-2.572-1.168 2.571h2.337z" fill="#fff" clipRule="evenodd" fillRule="evenodd"/>
	<path d="M185.527 40.34a2.24 2.24 0 012.234-2.24h19.005A2.24 2.24 0 01209 40.34v21.42a2.236 2.236 0 01-2.739 2.184l-8.492-1.962a2.15 2.15 0 00-1.003 0l-8.492 1.962a2.236 2.236 0 01-2.739-2.183V40.34h-.008z" fill="#43BA80"/>
	<path d="m197.232 47.984 3.631-5.072a1.846 1.846 0 011.523-.776c.505 0 1.002.198 1.373.507.379.316.679.8.679 1.392 0 .404-.126.776-.387 1.132v.008l-4.862 6.623v4.281c0 .593-.3 1.045-.694 1.322-.379.269-.837.38-1.271.38-.426 0-.892-.111-1.271-.38a1.598 1.598 0 01-.694-1.322v-4.257l-4.862-6.647-.008-.008c-.221-.316-.379-.704-.379-1.108 0-1.163 1.066-1.938 2.036-1.938.545 0 1.137.237 1.532.799l3.654 5.064z" fill="#fff" clipRule="evenodd" fillRule="evenodd"/>
</svg>
