<svg viewBox="0 0 112 100" xmlns="http://www.w3.org/2000/svg">
	<path d="m3.13602 51.6067c.04985.1922.19939.4628.32756.6052 0 0 .65513.7121 2.69882.7335 1.55947.0142 4.0304-1.3103 4.0304-1.3103.1709-.0925.2706-.3204.2279-.5126l-.9827-3.8524c-.04984-.1923-.22074-.2564-.38452-.1496 0 0-1.63069 1.0824-3.95921.8901-1.70902-.1424-2.87684-.9542-2.87684-.9542-.16378-.1139-.24923-.0498-.20651.1425l1.1251 4.4078z" fill="#3CD67B"/>
	<path d="m98.4504 59.8816c.0637.2455.2546.591.4182.7728 0 0 .8365.9091 3.4454.9364 1.991.0182 5.146-1.6728 5.146-1.6728.218-.1182.346-.4092.291-.6546l-1.254-4.9186c-.064-.2455-.282-.3273-.491-.1909 0 0-2.082 1.3819-5.055 1.1364-2.1824-.1818-3.6734-1.2182-3.6734-1.2182-.2091-.1455-.3182-.0637-.2637.1818l1.4365 5.6277z" fill="#3CD67B"/>
	<path d="m3.61605 92.1895c-.20398-.1581-.17673-.3907.05257-.5076 0 0 .67966-.3522 1.37284-2.2239.69317-1.8718.75947-3.2396.75947-3.2396.01454-.2598.23048-.4549.49031-.4404l5.37016.3173c.2598.0146.4702.2413.4734.4954 0 0 .0234 3.6472-1.5799 6.4359-1.29152 2.2449-1.75833 2.6974-1.75833 2.6974-.18862.1823-.50308.1932-.70706.0351l-4.47346-3.5696z" fill="#F3C639"/>
	<path d="m90.8351 41.3665c-.1676-.1622-.1202-.3683.0973-.4508 0 0 .6453-.2492 1.4527-1.8621s1.0019-2.835 1.0019-2.835c.0387-.2319.252-.3859.4839-.3472l4.7925.8151c.2319.0387.3985.2632.3763.4918 0 0-.339 3.2783-2.0544 5.6251-1.3817 1.8889-1.8457 2.2493-1.8457 2.2493-.1874.1452-.471.1239-.6386-.0382l-3.6659-3.648z" fill="#40B6D0"/>
	<path d="m81.1402 11.2543c-.1681.0062-.2927.1495-.2677.3176 0 0 .2677 1.9244-.0436 3.4626-.3052 1.5382-.8034 2.7153-.8034 2.7153-.0685.1556.0062.2304.1619.1619 0 0 .9466-.4111 2.9457-.2616s3.612.3488 3.612.3488c.1682.0186.3114-.1059.3176-.2741 0 0 .0685-2.9955-.0062-4.6894s-.0498-1.7873-.0498-1.7873c.0436-.1619-.0561-.274-.2242-.2429 0 0-1.3327.2491-2.927.2304-1.7936-.0187-2.7153.0187-2.7153.0187z" fill="#3CD67B"/>
	<path d="m3.2504 20.3231c-.18703.0139-.29093.1801-.23552.3602 0 0 .51953 1.5794 1.31615 2.854.69963 1.1152 2.11275 2.7154 2.11275 2.7154.12469.1455.38099.2286.56802.194 0 0 1.96036-.3949 3.3388-1.0322 1.3785-.6442 3.0272-1.7802 3.0272-1.7802.1593-.1109.1662-.2979.0138-.4157 0 0-1.6417-1.2953-2.5976-2.7777-1.02523-1.5932-1.30924-2.2513-1.30924-2.2513-.0762-.1732-.27708-.2425-.44333-.1455 0 0-2.09197 1.2053-3.19338 1.6625-1.1014.4572-2.59765.6165-2.59765.6165z" fill="#E94975"/>
	<path d="m93.2312 7.14518c-.1727.0128-.2686.16631-.2175.33262 0 0 .4798 1.4584 1.2154 2.6354.646 1.0298 1.9509 2.5074 1.9509 2.5074.1152.1343.3518.2111.5245.1791 0 0 1.8103-.3646 3.0832-.9531 1.2733-.5949 2.7953-1.6439 2.7953-1.6439.147-.1023.153-.27504.013-.38379 0 0-1.516-1.19614-2.399-2.56499-.9466-1.47119-1.2089-2.07886-1.2089-2.07886-.0704-.15991-.2559-.22387-.4094-.13432 0 0-1.9317 1.11299-2.9488 1.53516-1.017.42216-2.3987.56928-2.3987.56928z" fill="#E94975"/>
	<path d="m30.8999 10.1525c.1448-.1188.1341-.31439-.0147-.42964 0 0-1.3327-.99139-2.7164-1.57446-1.2128-.50869-3.2874-1.00317-3.2874-1.00317-.1855-.04713-.4427.03236-.5755.16821 0 0-1.3743 1.44988-2.1339 2.76316-.7556 1.319-1.449 3.1951-1.449 3.1951-.0664.1821.0355.3389.2277.3475 0 0 2.086.114 3.7193.7752 1.7537.7119 2.3642 1.0862 2.3642 1.0862.1618.0976.3657.0387.4458-.1362 0 0 1.0157-2.1876 1.6525-3.1944.6368-1.0069 1.7674-1.9975 1.7674-1.9975z" fill="#F3C639"/>
	<path d="m99.738 20.5877c-.0414-.1718-.2118-.243-.3708-.1639 0 0-1.3888.7242-2.452 1.6594-.9299.8208-2.2015 2.3789-2.2015 2.3789-.1162.1381-.1543.3891-.0936.5577 0 0 .6666 1.762 1.4696 2.9461.8094 1.183 2.1174 2.5421 2.1174 2.5421.1273.1311.3023.109.3885-.0506 0 0 .9533-1.7241 2.1854-2.8392 1.324-1.1964 1.893-1.561 1.893-1.561.149-.0972.183-.2946.067-.4343 0 0-1.44-1.7606-2.033-2.7146s-.97-2.3206-.97-2.3206z" fill="#F3C639"/>
	<path d="m13.2219 62.7531c-.0506-.2097-.2587-.2966-.4527-.2001 0 0-1.6956.8842-2.99356 2.026-1.13524 1.002-2.68773 2.9043-2.68773 2.9043-.14184.1686-.18838.475-.11419.6808 0 0 .81373 2.1512 1.7941 3.5968.98823 1.4444 2.58498 3.1036 2.58498 3.1036.1555.1601.3691.1331.4743-.0618 0 0 1.164-2.1048 2.6681-3.4662 1.617-1.4607 2.3108-1.9058 2.3108-1.9058.1824-.1187.2235-.3596.0825-.5302 0 0-1.7581-2.1495-2.4824-3.3142-.7243-1.1648-1.1842-2.8332-1.1842-2.8332z" fill="#E94975"/>
	<path d="m13 29.0565s.3069 3.0864.5848 4.1518c.278 1.0655.6717 2.7447 1.0655 3.0805.3937.3359 2.0151 1.2334 2.8026 1.6272.7875.3937 1.6792.9496 1.905.7296.2259-.2259-.9496-1.963-1.3434-3.1906-.3937-1.2392-.4516-1.8587-.6774-2.3625-.2201-.5038-.7354-.6891-1.8298-1.6098-1.0134-.8454-2.3336-2.8431-2.5073-2.4262z" fill="#40B6D0"/>
</svg>
