<svg viewBox="0 0 32 40" xmlns="http://www.w3.org/2000/svg">
	<path d="m31.0777 13.7867c.7456-1.6794.1199-3.6286-1.4826-4.61185.1971-1.82736-.9941-3.48938-2.8195-3.91576-.3685-1.80125-2.0139-3.01079-3.8736-2.84546-.8999-1.601107-2.8195-2.23633-4.4735-1.479283-.0257.008701-.0514.008701-.0686-.008702-1.3369-1.23564-3.3594-1.23564-4.7734.008702-1.654-.757047-3.5736-.121824-4.54204 1.514093-1.81682-.20014-3.4451 1.0094-3.86502 2.86286-1.77397.37417-2.96519 2.03619-2.80236 3.93316-1.576863.91364-2.202466 2.86284-1.465454 4.62064-1.216926 1.3574-1.216926 3.4197.00857 4.8468-.745581 1.6794-.119979 3.6286 1.491164 4.6119-.19711 1.8273.99411 3.4894 2.81949 3.9157.17997.8963.67703 1.6447 1.35405 2.1494l-1.11409 1.9578c-.41992.7397-.42849 1.6273-.03428 2.3843.40279.7484 1.1398 1.2269 1.97108 1.2792l1.63685.0957.89984 1.3922c.4456.6962 1.1912 1.1052 2.0054 1.1052h.0685c.8399-.0261 1.594-.4786 2.0139-1.2183l1.9625-3.4545 1.9626 3.4545c.4199.7397 1.174 1.1922 2.0139 1.2183.8313.0261 1.6197-.3829 2.0739-1.0965l.9084-1.3922 1.6369-.0957c.8398-.0435 1.5768-.5221 1.9796-1.2792.4028-.7483.3856-1.6446-.0343-2.3843l-1.1226-1.9752c.677-.5047 1.1826-1.2705 1.3883-2.1842 1.774-.3741 2.9652-2.0362 2.8023-3.9331 1.5769-.9137 2.2025-2.8629 1.4655-4.6206 1.2426-1.3662 1.2426-3.4198.0086-4.8556z" fill="#F5F1E3"/>
	<path d="m17.2033 2.22282c-.677-.62652-1.7139-.62652-2.3995 0-.5228.4873-1.2855.60912-1.9283.31326-.8398-.38287-1.8254-.06091-2.2796.74835-.3513.62652-1.03692.98329-1.73965.90497-.91698-.10442-1.75683.5134-1.94536 1.42708-.14569.70484-.68559 1.26174-1.37976 1.40097-.89984.19144-1.5083 1.0442-1.41403 1.96658.07713.71354-.27424 1.40967-.89127 1.76647-.797.4612-1.12266 1.4619-.73701 2.3146.29138.6614.1714 1.4271-.30852 1.9579-.61703.6874-.61703 1.7403 0 2.4365.47992.5308.5999 1.3052.30852 1.9579-.37708.8527-.05999 1.8534.73701 2.3146.61703.3568.9684 1.0529.89127 1.7664-.10284.9311.50562 1.7839 1.40546 1.9666.69417.148 1.24264.6962 1.37976 1.401.18853.9137 1.02839 1.5315 1.93679 1.4271.11141-.0087.22282-.0174.32566-.0087l-.81414 1.4271-.07713.1392-1.32833 2.332c-.2571.4525.04285 1.0181.55704 1.0529l2.49384.148 1.37975 2.1232c.2828.4351.917.4177 1.1741-.0348l1.3283-2.3408.0771-.1392 1.3712-2.4104c.4285.1741.917.1741 1.3455-.0087l1.3712 2.4104.0771.1392 1.3283 2.3321c.2571.4525.8913.4699 1.1741.0348l1.3798-2.1232 2.5024-.148c.5142-.0261.8141-.6004.557-1.0529l-1.3283-2.3407-.0771-.1392-.8142-1.4271c.1029-.0087.2057 0 .3.0087.9169.1044 1.7568-.5134 1.9368-1.4271.1457-.7048.6856-1.2617 1.3797-1.401.8999-.1914 1.5083-1.0442 1.4055-1.9666-.0771-.7135.2742-1.4096.8913-1.7664.797-.4612 1.1226-1.4619.737-2.3146-.2914-.6614-.1714-1.4271.3085-1.9579.617-.6875.617-1.7404 0-2.4365-.4799-.5308-.5999-1.3053-.3085-1.9579.377-.8527.06-1.8534-.737-2.3146-.6171-.3568-.9684-1.05293-.8913-1.76647.1028-.93108-.5056-1.78385-1.4055-1.96658-.6941-.14793-1.2426-.69614-1.3797-1.40098-.1886-.91367-1.0284-1.53149-1.9368-1.42707-.7028.07831-1.3884-.27846-1.7397-.90498-.4542-.80926-1.4398-1.13992-2.2796-.74834-.6342.31326-1.3969.19143-1.9197-.28716z" fill="#F15E87" clipRule="evenodd" fillRule="evenodd"/>
	<path d="m24.5138 33.2702-2.5024.148-1.3798 2.1232c-.2828.4351-.917.4177-1.1741-.0348l-1.3283-2.3321-.0771-.1392-2.0397-3.5938-2.0396 3.5938-.0771.1392-1.3284 2.3408c-.2571.4525-.8912.4699-1.174.0348l-1.3798-2.1232-2.49383-.148c-.51419-.0261-.81414-.6004-.55704-1.0529l1.32833-2.332.07713-.1392 3.90791-6.8831-1.5426-2.7149c-.3085-.5395-.1457-1.2095.3599-1.5054l3.7879-2.2189c.3599-.2089.8056-.1654 1.1398.0696.3342-.2437.7713-.2872 1.1398-.0696l3.7879 2.2189c.5056.2959.6599.9746.3599 1.5054l-1.5425 2.7149 3.9078 6.8744.0772.1392 1.3283 2.3407c.2571.4438-.0514 1.0181-.5656 1.0442z" fill="#E94975" clipRule="evenodd" fillRule="evenodd"/>
	<path d="m14.8052 2.22282c.677-.62652 1.714-.62652 2.3995 0 .5228.4873 1.2855.60912 1.9283.31326.8398-.38287 1.8254-.06091 2.2796.74835.3513.62652 1.0369.98329 1.7397.90497.9169-.10442 1.7568.5134 1.9368 1.42708.1456.70484.6855 1.26175 1.3797 1.40097.8998.19144 1.5083 1.0442 1.4055 1.96658-.0772.71354.2742 1.40967.8912 1.76647.797.4612 1.1227 1.4619.7371 2.3146-.2914.6614-.1714 1.4271.3085 1.9579.617.6874.617 1.7403 0 2.4365-.4799.5308-.5999 1.3052-.3085 1.9579.377.8527.0599 1.8534-.7371 2.3146-.617.3568-.9684 1.0529-.8912 1.7665.1028.931-.5057 1.7838-1.4055 1.9665-.6942.148-1.2426.6962-1.3797 1.401-.1886.9137-1.0284 1.5315-1.9368 1.4271-.7028-.0783-1.3884.2784-1.7397.905-.4542.8092-1.4398 1.1399-2.2796.7483-.6513-.2959-1.4055-.174-1.9283.3133-.677.6265-1.7139.6265-2.3995 0-.5228-.4873-1.2855-.6092-1.9282-.3133-.8399.3829-1.8254.0609-2.2796-.7483-.3514-.6266-1.037-.9833-1.73973-.905-.91698.1044-1.75683-.5134-1.9368-1.4271-.14569-.7048-.68559-1.2617-1.37975-1.401-.89984-.1914-1.5083-1.0442-1.40546-1.9665.07712-.7136-.27424-1.4097-.89127-1.7665-.797-.4612-1.12266-1.4619-.73702-2.3146.29138-.6614.1714-1.4271-.30851-1.9579-.61703-.6875-.61703-1.7404 0-2.4365.47991-.5308.59989-1.3052.30851-1.9579-.37707-.8527-.05998-1.8534.73702-2.3146.61703-.3568.96839-1.05293.89127-1.76647-.11141-.92238.49705-1.77514 1.39689-1.96658.69416-.14793 1.24263-.69613 1.37975-1.40097.18854-.91368 1.02839-1.5315 1.9368-1.42708.70273.07832 1.3883-.27845 1.7397-.90497.4542-.80926 1.4397-1.13992 2.2796-.74835.6513.28716 1.414.16533 1.9368-.31326z" fill="#F5AD35"/>
	<g fill="#F5F1E3">
		<path d="m16.4407 12.5516h-1.8426s0-1.4097.06-1.8709c.06-.4437.5571-.4786.8656-.4786s.9255 0 .9255.4786c-.0085.4003-.0085 1.8709-.0085 1.8709z"/>
		<path d="m15.5837 9.83635c-.8655 0-.9255-.44379-.557-1.24434.3257-.66133.3685-.75705.5056-.75705s.12.03481.4285.71354c.2914.63522.5485 1.28785-.3771 1.28785z"/>
		<path d="m12.7556 12.5516h-1.8425s0-1.4097.06-1.8709c.06-.4437.557-.4786.8655-.4786.3086 0 .9256 0 .9256.4786-.0086.4003-.0086 1.8709-.0086 1.8709z"/>
		<path d="m11.8901 9.83635c-.8655 0-.9255-.44379-.557-1.24434.3257-.66133.3771-.75705.5056-.75705.12 0 .12.03481.4285.71354.2914.63522.5571 1.28785-.3771 1.28785z"/>
		<path d="m18.4719 12.5516h1.8426s0-1.4097-.06-1.8709c-.06-.4437-.5571-.4786-.8656-.4786s-.9255 0-.9255.4786c.0085.4003.0085 1.8709.0085 1.8709z"/>
		<path d="m19.3374 9.83635c.8656 0 .9256-.44379.557-1.24434-.3085-.66133-.377-.75705-.497-.75705s-.12.03481-.4285.71354c-.2999.63522-.557 1.28785.3685 1.28785z"/>
		<path d="m10.0818 17.2679c.4542-.3306 1.0199-.7396 2.0911-.7396s1.6369.409 2.0911.7396c.3942.2785.6513.4699 1.2512.4699s.8655-.174 1.2512-.4699c.4542-.3306 1.0198-.7396 2.091-.7396 1.0713 0 1.6369.409 2.0911.7396.3942.2785.6513.4699 1.2512.4699.4028 0 .8827-.2523 1.1912-.4351.1885-.1131.2914-.3045.2914-.5047.0085-1.1834.0085-2.158 0-2.4103-.06-.7223-.6685-1.4967-1.4998-1.7404-.8484-.2436-2.2538-.583-6.4017-.6004-5.1676-.0261-6.43597.3568-7.29296.7223-.52276.2001-.77129 1.1399-.77129 1.6794 0 .2262.03428 1.3487.00857 2.5757 0 .2262.11998.4612.33423.5482.20568.1044.42849.1653.76272.1653.60846 0 .86556-.1914 1.25973-.4699z"/>
		<path d="m19.7401 18.2074c-.36-.2784-.5913-.4699-1.1484-.4699-.557 0-.7884.1741-1.1484.4699-.4199.3307-.9341.7397-1.9196.7397-.9684 0-1.4997-.409-1.9197-.7397-.3428-.2784-.5742-.4699-1.1312-.4699s-.7884.1915-1.1484.4699c-.4199.3307-.9341.7397-1.91105.7397-.27424 0-.50563-.0261-.70273-.087-.16283-.0348-.30852.1044-.30852.2784 0 .905.00857 1.6533.05142 1.9666.11141 1.0181.81414 1.8187 1.43974 1.8187.53994 0 1.36264-.0087 5.44184-.0087 0 0 5.819.0348 6.1618 0 .5999-.061 1.2683-.3394 1.3883-.8789.12-.5569.0857-1.5228.1114-2.9847 0-.1914-.2228-.3307-.3856-.2697-.2742.1044-.5742.1653-.9684.1653-.9684 0-1.4826-.4177-1.9025-.7397z"/>
	</g>
</svg>
