<svg viewBox="0 0 80 96" xmlns="http://www.w3.org/2000/svg">
	<path d="m64.157 86.941-6.997.42-3.857 5.847c-.79 1.201-2.575 1.148-3.295-.098l-3.719-6.44-.224-.389-5.716-9.9-5.717 9.903-.224.388-3.721 6.445c-.72 1.247-2.505 1.3-3.293.094l-3.862-5.85-6.992-.417c-1.435-.084-2.282-1.656-1.562-2.903l3.718-6.44.224-.388 10.955-18.974-4.319-7.48c-.855-1.483-.41-3.346 1.002-4.162l10.605-6.123c1.015-.585 2.253-.467 3.187.199.932-.665 2.167-.783 3.184-.196l10.605 6.123c1.408.813 1.858 2.679 1.002 4.16l-4.317 7.479 10.953 18.971.224.388 3.721 6.445c.72 1.247-.127 2.82-1.565 2.898z" fill="#FF544C"/>
	<path d="m36.643 1.298a4.99 4.99 0 016.714 0 4.99 4.99 0 005.41.857 4.99 4.99 0 016.385 2.075 4.99 4.99 0 004.88 2.486 4.99 4.99 0 015.432 3.947 4.99 4.99 0 003.873 3.873 4.99 4.99 0 013.947 5.432 4.99 4.99 0 002.486 4.88 4.99 4.99 0 012.075 6.385 4.99 4.99 0 00.857 5.41 4.99 4.99 0 010 6.714 4.99 4.99 0 00-.857 5.41 4.99 4.99 0 01-2.075 6.385 4.99 4.99 0 00-2.486 4.88 4.99 4.99 0 01-3.947 5.432 4.99 4.99 0 00-3.873 3.873 4.99 4.99 0 01-5.432 3.947 4.99 4.99 0 00-4.88 2.486 4.99 4.99 0 01-6.385 2.075 4.99 4.99 0 00-5.41.857 4.99 4.99 0 01-6.714 0 4.99 4.99 0 00-5.41-.857 4.99 4.99 0 01-6.385-2.075 4.99 4.99 0 00-4.88-2.486 4.99 4.99 0 01-5.432-3.947 4.99 4.99 0 00-3.873-3.873 4.99 4.99 0 01-3.947-5.432 4.99 4.99 0 00-2.486-4.88 4.99 4.99 0 01-2.075-6.385 4.99 4.99 0 00-.857-5.41 4.99 4.99 0 010-6.714 4.99 4.99 0 00.857-5.41 4.99 4.99 0 012.075-6.385 4.99 4.99 0 002.486-4.88 4.99 4.99 0 013.947-5.432 4.99 4.99 0 003.873-3.873 4.99 4.99 0 015.432-3.947 4.99 4.99 0 004.88-2.486 4.99 4.99 0 016.385-2.075 4.99 4.99 0 005.41-.857z" fill="#FAC83A"/>
	<path d="m37.146 7.103a4.242 4.242 0 015.708 0 4.242 4.242 0 004.598.729 4.242 4.242 0 015.428 1.763 4.241 4.241 0 004.147 2.114 4.242 4.242 0 014.618 3.354 4.242 4.242 0 003.291 3.292 4.242 4.242 0 013.355 4.618 4.241 4.241 0 002.114 4.147 4.242 4.242 0 011.763 5.428 4.242 4.242 0 00.728 4.598 4.242 4.242 0 010 5.708 4.242 4.242 0 00-.728 4.598 4.242 4.242 0 01-1.763 5.428 4.241 4.241 0 00-2.114 4.147 4.242 4.242 0 01-3.355 4.618 4.242 4.242 0 00-3.291 3.291 4.242 4.242 0 01-4.618 3.355 4.241 4.241 0 00-4.147 2.114 4.242 4.242 0 01-5.428 1.763 4.242 4.242 0 00-4.598.728 4.242 4.242 0 01-5.708 0 4.242 4.242 0 00-4.598-.728 4.242 4.242 0 01-5.428-1.763 4.241 4.241 0 00-4.147-2.114 4.242 4.242 0 01-4.618-3.355 4.242 4.242 0 00-3.292-3.291 4.242 4.242 0 01-3.354-4.618 4.241 4.241 0 00-2.114-4.147 4.242 4.242 0 01-1.763-5.428 4.242 4.242 0 00-.729-4.598 4.242 4.242 0 010-5.708 4.242 4.242 0 00.729-4.598 4.242 4.242 0 011.763-5.428 4.241 4.241 0 002.114-4.147 4.242 4.242 0 013.354-4.618 4.242 4.242 0 003.292-3.292 4.242 4.242 0 014.618-3.354 4.241 4.241 0 004.147-2.114 4.242 4.242 0 015.428-1.763 4.242 4.242 0 004.598-.729z" fill="#FFE395"/>
	<g fill="#FFEFC0">
		<path d="m37.65 12.909a3.493 3.493 0 014.7 0 3.493 3.493 0 003.787.6 3.493 3.493 0 014.47 1.452 3.493 3.493 0 003.416 1.74c1.79-.197 3.436 1 3.802 2.763a3.493 3.493 0 002.71 2.71 3.493 3.493 0 012.764 3.803 3.493 3.493 0 001.74 3.416 3.493 3.493 0 011.453 4.47 3.493 3.493 0 00.6 3.787 3.493 3.493 0 010 4.7 3.493 3.493 0 00-.6 3.787 3.493 3.493 0 01-1.453 4.47 3.493 3.493 0 00-1.74 3.416c.197 1.79-1 3.436-2.763 3.802a3.493 3.493 0 00-2.71 2.71 3.493 3.493 0 01-3.803 2.764 3.493 3.493 0 00-3.416 1.74 3.493 3.493 0 01-4.47 1.453 3.493 3.493 0 00-3.787.6 3.493 3.493 0 01-4.7 0 3.493 3.493 0 00-3.787-.6 3.493 3.493 0 01-4.47-1.453 3.493 3.493 0 00-3.416-1.74c-1.79.197-3.436-1-3.802-2.763a3.493 3.493 0 00-2.71-2.71 3.493 3.493 0 01-2.764-3.803 3.493 3.493 0 00-1.74-3.416 3.493 3.493 0 01-1.453-4.47 3.493 3.493 0 00-.6-3.787 3.493 3.493 0 010-4.7 3.493 3.493 0 00.6-3.787 3.493 3.493 0 011.453-4.47 3.493 3.493 0 001.74-3.416 3.493 3.493 0 012.763-3.802 3.493 3.493 0 002.71-2.71 3.493 3.493 0 013.803-2.764 3.493 3.493 0 003.416-1.74 3.493 3.493 0 014.47-1.453 3.493 3.493 0 003.787-.6z"/>
		<path d="m37.65 12.909a3.493 3.493 0 014.7 0 3.493 3.493 0 003.787.6 3.493 3.493 0 014.47 1.452 3.493 3.493 0 003.416 1.74c1.79-.197 3.436 1 3.802 2.763a3.493 3.493 0 002.71 2.71 3.493 3.493 0 012.764 3.803 3.493 3.493 0 001.74 3.416 3.493 3.493 0 011.453 4.47 3.493 3.493 0 00.6 3.787 3.493 3.493 0 010 4.7 3.493 3.493 0 00-.6 3.787 3.493 3.493 0 01-1.453 4.47 3.493 3.493 0 00-1.74 3.416c.197 1.79-1 3.436-2.763 3.802a3.493 3.493 0 00-2.71 2.71 3.493 3.493 0 01-3.803 2.764 3.493 3.493 0 00-3.416 1.74 3.493 3.493 0 01-4.47 1.453 3.493 3.493 0 00-3.787.6 3.493 3.493 0 01-4.7 0 3.493 3.493 0 00-3.787-.6 3.493 3.493 0 01-4.47-1.453 3.493 3.493 0 00-3.416-1.74c-1.79.197-3.436-1-3.802-2.763a3.493 3.493 0 00-2.71-2.71 3.493 3.493 0 01-2.764-3.803 3.493 3.493 0 00-1.74-3.416 3.493 3.493 0 01-1.453-4.47 3.493 3.493 0 00-.6-3.787 3.493 3.493 0 010-4.7 3.493 3.493 0 00.6-3.787 3.493 3.493 0 011.453-4.47 3.493 3.493 0 001.74-3.416 3.493 3.493 0 012.763-3.802 3.493 3.493 0 002.71-2.71 3.493 3.493 0 013.803-2.764 3.493 3.493 0 003.416-1.74 3.493 3.493 0 014.47-1.453 3.493 3.493 0 003.787-.6z"/>
		<path d="m37.65 12.909a3.493 3.493 0 014.7 0 3.493 3.493 0 003.787.6 3.493 3.493 0 014.47 1.452 3.493 3.493 0 003.416 1.74c1.79-.197 3.436 1 3.802 2.763a3.493 3.493 0 002.71 2.71 3.493 3.493 0 012.764 3.803 3.493 3.493 0 001.74 3.416 3.493 3.493 0 011.453 4.47 3.493 3.493 0 00.6 3.787 3.493 3.493 0 010 4.7 3.493 3.493 0 00-.6 3.787 3.493 3.493 0 01-1.453 4.47 3.493 3.493 0 00-1.74 3.416c.197 1.79-1 3.436-2.763 3.802a3.493 3.493 0 00-2.71 2.71 3.493 3.493 0 01-3.803 2.764 3.493 3.493 0 00-3.416 1.74 3.493 3.493 0 01-4.47 1.453 3.493 3.493 0 00-3.787.6 3.493 3.493 0 01-4.7 0 3.493 3.493 0 00-3.787-.6 3.493 3.493 0 01-4.47-1.453 3.493 3.493 0 00-3.416-1.74c-1.79.197-3.436-1-3.802-2.763a3.493 3.493 0 00-2.71-2.71 3.493 3.493 0 01-2.764-3.803 3.493 3.493 0 00-1.74-3.416 3.493 3.493 0 01-1.453-4.47 3.493 3.493 0 00-.6-3.787 3.493 3.493 0 010-4.7 3.493 3.493 0 00.6-3.787 3.493 3.493 0 011.453-4.47 3.493 3.493 0 001.74-3.416 3.493 3.493 0 012.763-3.802 3.493 3.493 0 002.71-2.71 3.493 3.493 0 013.803-2.764 3.493 3.493 0 003.416-1.74 3.493 3.493 0 014.47-1.453 3.493 3.493 0 003.787-.6z"/>
		<path d="m37.65 12.909a3.493 3.493 0 014.7 0 3.493 3.493 0 003.787.6 3.493 3.493 0 014.47 1.452 3.493 3.493 0 003.416 1.74c1.79-.197 3.436 1 3.802 2.763a3.493 3.493 0 002.71 2.71 3.493 3.493 0 012.764 3.803 3.493 3.493 0 001.74 3.416 3.493 3.493 0 011.453 4.47 3.493 3.493 0 00.6 3.787 3.493 3.493 0 010 4.7 3.493 3.493 0 00-.6 3.787 3.493 3.493 0 01-1.453 4.47 3.493 3.493 0 00-1.74 3.416c.197 1.79-1 3.436-2.763 3.802a3.493 3.493 0 00-2.71 2.71 3.493 3.493 0 01-3.803 2.764 3.493 3.493 0 00-3.416 1.74 3.493 3.493 0 01-4.47 1.453 3.493 3.493 0 00-3.787.6 3.493 3.493 0 01-4.7 0 3.493 3.493 0 00-3.787-.6 3.493 3.493 0 01-4.47-1.453 3.493 3.493 0 00-3.416-1.74c-1.79.197-3.436-1-3.802-2.763a3.493 3.493 0 00-2.71-2.71 3.493 3.493 0 01-2.764-3.803 3.493 3.493 0 00-1.74-3.416 3.493 3.493 0 01-1.453-4.47 3.493 3.493 0 00-.6-3.787 3.493 3.493 0 010-4.7 3.493 3.493 0 00.6-3.787 3.493 3.493 0 011.453-4.47 3.493 3.493 0 001.74-3.416 3.493 3.493 0 012.763-3.802 3.493 3.493 0 002.71-2.71 3.493 3.493 0 013.803-2.764 3.493 3.493 0 003.416-1.74 3.493 3.493 0 014.47-1.453 3.493 3.493 0 003.787-.6z"/>
		<path d="m38.154 18.714a2.745 2.745 0 013.692 0c.81.736 1.979.921 2.976.471a2.745 2.745 0 013.512 1.141 2.745 2.745 0 002.684 1.368 2.745 2.745 0 012.987 2.17 2.745 2.745 0 002.13 2.13 2.745 2.745 0 012.171 2.988 2.745 2.745 0 001.368 2.684 2.745 2.745 0 011.14 3.512 2.744 2.744 0 00.472 2.976 2.745 2.745 0 010 3.692 2.744 2.744 0 00-.471 2.976 2.745 2.745 0 01-1.141 3.512 2.745 2.745 0 00-1.368 2.684 2.745 2.745 0 01-2.17 2.987 2.745 2.745 0 00-2.13 2.13 2.745 2.745 0 01-2.988 2.171 2.745 2.745 0 00-2.684 1.368 2.745 2.745 0 01-3.512 1.14 2.744 2.744 0 00-2.976.472 2.745 2.745 0 01-3.692 0 2.744 2.744 0 00-2.976-.471 2.745 2.745 0 01-3.512-1.141 2.745 2.745 0 00-2.684-1.368 2.745 2.745 0 01-2.987-2.17 2.745 2.745 0 00-2.13-2.13 2.745 2.745 0 01-2.171-2.988 2.745 2.745 0 00-1.368-2.684 2.745 2.745 0 01-1.14-3.512 2.744 2.744 0 00-.472-2.976 2.745 2.745 0 010-3.692c.736-.81.921-1.979.471-2.976a2.745 2.745 0 011.141-3.512 2.745 2.745 0 001.368-2.684 2.745 2.745 0 012.17-2.987 2.745 2.745 0 002.13-2.13 2.745 2.745 0 012.988-2.171 2.745 2.745 0 002.684-1.368 2.745 2.745 0 013.512-1.14c.997.449 2.166.264 2.976-.472z"/>
		<path d="m38.154 18.714a2.745 2.745 0 013.692 0c.81.736 1.979.921 2.976.471a2.745 2.745 0 013.512 1.141 2.745 2.745 0 002.684 1.368 2.745 2.745 0 012.987 2.17 2.745 2.745 0 002.13 2.13 2.745 2.745 0 012.171 2.988 2.745 2.745 0 001.368 2.684 2.745 2.745 0 011.14 3.512 2.744 2.744 0 00.472 2.976 2.745 2.745 0 010 3.692 2.744 2.744 0 00-.471 2.976 2.745 2.745 0 01-1.141 3.512 2.745 2.745 0 00-1.368 2.684 2.745 2.745 0 01-2.17 2.987 2.745 2.745 0 00-2.13 2.13 2.745 2.745 0 01-2.988 2.171 2.745 2.745 0 00-2.684 1.368 2.745 2.745 0 01-3.512 1.14 2.744 2.744 0 00-2.976.472 2.745 2.745 0 01-3.692 0 2.744 2.744 0 00-2.976-.471 2.745 2.745 0 01-3.512-1.141 2.745 2.745 0 00-2.684-1.368 2.745 2.745 0 01-2.987-2.17 2.745 2.745 0 00-2.13-2.13 2.745 2.745 0 01-2.171-2.988 2.745 2.745 0 00-1.368-2.684 2.745 2.745 0 01-1.14-3.512 2.744 2.744 0 00-.472-2.976 2.745 2.745 0 010-3.692c.736-.81.921-1.979.471-2.976a2.745 2.745 0 011.141-3.512 2.745 2.745 0 001.368-2.684 2.745 2.745 0 012.17-2.987 2.745 2.745 0 002.13-2.13 2.745 2.745 0 012.988-2.171 2.745 2.745 0 002.684-1.368 2.745 2.745 0 013.512-1.14c.997.449 2.166.264 2.976-.472z"/>
		<path d="m38.154 18.714a2.745 2.745 0 013.692 0c.81.736 1.979.921 2.976.471a2.745 2.745 0 013.512 1.141 2.745 2.745 0 002.684 1.368 2.745 2.745 0 012.987 2.17 2.745 2.745 0 002.13 2.13 2.745 2.745 0 012.171 2.988 2.745 2.745 0 001.368 2.684 2.745 2.745 0 011.14 3.512 2.744 2.744 0 00.472 2.976 2.745 2.745 0 010 3.692 2.744 2.744 0 00-.471 2.976 2.745 2.745 0 01-1.141 3.512 2.745 2.745 0 00-1.368 2.684 2.745 2.745 0 01-2.17 2.987 2.745 2.745 0 00-2.13 2.13 2.745 2.745 0 01-2.988 2.171 2.745 2.745 0 00-2.684 1.368 2.745 2.745 0 01-3.512 1.14 2.744 2.744 0 00-2.976.472 2.745 2.745 0 01-3.692 0 2.744 2.744 0 00-2.976-.471 2.745 2.745 0 01-3.512-1.141 2.745 2.745 0 00-2.684-1.368 2.745 2.745 0 01-2.987-2.17 2.745 2.745 0 00-2.13-2.13 2.745 2.745 0 01-2.171-2.988 2.745 2.745 0 00-1.368-2.684 2.745 2.745 0 01-1.14-3.512 2.744 2.744 0 00-.472-2.976 2.745 2.745 0 010-3.692c.736-.81.921-1.979.471-2.976a2.745 2.745 0 011.141-3.512 2.745 2.745 0 001.368-2.684 2.745 2.745 0 012.17-2.987 2.745 2.745 0 002.13-2.13 2.745 2.745 0 012.988-2.171 2.745 2.745 0 002.684-1.368 2.745 2.745 0 013.512-1.14c.997.449 2.166.264 2.976-.472z"/>
	</g>
	<path d="m38.154 18.714a2.745 2.745 0 013.692 0c.81.736 1.979.921 2.976.471a2.745 2.745 0 013.512 1.141 2.745 2.745 0 002.684 1.368 2.745 2.745 0 012.987 2.17 2.745 2.745 0 002.13 2.13 2.745 2.745 0 012.171 2.988 2.745 2.745 0 001.368 2.684 2.745 2.745 0 011.14 3.512 2.744 2.744 0 00.472 2.976 2.745 2.745 0 010 3.692 2.744 2.744 0 00-.471 2.976 2.745 2.745 0 01-1.141 3.512 2.745 2.745 0 00-1.368 2.684 2.745 2.745 0 01-2.17 2.987 2.745 2.745 0 00-2.13 2.13 2.745 2.745 0 01-2.988 2.171 2.745 2.745 0 00-2.684 1.368 2.745 2.745 0 01-3.512 1.14 2.744 2.744 0 00-2.976.472 2.745 2.745 0 01-3.692 0 2.744 2.744 0 00-2.976-.471 2.745 2.745 0 01-3.512-1.141 2.745 2.745 0 00-2.684-1.368 2.745 2.745 0 01-2.987-2.17 2.745 2.745 0 00-2.13-2.13 2.745 2.745 0 01-2.171-2.988 2.745 2.745 0 00-1.368-2.684 2.745 2.745 0 01-1.14-3.512 2.744 2.744 0 00-.472-2.976 2.745 2.745 0 010-3.692c.736-.81.921-1.979.471-2.976a2.745 2.745 0 011.141-3.512 2.745 2.745 0 001.368-2.684 2.745 2.745 0 012.17-2.987 2.745 2.745 0 002.13-2.13 2.745 2.745 0 012.988-2.171 2.745 2.745 0 002.684-1.368 2.745 2.745 0 013.512-1.14c.997.449 2.166.264 2.976-.472z" fill="#FDF6E3"/>
	<path d="M40 75c19.33 0 35-15.67 35-35S59.33 5 40 5 5 20.67 5 40s15.67 35 35 35z" fill="#F8ECC9"/>
	<path d="m71.217 49.262-12.747 9.958.05.71-.569-.304-16.52 12.907c14.135-.61 25.932-10.235 29.786-23.271zm-6.198 2.835-6.99.754.31 4.465 6.68-5.22zm2.938-13.121-4.044 5.76 2.117 6.572 5.822-4.548a32.706 32.706 0 00-.105-13.974l-5.626 4.395 1.836 1.795zm-3.187-14.093-2.329 8.7 2.534 2.478 6.342-4.954a32.401 32.401 0 00-4.957-10.187l-4.515 3.528 2.925.435zm-9.07-1.348 3.986.592 5.715-4.466a32.746 32.746 0 00-8.463-7.447l-4.8 3.75 3.562 7.57zm-35.246 29.315-5.883-2.478 3.187-6.004-.905-.834-7.932 6.197a32.418 32.418 0 005.183 10.01l5.87-4.587.48-2.304zm-8.824-14.12 6.251-5.516-2.299-4.758-7.657 5.983a32.673 32.673 0 00-.477 5.574c0 2.785.35 5.49 1.009 8.07l7.216-5.637-4.042-3.717zm10.663-13.48.261-2.238-3.148 2.46 2.887-.222zm9.069-5.76 4.045-6.004 8.285 6.618 2.59-1.57 9.178-7.171a32.317 32.317 0 00-13.112-3.814l-14.43 11.274 3.444.667zm-17.035 6.374 2.227-.17 6.26-4.89.339-2.906 2.707.525 14.023-10.958c-15.173.055-27.898 10.487-31.448 24.57l6.443-5.035-.551-1.136z" fill="#CBF55F"/>
	<g fill="#fff">
		<path d="m22.178 57.876c-.168.264-.43.432-.665.512a3.663 3.663 0 01-.655.162c-.421.067-.819.093-1.188.162-.372.063-.702.18-.923.378-.043.058-.105.104-.138.173-.02.032-.04.063-.058.097l-.043.11c-.035.067-.048.165-.074.247a2.11 2.11 0 00-.039.257c-.028.339.04.676.23.957a1.833 1.833 0 00.55.531c.076.046.14.072.218.106.327.115.716.164 1.096.188.384.022.775.015 1.162-.015a6.016 6.016 0 001.132-.186c.089-.026.175-.054.253-.088a.484.484 0 00.106-.052c.032-.017.063-.033.097-.065.065-.058.14-.106.199-.17.056-.068.123-.126.173-.197.212-.277.339-.618.39-.975a3.097 3.097 0 00-.204-1.61 1.42 1.42 0 00-.251-.42c-.21-.236-.547-.44-.882-.61-.099-.05-.2-.095-.302-.14 0 .21-.05.443-.184.648zm17.623-.841c.002.003.005.003.007.003 0 0-.02-.011-.007-.003zm18.624.757c-.028.08-.048.162-.091.235-.08.151-.197.281-.322.37-.127.097-.255.144-.382.198a4.257 4.257 0 01-.674.156c-.433.069-.85.101-1.212.192-.368.089-.661.24-.82.508-.088.127-.131.296-.18.482a2.127 2.127 0 00-.053.544c.013.359.126.707.344.977.108.131.236.257.374.317l.108.05.131.039c.085.03.184.045.277.067.385.073.793.104 1.2.119s.818-.003 1.224-.03a7.92 7.92 0 001.195-.167c.09-.026.192-.043.27-.078.039-.015.086-.028.121-.045a1.13 1.13 0 01.088-.048l.195-.164c.047-.067.108-.125.151-.194.175-.277.22-.633.173-.998a3.705 3.705 0 00-.346-1.092 5.991 5.991 0 00-.283-.516c-.101-.16-.22-.34-.324-.445-.25-.246-.594-.469-.937-.67-.063-.036-.128-.069-.193-.103l.002.054a2.185 2.185 0 01-.036.242zm-16.539.92c-.032-.082-.078-.153-.117-.227-.043-.063-.084-.125-.142-.186-.227-.25-.54-.484-.858-.693-.1-.067-.203-.128-.307-.192a1.36 1.36 0 01-.294.622c-.188.218-.423.35-.648.44-.24.09-.43.128-.63.173-.787.165-1.543.31-1.889.84a1.627 1.627 0 00-.21.442 2.185 2.185 0 00-.09.503c-.022.333.069.652.261.918.193.262.484.488.789.581.33.108.713.156 1.093.18.38.021.767.015 1.15-.018.38-.032.762-.088 1.101-.194.173-.06.275-.112.413-.238.07-.05.123-.116.18-.18.06-.057.103-.13.15-.202.182-.285.284-.629.316-.983.03-.357.004-.728-.09-1.08a3.593 3.593 0 00-.178-.506z"/>
		<path d="m65.45 59.527s-1.91-.018-2.514-.482c-.705-.54-1.286-1.128-1.262-2.269.007-.365.169-1.093.482-1.881a59.03 59.03 0 00-1.724-.305l-.275.925-.306 1.032a.486.486 0 01-.443.348l-.37.02c.009.004.018.01.026.015.365.242.724.488 1.059.845.181.203.283.382.402.576.114.193.211.391.304.595.182.406.322.84.37 1.307.047.46-.011.985-.292 1.419-.07.106-.158.199-.238.296-.095.08-.188.16-.287.238-.063.034-.125.069-.188.101-.06.028-.117.043-.173.065-.117.045-.222.063-.335.093a8.653 8.653 0 01-1.294.168 14.16 14.16 0 01-1.285.024 8.673 8.673 0 01-1.3-.119c-.111-.023-.221-.038-.336-.077l-.17-.05-.18-.08c-.244-.114-.425-.294-.581-.482a2.298 2.298 0 01-.493-1.348 3.19 3.19 0 01.057-.704c.03-.115.043-.22.09-.344l.065-.177c.026-.058.06-.115.09-.173.13-.224.325-.43.545-.56.216-.136.45-.226.67-.285.447-.123.87-.16 1.262-.24.194-.038.376-.088.544-.148.14-.06.225-.134.25-.201.036-.063.033-.186-.01-.33a1.342 1.342 0 00-.09-.224l-.061-.11-.007-.01-1.043.054a.488.488 0 01-.508-.553l.06-.454.195-1.44.076-.56c-1.761-.182-3.593-.323-5.47-.427 1.276 1.21 1.84 3.325 1.816 4.043-.034 1.02-.229 2.169-1.112 2.856-.882.685-2.723.57-2.723.57s-1.758.158-2.718-.52c-.782-.553-1.389-1.217-1.363-2.45.017-.832.767-3.405 2.258-4.665-1.73-.056-3.48-.088-5.228-.106l-.05.821-.065 1.076a.487.487 0 01-.352.439l-2.884.83a.487.487 0 01-.62-.424l-.044-.456-.136-1.445-.08-.851-1.17.006c-.981.007-1.977.017-2.978.037 1.361 1.207 1.893 3.508 1.84 4.254-.07 1.006-.308 2.136-1.207 2.782-.899.644-2.713.463-2.713.463s-1.562.095-2.846-.741c-.795-.519-1.15-1.132-1.078-2.35.046-.772.789-3.043 2.141-4.3-2.087.078-4.163.194-6.17.367l.039.698.06 1.076a.49.49 0 01-.298.477l-.637.266.047.024c.186.095.368.198.549.309.181.108.359.229.532.363.175.13.345.278.503.468.155.197.266.415.337.623.078.21.132.423.166.637.07.43.082.869.007 1.303-.143.858-.702 1.75-1.642 1.985-.415.121-.826.178-1.238.216a9.172 9.172 0 01-1.242.029c-.417-.024-.837-.065-1.27-.212a2.228 2.228 0 01-.325-.154 2.316 2.316 0 01-.743-.704 2.136 2.136 0 01-.357-1.333c.018-.233.052-.445.132-.672l.065-.17c.026-.057.06-.11.09-.165.057-.112.15-.203.232-.3.372-.357.836-.501 1.249-.586.419-.086.82-.13 1.19-.21.184-.036.36-.086.506-.146a.52.52 0 00.268-.214.477.477 0 00.036-.324 1.186 1.186 0 00-.056-.212c-.015-.037-.028-.071-.045-.106l-.011-.021-1.113.464a.488.488 0 01-.665-.347l-.095-.448-.303-1.42-.155-.73c-.383.055-.759.11-1.13.17.168.373.272.697.3.902.128.936.128 2.016-.572 2.779-.7.762-2.396.944-2.396.944s-.69.175-1.565.118a32.717 32.717 0 003.637 4.168c.643.065 1.27.205 1.912.35 1.18.266 2.4.542 3.93.378 1.3-.138 2.398-.527 3.46-.9 1.628-.575 3.31-1.167 5.598-.787 1.584.263 2.92 1.283 4.334 2.361 1.967 1.5 3.997 3.049 6.903 2.712 2.636-.307 3.172-.927 3.848-1.714.625-.723 1.333-1.547 3.57-2.214 2.845-.851 4.178.114 5.15.819.691.501 1.15.832 1.964.557.825-.276 1.25-.54 1.629-.773.706-.437 1.22-.694 2.817-.646a32.738 32.738 0 003.563-4.012c-.348.013-.594 0-.594 0zm-22.665.836c-.078.862-.564 1.789-1.497 2.117-.422.134-.83.195-1.243.233-.41.037-.823.048-1.236.029-.414-.024-.83-.065-1.257-.201a2.24 2.24 0 01-1.108-.802 2.078 2.078 0 01-.41-1.322c.001-.234.049-.454.1-.67.07-.218.15-.439.288-.64.257-.412.692-.693 1.098-.846.412-.162.814-.247 1.192-.348.184-.048.383-.104.514-.16a.86.86 0 00.325-.23.537.537 0 00.11-.323c.004-.063-.005-.132-.013-.201-.009-.035-.013-.07-.024-.104-.004-.017-.01-.032-.015-.05l-.009-.021-.006-.015a.455.455 0 01.114-.486.456.456 0 01.508-.046l.026.015.032.022.065.043.13.084.255.173c.168.117.335.236.5.361.327.255.651.514.95.862.075.087.142.19.205.296.052.104.108.205.144.31.087.207.14.416.19.626.083.423.117.857.072 1.294z"/>
		<path d="m21.634 56.925c.002.003.006.003.01.003h-.002l-.008-.003z"/>
	</g>
	<path d="m11.218 55.214a.338.338 0 00.022.04l.01-.05a.191.191 0 01-.032.01zm30.525-2.733-.008.156-.017.274-.026.434c1.748.016 3.498.05 5.228.106.194-.164.402-.306.62-.419.367-.188.77-.296 1.208-.29.52.01.983.158 1.391.403.223.131.43.293.62.475 1.878.104 3.712.244 5.47.425l.059-.436.058-.43c-4.49-.467-9.493-.652-14.602-.698zm-22.737 1.418-.09-.424c-.473.065-.934.134-1.379.205a7.148 7.148 0 01.428.806c.372-.058.748-.114 1.13-.168l-.088-.42zm41.664-.156a.44.44 0 01-.02.101l-.06.201-.037.123-.125.422c.59.095 1.162.196 1.724.304a7.948 7.948 0 01.374-.817c-.601-.12-1.221-.233-1.856-.334zm-23.248-.839-.038-.419v-.013l-1.098.007c-5.014.035-9.346.205-13.054.52v.02l.024.41.024.422c2.007-.173 4.085-.29 6.17-.367.184-.171.376-.322.582-.448.453-.28.96-.443 1.52-.412.435.023.824.147 1.174.337.211.116.406.257.587.419 1-.018 1.997-.03 2.977-.037l1.171-.006-.038-.433zm22.245 11.281a6.862 6.862 0 01-1.63.773c-.816.274-1.272-.056-1.963-.557-.972-.705-2.305-1.67-5.15-.82-2.237.67-2.946 1.492-3.57 2.215-.678.787-1.212 1.407-3.848 1.714-2.906.339-4.939-1.213-6.903-2.712-1.415-1.078-2.75-2.098-4.333-2.361-2.288-.38-3.971.212-5.598.786-1.063.374-2.16.763-3.461.901-1.53.164-2.75-.112-3.93-.378-.642-.145-1.266-.285-1.912-.35a38.294 38.294 0 001.158 1.067 32.433 32.433 0 0021.473 8.09 32.434 32.434 0 0022.03-8.591c.154-.14.305-.28.456-.426-1.598-.047-2.113.212-2.82.649z" fill="#F8C63A"/>
	<path d="m18.265 55.387c-.028-.205-.13-.53-.3-.903a9.745 9.745 0 00-.197-.402 7.895 7.895 0 00-.23-.404c-.73-1.184-1.965-2.426-3.53-2.186-1.647.252-2.45 2.158-2.76 3.711l-.01.05c.062.119.127.24.192.359a32.528 32.528 0 002.303 3.614c.875.059 1.564-.119 1.564-.119s1.696-.181 2.396-.944c.7-.76.7-1.84.572-2.776zm-2.417 2.063c-.547.214-.95-.832-.404-1.022s.957.806.404 1.022zm.075-1.668c-.39.139-.68-.533-.29-.656.392-.121.686.516.29.656zm1.139 1c-.48.189-.834-.73-.354-.896.48-.164.84.709.354.897z" fill="#FB98B1"/>
	<path d="m15.848 57.45c.553-.216.142-1.212-.404-1.022-.547.19-.143 1.236.404 1.022zm1.214-.667c.486-.19.125-1.063-.354-.897-.48.169-.126 1.085.354.897zm-1.139-1.001c.398-.138.102-.777-.29-.656-.392.123-.103.793.29.657z" fill="#F6E8C6"/>
	<path d="m33.315 53.38a3.31 3.31 0 00-.587-.419 2.735 2.735 0 00-1.173-.337c-.56-.03-1.068.132-1.521.413a3.939 3.939 0 00-.582.447c-1.352 1.257-2.095 3.526-2.14 4.3-.072 1.218.285 1.834 1.078 2.35 1.283.836 2.845.74 2.845.74s1.815.182 2.713-.461c.9-.644 1.137-1.776 1.208-2.783.054-.741-.477-3.042-1.84-4.25zm-1.739 5.745c-.557.188-.91-.877-.354-1.041.555-.165.918.85.354 1.04zm1.268-1.694c-.563.195-.922-.907-.358-1.078.564-.17.931.881.358 1.078zm.934 1.603c-.547-.045-.456-1.089.082-1.024.536.065.47 1.07-.082 1.024z" fill="#FB98B1"/>
	<path d="m31.576 59.125c.564-.19.201-1.206-.354-1.042-.555.165-.203 1.23.354 1.042zm2.202-.091c.553.045.618-.96.082-1.024-.538-.067-.629.978-.082 1.024zm-.934-1.604c.57-.198.206-1.248-.358-1.077-.562.17-.205 1.274.358 1.078z" fill="#F6E8C6"/>
	<path d="m65.455 51.8c-1.325-.021-2.299 1.08-2.928 2.276a8.843 8.843 0 00-.2.408 6.594 6.594 0 00-.173.408c-.314.789-.474 1.517-.482 1.882-.024 1.14.56 1.728 1.262 2.269.605.464 2.514.481 2.514.481s.247.015.599 0c.35-.466.687-.942 1.013-1.428-.477-.062-.428-.996.067-.957.188.015.303.156.348.324.194-.306.385-.616.568-.929.071-.123.145-.244.216-.367a37.451 37.451 0 00.534-.974c-.415-1.403-1.482-3.362-3.338-3.392zm-.69 5.877c-.57-.136-.304-1.227.253-1.07.558.158.325 1.21-.252 1.07zm2.392-1.925a.633.633 0 01-.21.376.391.391 0 01-.345.076.395.395 0 01-.292-.285.712.712 0 01.02-.44c.063-.178.19-.323.359-.351a.365.365 0 01.166.008.413.413 0 01.18.106c.124.121.16.322.122.51z" fill="#FB98B1"/>
	<g fill="#F6E8C6">
		<path d="m65.018 56.608c-.557-.156-.823.933-.252 1.07.576.14.81-.913.252-1.07zm1.835-1.476a.366.366 0 00-.167-.009c.117.037.234.074.348.113a.44.44 0 00-.181-.104zm-.253 1.072a.39.39 0 00.346-.076c-.207-.071-.421-.14-.637-.21a.402.402 0 00.291.286z"/>
		<path d="m66.328 55.478c.283.088.56.18.83.272.036-.188.001-.389-.124-.514-.114-.039-.231-.076-.348-.112-.168.03-.294.177-.358.354z"/>
		<path d="m66.31 55.918c.217.067.428.139.638.21a.634.634 0 00.21-.376c-.27-.095-.547-.186-.83-.272a.727.727 0 00-.017.438zm.817 1.222c-.495-.04-.544.896-.067.956.14-.21.279-.421.415-.635-.043-.166-.16-.307-.348-.322z"/>
	</g>
	<path d="m50.761 53.62a3.551 3.551 0 00-.62-.476 2.784 2.784 0 00-1.391-.401 2.536 2.536 0 00-1.208.289c-.22.112-.425.255-.62.42-1.49 1.259-2.24 3.832-2.258 4.664-.026 1.233.581 1.897 1.364 2.45.959.68 2.718.52 2.718.52s1.838.115 2.722-.57c.883-.685 1.078-1.837 1.112-2.856.022-.715-.542-2.83-1.819-4.04zm-1.646 5.995c-.622.13-.862-1.059-.246-1.162.618-.104.875 1.03.246 1.162zm.935-2.24c-.574.097-.816-.9-.246-.975.57-.078.828.875.246.975zm1.446 2.095c-.545.113-.756-.927-.214-1.017.54-.093.767.903.214 1.017z" fill="#FB98B1"/>
	<path d="m49.115 59.615c.629-.13.372-1.266-.246-1.162-.616.104-.374 1.29.246 1.162zm2.381-.145c.55-.114.326-1.108-.214-1.017-.54.088-.328 1.13.214 1.017zm-1.446-2.095c.582-.1.325-1.053-.246-.975-.57.076-.328 1.072.246.975z" fill="#F6E8C6"/>
	<path d="m20.904 52.062c2.462-.59 2.082-1.837 1.916-2.642-.292-1.418-1.942-3.701-3.172-3.366-1.385.378-1.78 3.305-1.672 4.012.154.996.383 2.605 2.928 1.996zm-1.005-3.744c.635-.136 1.84 1.534 1.823 2.32-.017.787-1.564 1.098-2.167.687-.605-.41-.13-2.906.344-3.007z" fill="#FBB635"/>
	<path d="m19.555 51.325c.605.41 2.152.1 2.167-.687.017-.786-1.188-2.456-1.823-2.32-.473.101-.949 2.597-.344 3.007z" fill="#F8C82E"/>
	<path d="m39.449 51.386c2.532-.072 2.416-1.368 2.42-2.193.006-1.448-1.139-4.02-2.411-3.947-1.435.084-2.422 2.867-2.461 3.582-.056 1.007-.164 2.631 2.452 2.558zm-.214-3.872c.65-.002 1.487 1.88 1.307 2.647-.18.765-1.756.754-2.262.227-.505-.527.473-2.872.955-2.874z" fill="#FBB635"/>
	<path d="m40.545 50.16c.179-.764-.657-2.648-1.308-2.646-.483.002-1.462 2.346-.955 2.874.506.527 2.083.54 2.263-.227z" fill="#F8C82E"/>
	<path d="m58.904 52.464c2.524.225 2.558-1.076 2.66-1.895.175-1.436-.661-4.126-1.934-4.202-1.434-.084-2.74 2.565-2.862 3.269-.173.996-.471 2.595 2.136 2.828zm.24-3.87c.646.074 1.255 2.042.99 2.781-.266.74-1.833.542-2.275-.039-.441-.583.805-2.795 1.285-2.741z" fill="#FBB635"/>
	<path d="m60.133 51.375c.266-.739-.343-2.707-.99-2.78-.479-.054-1.725 2.158-1.285 2.741.443.584 2.01.78 2.275.039z" fill="#F8C82E"/>
	<path d="m19.648 56.912a.487.487 0 00.666.348l1.112-.464-.015-.03-.013-.024-.006-.011-.009-.017a.441.441 0 01-.043-.158.468.468 0 01.1-.322.45.45 0 01.495-.114l.025.01.037.018.07.034.141.07.232.118.637-.266c.19-.08.311-.27.298-.477l-.06-1.076-3.768 1.914.101.447z" fill="#6FE6A7"/>
	<path d="m22.159 56.333.006.013-.002-.004c-.013-.026-.002-.004-.004-.009zm1.073-3.333-.01-.192a.486.486 0 00-.55-.456l-3.363.434a.489.489 0 00-.415.586l.022.101.09.424.089.417.156.73 1.946-.99 1.05-.533.988-.502-.003-.019z" fill="#6FE6A7"/>
	<path d="m23.28 53.85-.022-.42-.024-.411-.987.501-1.05.534-1.947.99.303 1.421 3.768-1.916-.041-.698z" fill="#FFF7F6"/>
	<path d="m55.901 56.497a.488.488 0 00.508.553l1.044-.053-.026-.041-.018-.024-.008-.011-.022-.035a.452.452 0 01.043-.497.455.455 0 01.502-.114l.036.015.005.002.008.005.037.019.071.039.143.078.28.16c.18.103.355.211.53.321l.37-.019a.488.488 0 00.442-.348l.307-1.033-4.191.532-.06.451z" fill="#6FE6A7"/>
	<path d="m58.123 56.446.004.006c-.013-.02 0 .003-.005-.006zm2.164-3.217-3.314-.726a.487.487 0 00-.588.41l-.036.266-.059.43-.058.436-.076.562 2.342-.296 1.638-.207.454-.059.06-.2a.487.487 0 00-.363-.616z" fill="#6FE6A7"/>
	<path d="m60.138 54.102-1.64.207-2.34.296-.196 1.439 4.193-.53.275-.924.125-.421.037-.124-.454.057z" fill="#FFF7F6"/>
	<path d="m37.723 56.09a.487.487 0 00.62.423l2.884-.83a.487.487 0 00.352-.439l.065-1.075-3.962 1.466.04.454zm3.532-4.18-3.392.044a.488.488 0 00-.48.52v.014l.04.419.04.432.08.851 2.306-.853 1.16-.428.728-.27.009-.156.004-.054a.49.49 0 00-.495-.518z" fill="#6FD3E5"/>
	<path d="m41.007 52.907-1.158.428-2.305.853.136 1.446 3.962-1.467.05-.821.026-.435.017-.274-.728.27z" fill="#FFF7F6"/>
	<path d="m22.191 56.402-.02-.045-.004-.01a.477.477 0 01.035.124l.017-.006-.028-.063z" fill="#F8C63A"/>
	<path d="m65.618 32.497a.882.882 0 00.18.33s.354.39 1.464.4c.85.009 2.191-.71 2.191-.71a.261.261 0 00.123-.28l-.535-2.093c-.026-.103-.121-.14-.21-.08 0 0-.886.588-2.15.484-.93-.075-1.564-.518-1.564-.518-.086-.06-.136-.026-.11.075l.611 2.392z" fill="#EB81B4"/>
	<path d="m35.618 13.497a.882.882 0 00.18.33s.354.39 1.464.4c.85.009 2.191-.71 2.191-.71a.262.262 0 00.123-.28l-.535-2.093c-.026-.103-.121-.14-.21-.08 0 0-.886.588-2.15.484-.93-.075-1.564-.518-1.564-.518-.086-.06-.136-.026-.11.075l.611 2.392z" fill="#4BD9F5"/>
	<path d="m60.567 18.35c.103.057.11.163.013.235 0 0-.288.21-.474 1.112-.185.906-.118 1.536-.118 1.536a.213.213 0 01-.193.236l-2.478.238a.236.236 0 01-.25-.195s-.268-1.67.27-3.057c.434-1.12.615-1.359.615-1.359a.253.253 0 01.32-.065l2.295 1.318z" fill="#3CD37B"/>
	<path d="m48.91 15.078a.158.158 0 00-.227-.05s-1.015.687-1.925 1.013c-.91.327-1.683.47-1.683.47-.09.017-.101.07-.021.118 0 0 .423.261.782 1.132.358.87.603 1.573.603 1.573.03.086.123.123.205.082 0 0 1.679-.862 2.588-1.391.91-.53.987-.551.987-.551.09-.026.11-.104.05-.17 0 0-.417-.463-.76-1.127-.387-.747-.599-1.1-.599-1.1z" fill="#FC88AF"/>
	<path d="m15.855 30.604c.054-.091.017-.195-.085-.227 0 0-.883-.292-1.72-.359-.732-.058-1.922.043-1.922.043a.369.369 0 00-.274.193s-.478 1.008-.646 1.842c-.171.834-.208 1.951-.208 1.951-.004.106.078.171.18.143 0 0 1.127-.305 2.112-.24 1.055.07 1.448.16 1.448.16a.17.17 0 00.212-.149s.155-1.34.315-1.988c.158-.648.588-1.37.588-1.37z" fill="#4BD9F5"/>
	<path d="m28.082 16.032a.212.212 0 00-.1-.266s-.473-.24-1.257-.421c-.687-.16-2.23-.344-2.23-.344a.254.254 0 00-.257.16s-.28.789-.609 1.565c-.33.773-.624 2.04-.624 2.04-.024.103.043.178.149.166 0 0 1.13-.132 2.055.073.989.218 1.335.359 1.335.359a.18.18 0 00.24-.113s.417-1.26.7-1.858c.287-.6.598-1.36.598-1.36z" fill="#0AF080"/>
	<path d="m61.199 60.252a4.317 4.317 0 00-.37-1.307 6.16 6.16 0 00-.304-.594c-.12-.194-.22-.373-.402-.577-.335-.356-.694-.602-1.059-.844l-.026-.016c-.175-.112-.352-.22-.529-.321l-.28-.16-.143-.078-.072-.039-.037-.02-.008-.004-.005-.002-.036-.015a.454.454 0 00-.501.114.468.468 0 00-.096.333c.01.065.03.123.052.164l.022.035.009.01.017.025.026.04.006.011c.022.037.041.074.06.11.037.074.072.152.091.223.044.145.046.268.011.33-.028.068-.11.141-.25.202-.167.06-.348.11-.545.149-.39.08-.814.116-1.261.24a2.333 2.333 0 00-.67.285 1.59 1.59 0 00-.545.56c-.03.055-.065.114-.09.172l-.065.177c-.048.121-.06.227-.09.344a3.053 3.053 0 00-.057.704c.02.478.18.966.492 1.348.158.188.34.367.582.482l.179.08.17.05c.115.038.223.054.335.077.441.08.871.106 1.301.12.43.01.858.004 1.286-.024.43-.03.855-.072 1.294-.169.112-.03.218-.048.335-.093.058-.022.112-.037.172-.065.063-.032.128-.067.188-.101.1-.078.193-.158.288-.238.08-.097.168-.19.237-.296.277-.436.335-.961.288-1.422zm-.832 1.074c-.045.07-.104.128-.151.195l-.195.164c-.03.015-.06.03-.088.047-.035.016-.08.03-.121.046-.078.032-.18.052-.27.078-.38.088-.789.133-1.195.166-.406.028-.819.045-1.225.03a8.056 8.056 0 01-1.2-.119c-.092-.021-.191-.036-.276-.067l-.132-.038-.108-.05c-.138-.06-.265-.186-.373-.318a1.668 1.668 0 01-.344-.976c-.008-.18.017-.363.052-.545.05-.186.093-.354.182-.482.157-.27.451-.419.818-.507.365-.091.78-.123 1.212-.193.219-.032.445-.082.674-.155.128-.054.258-.102.383-.199.125-.086.242-.218.322-.37.043-.073.063-.155.09-.235.016-.078.03-.16.033-.235l-.002-.054.192.103c.344.203.687.426.938.67.104.106.222.285.324.445.106.167.196.34.283.517.17.352.3.723.346 1.09.051.36.006.716-.169.992zm-17.66-2.256a3.868 3.868 0 00-.19-.626c-.037-.104-.093-.207-.145-.309a2.388 2.388 0 00-.205-.296c-.298-.348-.62-.607-.949-.862-.164-.125-.33-.246-.5-.36l-.256-.173-.13-.085-.064-.043-.033-.022-.026-.015a.464.464 0 00-.507.046.46.46 0 00-.115.486l.002.004.005.011.008.022c.007.015.011.032.016.05.01.034.017.068.023.103.011.07.02.138.013.2a.543.543 0 01-.11.325.844.844 0 01-.324.229c-.132.056-.33.112-.514.16-.376.101-.78.184-1.193.348-.406.153-.84.434-1.097.847a2.321 2.321 0 00-.288.64 2.76 2.76 0 00-.101.669c-.024.462.132.948.41 1.322.283.372.653.66 1.109.802.43.134.842.177 1.257.2.415.02.825.011 1.236-.028a5.685 5.685 0 001.242-.233c.933-.328 1.42-1.255 1.497-2.117a3.991 3.991 0 00-.071-1.294zm-.555 1.23a2.201 2.201 0 01-.316.983c-.047.071-.09.145-.15.203-.057.063-.109.13-.18.18a1.013 1.013 0 01-.413.237c-.339.106-.722.162-1.102.195a8.514 8.514 0 01-1.15.017c-.377-.022-.762-.071-1.092-.18-.307-.09-.597-.32-.789-.58a1.382 1.382 0 01-.261-.919c.002-.166.045-.337.09-.503.057-.16.117-.316.21-.441.348-.531 1.102-.676 1.888-.84.203-.048.391-.085.631-.173.227-.091.462-.223.648-.441.154-.177.25-.402.294-.622.102.063.205.125.307.192.317.21.629.44.858.694.058.06.099.125.142.185.04.074.082.145.117.227a3.202 3.202 0 01.268 1.586zm-17.574-1.508a3.545 3.545 0 00-.166-.637 2.12 2.12 0 00-.337-.622 2.752 2.752 0 00-.503-.47 6.09 6.09 0 00-.532-.362 8.711 8.711 0 00-.549-.31l-.047-.023-.231-.119-.14-.069-.072-.034-.037-.018-.026-.01a.45.45 0 00-.494.114.447.447 0 00-.057.48l.009.017.006.01.014.025.015.03.01.021c.018.035.03.072.046.106.024.072.047.145.056.212.024.138.009.248-.037.324a.52.52 0 01-.268.214c-.144.06-.322.11-.505.147-.37.078-.771.12-1.19.21-.411.084-.878.23-1.25.585-.08.097-.174.188-.23.3-.03.054-.065.108-.091.164l-.065.171c-.08.227-.113.44-.132.672-.03.458.09.948.357 1.333a2.37 2.37 0 00.743.704c.097.059.218.113.324.154.434.147.853.19 1.27.211.417.02.83.01 1.242-.028a6.734 6.734 0 001.238-.216c.94-.235 1.5-1.128 1.642-1.985.067-.432.057-.87-.013-1.3zm-.572 1.21a2.073 2.073 0 01-.391.974c-.05.072-.117.13-.173.197-.06.063-.134.112-.199.17-.034.033-.067.048-.097.066a1.812 1.812 0 01-.359.14c-.356.1-.745.153-1.132.186a8.71 8.71 0 01-1.162.015c-.383-.024-.771-.074-1.095-.188a1.356 1.356 0 01-.219-.106 1.724 1.724 0 01-.551-.532 1.469 1.469 0 01-.229-.956c.01-.085.022-.171.04-.258.023-.082.038-.179.073-.246l.043-.11c.017-.035.041-.065.058-.097.033-.07.093-.115.139-.173.22-.199.55-.316.922-.378.37-.07.767-.095 1.188-.162.212-.033.426-.078.655-.162.236-.08.497-.249.666-.512.133-.206.18-.439.185-.653.102.048.206.09.303.14.335.171.672.374.881.61.1.112.184.253.25.421a3.073 3.073 0 01.203 1.614z" fill="#F8C63A"/>
	<path d="m19.962 26.869c0-.337.274-.612.611-.612h6.119c.337 0 .611.274.611.611v6.58a.611.611 0 01-.745.596l-2.794-.62a.614.614 0 00-.266 0l-2.793.62a.612.612 0 01-.745-.597v-6.579h.002z" fill="#ED3C4A"/>
	<path d="m24.544 32.261a.48.48 0 01-.21-.397v-1.441h-1.653v1.44a.475.475 0 01-.21.398.682.682 0 01-.386.117.666.666 0 01-.387-.117.48.48 0 01-.21-.397v-3.866a.49.49 0 01.208-.401.673.673 0 01.39-.117c.13 0 .271.035.388.117.12.086.207.222.207.401v1.264h1.653v-1.264a.49.49 0 01.207-.401.673.673 0 01.39-.117c.131 0 .272.035.388.117a.482.482 0 01.208.401v3.866a.475.475 0 01-.21.397.704.704 0 01-.773 0z" fill="#fff"/>
	<path d="m11.395 37.271c0-.337.274-.611.611-.611h5.203c.337 0 .611.274.611.611v5.849a.612.612 0 01-.75.596l-2.326-.536a.589.589 0 00-.275 0l-2.326.536a.613.613 0 01-.75-.596v-5.85h.002z" fill="#E64975"/>
	<path d="m16.111 41.653c-.292.233-.704.328-1.195.328h-1.292c-.205 0-.395-.052-.531-.188-.138-.138-.188-.328-.188-.531v-2.718c0-.206.052-.396.188-.532.138-.138.328-.188.531-.188h1.206c.46 0 .845.087 1.12.292.284.214.416.531.416.918 0 .261-.078.506-.235.68.259.204.419.517.419.89-.002.446-.139.807-.439 1.049zm-.873-2.725c-.056-.032-.17-.062-.386-.062h-.873v.404h.95c.171 0 .26-.037.303-.072.037-.028.06-.073.06-.155a.166.166 0 00-.013-.076.12.12 0 00-.04-.039zm.121 1.448c-.08-.052-.22-.089-.44-.089h-.942v.644h.942c.235 0 .371-.045.445-.1.062-.045.101-.114.101-.233 0-.118-.04-.179-.106-.222z" fill="#fff"/>
	<path d="M18.65 37.271c0-.337.274-.611.611-.611h5.203c.337 0 .611.274.611.611v5.849a.612.612 0 01-.75.596L22 43.18a.59.59 0 00-.275 0l-2.327.536a.613.613 0 01-.75-.596V37.27h.003z" fill="#3CD37B"/>
	<path d="m21.508 41.936a.434.434 0 01-.196-.363v-3.336c0-.164.082-.292.194-.37a.629.629 0 01.354-.105c.12 0 .249.03.355.106a.442.442 0 01.194.369v3.336a.434.434 0 01-.196.363.655.655 0 01-.704 0z" fill="#fff"/>
	<path d="m25.905 37.271c0-.337.274-.611.611-.611h5.203c.337 0 .611.274.611.611v5.849a.612.612 0 01-.75.596l-2.326-.536a.59.59 0 00-.275 0l-2.326.536a.613.613 0 01-.75-.596v-5.85h.002z" fill="#F0C339"/>
	<path d="m30.036 41.774a2.781 2.781 0 01-.32-.73l-.043-.145a2.17 2.17 0 00-.134-.38.18.18 0 00-.15-.096h-.926v1.115a.472.472 0 01-.182.38.58.58 0 01-.356.12.58.58 0 01-.357-.12.473.473 0 01-.181-.38v-2.996c0-.206.052-.396.188-.532.138-.138.328-.188.531-.188h1.297c.475 0 .875.097 1.16.316.294.224.439.559.439.965 0 .413-.17.767-.478.972.01.02.024.04.032.06v.005c.063.132.106.277.145.41l.037.126a1.8 1.8 0 00.246.52.508.508 0 01.106.308c0 .328-.309.538-.585.538a.563.563 0 01-.47-.268zm-.19-2.824c-.076-.046-.208-.082-.413-.082h-.97v.503h1.043a.534.534 0 00.335-.093c.06-.047.091-.11.091-.188-.002-.058-.022-.101-.086-.14z" fill="#fff"/>
	<path d="m33.16 37.271c0-.337.274-.611.611-.611h5.203c.337 0 .611.274.611.611v5.849a.612.612 0 01-.75.596l-2.326-.536a.589.589 0 00-.275 0l-2.327.536a.613.613 0 01-.75-.596v-5.85h.003z" fill="#EF5F3A"/>
	<path d="m36.02 41.933a.425.425 0 01-.199-.362v-2.695h-.723a.438.438 0 01-.363-.183.583.583 0 01-.108-.344c0-.116.032-.242.108-.343a.444.444 0 01.363-.184h2.54c.16 0 .286.076.363.184a.583.583 0 01.108.343.578.578 0 01-.108.344.443.443 0 01-.363.183h-.723v2.697a.427.427 0 01-.197.36.616.616 0 01-.346.1.632.632 0 01-.352-.1z" fill="#fff"/>
	<path d="m40.415 37.271c0-.337.274-.611.611-.611h5.203c.337 0 .611.274.611.611v5.849a.612.612 0 01-.75.596l-2.326-.536a.59.59 0 00-.275 0l-2.326.536a.613.613 0 01-.75-.596v-5.85h.002z" fill="#66D269"/>
	<path d="M44.513 41.934a.436.436 0 01-.19-.361v-1.225h-1.387v1.225a.433.433 0 01-.19.36.602.602 0 01-.348.104.607.607 0 01-.348-.103.436.436 0 01-.19-.361v-3.345c0-.162.08-.287.19-.365a.609.609 0 01.348-.106c.117 0 .244.03.348.106.11.078.19.203.19.365V39.3h1.385v-1.072c0-.162.08-.287.19-.365a.609.609 0 01.348-.106c.116 0 .244.03.348.106.11.078.19.203.19.365v3.345a.433.433 0 01-.19.36.602.602 0 01-.348.104.595.595 0 01-.346-.103z" fill="#fff"/>
	<path d="m47.67 37.271c0-.337.274-.611.611-.611h5.203c.337 0 .61.274.61.611v5.849a.612.612 0 01-.749.596l-2.327-.536a.59.59 0 00-.274 0l-2.327.536a.613.613 0 01-.75-.596v-5.85h.003z" fill="#ED3C4A"/>
	<path d="m52.286 41.404c-.369.374-.898.575-1.538.575h-.959c-.205 0-.395-.052-.532-.188-.138-.138-.19-.328-.19-.532v-2.718c0-.205.052-.395.19-.531.139-.138.329-.188.532-.188h.9c.65 0 1.19.223 1.57.603.377.378.585.899.585 1.473 0 .607-.188 1.132-.558 1.506zm-2.14-2.539v2.066h.609c.33 0 .58-.117.75-.294.17-.18.27-.438.27-.743 0-.61-.476-1.029-1.061-1.029h-.569z" fill="#fff"/>
	<path d="m54.925 37.271c0-.337.274-.611.611-.611h5.203c.337 0 .611.274.611.611v5.849a.612.612 0 01-.75.596l-2.324-.536a.59.59 0 00-.275 0l-2.324.536a.612.612 0 01-.75-.596v-5.85h-.002z" fill="#A09CCF"/>
	<path d="m59.751 42.037a.532.532 0 01-.497-.315l-.326-.702h-1.58l-.317.7a.53.53 0 01-.497.315c-.24 0-.553-.17-.553-.503 0-.072.015-.15.054-.227l1.435-3.124a.727.727 0 01.674-.421c.263 0 .54.136.67.42l1.434 3.125a.52.52 0 01.054.227c.002.335-.31.505-.55.505zm-1.29-2.059-.32-.702-.32.702h.64z" fill="#fff"/>
	<path d="m62.18 37.271c0-.337.274-.611.611-.611h5.203c.337 0 .611.274.611.611v5.849a.612.612 0 01-.75.596l-2.324-.536a.59.59 0 00-.275 0l-2.325.536a.612.612 0 01-.75-.596v-5.85h-.001z" fill="#43B780"/>
	<path d="m65.382 39.358.993-1.385a.506.506 0 01.417-.211.6.6 0 01.376.138.495.495 0 01.186.38.51.51 0 01-.106.31v.001l-1.33 1.809v1.168a.433.433 0 01-.19.361.601.601 0 01-.349.104.606.606 0 01-.347-.104.436.436 0 01-.19-.36v-1.163l-1.331-1.815-.003-.002a.537.537 0 01-.103-.302c0-.318.291-.53.557-.53.15 0 .311.065.42.218l1 1.383z" fill="#fff"/>
	<path d="m28.22 26.869c0-.337.275-.612.612-.612h6.119c.337 0 .611.274.611.611v6.58a.611.611 0 01-.745.596l-2.794-.62a.614.614 0 00-.265 0l-2.794.62a.612.612 0 01-.745-.597v-6.579h.002z" fill="#B7DE43"/>
	<path d="m33.776 32.38a.59.59 0 01-.551-.35l-.385-.828h-1.858l-.373.826a.59.59 0 01-.551.35c-.27 0-.614-.19-.614-.558 0-.08.017-.166.058-.25l1.66-3.615a.814.814 0 01.756-.47c.296 0 .607.152.752.47l1.659 3.615c.041.084.058.17.058.25.002.37-.341.56-.611.56zm-1.452-2.331-.41-.901-.411.9h.821z" fill="#fff"/>
	<path d="m36.48 26.869c0-.337.275-.612.612-.612h6.119c.337 0 .611.274.611.611v6.58a.611.611 0 01-.745.596l-2.794-.62a.614.614 0 00-.266 0l-2.793.62a.612.612 0 01-.745-.597v-6.579h.002z" fill="#F2AA35"/>
	<path d="m41.834 30.353c-.309.316-.773.489-1.389.489h-.987v1.06a.51.51 0 01-.207.417.658.658 0 01-.398.126.672.672 0 01-.398-.126.51.51 0 01-.207-.417v-3.534c0-.236.058-.45.214-.605.155-.156.37-.214.605-.214h1.365c.6 0 1.065.162 1.38.46.316.3.455.713.455 1.16.002.448-.126.871-.433 1.184zm-2.376-1.629v.942h.983c.242 0 .395-.064.484-.147a.437.437 0 00.136-.339c0-.14-.05-.246-.138-.32-.091-.077-.247-.138-.484-.138h-.981v.002z" fill="#fff"/>
	<path d="m44.74 26.869c0-.337.275-.612.612-.612h6.118c.337 0 .612.274.612.611v6.58a.611.611 0 01-.746.596l-2.793-.62a.614.614 0 00-.266 0l-2.794.62a.612.612 0 01-.745-.597v-6.579h.002z" fill="#40CDB2"/>
	<path d="m50.197 30.353c-.308.316-.773.489-1.389.489h-.987v1.06a.51.51 0 01-.207.417.658.658 0 01-.398.126.672.672 0 01-.398-.126.51.51 0 01-.207-.417v-3.534c0-.236.058-.45.214-.605.155-.156.37-.214.605-.214h1.365c.601 0 1.066.162 1.38.46.316.3.455.713.455 1.16.002.448-.123.871-.433 1.184zm-2.376-1.629v.942h.983c.242 0 .395-.064.484-.147a.437.437 0 00.136-.339c0-.14-.05-.246-.138-.32-.091-.077-.247-.138-.484-.138h-.981v.002z" fill="#fff"/>
	<path d="M53 26.869c0-.337.274-.612.611-.612h6.119c.337 0 .611.274.611.611v6.58a.611.611 0 01-.745.596l-2.794-.62a.614.614 0 00-.266 0l-2.793.62a.612.612 0 01-.745-.597v-6.579H53z" fill="#6E4FB4"/>
	<path d="M56.787 29.353l1.171-1.63a.565.565 0 01.462-.235c.156 0 .305.06.42.156a.548.548 0 01.205.42.584.584 0 01-.117.343v.002l-1.545 2.098v1.359a.475.475 0 01-.21.397.682.682 0 01-.386.117.666.666 0 01-.387-.117.475.475 0 01-.21-.397V30.51l-1.544-2.104-.002-.003a.6.6 0 01-.115-.334c0-.35.324-.586.618-.586.167 0 .344.071.465.242l1.175 1.627z" fill="#fff"/>
</svg>
