<svg viewBox="0 0 32 32" xmlns="http://www.w3.org/2000/svg">
	<path d="m21.386 19.018h-4.239a1.56 1.56 0 01-1.553-1.554v-4.987c0-.844.69-1.553 1.553-1.553.864 0 1.554.69 1.554 1.553v3.472h2.704c.844 0 1.554.69 1.554 1.554 0 .863-.71 1.515-1.573 1.515z" fill="#6E4B22"/>
	<path d="M5.984 12.919C7.52 7.759 12.275 4 17.914 4c6.848 0 12.43 5.582 12.391 12.467 0 6.848-5.581 12.43-12.429 12.43-3.244 0-6.194-1.268-8.41-3.312-.47-.432-.303-1.194.105-1.685.053-.064.105-.131.154-.202l.672-.973c.37-.534 1.154-.553 1.625-.105a8.464 8.464 0 005.854 2.344c4.7 0 8.516-3.817 8.516-8.516 0-4.7-3.817-8.516-8.516-8.516-3.452 0-6.406 2.052-7.749 4.987a8.823 8.823 0 00-.633 2.052H12.314c.25 0 .422.077.518.23.096.154.057.346-.096.576l-4.68 6.732c-.154.23-.326.326-.537.326a.43.43 0 01-.039 0 .606.606 0 01-.091-.006.28.28 0 01-.137-.064.875.875 0 01-.27-.256l-4.834-6.751c-.153-.23-.192-.403-.096-.557.077-.153.269-.23.537-.23h2.973c.077-.69.23-1.38.422-2.052z" clip-rule="evenodd" fill="#6E4B22" fill-rule="evenodd"/>
</svg>
