<svg viewBox="0 0 72 32" xmlns="http://www.w3.org/2000/svg">
	<g fill="#6E4B22">
		<path d="M37.58 21.891l6.955-5.438a.586.586 0 000-.906l-6.954-5.438c-.346-.27-.831-.006-.831.453V14h-7.457c-.3 0-.543.215-.543.48v3.04c0 .265.243.48.543.48h7.457v3.438c0 .459.485.724.83.453zm11.17 2.749c.779-1.167 1.945-3.89 2.334-7.001.39-3.11 1.166-5.832 2.721-7.387 1.556-1.556 3.5-2.335 5.832-2.335 2.374 0 5.443 1.166 5.832 3.5C66.635 9.086 67.025 7.334 67.414 5c.776.39 2.138 1.362 2.721 1.749-1.555 1.555-2.72 3.11-3.89 5.055 2.335-.39 5.056 1.945 5.056 5.832 0 2.915-.776 5.832-3.887 7-.064.024.927-.818.776-2.334-.193-1.945-1.555-3.11-3.5-3.11s-3.693 1.555-3.693 3.693c0 2.332 1.748 3.304 3.693 3.304-3.108 1.56-11.663.785-15.94-1.55v.001zm-36 1.817c5.775 0 10.457-4.682 10.457-10.457S18.525 5.543 12.75 5.543 2.293 10.225 2.293 16 6.975 26.457 12.75 26.457zM24.75 16c0 6.627-5.373 12-12 12s-12-5.373-12-12 5.373-12 12-12 12 5.373 12 12z"/>
		<path d="m4.87 16.276a7.886 7.886 0 1115.762-.551 7.886 7.886 0 11-15.763.55zm11.369 3.006c.778-.464 1.197-1.38 1.306-2.287.079-.685-.05-1.41-.44-1.986-.364-.553-.96-.957-1.611-1.035-.044-.01-.073-.06-.05-.1a9.814 9.814 0 011.49-2.02 2.495 2.495 0 00-1.223-.73 8.247 8.247 0 01-.66 2.42.052.052 0 01-.09.016 11.705 11.705 0 01-.124-.146c-.181-.213-.375-.441-.594-.57-1.523-.896-3.657-.443-4.623 1.115-.431.699-.56 1.517-.69 2.335-.052.323-.103.646-.173.962a7.793 7.793 0 01-.75 2.03l-.012.02c-.028.044-.07.11-.07.148 0 .079.127.128.21.158 1.03.34 2.076.66 3.15.788 1.124.133 2.864.084 3.377-.266.02-.01.01-.034-.01-.034-.838.005-1.39-.395-1.508-1.08a1.57 1.57 0 01.788-1.656c.557-.3 1.33-.246 1.794.178.404.37.577 1.03.335 1.602a.684.684 0 01-.143.189c-.03.033-.056.06-.064.077a.037.037 0 00.007.042.037.037 0 00.043.007l.118-.062c.087-.045.192-.1.217-.115z"/>
	</g>
</svg>
