<svg viewBox="0 0 64 64" xmlns="http://www.w3.org/2000/svg">
	<g fill="#F88591">
		<path d="m34.48 6.86s11.68 8.31 16.11 8.19c.45-.01.85.27 1.04.68.53 1.17 1.25 3.37-.39 4.23l-16.56-2.99c0 .01-.96-6.99-.2-10.11z"/>
		<path d="m33.06 7.17c1.58-1.12 3.34 1.13 3.84 2.08.5.94 1.17 7.35-2 7.73-3.17.37-4.51-7.93-1.84-9.81zm-5 27.23c-.1.01-.24-.01-.39-.06l.01.01c.12.06.25.07.38.05zm10.52 4.33c0 .01.01.01.01.02-.01-.04-.01-.08-.01-.12v.1zm6.05-.1c1.31-4.63 3.7-15.55 1.39-24.16l-2.56.72c.21.8.36 1.63.48 2.48l-2.15-1.34c-4.48 7.06-9.79 10.27-13.62 11.73 0 0-1.08.35-2.04.62.11 1.15.54 2.18 1.12 3.15.72-.26 1.47-.55 2.03-.75 4.21-1.7 9.9-5.27 14.74-12.68.81 7.34-1.43 15.75-2.59 19.28 0 0-.22.67-.46 1.3.96.65 2.04.98 3.17 1.16.24-.69.49-1.51.49-1.51z"/>
		<path d="m49.51 42.08c-.72-1.09-1.78-2.04-2.92-2.73-.15.4-.26.72-.21.78.15.22.13.55.05.86.07.28-.09.59-.65.81-2.67 1.06-5.9-.15-6.97-2.39-.12-.26-.18-.47-.21-.67 0-.01-.01-.01-.01-.02v-.09c-.02-.27.03-.48.13-.62.11-.23.29-.44.51-.52.06-.02.16-.27.28-.6-1.38-.24-2.89-.17-4.25.28-2.63.87-4.64 3.54-5.61 6.35s-1.39 11.07 6.63 13.83 12.77-4 13.74-6.81 1.02-6.15-.51-8.46zm-11.97 2.02c-.85 1.02-2.62.44-3.3-.47-.56-.74-.83-2.33.19-2.81.96-.45 2.03.44 2.67 1.04.64.58 1.08 1.47.44 2.24zm-9.48-9.7c-.13.02-.26.01-.38-.05-.01 0-.01-.01-.01-.01-.09-.03-.18-.06-.3-.11-2.57-1.29-3.81-4.51-2.85-6.79.37-.87.82-1.06 1.15-.92.12 0 .25.01.37.08.01 0 .04-.01.05-.01-.93-1.33-2.32-2.49-3.9-3.11-2.58-1.01-5.83-.26-8.37 1.28s-8.16 7.61-3.78 14.86c4.38 7.26 12.37 5.12 14.91 3.58 2.55-1.54 4.73-4.06 5.03-6.81.11-1.02.01-2.11-.25-3.14-.45.18-.82.34-.84.41-.08.34-.44.66-.8.74 0-.01-.01 0-.03 0zm-8.4-5.21c-1.6.34-2.72-1.66-2.08-2.97.53-1.09 1.91-1.67 2.72-.52.27.39.48.93.54 1.48.09.91-.2 1.81-1.18 2.01z"/>
	</g>
</svg>
