<svg viewBox="0 0 64 64" xmlns="http://www.w3.org/2000/svg">
	<path d="m50.847 26.231c.932-2.099.15-4.535-1.853-5.764.246-2.284-1.243-4.361-3.525-4.894-.46-2.251-2.517-3.763-4.842-3.556-1.124-2.002-3.524-2.795-5.591-1.85-.032.012-.065.012-.086-.01-1.671-1.544-4.2-1.544-5.967.01-2.067-.945-4.467-.152-5.677 1.893-2.271-.25-4.307 1.262-4.832 3.578-2.217.468-3.706 2.545-3.503 4.916-1.97 1.142-2.753 3.578-1.832 5.775-1.52 1.697-1.52 4.274.011 6.058-.932 2.1-.15 4.535 1.864 5.764-.246 2.284 1.243 4.361 3.525 4.894a4.418 4.418 0 001.692 2.687l-1.393 2.447a3.1 3.1 0 00-.042 2.98 3.006 3.006 0 002.463 1.599l2.047.12 1.124 1.74a2.958 2.958 0 002.507 1.38h.086a2.982 2.982 0 002.517-1.522l2.453-4.318 2.453 4.318a2.982 2.982 0 002.518 1.523 2.956 2.956 0 002.592-1.37l1.136-1.741 2.046-.12c1.05-.054 1.97-.652 2.474-1.598a3.072 3.072 0 00-.043-2.98l-1.403-2.47c.846-.63 1.479-1.587 1.736-2.729 2.217-.468 3.706-2.545 3.503-4.916 1.97-1.142 2.753-3.578 1.831-5.775 1.554-1.707 1.554-4.274.011-6.069z" fill="#F5F1E3"/>
	<path d="m33.504 11.778a2.208 2.208 0 00-3 0 2.193 2.193 0 01-2.41.392 2.208 2.208 0 00-2.849.935 2.22 2.22 0 01-2.175 1.131 2.23 2.23 0 00-2.431 1.784c-.182.881-.857 1.577-1.725 1.751-1.125.24-1.885 1.305-1.768 2.458a2.273 2.273 0 01-1.114 2.208 2.265 2.265 0 00-.92 2.893 2.276 2.276 0 01-.387 2.447 2.293 2.293 0 000 3.045c.6.663.75 1.631.386 2.447-.471 1.066-.075 2.317.921 2.893a2.273 2.273 0 011.114 2.208c-.128 1.164.633 2.23 1.757 2.458a2.23 2.23 0 011.725 1.75c.236 1.143 1.285 1.915 2.421 1.784.14-.01.279-.021.407-.01l-1.018 1.783-.096.174-1.66 2.915a.88.88 0 00.696 1.316l3.117.185 1.725 2.654a.856.856 0 001.467-.044l1.66-2.926.097-.174 1.714-3.012a2.198 2.198 0 001.682-.011l1.714 3.012.096.175 1.66 2.914a.856.856 0 001.468.044l1.725-2.654 3.128-.185c.643-.032 1.018-.75.697-1.316l-1.66-2.925-.097-.174-1.018-1.784c.129-.01.257 0 .375.01a2.213 2.213 0 002.42-1.783c.183-.88.858-1.577 1.726-1.75a2.253 2.253 0 001.756-2.459 2.273 2.273 0 011.114-2.208 2.265 2.265 0 00.922-2.892 2.275 2.275 0 01.385-2.448 2.293 2.293 0 000-3.045 2.279 2.279 0 01-.385-2.447c.471-1.066.075-2.316-.922-2.893a2.272 2.272 0 01-1.114-2.208c.129-1.163-.632-2.23-1.756-2.458a2.23 2.23 0 01-1.725-1.75c-.236-1.143-1.286-1.915-2.421-1.784a2.22 2.22 0 01-2.175-1.131 2.197 2.197 0 00-2.85-.936 2.151 2.151 0 01-2.399-.359z" fill="#F15E87"/>
	<path d="m42.642 50.583-3.128.185-1.724 2.654a.856.856 0 01-1.468-.044l-1.66-2.915-.097-.174-2.55-4.491-2.549 4.491-.096.174-1.66 2.926a.856.856 0 01-1.468.043l-1.725-2.653-3.117-.185c-.643-.033-1.018-.75-.697-1.316l1.66-2.915.097-.174 4.885-8.603-1.928-3.393c-.386-.674-.182-1.512.45-1.881l4.735-2.774c.45-.26 1.006-.206 1.424.087.418-.304.964-.359 1.425-.087l4.735 2.774c.632.37.825 1.218.45 1.881l-1.928 3.393 4.885 8.592.096.174 1.66 2.926a.875.875 0 01-.707 1.305z" fill="#E94975"/>
	<path d="m30.506 11.778a2.208 2.208 0 013 0 2.193 2.193 0 002.41.392 2.208 2.208 0 012.85.935 2.22 2.22 0 002.174 1.131 2.213 2.213 0 012.421 1.784c.183.881.857 1.577 1.725 1.751a2.253 2.253 0 011.757 2.458 2.273 2.273 0 001.114 2.208 2.265 2.265 0 01.921 2.893 2.276 2.276 0 00.386 2.447c.771.859.771 2.175 0 3.045-.6.663-.75 1.631-.386 2.447.472 1.066.075 2.317-.921 2.893a2.272 2.272 0 00-1.114 2.208c.128 1.164-.632 2.23-1.757 2.458a2.23 2.23 0 00-1.725 1.75c-.235 1.143-1.285 1.915-2.42 1.784a2.22 2.22 0 00-2.175 1.131 2.197 2.197 0 01-2.85.936 2.19 2.19 0 00-2.41.391 2.209 2.209 0 01-3 0 2.193 2.193 0 00-2.41-.391 2.208 2.208 0 01-2.85-.936 2.22 2.22 0 00-2.174-1.13 2.213 2.213 0 01-2.42-1.784c-.183-.881-.858-1.577-1.726-1.751a2.253 2.253 0 01-1.756-2.458 2.272 2.272 0 00-1.115-2.208 2.265 2.265 0 01-.92-2.893 2.276 2.276 0 00-.386-2.447 2.293 2.293 0 010-3.045c.6-.664.75-1.632.385-2.447-.471-1.066-.075-2.317.921-2.893a2.273 2.273 0 001.115-2.208 2.235 2.235 0 011.746-2.458 2.23 2.23 0 001.724-1.751c.236-1.142 1.286-1.914 2.421-1.784a2.22 2.22 0 002.175-1.13 2.198 2.198 0 012.85-.936 2.248 2.248 0 002.42-.392z" fill="#F5AD35"/>
	<g fill="#F5F1E3">
		<path d="m32.55 24.688h-2.302s0-1.762.075-2.338c.075-.555.696-.599 1.081-.599.386 0 1.157 0 1.157.598-.01.5-.01 2.339-.01 2.339zm-1.07-3.394c-1.082 0-1.157-.555-.697-1.555.407-.827.46-.947.632-.947s.15.044.536.892c.364.794.686 1.61-.471 1.61zm-3.535 3.394h-2.305s0-1.762.075-2.338c.075-.555.697-.599 1.082-.599.386 0 1.157 0 1.157.598-.01.5-.01 2.339-.01 2.339zm-1.082-3.394c-1.082 0-1.157-.555-.697-1.555.407-.827.472-.947.632-.947.15 0 .15.044.536.892.364.794.696 1.61-.471 1.61zm8.227 3.394h2.303s0-1.762-.075-2.338c-.075-.555-.696-.599-1.082-.599s-1.157 0-1.157.598c.01.5.01 2.339.01 2.339zm1.082-3.394c1.082 0 1.157-.555.696-1.555-.386-.827-.471-.947-.621-.947s-.15.044-.536.892c-.375.794-.696 1.61.46 1.61z"/>
		<path d="m24.602 30.583c.568-.413 1.275-.924 2.614-.924 1.34 0 2.046.51 2.614.924.493.348.814.588 1.564.588s1.082-.218 1.564-.588c.568-.413 1.275-.924 2.614-.924s2.046.51 2.614.924c.492.348.814.588 1.564.588.503 0 1.103-.316 1.489-.544a.732.732 0 00.364-.631c.01-1.48.01-2.698 0-3.013-.075-.903-.836-1.87-1.875-2.175-1.06-.305-2.817-.73-8.002-.751-6.46-.033-8.045.446-9.116.903-.654.25-.964 1.425-.964 2.1 0 .282.043 1.685.01 3.219 0 .282.15.576.418.685.257.13.536.207.954.207.76 0 1.082-.24 1.574-.588z"/>
		<path d="m36.675 31.757c-.45-.349-.739-.588-1.435-.588-.697 0-.986.218-1.436.588-.525.413-1.167.924-2.4.924-1.21 0-1.874-.511-2.399-.924-.428-.349-.718-.588-1.414-.588s-.986.24-1.435.588c-.525.413-1.168.924-2.39.924-.342 0-.631-.032-.878-.109-.203-.043-.385.13-.385.348 0 1.132.01 2.067.064 2.459.14 1.272 1.018 2.273 1.8 2.273.674 0 1.703-.01 6.802-.01 0 0 7.274.043 7.702 0 .75-.077 1.586-.425 1.736-1.1.15-.696.107-1.903.139-3.73 0-.24-.279-.414-.482-.338-.343.131-.718.207-1.21.207-1.211 0-1.854-.522-2.379-.924z"/>
	</g>
</svg>
