<svg viewBox="0 0 184 81" xmlns="http://www.w3.org/2000/svg">
	<path d="M96 70c17.121 0 31-9.626 31-21.5S113.121 27 96 27c-17.12 0-31 9.626-31 21.5S78.88 70 96 70z" fill="#104A16"/>
	<path d="m31.988 57.389c-.563-13.67-29.344-13.863-29.982.032 0-.026-.006-.052-.006-.078v3.345c.569 8.273 10.773 10.987 17.509 10.17 5.142-.624 11.41-3.364 12.41-9.185.156-.74.043-3.577.081-4.362-.006.032-.012.052-.012.078zm-.063.855c.006-.026.006-.051.012-.07 0 .019-.006.044-.012.07z" fill="#34823A"/>
	<path d="M20.209 50.808c3.943.92 6.78 3.493 6.78 6.523 0 3.801-4.468 6.882-9.992 6.882-3.4 0-6.411-1.17-8.211-2.958-.031-.026-.044-.046-.062-.065l-.113-.116A6.447 6.447 0 017.6 59.672c-.05-.09-.056-.116-.069-.135a4.94 4.94 0 01-.531-2.206 4.615 4.615 0 01.15-1.197 5.69 5.69 0 01.319-.9c.025-.052.043-.09.062-.123 1.344-2.714 5.074-4.663 9.46-4.663.32 0 .632.013.938.032.037 0 .075.006.112.006.257.02.475.039.688.065.512.064 1.006.148 1.48.257z" fill="#E1EAC5"/>
	<path d="M21.815 51.78c2.524.932 5.142 3.035 5.174 6.02.187-2.496-1.544-4.625-3.58-5.75-3.7-2.059-8.412-2.123-12.223-.322h-.007C8.886 52.82 6.78 55.048 7 57.813c.494-6.606 9.904-8.034 14.816-6.034z" fill="#34823A"/>
	<path d="m23.102 54.333a3.047 3.047 0 00-.369-.321 3.876 3.876 0 00-.419-.258c-.05-.025-.093-.051-.143-.077s-.107-.045-.163-.064a2.171 2.171 0 00-.262-.097c-.325.74-.8 1.403-1.356 1.982l-.119-.007c-.344-.45-.768-.81-1.306-.99-.05-.02-.1-.04-.15-.058-.225-.097-.469-.142-.706-.206-.212-.065-.437-.077-.662-.116a6.256 6.256 0 00-1.662.026c-.263.032-.525.09-.775.16-.031.013-.069.02-.1.033-.9.263-1.731.817-2.237 1.62a4.265 4.265 0 00-.238.406 2.85 2.85 0 00-.075.142c-.218.405-.406.83-.643 1.222v.006a7.576 7.576 0 01-1.381 1.634s-.007.006-.013.006a.465.465 0 00-.069.058c-.024.02-.05.039-.056.065v.482c0 .064.138.122.225.16 2.543.934 5.312 1.776 8.03 1.435v-.476l-.006-.032a3.72 3.72 0 01-.725-.154 2.349 2.349 0 01-.425-.2 1.218 1.218 0 01-.256-.205c-.094-.116-.182-.238-.2-.38.468-1.428 3.293-1.524 3.824-.116 0 .007-.006.02-.006.026l-.02.07c-.093.258-.3.438-.537.547l-.006.007v.476l.05.045c1.331-.186 2.712-1.216 2.768-2.682.013-.483.007-1.023-.275-1.435-.156-.244-.412-.47-.656-.656-.05-.032-.106-.064-.156-.096-.206-.11-.412-.22-.637-.29.58-.45 1.224-.855 1.93-1.216v-.476h-.018zm-5.88 6.857m5.649-2.959c0 .013-.007.033-.007.045.007-.012.007-.032.007-.045z" fill="#34823A"/>
	<path d="m23.102 54.333c-.856.431-1.631.94-2.3 1.512-.037.032-.018.077.038.09.8.167 1.45.604 1.78 1.132.344.56.35 1.196.094 1.775-.33.766-1.056 1.486-2.13 1.77-.063.012-.4.09-.463.102l-.05-.045c.031-.032.238-.11.319-.2.425-.45.362-1.048-.063-1.427-.362-.322-.968-.496-1.568-.496-.219 0-.431.02-.631.071-.756.174-1.344.676-1.35 1.306 0 .611.594 1.036 1.65 1.158l.006.032c-.206.064-.531.09-.925.09-.975 0-2.368-.167-3.35-.373-1.311-.277-2.549-.708-3.755-1.151-.093-.04-.243-.103-.224-.168.012-.038.1-.103.137-.128a6.958 6.958 0 001.38-1.634c.55-.92.838-1.956 1.8-2.702.832-.643 2.013-.958 3.194-.958 1.018 0 2.037.238 2.824.7.306.18.531.483.744.721l.118.007a6.717 6.717 0 001.356-1.982c.563.161 1.044.444 1.369.798z" fill="#45A74C"/>
	<path d="M19.597 47.16c8.154.991 13.603 6.35 12.166 11.965-1.287 5.011-7.611 8.537-14.747 8.537-.862 0-1.743-.052-2.624-.161-8.155-.99-13.598-6.35-12.16-11.965C3.512 50.526 9.842 47 16.985 47c.862 0 1.737.051 2.612.16zm7.242 11.367c.869-3.396-2.03-6.645-6.63-7.719-.475-.11-.968-.2-1.475-.257-.212-.026-.43-.045-.643-.065-.082-.006-.119-.006-.157-.012-.318-.02-.637-.033-.95-.033-4.255 0-8.073 1.879-9.447 4.664-.02.039-.038.07-.05.11a4.973 4.973 0 00-.419 1.338c-.175 1.035 0 2.051.462 2.984a.702.702 0 00.038.07c.05.09.056.117.069.136.256.47.58.913.974 1.331.02.026.038.04.057.058l.106.11c1.48 1.466 3.755 2.54 6.492 2.869.588.07 1.169.103 1.744.103 4.755.006 8.973-2.342 9.829-5.687z" fill="#45A74C"/>
	<path d="m61.987 47.389c-.562-13.67-29.343-13.863-29.98.032 0-.026-.007-.052-.007-.078v3.345c.569 8.273 10.773 10.987 17.509 10.17 5.142-.624 11.41-3.364 12.41-9.185.156-.74.044-3.577.081-4.362-.006.032-.013.052-.013.078zm-.062.855c.006-.026.006-.051.013-.07 0 .019-.007.044-.013.07z" fill="#34823A"/>
	<path d="m50.209 40.808c3.943.92 6.78 3.493 6.78 6.523 0 3.801-4.468 6.883-9.992 6.883-3.4 0-6.411-1.171-8.211-2.96-.031-.025-.044-.044-.063-.064l-.112-.116a6.446 6.446 0 01-1.012-1.402c-.05-.09-.056-.116-.069-.135a4.941 4.941 0 01-.531-2.206 4.609 4.609 0 01.15-1.197c.081-.309.187-.61.319-.9.024-.052.043-.09.062-.123 1.343-2.714 5.074-4.663 9.46-4.663.32 0 .632.013.938.032.037 0 .075.006.112.006.257.02.475.039.688.065.512.064 1.006.148 1.48.257z" fill="#E1EAC5"/>
	<path d="m51.815 41.78c2.524.932 5.142 3.035 5.174 6.02.187-2.496-1.544-4.625-3.58-5.75-3.7-2.059-8.412-2.123-12.223-.322h-.007c-2.293 1.093-4.399 3.32-4.18 6.085.494-6.606 9.904-8.034 14.816-6.034z" fill="#34823A"/>
	<path d="m53.102 44.333a3.047 3.047 0 00-.369-.321 3.876 3.876 0 00-.418-.258c-.05-.025-.094-.051-.144-.077s-.106-.045-.163-.064a2.171 2.171 0 00-.262-.097c-.325.74-.8 1.403-1.356 1.982l-.119-.007c-.343-.45-.768-.81-1.306-.99-.05-.02-.1-.04-.15-.058-.225-.097-.468-.142-.706-.206-.212-.065-.437-.077-.662-.116a6.256 6.256 0 00-1.662.026c-.263.032-.525.09-.775.16-.032.013-.069.02-.1.033-.9.263-1.731.817-2.237 1.62a4.265 4.265 0 00-.238.406 2.85 2.85 0 00-.075.142c-.218.405-.406.83-.643 1.222v.006a7.576 7.576 0 01-1.381 1.634s-.006.006-.013.006a.465.465 0 00-.069.058c-.024.02-.05.039-.056.065v.482c0 .064.138.122.225.16 2.543.934 5.312 1.776 8.03 1.435v-.476l-.007-.032a3.72 3.72 0 01-.724-.154 2.349 2.349 0 01-.425-.2 1.218 1.218 0 01-.256-.205c-.094-.116-.182-.238-.2-.38.468-1.428 3.293-1.524 3.824-.116 0 .007-.006.02-.006.026l-.02.07c-.093.258-.3.438-.537.547l-.006.007v.476l.05.045c1.331-.186 2.712-1.216 2.768-2.682.013-.483.007-1.023-.275-1.435-.156-.244-.412-.47-.656-.656-.05-.032-.106-.064-.156-.096-.206-.11-.412-.22-.637-.29.58-.45 1.224-.855 1.93-1.216v-.476h-.018zm-5.88 6.857m5.649-2.959c0 .013-.007.033-.007.045.007-.012.007-.032.007-.045z" fill="#34823A"/>
	<path d="m53.102 44.333c-.856.431-1.631.94-2.3 1.512-.037.032-.019.077.038.09.8.167 1.45.604 1.78 1.132.344.56.35 1.196.094 1.775-.33.766-1.056 1.486-2.13 1.77-.063.012-.4.09-.463.102l-.05-.045c.031-.032.238-.11.319-.2.425-.45.362-1.048-.063-1.427-.362-.322-.968-.496-1.568-.496-.219 0-.431.02-.631.071-.756.174-1.344.676-1.35 1.306 0 .611.594 1.036 1.65 1.158l.006.032c-.206.064-.531.09-.925.09-.975 0-2.368-.167-3.35-.373-1.311-.277-2.549-.708-3.755-1.151-.093-.04-.243-.103-.225-.168.013-.038.1-.103.138-.128a6.958 6.958 0 001.38-1.634c.55-.92.838-1.956 1.8-2.702.832-.643 2.013-.958 3.194-.958 1.018 0 2.037.238 2.824.7.306.18.531.483.744.721l.118.007a6.717 6.717 0 001.356-1.982c.563.161 1.044.444 1.369.798z" fill="#45A74C"/>
	<path d="m49.597 37.16c8.154.991 13.603 6.35 12.166 11.965-1.287 5.011-7.611 8.536-14.747 8.536-.862 0-1.743-.051-2.624-.16-8.155-.99-13.598-6.35-12.16-11.965 1.28-5.01 7.61-8.536 14.753-8.536.862 0 1.737.051 2.612.16zm7.242 11.367c.869-3.396-2.03-6.645-6.63-7.719-.475-.11-.969-.2-1.475-.257-.212-.026-.43-.045-.643-.065-.081-.006-.119-.006-.157-.012-.318-.02-.637-.033-.95-.033-4.255 0-8.073 1.879-9.447 4.664-.02.039-.038.07-.05.11a4.973 4.973 0 00-.419 1.338c-.175 1.035 0 2.051.462 2.984a.702.702 0 00.038.07c.05.09.056.117.069.136.256.47.58.913.974 1.331.02.026.038.04.057.058l.106.11c1.48 1.466 3.755 2.54 6.492 2.869.588.07 1.169.103 1.744.103 4.755.006 8.973-2.342 9.829-5.687z" fill="#45A74C"/>
	<path d="m81.987 47.389c-.562-13.67-29.343-13.863-29.98.032 0-.026-.007-.052-.007-.078v3.345c.569 8.273 10.773 10.987 17.509 10.17 5.142-.624 11.41-3.364 12.41-9.185.156-.74.044-3.577.081-4.362-.006.032-.013.052-.013.078zm-.062.855c.006-.026.006-.051.013-.07 0 .019-.007.044-.013.07z" fill="#34823A"/>
	<path d="m70.209 40.808c3.943.92 6.78 3.493 6.78 6.523 0 3.801-4.468 6.883-9.992 6.883-3.4 0-6.411-1.171-8.211-2.96-.031-.025-.044-.044-.063-.064l-.112-.116a6.446 6.446 0 01-1.012-1.402c-.05-.09-.056-.116-.069-.135a4.941 4.941 0 01-.531-2.206 4.609 4.609 0 01.15-1.197c.081-.309.187-.61.319-.9.024-.052.043-.09.062-.123 1.343-2.714 5.074-4.663 9.46-4.663.32 0 .632.013.938.032.037 0 .075.006.112.006.256.02.475.039.688.065.512.064 1.006.148 1.48.257z" fill="#E1EAC5"/>
	<path d="m71.815 41.78c2.524.932 5.142 3.035 5.174 6.02.187-2.496-1.544-4.625-3.58-5.75-3.7-2.059-8.412-2.123-12.223-.322h-.007c-2.293 1.093-4.399 3.32-4.18 6.085.494-6.606 9.904-8.034 14.816-6.034z" fill="#34823A"/>
	<path d="m73.102 44.333a3.047 3.047 0 00-.369-.321 3.876 3.876 0 00-.419-.258c-.05-.025-.093-.051-.143-.077s-.107-.045-.163-.064a2.171 2.171 0 00-.262-.097c-.325.74-.8 1.403-1.356 1.982l-.119-.007c-.344-.45-.768-.81-1.306-.99-.05-.02-.1-.04-.15-.058-.225-.097-.468-.142-.706-.206-.212-.065-.437-.077-.662-.116a6.256 6.256 0 00-1.662.026c-.263.032-.525.09-.775.16-.032.013-.069.02-.1.033-.9.263-1.731.817-2.237 1.62a4.265 4.265 0 00-.238.406 2.85 2.85 0 00-.075.142c-.218.405-.406.83-.643 1.222v.006a7.576 7.576 0 01-1.381 1.634s-.006.006-.013.006a.465.465 0 00-.069.058c-.024.02-.05.039-.056.065v.482c0 .064.138.122.225.16 2.543.934 5.312 1.776 8.03 1.435v-.476l-.007-.032a3.72 3.72 0 01-.724-.154 2.349 2.349 0 01-.425-.2 1.218 1.218 0 01-.256-.205c-.094-.116-.182-.238-.2-.38.468-1.428 3.293-1.524 3.824-.116 0 .007-.006.02-.006.026l-.02.07c-.093.258-.3.438-.537.547l-.006.007v.476l.05.045c1.331-.186 2.712-1.216 2.768-2.682.013-.483.007-1.023-.275-1.435-.156-.244-.412-.47-.656-.656-.05-.032-.106-.064-.156-.096-.206-.11-.412-.22-.637-.29.58-.45 1.224-.855 1.93-1.216v-.476h-.018zm-5.88 6.857m5.649-2.959c0 .013-.007.033-.007.045.007-.012.007-.032.007-.045z" fill="#34823A"/>
	<path d="m73.102 44.333c-.856.431-1.631.94-2.3 1.512-.037.032-.019.077.038.09.8.167 1.45.604 1.78 1.132.344.56.35 1.196.094 1.775-.33.766-1.056 1.486-2.13 1.77-.063.012-.4.09-.463.102l-.05-.045c.031-.032.238-.11.319-.2.425-.45.362-1.048-.063-1.427-.362-.322-.968-.496-1.568-.496-.219 0-.431.02-.631.071-.756.174-1.344.676-1.35 1.306 0 .611.594 1.036 1.65 1.158l.006.032c-.206.064-.531.09-.925.09-.975 0-2.368-.167-3.35-.373-1.311-.277-2.549-.708-3.755-1.151-.093-.04-.243-.103-.225-.168.013-.038.1-.103.138-.128a6.958 6.958 0 001.38-1.634c.55-.92.838-1.956 1.8-2.702.832-.643 2.013-.958 3.194-.958 1.018 0 2.037.238 2.824.7.306.18.531.483.744.721l.118.007a6.717 6.717 0 001.356-1.982c.563.161 1.044.444 1.369.798z" fill="#45A74C"/>
	<path d="M69.597 37.16c8.154.991 13.603 6.35 12.166 11.965-1.287 5.011-7.611 8.536-14.747 8.536-.862 0-1.744-.051-2.625-.16-8.154-.99-13.597-6.35-12.16-11.965C53.513 40.526 59.842 37 66.986 37c.862 0 1.737.051 2.612.16zm7.242 11.367c.868-3.396-2.03-6.645-6.63-7.719-.475-.11-.969-.2-1.475-.257-.212-.026-.43-.045-.643-.065-.081-.006-.119-.006-.156-.012-.32-.02-.638-.033-.95-.033-4.256 0-8.074 1.879-9.448 4.664-.02.039-.038.07-.05.11a4.973 4.973 0 00-.419 1.338c-.175 1.035 0 2.051.462 2.984a.702.702 0 00.038.07c.05.09.056.117.069.136.256.47.58.913.974 1.331.02.026.038.04.057.058l.106.11c1.48 1.466 3.755 2.54 6.492 2.869.588.07 1.169.103 1.744.103 4.755.006 8.973-2.342 9.829-5.687z" fill="#45A74C"/>
	<path d="m81.987 40.389c-.562-13.67-29.343-13.863-29.98.032 0-.026-.007-.052-.007-.078v3.345c.569 8.273 10.773 10.987 17.509 10.17 5.142-.624 11.41-3.364 12.41-9.185.156-.74.044-3.577.081-4.362-.006.032-.013.052-.013.078zm-.062.855c.006-.026.006-.051.013-.07 0 .019-.007.044-.013.07z" fill="#34823A"/>
	<path d="m70.209 33.808c3.943.92 6.78 3.493 6.78 6.523 0 3.801-4.468 6.883-9.992 6.883-3.4 0-6.411-1.171-8.211-2.96-.031-.025-.044-.044-.063-.064l-.112-.116a6.446 6.446 0 01-1.012-1.402c-.05-.09-.056-.116-.069-.135a4.941 4.941 0 01-.531-2.206 4.609 4.609 0 01.15-1.197c.081-.309.187-.61.319-.9.024-.052.043-.09.062-.123 1.343-2.714 5.074-4.663 9.46-4.663.32 0 .632.013.938.032.037 0 .075.006.112.006.256.02.475.039.688.065.512.064 1.006.148 1.48.257z" fill="#E1EAC5"/>
	<path d="m71.815 34.78c2.524.932 5.142 3.035 5.174 6.02.187-2.496-1.544-4.625-3.58-5.75-3.7-2.059-8.412-2.123-12.223-.322h-.007c-2.293 1.093-4.399 3.32-4.18 6.085.494-6.606 9.904-8.034 14.816-6.034z" fill="#34823A"/>
	<path d="m73.102 37.333a3.047 3.047 0 00-.369-.321 3.876 3.876 0 00-.419-.258c-.05-.025-.093-.051-.143-.077s-.107-.045-.163-.064a2.171 2.171 0 00-.262-.097c-.325.74-.8 1.403-1.356 1.982l-.119-.007c-.344-.45-.768-.81-1.306-.99-.05-.02-.1-.04-.15-.058-.225-.097-.468-.142-.706-.206-.212-.065-.437-.077-.662-.116a6.256 6.256 0 00-1.662.026c-.263.032-.525.09-.775.16-.032.013-.069.02-.1.033-.9.263-1.731.817-2.237 1.62a4.265 4.265 0 00-.238.406 2.85 2.85 0 00-.075.142c-.218.405-.406.83-.643 1.222v.006a7.576 7.576 0 01-1.381 1.634s-.006.006-.013.006a.465.465 0 00-.069.058c-.024.02-.05.039-.056.065v.482c0 .064.138.122.225.16 2.543.934 5.312 1.776 8.03 1.435v-.476l-.007-.032a3.72 3.72 0 01-.724-.154 2.349 2.349 0 01-.425-.2 1.218 1.218 0 01-.256-.205c-.094-.116-.182-.238-.2-.38.468-1.428 3.293-1.524 3.824-.116 0 .007-.006.02-.006.026l-.02.07c-.093.258-.3.438-.537.547l-.006.007v.476l.05.045c1.331-.186 2.712-1.216 2.768-2.682.013-.483.007-1.023-.275-1.435-.156-.244-.412-.47-.656-.656-.05-.032-.106-.064-.156-.096-.206-.11-.412-.22-.637-.29.58-.45 1.224-.855 1.93-1.216v-.476h-.018zm-5.88 6.857m5.649-2.959c0 .013-.007.033-.007.045.007-.012.007-.032.007-.045z" fill="#34823A"/>
	<path d="m73.102 37.333c-.856.431-1.631.94-2.3 1.512-.037.032-.019.077.038.09.8.167 1.45.604 1.78 1.132.344.56.35 1.196.094 1.775-.33.766-1.056 1.486-2.13 1.77-.063.012-.4.09-.463.102l-.05-.045c.031-.032.238-.11.319-.2.425-.45.362-1.048-.063-1.427-.362-.322-.968-.496-1.568-.496-.219 0-.431.02-.631.071-.756.174-1.344.676-1.35 1.306 0 .611.594 1.036 1.65 1.158l.006.032c-.206.064-.531.09-.925.09-.975 0-2.368-.167-3.35-.373-1.311-.277-2.549-.708-3.755-1.151-.093-.04-.243-.103-.225-.168.013-.038.1-.103.138-.128a6.958 6.958 0 001.38-1.634c.55-.92.838-1.956 1.8-2.702.832-.643 2.013-.958 3.194-.958 1.018 0 2.037.238 2.824.7.306.18.531.483.744.721l.118.007a6.717 6.717 0 001.356-1.982c.563.161 1.044.444 1.369.798z" fill="#45A74C"/>
	<path d="M69.597 30.16c8.154.991 13.603 6.35 12.166 11.965-1.287 5.011-7.611 8.536-14.747 8.536-.862 0-1.744-.051-2.625-.16-8.154-.99-13.597-6.35-12.16-11.965C53.513 33.526 59.842 30 66.986 30c.862 0 1.737.052 2.612.16zm7.242 11.367c.868-3.396-2.03-6.645-6.63-7.719-.475-.11-.969-.2-1.475-.257-.212-.026-.43-.045-.643-.065-.081-.006-.119-.006-.156-.012-.32-.02-.638-.033-.95-.033-4.256 0-8.074 1.879-9.448 4.664-.02.039-.038.07-.05.11a4.973 4.973 0 00-.419 1.338c-.175 1.035 0 2.051.462 2.984a.702.702 0 00.038.07c.05.09.056.117.069.136.256.47.58.913.974 1.331.02.026.038.04.057.058l.106.11c1.48 1.466 3.755 2.54 6.492 2.869.588.07 1.169.103 1.744.103 4.755.006 8.973-2.342 9.829-5.687z" fill="#45A74C"/>
	<path d="m78.987 35.389c-.562-13.67-29.343-13.863-29.98.032 0-.026-.007-.052-.007-.078v3.345c.569 8.273 10.773 10.987 17.509 10.17 5.142-.624 11.41-3.364 12.41-9.185.156-.74.044-3.577.081-4.362-.006.032-.013.052-.013.078zm-.062.855c.006-.026.006-.051.013-.07 0 .019-.007.044-.013.07z" fill="#34823A"/>
	<path d="m67.209 28.808c3.943.92 6.78 3.493 6.78 6.523 0 3.801-4.468 6.883-9.992 6.883-3.4 0-6.411-1.171-8.211-2.96-.031-.025-.044-.044-.063-.064l-.112-.116a6.446 6.446 0 01-1.012-1.402c-.05-.09-.056-.116-.069-.135a4.941 4.941 0 01-.531-2.206 4.609 4.609 0 01.15-1.197c.081-.309.187-.61.319-.9.024-.052.043-.09.062-.123 1.343-2.714 5.074-4.663 9.46-4.663.32 0 .632.013.938.032.037 0 .075.006.112.006.256.02.475.039.688.065.512.064 1.006.148 1.48.257z" fill="#E1EAC5"/>
	<path d="m68.815 29.78c2.524.932 5.142 3.035 5.174 6.02.187-2.496-1.544-4.625-3.58-5.75-3.7-2.059-8.412-2.123-12.223-.322h-.007c-2.293 1.093-4.399 3.32-4.18 6.085.494-6.606 9.904-8.034 14.816-6.034z" fill="#34823A"/>
	<path d="m70.102 32.333a3.047 3.047 0 00-.369-.321 3.876 3.876 0 00-.419-.258c-.05-.025-.093-.051-.143-.077s-.107-.045-.163-.064a2.171 2.171 0 00-.262-.097c-.325.74-.8 1.403-1.356 1.982l-.119-.007c-.344-.45-.768-.81-1.306-.99-.05-.02-.1-.04-.15-.058-.225-.097-.468-.142-.706-.206-.212-.065-.437-.077-.662-.116a6.256 6.256 0 00-1.662.026c-.263.032-.525.09-.775.16-.032.013-.069.02-.1.033-.9.263-1.731.817-2.237 1.62a4.265 4.265 0 00-.238.406 2.85 2.85 0 00-.075.142c-.218.405-.406.83-.643 1.222v.006a7.576 7.576 0 01-1.381 1.634s-.006.006-.013.006a.465.465 0 00-.069.058c-.024.02-.05.039-.056.065v.482c0 .064.138.122.225.16 2.543.934 5.312 1.776 8.03 1.435v-.476l-.007-.032a3.72 3.72 0 01-.724-.154 2.349 2.349 0 01-.425-.2 1.218 1.218 0 01-.256-.205c-.094-.116-.182-.238-.2-.38.468-1.428 3.293-1.524 3.824-.116 0 .007-.006.02-.006.026l-.02.07c-.093.258-.3.438-.537.547l-.006.007v.476l.05.045c1.331-.186 2.712-1.216 2.768-2.682.013-.483.007-1.023-.275-1.435-.156-.244-.412-.47-.656-.656-.05-.032-.106-.064-.156-.096-.206-.11-.412-.22-.637-.29.58-.45 1.224-.855 1.93-1.216v-.476h-.018zm-5.88 6.857m5.649-2.959c0 .013-.007.033-.007.045.007-.012.007-.032.007-.045z" fill="#34823A"/>
	<path d="m70.102 32.333c-.856.431-1.631.94-2.3 1.512-.037.032-.019.077.038.09.8.167 1.45.604 1.78 1.132.344.56.35 1.196.094 1.775-.33.766-1.056 1.486-2.13 1.77-.063.012-.4.09-.463.102l-.05-.045c.031-.032.238-.11.319-.2.425-.45.362-1.048-.063-1.427-.362-.322-.968-.496-1.568-.496-.219 0-.431.02-.631.071-.756.174-1.344.676-1.35 1.306 0 .611.594 1.036 1.65 1.158l.006.032c-.206.064-.531.09-.925.09-.975 0-2.368-.167-3.35-.373-1.311-.277-2.549-.708-3.755-1.151-.093-.04-.243-.103-.225-.168.013-.038.1-.103.138-.128a6.958 6.958 0 001.38-1.634c.55-.92.838-1.956 1.8-2.702.832-.643 2.013-.958 3.194-.958 1.018 0 2.037.238 2.824.7.306.18.531.483.744.721l.118.007a6.717 6.717 0 001.356-1.982c.563.161 1.044.444 1.369.798z" fill="#45A74C"/>
	<path d="M66.597 25.16c8.154.991 13.603 6.35 12.166 11.965-1.287 5.011-7.611 8.536-14.747 8.536-.862 0-1.744-.051-2.625-.16-8.154-.99-13.597-6.35-12.16-11.965C50.513 28.526 56.842 25 63.985 25c.862 0 1.737.052 2.612.16zm7.242 11.367c.868-3.396-2.03-6.645-6.63-7.719-.475-.11-.969-.2-1.475-.257-.212-.026-.43-.045-.643-.064-.081-.007-.119-.007-.156-.013-.32-.02-.638-.033-.95-.033-4.256 0-8.074 1.879-9.448 4.664-.02.039-.038.07-.05.11a4.973 4.973 0 00-.419 1.338c-.175 1.035 0 2.051.462 2.984a.702.702 0 00.038.07c.05.09.056.117.069.136.256.47.58.913.974 1.331.02.026.038.04.057.058l.106.11c1.48 1.466 3.755 2.54 6.492 2.869.588.07 1.169.103 1.744.103 4.755.006 8.973-2.342 9.829-5.687z" fill="#45A74C"/>
	<path d="m96.987 67.388c-.562-13.669-29.343-13.862-29.98.033 0-.026-.007-.052-.007-.078v3.345c.569 8.273 10.773 10.987 17.509 10.17 5.142-.624 11.41-3.364 12.41-9.185.156-.74.044-3.577.081-4.362-.006.032-.013.052-.013.077zm-.062.856c.006-.026.006-.051.013-.07 0 .019-.007.044-.013.07z" fill="#34823A"/>
	<path d="m85.209 60.808c3.943.92 6.78 3.493 6.78 6.523 0 3.801-4.468 6.882-9.992 6.882-3.4 0-6.411-1.17-8.211-2.959-.031-.025-.044-.044-.063-.064l-.112-.116a6.446 6.446 0 01-.975-1.331c-.012-.026-.025-.052-.037-.07-.05-.091-.056-.117-.069-.136a4.941 4.941 0 01-.531-2.206 4.609 4.609 0 01.15-1.197c.081-.309.187-.61.319-.9.025-.052.043-.09.062-.123 1.344-2.714 5.074-4.663 9.46-4.663.32 0 .632.013.938.032.037 0 .075.006.112.006.256.02.475.039.688.065.512.064 1.006.148 1.48.257z" fill="#E1EAC5"/>
	<path d="m86.815 61.78c2.524.932 5.142 3.035 5.174 6.02.187-2.496-1.544-4.625-3.58-5.75-3.7-2.059-8.412-2.123-12.223-.322h-.007c-2.293 1.093-4.399 3.32-4.18 6.085.494-6.606 9.904-8.034 14.816-6.034z" fill="#34823A"/>
	<path d="m88.102 64.333a3.047 3.047 0 00-.369-.321 3.876 3.876 0 00-.419-.258c-.05-.025-.093-.051-.143-.077s-.107-.045-.163-.064a2.171 2.171 0 00-.262-.097c-.325.74-.8 1.403-1.356 1.982l-.119-.007c-.344-.45-.768-.81-1.306-.99-.05-.02-.1-.04-.15-.058-.225-.097-.468-.142-.706-.206-.212-.064-.437-.077-.662-.116a6.256 6.256 0 00-1.662.026c-.263.032-.525.09-.775.16-.032.013-.069.02-.1.033-.9.263-1.731.817-2.237 1.62a4.265 4.265 0 00-.238.406 2.85 2.85 0 00-.075.141c-.218.406-.406.83-.643 1.223v.006a7.576 7.576 0 01-1.381 1.634s-.007.006-.013.006a.465.465 0 00-.069.058c-.025.02-.05.039-.056.065v.482c0 .064.138.122.225.16 2.543.934 5.312 1.776 8.03 1.435v-.476l-.007-.032a3.72 3.72 0 01-.724-.154 2.349 2.349 0 01-.425-.2 1.218 1.218 0 01-.256-.205c-.094-.116-.182-.238-.2-.38.468-1.428 3.293-1.525 3.824-.116 0 .007-.006.02-.006.026l-.02.07c-.093.258-.3.438-.537.547l-.006.007v.476l.05.045c1.331-.186 2.712-1.216 2.768-2.682.013-.483.007-1.023-.275-1.435-.156-.244-.412-.47-.656-.656-.05-.032-.106-.064-.156-.097-.206-.109-.412-.218-.637-.289.58-.45 1.224-.856 1.93-1.216v-.476h-.018zm-5.88 6.857m5.649-2.959c0 .013-.007.033-.007.046.007-.013.007-.033.007-.046z" fill="#34823A"/>
	<path d="m88.102 64.333c-.856.431-1.631.94-2.3 1.512-.037.032-.019.077.038.09.8.167 1.45.604 1.78 1.132.344.56.35 1.196.094 1.775-.33.766-1.056 1.486-2.13 1.77-.063.012-.4.09-.463.102l-.05-.045c.031-.032.238-.11.319-.2.425-.45.362-1.048-.063-1.427-.362-.322-.968-.496-1.568-.496-.219 0-.431.02-.631.071-.756.174-1.344.676-1.35 1.306 0 .611.594 1.036 1.65 1.158l.006.032c-.206.064-.531.09-.925.09-.975 0-2.368-.167-3.35-.373-1.311-.277-2.549-.708-3.755-1.151-.093-.04-.243-.103-.224-.168.012-.038.1-.103.137-.128a6.958 6.958 0 001.38-1.634c.55-.92.838-1.956 1.8-2.702.832-.643 2.013-.958 3.194-.958 1.018 0 2.037.238 2.824.7.306.18.531.483.744.721l.118.007a6.717 6.717 0 001.356-1.982c.563.161 1.044.444 1.369.798z" fill="#45A74C"/>
	<path d="M84.597 57.16c8.154.991 13.603 6.35 12.166 11.965-1.287 5.011-7.611 8.537-14.747 8.537-.862 0-1.744-.052-2.625-.161-8.154-.99-13.597-6.35-12.16-11.965C68.513 60.526 74.843 57 81.986 57c.862 0 1.737.051 2.612.16zm7.242 11.367c.868-3.396-2.03-6.645-6.63-7.719-.475-.11-.969-.2-1.475-.257-.212-.026-.43-.045-.643-.065-.081-.006-.119-.006-.156-.012-.32-.02-.638-.033-.95-.033-4.256 0-8.074 1.879-9.448 4.664-.02.039-.038.07-.05.11a4.973 4.973 0 00-.419 1.338c-.175 1.035 0 2.051.462 2.984a.702.702 0 00.038.07c.05.09.056.117.069.136.256.47.58.913.974 1.332.02.025.038.038.057.057l.106.11c1.48 1.466 3.755 2.54 6.492 2.869.588.07 1.169.103 1.744.103 4.755.006 8.973-2.342 9.829-5.687z" fill="#45A74C"/>
	<path d="m182.988 62.389c-.563-13.67-29.344-13.863-29.982.032 0-.026-.006-.052-.006-.078v3.345c.569 8.273 10.773 10.987 17.509 10.17 5.143-.624 11.41-3.364 12.41-9.185.156-.74.044-3.577.081-4.362-.006.032-.012.052-.012.078zm-.063.855c.006-.026.006-.051.013-.07 0 .019-.007.044-.013.07z" fill="#34823A"/>
	<path d="m171.209 55.808c3.943.92 6.779 3.493 6.779 6.523 0 3.801-4.467 6.882-9.991 6.882-3.399 0-6.411-1.17-8.211-2.959-.031-.025-.044-.044-.062-.064a6.429 6.429 0 01-1.125-1.518c-.05-.09-.056-.116-.069-.135a4.936 4.936 0 01-.531-2.206 4.693 4.693 0 01.15-1.197c.081-.309.187-.61.319-.9.025-.052.043-.09.062-.123 1.344-2.714 5.074-4.663 9.461-4.663.318 0 .631.013.937.032.037 0 .075.006.112.006.257.02.475.039.688.065.512.064 1.006.148 1.481.257z" fill="#E1EAC5"/>
	<path d="m172.815 56.78c2.524.932 5.142 3.035 5.174 6.02.187-2.496-1.544-4.625-3.581-5.75-3.699-2.059-8.411-2.123-12.222-.322h-.007c-2.293 1.093-4.399 3.32-4.18 6.085.494-6.606 9.904-8.034 14.816-6.034z" fill="#34823A"/>
	<path d="m174.102 59.333c-.106-.115-.238-.218-.369-.321a3.853 3.853 0 00-.419-.258c-.05-.025-.093-.051-.143-.077a1.19 1.19 0 00-.163-.064 2.165 2.165 0 00-.262-.097 6.88 6.88 0 01-1.356 1.982l-.119-.007c-.344-.45-.768-.81-1.306-.99-.05-.02-.1-.04-.15-.058-.225-.097-.468-.142-.706-.206-.212-.065-.437-.077-.662-.116a6.255 6.255 0 00-1.662.026 5.16 5.16 0 00-.775.16c-.032.013-.069.02-.1.033-.9.263-1.731.817-2.237 1.62a4.165 4.165 0 00-.238.406 2.85 2.85 0 00-.075.142c-.218.405-.406.83-.643 1.222v.006a7.582 7.582 0 01-1.381 1.634s-.007.006-.013.006a.45.45 0 00-.069.058c-.025.02-.05.039-.056.065v.482c0 .064.138.122.225.16 2.543.934 5.312 1.776 8.03 1.435v-.476l-.006-.032c-.25-.032-.5-.077-.725-.154a2.312 2.312 0 01-.425-.2 1.199 1.199 0 01-.256-.205c-.094-.116-.182-.238-.2-.38.468-1.428 3.293-1.525 3.824-.116 0 .007-.006.02-.006.026l-.019.07c-.094.258-.3.438-.538.547l-.006.007v.476l.05.045c1.331-.186 2.712-1.216 2.768-2.682.013-.483.007-1.023-.275-1.435-.156-.244-.412-.47-.656-.656-.05-.032-.106-.064-.156-.096-.206-.11-.412-.22-.637-.29.581-.45 1.224-.855 1.931-1.216v-.476h-.019zm-5.88 6.857m5.649-2.959c0 .013-.007.033-.007.045.007-.012.007-.032.007-.045z" fill="#34823A"/>
	<path d="m174.102 59.333c-.856.431-1.631.94-2.3 1.512-.037.032-.019.077.038.09.8.167 1.449.604 1.781 1.132.343.56.35 1.196.093 1.775-.331.766-1.056 1.486-2.13 1.77-.063.012-.4.09-.463.102l-.05-.045c.031-.032.238-.11.319-.2.425-.45.362-1.048-.063-1.427-.362-.322-.968-.496-1.568-.496-.219 0-.431.02-.631.071-.756.174-1.344.676-1.35 1.306 0 .611.594 1.036 1.65 1.158l.006.032c-.206.064-.531.09-.925.09-.975 0-2.368-.167-3.349-.373-1.312-.277-2.55-.708-3.756-1.151-.093-.04-.243-.103-.225-.168.013-.038.1-.103.138-.128a6.97 6.97 0 001.381-1.634c.55-.92.837-1.956 1.8-2.702.831-.643 2.012-.958 3.193-.958 1.018 0 2.037.238 2.824.7.306.18.531.483.744.721l.118.007a6.707 6.707 0 001.356-1.982c.563.161 1.044.444 1.369.798z" fill="#45A74C"/>
	<path d="m170.597 52.16c8.154.991 13.603 6.35 12.166 11.965-1.287 5.011-7.611 8.537-14.747 8.537-.862 0-1.743-.052-2.625-.161-8.154-.99-13.597-6.35-12.159-11.965 1.28-5.01 7.61-8.536 14.753-8.536a21.1 21.1 0 012.612.16zm7.242 11.367c.868-3.396-2.031-6.645-6.63-7.719-.475-.11-.969-.2-1.475-.257-.212-.026-.431-.045-.643-.065-.082-.006-.119-.006-.157-.012a15.75 15.75 0 00-.949-.033c-4.256 0-8.074 1.879-9.448 4.664-.019.039-.038.07-.05.11-.144.308-.25.61-.332.92a5.177 5.177 0 00-.087.417c-.175 1.036 0 2.052.462 2.985.013.026.025.052.038.07.05.09.056.117.069.136.256.47.581.913.974 1.332.019.025.038.038.057.057l.106.11c1.481 1.466 3.755 2.54 6.492 2.869.588.07 1.169.103 1.744.103 4.755.006 8.973-2.342 9.829-5.687z" fill="#45A74C"/>
	<path d="m128.988 60.389c-.563-13.67-29.344-13.863-29.982.032 0-.026-.006-.052-.006-.078v3.345c.569 8.273 10.773 10.987 17.509 10.17 5.143-.624 11.41-3.364 12.41-9.185.156-.74.044-3.577.081-4.362-.006.032-.012.052-.012.078zm-.063.855c.006-.026.006-.051.013-.07 0 .019-.007.044-.013.07z" fill="#34823A"/>
	<path d="m117.209 53.808c3.943.92 6.779 3.493 6.779 6.523 0 3.801-4.467 6.882-9.991 6.882-3.399 0-6.411-1.17-8.211-2.959-.031-.025-.044-.044-.062-.064l-.113-.116a6.429 6.429 0 01-1.012-1.402c-.05-.09-.056-.116-.069-.135a4.936 4.936 0 01-.531-2.206 4.693 4.693 0 01.15-1.197c.081-.309.187-.61.319-.9.025-.052.043-.09.062-.123 1.344-2.714 5.074-4.663 9.461-4.663.318 0 .631.013.937.032.037 0 .075.006.112.006.257.02.475.039.688.065.512.064 1.006.148 1.481.257z" fill="#E1EAC5"/>
	<path d="m118.815 54.78c2.524.932 5.142 3.035 5.174 6.02.187-2.496-1.544-4.625-3.581-5.75-3.699-2.059-8.411-2.123-12.222-.322h-.007c-2.293 1.093-4.399 3.32-4.18 6.085.494-6.606 9.904-8.034 14.816-6.034z" fill="#34823A"/>
	<path d="m120.102 57.333c-.106-.115-.238-.218-.369-.321a3.853 3.853 0 00-.419-.258c-.05-.025-.093-.051-.143-.077a1.19 1.19 0 00-.163-.064 2.165 2.165 0 00-.262-.097 6.88 6.88 0 01-1.356 1.982l-.119-.007c-.344-.45-.768-.81-1.306-.99-.05-.02-.1-.04-.15-.058-.225-.097-.468-.142-.706-.206-.212-.065-.437-.077-.662-.116a6.255 6.255 0 00-1.662.026 5.16 5.16 0 00-.775.16c-.032.013-.069.02-.1.033-.9.263-1.731.817-2.237 1.62a4.165 4.165 0 00-.238.406 2.85 2.85 0 00-.075.142c-.218.405-.406.83-.643 1.222v.006a7.582 7.582 0 01-1.381 1.634s-.007.006-.013.006a.45.45 0 00-.069.058c-.025.02-.05.039-.056.065v.482c0 .064.138.122.225.16 2.543.934 5.312 1.776 8.03 1.435v-.476l-.006-.032c-.25-.032-.5-.077-.725-.154a2.312 2.312 0 01-.425-.2 1.199 1.199 0 01-.256-.205c-.094-.116-.182-.238-.2-.38.468-1.428 3.293-1.524 3.824-.116 0 .007-.006.02-.006.026l-.019.07c-.094.258-.3.438-.538.547l-.006.007v.476l.05.045c1.331-.186 2.712-1.216 2.768-2.682.013-.483.007-1.023-.275-1.435-.156-.244-.412-.47-.656-.656-.05-.032-.106-.064-.156-.096-.206-.11-.412-.22-.637-.29.581-.45 1.224-.855 1.931-1.216v-.476h-.019zm-5.88 6.857m5.649-2.959c0 .013-.007.033-.007.045.007-.012.007-.032.007-.045z" fill="#34823A"/>
	<path d="m120.102 57.333c-.856.431-1.631.94-2.3 1.512-.037.032-.019.077.038.09.8.167 1.449.604 1.781 1.132.343.56.35 1.196.093 1.775-.331.766-1.056 1.486-2.13 1.77-.063.012-.4.09-.463.102l-.05-.045c.031-.032.238-.11.319-.2.425-.45.362-1.048-.063-1.427-.362-.322-.968-.496-1.568-.496-.219 0-.431.02-.631.071-.756.174-1.344.676-1.35 1.306 0 .611.594 1.036 1.65 1.158l.006.032c-.206.064-.531.09-.925.09-.975 0-2.368-.167-3.349-.373-1.312-.277-2.55-.708-3.756-1.151-.093-.04-.243-.103-.225-.168.013-.038.1-.103.138-.128a6.97 6.97 0 001.381-1.634c.55-.92.837-1.956 1.8-2.702.831-.643 2.012-.958 3.193-.958 1.018 0 2.037.238 2.824.7.306.18.531.483.744.721l.118.007a6.707 6.707 0 001.356-1.982c.563.161 1.044.444 1.369.798z" fill="#45A74C"/>
	<path d="m116.597 50.16c8.154.991 13.603 6.35 12.166 11.965-1.287 5.011-7.611 8.537-14.747 8.537-.862 0-1.743-.052-2.625-.161-8.154-.99-13.597-6.35-12.16-11.965 1.281-5.01 7.611-8.536 14.754-8.536a21.1 21.1 0 012.612.16zm7.242 11.367c.868-3.396-2.031-6.645-6.63-7.719-.475-.11-.969-.2-1.475-.257-.212-.026-.431-.045-.643-.065-.082-.006-.119-.006-.157-.012a15.75 15.75 0 00-.949-.033c-4.256 0-8.074 1.879-9.448 4.664-.019.039-.038.07-.05.11-.144.308-.25.61-.332.92a5.177 5.177 0 00-.087.417c-.175 1.036 0 2.052.462 2.985.013.026.025.052.038.07.05.09.056.117.069.136.256.47.581.913.974 1.331.019.026.038.04.057.058l.106.11c1.481 1.466 3.755 2.54 6.492 2.869.588.07 1.169.103 1.744.103 4.755.006 8.973-2.342 9.829-5.687z" fill="#45A74C"/>
	<path d="m144.988 34.389c-.563-13.67-29.344-13.863-29.982.032 0-.026-.006-.052-.006-.078v3.345c.569 8.273 10.773 10.987 17.509 10.17 5.143-.624 11.41-3.364 12.41-9.185.156-.74.044-3.577.081-4.362-.006.032-.012.052-.012.078zm-.063.855c.006-.026.006-.051.013-.07 0 .019-.007.044-.013.07z" fill="#34823A"/>
	<path d="m133.209 27.808c3.943.92 6.779 3.493 6.779 6.523 0 3.801-4.467 6.883-9.991 6.883-3.399 0-6.411-1.171-8.211-2.96-.031-.025-.044-.044-.062-.064l-.113-.116a6.429 6.429 0 01-1.012-1.402c-.05-.09-.056-.116-.069-.135a4.936 4.936 0 01-.531-2.206 4.693 4.693 0 01.15-1.197c.081-.309.187-.61.319-.9.025-.052.043-.09.062-.123 1.344-2.714 5.074-4.663 9.461-4.663.318 0 .631.013.937.032.037 0 .075.006.112.006.257.02.475.039.688.065.512.064 1.006.148 1.481.257z" fill="#E1EAC5"/>
	<path d="m134.815 28.78c2.524.932 5.142 3.035 5.174 6.02.187-2.496-1.544-4.625-3.581-5.75-3.699-2.059-8.411-2.123-12.222-.322h-.007c-2.293 1.093-4.399 3.32-4.18 6.085.494-6.606 9.904-8.034 14.816-6.034z" fill="#34823A"/>
	<path d="m136.102 31.333c-.106-.115-.238-.218-.369-.321a3.853 3.853 0 00-.419-.258c-.05-.025-.093-.051-.143-.077a1.19 1.19 0 00-.163-.064 2.165 2.165 0 00-.262-.097 6.88 6.88 0 01-1.356 1.982l-.119-.007c-.344-.45-.768-.81-1.306-.99-.05-.02-.1-.04-.15-.058-.225-.097-.468-.142-.706-.206-.212-.064-.437-.077-.662-.116a6.255 6.255 0 00-1.662.026 5.16 5.16 0 00-.775.16c-.032.013-.069.02-.1.033-.9.264-1.731.817-2.237 1.62a4.165 4.165 0 00-.238.406 2.85 2.85 0 00-.075.142c-.218.405-.406.83-.643 1.222v.006a7.582 7.582 0 01-1.381 1.634s-.007.006-.013.006a.45.45 0 00-.069.058c-.025.02-.05.039-.056.065v.482c0 .064.138.122.225.16 2.543.934 5.312 1.776 8.03 1.435v-.476l-.006-.032c-.25-.032-.5-.077-.725-.154a2.312 2.312 0 01-.425-.2 1.199 1.199 0 01-.256-.205c-.094-.116-.182-.238-.2-.38.468-1.428 3.293-1.524 3.824-.116 0 .007-.006.02-.006.026l-.019.07c-.094.258-.3.438-.538.547l-.006.007v.476l.05.045c1.331-.186 2.712-1.216 2.768-2.682.013-.483.007-1.023-.275-1.435-.156-.244-.412-.47-.656-.656-.05-.032-.106-.064-.156-.096-.206-.11-.412-.22-.637-.29.581-.45 1.224-.855 1.931-1.216v-.476h-.019zm-5.88 6.857m5.649-2.959c0 .013-.007.033-.007.045.007-.012.007-.032.007-.045z" fill="#34823A"/>
	<path d="m136.102 31.333c-.856.431-1.631.94-2.3 1.512-.037.032-.019.077.038.09.8.167 1.449.604 1.781 1.132.343.56.35 1.196.093 1.775-.331.766-1.056 1.486-2.13 1.77-.063.012-.4.09-.463.102l-.05-.045c.031-.032.238-.11.319-.2.425-.45.362-1.048-.063-1.427-.362-.322-.968-.496-1.568-.496-.219 0-.431.02-.631.071-.756.174-1.344.676-1.35 1.306 0 .611.594 1.036 1.65 1.158l.006.032c-.206.064-.531.09-.925.09-.975 0-2.368-.167-3.349-.373-1.312-.277-2.55-.708-3.756-1.151-.093-.04-.243-.103-.225-.168.013-.038.1-.103.138-.128a6.97 6.97 0 001.381-1.634c.55-.92.837-1.956 1.8-2.702.831-.643 2.012-.958 3.193-.958 1.018 0 2.037.238 2.824.7.306.18.531.483.744.721l.118.007a6.707 6.707 0 001.356-1.982c.563.161 1.044.444 1.369.798z" fill="#45A74C"/>
	<path d="m132.597 24.16c8.154.991 13.603 6.35 12.166 11.965-1.287 5.011-7.611 8.536-14.747 8.536-.862 0-1.743-.051-2.625-.16-8.154-.99-13.597-6.35-12.159-11.965 1.28-5.01 7.61-8.536 14.753-8.536a21.1 21.1 0 012.612.16zm7.242 11.367c.868-3.396-2.031-6.645-6.63-7.719-.475-.11-.969-.2-1.475-.257-.212-.026-.431-.045-.643-.064-.082-.007-.119-.007-.157-.013a15.75 15.75 0 00-.949-.033c-4.256 0-8.074 1.879-9.448 4.664-.019.039-.038.07-.05.11-.144.308-.25.61-.332.92a5.177 5.177 0 00-.087.417c-.175 1.036 0 2.052.462 2.985.013.026.025.052.038.07.05.09.056.117.069.136.256.47.581.913.974 1.331.019.026.038.04.057.058l.106.11c1.481 1.466 3.755 2.54 6.492 2.869.588.07 1.169.103 1.744.103 4.755.006 8.973-2.342 9.829-5.687z" fill="#45A74C"/>
	<path d="m106.988 52.389c-.563-13.67-29.344-13.863-29.982.032 0-.026-.006-.052-.006-.078v3.345c.569 8.273 10.773 10.987 17.509 10.17 5.142-.624 11.41-3.364 12.41-9.185.156-.74.044-3.577.081-4.362-.006.032-.012.052-.012.078zm-.063.855c.006-.026.006-.051.013-.07 0 .019-.007.044-.013.07z" fill="#34823A"/>
	<path d="m95.209 45.808c3.943.92 6.779 3.493 6.779 6.523 0 3.801-4.467 6.883-9.991 6.883-3.4 0-6.411-1.171-8.211-2.96-.031-.025-.044-.044-.063-.064l-.112-.116a6.446 6.446 0 01-.975-1.331c-.012-.026-.025-.052-.037-.07-.05-.091-.056-.117-.069-.136a4.941 4.941 0 01-.531-2.206 4.609 4.609 0 01.15-1.197c.081-.309.187-.61.319-.9.025-.052.043-.09.062-.123 1.344-2.714 5.074-4.663 9.46-4.663.32 0 .632.013.938.032.037 0 .075.006.112.006.256.02.475.039.688.065.512.064 1.006.148 1.48.257z" fill="#E1EAC5"/>
	<path d="m96.815 46.78c2.524.932 5.142 3.035 5.174 6.02.187-2.496-1.544-4.625-3.58-5.75-3.7-2.059-8.412-2.123-12.223-.322h-.007c-2.293 1.093-4.399 3.32-4.18 6.085.494-6.606 9.904-8.034 14.816-6.034z" fill="#34823A"/>
	<path d="m98.102 49.333a3.047 3.047 0 00-.369-.321 3.876 3.876 0 00-.419-.258c-.05-.025-.093-.051-.143-.077s-.107-.045-.163-.064a2.171 2.171 0 00-.262-.097c-.325.74-.8 1.403-1.356 1.982l-.119-.007c-.344-.45-.768-.81-1.306-.99-.05-.02-.1-.04-.15-.058-.225-.097-.468-.142-.706-.206-.212-.065-.437-.077-.662-.116a6.256 6.256 0 00-1.662.026c-.263.032-.525.09-.775.16-.032.013-.069.02-.1.033-.9.263-1.731.817-2.237 1.62a4.265 4.265 0 00-.238.406 2.85 2.85 0 00-.075.142c-.218.405-.406.83-.643 1.222v.006a7.576 7.576 0 01-1.381 1.634s-.007.006-.013.006a.465.465 0 00-.069.058c-.025.02-.05.039-.056.065v.482c0 .064.138.122.225.16 2.543.934 5.312 1.776 8.03 1.435v-.476l-.007-.032a3.72 3.72 0 01-.724-.154 2.349 2.349 0 01-.425-.2 1.218 1.218 0 01-.256-.205c-.094-.116-.182-.238-.2-.38.468-1.428 3.293-1.524 3.824-.116 0 .007-.006.02-.006.026l-.02.07c-.093.258-.3.438-.537.547l-.006.007v.476l.05.045c1.331-.186 2.712-1.216 2.768-2.682.013-.483.007-1.023-.275-1.435-.156-.244-.412-.47-.656-.656-.05-.032-.106-.064-.156-.096-.206-.11-.412-.22-.637-.29.58-.45 1.224-.855 1.93-1.216v-.476h-.018zm-5.88 6.857m5.649-2.959c0 .013-.007.033-.007.045.007-.012.007-.032.007-.045z" fill="#34823A"/>
	<path d="m98.102 49.333c-.856.431-1.631.94-2.3 1.512-.037.032-.019.077.038.09.8.167 1.45.604 1.78 1.132.344.56.35 1.196.094 1.775-.33.766-1.056 1.486-2.13 1.77-.063.012-.4.09-.463.102l-.05-.045c.031-.032.238-.11.319-.2.425-.45.362-1.048-.063-1.427-.362-.322-.968-.496-1.568-.496-.219 0-.431.02-.631.071-.756.174-1.344.676-1.35 1.306 0 .611.594 1.036 1.65 1.158l.006.032c-.206.064-.531.09-.925.09-.975 0-2.368-.167-3.35-.373-1.311-.277-2.549-.708-3.755-1.151-.093-.04-.243-.103-.224-.168.012-.038.1-.103.137-.128a6.958 6.958 0 001.38-1.634c.55-.92.838-1.956 1.8-2.702.832-.643 2.013-.958 3.194-.958 1.018 0 2.037.238 2.824.7.306.18.531.483.744.721l.118.007a6.717 6.717 0 001.356-1.982c.563.161 1.044.444 1.369.798z" fill="#45A74C"/>
	<path d="M94.597 42.16c8.154.991 13.603 6.35 12.166 11.965-1.287 5.011-7.611 8.536-14.747 8.536-.862 0-1.744-.051-2.625-.16-8.154-.99-13.597-6.35-12.16-11.965C78.513 45.526 84.843 42 91.986 42c.862 0 1.737.051 2.612.16zm7.242 11.367c.868-3.396-2.03-6.645-6.63-7.719-.475-.11-.969-.2-1.475-.257-.212-.026-.43-.045-.643-.065-.081-.006-.119-.006-.156-.012-.32-.02-.638-.033-.95-.033-4.256 0-8.074 1.879-9.448 4.664-.02.039-.038.07-.05.11a4.973 4.973 0 00-.419 1.338c-.175 1.035 0 2.051.462 2.984a.702.702 0 00.038.07c.05.09.056.117.069.136.256.47.58.913.974 1.331.02.026.038.04.057.058l.106.11c1.48 1.466 3.755 2.54 6.492 2.869.588.07 1.169.103 1.744.103 4.755.006 8.973-2.342 9.829-5.687z" fill="#45A74C"/>
	<path d="m98.987 18.389c-.562-13.67-29.343-13.863-29.98.032 0-.026-.007-.052-.007-.078v3.345c.569 8.273 10.773 10.987 17.509 10.17 5.142-.624 11.41-3.364 12.41-9.185.156-.74.044-3.577.081-4.362-.006.032-.013.052-.013.078zm-.062.855c.006-.026.006-.051.013-.07 0 .019-.007.044-.013.07z" fill="#34823A"/>
	<path d="m87.209 11.808c3.943.92 6.78 3.493 6.78 6.523 0 3.801-4.468 6.883-9.992 6.883-3.4 0-6.411-1.171-8.211-2.96-.031-.025-.044-.045-.063-.064l-.112-.116a6.446 6.446 0 01-1.012-1.402c-.05-.09-.056-.116-.069-.135a4.941 4.941 0 01-.531-2.206 4.609 4.609 0 01.15-1.197c.081-.309.187-.61.319-.9.025-.052.043-.09.062-.123 1.344-2.714 5.074-4.663 9.46-4.663.32 0 .632.013.938.032.037 0 .075.006.112.006.256.02.475.039.688.065.512.064 1.006.148 1.48.257z" fill="#E1EAC5"/>
	<path d="m88.815 12.78c2.524.932 5.142 3.036 5.174 6.02.187-2.496-1.544-4.625-3.58-5.75-3.7-2.059-8.412-2.123-12.223-.322h-.007c-2.293 1.093-4.399 3.32-4.18 6.085.494-6.606 9.904-8.034 14.816-6.034z" fill="#34823A"/>
	<path d="m90.102 15.333a3.047 3.047 0 00-.369-.321 3.876 3.876 0 00-.419-.258c-.05-.025-.093-.051-.143-.077s-.107-.045-.163-.064a2.171 2.171 0 00-.262-.097c-.325.74-.8 1.403-1.356 1.982l-.119-.007c-.344-.45-.768-.81-1.306-.99-.05-.02-.1-.04-.15-.058-.225-.097-.468-.142-.706-.206-.212-.065-.437-.077-.662-.116a6.256 6.256 0 00-1.662.026c-.263.032-.525.09-.775.16-.032.013-.069.02-.1.033-.9.264-1.731.817-2.237 1.62a4.265 4.265 0 00-.238.406 2.85 2.85 0 00-.075.142c-.218.405-.406.83-.643 1.222v.006a7.576 7.576 0 01-1.381 1.634s-.007.006-.013.006a.465.465 0 00-.069.058c-.025.02-.05.039-.056.065v.482c0 .064.138.122.225.16 2.543.934 5.312 1.776 8.03 1.435v-.476l-.007-.032a3.72 3.72 0 01-.724-.154 2.349 2.349 0 01-.425-.2 1.218 1.218 0 01-.256-.205c-.094-.116-.182-.238-.2-.38.468-1.428 3.293-1.524 3.824-.116 0 .007-.006.02-.006.026l-.02.07c-.093.258-.3.438-.537.547l-.006.007v.476l.05.045c1.331-.187 2.712-1.216 2.768-2.682.013-.483.007-1.023-.275-1.435-.156-.244-.412-.47-.656-.656-.05-.032-.106-.064-.156-.097-.206-.109-.412-.218-.637-.289.58-.45 1.224-.855 1.93-1.216v-.476h-.018zm-5.88 6.857m5.649-2.959c0 .013-.007.033-.007.045.007-.012.007-.032.007-.045z" fill="#34823A"/>
	<path d="m90.102 15.333c-.856.431-1.631.94-2.3 1.512-.037.032-.019.077.038.09.8.167 1.45.604 1.78 1.132.344.56.35 1.196.094 1.775-.33.766-1.056 1.486-2.13 1.77-.063.012-.4.09-.463.102l-.05-.045c.031-.032.238-.11.319-.2.425-.45.362-1.048-.063-1.427-.362-.322-.968-.496-1.568-.496-.219 0-.431.02-.631.071-.756.174-1.344.676-1.35 1.306 0 .611.594 1.036 1.65 1.158l.006.032c-.206.064-.531.09-.925.09-.975 0-2.368-.167-3.35-.373-1.311-.277-2.549-.708-3.755-1.151-.093-.04-.243-.103-.224-.168.012-.038.1-.103.137-.128a6.958 6.958 0 001.38-1.634c.55-.92.838-1.956 1.8-2.702.832-.643 2.013-.958 3.194-.958 1.018 0 2.037.238 2.824.7.306.18.531.483.744.721l.118.007a6.717 6.717 0 001.356-1.982c.563.161 1.044.444 1.369.798z" fill="#45A74C"/>
	<path d="M86.597 8.16c8.154.991 13.603 6.35 12.166 11.965-1.287 5.011-7.611 8.537-14.747 8.537-.862 0-1.744-.052-2.625-.161-8.154-.99-13.597-6.35-12.16-11.965C70.513 11.526 76.843 8 83.986 8c.862 0 1.737.051 2.612.16zm7.242 11.367c.868-3.396-2.03-6.645-6.63-7.719-.475-.11-.969-.2-1.475-.257-.212-.026-.43-.045-.643-.065-.081-.006-.119-.006-.156-.012-.32-.02-.638-.033-.95-.033-4.256 0-8.074 1.879-9.448 4.664-.02.039-.038.07-.05.11a4.973 4.973 0 00-.419 1.338c-.175 1.035 0 2.051.462 2.984a.702.702 0 00.038.07c.05.09.056.117.069.136.256.47.58.913.974 1.332.02.025.038.038.057.057l.106.11c1.48 1.466 3.755 2.54 6.492 2.869.588.07 1.169.103 1.744.103 4.755.006 8.973-2.342 9.829-5.687z" fill="#45A74C"/>
	<path d="m106.988 37.389c-.563-13.67-29.344-13.863-29.982.032 0-.026-.006-.052-.006-.078v3.345c.569 8.273 10.773 10.987 17.509 10.17 5.142-.624 11.41-3.364 12.41-9.185.156-.74.044-3.577.081-4.362-.006.032-.012.052-.012.078zm-.063.855c.006-.026.006-.051.013-.07 0 .019-.007.044-.013.07z" fill="#34823A"/>
	<path d="m95.209 30.808c3.943.92 6.779 3.493 6.779 6.523 0 3.801-4.467 6.883-9.991 6.883-3.4 0-6.411-1.171-8.211-2.96-.031-.025-.044-.044-.063-.064l-.112-.116a6.446 6.446 0 01-.975-1.331c-.012-.026-.025-.052-.037-.07-.05-.091-.056-.117-.069-.136a4.941 4.941 0 01-.531-2.206 4.609 4.609 0 01.15-1.197c.081-.309.187-.61.319-.9.025-.052.043-.09.062-.123 1.344-2.714 5.074-4.663 9.46-4.663.32 0 .632.013.938.032.037 0 .075.006.112.006.256.02.475.039.688.065.512.064 1.006.148 1.48.257z" fill="#E1EAC5"/>
	<path d="m96.815 31.78c2.524.932 5.142 3.035 5.174 6.02.187-2.496-1.544-4.625-3.58-5.75-3.7-2.059-8.412-2.123-12.223-.322h-.007c-2.293 1.093-4.399 3.32-4.18 6.085.494-6.606 9.904-8.034 14.816-6.034z" fill="#34823A"/>
	<path d="m98.102 34.333a3.047 3.047 0 00-.369-.321 3.876 3.876 0 00-.419-.258c-.05-.025-.093-.051-.143-.077s-.107-.045-.163-.064a2.171 2.171 0 00-.262-.097c-.325.74-.8 1.403-1.356 1.982l-.119-.007c-.344-.45-.768-.81-1.306-.99-.05-.02-.1-.04-.15-.058-.225-.097-.468-.142-.706-.206-.212-.065-.437-.077-.662-.116a6.256 6.256 0 00-1.662.026c-.263.032-.525.09-.775.16-.032.013-.069.02-.1.033-.9.263-1.731.817-2.237 1.62a4.265 4.265 0 00-.238.406 2.85 2.85 0 00-.075.142c-.218.405-.406.83-.643 1.222v.006a7.576 7.576 0 01-1.381 1.634s-.007.006-.013.006a.465.465 0 00-.069.058c-.025.02-.05.039-.056.065v.482c0 .064.138.122.225.16 2.543.934 5.312 1.776 8.03 1.435v-.476l-.007-.032a3.72 3.72 0 01-.724-.154 2.349 2.349 0 01-.425-.2 1.218 1.218 0 01-.256-.205c-.094-.116-.182-.238-.2-.38.468-1.428 3.293-1.524 3.824-.116 0 .007-.006.02-.006.026l-.02.07c-.093.258-.3.438-.537.547l-.006.007v.476l.05.045c1.331-.186 2.712-1.216 2.768-2.682.013-.483.007-1.023-.275-1.435-.156-.244-.412-.47-.656-.656-.05-.032-.106-.064-.156-.096-.206-.11-.412-.22-.637-.29.58-.45 1.224-.855 1.93-1.216v-.476h-.018zm-5.88 6.857m5.649-2.959c0 .013-.007.033-.007.045.007-.012.007-.032.007-.045z" fill="#34823A"/>
	<path d="m98.102 34.333c-.856.431-1.631.94-2.3 1.512-.037.032-.019.077.038.09.8.167 1.45.604 1.78 1.132.344.56.35 1.196.094 1.775-.33.766-1.056 1.486-2.13 1.77-.063.012-.4.09-.463.102l-.05-.045c.031-.032.238-.11.319-.2.425-.45.362-1.048-.063-1.427-.362-.322-.968-.496-1.568-.496-.219 0-.431.02-.631.071-.756.174-1.344.676-1.35 1.306 0 .611.594 1.036 1.65 1.158l.006.032c-.206.064-.531.09-.925.09-.975 0-2.368-.167-3.35-.373-1.311-.277-2.549-.708-3.755-1.151-.093-.04-.243-.103-.224-.168.012-.038.1-.103.137-.128a6.958 6.958 0 001.38-1.634c.55-.92.838-1.956 1.8-2.702.832-.643 2.013-.958 3.194-.958 1.018 0 2.037.238 2.824.7.306.18.531.483.744.721l.118.007a6.717 6.717 0 001.356-1.982c.563.161 1.044.444 1.369.798z" fill="#45A74C"/>
	<path d="M94.597 27.16c8.154.991 13.603 6.35 12.166 11.965-1.287 5.011-7.611 8.536-14.747 8.536-.862 0-1.744-.051-2.625-.16-8.154-.99-13.597-6.35-12.16-11.965C78.513 30.526 84.843 27 91.986 27c.862 0 1.737.052 2.612.16zm7.242 11.367c.868-3.396-2.03-6.645-6.63-7.719-.475-.11-.969-.2-1.475-.257-.212-.026-.43-.045-.643-.064-.081-.007-.119-.007-.156-.013-.32-.02-.638-.033-.95-.033-4.256 0-8.074 1.879-9.448 4.664-.02.039-.038.07-.05.11a4.973 4.973 0 00-.419 1.338c-.175 1.035 0 2.051.462 2.984a.702.702 0 00.038.07c.05.09.056.117.069.136.256.47.58.913.974 1.331.02.026.038.04.057.058l.106.11c1.48 1.466 3.755 2.54 6.492 2.869.588.07 1.169.103 1.744.103 4.755.006 8.973-2.342 9.829-5.687z" fill="#45A74C"/>
	<path d="m152.403 52.908c1.08-13.638-27.471-17.28-29.769-3.562.003-.025 0-.052.003-.077l-.401 3.32c-.427 8.282 9.379 12.2 16.164 12.196 5.18-.003 11.731-1.973 13.421-7.632.244-.716.473-3.546.604-4.32-.01.03-.019.05-.022.075zm-.164.842c.009-.025.012-.05.02-.07-.002.02-.011.045-.02.07z" fill="#34823A"/>
	<path d="m141.498 44.963c3.804 1.386 6.312 4.28 5.949 7.288-.455 3.774-5.26 6.298-10.744 5.636-3.375-.408-6.225-1.93-7.797-3.922-.028-.03-.038-.05-.055-.071l-.097-.129a6.438 6.438 0 01-.837-1.513c-.039-.096-.042-.122-.052-.143a4.933 4.933 0 01-.263-2.254 4.58 4.58 0 01.292-1.17c.118-.296.259-.584.424-.855.031-.049.055-.085.077-.114 1.659-2.534 5.596-4.022 9.951-3.497.317.039.625.089.927.145.037.004.074.015.111.02.252.05.467.095.675.146a14.8 14.8 0 011.439.433z" fill="#E1EAC5"/>
	<path d="m142.976 46.12c2.394 1.228 4.742 3.63 4.415 6.597.485-2.455-.978-4.776-2.865-6.138-3.426-2.487-8.096-3.115-12.096-1.784l-.006-.001c-2.408.81-4.766 2.768-4.88 5.54 1.282-6.5 10.796-6.789 15.432-4.214z" fill="#34823A"/>
	<path d="m143.948 48.81a3.093 3.093 0 00-.328-.364 3.788 3.788 0 00-.385-.306c-.046-.031-.086-.062-.133-.093a1.239 1.239 0 00-.154-.084 2.136 2.136 0 00-.249-.127 6.877 6.877 0 01-1.583 1.804l-.117-.02c-.288-.488-.666-.897-1.178-1.14l-.142-.076c-.212-.122-.448-.196-.676-.289-.204-.089-.425-.129-.644-.194a6.255 6.255 0 00-1.653-.174 5.19 5.19 0 00-.789.067c-.032.01-.07.011-.103.02-.925.154-1.816.604-2.415 1.341a4.451 4.451 0 00-.285.374c-.03.042-.06.084-.091.132-.266.376-.503.775-.785 1.136l-.001.006a7.593 7.593 0 01-1.567 1.457s-.007.005-.013.005a.472.472 0 00-.075.049c-.027.016-.055.032-.064.057l-.001.007-.057.472c-.007.064.122.138.204.187 2.413 1.23 5.061 2.399 7.8 2.386l.057-.472-.002-.033a3.73 3.73 0 01-.701-.24 2.343 2.343 0 01-.398-.25 1.21 1.21 0 01-.23-.234c-.079-.126-.151-.258-.153-.4.636-1.362 3.452-1.12 3.811.343-.001.006-.009.018-.01.024l-.027.068c-.124.244-.35.399-.599.479l-.007.005-.057.473.044.05c1.344-.025 2.838-.881 3.07-2.33.07-.478.129-1.015-.101-1.458-.126-.261-.353-.515-.573-.73-.046-.038-.097-.076-.143-.114-.192-.134-.383-.267-.598-.364a12.178 12.178 0 012.062-.976l.057-.472-.018-.002zm-6.66 6.102.013.002s-.007 0-.013-.002zm5.963-2.26c-.002.013-.01.031-.012.044.008-.012.01-.031.012-.044z" fill="#34823A"/>
	<path d="m143.948 48.81c-.902.325-1.732.736-2.464 1.224-.042.028-.028.075.026.094.774.262 1.367.775 1.632 1.338.274.597.204 1.23-.119 1.774-.421.72-1.227 1.348-2.328 1.5-.063.006-.408.042-.471.047l-.045-.05c.035-.029.249-.08.341-.16.476-.396.485-.998.109-1.425-.321-.363-.902-.608-1.498-.68a2.527 2.527 0 00-.635-.005c-.771.081-1.415.509-1.496 1.134-.074.607.465 1.1 1.499 1.347l.002.033c-.213.04-.538.026-.929-.021-.968-.117-2.331-.45-3.28-.772-1.27-.432-2.447-1.008-3.591-1.594-.088-.049-.229-.13-.203-.193.017-.036.111-.09.152-.11a6.986 6.986 0 001.567-1.457c.656-.848 1.065-1.841 2.11-2.467.902-.539 2.113-.71 3.285-.569 1.011.122 1.994.48 2.72 1.035.282.215.47.543.652.804l.117.02a6.712 6.712 0 001.584-1.803c.539.227.982.565 1.263.955z" fill="#45A74C"/>
	<path d="m141.327 41.269c7.978 1.96 12.745 7.933 10.645 13.336-1.879 4.82-8.579 7.563-15.664 6.707a21.392 21.392 0 01-2.586-.474c-7.977-1.96-12.738-7.933-10.638-13.336 1.872-4.821 8.579-7.562 15.67-6.706.856.103 1.718.26 2.573.473zm5.828 12.152c1.27-3.268-1.22-6.84-5.657-8.458a13.26 13.26 0 00-1.433-.432c-.208-.051-.423-.096-.631-.141-.08-.016-.117-.02-.154-.032a15.721 15.721 0 00-.939-.145c-4.225-.51-8.24.897-9.939 3.497-.023.036-.045.066-.062.103-.18.29-.322.577-.44.873a4.747 4.747 0 00-.136.405c-.298 1.007-.246 2.037.101 3.019a.658.658 0 00.029.074c.038.096.042.122.052.143.198.497.467.976.808 1.439.015.027.032.042.049.064l.092.121c1.295 1.634 3.424 2.973 6.102 3.627.574.14 1.148.242 1.718.31 4.721.577 9.189-1.248 10.44-4.467z" fill="#45A74C"/>
	<path d="m136.197 40.215c-1.371-13.612-30.114-12.1-29.927 1.808-.002-.026-.009-.05-.011-.077l.198 3.34c1.058 8.224 11.405 10.329 18.081 9.114 5.097-.927 11.191-4.034 11.844-9.904.112-.748-.168-3.573-.177-4.359-.005.033-.01.052-.008.078zm-.012.858c.005-.026.003-.052.008-.072a.329.329 0 01-.008.072z" fill="#34823A"/>
	<path d="m124.049 34.344c3.99.684 6.975 3.085 7.154 6.11.225 3.794-4.052 7.135-9.566 7.462-3.394.201-6.47-.789-8.372-2.467-.033-.024-.046-.043-.066-.061l-.119-.109a6.42 6.42 0 01-1.052-1.271c-.014-.025-.028-.05-.042-.069-.055-.087-.063-.112-.076-.13a4.92 4.92 0 01-.661-2.172 4.62 4.62 0 01.078-1.203c.063-.313.151-.621.265-.918.022-.053.039-.092.055-.125 1.181-2.79 4.789-4.956 9.168-5.216.318-.02.631-.025.938-.024.037-.002.075.002.112 0 .257.004.477.01.69.024a14.83 14.83 0 011.494.169z" fill="#E1EAC5"/>
	<path d="m125.709 35.218c2.576.782 5.314 2.726 5.522 5.704.039-2.502-1.815-4.525-3.915-5.528-3.815-1.836-8.522-1.621-12.22.403h-.006c-2.225 1.227-4.195 3.574-3.813 6.322.102-6.624 9.411-8.607 14.432-6.9z" fill="#34823A"/>
	<path d="m127.146 37.691a3.064 3.064 0 00-.387-.299 3.879 3.879 0 00-.434-.232c-.051-.023-.096-.046-.148-.068a1.166 1.166 0 00-.166-.055 2.153 2.153 0 00-.267-.08 6.885 6.885 0 01-1.237 2.057h-.118c-.37-.428-.816-.763-1.363-.91l-.153-.05c-.23-.083-.476-.113-.717-.163-.216-.052-.441-.051-.668-.077a6.259 6.259 0 00-1.658.124 5.22 5.22 0 00-.764.207c-.03.015-.067.023-.098.038-.882.316-1.679.918-2.137 1.75a4.548 4.548 0 00-.213.42c-.022.046-.044.092-.066.145-.195.418-.357.852-.57 1.258v.007a7.566 7.566 0 01-1.282 1.712s-.006.007-.012.008a.436.436 0 00-.065.061c-.024.021-.048.042-.052.068v.006l.028.475c.004.065.145.114.234.148 2.594.78 5.408 1.457 8.101.956l-.028-.475-.009-.032a3.724 3.724 0 01-.732-.111 2.34 2.34 0 01-.436-.174 1.207 1.207 0 01-.268-.19c-.101-.11-.195-.227-.222-.367.383-1.453 3.197-1.717 3.81-.342.001.006-.005.02-.004.026l-.015.071c-.078.263-.273.455-.504.578l-.006.007.028.475.053.042c1.318-.265 2.635-1.374 2.604-2.842-.016-.482-.054-1.021-.359-1.415-.17-.235-.44-.445-.694-.616-.052-.03-.11-.058-.162-.087a3.805 3.805 0 00-.653-.252 12.192 12.192 0 011.856-1.328l-.029-.475-.018.001zm-5.464 7.194.013-.001h-.013zm5.464-3.289c0 .013-.005.033-.004.046.006-.014.004-.033.004-.046z" fill="#34823A"/>
	<path d="m127.146 37.691a11.435 11.435 0 00-2.206 1.645c-.036.035-.014.079.042.088.809.12 1.483.518 1.845 1.025.376.538.42 1.174.199 1.767-.285.783-.966 1.545-2.022 1.892-.062.016-.394.113-.456.13l-.052-.042c.029-.034.23-.123.306-.218.397-.475.3-1.068-.147-1.422-.381-.3-.996-.437-1.595-.401a2.546 2.546 0 00-.626.108c-.744.218-1.301.753-1.27 1.383.036.61.654.999 1.716 1.058l.008.032c-.202.076-.525.121-.918.145-.973.057-2.374-.027-3.366-.175-1.326-.198-2.587-.555-3.817-.926-.096-.033-.249-.089-.234-.154.01-.04.093-.109.129-.137a6.973 6.973 0 001.282-1.712c.495-.951.72-2.002 1.637-2.804.791-.691 1.951-1.076 3.13-1.146 1.017-.06 2.048.117 2.861.533.317.161.559.45.785.675h.119a6.723 6.723 0 001.236-2.059c.571.127 1.068.381 1.414.715z" fill="#45A74C"/>
	<path d="m123.222 30.74c8.199.505 13.955 5.531 12.853 11.222-.988 5.079-7.092 8.972-14.215 9.395-.861.051-1.743.052-2.629-.005-8.199-.506-13.95-5.533-12.848-11.223.982-5.079 7.092-8.972 14.222-9.395a21.088 21.088 0 012.617.005zm7.903 10.917c.665-3.442-2.421-6.513-7.076-7.313-.48-.081-.979-.142-1.487-.17-.214-.013-.433-.019-.647-.026-.081-.001-.118.001-.156-.003-.32 0-.638.005-.95.024-4.248.252-7.948 2.353-9.155 5.215-.017.04-.034.073-.044.112a5.461 5.461 0 00-.276.938c-.029.144-.046.28-.063.423-.113 1.044.122 2.048.639 2.952.014.025.028.05.041.068.056.087.063.112.077.13.284.454.634.878 1.052 1.272.02.025.04.037.06.055l.112.103c1.565 1.376 3.9 2.314 6.651 2.479.591.036 1.173.034 1.746 0 4.748-.276 8.819-2.87 9.476-6.26z" fill="#45A74C"/>
	<path d="m125.073 31.197c1.08-13.638-27.47-17.28-29.769-3.562.003-.025 0-.052.003-.077l-.4 3.32c-.428 8.282 9.378 12.2 16.163 12.196 5.18-.003 11.731-1.972 13.421-7.632.244-.716.472-3.546.604-4.32-.01.03-.019.05-.022.075zm-.164.842c.009-.025.012-.05.02-.069-.002.02-.011.044-.02.069z" fill="#34823A"/>
	<path d="m114.168 23.252c3.804 1.386 6.312 4.28 5.949 7.288-.456 3.774-5.26 6.298-10.744 5.636-3.375-.408-6.225-1.93-7.797-3.922-.028-.03-.038-.05-.055-.071l-.098-.129a6.473 6.473 0 01-.808-1.439c-.009-.026-.018-.054-.028-.074-.039-.096-.042-.122-.053-.143a4.946 4.946 0 01-.262-2.254 4.583 4.583 0 01.292-1.17c.118-.296.259-.584.424-.855.031-.049.054-.085.077-.114 1.659-2.534 5.596-4.022 9.951-3.496.317.038.625.088.927.144.037.004.074.015.111.02.252.05.467.095.674.146.501.125.982.267 1.44.433z" fill="#E1EAC5"/>
	<path d="m115.646 24.409c2.394 1.228 4.742 3.63 4.415 6.598.485-2.456-.978-4.777-2.866-6.139-3.425-2.487-8.095-3.115-12.095-1.784h-.007c-2.407.81-4.765 2.767-4.879 5.54 1.282-6.5 10.796-6.79 15.432-4.215z" fill="#34823A"/>
	<path d="m116.618 27.099c-.092-.128-.21-.246-.328-.364a3.789 3.789 0 00-.385-.306c-.046-.031-.086-.062-.133-.093a1.239 1.239 0 00-.154-.084 2.12 2.12 0 00-.249-.127 6.877 6.877 0 01-1.583 1.804l-.117-.02c-.288-.488-.666-.897-1.178-1.14l-.142-.076c-.212-.122-.448-.196-.676-.289-.204-.089-.425-.129-.644-.194a6.255 6.255 0 00-1.653-.174c-.265 0-.532.027-.789.067-.033.01-.071.011-.103.02-.925.154-1.816.604-2.415 1.341a4.248 4.248 0 00-.285.374c-.03.042-.06.084-.091.132-.266.376-.503.775-.785 1.136l-.001.006a7.596 7.596 0 01-1.567 1.457s-.007.006-.013.005a.43.43 0 00-.075.049c-.028.016-.055.032-.064.057l-.001.006-.057.473c-.008.064.122.138.204.187 2.413 1.23 5.061 2.399 7.8 2.386l.057-.472-.002-.033a3.706 3.706 0 01-.701-.24 2.305 2.305 0 01-.398-.25 1.21 1.21 0 01-.23-.234c-.079-.126-.151-.258-.153-.4.636-1.362 3.452-1.12 3.81.343 0 .006-.008.018-.009.024l-.027.068c-.124.245-.35.399-.599.479l-.007.005-.057.473.044.05c1.344-.025 2.838-.881 3.07-2.33.07-.478.129-1.015-.101-1.458-.126-.261-.353-.515-.573-.73-.046-.038-.098-.076-.143-.114-.192-.134-.384-.267-.598-.364.63-.377 1.318-.703 2.062-.976l.057-.472-.018-.002zm-6.66 6.103a.47.47 0 00.013.001s-.007 0-.013-.002zm5.963-2.261c-.002.013-.01.031-.012.044.008-.012.01-.031.012-.044z" fill="#34823A"/>
	<path d="m116.618 27.099c-.902.325-1.732.736-2.465 1.225-.041.027-.027.074.027.093.774.262 1.367.775 1.632 1.338.274.597.204 1.23-.119 1.774-.421.72-1.227 1.348-2.328 1.5-.064.006-.408.042-.471.047l-.045-.05c.035-.029.249-.08.341-.16.476-.396.485-.998.109-1.425-.321-.363-.902-.608-1.498-.68a2.536 2.536 0 00-.635-.005c-.771.081-1.415.51-1.496 1.134-.074.607.465 1.1 1.499 1.347l.002.033c-.213.04-.538.026-.929-.021-.968-.117-2.331-.45-3.281-.772-1.269-.432-2.446-1.008-3.59-1.593-.088-.05-.23-.132-.203-.193.017-.037.111-.09.152-.112a6.984 6.984 0 001.567-1.456c.656-.848 1.065-1.841 2.11-2.467.902-.539 2.112-.71 3.285-.569 1.011.122 1.994.48 2.72 1.035.282.215.469.543.652.804l.117.021a6.714 6.714 0 001.584-1.805c.539.228.982.566 1.263.957z" fill="#45A74C"/>
	<path d="m113.997 19.558c7.977 1.96 12.745 7.933 10.645 13.336-1.879 4.821-8.579 7.563-15.664 6.707a21.353 21.353 0 01-2.586-.474c-7.977-1.96-12.738-7.933-10.638-13.336 1.872-4.82 8.579-7.562 15.67-6.706.856.104 1.718.26 2.573.473zm5.828 12.152c1.27-3.268-1.22-6.84-5.657-8.458a13.283 13.283 0 00-1.433-.432c-.208-.051-.423-.096-.631-.141-.08-.016-.117-.02-.154-.031a15.802 15.802 0 00-.939-.146c-4.225-.51-8.24.897-9.939 3.497-.023.037-.046.066-.063.103-.179.29-.321.577-.439.873a5.136 5.136 0 00-.137.405c-.297 1.007-.245 2.037.102 3.019a.513.513 0 00.029.075c.038.095.041.121.052.142.198.497.467.976.808 1.439.015.027.032.042.049.064l.092.121c1.294 1.634 3.424 2.973 6.102 3.627.574.14 1.147.242 1.718.31 4.72.577 9.189-1.248 10.44-4.467z" fill="#45A74C"/>
	<path d="m147.05 19.87c-1.258-.12-2.458-.214-3.65-.356-.432-.051-.862-.199-1.276-.347-.326-.118-.631-.314-.637-.718-.006-.38.305-.53.591-.664 1.009-.473 2.096-.657 3.187-.817.551-.081 1.106-.124 1.742-.196 0-.528-.015-1.074.003-1.62.052-1.53.122-3.062.491-4.558.061-.242.125-.501.262-.7.128-.19.353-.432.542-.438.186-.006.476.22.552.41.249.625.508 1.27.609 1.928.232 1.55.375 3.114.551 4.67.013.112.022.22.031.296 1.197.145 2.367.268 3.531.44.457.07.908.233 1.343.39.299.108.61.283.622.642.015.392-.284.634-.622.721-.856.217-1.718.416-2.586.558-.747.12-1.511.15-2.303.226-.028.45-.034.896-.083 1.34-.173 1.556-.341 3.116-.551 4.67-.052.374-.219.748-.408 1.083-.281.497-.768.497-.969-.034-.262-.684-.484-1.408-.573-2.132-.177-1.458-.247-2.927-.362-4.39-.016-.148-.028-.298-.037-.404zm15.257-.197c-.737-.087-1.438-.18-2.081-.51-.624-.32-.701-.992-.119-1.384.387-.26.853-.468 1.31-.537.945-.148 1.898-.157 2.763.377.329.202.588.45.564.866-.027.443-.344.681-.713.793-.56.169-1.148.265-1.724.395zm-12.92-15.499c-.07.482-.134.965-.213 1.445a1.672 1.672 0 01-.162.458c-.292.576-.883.615-1.203.048-.573-1.004-.67-2.084-.423-3.2.039-.181.1-.362.176-.534.128-.287.314-.522.664-.54.375-.018.61.199.789.494.269.447.39 1.117.372 1.829zm-1.971 28.409c.103-.468.191-.96.326-1.44.076-.265.231-.506.566-.533.341-.027.552.178.692.44.417.797.469 1.656.368 2.528-.03.272-.094.546-.186.803-.188.534-.639.663-1.063.28a1.577 1.577 0 01-.441-.681c-.131-.438-.174-.902-.262-1.397zm-13.133-15.338c.533.142 1.081.241 1.593.437.503.19.597.64.177.972-.36.286-.82.534-1.268.609-.548.09-1.133.015-1.694-.048-.335-.04-.615-.235-.685-.613-.076-.395.085-.678.408-.902.439-.301.926-.389 1.447-.362.006-.03.016-.063.022-.093zm-106.155 1.483c.03.057.067.11.087.171 1.196 3.536 3.383 6.306 6.502 8.356a15.365 15.365 0 003.339 1.632c.083.03.15.1.225.153-.073.054-.14.129-.223.158-4.808 1.703-8.08 4.954-9.872 9.698-.014.037-.02.08-.042.116-.04.063-.09.122-.133.183-.05-.057-.116-.108-.144-.173-.255-.613-.471-1.243-.762-1.839-1.728-3.553-4.412-6.127-8.041-7.717-.376-.165-.768-.29-1.152-.441-.068-.028-.123-.089-.184-.134.063-.052.118-.128.19-.154 1.646-.566 3.18-1.344 4.572-2.392 2.55-1.928 4.364-4.393 5.436-7.398.028-.08.08-.152.121-.227l.081.008z" fill="#A9F78D"/>
</svg>
