<svg width="352" height="88" viewBox="0 0 512 128" xmlns="http://www.w3.org/2000/svg">
	<path d="m24.89 54.12c.59 5.65 15.86 4.08 42.03 1.01 31.12-3.65 41.44-7.83 40.59-11.09-.5-1.92-20.97-10.44-45.51-7.4s-37.17 16.94-37.11 17.48z" fill="#FFCE42"/>
	<path d="m27.72 52.42c-1.83 1.46-8.21 6.88 37.67 1.33 45-4.71 42-10.12 39.46-11.12-.88-.54-15.62-6.62-40.21-2.29-18.59 2.33-33.84 9.83-36.92 12.08z" fill="#B57309"/>
	<path d="m65.14 110.14-26.74.59s1.18 6.6 1.18 9.61c0 2.14 6.91 4.86 25.56 4.86s25.56-2.72 25.56-4.86c0-3.01 1.18-9.61 1.18-9.61l-26.74-.59z" fill="#DF8E32"/>
	<path d="M38.83 112.67s.11.9.34 2.97c3.86 1.81 12.59 3.05 25.97 3.05 13.12 0 21.9-.75 25.97-2.97.23-1.66.34-3.06.34-3.06H38.83v.01z" fill="#C57418"/>
	<g fill="#F5A448">
		<path d="m93.32 82.99s4.32.93 15.49 1.11 11.96-7.82 11.97-13.07.46-5.98.31-14.59-15.08-6.37-15.16-1.41.1 10.94.1 10.94l-10.46-.26-2.25 17.28zm-55.41-2.7-11.06.6s.56 7.36.75 12.32c.18 4.96-14.6 7.99-15.21-.6s-.2-9.34-.47-14.59.53-12.78 11.69-13.19 13.45-.69 13.45-.69l.85 16.15z"/>
		<path d="m34.53 43.66 3.96 58.5-5.25 8.41s-.6 5.41 33.09 5.41c33.7 0 30.69-5.72 30.69-5.72l-5.01-11.42 6.04-52.99c.01 0-24.92-6.24-63.52-2.19z"/>
		<path d="m97.78 48.03.91-6.98s-25.55-1.44-64.15 2.62l.35 5.53c4.55-3.15 14.16-7.58 31.35-6.33"/>
	</g>
	<path d="m70.6 84.09c.02 3.83-1.94 6.94-4.37 6.95s-4.42-3.08-4.44-6.91c-.01-3.82 1.94-6.94 4.37-6.95s4.42 3.08 4.44 6.91zm16.86-21.34c.03 5.7-3.31 10.35-7.46 10.37-4.16.02-7.54-4.59-7.57-10.3-.03-5.7 3.3-10.35 7.46-10.37 4.15-.02 7.54 4.6 7.57 10.3zm-27.46 0c.03 5.7-3.31 10.35-7.46 10.37-4.16.02-7.54-4.59-7.57-10.3-.03-5.7 3.3-10.35 7.46-10.37 4.15-.02 7.54 4.6 7.57 10.3z" fill="#33210A"/>
	<path d="m58.34 46.46 6.81-1.05c12.7-1.78 24.97-2.55 33.22-1.97l.37-2.59c-1.28-2.04-.9-11.95-8.08-18.28-2.05-1.78-4.62-3.04-7.14-3.95 1.96 4.88-3.67 11.05-25.37 11.28-16.72.18-18.13-2.13-16.9-4.9-1.92 1.6-3.82 3.57-5.41 6.01-4.92 7.83.08 15.96-1.01 17.44l.22 3.48c5.55-1.8 13.43-3.8 23.29-5.47zm12 48.56c-.92 1.04-1.88 1.98-4.14 1.98s-3.22-.94-4.14-1.98c-.28-.32-.82-.04-.7.37.63 2.29 2.75 4.55 4.85 4.55s4.21-2.26 4.85-4.55c.09-.41-.44-.69-.72-.37z" fill="#BA803D"/>
	<path d="m53.63 86.55c.464 0 .84-.502.84-1.12 0-.619-.376-1.12-.84-1.12s-.84.501-.84 1.12c0 .618.376 1.12.84 1.12zm23.08 5.99c.464 0 .84-.502.84-1.12 0-.619-.376-1.12-.84-1.12s-.84.501-.84 1.12c0 .618.376 1.12.84 1.12zm-16.22 12.21c.464 0 .84-.502.84-1.12 0-.619-.376-1.12-.84-1.12s-.84.501-.84 1.12c0 .618.377 1.12.84 1.12zm25.346.501c.163-.597-.069-1.179-.516-1.301-.448-.122-.943.263-1.105.86s.069 1.179.516 1.301c.448.122.943-.263 1.105-.86zm2.729-26.363c.162-.597-.07-1.18-.517-1.301-.448-.122-.942.263-1.105.86-.162.597.07 1.18.517 1.301.448.122.942-.263 1.105-.86z" fill="#D28A39"/>
	<path d="m115.211 63.356c.417-.457.477-1.08.134-1.393s-.958-.196-1.375.26c-.417.458-.477 1.082-.135 1.394.343.313.959.196 1.376-.26zm-23.13 4.129c.085-.613-.219-1.16-.678-1.225-.46-.063-.901.382-.986.995s.22 1.16.679 1.224c.46.064.9-.381.985-.994zm-5.365 16.197c.085-.613-.219-1.161-.678-1.225-.46-.063-.901.382-.986.995-.085.612.219 1.16.678 1.224.46.064.901-.381.986-.994zm-10.062 23.301c.085-.613-.22-1.161-.679-1.224-.46-.064-.9.381-.985.994s.219 1.161.678 1.224c.46.064.9-.381.986-.994zm-28.259 2.162c.085-.612-.22-1.161-.679-1.224-.46-.064-.9.381-.985.994s.219 1.161.678 1.225c.46.063.901-.382.986-.995zm3.578-11c.085-.613-.219-1.161-.678-1.225-.46-.064-.901.382-.986.995-.085.612.219 1.16.678 1.224.46.064.901-.382.986-.994zm-5.591-7.734c.085-.612-.219-1.16-.678-1.224-.46-.064-.901.381-.986.994s.219 1.161.679 1.225c.46.063.9-.382.985-.995zm-15.642-21.572c.402-.232.477-.855.168-1.39-.31-.536-.886-.782-1.288-.55s-.477.854-.167 1.39c.309.535.885.782 1.287.55zm-10.037 12.551c.232-.573.07-1.18-.36-1.352-.43-.174-.967.15-1.198.725-.231.573-.07 1.179.36 1.352.431.174.967-.151 1.198-.725zm49.352-31.72c.354-.507.332-1.133-.049-1.398-.38-.266-.976-.07-1.33.438-.353.508-.331 1.134.05 1.4.38.265.975.068 1.329-.44zm-12.205 61.367c.379-.489.389-1.116.022-1.4-.366-.284-.97-.118-1.35.37-.379.489-.389 1.116-.022 1.4.366.284.97.119 1.35-.37zm17.934-32.013c.257-.563.123-1.175-.299-1.368-.422-.192-.972.108-1.229.67-.257.563-.123 1.175.3 1.368.421.193.972-.107 1.228-.67z" fill="#FBB55A"/>
	<path d="m111.028 55.9c.163-.596-.068-1.179-.516-1.3-.448-.123-.942.262-1.105.86-.162.596.069 1.179.517 1.3.447.122.942-.263 1.104-.86zm-9.878 22.782c.162-.597-.069-1.18-.517-1.302-.448-.121-.942.264-1.105.86-.162.598.07 1.18.517 1.302.448.122.942-.263 1.105-.86zm15.204-6.587c.217-.58.04-1.181-.395-1.343-.434-.163-.962.175-1.178.755-.217.58-.04 1.18.395 1.343.434.162.962-.176 1.178-.755zm-24.41-15.325c.452-.107.702-.681.56-1.283-.143-.602-.625-1.004-1.076-.897-.452.107-.702.682-.56 1.284.143.602.625 1.003 1.076.896zm-11.555-9.517c.231-.574.07-1.18-.36-1.353-.431-.173-.967.151-1.198.725s-.07 1.18.36 1.352c.43.174.967-.15 1.198-.724zm-19.611 2.997c.23-.574.07-1.18-.361-1.353-.43-.173-.967.151-1.198.725-.23.574-.07 1.18.36 1.353.431.173.967-.152 1.199-.725zm-18.493 5.433c.232-.574.07-1.18-.36-1.352-.43-.174-.967.15-1.198.724s-.07 1.18.36 1.353c.431.173.967-.151 1.198-.725zm-23.989 16.489c.118-.608-.156-1.171-.611-1.26s-.92.332-1.038.939c-.119.607.155 1.171.61 1.26.455.088.92-.332 1.039-.94zm25.034 32.178c.464 0 .84-.502.84-1.12 0-.619-.376-1.12-.84-1.12s-.84.501-.84 1.12c0 .618.376 1.12.84 1.12z" fill="#D28A39"/>
	<path d="m24.9 54.28c.8-1.73 14.52-7.24 38.05-10.68 20.96-3.06 41.16-3.44 44.55.44 0-1.04-3.57-3.61-6.61-6.44-1.28-2.04-3.7-10.72-10.88-17.06-5.94-5.16-18.64-5.91-19.3-6.38-.65-.48-2.81-7.12-3.55-7.34s-10.56 1.17-11.7 1.64c-.42.29-.72 5.34-1.59 7.45-1.54.68-3.66 1.35-4.23 1.61-2.68 1.19-9.87 4.44-14.45 11.46-4.92 7.83-4.26 16.32-5.35 17.8s-5.21 6.48-4.94 7.5z" fill="#FCCC32"/>
	<path d="m74.87 34.63c-.28.9-.01 1.26 1.07 1.16 21.53-1.9 24.761 1.33 24.771 1.32-.66-1.38-1.85-3.96-2.99-5.82-4.08-1.09-11.12-1.98-20.91-.76-.45.06-.85.36-.93.81l-1.01 3.29zm-22.379-.99c-10.12 1.33-17.03 3.95-20.79 6.73-.49 2.61-.64 3.23-1 5.68.95-.86 6.35-4.37 23.94-7.27.77-.13.66-.46.56-.85l-1.69-3.6c-.09-.35-.65-.74-1.02-.69z" fill="#007215"/>
	<path d="m55.48 8.46c.37 1.96 1.03 9.13 1.2 11.95.02.38-.47.55-.69.24-.74-1.07-1.89-3.24-2.37-4.07-.2-1.59 1.41-6.79 1.86-8.12zm11.9-1.37c.01 1.99.68 9.16 1.05 11.97.05.38.57.46.72.11.52-1.19 1.26-3.53 1.58-4.44-.12-1.61-2.67-6.42-3.35-7.64z" fill="#DF9D2A"/>
	<path d="m64.35 21.15c-4.68 0-8.48 3.71-8.48 8.29s3.8 8.29 8.48 8.29 8.48-3.71 8.48-8.29c0-4.57-3.8-8.29-8.48-8.29zm5.7 9.48c-.11.9-.42 1.54-.79 1.99-.39.47-.9.76-1.16.87-.03.01-.05-.02-.03-.05.15-.2.3-.5.32-.94.03-.52-.23-1.04-.67-1.35-.57-.41-1.36-.41-1.96-.09-.66.35-1.08 1.09-.93 1.93.14.8.8 1.26 1.79 1.25.02 0 .03.03.01.04-.61.4-2.68.47-4.01.31-2.17-.26-3.79-.93-3.88-.97-.15-.06-.14-.14-.06-.26.42-.6.8-1.49 1-2.72.16-.97.47-2.43.94-3.32.5-.95 1.12-1.53 2.08-1.93.82-.35 1.74-.34 2.54-.13.71.18 1.42.78 1.69 1.39.03.07.06.08.11-.02.52-1.01.86-2.17.92-2.89 0-.02.01-.04.03-.03.4.19 1.12.72 1.39 1 .04.04.04.05 0 .09-.72.73-1.42 1.5-1.82 2.21-.05.09 0 .11.06.11.77.09 1.48.56 1.91 1.2.46.67.62 1.51.52 2.31z" fill="#007215"/>
	<path d="m280.89 54.12c.59 5.65 15.86 4.08 42.03 1.01 31.12-3.65 41.44-7.83 40.59-11.09-.5-1.92-20.97-10.44-45.51-7.4s-37.17 16.94-37.11 17.48z" fill="#FFCE42"/>
	<path d="m283.72 52.42c-1.83 1.46-8.21 6.88 37.67 1.33 45-4.71 42-10.12 39.46-11.12-.88-.54-15.62-6.62-40.21-2.29-18.59 2.33-33.84 9.83-36.92 12.08z" fill="#B57309"/>
	<path d="m321.14 110.14-26.74.59s1.18 6.6 1.18 9.61c0 2.14 6.91 4.86 25.56 4.86s25.56-2.72 25.56-4.86c0-3.01 1.18-9.61 1.18-9.61l-26.74-.59z" fill="#DF8E32"/>
	<path d="m294.83 112.67s.11.9.34 2.97c3.86 1.81 12.59 3.05 25.97 3.05 13.12 0 21.9-.75 25.97-2.97.23-1.66.34-3.06.34-3.06h-52.62v.01z" fill="#C57418"/>
	<g fill="#F5A448">
		<path d="m349.32 82.99s4.32.93 15.49 1.11 11.96-7.82 11.97-13.07.46-5.98.31-14.59-15.08-6.37-15.16-1.41.1 10.94.1 10.94l-10.46-.26-2.25 17.28zm-55.41-2.7-11.06.6s.56 7.36.75 12.32c.18 4.96-14.6 7.99-15.21-.6s-.2-9.34-.47-14.59.53-12.78 11.69-13.19 13.45-.69 13.45-.69l.85 16.15z"/>
		<path d="m290.53 43.66 3.96 58.5-5.25 8.41s-.6 5.41 33.09 5.41c33.7 0 30.69-5.72 30.69-5.72l-5.01-11.42 6.04-52.99c.01 0-24.92-6.24-63.52-2.19z"/>
		<path d="m353.78 48.03.91-6.98s-25.55-1.44-64.15 2.62l.35 5.53c4.55-3.15 14.16-7.58 31.35-6.33"/>
	</g>
	<path d="m326.6 84.09c.02 3.83-1.94 6.94-4.37 6.95s-4.42-3.08-4.44-6.91c-.01-3.82 1.94-6.94 4.37-6.95s4.42 3.08 4.44 6.91zm16.86-21.34c.03 5.7-3.31 10.35-7.46 10.37-4.16.02-7.54-4.59-7.57-10.3-.03-5.7 3.3-10.35 7.46-10.37 4.15-.02 7.54 4.6 7.57 10.3zm-27.46 0c.03 5.7-3.31 10.35-7.46 10.37-4.16.02-7.54-4.59-7.57-10.3-.03-5.7 3.3-10.35 7.46-10.37 4.15-.02 7.54 4.6 7.57 10.3z" fill="#33210A"/>
	<path d="m314.34 46.46 6.81-1.05c12.7-1.78 24.97-2.55 33.22-1.97l.37-2.59c-1.28-2.04-.9-11.95-8.08-18.28-2.05-1.78-4.62-3.04-7.14-3.95 1.96 4.88-3.67 11.05-25.37 11.28-16.72.18-18.13-2.13-16.9-4.9-1.92 1.6-3.82 3.57-5.41 6.01-4.92 7.83.08 15.96-1.01 17.44l.22 3.48c5.55-1.8 13.43-3.8 23.29-5.47zm12 48.56c-.92 1.04-1.88 1.98-4.14 1.98s-3.22-.94-4.14-1.98c-.28-.32-.82-.04-.7.37.63 2.29 2.75 4.55 4.85 4.55s4.21-2.26 4.85-4.55c.09-.41-.44-.69-.72-.37z" fill="#BA803D"/>
	<path d="m309.63 86.55c.464 0 .84-.502.84-1.12 0-.619-.376-1.12-.84-1.12s-.84.501-.84 1.12c0 .618.376 1.12.84 1.12zm23.08 5.99c.464 0 .84-.502.84-1.12 0-.619-.376-1.12-.84-1.12s-.84.501-.84 1.12c0 .618.376 1.12.84 1.12zm-16.22 12.21c.464 0 .84-.502.84-1.12 0-.619-.376-1.12-.84-1.12s-.84.501-.84 1.12c0 .618.376 1.12.84 1.12zm25.346.501c.162-.597-.069-1.179-.516-1.301-.448-.122-.943.263-1.105.86s.069 1.179.516 1.301c.448.122.943-.263 1.105-.86zm2.729-26.363c.162-.597-.069-1.18-.517-1.301-.447-.122-.942.263-1.104.86-.163.597.068 1.18.516 1.301.448.122.942-.263 1.105-.86z" fill="#D28A39"/>
	<path d="m371.211 63.356c.417-.457.477-1.08.134-1.393s-.958-.196-1.375.26c-.417.458-.477 1.082-.135 1.394.343.313.959.196 1.376-.26zm-23.13 4.129c.085-.613-.219-1.16-.678-1.225-.46-.063-.901.382-.986.995s.219 1.16.679 1.224c.459.064.901-.381.985-.994zm-5.365 16.197c.085-.613-.219-1.161-.678-1.225-.46-.063-.901.382-.986.995-.085.612.219 1.16.679 1.224.459.064.9-.381.985-.994zm-10.062 23.301c.085-.613-.219-1.161-.679-1.224-.459-.064-.901.381-.986.994-.084.613.219 1.161.679 1.224.46.064.901-.381.986-.994zm-28.259 2.162c.085-.612-.219-1.161-.679-1.224-.459-.064-.9.381-.985.994s.219 1.161.678 1.225c.46.063.901-.382.986-.995zm3.578-11c.085-.613-.219-1.161-.679-1.225-.459-.064-.9.382-.985.995-.085.612.219 1.16.678 1.224.46.064.901-.382.986-.994zm-5.591-7.734c.085-.612-.219-1.16-.678-1.224-.46-.064-.901.381-.986.994s.219 1.161.679 1.225c.459.063.9-.382.985-.995zm-15.642-21.572c.402-.232.477-.855.167-1.39-.309-.536-.885-.782-1.287-.55s-.477.854-.167 1.39c.309.535.885.782 1.287.55zm-10.037 12.551c.231-.573.07-1.18-.36-1.352-.431-.174-.967.15-1.198.725-.231.573-.07 1.179.361 1.352.43.174.966-.151 1.197-.725zm49.352-31.72c.354-.507.332-1.133-.049-1.398-.38-.266-.976-.07-1.329.438-.354.508-.332 1.134.048 1.4.381.265.976.068 1.33-.44zm-12.205 61.367c.379-.489.389-1.116.022-1.4-.366-.284-.971-.118-1.35.37-.379.489-.389 1.116-.022 1.4.366.284.971.119 1.35-.37zm17.934-32.013c.257-.563.123-1.175-.299-1.368-.422-.192-.972.108-1.229.67-.257.563-.123 1.175.299 1.368s.973-.107 1.229-.67z" fill="#FBB55A"/>
	<path d="m367.028 55.9c.163-.596-.068-1.179-.516-1.3-.448-.123-.942.262-1.105.86-.162.596.069 1.179.517 1.3.447.122.942-.263 1.104-.86zm-9.878 22.782c.162-.597-.069-1.18-.517-1.302-.448-.121-.942.264-1.105.86-.162.598.069 1.18.517 1.302s.942-.263 1.105-.86zm15.204-6.587c.217-.58.04-1.181-.395-1.343-.434-.163-.962.175-1.178.755-.217.58-.04 1.18.395 1.343.434.162.962-.176 1.178-.755zm-24.41-15.325c.452-.107.702-.681.559-1.283-.142-.602-.624-1.004-1.075-.897-.452.107-.702.682-.559 1.284.142.602.624 1.003 1.075.896zm-11.555-9.517c.231-.574.07-1.18-.361-1.353-.43-.173-.966.151-1.197.725-.232.574-.07 1.18.36 1.352.43.174.967-.15 1.198-.724zm-19.611 2.997c.231-.574.069-1.18-.361-1.353s-.967.151-1.198.725-.069 1.18.361 1.353.966-.152 1.198-.725zm-18.493 5.433c.231-.574.07-1.18-.36-1.352-.431-.174-.967.15-1.198.724s-.07 1.18.361 1.353c.43.173.966-.151 1.197-.725zm-23.989 16.489c.118-.608-.156-1.171-.611-1.26s-.92.332-1.038.939c-.119.607.155 1.171.61 1.26.456.088.92-.332 1.039-.94zm25.034 32.178c.464 0 .84-.502.84-1.12 0-.619-.376-1.12-.84-1.12s-.84.501-.84 1.12c0 .618.376 1.12.84 1.12z" fill="#D28A39"/>
	<path d="m280.9 54.28c.8-1.73 14.52-7.24 38.05-10.68 20.96-3.06 41.16-3.44 44.55.44 0-1.04-3.57-3.61-6.61-6.44-1.28-2.04-3.7-10.72-10.88-17.06-5.94-5.16-18.64-5.91-19.3-6.38-.65-.48-2.81-7.12-3.55-7.34s-10.56 1.17-11.7 1.64c-.42.29-.72 5.34-1.59 7.45-1.54.68-3.66 1.35-4.23 1.61-2.68 1.19-9.87 4.44-14.45 11.46-4.92 7.83-4.26 16.32-5.35 17.8s-5.21 6.48-4.94 7.5z" fill="#FCCC32"/>
	<path d="m330.871 34.63c-.28.9-.01 1.26 1.07 1.16 21.53-1.9 24.76 1.33 24.77 1.32-.66-1.38-1.85-3.96-2.99-5.82-4.08-1.09-11.12-1.98-20.91-.76-.45.06-.85.36-.93.81l-1.01 3.29zm-22.38-.99c-10.12 1.33-17.03 3.95-20.79 6.73-.49 2.61-.64 3.23-1 5.68.95-.86 6.35-4.37 23.94-7.27.77-.13.66-.46.56-.85l-1.69-3.6c-.09-.35-.65-.74-1.02-.69z" fill="#007215"/>
	<path d="m311.48 8.46c.37 1.96 1.03 9.13 1.2 11.95.02.38-.47.55-.69.24-.74-1.07-1.89-3.24-2.37-4.07-.2-1.59 1.41-6.79 1.86-8.12zm11.9-1.37c.01 1.99.68 9.16 1.05 11.97.05.38.57.46.72.11.52-1.19 1.26-3.53 1.58-4.44-.12-1.61-2.67-6.42-3.35-7.64z" fill="#DF9D2A"/>
	<path d="m320.35 21.15c-4.68 0-8.48 3.71-8.48 8.29s3.8 8.29 8.48 8.29 8.48-3.71 8.48-8.29c0-4.57-3.8-8.29-8.48-8.29zm5.7 9.48c-.11.9-.42 1.54-.79 1.99-.39.47-.9.76-1.16.87-.03.01-.05-.02-.03-.05.15-.2.3-.5.32-.94.03-.52-.23-1.04-.67-1.35-.57-.41-1.36-.41-1.96-.09-.66.35-1.08 1.09-.93 1.93.14.8.8 1.26 1.79 1.25.02 0 .03.03.01.04-.61.4-2.68.47-4.01.31-2.17-.26-3.79-.93-3.88-.97-.15-.06-.14-.14-.06-.26.42-.6.8-1.49 1-2.72.16-.97.47-2.43.94-3.32.5-.95 1.12-1.53 2.08-1.93.82-.35 1.74-.34 2.54-.13.71.18 1.42.78 1.69 1.39.03.07.06.08.11-.02.52-1.01.86-2.17.92-2.89 0-.02.01-.04.03-.03.4.19 1.12.72 1.39 1 .04.04.04.05 0 .09-.72.73-1.42 1.5-1.82 2.21-.05.09 0 .11.06.11.77.09 1.48.56 1.91 1.2.46.67.62 1.51.52 2.31z" fill="#007215"/>
	<path d="m193.14 110.14-26.74.59s1.18 6.6 1.18 9.61c0 2.14 6.91 4.86 25.56 4.86s25.56-2.72 25.56-4.86c0-3.01 1.18-9.61 1.18-9.61l-26.74-.59z" fill="#DF8E32"/>
	<path d="m166.83 112.67s.11.9.34 2.97c3.86 1.81 12.59 3.05 25.97 3.05 13.12 0 21.9-.75 25.97-2.97.23-1.66.34-3.06.34-3.06h-52.62v.01z" fill="#C57418"/>
	<path d="m161.6 48.97c-.7 5.63 14.53 7.55 40.72 10.48 31.14 3.47 42.14 1.73 42.05-1.64-.05-1.98-18.07-14.91-42.66-17.48s-40.05 8.11-40.11 8.64z" fill="#FFCE42"/>
	<path d="m164.74 47.95c-2.12 1.01-9.55 4.84 36.39 9.81 44.9 5.58 43.2-.38 40.95-1.93-.73-.73-13.73-9.98-38.65-11.31-18.63-1.93-35.18 1.94-38.69 3.43z" fill="#B57309"/>
	<path d="m173.35 41.97-7.21 60.9-4.89 7.71s1.06 6.09 30.07 6.17c34.74.1 33.75-6.36 33.75-6.36l-5.05-11.53 14.73-40.4c0-.02-22.88-11.73-61.4-16.49z" fill="#F5A448"/>
	<path d="m234.19 60.5 2.46-6.6s-24.57-7.17-63.04-11.92l-.9 5.46c5.1-2.06 15.46-4.2 31.93.9" fill="#F5A448"/>
	<path d="m199.36 88.49c-.84 3.73-3.46 6.32-5.83 5.79-2.37-.54-3.61-4-2.76-7.73s3.46-6.32 5.83-5.78c2.37.52 3.61 3.99 2.76 7.72zm21.24-16.98c-1.26 5.56-5.56 9.34-9.6 8.42-4.05-.92-6.31-6.18-5.04-11.74 1.26-5.56 5.56-9.34 9.61-8.42 4.03.92 6.29 6.18 5.03 11.74zm-26.75-6.2c-1.26 5.56-5.56 9.34-9.6 8.42-4.05-.92-6.31-6.18-5.04-11.74 1.26-5.56 5.56-9.34 9.61-8.42 4.03.92 6.29 6.18 5.03 11.74z" fill="#33210A"/>
	<path d="m196.13 49.13 6.87.51c12.77 1.14 25.22 3.31 33.12 5.74l.95-2.44c-.79-2.28 1.51-12-4.06-19.79-1.59-2.2-3.82-4-6.06-5.46.8 5.19-6.07 9.94-27.26 5.26-16.32-3.6-17.18-6.17-15.36-8.59-2.23 1.13-4.53 2.62-6.63 4.64-6.56 6.52-3.41 15.53-4.81 16.73l-.38 3.49c5.81-.5 13.63-.69 23.62-.09zm.51 49.95c-1.13.8-2.28 1.5-4.48.99s-2.93-1.64-3.59-2.86c-.2-.38-.79-.22-.77.2.1 2.37 1.65 5.05 3.69 5.53s4.62-1.25 5.75-3.34c.2-.38-.25-.77-.6-.52z" fill="#BA803D"/>
	<path d="m183.351 86.151c.14-.602-.113-1.175-.565-1.28s-.932.299-1.071.901c-.14.603.113 1.176.565 1.281s.932-.299 1.071-.901zm21.127 11.039c.14-.602-.113-1.175-.565-1.28s-.932.299-1.071.901c-.14.603.113 1.176.565 1.281s.932-.299 1.071-.901zm-15.521 7.386c.14-.602-.114-1.176-.566-1.28-.451-.105-.931.298-1.071.901-.139.603.114 1.176.566 1.281s.931-.299 1.071-.902zm24.407.981c.293-.545.199-1.165-.209-1.385-.409-.22-.978.044-1.271.589-.293.544-.199 1.164.209 1.384.409.22.978-.044 1.271-.588zm4.683-18.068c.293-.545.2-1.165-.209-1.385-.408-.22-.977.044-1.27.589s-.2 1.164.209 1.384c.408.22.977-.043 1.27-.588z" fill="#D28A39"/>
	<path d="m224.029 77.17c.221-.577.049-1.18-.385-1.345-.433-.166-.963.168-1.184.746-.221.577-.049 1.18.384 1.346.433.165.964-.169 1.185-.746zm-8.884 14.568c.221-.578.049-1.18-.385-1.346-.433-.166-.963.168-1.184.746s-.049 1.18.384 1.346c.434.166.964-.168 1.185-.746zm-10.141 15.426c.221-.577.049-1.18-.384-1.346-.433-.165-.964.169-1.185.746-.221.578-.049 1.181.385 1.346.433.166.963-.168 1.184-.746zm-29.909-.147c.221-.577.049-1.18-.384-1.346-.434-.165-.964.169-1.185.746-.221.578-.049 1.181.385 1.346.433.166.963-.168 1.184-.746zm2.933-9.048c.221-.578.049-1.18-.385-1.347-.433-.165-.963.169-1.184.746-.221.578-.049 1.18.384 1.347.433.165.964-.169 1.185-.746zm-3.697-8.795c.221-.578.049-1.18-.384-1.346s-.964.168-1.185.746-.048 1.18.385 1.346.964-.168 1.184-.746zm32.27-34.335c.459-.414.579-1.03.268-1.374s-.935-.288-1.394.127c-.459.414-.579 1.03-.269 1.374.311.344.935.287 1.395-.127zm-22.707 56.156c.48-.391.631-.999.338-1.359-.293-.359-.919-.334-1.399.057-.479.39-.631.998-.338 1.358s.92.335 1.399-.056zm21.659-26.266c.378-.49.386-1.117.018-1.4s-.971-.115-1.349.375c-.377.49-.385 1.117-.017 1.4.367.283.971.115 1.348-.375z" fill="#FBB55A"/>
	<path d="m225.63 76.74s7.22 1.42 17.79 5.02 8.62 11.4 6.86 16.35c-1.77 4.95-1.58 5.79-4.63 13.84-3.05 8.06-16.34.91-14.74-3.79s3.78-10.26 3.78-10.26l-13.04-4.22 3.98-16.94z" fill="#F5A448"/>
	<path d="m244.036 105.211c.429-.178.582-.786.344-1.357s-.778-.888-1.206-.71c-.429.179-.582.787-.344 1.357.238.571.778.889 1.206.71z" fill="#FBB55A"/>
	<path d="m237.935 109.463c.049-.616-.287-1.146-.749-1.182-.463-.036-.877.434-.925 1.051-.049.616.287 1.146.749 1.182.463.036.877-.434.925-1.051zm-1.613-24.78c.048-.617-.287-1.146-.75-1.182-.462-.037-.876.434-.925 1.05-.048.617.287 1.146.75 1.183.462.036.877-.434.925-1.051zm11.261 12.457c.463-.005.833-.512.825-1.13-.009-.619-.391-1.115-.855-1.11-.464.007-.833.513-.825 1.132.008.618.391 1.115.855 1.109zm-21.266-30.44c.464-.002.837-.505.834-1.123-.003-.619-.381-1.118-.845-1.116s-.838.505-.835 1.124c.003.618.382 1.118.846 1.116zm-9.102-11.881c.355-.507.334-1.133-.046-1.4-.38-.265-.976-.07-1.33.436-.355.507-.335 1.134.045 1.4s.976.07 1.331-.436zm-19.777-1.516c.354-.507.334-1.133-.046-1.4-.38-.265-.976-.07-1.331.436-.354.507-.334 1.133.046 1.4.38.266.976.07 1.331-.436zm-19.238 1.121c.355-.506.334-1.133-.046-1.399s-.975-.07-1.33.436c-.355.507-.334 1.133.046 1.4.38.265.975.07 1.33-.437z" fill="#D28A39"/>
	<path d="m171.32 69.85-11.55-3.17s2.1-7.08 3.31-11.88c1.22-4.81-12.6-10.88-15-2.6-2.4 8.27-2.15 9.09-3.52 14.16-1.36 5.07-2.16 12.61 8.67 15.35 10.82 2.74 16.37 4.48 16.37 4.48l1.72-16.34z" fill="#F5A448"/>
	<path d="m160.916 80.674c.415-.459.472-1.083.128-1.394-.344-.31-.959-.19-1.374.268-.415.459-.472 1.083-.128 1.394s.96.191 1.374-.268zm-7.684-14.53c.457-.08.742-.638.636-1.247-.106-.61-.562-1.04-1.019-.96s-.742.638-.636 1.247c.106.61.562 1.04 1.019.96z" fill="#FBB55A"/>
	<path d="m149.569 73.41c.012-.619-.354-1.127-.818-1.136s-.85.485-.861 1.104c-.012.618.354 1.127.818 1.136.464.008.849-.486.861-1.104zm22.759 26.896c.14-.602-.113-1.176-.565-1.28-.452-.105-.932.298-1.072.901-.139.603.114 1.176.566 1.281.452.104.931-.299 1.071-.902z" fill="#D28A39"/>
	<path d="m161.54 49.11c1.17-1.5 15.78-3.78 39.48-1.81 21.11 1.75 40.87 5.95 43.3 10.49.24-1.02-2.66-4.32-4.99-7.77-.79-2.28-1.18-11.28-6.74-19.07-4.62-6.36-16.83-9.96-17.36-10.58-.53-.61-1.13-7.57-1.8-7.95s-10.55-1.25-11.76-1.04c-.48.19-1.91 5.04-3.23 6.9-1.65.32-3.87.49-4.49.61-2.88.56-10.62 2.1-16.67 7.9-6.56 6.52-7.84 14.93-9.23 16.13-1.39 1.19-6.55 5.13-6.51 6.19z" fill="#FCCC32"/>
	<path d="m214.69 41.27c-.48.81-.29 1.22.78 1.37 21.4 3.01 23.82 6.88 23.83 6.88-.33-1.49-.91-4.27-1.6-6.34-3.73-1.98-10.39-4.44-20.2-5.46-.45-.05-.91.16-1.09.57l-1.72 2.98zm-21.569-6.01c-10.16-.99-17.48 0-21.77 1.86-1.07 2.43-1.36 3-2.26 5.31 1.12-.63 7.17-2.82 24.97-1.67.78.05.75-.3.74-.7l-.84-3.89c-.02-.37-.48-.88-.84-.91z" fill="#007215"/>
	<path d="m201.67 11.38c-.09 1.99-1.02 8.15-1.5 10.94-.07.38-.59.43-.73.08-.47-1.21-.85-3.18-1.13-4.1.19-1.6 2.63-5.73 3.36-6.92zm11.79 1.06c-.44 1.94-1.25 8.39-1.53 11.21-.04.38.45.57.68.27.78-1.04 2.07-2.8 2.58-3.61-.26-1.54-1.33-7.59-1.73-7.87z" fill="#DF9D2A"/>
	<path d="m207.49 25.77c-4.56-1.06-9.1 1.7-10.14 6.17-1.03 4.46 1.83 8.94 6.39 10s9.1-1.7 10.14-6.17c1.03-4.47-1.83-8.94-6.39-10zm3.41 10.51c-.31.85-.75 1.4-1.22 1.76-.48.37-1.05.54-1.33.58-.04.01-.05-.03-.02-.05.19-.16.4-.42.52-.84.14-.5.01-1.06-.34-1.47-.46-.53-1.23-.71-1.89-.53-.72.19-1.3.82-1.35 1.67-.04.81.49 1.41 1.47 1.63.02.01.03.04 0 .04-.69.26-2.71-.15-3.98-.61-2.06-.74-3.49-1.76-3.57-1.82-.13-.1-.1-.17 0-.27.54-.49 1.12-1.27 1.59-2.43.37-.91 1.01-2.26 1.66-3.02.7-.81 1.43-1.24 2.46-1.41.88-.15 1.77.06 2.51.44.65.33 1.21 1.08 1.33 1.74.01.08.04.09.11.01.74-.87 1.33-1.92 1.55-2.61.01-.02.02-.03.04-.02.35.28.93.96 1.13 1.29.03.05.03.06-.02.09-.87.55-1.72 1.14-2.27 1.74-.07.07-.02.1.03.12.73.27 1.32.88 1.59 1.6.31.77.27 1.62 0 2.37z" fill="#007215"/>
	<path d="m449.16 110.14-26.74.59s1.18 6.6 1.18 9.61c0 2.14 6.91 4.86 25.56 4.86s25.56-2.72 25.56-4.86c0-3.01 1.18-9.61 1.18-9.61l-26.74-.59z" fill="#DF8E32"/>
	<path d="m422.85 112.67s.11.9.34 2.97c3.86 1.81 12.59 3.05 25.97 3.05 13.12 0 21.9-.75 25.97-2.97.23-1.66.34-3.06.34-3.06h-52.62v.01z" fill="#C57418"/>
	<path d="m396.6 67.32c2.1 5.27 16.37-.4 40.72-10.48 28.95-11.99 37.74-18.82 36.04-21.73-1-1.71-23.02-4.33-45.8 5.28s-31.16 26.43-30.96 26.93z" fill="#FFCE42"/>
	<path d="m398.87 64.91c-1.37 1.9-6.03 8.85 36.61-8.98 42.02-16.79 37.65-21.18 34.94-21.45-.99-.28-16.84-2.12-39.31 8.75-17.26 7.3-29.89 18.67-32.24 21.68z" fill="#B57309"/>
	<path d="m403.24 55.84 19.31 46.61-5.29 8.12s-2.06 4.65 31 5.41c32.04.74 32.84-5.19 32.84-5.19l-4.97-11.91-10.89-58.58s-25.69.79-61.72 15.2" fill="#F5A448"/>
	<path d="m465.561 42.48-1.03-6.97s-24.98 5.58-61.01 19.99l1.85 5.22c3.52-4.27 11.56-11.15 28.44-14.63" fill="#F5A448"/>
	<path d="m448.75 83.7c1.06 3.68.02 7.21-2.31 7.88-2.34.67-5.09-1.76-6.15-5.44s-.02-7.2 2.32-7.88c2.33-.67 5.08 1.76 6.14 5.44zm10.41-25.12c1.58 5.48-.36 10.86-4.35 12.01s-8.51-2.37-10.09-7.85.36-10.86 4.35-12.01 8.51 2.37 10.09 7.85zm-26.42 7.48c1.58 5.48-.36 10.86-4.35 12.01s-8.51-2.37-10.09-7.85.36-10.86 4.35-12.01 8.51 2.37 10.09 7.85z" fill="#33210A"/>
	<path d="m426.71 50.83 6.27-2.87c11.73-5.17 23.67-9.33 31.77-11.02l-.34-2.59c-1.79-1.62-4.46-11.18-13.1-15.32-2.46-1.15-5.27-1.66-7.94-1.86 3.21 4.16-.52 11.64-21.34 17.77-16.04 4.73-18.03 2.9-17.6-.1-1.41 2.06-2.71 4.48-3.57 7.26-2.6 8.87 4.36 15.36 3.72 17.08l1.36 3.19c4.84-3.25 11.73-7.25 20.77-11.54zm24.77 43.46c-.6 1.25-1.27 2.41-3.45 3.03s-3.36-.03-4.53-.77c-.36-.23-.8.18-.57.55 1.23 2.03 3.88 3.63 5.9 3.06s3.44-3.32 3.42-5.7c0-.43-.59-.56-.77-.17z" fill="#BA803D"/>
	<path d="m433.095 90.69c.447-.127.672-.712.503-1.307-.168-.595-.667-.975-1.113-.849-.446.127-.672.712-.503 1.307.168.595.667.975 1.113.849zm23.842-.522c.446-.127.672-.712.503-1.307-.168-.595-.667-.975-1.113-.849-.447.127-.672.712-.503 1.307.168.595.667.975 1.113.849zm-10.761 15.492c.447-.126.672-.711.503-1.306-.168-.595-.667-.975-1.113-.849s-.672.711-.503 1.307c.168.595.667.975 1.113.848zm20.889-8.322c.464-.005.835-.51.828-1.129-.006-.618-.387-1.116-.851-1.111s-.835.51-.829 1.128c.007.619.388 1.116.852 1.112zm-3.27-22.4c.464-.004.835-.51.829-1.128s-.388-1.116-.851-1.112c-.464.005-.835.51-.829 1.129.006.618.387 1.116.851 1.111z" fill="#D28A39"/>
	<path d="m464.219 63.098c.459-.064.763-.612.677-1.225-.085-.612-.526-1.057-.986-.993-.459.064-.763.612-.677 1.225.085.613.526 1.057.986.993zm-.76 17.05c.46-.064.763-.612.678-1.225-.086-.613-.527-1.057-.987-.993-.459.063-.762.612-.677 1.225.085.612.527 1.057.986.993zm-2.779 22.729c.459-.064.763-.613.677-1.226-.085-.612-.527-1.057-.986-.993s-.763.613-.677 1.225c.085.613.526 1.058.986.994zm-25.641 11.519c.46-.064.763-.612.678-1.225-.086-.613-.527-1.057-.987-.993-.459.064-.762.612-.677 1.225.085.612.527 1.057.986.993zm-6.819-14.4c.459-.064.763-.613.677-1.225-.085-.613-.526-1.058-.986-.994-.459.064-.763.613-.677 1.225.085.613.526 1.058.986.994zm-1.739-2.389c.459-.064.762-.613.677-1.225-.085-.613-.527-1.058-.986-.994-.46.064-.763.612-.678 1.225.086.613.527 1.058.987.994zm12.372-46.876c.202-.584.011-1.181-.428-1.333-.438-.151-.957.2-1.16.784-.202.585-.01 1.182.428 1.333.439.152.958-.2 1.16-.784zm-2.728 54.608c.479-.39.631-.999.338-1.358-.293-.36-.92-.335-1.399.056-.48.39-.631.999-.338 1.358.293.36.919.335 1.399-.056zm16.242-27.921c.094-.61-.202-1.164-.661-1.234-.458-.07-.906.368-1 .98-.094.61.202 1.164.66 1.234.459.07.907-.368 1.001-.98z" fill="#FBB55A"/>
	<path d="m466.54 60.56s8.18-2.63 19.18-4.58 13.05 5.82 13.9 11.01c.84 5.19 1.41 5.83 2.62 14.36 1.22 8.53-13.87 8.68-14.74 3.8-.87-4.89-1.64-10.81-1.64-10.81l-14.64 2.99-4.68-16.77z" fill="#F5A448"/>
	<path d="m495.96 76.78c.288-.364.13-.97-.354-1.355s-1.111-.403-1.4-.04c-.288.364-.13.97.354 1.355.485.385 1.111.403 1.4.04z" fill="#FBB55A"/>
	<path d="m492.36 84.802c.423-.192.559-.804.303-1.367-.255-.564-.804-.865-1.227-.674-.423.192-.558.804-.303 1.367.255.564.805.865 1.227.674zm-13.379-20.916c.423-.191.559-.803.303-1.367-.255-.563-.804-.865-1.227-.673-.422.191-.558.803-.303 1.367.255.563.805.865 1.227.673zm16.183 4.103c.403-.23.482-.852.176-1.39-.306-.537-.88-.787-1.284-.558-.403.23-.482.851-.176 1.39.306.537.88.787 1.284.558zm-33.317-16.387c.405-.226.489-.847.188-1.387s-.874-.796-1.279-.57-.489.847-.188 1.387.874.796 1.279.57zm-13.708-6.014c.066-.615-.254-1.154-.716-1.203-.461-.05-.889.408-.955 1.023s.255 1.154.716 1.204.889-.409.955-1.024zm-18.053 8.224c.066-.615-.254-1.154-.715-1.203-.462-.05-.889.408-.955 1.023-.066.616.254 1.154.715 1.204s.889-.409.955-1.024zm-16.312 10.265c.066-.615-.255-1.154-.716-1.203-.461-.05-.889.409-.955 1.024s.254 1.153.716 1.203c.461.05.888-.409.955-1.024z" fill="#D28A39"/>
	<path d="m415.2 80.91-11.65 2.8s-1.58-7.21-2.83-12.01-16.28-3.44-14.39 4.96 2.5 9 3.76 14.1c1.25 5.1 4.19 12.08 15 9.26 10.8-2.82 16.5-3.97 16.5-3.97l-6.39-15.14z" fill="#F5A448"/>
	<path d="m411.307 95.408c.142-.602-.109-1.176-.561-1.283-.451-.106-.932.296-1.074.898s.109 1.177.561 1.283c.451.106.932-.296 1.074-.898zm-13.747-9.016c.362-.29.342-.916-.045-1.399s-.994-.639-1.356-.349-.342.917.045 1.4c.387.482.994.638 1.356.348z" fill="#FBB55A"/>
	<path d="m397.641 95.905c.411-.216.51-.835.222-1.383-.288-.547-.855-.815-1.265-.6-.411.217-.51.836-.222 1.383s.855.816 1.265.6zm31.925 14.043c.446-.126.672-.711.503-1.306-.168-.596-.667-.976-1.113-.849-.447.126-.672.711-.503 1.306.168.595.667.975 1.113.849z" fill="#D28A39"/>
	<path d="m396.66 67.47c.3-1.88 11.99-10.92 33.71-20.64 19.33-8.65 38.67-14.52 42.99-11.72-.28-1-4.42-2.5-8.12-4.39-1.79-1.62-6.48-9.31-15.11-13.45-7.12-3.34-19.55-.6-20.31-.89s-4.65-6.09-5.42-6.09c-.77-.01-9.85 4-10.81 4.77-.33.39.76 5.34.5 7.6-1.29 1.07-3.15 2.3-3.64 2.7-2.26 1.88-8.29 6.96-10.79 14.97-2.6 8.87.34 16.86-.3 18.58-.63 1.71-3.24 7.65-2.7 8.56z" fill="#FCCC32"/>
	<path d="m439.389 34.95c-.03.94.33 1.21 1.35.83 20.2-7.69 24.18-5.47 24.19-5.47-1.01-1.15-2.86-3.3-4.47-4.78-4.23.06-11.24 1.12-20.32 4.97-.42.18-.72.57-.68 1.03l-.07 3.42zm-21.799 5.14c-9.38 4.04-15.31 8.44-18.17 12.14.24 2.65.26 3.28.58 5.74.68-1.09 4.92-5.93 21.06-13.51.71-.33.51-.62.31-.97l-2.61-3c-.19-.33-.83-.54-1.17-.4z" fill="#007215"/>
	<path d="m413.6 15.06c.88 1.78 3.48 8.5 4.41 11.18.13.36-.31.66-.6.42-1-.83-2.7-2.6-3.39-3.26-.61-1.5-.48-6.95-.42-8.34zm11.08-4.57c.55 1.91 3.15 8.63 4.27 11.23.15.35.67.28.73-.1.18-1.28.25-3.74.31-4.7-.56-1.5-4.32-5.44-5.31-6.43z" fill="#DF9D2A"/>
	<path d="m425.6 24.85c-4.51 1.28-7.15 5.88-5.9 10.29s5.91 6.95 10.42 5.67 7.15-5.88 5.9-10.29-5.92-6.95-10.42-5.67zm8.06 7.56c.14.89.02 1.59-.22 2.13-.24.56-.66.98-.88 1.15-.03.02-.05 0-.04-.04.09-.23.15-.57.05-.99-.12-.5-.5-.94-1.01-1.12-.66-.24-1.42-.02-1.91.44-.54.51-.74 1.35-.37 2.11.35.73 1.11 1 2.07.72.02-.01.04.02.02.04-.48.56-2.45 1.18-3.78 1.39-2.16.34-3.9.14-4 .13-.17-.02-.17-.1-.13-.24.24-.69.37-1.66.22-2.89-.11-.97-.21-2.47 0-3.45.22-1.05.66-1.77 1.47-2.42.7-.56 1.58-.8 2.41-.82.73-.02 1.58.36 2 .88.05.06.08.06.1-.04.23-1.11.24-2.32.1-3.03 0-.02 0-.04.02-.03.44.08 1.28.39 1.61.58.05.03.05.04.03.08-.49.9-.96 1.83-1.15 2.62-.02.1.03.1.09.09.77-.12 1.58.14 2.17.64.63.51 1.01 1.27 1.13 2.07z" fill="#007215"/>
</svg>
