<svg viewBox="0 0 129 96" xmlns="http://www.w3.org/2000/svg">
	<g clip-path="url(#clip-tutorial_island)">
		<path d="m116 63.633s-7.059-25.352-15.383-33.26c-6.342-6.029-16.886-6.472-24.873-2.8-2.443 1.124-3.133.729-4.846-1.444-12.866-16.361-29.765-15.864-41.487-2.255-8.488 9.857-14.985 27.246-18.457 39.78" fill="#D7B496"/>
		<path d="M120.562 77.352c-4.291-16.28-8.013-26.095-13.651-37.709l-3.506 2.922-7.424-1.798-5.882 4.012-7.228-2.548-6.18 3.794-6.903-3.065-6.551 3.862-6.552-3.548-7.005 3.058-6.07-4.216-7.229 2.656-5.793-4.189-7.607 1.764-2.843-3.644c-4.135 7.847-5.001 11.069-9.198 24.937C5.587 81.377-2 116-2 116h130s0-10.401-7.438-38.648zM100.508 15.394c-.65 2.718-2.213 6.955-5.942 11.26 2.24.844 4.304 2.064 6.051 3.719l.081.081c.717-1.954 2.768-7.853 3.35-12.805-.88-1.288-1.577-2.752-1.78-4.257-.542.77-1.13 1.43-1.76 2.002z" fill="#D7B496"/>
		<g fill="#82D7AA">
			<path d="m121.469 13.868c.014-3.276-3.215-4.802-5.99-5.197-3.005-.43-7.702-.095-9.441 1.151 1.428-1.246 2.91-2.513 3.445-4.284-.501-.096-1.611-.096-2.119-.014 2.146-1.049 3.263-4.114 3.445-5.517-1.001.007-2.47.245-3.384.75-2.917 1.647-4.297 4.808-5.285 7.894-1.794-4.585-3.852-6.907-7.682-7.902-2.93-.763-7.235.73-10.064 1.826 1.428 2.002 6.463 3.712 9.766 3.42-1.191.299-2.518 1.396-2.714 2.022 1.462.361 3.817.906 5.618 2.827-2.349-.381-5.212.088-7.37 1.022-4.217 1.825-4.427 3.882-5.043 6.532 4.602.02 7.952-1.717 8.947-2.39-.69 1.273-.379 2.58-.379 2.58 2.613-.354 5.164-1.246 7.283-3.187.44-1.832.46-2.97.46-2.97.399-1.11 2.24-2.255 2.93.252.366 1.335.359 3.086.143 4.973 1.36 1.988 3.167 3.555 4.277 4.182.453-.293.873-.995.947-1.86.413 1.771 3.723 5.51 4.406 5.463 2.078-3.338 1.557-5.436.4-7.506-.562-1.029-2.078-2.589-4.359-4.114 3.404 1.267 4.745 1.573 6.579 1.539 0-.633-.312-1.45-.521-1.914.284.068 5.705.668 5.705.422z"/>
			<path d="M103.906 12.676c-.69-2.507-2.531-1.362-2.931-.252 0 0-.027 1.138-.46 2.97a12.413 12.413 0 001.76-2.003c.196 1.506.893 2.97 1.78 4.257.21-1.893.216-3.637-.149-4.972zM93.023 28.302a31.287 31.287 0 001.543-1.655c-5.902-2.228-13.035-1.744-18.822.92-2.443 1.123-3.133.728-4.846-1.445C58.032 9.761 41.133 10.258 29.41 23.867c-3.438 3.992-6.544 9.21-9.258 14.843l2.842 3.644 7.607-1.764 5.794 4.189 7.228-2.657 6.071 4.217 7.005-3.059 6.551 3.549 6.552-3.862 6.903 3.065 6.166-3.8 7.228 2.554 5.881-4.012 7.425 1.798 3.506-2.922c-1.909-3.747-4.02-7.077-6.22-9.196-.156.422-.25.668-.25.668l-7.418-2.82z"/>
			<path d="m94.566 26.646a31.41 31.41 0 01-1.543 1.656l7.418 2.813s.094-.245.25-.668l-.081-.081c-1.74-1.656-3.804-2.875-6.044-3.72z"/>
		</g>
	</g>
	<defs>
		<clipPath id="clip-tutorial_island">
			<path d="M0 0h128v96H0z" fill="#fff"/>
		</clipPath>
	</defs>
</svg>
