<svg viewBox="0 0 400 400" xmlns="http://www.w3.org/2000/svg">
	<path d="m25.303 111.798c.094.367.378.892.63 1.165 0 0 1.26 1.364 5.185 1.406 2.991.032 7.736-2.519 7.736-2.519.325-.178.514-.619.44-.986l-1.889-7.4c-.094-.368-.42-.494-.735-.284 0 0-3.128 2.078-7.6 1.711-3.285-.273-5.52-1.837-5.52-1.837-.315-.22-.483-.094-.4.273l2.153 8.471z" fill="#3CD67B"/>
	<path d="m307.712 199.003c.304.231.85.472 1.207.535 0 0 1.837.315 4.954-2.068 2.383-1.816 4.566-6.728 4.566-6.728.147-.336.032-.808-.262-1.05l-6.025-4.681c-.305-.231-.641-.126-.756.22 0 0-1.197 3.559-4.954 6.015-2.761 1.795-5.49 1.942-5.49 1.942-.378.021-.441.22-.147.462l6.907 5.353z" fill="#E94975"/>
	<path d="M78.5 242.374c.094.368.377.893.629 1.166 0 0 1.26 1.364 5.185 1.406 2.992.032 7.736-2.519 7.736-2.519.326-.179.514-.619.441-.987l-1.89-7.4c-.094-.367-.42-.493-.734-.283 0 0-3.128 2.078-7.6 1.711-3.285-.273-5.52-1.837-5.52-1.837-.316-.221-.484-.095-.4.273l2.152 8.47zM359.659 267.178c-.336-.263-.294-.641.084-.83 0 0 1.113-.577 2.246-3.642 1.134-3.065 1.239-5.301 1.239-5.301a.763.763 0 01.798-.724l8.785.514c.42.021.766.399.777.809 0 0 .042 5.962-2.582 10.528-2.11 3.673-2.876 4.408-2.876 4.408a.905.905 0 01-1.155.053l-7.316-5.815zM39.452 50.309c-.241-.346-.073-.703.346-.766 0 0 1.239-.2 3.275-2.75 2.037-2.551 2.845-4.64 2.845-4.64a.75.75 0 01.987-.43l8.176 3.254c.4.157.61.62.483 1.008 0 0-1.837 5.678-5.762 9.184-3.16 2.824-4.115 3.285-4.115 3.285a.9.9 0 01-1.113-.304l-5.122-7.841z" fill="#40B6D0"/>
	<path d="m304.825 292.747a.604.604 0 00-.588.693s.588 4.22-.094 7.599c-.672 3.38-1.763 5.962-1.763 5.962-.147.336.01.504.356.357 0 0 2.079-.902 6.466-.577 4.388.325 7.936.766 7.936.766a.615.615 0 00.692-.598s.147-6.581-.01-10.297c-.168-3.716-.105-3.926-.105-3.926.094-.357-.126-.598-.493-.535 0 0-2.929.546-6.424.504-3.947-.021-5.973.052-5.973.052zm29.632-187.845c-.368.031-.577.356-.462.713 0 0 1.029 3.118 2.593 5.637 1.385 2.204 4.167 5.364 4.167 5.364.241.283.756.451 1.123.378 0 0 3.873-.777 6.592-2.037 2.718-1.27 5.972-3.516 5.972-3.516.315-.221.326-.588.032-.819 0 0-3.244-2.561-5.133-5.479-2.026-3.149-2.582-4.44-2.582-4.44a.595.595 0 00-.871-.283s-4.126 2.382-6.298 3.285c-2.184.882-5.133 1.197-5.133 1.197z" fill="#E94975"/>
	<path d="M107.826 358.151c-.052-.367-.398-.546-.745-.409 0 0-3.033 1.259-5.427 3.012-2.088 1.543-5.038 4.556-5.038 4.556-.273.262-.399.787-.294 1.144 0 0 1.06 3.8 2.52 6.424 1.469 2.613 3.946 5.699 3.946 5.699.242.294.609.284.819-.031 0 0 2.309-3.422 5.091-5.521 2.981-2.247 4.24-2.908 4.24-2.908.326-.178.441-.577.221-.892 0 0-2.677-3.936-3.737-6.046-1.071-2.11-1.596-5.028-1.596-5.028zM27.78 271.103c-.084-.356-.441-.514-.777-.346 0 0-2.907 1.522-5.133 3.474-1.952 1.722-4.608 4.986-4.608 4.986-.241.294-.325.819-.2 1.165 0 0 1.397 3.695 3.076 6.172 1.7 2.477 4.44 5.322 4.44 5.322.263.273.63.231.82-.105 0 0 1.994-3.611 4.576-5.951 2.77-2.509 3.967-3.275 3.967-3.275.315-.2.389-.62.137-.914 0 0-3.013-3.684-4.262-5.689-1.249-1.984-2.036-4.839-2.036-4.839z" fill="#F3C639"/>
	<path d="m358.368 325.076c-.189.347-.053.777.294.924 0 0 1.637.724 5.836 1.312s9.415.263 9.415.263c.378-.021.746-.368.809-.767 0 0 .22-1.343-.525-3.999-.735-2.655-1.312-3.306-1.312-3.306-.252-.284-.767-.41-1.134-.284 0 0-1.081.357-4.566.609-3.495.242-6.529-1.217-6.529-1.217-.325-.168-.598.021-.577.409 0 0 .063 1.648-.609 3.432-.693 1.806-1.102 2.624-1.102 2.624z" fill="#3CD67B"/>
	<path d="m370.355 36.317a.666.666 0 00.892.368s1.638-.767 4.881-3.527c3.254-2.76 6.477-6.854 6.477-6.854.241-.294.22-.777-.032-1.081 0 0-.871-1.008-3.369-2.11-2.499-1.113-3.359-1.092-3.359-1.092-.378.01-.819.315-.976.661 0 0-.452 1.029-2.593 3.79-2.141 2.76-5.269 4.104-5.269 4.104-.347.136-.389.462-.074.682 0 0 1.291.987 2.183 2.603.893 1.627 1.239 2.456 1.239 2.456z" fill="#E94975"/>
	<path d="m333.47 346.846s.525 5.249.997 7.054c.473 1.816 1.144 4.66 1.816 5.238.672.577 3.422 2.099 4.766 2.76 1.333.672 2.855 1.617 3.233 1.239.388-.388-1.617-3.338-2.278-5.427-.672-2.11-.766-3.159-1.155-4.009-.378-.861-1.249-1.176-3.107-2.74-1.732-1.428-3.978-4.828-4.272-4.115z" fill="#40B6D0"/>
	<path d="m44.858 208.187c-.231-.346-.074-.693.346-.766 0 0 1.239-.199 3.275-2.75s2.845-4.64 2.845-4.64a.752.752 0 01.986-.43l8.177 3.254a.84.84 0 01.483 1.018s-1.837 5.679-5.763 9.185c-3.16 2.823-4.114 3.285-4.114 3.285a.89.89 0 01-1.113-.315l-5.122-7.841z" fill="#F3C639"/>
	<path d="m79.129 304.168a.602.602 0 00-.588.692s.588 4.22-.094 7.6c-.672 3.38-1.764 5.962-1.764 5.962-.147.346.01.504.357.357 0 0 2.078-.903 6.466-.578 4.388.326 7.925.767 7.925.767a.616.616 0 00.693-.599s.147-6.581-.01-10.297c-.169-3.715-.106-3.925-.106-3.925.095-.357-.126-.599-.493-.536 0 0-2.929.546-6.424.504-3.936-.031-5.962.053-5.962.053z" fill="#3CD67B"/>
	<path d="M338.477 64.343c.283-.231.262-.62-.031-.85 0 0-2.635-1.963-5.364-3.107-2.393-1.008-6.497-1.984-6.497-1.984-.368-.095-.872.063-1.134.336 0 0-2.719 2.865-4.22 5.458-1.49 2.603-2.865 6.308-2.865 6.308-.126.357.073.672.451.683 0 0 4.125.22 7.348 1.532 3.464 1.407 4.671 2.141 4.671 2.141a.613.613 0 00.881-.272s2.005-4.325 3.265-6.309c1.27-1.984 3.495-3.936 3.495-3.936zM361.433 130.45c-.084-.357-.441-.514-.777-.347 0 0-2.907 1.522-5.133 3.475-1.952 1.721-4.608 4.986-4.608 4.986-.241.294-.325.818-.199 1.165 0 0 1.396 3.695 3.075 6.172 1.701 2.477 4.44 5.321 4.44 5.321.263.273.63.231.819-.104 0 0 1.994-3.611 4.577-5.952 2.771-2.509 3.967-3.275 3.967-3.275a.602.602 0 00.137-.913s-3.013-3.684-4.262-5.689c-1.249-1.984-2.036-4.839-2.036-4.839zM360.425 211.641c-.084-.357-.441-.504-.776-.347 0 0-2.908 1.522-5.133 3.475-1.953 1.721-4.608 4.985-4.608 4.985-.242.294-.326.819-.2 1.166 0 0 1.396 3.694 3.076 6.172 1.7 2.477 4.44 5.321 4.44 5.321.262.273.63.231.819-.105 0 0 1.994-3.61 4.576-5.951 2.771-2.509 3.968-3.275 3.968-3.275a.611.611 0 00.147-.913s-3.013-3.685-4.262-5.689c-1.259-1.974-2.047-4.839-2.047-4.839zM95.2 109.069c-.085-.357-.442-.515-.778-.347 0 0-2.907 1.512-5.132 3.474-1.953 1.722-4.608 4.986-4.608 4.986-.242.294-.326.819-.2 1.165 0 0 1.396 3.695 3.076 6.172 1.7 2.478 4.44 5.322 4.44 5.322.273.273.63.231.819-.105 0 0 1.994-3.611 4.576-5.951 2.771-2.509 3.968-3.265 3.968-3.265.315-.21.388-.619.136-.913 0 0-3.012-3.684-4.261-5.689-1.25-1.984-2.037-4.849-2.037-4.849z" fill="#F3C639"/>
	<path d="m96.627 175.407a.753.753 0 00.483.881s1.784.588 4.607.83c2.488.21 7.967.052 7.967.052.378-.021.746-.325.809-.693 0 0 .566-2.897 1.322-5.783.756-2.876 1.123-7.453 1.123-7.453.021-.367-.231-.598-.609-.493 0 0-3.883 1.039-7.221.808-3.569-.241-4.85-.556-4.85-.556a.64.64 0 00-.787.514s-.797 4.608-1.48 6.844c-.672 2.236-1.364 5.049-1.364 5.049z" fill="#E94975"/>
	<path d="m310.189 249.449c-.189.347-.052.777.294.924 0 0 1.637.724 5.836 1.312s9.415.262 9.415.262c.378-.021.746-.367.809-.766 0 0 .22-1.343-.525-3.999-.735-2.656-1.312-3.306-1.312-3.306-.252-.284-.767-.41-1.134-.284 0 0-1.081.357-4.566.609-3.495.241-6.529-1.218-6.529-1.218-.325-.168-.598.021-.577.41 0 0 .063 1.648-.609 3.432-.693 1.806-1.102 2.624-1.102 2.624z" fill="#3CD67B"/>
	<path d="m35.054 351.853a.667.667 0 00.892.368s1.638-.767 4.881-3.527c3.254-2.761 6.477-6.855 6.477-6.855.24-.293.22-.776-.032-1.081 0 0-.871-1.007-3.37-2.109-2.498-1.113-3.358-1.092-3.358-1.092-.378.01-.819.315-.976.661 0 0-.452 1.029-2.593 3.789-2.141 2.761-5.27 4.105-5.27 4.105-.346.136-.388.461-.073.682 0 0 1.291.987 2.183 2.603.903 1.627 1.24 2.456 1.24 2.456z" fill="#E94975"/>
</svg>
