<svg viewBox="0 0 400 400" xmlns="http://www.w3.org/2000/svg">
	<path d="M324.158 58.731c.094.368.378.893.629 1.166 0 0 1.26 1.364 5.186 1.406 2.991.032 7.736-2.52 7.736-2.52.325-.178.514-.618.441-.986l-1.89-7.4c-.094-.367-.42-.493-.735-.283 0 0-3.128 2.078-7.599 1.71-3.286-.272-5.521-1.836-5.521-1.836-.315-.22-.483-.095-.399.273l2.152 8.47zM22.183 279.169c.095.367.378.892.63 1.165 0 0 1.26 1.364 5.185 1.406 2.992.032 7.736-2.519 7.736-2.519.326-.178.515-.619.441-.986l-1.89-7.4c-.094-.368-.42-.494-.734-.284 0 0-3.128 2.078-7.6 1.711-3.285-.273-5.52-1.837-5.52-1.837-.316-.22-.483-.094-.4.273l2.152 8.471z" fill="#3CD67B"/>
	<path d="m369.776 207.52c.304.23.85.472 1.207.535 0 0 1.837.315 4.954-2.068 2.383-1.816 4.566-6.728 4.566-6.728.147-.336.032-.809-.262-1.05l-6.025-4.681c-.305-.231-.641-.126-.756.22 0 0-1.197 3.558-4.954 6.015-2.761 1.794-5.49 1.941-5.49 1.941-.378.021-.441.221-.147.462l6.907 5.354z" fill="#E94975"/>
	<path d="M62.228 225.804c.094.368.377.893.63 1.166 0 0 1.259 1.364 5.185 1.406 2.991.032 7.736-2.519 7.736-2.519.325-.178.514-.619.44-.987l-1.889-7.4c-.094-.367-.42-.493-.735-.283 0 0-3.128 2.078-7.6 1.711-3.285-.273-5.52-1.837-5.52-1.837-.315-.221-.483-.095-.4.273l2.153 8.47zM316.684 171.307c-.336-.263-.294-.641.084-.83 0 0 1.113-.577 2.247-3.642 1.133-3.065 1.238-5.301 1.238-5.301a.762.762 0 01.798-.724l8.785.514c.42.021.767.399.777.809 0 0 .042 5.962-2.582 10.528-2.11 3.673-2.876 4.408-2.876 4.408a.905.905 0 01-1.155.053l-7.316-5.815zM70.887 70.813c-.241-.347-.073-.704.347-.767 0 0 1.238-.199 3.274-2.75 2.037-2.55 2.845-4.64 2.845-4.64a.75.75 0 01.987-.43l8.176 3.255c.4.157.61.619.483 1.007 0 0-1.837 5.679-5.762 9.185-3.16 2.823-4.115 3.285-4.115 3.285a.9.9 0 01-1.113-.304l-5.122-7.841z" fill="#40B6D0"/>
	<path d="m338.234 350.44c-.231-.346-.074-.693.346-.766 0 0 1.239-.2 3.275-2.75 2.036-2.551 2.844-4.64 2.844-4.64a.751.751 0 01.987-.43l8.177 3.254a.84.84 0 01.483 1.018s-1.837 5.679-5.763 9.185c-3.159 2.823-4.114 3.285-4.114 3.285a.891.891 0 01-1.113-.315l-5.122-7.841z" fill="#F3C639"/>
	<path d="m349.108 132.196a.608.608 0 00-.588.704s.588 4.219-.094 7.599c-.672 3.38-1.764 5.962-1.764 5.962-.147.347.011.504.357.357 0 0 2.078-.903 6.466-.577 4.388.325 7.925.766 7.925.766a.617.617 0 00.693-.598s.147-6.571-.011-10.297c-.168-3.716-.105-3.926-.105-3.926.095-.357-.126-.598-.493-.535 0 0-2.929.545-6.424.503-3.947-.042-5.962.042-5.962.042z" fill="#3CD67B"/>
	<path d="m318.259 282.297a.602.602 0 00-.588.693s.588 4.219-.095 7.599c-.671 3.38-1.763 5.962-1.763 5.962-.147.336.011.504.357.357 0 0 2.078-.903 6.466-.577 4.387.325 7.935.766 7.935.766a.616.616 0 00.693-.598s.147-6.582-.011-10.297c-.168-3.716-.105-3.926-.105-3.926.095-.357-.126-.599-.493-.536 0 0-2.928.546-6.424.504-3.946-.021-5.972.053-5.972.053zm-16.91 89.315c-.367.031-.577.357-.462.713 0 0 1.029 3.118 2.593 5.637 1.385 2.204 4.167 5.364 4.167 5.364.241.283.756.451 1.123.378 0 0 3.873-.777 6.592-2.037 2.718-1.27 5.972-3.516 5.972-3.516.315-.22.326-.588.032-.819 0 0-3.244-2.561-5.122-5.479-2.026-3.149-2.583-4.44-2.583-4.44a.594.594 0 00-.871-.283s-4.125 2.382-6.298 3.285c-2.194.882-5.143 1.197-5.143 1.197zm-218.275-16.69c-.368.032-.578.357-.462.714 0 0 1.029 3.117 2.593 5.637 1.385 2.204 4.167 5.363 4.167 5.363.241.284.755.452 1.123.378 0 0 3.873-.777 6.591-2.036 2.72-1.27 5.973-3.516 5.973-3.516.315-.221.325-.588.032-.819 0 0-3.244-2.561-5.133-5.479-2.026-3.149-2.582-4.44-2.582-4.44a.595.595 0 00-.872-.284s-4.125 2.383-6.297 3.286c-2.184.881-5.133 1.196-5.133 1.196z" fill="#E94975"/>
	<path d="m370.972 21.973c.284-.231.263-.62-.031-.85 0 0-2.635-1.964-5.364-3.108-2.393-1.007-6.497-1.983-6.497-1.983-.368-.095-.871.062-1.134.335 0 0-2.718 2.866-4.219 5.459-1.491 2.603-2.866 6.308-2.866 6.308-.126.357.073.672.451.682 0 0 4.125.22 7.348 1.533 3.464 1.406 4.671 2.141 4.671 2.141a.614.614 0 00.882-.273s2.004-4.325 3.264-6.308c1.27-1.984 3.495-3.936 3.495-3.936zm-37.861 206.854c-.052-.367-.399-.545-.745-.409 0 0-3.033 1.26-5.427 3.013-2.088 1.543-5.038 4.555-5.038 4.555-.273.262-.399.787-.294 1.144 0 0 1.06 3.8 2.519 6.424 1.47 2.614 3.947 5.7 3.947 5.7.241.294.609.283.819-.032 0 0 2.309-3.422 5.091-5.521 2.981-2.257 4.24-2.908 4.24-2.908.326-.178.441-.577.221-.892 0 0-2.677-3.936-3.737-6.046s-1.596-5.028-1.596-5.028zm-262.791-212.417c-.084-.358-.44-.515-.776-.347 0 0-2.908 1.522-5.133 3.474-1.953 1.722-4.608 4.986-4.608 4.986-.252.294-.336.819-.21 1.176 0 0 1.396 3.694 3.075 6.172 1.7 2.477 4.44 5.322 4.44 5.322.263.272.63.23.82-.105 0 0 1.993-3.611 4.576-5.952 2.77-2.509 3.967-3.275 3.967-3.275.315-.2.389-.62.137-.913 0 0-3.013-3.684-4.262-5.69-1.238-1.983-2.026-4.849-2.026-4.849zm-28.907 60.795c-.084-.357-.441-.504-.777-.346 0 0-2.907 1.522-5.133 3.474-1.952 1.722-4.608 4.986-4.608 4.986-.241.294-.325.819-.2 1.165 0 0 1.397 3.695 3.076 6.172 1.7 2.477 4.44 5.322 4.44 5.322.263.273.63.23.82-.105 0 0 1.994-3.611 4.576-5.952 2.77-2.508 3.967-3.275 3.967-3.275.315-.2.389-.619.147-.913 0 0-3.012-3.684-4.261-5.689-1.25-1.973-2.047-4.839-2.047-4.839zm48.273 70.904c-.084-.357-.44-.514-.776-.346 0 0-2.908 1.511-5.133 3.474-1.953 1.722-4.608 4.986-4.608 4.986-.242.294-.325.819-.2 1.165 0 0 1.397 3.695 3.076 6.172 1.7 2.477 4.44 5.322 4.44 5.322.273.273.63.231.819-.105 0 0 1.994-3.611 4.576-5.952 2.771-2.508 3.968-3.264 3.968-3.264.315-.21.388-.619.136-.913 0 0-3.012-3.684-4.261-5.689-1.239-1.984-2.037-4.85-2.037-4.85zm-32.602 200.494a.754.754 0 00.955.315s1.711-.766 3.947-2.508c1.963-1.533 5.9-5.354 5.9-5.354.261-.262.335-.745.136-1.06 0 0-1.554-2.519-2.94-5.154-1.395-2.624-4.22-6.245-4.22-6.245-.23-.283-.576-.283-.786.042 0 0-2.152 3.39-4.766 5.49-2.792 2.235-3.946 2.876-3.946 2.876a.647.647 0 00-.231.913s2.53 3.936 3.547 6.046c1.008 2.099 2.404 4.639 2.404 4.639z" fill="#F3C639"/>
	<path d="m307.216 134.201a.755.755 0 00.483.882s1.785.588 4.608.829c2.488.21 7.967.053 7.967.053.378-.021.745-.326.808-.693 0 0 .567-2.897 1.323-5.784.756-2.876 1.123-7.452 1.123-7.452.021-.368-.231-.598-.609-.493 0 0-3.884 1.039-7.221.808-3.569-.242-4.85-.557-4.85-.557a.641.641 0 00-.787.515s-.808 4.608-1.48 6.843c-.672 2.236-1.365 5.049-1.365 5.049z" fill="#E94975"/>
	<path d="m36.29 133.614c-.188.346-.052.776.295.923 0 0 1.637.725 5.836 1.312 4.198.588 9.415.263 9.415.263.378-.021.745-.368.808-.767 0 0 .22-1.343-.525-3.999-.734-2.655-1.312-3.306-1.312-3.306-.252-.284-.766-.409-1.133-.284 0 0-1.081.357-4.566.609-3.496.242-6.53-1.217-6.53-1.217-.325-.168-.597.021-.576.409 0 0 .063 1.648-.61 3.432-.681 1.795-1.101 2.625-1.101 2.625z" fill="#3CD67B"/>
	<path d="m23.705 200.308a.667.667 0 00.892.368s1.638-.766 4.881-3.527c3.254-2.761 6.477-6.854 6.477-6.854.241-.294.22-.777-.032-1.081 0 0-.871-1.008-3.37-2.11-2.497-1.113-3.358-1.092-3.358-1.092-.378.011-.819.315-.976.661 0 0-.452 1.029-2.593 3.79-2.141 2.76-5.27 4.104-5.27 4.104-.346.136-.388.462-.073.682 0 0 1.291.987 2.184 2.603.892 1.627 1.238 2.456 1.238 2.456z" fill="#E94975"/>
	<path d="m348.961 73.972s.525 5.249.997 7.054c.473 1.805 1.144 4.66 1.816 5.238.672.567 3.422 2.099 4.766 2.76 1.343.672 2.855 1.617 3.232 1.239.389-.389-1.616-3.338-2.277-5.427-.672-2.11-.767-3.16-1.155-4.01-.378-.86-1.249-1.175-3.107-2.74-1.732-1.427-3.978-4.828-4.272-4.114z" fill="#40B6D0"/>
</svg>
