<svg viewBox="0 0 400 400" xmlns="http://www.w3.org/2000/svg">
	<path d="M349.852 30.849c.095.367.378.892.63 1.165 0 0 1.26 1.364 5.186 1.406 2.991.032 7.735-2.519 7.735-2.519.326-.178.515-.62.441-.987l-1.889-7.4c-.094-.367-.42-.493-.735-.283 0 0-3.128 2.078-7.599 1.71-3.286-.272-5.521-1.836-5.521-1.836-.315-.22-.483-.095-.399.273l2.151 8.47zM62.825 373.14c.094.368.378.892.63 1.165 0 0 1.26 1.365 5.185 1.407 2.992.031 7.736-2.519 7.736-2.519.325-.179.514-.62.44-.987l-1.889-7.4c-.094-.367-.42-.493-.734-.283 0 0-3.128 2.078-7.6 1.71-3.285-.272-5.52-1.836-5.52-1.836-.316-.221-.484-.095-.4.272l2.152 8.471z" fill="#3CD67B"/>
	<path d="m316.463 376.793c.304.231.85.472 1.207.535 0 0 1.837.315 4.954-2.068 2.383-1.815 4.566-6.728 4.566-6.728.147-.336.032-.808-.262-1.049l-6.025-4.682c-.304-.231-.64-.126-.756.221 0 0-1.196 3.558-4.954 6.014-2.761 1.795-5.49 1.942-5.49 1.942-.378.021-.441.22-.147.462l6.907 5.353z" fill="#E94975"/>
	<path d="M65.386 125.065c.095.368.378.893.63 1.165 0 0 1.26 1.365 5.185 1.407 2.992.031 7.736-2.519 7.736-2.519.326-.179.514-.619.441-.987l-1.89-7.4c-.094-.367-.42-.493-.734-.283 0 0-3.128 2.078-7.6 1.711-3.285-.273-5.52-1.837-5.52-1.837-.316-.221-.484-.095-.4.273l2.152 8.47zM319.759 75.364c-.336-.262-.294-.64.084-.829 0 0 1.113-.577 2.246-3.642 1.134-3.065 1.239-5.301 1.239-5.301a.763.763 0 01.798-.724l8.785.514c.42.021.766.399.777.808 0 0 .042 5.962-2.582 10.528-2.11 3.674-2.876 4.409-2.876 4.409a.904.904 0 01-1.155.052l-7.316-5.815zM55.152 319.388c-.241-.347-.073-.704.346-.767 0 0 1.24-.199 3.275-2.75 2.037-2.55 2.845-4.639 2.845-4.639a.751.751 0 01.987-.431l8.176 3.254c.4.158.61.62.483 1.008 0 0-1.837 5.679-5.762 9.184-3.16 2.824-4.115 3.286-4.115 3.286a.899.899 0 01-1.113-.305l-5.122-7.84z" fill="#40B6D0"/>
	<path d="m24.187 361.762c-.23-.346-.073-.693.347-.766 0 0 1.238-.2 3.274-2.75 2.037-2.551 2.845-4.64 2.845-4.64a.75.75 0 01.987-.43l8.177 3.254a.84.84 0 01.482 1.018s-1.837 5.678-5.762 9.184c-3.16 2.824-4.115 3.286-4.115 3.286a.891.891 0 01-1.113-.315l-5.122-7.841z" fill="#F3C639"/>
	<path d="m35.051 162.559a.602.602 0 00-.587.693s.587 4.219-.095 7.599c-.672 3.38-1.763 5.962-1.763 5.962-.147.347.01.504.356.357 0 0 2.079-.903 6.466-.577 4.388.325 7.925.766 7.925.766a.616.616 0 00.693-.598s.147-6.571-.01-10.297c-.168-3.716-.105-3.926-.105-3.926.094-.357-.126-.598-.494-.535 0 0-2.928.545-6.424.503-3.936-.031-5.962.053-5.962.053z" fill="#3CD67B"/>
	<path d="M85.928 260.911a.603.603 0 00-.588.693s.588 4.22-.094 7.6c-.672 3.379-1.764 5.962-1.764 5.962-.147.335.01.503.357.356 0 0 2.078-.902 6.466-.577 4.387.326 7.935.766 7.935.766a.616.616 0 00.693-.598s.147-6.581-.01-10.297c-.168-3.716-.105-3.926-.105-3.926.094-.357-.126-.598-.494-.535 0 0-2.928.546-6.424.504-3.946-.032-5.972.052-5.972.052zM345.895 99.401c-.367.032-.577.357-.462.714 0 0 1.029 3.118 2.593 5.637 1.386 2.204 4.167 5.363 4.167 5.363.242.284.756.452 1.123.378 0 0 3.874-.776 6.592-2.036 2.719-1.27 5.973-3.516 5.973-3.516.315-.221.325-.588.031-.819 0 0-3.243-2.561-5.122-5.48-2.026-3.148-2.582-4.44-2.582-4.44a.595.595 0 00-.871-.283s-4.126 2.383-6.298 3.286c-2.194.881-5.144 1.196-5.144 1.196zM16.493 91.057c-.367.031-.577.356-.461.713 0 0 1.028 3.118 2.592 5.637 1.386 2.204 4.167 5.364 4.167 5.364.242.283.756.451 1.123.378 0 0 3.874-.777 6.592-2.037 2.719-1.27 5.973-3.516 5.973-3.516.315-.22.325-.588.031-.819 0 0-3.243-2.56-5.133-5.479-2.025-3.149-2.582-4.44-2.582-4.44a.595.595 0 00-.87-.283s-4.126 2.382-6.299 3.285c-2.183.892-5.133 1.197-5.133 1.197z" fill="#E94975"/>
	<path d="M331.242 155.82c.283-.231.262-.619-.031-.85 0 0-2.635-1.963-5.364-3.107-2.393-1.008-6.498-1.984-6.498-1.984-.367-.094-.871.063-1.133.336 0 0-2.719 2.866-4.22 5.458-1.49 2.603-2.865 6.309-2.865 6.309-.126.356.073.671.451.682 0 0 4.125.22 7.348 1.532 3.463 1.407 4.671 2.142 4.671 2.142a.613.613 0 00.881-.273s2.005-4.325 3.265-6.309c1.27-1.984 3.495-3.936 3.495-3.936zM358.806 283.836c-.052-.368-.399-.546-.745-.41 0 0-3.034 1.26-5.427 3.013-2.089 1.543-5.038 4.555-5.038 4.555-.273.263-.399.788-.294 1.144 0 0 1.06 3.8 2.519 6.424 1.47 2.614 3.947 5.7 3.947 5.7.241.294.609.283.818-.032 0 0 2.31-3.421 5.091-5.521 2.981-2.256 4.241-2.907 4.241-2.907.325-.179.441-.578.22-.892 0 0-2.676-3.937-3.737-6.046-1.06-2.1-1.595-5.028-1.595-5.028zM93.39 191.855c-.083-.357-.44-.515-.776-.347 0 0-2.907 1.522-5.133 3.475-1.952 1.721-4.608 4.985-4.608 4.985-.241.294-.325.819-.2 1.166 0 0 1.397 3.694 3.076 6.172 1.7 2.477 4.44 5.321 4.44 5.321.263.273.63.231.82-.105 0 0 1.993-3.61 4.576-5.951 2.77-2.509 3.967-3.275 3.967-3.275a.602.602 0 00.137-.913s-3.013-3.685-4.262-5.689c-1.249-1.984-2.036-4.839-2.036-4.839zM330.518 217.865c-.084-.357-.441-.504-.777-.346 0 0-2.907 1.522-5.133 3.474-1.952 1.721-4.608 4.986-4.608 4.986-.241.294-.325.819-.199 1.165 0 0 1.396 3.695 3.075 6.172 1.701 2.477 4.44 5.322 4.44 5.322.263.273.63.231.819-.105 0 0 1.994-3.611 4.577-5.952 2.771-2.509 3.967-3.275 3.967-3.275a.61.61 0 00.147-.913s-3.012-3.684-4.261-5.689c-1.26-1.973-2.047-4.839-2.047-4.839zM49.862 266.926c-.084-.357-.441-.515-.777-.347 0 0-2.907 1.512-5.133 3.475-1.952 1.721-4.608 4.986-4.608 4.986-.241.294-.325.818-.2 1.165 0 0 1.397 3.695 3.076 6.172 1.7 2.477 4.44 5.321 4.44 5.321.273.273.63.231.82-.105 0 0 1.993-3.61 4.576-5.951 2.77-2.509 3.967-3.264 3.967-3.264.315-.21.389-.62.137-.914 0 0-3.013-3.684-4.262-5.689-1.249-1.984-2.036-4.849-2.036-4.849zM69.217 83.048a.756.756 0 00.956.315s1.71-.767 3.946-2.51c1.963-1.532 5.9-5.352 5.9-5.352.262-.263.335-.746.136-1.06 0 0-1.554-2.52-2.94-5.154-1.395-2.624-4.219-6.246-4.219-6.246-.23-.283-.577-.283-.787.042 0 0-2.152 3.39-4.766 5.48-2.792 2.235-3.946 2.876-3.946 2.876a.647.647 0 00-.231.913s2.53 3.936 3.548 6.046c1.007 2.099 2.403 4.65 2.403 4.65z" fill="#F3C639"/>
	<path d="m301.999 273.455a.753.753 0 00.483.881s1.784.588 4.608.83c2.487.209 7.966.052 7.966.052.378-.021.746-.325.809-.693 0 0 .566-2.897 1.322-5.783.756-2.876 1.123-7.453 1.123-7.453.021-.367-.231-.598-.609-.493 0 0-3.883 1.039-7.221.808-3.569-.241-4.85-.556-4.85-.556a.641.641 0 00-.787.514s-.797 4.608-1.48 6.844c-.672 2.236-1.364 5.049-1.364 5.049z" fill="#E94975"/>
	<path d="m310.239 329.401c-.189.347-.053.777.294.924 0 0 1.637.724 5.836 1.312 4.198.588 9.415.262 9.415.262.378-.021.745-.367.808-.766 0 0 .221-1.343-.525-3.999-.734-2.656-1.312-3.307-1.312-3.307-.252-.283-.766-.409-1.133-.283 0 0-1.081.357-4.566.609-3.496.241-6.529-1.218-6.529-1.218-.325-.168-.598.021-.577.41 0 0 .063 1.648-.609 3.432-.682 1.795-1.102 2.624-1.102 2.624z" fill="#3CD67B"/>
	<path d="m371.15 191.687a.665.665 0 00.892.367s1.638-.766 4.881-3.527c3.254-2.76 6.476-6.854 6.476-6.854.242-.294.221-.777-.031-1.081 0 0-.871-1.008-3.37-2.11-2.498-1.113-3.358-1.092-3.358-1.092-.378.011-.819.315-.977.662 0 0-.451 1.028-2.592 3.789-2.142 2.761-5.269 4.104-5.269 4.104-.347.137-.389.462-.074.682 0 0 1.291.987 2.183 2.604.893 1.626 1.239 2.456 1.239 2.456z" fill="#E94975"/>
	<path d="m362.081 344.988s.525 5.249.997 7.054 1.144 4.661 1.816 5.238c.672.567 3.422 2.099 4.765 2.76 1.333.672 2.855 1.617 3.233 1.239.389-.388-1.616-3.338-2.288-5.427-.672-2.109-.766-3.159-1.155-4.009-.377-.861-1.249-1.176-3.107-2.74-1.721-1.427-3.967-4.818-4.261-4.115z" fill="#40B6D0"/>
</svg>
