<svg viewBox="0 0 40 40" xmlns="http://www.w3.org/2000/svg">
	<path d="M36.316 23.738c-.36 3.048-1.784 6.127-4.398 7.683-.142.085-.984.513-1.127.587-.105.053-.217-.053-.169-.158.064-.143.545-.535.704-.9.82-1.915.238-4.148-1.122-5.387-1.561-1.428-4.165-1.598-6.027-.598-1.863 1.006-3.059 3.17-2.646 5.572.397 2.313 2.249 3.651 5.08 3.625.063 0 .095.085.037.122-1.73 1.17-7.572 1.344-11.356.894-3.62-.434-7.128-1.503-10.583-2.646-.28-.095-.709-.27-.709-.54 0-.153.206-.423.275-.56 1.148-2.143 2-4.445 2.524-6.821.826-3.752.884-7.81 2.905-11.08 3.239-5.245 10.42-6.764 15.547-3.753.91.535 1.693 1.572 2.418 2.397.09.101.249.075.307-.047A27.672 27.672 0 0030.193 4a8.465 8.465 0 014.112 2.46 32.977 32.977 0 00-5.006 6.795.218.218 0 00.17.323c2.19.27 4.196 1.63 5.413 3.482 1.264 1.942 1.709 4.37 1.434 6.678z" fill="#B4E4B5"/>
</svg>
