<svg viewBox="0 0 64 64" xmlns="http://www.w3.org/2000/svg">
	<path d="m.175781 31.2544c0-5.0797 3.039719-9.4165 7.319439-11.1268-.1353-.7343-.20616-1.4925-.20616-2.268 0-6.5758 5.09384-11.90648 11.37744-11.90648 1.3999 0 2.7406.26456 3.9792.74849 1.8456-3.96748 5.7355-6.70161 10.2357-6.70161 4.8535 0 8.9972 3.18037 10.6319 7.65833.7033-.14232 1.4297-.21686 2.1728-.21686 6.2836 0 11.3774 5.33073 11.3774 11.90643 0 .2872-.0097.572-.0288.8541 4.1838 1.7593 7.1378 6.0448 7.1378 11.0523 0 5.2087-3.1961 9.6362-7.6478 11.252.3499 1.1449.5388 2.3651.5388 3.6314 0 6.5758-5.0938 11.9065-11.3774 11.9065-.9525 0-1.8777-.1225-2.7619-.3532-1.9148 3.7525-5.6938 6.3061-10.0428 6.3061-4.2581 0-7.9698-2.4479-9.9203-6.0723-1.6788 1.022-3.6304 1.6073-5.7125 1.6073-6.2836 0-11.37751-5.3307-11.37751-11.9064 0-1.947.44654-3.7847 1.23827-5.4073-4.07542-1.8113-6.933579-6.0384-6.933579-10.964z" fill="#ECC6FF"/>
</svg>
