<svg viewBox="0 0 320 200" xmlns="http://www.w3.org/2000/svg">
	<path d="m164.016 146.643c.508.353.974.973 1.397 1.86.438.862.673 1.97.705 3.323.024 1.015-.192 1.946-.648 2.791a8.895 8.895 0 01-1.686 2.272c-.094.11-.183.166-.265.167-.14.016-.235-.065-.282-.244a.659.659 0 01-.027-.216c.003-.065.004-.14.002-.224.07-.509.077-1.021.022-1.538a2.86 2.86 0 00-.47-1.407 4.103 4.103 0 00-1.444-1.337 85.578 85.578 0 00-1.727-1.006 29.14 29.14 0 00-1.711-.946 14.112 14.112 0 00-1.765-.804c-.069-.024-.136-.006-.203.054-.052.036-.068.093-.047.172l.168.626c.388 1.45.767 2.902 1.136 4.357a56.139 56.139 0 001.273 4.288c.209.625.389 1.257.54 1.898.165.616.243 1.254.234 1.917a5.842 5.842 0 01-.653 2.537 7.117 7.117 0 01-1.602 2.121 8.893 8.893 0 01-1.933 1.348 9.682 9.682 0 01-2.264.926 8.493 8.493 0 01-2.386.352 5.497 5.497 0 01-2.215-.396 4.55 4.55 0 01-1.77-1.282c-.484-.572-.825-1.343-1.022-2.312a6.462 6.462 0 01.003-2.65 6.82 6.82 0 011.056-2.422 7.966 7.966 0 011.89-1.975 8.53 8.53 0 012.567-1.295c.477-.149.933-.26 1.368-.334s.856-.123 1.263-.147l-4.03-15.042c-.181-.675-.219-1.24-.113-1.694s.297-.782.573-.983c.291-.227.636-.33 1.034-.309s.8.169 1.204.443a81.613 81.613 0 003.296 2.118l3.433 2.049a424.95 424.95 0 013.04 1.74c.919.498 1.605.9 2.059 1.204z" fill="#FFD0AE"/>
	<path d="m40.235 97.079-5.122-5.44-7.155 2.15c-.505.161-.978.162-1.418.001a2.235 2.235 0 01-1.026-.751c-.27-.327-.44-.711-.51-1.154-.05-.437.044-.867.283-1.29l3.67-6.643-4.326-6.18c-.288-.416-.422-.854-.403-1.316.038-.455.169-.865.392-1.229.248-.378.576-.661.983-.849a2.084 2.084 0 011.34-.181l7.39 1.44 4.491-6.073c.299-.407.663-.67 1.093-.788.455-.132.898-.14 1.329-.025.43.115.8.342 1.109.678.333.323.527.735.582 1.237l.853 7.505 7.12 2.448c.48.17.845.449 1.099.835a2.3 2.3 0 01.397 1.218 2.31 2.31 0 01-.275 1.261c-.214.409-.55.721-1.007.938l-6.834 3.189-.145 7.588c-.004.486-.147.903-.43 1.25a2.15 2.15 0 01-.988.753 2.271 2.271 0 01-1.294.13c-.441-.076-.84-.31-1.197-.702z" fill="#FFE096"/>
	<path d="m273.275 66.743a9.264 9.264 0 01-1.344 2.928c-.6.85-1.313 1.615-2.138 2.296a19.87 19.87 0 01-2.653 1.9c-.959.56-1.94 1.093-2.946 1.597a36.496 36.496 0 01-2.967 1.332c-.949.37-1.823.694-2.623.974a57.4 57.4 0 01-2.067.639c-.57.19-.972.34-1.209.45a.399.399 0 01-.322.042.367.367 0 01-.229-.19c-.15-.212-.433-.546-.85-1.002-.403-.43-.893-.959-1.471-1.587a126.305 126.305 0 01-1.814-2.162 41.667 41.667 0 01-1.874-2.63 52.216 52.216 0 01-1.753-2.855 20.169 20.169 0 01-1.385-2.95 13.23 13.23 0 01-.667-3.08 9.274 9.274 0 01.3-3.208c.651-2.426 1.69-4.178 3.119-5.257 1.447-1.073 3.205-1.483 5.271-1.23 1.004.118 1.895.389 2.673.812a7.001 7.001 0 011.991 1.5 7.196 7.196 0 011.353 1.91c.333.692.554 1.374.663 2.048.393-.54.887-1.03 1.483-1.472a6.893 6.893 0 012.068-.993 6.995 6.995 0 012.475-.304c.904.027 1.83.243 2.779.648 1.916.814 3.245 2.04 3.987 3.679.766 1.624.817 3.679.15 6.165z" fill="#FFCAD1"/>
	<path d="m114.522 58.236-.412 1.537a4.468 4.468 0 01-.614 1.451 5.197 5.197 0 01-1.579 1.573 6.183 6.183 0 01-2.027.85c-.931.195-1.942.21-3.033.044a8.105 8.105 0 01-2.913-1.003c-.851-.502-1.499-1.162-1.945-1.978-.445-.816-.482-1.798-.111-2.944a4.702 4.702 0 011.101-1.828 5.51 5.51 0 011.785-1.265 6.841 6.841 0 012.22-.608 7.665 7.665 0 012.436.145c.385.082.752.191 1.101.327.355.116.714.255 1.078.416l2.875-10.73-14.249-1.157a948.207 948.207 0 00-1.788 6.554c-.454 1.695-.8 3.028-1.04 3.998a44.456 44.456 0 01-.366 1.486c-.09.42-.173.767-.247 1.043a40.778 40.778 0 01-.382 1.545 5.026 5.026 0 01-.644 1.443 4.666 4.666 0 01-1.562 1.514 6.478 6.478 0 01-2.02.821c-.93.195-1.944.219-3.04.073a8.117 8.117 0 01-2.93-.944c-.856-.482-1.506-1.132-1.952-1.948-.445-.817-.482-1.798-.11-2.945a4.757 4.757 0 011.108-1.857 5.51 5.51 0 011.784-1.264 6.848 6.848 0 012.22-.61 7.101 7.101 0 012.428.176c.405.087.782.199 1.132.335.354.116.694.25 1.018.4l3.112-11.617.998-3.725a.703.703 0 01.345-.446c.202-.115.388-.17.559-.167l19.826 1.574c.275.01.479.128.612.354.162.275.213.522.155.738l-1.465 5.469-1.156 4.316a218.708 218.708 0 01-.841 3.26l-.634 2.364-.523 1.95c-.122.538-.226.964-.31 1.28z" fill="#FFD0AE"/>
	<path d="m204.035 112.631c3.645-13.603 17.628-21.676 31.231-18.031l20.285 5.435c13.603 3.645 21.676 17.628 18.031 31.231l-5.435 20.285c-3.645 13.603-17.628 21.676-31.231 18.031l-20.285-5.435c-13.603-3.645-21.676-17.628-18.031-31.231l5.435-20.285z" fill="#F88D62"/>
	<path d="m225.189 106.77c-1.559.252-1.842 1.966-.563 5.987.358 1.119.911 1.895 1.815 1.747.91-.146 1.323-1.119 1.312-2.328-.042-4.456-.999-5.656-2.564-5.406zm-12.068 9.676c-.745 1.396.445 2.659 4.419 4.077 1.106.393 2.06.424 2.49-.387.431-.81-.085-1.727-1.054-2.45-3.572-2.668-5.108-2.641-5.855-1.24zm4.116-6.064c-1.174 1.062-.479 2.648 2.792 5.327.909.743 1.797 1.091 2.479.476.684-.621.499-1.657-.169-2.664-2.469-3.718-3.927-4.207-5.102-3.139zm22.607 1.716c1.151 1.088.42 2.658-2.904 5.268-.925.727-1.817 1.054-2.488.423-.672-.63-.466-1.671.226-2.661 2.551-3.658 4.02-4.117 5.166-3.03zm-5.818-4.446c1.449.638 1.291 2.362-.963 5.935-.626.996-1.356 1.604-2.2 1.232-.844-.373-.997-1.413-.684-2.583 1.17-4.296 2.398-5.221 3.847-4.584z" clip-rule="evenodd" fill="#F4DD5C" fill-rule="evenodd"/>
	<path d="m258.951 129.986c1.314-4.927-1.243-10.52-6.45-12.95-5.206-2.431-11.132-.791-14.066 3.386-2.934 4.176-4.656 8.605-3.615 11.331 1.042 2.727 4.128 5.229 7.621 6.853 3.491 1.63 7.388 2.381 10.146 1.428 2.762-.947 5.05-5.12 6.364-10.048z" fill="#F5F1E3"/>
	<path d="m252.085 117.953s1.567-2.643 6.117-1.875c4.066.688 5.362 4.579 4.56 7.799-.802 3.219-1.63 6.468-.896 8.729.847 2.59 3.576 1.835 3.576 1.835s-1.375 6.744-8.185 2.344c-3.592-2.321-4.55-9.063-4.55-9.063l-.622-9.769z" fill="#F7F3E1"/>
	<path d="m236.587 123.817s-1.536-1.221-2.998-.127c-1.15.861-1.702 3.374-.073 5.022 1.393 1.415 2.236 1.111 2.236 1.111l.835-6.006zm20.945 9.783s1.922.394 2.018 2.216c.079 1.434-1.496 3.472-3.801 3.28-1.978-.164-2.289-1.003-2.289-1.003l4.072-4.493z" fill="#F5F1E3"/>
	<path d="m250.544 133.135a1.618 1.618 0 10.837-3.125 1.618 1.618 0 00-.837 3.125zm-8.6-4.015a1.618 1.618 0 10.837-3.125 1.618 1.618 0 00-.837 3.125zm6.104 4.923c-.224-.279-.661-.421-1.138-.116-.126.082-.25.182-.378.294-.196.167-.379.325-.597.388-.421.119-.972.063-1.444-.155-.471-.218-.867-.604-1.046-1.005-.091-.207-.087-.449-.085-.705.001-.164.003-.328-.019-.474-.071-.555-.462-.799-.821-.798a.837.837 0 00-.822.748c-.062.616.081 1.264.416 1.877.331.606 1.008 1.196 1.809 1.569.255.117.521.212.783.283.562.15 1.119.184 1.582.095.681-.134 1.276-.444 1.711-.888a.845.845 0 00.049-1.113z" fill="#5E4537"/>
	<path d="m265.442 134.441s-2.729.755-3.576-1.835c-.74-2.262.094-5.51.896-8.729.802-3.22-.494-7.111-4.56-7.799-2.884-.486-4.562.392-5.412 1.108a22.441 22.441 0 00-.277-.147c-5.207-2.431-11.131-.797-14.064 3.374a31.145 31.145 0 00-2.025 3.288 3.76 3.76 0 00-.328-.186c.117.062.48.275.722.76l.292.59 2.023-3.118s1.642.032 4.292 1.211c.869-1.496 1.864-2.752 3.527-3.324 0 0-1.051.9-2.352 3.688 3.719 1.185 7.112 3.501 7.112 3.501s.822-1.954 1.895-3.097c-.652 2.456-.547 2.246-.839 3.745 2.681 1.473 3.962 2.554 3.962 2.554s.217.782-.944 3.522c1.997-1.292 3.801.543 3.725 2.35a3.219 3.219 0 01-.723 1.901c.036-.045.077-.083.106-.124 5.392 2.401 6.548-3.233 6.548-3.233z" fill="#5E4537"/>
	<path d="m233.487 138.161c-.452-5.084-4.759-9.465-10.483-9.964-5.725-.498-10.73 3.069-12.061 7.991-1.331 4.923-1.437 9.681.482 11.882 1.912 2.205 5.67 3.498 9.501 3.837 3.838.334 7.756-.291 10.026-2.124 2.271-1.84 2.989-6.543 2.535-11.622z" fill="#F5F1E3"/>
	<path d="m210.369 140.011s-1.86-.626-2.86.902c-.785 1.202-.445 3.753 1.645 4.746 1.794.852 2.482.281 2.482.281l-1.267-5.929zm23.027 2.035s1.941-.29 2.653 1.393c.566 1.321-.219 3.772-2.453 4.385-1.913.522-2.492-.156-2.492-.156l2.292-5.622z" fill="#F5F1E3"/>
	<path d="m226.109 143.948a1.618 1.618 0 10.837-3.125 1.618 1.618 0 00-.837 3.125zm-9.457-.841a1.618 1.618 0 10.837-3.125 1.618 1.618 0 00-.837 3.125zm7.982 2.595c-.305-.179-.765-.168-1.109.276a3.43 3.43 0 00-.254.401c-.126.222-.244.434-.426.568-.355.257-.897.392-1.414.345s-1.024-.268-1.328-.587c-.157-.164-.236-.392-.323-.635-.056-.155-.106-.308-.18-.444-.255-.5-.706-.591-1.043-.468a.847.847 0 00-.519.981c.155.602.511 1.16 1.033 1.623.423.375.951.584 1.4.704.347.093.653.132.837.151.88.078 1.759-.089 2.35-.454.597-.364 1.045-.853 1.305-1.416.178-.367.028-.833-.329-1.045z" fill="#5E4537"/>
	<path d="m233.977 142.037a2.781 2.781 0 00-.382-.005 30.07 30.07 0 00-.105-3.858c-.447-5.082-4.759-9.465-10.475-9.974-5.723-.504-10.732 3.056-12.063 7.978a29.08 29.08 0 00-.776 3.781 3.119 3.119 0 00-.398-.058c.118.013.992.138 1.962.903.738-4.369 3.446-6.475 3.446-6.475l2.042 2.563 3.124-2.64 2.443 2.975 2.96-2.502 2.171 3.146 2.338-1.931s1.984 3.119 2.171 6.762c.516-.495 1.064-.653 1.542-.665z" fill="#5E4537"/>
	<path d="M48.6 138.266c-3.645-13.603 4.428-27.586 18.031-31.231l20.285-5.435c13.603-3.645 27.586 4.428 31.231 18.031l5.435 20.285c3.645 13.603-4.428 27.586-18.031 31.231l-20.285 5.435c-13.603 3.645-27.586-4.428-31.23-18.031L48.6 138.266z" fill="#F8A6B1"/>
	<path d="m91.14 118.81c-2.342-1.011-7.55-2.971-12.532-2.86.565 2.084-.827 5.252-5.09 6.345-4.268 1.089-7.002-1.022-7.51-3.121-4.42 2.293-8.05 6.518-9.62 8.527a1.471 1.471 0 00.193 2.013c1.436 1.247 4.059 3.534 5.738 5.075.67.613 1.73.481 2.227-.28 1.08-1.653 1.596-2.498 1.596-2.498l-.046 8.964a3.507 3.507 0 002.864 3.465c2.101.387 5.396.502 10.04-.687 4.65-1.191 7.488-2.871 9.142-4.222a3.507 3.507 0 00.859-4.407l-4.396-7.999s.883.592 2.627 1.555c.8.443 1.811.057 2.11-.808.73-2.157 1.928-5.413 2.589-7.198a1.466 1.466 0 00-.792-1.864z" fill="#F5F1E3"/>
	<g fill="#5E4537">
		<path d="m75.165 128.644a2.07 2.07 0 10-1.073-4 2.07 2.07 0 001.073 4z"/>
		<path d="m74.093 124.644a2.07 2.07 0 10.023-.006l-.023.006zm2.526 9.675a2.07 2.07 0 10-1.071-3.999 2.07 2.07 0 001.07 3.999z"/>
		<path d="m75.549 130.325a2.073 2.073 0 00-1.47 2.513 2.069 2.069 0 002.541 1.487 2.07 2.07 0 00-1.072-4zm28.105.763a1.928 1.928 0 012.356 1.36l5.041 18.811a1.929 1.929 0 01-1.36 2.356l-18.812 5.04a1.928 1.928 0 01-2.355-1.36l-5.04-18.811a1.928 1.928 0 011.36-2.356l18.81-5.04zm-1.134-4.233-18.811 5.04a6.306 6.306 0 00-4.459 7.723l5.041 18.811a6.306 6.306 0 007.722 4.459l18.812-5.041a6.306 6.306 0 004.458-7.722l-5.04-18.812a6.31 6.31 0 00-7.723-4.458z"/>
	</g>
	<path d="m109.608 154.441-18.244 4.888a3 3 0 01-3.674-2.121l-4.888-18.243a3 3 0 012.121-3.674l18.244-4.888a3 3 0 013.673 2.121l4.889 18.243a3.006 3.006 0 01-2.121 3.674z" fill="#F8A6B1"/>
	<path d="m90.713 141.059.03.113-.113.031-.03-.114.113-.03zm1.792-5.017-5.965 1.599a1.352 1.352 0 00-.957 1.656l1.598 5.966c.194.722.936 1.15 1.657.957l5.966-1.599a1.353 1.353 0 00.956-1.657l-1.598-5.965a1.353 1.353 0 00-1.657-.957z" fill="#5E4537"/>
	<path d="m93.743 143.072-4.75 1.273a.218.218 0 01-.266-.154l-1.273-4.75a.217.217 0 01.154-.266l4.75-1.273c.12-.032.236.04.266.154l1.273 4.75a.22.22 0 01-.154.266z" fill="#F8A6B1"/>
	<path d="m91.098 139.585-1.568.421a.567.567 0 00-.404.698l.42 1.568a.568.568 0 00.7.404l1.567-.42a.567.567 0 00.404-.699l-.42-1.568a.568.568 0 00-.7-.404zm2.304 11.507.03.114-.114.03-.03-.114.114-.03zm1.791-5.017-5.965 1.599a1.353 1.353 0 00-.957 1.657l1.599 5.965c.193.722.935 1.15 1.657.957l5.965-1.599a1.353 1.353 0 00.957-1.657l-1.599-5.965a1.353 1.353 0 00-1.656-.957z" fill="#5E4537"/>
	<path d="m96.432 153.106-4.75 1.272a.217.217 0 01-.267-.153l-1.272-4.75a.218.218 0 01.154-.267l4.75-1.272c.119-.032.236.04.266.154l1.273 4.749a.221.221 0 01-.154.267z" fill="#F8A6B1"/>
	<path d="m93.786 149.619-1.568.42a.568.568 0 00-.403.699l.42 1.568a.568.568 0 00.699.404l1.568-.421a.567.567 0 00.403-.698l-.42-1.568a.568.568 0 00-.699-.404zm7.08-11.281.03.114-.113.03-.031-.113.114-.031zm1.797-5.018-5.965 1.598a1.354 1.354 0 00-.957 1.657l1.599 5.966c.193.721.935 1.15 1.657.956l5.965-1.598a1.353 1.353 0 00.957-1.657l-1.599-5.965a1.36 1.36 0 00-1.657-.957z" fill="#5E4537"/>
	<path d="m103.896 140.352-4.75 1.273a.218.218 0 01-.266-.154l-1.273-4.75a.218.218 0 01.154-.267l4.75-1.272a.216.216 0 01.266.154l1.273 4.749a.222.222 0 01-.154.267z" fill="#F8A6B1"/>
	<g fill="#5E4537">
		<path d="m101.251 136.865-1.569.42a.568.568 0 00-.403.699l.42 1.568a.568.568 0 00.699.404l1.568-.42a.567.567 0 00.403-.699l-.42-1.568a.567.567 0 00-.698-.404zm-1.03 7.863-2.141.574.573 2.142 2.142-.574-.574-2.142z"/>
		<path d="m100.221 144.728-2.141.574.573 2.142 2.142-.574-.574-2.142zm1.139 4.25-2.142.574.574 2.142 2.142-.574-.574-2.142z"/>
		<path d="m101.36 148.978-2.142.574.574 2.142 2.142-.574-.574-2.142zm2.716 1.568-2.142.574.574 2.142 2.142-.574-.574-2.142z"/>
		<path d="m104.076 150.546-2.142.574.574 2.142 2.142-.574-.574-2.142zm.429-6.966-2.142.574.574 2.142 2.142-.574-.574-2.142z"/>
		<path d="m104.511 143.579-2.148.575.574 2.142 2.148-.575-.574-2.142zm-1.574 2.717-2.142.574.574 2.142 2.142-.574-.574-2.142z"/>
		<path d="m102.937 146.296-2.142.574.576 2.148 2.142-.574-.576-2.148zm4.29-1.149-2.142.574.574 2.142 2.142-.574-.574-2.142z"/>
		<path d="m107.227 145.147-2.142.574.575 2.147 2.142-.574-.575-2.147zm-1.572 2.723-2.142.574.574 2.142 2.142-.574-.574-2.142z"/>
		<path d="m105.66 147.868-2.147.576.574 2.142 2.147-.576-.574-2.142zm2.716 1.568-2.142.574.574 2.142 2.142-.574-.574-2.142z"/>
		<path d="m108.376 149.436-2.142.574.574 2.142 2.142-.574-.574-2.142z"/>
	</g>
	<path d="m142.035 31.632c3.645-13.604 17.628-21.677 31.231-18.032l20.285 5.436c13.603 3.645 21.676 17.627 18.031 31.23l-5.435 20.285c-3.645 13.603-17.628 21.676-31.231 18.031l-20.285-5.435c-13.603-3.645-21.676-17.628-18.031-31.231l5.435-20.284z" fill="#CED936"/>
	<path d="m185.432 74.186-32.71-8.764a5.137 5.137 0 01-3.631-6.29l3.916-14.614a5.137 5.137 0 016.289-3.631l32.71 8.764a5.137 5.137 0 013.631 6.29l-3.916 14.614a5.137 5.137 0 01-6.289 3.631z" fill="#5E4537"/>
	<path d="m181.31 50.182 3.543.95-.95 3.543-3.543-.95.95-3.543zm5.448 6.606-.95 3.543-3.543-.949.95-3.543 3.543.95zm-19.056.004 3.543.95-.949 3.543-3.543-.95.949-3.543zm-2.693-2.034.949-3.543 3.543.95-.949 3.543-3.543-.95zm5.754 1.542.949-3.543 3.543.95-.949 3.542-3.543-.95zm2.461 1.972 3.543.95-.949 3.542-3.543-.95.949-3.542zm3.287-.432.95-3.543 3.543.95-.95 3.543-3.543-.95zm-.723-9.137 3.543.949-.949 3.543-3.543-.95.949-3.542zm-5.522-1.48 3.544.95-.95 3.543-3.543-.95.949-3.543zm-5.515-1.478 3.543.95-.95 3.543-3.543-.95.95-3.543zm-1.004 4.878-.949 3.543-3.543-.95.949-3.543 3.543.95zm-4.518-6.357 3.543.949-.949 3.543-3.543-.95.949-3.542zm.03 14.061-3.543-.95.949-3.542 3.543.95-.949 3.542zm2.928-3.013 3.543.95-.95 3.543-3.543-.95.95-3.543zm15.001 13.267-14.587-3.908.95-3.543 14.586 3.908-.949 3.543zm4.151-4.337-3.543-.95.95-3.543 3.543.95-.95 3.543zm5.516 1.478-3.543-.95.949-3.543 3.543.95-.949 3.543zm2.564-9.57-3.543-.949.949-3.543 3.544.95-.95 3.543z" fill="#CED936"/>
	<path d="m185.886 42.969-17.948-4.81a6.36 6.36 0 01-4.499-7.791 6.36 6.36 0 017.792-4.499l17.948 4.81a6.36 6.36 0 014.498 7.791 6.36 6.36 0 01-7.791 4.499z" fill="#F5F1E3"/>
	<path d="m173.414 39.627c1.984.532 2.318 3.55 2.714 3.656.397.106 1.798-2.447 4.321-1.77 1.837.491-9.059-2.428-7.035-1.886z" fill="#F5F1E3"/>
	<path d="m178.064 36.261a1.908 1.908 0 10.988-3.686 1.908 1.908 0 00-.988 3.686zm-6.479-1.736a1.908 1.908 0 10.987-3.686 1.908 1.908 0 00-.987 3.686zm12.953 3.471a1.907 1.907 0 10.988-3.683 1.907 1.907 0 00-.988 3.683z" fill="#5E4537"/>
	<path d="m169.908 28.31-4.302-1.153a2.91 2.91 0 111.507-5.624l4.302 1.153a2.91 2.91 0 012.059 3.565 2.907 2.907 0 01-3.566 2.059z" fill="#F88191"/>
</svg>
