<svg viewBox="0 0 48 48" xmlns="http://www.w3.org/2000/svg">
	<path d="m2 23.4884c0-3.4919 2.08915-6.4731 5.03074-7.6494-.0931-.505-.14185-1.0265-.14185-1.5599 0-4.52106 3.50211-8.18608 7.82221-8.18608.9639 0 1.8871.18246 2.7398.51619 1.2686-2.72866 3.9434-4.60921 7.038-4.60921 3.3366 0 6.1854 2.18631 7.3094 5.26472.4826-.09743.9809-.14845 1.4906-.14845 4.3201 0 7.8222 3.66503 7.8222 8.18603 0 .1973-.0067.3929-.0198.5867 2.8772 1.2092 4.9087 4.156 4.9087 7.5994 0 3.5815-2.1979 6.6259-5.2592 7.7365.2405.7869.3703 1.6256.3703 2.4961 0 4.521-3.5021 8.186-7.8222 8.186-.6537 0-1.2887-.0839-1.8957-.242-1.3165 2.5796-3.9145 4.335-6.9043 4.335-2.9289 0-5.4818-1.6845-6.8223-4.1784-1.1555.7049-2.4993 1.1087-3.9333 1.1087-4.32006 0-7.82219-3.6651-7.82219-8.1861 0-1.3392.30731-2.6034.85217-3.7194-2.79996-1.2462-4.76328-4.1514-4.76328-7.5364z" clip-rule="evenodd" fill="#F5E0FF" fill-rule="evenodd"/>
	<path d="m16.4984 4.26157c1.7672-2.55778 4.6676-4.26157 7.9905-4.26157 3.6831 0 6.8432 2.08997 8.5226 5.12027.0922-.00266.1847-.004.2774-.004 5.2973 0 9.4883 4.29617 9.8032 9.55043 2.9575 1.774 4.9079 5.0826 4.9079 8.8217 0 3.7667-1.9805 7.0992-4.9771 8.8629.0582.4487.0882.9059.0882 1.3697 0 5.5389-4.3128 10.186-9.8222 10.186-.3024 0-.602-.0142-.8981-.0421-1.7741 2.4867-4.6345 4.1351-7.9019 4.1351-3.0428 0-5.7335-1.4301-7.5216-3.6352-1.0124.3659-2.1011.5655-3.234.5655-5.50934 0-9.82219-4.6471-9.82219-10.1861 0-.9806.13409-1.9315.38529-2.8329-2.61167-1.845-4.2964-4.9476-4.2964-8.4229 0-3.7337 1.94511-7.0389 4.89615-8.8146-.00483-.1311-.00726-.2626-.00726-.3947 0-5.53897 4.31284-10.18608 9.82221-10.18608.6097 0 1.2072.05783 1.7873.16855zm7.9905-.26157c-2.2504 0-4.2551 1.36737-5.2244 3.45236l-.7923 1.70429-1.7502-.68501c-.6253-.24474-1.3016-.37862-2.0109-.37862-3.1308 0-5.82221 2.68288-5.82221 6.18608 0 .4113.03758.8115.1087 1.1973l.29706 1.6112-1.52129.6084c-2.16714.8666-3.77336 3.1021-3.77336 5.7924 0 2.6069 1.50909 4.789 3.57653 5.7092l1.89309.8426-.9091 1.8621c-.41325.8464-.64941 1.8109-.64941 2.8419 0 3.5031 2.69139 6.1861 5.82219 6.1861 1.0521 0 2.0374-.2949 2.8918-.8161l1.8031-1.0998 1 1.8603c1.022 1.9012 2.9294 3.1253 5.0607 3.1253 2.1751 0 4.1184-1.2758 5.1229-3.2442l.7305-1.4313 1.5551.4051c.4441.1157.9097.1774 1.3915.1774 3.1308 0 5.8222-2.6829 5.8222-6.186 0-.6709-.0999-1.3127-.283-1.9116l-.5552-1.8168 1.7859-.6479c2.251-.8166 3.9412-3.0958 3.9412-5.8563 0-2.6525-1.5617-4.8639-3.6836-5.7556l-1.3169-.5535.0964-1.4253c.0101-.1489.0152-.2995.0152-.4517 0-3.5031-2.6914-6.18603-5.8222-6.18603-.3759 0-.7416.03759-1.0948.10889l-1.6849.3402-.5896-1.61465c-.8614-2.35925-3.0062-3.95071-5.4307-3.95071z" clip-rule="evenodd" fill="#fff" fill-rule="evenodd"/>
	<path d="m28.6975 20.6924-4.7319-4.6314c-.0816-.0681-.17-.0817-.2652-.0409-.0951.0272-.1427.0953-.1427.2041l-.1428 4.6518c-.2448.068-.4895.1361-.7343.2041-.2447.068-.4963.1496-.7547.2448-.4895.1632-.9586.3468-1.4073.5509l-2.7739-3.5909c-.068-.0816-.1496-.1088-.2448-.0816-.0816.0136-.1359.0748-.1631.1836l-1.0606 6.5901c-.6119.7753-1.0063 1.6119-1.183 2.5096-.1768.8841-.102 1.8158.2243 2.7952.34.9793.8635 1.7546 1.5706 2.3259.707.5713 1.5365.9657 2.4883 1.1834.9654.2176 2.0192.2652 3.1614.1428s2.3184-.3945 3.5286-.8161c1.2102-.4217 2.298-.9318 3.2634-1.5302.9654-.6121 1.7541-1.299 2.366-2.0607s1.013-1.5915 1.2034-2.4892.1156-1.8362-.2244-2.8156c-.3399-.9793-.8566-1.7546-1.5501-2.3259-.6799-.5713-1.4889-.9726-2.4272-1.2038zm5.9762-.3876c-.3264.2856-.9859.5644-1.9785.8365-.2855.0816-.5235.102-.7139.0612-.2039-.0136-.3535-.1224-.4487-.3265-.0951-.1768-.0815-.374.0408-.5916.1224-.1769.2992-.3469.5303-.5101.2312-.1496.4419-.2789.6323-.3877s.3671-.1972.5303-.2652c.1496-.068.2924-.1156.4283-.1428.136-.0408.2584-.068.3672-.0816.2583-.0136.4351.0204.5303.102.136.0816.2447.204.3263.3672.1632.3537.0816.6665-.2447.9386zm-2.264-3.6522c.068.1497.0816.3333.0408.5509-.0408.136-.1564.3809-.3468.7345-.0951.1496-.2107.3129-.3467.4897-.136.1632-.2923.34-.4691.5305-.1768.2176-.3807.3672-.6119.4488-.204.0816-.4011.068-.5915-.0408-.1904-.1496-.2788-.3128-.2652-.4896.0136-.1089.0272-.2177.0408-.3265.0272-.1224.0748-.2448.1428-.3672.4079-.9114.7819-1.5167 1.1218-1.8159.3263-.2856.6459-.3265.9586-.1224.1632.1088.272.2448.3264.408zm-3.7734-1.5302c.1496.1088.2516.2585.306.4489.0816.204.1224.4828.1224.8365 0 .3673-.0408.8025-.1224 1.3058-.0408.272-.1224.5101-.2448.7141-.1495.1904-.3263.2856-.5303.2856-.2311 0-.3943-.0884-.4895-.2652-.1224-.1632-.2039-.3945-.2447-.6937-.1632-.9793-.1768-1.6866-.0408-2.1219.1359-.4217.3943-.6325.775-.6325.1632 0 .3196.0408.4691.1224z" fill="#897A66"/>
</svg>
