<svg viewBox="0 0 129 96" xmlns="http://www.w3.org/2000/svg">
	<g fill="#d88f5a">
		<path d="m116 63.6331s-7.059-25.3525-15.383-33.2606c-6.3419-6.0282-16.8864-6.471-24.8727-2.7996-2.4433 1.1239-3.1336.7289-4.8459-1.444-12.866-16.36125-29.7657-15.864-41.4879-2.2546-8.4871 9.8562-14.9844 27.246-18.4564 39.7792"/>
		<path d="m120.562 77.3516c-4.291-16.2795-8.013-26.0949-13.651-37.7085l-3.506 2.9222-7.4245-1.7983-5.8814 4.012-7.2282-2.5475-6.1792 3.794-6.9034-3.0652-6.5514 3.8621-6.5515-3.5488-7.0049 3.0584-6.0709-4.2163-7.2282 2.6565-5.7934-4.1891-7.6073 1.7642-2.8425-3.6442c-4.1353 7.8469-5.0016 11.0687-9.1978 24.937-5.35346 17.7371-12.9404 52.3599-12.9404 52.3599h130s0-10.401-7.438-38.6484z"/>
		<path d="m100.508 15.3942c-.6495 2.7178-2.2129 6.9545-5.9421 11.2594 2.2402.8446 4.3045 2.0639 6.0511 3.7191.027.0272.054.0545.081.0817.717-1.9549 2.768-7.8536 3.35-12.8056-.88-1.2874-1.577-2.7519-1.78-4.2572-.542.7697-1.13 1.4304-1.76 2.0026z"/>
	</g>
	<g fill="#82D7AA">
		<path d="m121.469 13.8683c.014-3.2764-3.215-4.80216-5.99-5.19723-3.005-.42912-7.702-.09536-9.441 1.15115 1.428-1.24651 2.91-2.51345 3.445-4.28444-.501-.09536-1.611-.09536-2.119-.01362 2.146-1.04897 3.263-4.11415 3.445-5.51732406-1.001.00681146-2.47.24521406-3.384.74926606-2.917 1.648388-4.297 4.808928-5.285 7.894538-1.794-4.58415-3.8515-6.90687-7.6822-7.90135-2.9305-.7628886-7.235.72883-10.064 1.82548 1.428 2.00259 6.4635 3.71228 9.7662 3.41938-1.1911.29971-2.5177 1.39636-2.7139 2.02302 1.4619.36101 3.8171.90593 5.6174 2.82673-2.3485-.3814-5.2114.0886-7.3703 1.0218-4.2165 1.8255-4.4263 3.8825-5.0422 6.5322 4.6022.0204 7.9524-1.7165 8.9473-2.3908-.6903 1.2737-.379 2.5815-.379 2.5815 2.6124-.3542 5.164-1.2465 7.2827-3.1878.44-1.8322.46-2.9698.46-2.9698.399-1.1102 2.24-2.2546 2.93.2521.366 1.335.359 3.0856.143 4.9724 1.36 1.9889 3.167 3.5556 4.277 4.1822.453-.2929.873-.9945.947-1.8595.413 1.771 3.723 5.5105 4.406 5.4628 2.078-3.3376 1.557-5.4356.4-7.5063-.562-1.0285-2.078-2.5883-4.359-4.1141 3.404 1.2669 4.745 1.5734 6.579 1.5394 0-.6335-.312-1.4509-.521-1.9141.284.0682 5.705.6676 5.705.4224z"/>
		<path d="m103.906 12.676c-.69-2.5066-2.531-1.3623-2.931-.252 0 0-.027 1.1375-.46 2.9698.623-.5721 1.218-1.2329 1.76-2.0026.196 1.5054.893 2.9699 1.78 4.2572.21-1.8936.216-3.6373-.149-4.9724z"/>
		<path d="m93.0228 28.3017c.555-.5517 1.0626-1.1034 1.5431-1.6552-5.9017-2.2273-13.0352-1.7437-18.8218.9196-2.4433 1.1239-3.1336.7288-4.8459-1.444-12.866-16.36128-29.7657-15.864-41.4879-2.2546-3.4382 3.9915-6.5447 9.2091-9.2587 14.8422l2.8426 3.6442 7.6072-1.7642 5.7934 4.1891 7.2283-2.6565 6.0709 4.2163 7.0049-3.0584 6.5514 3.5488 6.5515-3.8621 6.9033 3.0652 6.1657-3.8008 7.2282 2.5543 5.8814-4.012 7.4246 1.7983 3.506-2.9222c-1.909-3.7463-4.02-7.0771-6.22-9.1955-.156.4223-.25.6675-.25.6675l-7.4182-2.82z"/>
		<path d="m94.5661 26.6465c-.4806.5517-.9882 1.1034-1.5432 1.6552l7.4181 2.8131s.094-.2452.25-.6675c-.027-.0272-.054-.0545-.081-.0817-1.7395-1.6552-3.8037-2.8745-6.0439-3.7191z"/>
	</g>
</svg>
