<svg viewBox="0 0 254 128" xmlns="http://www.w3.org/2000/svg">
	<path d="M236.339 13.896C217.639 3.148 173.95 0 127 0 80.031 0 36.342 3.148 17.643 13.896 1.456 23.204-3.11 42.954 1.973 56.12c2.532 6.564 4.2 10.23 6.291 14.203 2.915 5.508 4.009 8.617 2.244 17.657l-.057.288c-1.19 6.123.019 11.804 3.28 17.735 3.643 6.621 10.758 12.725 24.778 15.681 24.415 5.143 66.34 6.353 88.491 6.314 22.152.039 64.077-1.171 88.491-6.314 14.02-2.956 21.135-9.06 24.779-15.681 3.241-5.931 4.469-11.612 3.28-17.735l-.058-.288c-1.764-9.059-.671-12.168 2.244-17.657 2.091-3.973 3.759-7.64 6.291-14.203 5.082-13.167.518-32.917-15.688-42.225z" fill="#FFF9E2"/>
</svg>
