<svg viewBox="0 0 400 400" xmlns="http://www.w3.org/2000/svg">
	<path d="m65.051 199.797c.095.367.378.892.63 1.165 0 0 1.26 1.365 5.185 1.407 2.992.031 7.736-2.519 7.736-2.519a.95.95 0 00.441-.987l-1.89-7.4c-.094-.368-.419-.494-.734-.284 0 0-3.128 2.079-7.6 1.711-3.285-.273-5.52-1.837-5.52-1.837-.316-.22-.483-.094-.4.273l2.152 8.471zm311.936 11.809c.095.367.378.892.63 1.165 0 0 1.26 1.364 5.185 1.406 2.992.032 7.736-2.519 7.736-2.519.326-.178.514-.619.441-.987l-1.889-7.4c-.095-.367-.42-.493-.735-.283 0 0-3.128 2.078-7.6 1.711-3.285-.273-5.521-1.837-5.521-1.837-.315-.22-.483-.094-.399.273l2.152 8.471z" fill="#3CD67B"/>
	<path d="m358.335 371.846c.304.23.85.472 1.207.535 0 0 1.837.315 4.954-2.068 2.383-1.816 4.566-6.728 4.566-6.728.147-.336.032-.808-.262-1.05l-6.025-4.681c-.304-.231-.64-.126-.756.22 0 0-1.196 3.558-4.954 6.015-2.761 1.795-5.49 1.941-5.49 1.941-.378.021-.441.221-.147.462l6.907 5.354z" fill="#E94975"/>
	<path d="M329.753 254.904c.094.367.378.892.63 1.165 0 0 1.259 1.364 5.185 1.406 2.991.032 7.736-2.519 7.736-2.519.325-.178.514-.619.441-.986l-1.89-7.401c-.094-.367-.42-.493-.734-.283 0 0-3.128 2.078-7.6 1.711-3.285-.273-5.521-1.837-5.521-1.837-.315-.22-.483-.094-.399.273l2.152 8.471zM54.03 315.878c-.336-.263-.294-.64.084-.829 0 0 1.113-.578 2.246-3.643 1.134-3.065 1.239-5.3 1.239-5.3a.763.763 0 01.798-.725l8.785.515c.43.021.766.399.777.808 0 0 .042 5.962-2.582 10.528-2.11 3.674-2.876 4.408-2.876 4.408a.904.904 0 01-1.155.053l-7.316-5.815zM358.618 156.215c-.241-.346-.073-.703.347-.766 0 0 1.238-.199 3.274-2.75 2.037-2.551 2.845-4.64 2.845-4.64a.752.752 0 01.987-.43l8.177 3.254a.841.841 0 01.482 1.018s-1.837 5.679-5.762 9.185c-3.16 2.823-4.115 3.285-4.115 3.285a.9.9 0 01-1.113-.304l-5.122-7.852z" fill="#40B6D0"/>
	<path d="m85.96 374.837c-.23-.346-.073-.693.347-.766 0 0 1.239-.2 3.275-2.75 2.036-2.551 2.844-4.64 2.844-4.64a.75.75 0 01.987-.43l8.177 3.254a.84.84 0 01.483 1.018s-1.837 5.679-5.763 9.184c-3.16 2.824-4.115 3.286-4.115 3.286a.89.89 0 01-1.112-.315l-5.122-7.841z" fill="#F3C639"/>
	<path d="m307.448 117.704a.606.606 0 00-.588.703s.588 4.219-.095 7.599c-.671 3.38-1.763 5.962-1.763 5.962-.147.347.01.504.357.357 0 0 2.078-.903 6.466-.577 4.387.325 7.925.766 7.925.766a.615.615 0 00.692-.598s.147-6.571-.01-10.297c-.168-3.716-.105-3.926-.105-3.926.094-.357-.126-.598-.493-.535 0 0-2.929.546-6.424.504-3.936-.032-5.962.042-5.962.042z" fill="#3CD67B"/>
	<path d="M373.376 276.138a.604.604 0 00-.588.693s.588 4.22-.094 7.6c-.672 3.379-1.763 5.962-1.763 5.962-.147.335.01.503.356.356 0 0 2.079-.902 6.466-.577 4.388.326 7.936.766 7.936.766a.615.615 0 00.692-.598s.147-6.581-.01-10.297c-.168-3.716-.105-3.926-.105-3.926.094-.357-.126-.598-.493-.535 0 0-2.929.546-6.424.504-3.947-.032-5.973.052-5.973.052zM84.113 43.525c-.367.031-.577.357-.462.713 0 0 1.029 3.118 2.593 5.637 1.385 2.204 4.167 5.364 4.167 5.364.241.283.756.451 1.123.378 0 0 3.873-.777 6.592-2.037 2.719-1.27 5.972-3.516 5.972-3.516.315-.22.326-.588.032-.819 0 0-3.243-2.56-5.122-5.479-2.026-3.149-2.582-4.44-2.582-4.44a.595.595 0 00-.872-.283s-4.125 2.382-6.298 3.285c-2.193.882-5.143 1.197-5.143 1.197zM282.277 60.214c-.367.032-.577.357-.462.714 0 0 1.029 3.118 2.593 5.637 1.385 2.204 4.167 5.363 4.167 5.363.241.284.756.452 1.123.378 0 0 3.873-.776 6.592-2.036 2.718-1.27 5.972-3.516 5.972-3.516.315-.22.326-.588.032-.82 0 0-3.244-2.56-5.133-5.478-2.026-3.15-2.582-4.44-2.582-4.44a.595.595 0 00-.871-.284s-4.125 2.383-6.298 3.286c-2.173.881-5.133 1.196-5.133 1.196z" fill="#E94975"/>
	<path d="M56.896 88.44c.283-.232.262-.62-.032-.85 0 0-2.634-1.964-5.364-3.108-2.393-1.008-6.497-1.984-6.497-1.984-.367-.094-.871.063-1.134.336 0 0-2.718 2.866-4.22 5.458-1.49 2.603-2.865 6.309-2.865 6.309-.126.357.074.671.452.682 0 0 4.125.22 7.347 1.532 3.464 1.407 4.671 2.142 4.671 2.142a.614.614 0 00.882-.273s2.005-4.325 3.264-6.308c1.26-1.974 3.496-3.937 3.496-3.937zM99.826 243.809c-.052-.368-.398-.546-.745-.41 0 0-3.033 1.26-5.427 3.013-2.088 1.543-5.038 4.555-5.038 4.555-.273.263-.399.788-.294 1.145 0 0 1.06 3.799 2.52 6.423 1.469 2.614 3.946 5.7 3.946 5.7.242.294.609.283.819-.031 0 0 2.31-3.422 5.091-5.522 2.981-2.256 4.24-2.907 4.24-2.907.326-.179.441-.577.221-.892 0 0-2.677-3.937-3.737-6.046-1.071-2.11-1.596-5.028-1.596-5.028zM19.78 156.761c-.084-.357-.441-.514-.777-.346 0 0-2.907 1.522-5.133 3.474-1.952 1.722-4.608 4.986-4.608 4.986-.241.294-.325.819-.199 1.165 0 0 1.396 3.695 3.075 6.172 1.7 2.477 4.44 5.322 4.44 5.322.263.273.63.231.82-.105 0 0 1.994-3.611 4.576-5.952 2.77-2.508 3.967-3.275 3.967-3.275a.602.602 0 00.137-.913s-3.013-3.684-4.262-5.689c-1.249-1.984-2.036-4.839-2.036-4.839zM363.216 76.064c-.084-.357-.441-.504-.777-.346 0 0-2.908 1.522-5.133 3.474-1.952 1.721-4.608 4.986-4.608 4.986-.241.294-.325.819-.199 1.165 0 0 1.396 3.695 3.075 6.172 1.701 2.477 4.44 5.322 4.44 5.322.263.272.63.23.819-.105 0 0 1.994-3.611 4.576-5.952 2.772-2.508 3.968-3.275 3.968-3.275a.61.61 0 00.147-.913s-3.012-3.684-4.261-5.69c-1.26-1.972-2.047-4.838-2.047-4.838zM321.88 314.209c-.084-.357-.44-.514-.776-.346 0 0-2.908 1.511-5.133 3.474-1.953 1.722-4.608 4.986-4.608 4.986-.242.294-.326.819-.2 1.165 0 0 1.396 3.695 3.076 6.172 1.7 2.477 4.44 5.322 4.44 5.322.273.273.63.231.819-.105 0 0 1.994-3.611 4.576-5.952 2.771-2.508 3.968-3.264 3.968-3.264.315-.21.388-.619.136-.913 0 0-3.012-3.685-4.261-5.689-1.249-1.995-2.037-4.85-2.037-4.85zM353.685 37.206a.755.755 0 00.955.314s1.711-.766 3.947-2.508c1.963-1.533 5.899-5.353 5.899-5.353.262-.263.336-.746.136-1.06 0 0-1.553-2.52-2.939-5.154-1.396-2.624-4.219-6.246-4.219-6.246-.231-.283-.578-.283-.788.042 0 0-2.151 3.39-4.765 5.49-2.792 2.236-3.947 2.876-3.947 2.876a.648.648 0 00-.231.913s2.53 3.936 3.548 6.046c1.008 2.1 2.404 4.64 2.404 4.64z" fill="#F3C639"/>
	<path d="m25.616 251.797a.753.753 0 00.483.881s1.784.588 4.608.83c2.487.21 7.967.052 7.967.052.377-.021.745-.325.808-.693 0 0 .567-2.897 1.322-5.783.756-2.876 1.123-7.453 1.123-7.453.022-.367-.23-.598-.608-.493 0 0-3.884 1.039-7.222.808-3.569-.241-4.85-.556-4.85-.556a.64.64 0 00-.787.514s-.797 4.608-1.48 6.844c-.671 2.236-1.364 5.049-1.364 5.049z" fill="#E94975"/>
	<path d="m23.296 355.796c-.189.347-.052.777.294.924 0 0 1.638.724 5.836 1.312 4.199.588 9.416.262 9.416.262.377-.021.745-.367.808-.766 0 0 .22-1.343-.525-3.999-.735-2.656-1.312-3.306-1.312-3.306-.252-.284-.766-.41-1.134-.284 0 0-1.08.357-4.566.609-3.495.241-6.529-1.218-6.529-1.218-.325-.168-.598.021-.577.41 0 0 .063 1.648-.609 3.432-.692 1.805-1.102 2.624-1.102 2.624z" fill="#3CD67B"/>
	<path d="m305.212 196.763a.666.666 0 00.892.368s1.638-.767 4.881-3.527c3.254-2.761 6.476-6.854 6.476-6.854.242-.294.221-.777-.031-1.081 0 0-.871-1.008-3.37-2.11-2.498-1.113-3.358-1.092-3.358-1.092-.378.011-.819.315-.977.661 0 0-.451 1.029-2.592 3.79-2.142 2.76-5.269 4.104-5.269 4.104-.347.136-.389.462-.074.682 0 0 1.291.987 2.183 2.603.892 1.638 1.239 2.456 1.239 2.456z" fill="#E94975"/>
	<path d="m81.048 113.998s.525 5.249.997 7.054c.473 1.805 1.144 4.661 1.806 5.238.671.567 3.421 2.099 4.765 2.76 1.344.672 2.855 1.617 3.233 1.239.388-.388-1.616-3.338-2.288-5.427-.672-2.109-.767-3.159-1.155-4.009-.378-.861-1.249-1.176-3.107-2.74-1.71-1.427-3.957-4.818-4.25-4.115z" fill="#40B6D0"/>
</svg>
