<svg viewBox="0 0 164 40" xmlns="http://www.w3.org/2000/svg">
	<path d="m55.717 11.172h-4.504a.326.326 0 00-.325.326v11.182l-7.542-11.36a.328.328 0 00-.27-.147h-5.008a.326.326 0 00-.325.326v15.95c0 .18.146.326.325.326h4.504a.326.326 0 00.326-.325v-11.832l7.896 12.01a.33.33 0 00.273.146h4.653a.326.326 0 00.326-.325v-15.951a.331.331 0 00-.329-.326zm69.019 6.224h-4.505a.327.327 0 00-.325.326v9.726c0 .18.147.326.325.326h4.505a.327.327 0 00.325-.326v-9.726a.327.327 0 00-.325-.326zm0-6.224h-4.505a.327.327 0 00-.325.326v3.242c0 .179.147.325.325.325h4.505a.327.327 0 00.325-.325v-3.242a.327.327 0 00-.325-.326zm-29.146 10.868 6.576-4.828c.254-.186.12-.586-.192-.586h-4.328a.337.337 0 00-.192.062l-3.376 2.481v-7.668a.326.326 0 00-.325-.325h-4.503a.326.326 0 00-.325.325v15.951c0 .18.146.325.325.325h4.504a.326.326 0 00.325-.325v-2.367l3.376 2.624a.319.319 0 00.198.068h4.368c.309 0 .442-.39.198-.582l-6.627-5.154zm60.078 5.155-6.631-5.154 6.579-4.833c.254-.185.12-.585-.192-.585h-4.332a.334.334 0 00-.191.062l-3.376 2.48v-7.667a.326.326 0 00-.325-.326h-4.508a.327.327 0 00-.325.326v15.954c0 .179.147.325.325.325h4.508a.326.326 0 00.325-.325v-2.367l3.376 2.624a.31.31 0 00.198.068h4.371c.309-.003.442-.393.198-.582zm-20.153-9.799a5.072 5.072 0 00-3.362 1.262v-.933a.327.327 0 00-.326-.325h-4.13a.326.326 0 00-.325.325v9.723c0 .18.146.326.325.326h4.13a.327.327 0 00.326-.326v-7.144c.11-.686.878-1.22 1.791-1.22.914 0 1.682.534 1.792 1.22v7.145c0 .178.147.325.326.325h4.13a.327.327 0 00.325-.326v-5.88c.003-2.38-2.482-4.172-5.002-4.172zm-50.51.843c-.96-.579-2.432-1.05-4.566-1.05-2.133 0-3.606.471-4.566 1.05-1.574.95-2.604 2.54-2.604 4.345s1.03 3.398 2.604 4.344c.96.58 2.433 1.05 4.566 1.05 2.134 0 3.607-.47 4.566-1.05 1.574-.95 2.605-2.54 2.605-4.344 0-1.802-1.034-3.395-2.605-4.345zm-2.774 6.881c0 .612-.803 1.415-1.792 1.415-.988 0-1.792-.8-1.792-1.415v-5.067c0-.61.804-1.414 1.792-1.414.989 0 1.792.8 1.792 1.415v5.066zm-12.979-6.881c-.96-.579-2.432-1.05-4.566-1.05-2.133 0-3.606.471-4.566 1.05-1.573.95-2.604 2.54-2.604 4.345s1.03 3.398 2.605 4.344c.959.58 2.432 1.05 4.565 1.05 2.134 0 3.607-.47 4.566-1.05 1.574-.95 2.605-2.54 2.605-4.344 0-1.802-1.03-3.395-2.605-4.345zm-2.774 6.881c0 .612-.803 1.415-1.792 1.415-.988 0-1.792-.8-1.792-1.415v-5.067c0-.61.804-1.414 1.792-1.414.989 0 1.792.8 1.792 1.415v5.066zm51.086.404h-7.466v-14.024a.327.327 0 00-.326-.325h-4.501a.327.327 0 00-.325.325v15.948c0 .179.147.325.325.325h12.296a.327.327 0 00.326-.325v-1.6a.327.327 0 00-.329-.325z" fill="#42332C"/>
	<path d="M16.748 5C8.605 5 2 11.605 2 19.751 2 27.898 8.605 34.5 16.748 34.5c8.143 0 14.748-6.605 14.748-14.748C31.496 11.608 24.894 5 16.748 5z" fill="#33A142"/>
	<path d="m26.572 21.715c-.221 1.874-1.096 3.766-2.702 4.723-.088.052-.605.315-.693.36-.065.033-.133-.032-.104-.097.039-.088.335-.329.432-.553.505-1.177.147-2.55-.689-3.31-.96-.879-2.56-.983-3.704-.368-1.145.618-1.88 1.948-1.626 3.424.244 1.422 1.382 2.244 3.122 2.228.039 0 .058.052.023.075-1.064.719-4.654.826-6.98.55-2.224-.267-4.38-.924-6.503-1.627-.173-.058-.436-.166-.436-.331 0-.095.127-.26.169-.345a16.337 16.337 0 001.551-4.192c.508-2.306.543-4.8 1.786-6.81 1.99-3.222 6.403-4.156 9.554-2.305.56.328 1.04.965 1.486 1.473a.114.114 0 00.189-.03 17.006 17.006 0 001.363-4.995 5.203 5.203 0 012.526 1.513 20.27 20.27 0 00-3.076 4.175.134.134 0 00.104.199c1.346.165 2.579 1.001 3.327 2.14.777 1.193 1.05 2.682.881 4.104z" fill="#F5F7E1"/>
</svg>
