<svg viewBox="0 0 48 73" xmlns="http://www.w3.org/2000/svg">
	<path d="m38.095 66.175c.306 1.894-1.03 4.859-15.15 4.859s-15.49-2.777-15.15-4.859c.339-2.082 5.948-2.944 15.15-2.944s14.843 1.05 15.15 2.944z" fill="#42B0CF"/>
	<path d="m36.374 70.56c.157.947-.515 2.426-7.572 2.426-7.056 0-7.741-1.388-7.572-2.426.17-1.038 2.974-1.472 7.572-1.472s7.415.525 7.572 1.472z" fill="#42B0CF"/>
	<path d="m44.525 62.387c.437 1.836-1.455 4.385-21.326 4.385-19.872 0-21.802-2.368-21.326-4.385s8.373-2.692 21.326-2.692c12.952 0 20.895.856 21.326 2.692z" fill="#9AD8E0"/>
	<g fill="#EBB172">
		<path d="m34.835 41.663c-7.304-6.61-20.367-6.246-25.356 1.959-5.107 8.407-.627 17.488 1.193 20.925h25.48c1.324-4.008 5.844-16.404-1.317-22.884z"/>
		<path d="m34.835 41.663c-7.304-6.61-20.367-6.246-25.356 1.959-5.107 8.407-.627 17.488 1.193 20.925h25.48c1.324-4.008 5.844-16.404-1.317-22.884z"/>
		<path d="m34.835 41.663c-7.304-6.61-20.367-6.246-25.356 1.959-5.107 8.407-.627 17.488 1.193 20.925h25.48c1.324-4.008 5.844-16.404-1.317-22.884z"/>
	</g>
	<path d="m17.414 40.97c1.39.11 2.785.226 4.154.453 1.82.299 3.516.921 5.296 1.33 2.14-9.561-.593-18.61-2.693-24.435l-3.144.934c2.146 4.029 2.387 14.232-3.613 21.717z" clip-rule="evenodd" fill="#EBAB4D" fill-rule="evenodd"/>
	<path d="m26.655 26.77c-1.591.85-3.28 1.342-4.324 1.29a24.903 24.903 0 01-.684 4.23h.932c.502-1.48.757-2.005.757-2.005s.397.435 1.121 1.687c1.122-.214 2.01-.448 2.922-.85a46.264 46.264 0 00-.724-4.352z" fill="#F1CA6E"/>
	<path d="M25.084 37.238c-.483-.065-.965-.11-1.442-.143-.039 0-.078-.006-.117-.006a19.429 19.429 0 00-2.883.052c-.026 0-.045.006-.071.006a16.033 16.033 0 00-1.526.227c-.45.085-.9.182-1.344.305h-.006c-.437.117-.868.26-1.285.415-.046.02-.091.033-.137.052-.404.156-.809.325-1.194.513-.058.026-.117.058-.176.09a13.41 13.41 0 00-1.16.636L7.278 49.81c-.052.396-.09.791-.117 1.187l5.394 13.557h15.763l-3.235-27.315z" fill="#E69C65"/>
	<path d="m32.167 53.728-12.672-15.406-9.392 6.162 5.283 20.063h16.624l.157-10.82z" fill="#EBB172"/>
	<path d="M34.834 41.662c-.41-.37-.834-.713-1.278-1.038-.013-.006-.026-.02-.039-.026-.45-.324-.913-.629-1.39-.914l-1.662 24.869h5.687c1.324-4.015 5.843-16.411-1.318-22.891zM22.58 47.058l2.25 11.67 5.159-14.375-7.409 2.705z" fill="#E69C65"/>
	<path d="m29.265 35.215c-.17-.065-2.074 1.057-3.19 2.14-.697-1.076-1.838-2.789-2.001-2.789s-1.585 1.324-2.283 2.407c-.907-1.064-2.328-2.348-2.498-2.244-.215.136-.867 3.476-.867 3.476h7.865l3.183.649c.006 0-.046-3.574-.21-3.639z" fill="#3DAB3D"/>
	<path d="m25.939 16.657c.515-2.562 1.715-4.793 3.971-6.96.13-.123-2.615-.999-5.374 1.972 4.33-7.194 4.455-10.495 4.396-10.65-.059-.163-4.448.492-7.937 4.5-2.472 2.835-2.276 6.37.033 11.923-5.31-9.963-16.63-7.544-20.029-2.257-.11.168 6.783 1.64 12.079 2.043-5.224.46-5.485 5.144-5.316 5.072.796-.317 4.135-1.589 9.94-1.303-8.674.473-11.198 7.939-9.353 10.858.587-.46 4.024-3.613 7.774-5.747-1.624 2.225-.86 5.241-.652 5.19.15-.04 6.098-5.69 8.505-6.993.202-.11.39-.091.613 0 1.897.778 8.882 6.02 9.117 6.071.209.045.678-3.1-1.141-4.845 4.74 2.075 8.106 5.526 8.132 5.422 1.324-5.182-2.426-10.631-10.715-10.553 5.243-.94 9.372.68 9.456.59.092-.097-.41-3.334-4.03-4.19 5.876-.675 10.572-.175 10.435-.357-6.94-8.997-17.126-4.826-19.905.214z" fill="#5BC246"/>
	<path d="m7.182 53.76 3.418-1.666 3.222 2.043 4.637-2.14 4.571 2.042 4.096-2.043 4.754 2.14 4.468-2.146 2.374 1.57c.313-4.269-.424-8.77-3.874-11.897-1.826-1.654-4.011-2.867-6.34-3.639a20.064 20.064 0 00-2.667-.674c-.9-.162-1.813-.26-2.726-.292-.3-.013-.606-.013-.906-.013a19.424 19.424 0 00-2.687.227c-1.761.285-3.457.83-4.99 1.641a13.774 13.774 0 00-2.817 1.985c-.424.39-.822.81-1.193 1.265-.372.454-.718.934-1.024 1.446-.19.312-.359.63-.529.947-1.637 3.12-2.028 6.292-1.787 9.205z" fill="#3DAB3D"/>
	<path d="m21.203 42.207 3.887-3.094 1.291 4.54-5.178-1.446z" fill="#94AD45"/>
	<path d="m19.75 49.012.176-3.172 3.411 1.206-3.587 1.966z" fill="#56B74B"/>
	<path d="m27.191 47.422 2.166-4.852 3.424 4.852h-5.59z" fill="#66B64A"/>
	<path d="m42.51 63.562c-1.5-.824-2.876-2.134-4.754-2.134-2.74 0-4.396 2.795-6.953 2.795-2.556 0-4.213-1.984-6.952-1.984s-4.395 1.984-6.952 1.984c-2.556 0-4.213-2.795-6.952-2.795-1.865 0-3.228 1.29-4.709 2.114.222.331.444 1.155.652 1.492h35.264c.436-.344.893-1.148 1.356-1.472z" fill="#9AD8E0"/>
	<path d="m35.689 11.17c-4.324.123-8.198 2.666-9.75 5.488.515-2.562 1.715-4.794 3.972-6.96.13-.123-2.616-1-5.374 1.972a58.768 58.768 0 001.421-2.498 45.603 45.603 0 00-2.132-.045c-1.63 0-3.137.084-4.54.233-.254 2.16.366 4.761 1.748 8.083-2.106-3.95-5.152-5.942-8.282-6.597-3.196 1.265-5.198 3.178-5.98 5.585 2.015.337 4.278.648 6.313.798-5.224.46-5.485 5.143-5.316 5.072.796-.318 4.135-1.59 9.94-1.304-4.044.22-6.75 1.966-8.303 4.054 1.2.967 2.752 1.752 4.657 2.348a33.13 33.13 0 012.06-1.284 5.119 5.119 0 00-.782 1.641c1.057.26 2.198.46 3.437.61 1.826-1.602 3.972-3.393 5.198-4.06.202-.11.391-.091.613 0 1.063.434 3.73 2.276 5.909 3.82a23.799 23.799 0 003.163-.753c-.203-.661-.542-1.316-1.096-1.842.913.396 1.767.85 2.563 1.317 1.748-.72 3.13-1.641 4.128-2.737-1.76-2.219-4.871-3.743-9.287-3.704 5.244-.94 9.372.681 9.457.59.091-.097-.411-3.334-4.03-4.19 2.021-.234 3.9-.324 5.497-.35-.717-2.219-2.445-4.028-5.204-5.287z" fill="#21B553"/>
	<path d="m10.104 61.427c-1.03-.117-1.246-.636-1.402-1.038-.15-.389-.802-.02-.561.325.378.55.92.94 1.572 1.102.404.104.834-.337.39-.389zm27.144-.286c-.097.331-.658.422-.893.539 0 0-.313.421.104.402.691-.04 1.305-.733 1.618-1.297.071-.13.039-.318-.04-.487-.17-.02-.345-.039-.521-.052-.085.279-.202.675-.268.895z" fill="#9AD8E0"/>
</svg>
