<svg viewBox="0 0 64 64" xmlns="http://www.w3.org/2000/svg">
	<g fill="#66C59B">
		<path d="m26.01 42.1c.96 0 1.59.99 1.19 1.86-.66 1.45-1.78 3.32-3.16 4.16-2.01 1.22-12.49 1.32-14.63 0-1.46-.9-2.68-2.69-3.43-4.1-.46-.88.17-1.93 1.16-1.93h18.87v.01zm32.23 0c.96 0 1.59.99 1.19 1.86-.66 1.45-1.78 3.32-3.16 4.16-2.01 1.22-12.49 1.32-14.63 0-1.46-.9-2.68-2.69-3.43-4.1-.46-.88.17-1.93 1.16-1.93h18.87v.01zm-25.66-11.32c7.54 0 9.69-2.22 12.31-5.12 1.86-2.07 3.61-4.01 11.28-4.01 1.31 0 2.37-1.34 2.37-2.98 0-1.65-1.06-2.98-2.37-2.98-8.76 0-11.61 2.39-14.42 5.51-1.76 1.95-2.83 3.63-9.17 3.63s-7.41-1.68-9.17-3.63c-2.81-3.12-5.66-5.51-14.42-5.51-1.31 0-2.37 1.33-2.37 2.98s1.06 2.98 2.37 2.98c7.66 0 9.42 1.95 11.28 4.01 2.62 2.9 4.77 5.12 12.31 5.12z"/>
		<path d="M17.09 32.7c-.83 0-1.5-.67-1.5-1.5V19.33c0-.83.67-1.5 1.5-1.5s1.5.67 1.5 1.5V31.2c0 .83-.67 1.5-1.5 1.5zM49.16 32.7c-.83 0-1.5-.67-1.5-1.5V19.22c0-.83.67-1.5 1.5-1.5s1.5.67 1.5 1.5V31.2c0 .83-.68 1.5-1.5 1.5z"/>
		<path d="m25.75 44.57c-.48 0-.94-.23-1.24-.65l-7.36-10.64-8.44 10.52c-.52.65-1.46.75-2.11.23s-.75-1.46-.23-2.11l10.96-13.66 9.64 13.96c.47.68.3 1.62-.38 2.09-.25.17-.55.26-.84.26zm32.16.2c-.48 0-.95-.23-1.24-.65l-7.46-10.82-8.22 10.49c-.51.65-1.45.77-2.11.26s-.77-1.45-.26-2.11l10.74-13.7 9.78 14.19c.47.68.3 1.62-.38 2.09-.26.17-.55.25-.85.25z"/>
	</g>
</svg>
