<svg viewBox="0 0 176 40" xmlns="http://www.w3.org/2000/svg">
	<path d="M16.748 5C8.605 5 2 11.605 2 19.751 2 27.898 8.605 34.5 16.748 34.5c8.143 0 14.748-6.605 14.748-14.748C31.499 11.605 24.894 5 16.748 5z" fill="#33A142"/>
	<path d="m26.572 21.712c-.221 1.873-1.096 3.766-2.702 4.722-.088.052-.605.316-.693.361-.065.033-.133-.033-.104-.098.039-.087.335-.328.432-.552.505-1.178.147-2.55-.689-3.31-.96-.879-2.56-.983-3.704-.368-1.145.617-1.88 1.948-1.626 3.424.244 1.421 1.382 2.244 3.122 2.228.039 0 .058.052.023.074-1.064.72-4.654.826-6.98.55-2.224-.267-4.38-.924-6.503-1.626-.173-.059-.436-.166-.436-.332 0-.094.127-.26.169-.344a16.337 16.337 0 001.551-4.192c.508-2.306.543-4.8 1.786-6.81 1.99-3.223 6.403-4.156 9.554-2.306.56.329 1.04.966 1.486 1.473a.114.114 0 00.189-.029 17.006 17.006 0 001.363-4.995 5.203 5.203 0 012.526 1.512 20.271 20.271 0 00-3.076 4.176.134.134 0 00.104.198c1.346.166 2.579 1.002 3.327 2.14.777 1.197 1.05 2.686.881 4.104z" fill="#F5F7E1"/>
	<g fill="#42332C">
		<path d="m101.756 24.46c.062 1.551-.136 2.276-.9 2.384-.791.11-1.363-.267-1.695-.804.55-.887 1.116-1.68 1.301-3.144a.328.328 0 00-.322-.371h-.83a.327.327 0 00-.318.263c-.175.797-.5 1.337-1.001 1.939a2.876 2.876 0 01-.495-.83c-.218-.553-.367-.904-.527-1.662h5.22a.326.326 0 00.325-.325v-1.788a.326.326 0 00-.325-.325h-1.808c-.046-.423-.137-.667-.306-.901a.32.32 0 00-.358-.117l-.666.208c-.192.058-.283.28-.192.458a.76.76 0 01.081.355h-2.195a28.117 28.117 0 01-.143-2.735v-7.19a.326.326 0 00-.325-.326h-1.057a.326.326 0 00-.325.326v7.19c.042.871.006 1.688.094 2.735h-4.761a.326.326 0 00-.325.325v1.789c0 .178.146.325.325.325h.78c-.087 1.512-.078 2.803-.676 3.411-.491.5-.745.716-1.102.83a.336.336 0 00-.235.331c.046.849.078 1.558.134 2.527a.33.33 0 00.471.28c1.701-.82 2.908-2.218 2.908-4.296 0-1.07.022-1.932.022-3.08h2.836c.277 1.785.745 2.858 1.194 3.717l.022.023c-.377.218-.8.4-1.265.543v-2.107c0-.15-.104-.28-.25-.316-.732-.175-.956-.618-1.1-1.317a.324.324 0 00-.318-.257h-.484a.324.324 0 00-.326.342c.134 2.27.797 3.567 2.127 3.759-.367.094-.767.176-1.203.24a.327.327 0 00-.28.345l.15 2.108a.327.327 0 00.397.296c1.476-.355 2.709-.98 3.704-1.88.296.38.624.849 1.183 1.327.472.4.97.875 1.822.875h.582c.705 0 1.421-.657 1.45-2.332s-.592-3.018-1.015-3.148z"/>
		<path d="m97.037 16.87v1.795c0 .215.202.367.407.316 1.544-.404 2.92-.745 3.684-1.005.205.62.507 1.03.885 1.271.211.137.491-.03.491-.283v-1.896a.315.315 0 00-.147-.27c-.426-.26-.595-.936-.621-2.035a.324.324 0 00-.325-.316h-.605a12.91 12.91 0 00.921-2.374.327.327 0 00-.316-.413h-.634a.324.324 0 00-.312.238c-.143.49-.228.88-.433 1.346-.468.058-.79.088-1.317.088.654-.752 1.083-1.548 1.48-2.576a.328.328 0 00-.303-.446h-.777a.328.328 0 00-.309.225c-.374 1.109-.852 1.756-1.564 2.185a.33.33 0 00-.166.283v1.912c0 .196.17.345.361.322.592-.068 1.233-.156 1.688-.263-.605.989-1.174 1.411-1.85 1.584a.321.321 0 00-.238.312zm3.568-2.033c.013.713.071 1.044.139 1.597-.387.088-.621.12-1.226.221l-.234.033c.605-.608.891-1.005 1.321-1.85zm-16.94 6.103c0 1.055-.205 2.108-.846 2.316-.143.046-.247.166-.247.316v3.772c0 .244.26.403.478.29.475-.25.92-.625 1.288-1.269.488-.855.696-2.136.696-3.31v-6.602a.326.326 0 00-.325-.325h-.719a.326.326 0 00-.325.325v4.488z"/>
		<path d="M89.245 12.97h-1.892v-2.943a.326.326 0 00-.326-.325h-1.265a.326.326 0 00-.325.325v2.943h-2.143a.326.326 0 00-.325.326v1.788c0 .18.146.325.325.325h2.143v13.922c0 .18.146.326.325.326h1.265a.326.326 0 00.326-.326V15.41h1.892a.326.326 0 00.325-.326v-1.788a.324.324 0 00-.325-.326zM91.74 15.276c-.605.937-1.258 1.33-1.964 1.49a.324.324 0 00-.25.315v1.938c0 .212.198.368.406.316 1.45-.365 2.858-.7 3.603-.879.15.453.342.748.579.94.208.17.52.004.52-.263v-1.909c0-.085-.029-.17-.094-.228-.234-.204-.296-.728-.306-1.596a.328.328 0 00-.325-.322h-.637c.462-.807.839-1.724 1.131-2.745a.327.327 0 00-.315-.413h-.566a.327.327 0 00-.309.218c-.153.436-.244.722-.423 1.148-.413.042-.608.065-1.024.065.706-.794 1.184-1.57 1.6-2.64a.327.327 0 00-.306-.446h-.865c-.14 0-.26.09-.309.22-.422 1.171-1.011 1.858-1.765 2.303a.33.33 0 00-.166.283v2.114c0 .198.172.351.367.322.488-.062 1.064-.14 1.418-.231zm1.366.088c.013.611.058.754.114 1.275-.394.074-1.35.27-1.35.27.54-.524.823-.878 1.236-1.545z"/>
		<path d="M89.984 22.7a.32.32 0 00-.205-.299c-.585-.228-.65-.816-.65-1.772v-4.205a.326.326 0 00-.326-.325h-.715a.326.326 0 00-.325.325v5.71c.107 1.965.526 3.122 1.47 3.58.133.046.25.085.367.105a.328.328 0 00.384-.322V22.7zM107.564 11.29h10.241c.179 0 .325.142.325.321-.01 1.327.078 6.423 1.792 9.502 1.33 2.39 3.021 3.392 4.946 4.14.212.082.27.348.121.517-.855.97-1.603 2.514-2.117 3.747a.323.323 0 01-.524.107c-1.756-1.74-3.486-3.964-4.543-6.488-1.125-2.686-1.828-5.584-1.828-8.429h-2.162v.263c0 4.947-.956 7.096-1.925 9.012-1.594 3.154-3.6 4.79-4.758 5.688a.323.323 0 01-.501-.14c-.449-1.178-1.07-2.722-1.697-3.568a.324.324 0 01.143-.488c.666-.263 1.463-.543 2.331-1.027 1.07-.595 1.704-1.083 2.472-2.29 1.249-1.974 1.564-4.133 1.61-6.471v-.982h-3.926a.327.327 0 01-.325-.325v-2.771c0-.173.147-.319.325-.319zM152.774 24.798v1.798a.33.33 0 01-.159.28c-.771.455-1.36.719-2.768 1.164-1.596.504-3.31.774-4.673.92a.322.322 0 01-.358-.321v-2.813c0-.18.143-.322.322-.326 1.464-.01 2.973-.068 4.511-.296 1.301-.191 1.977-.396 2.663-.702a.33.33 0 01.462.296zm-4.488-15.011h1.607c.179 0 .325.146.325.325V12.6h2.462c.179 0 .325.146.325.325v2.237a.326.326 0 01-.325.325h-7.272a.326.326 0 01-.325-.325v-2.237c0-.179.146-.325.325-.325h2.553v-2.488c0-.182.143-.325.325-.325zm-2.257 6.12h.908c.179 0 .322.146.325.325.006.654.036 1.242.084 1.766.072.842.196 1.61.501 2.244.104.218.251.384.423.514.094.071.14.188.124.305-.143.92-.267 2.18-.368 3.223-.026.277-.358.39-.556.199-.406-.397-.754-.924-1.047-1.58-.364-.931-.582-2.163-.654-3.705a81.822 81.822 0 01-.065-2.963c0-.182.147-.328.325-.328zm5.757.023c.178 0 .328.146.325.325-.004.982-.026 1.97-.065 2.963-.088 1.525-.306 2.75-.654 3.68-.296.658-.654 1.181-1.073 1.575a.327.327 0 01-.553-.202c-.101-1.05-.224-2.322-.371-3.245a.318.318 0 01.111-.296 1.48 1.48 0 00.393-.51 5.4 5.4 0 00.501-2.222c.049-.478.078-1.06.085-1.746a.328.328 0 01.325-.325h.976v.003zM45.226 10.28l-1.194-.237a.328.328 0 00-.383.264 5.368 5.368 0 01-.872 2.032c-.566-.822-1.258-1.496-2.179-2.156a.33.33 0 00-.416.03l-.875.839-.344.318c-.16.147-.137.4.045.514.507.312 1.415.953 1.961 1.808-.735.39-1.564.768-2.514 1.057a.325.325 0 00-.192.472c.355.614.605 1.268.745 2.048a.32.32 0 00.436.238c1.16-.472 2.13-1.08 2.862-1.717.218.592.302 1.392.328 2.208-.881 1.323-2.442 2.227-4.484 2.884a.322.322 0 00-.182.475c.393.634.663 1.252.81 2.082a.321.321 0 00.406.253c1.564-.475 2.787-1.206 3.499-2.445 0 .78-.003 1.964-.003 3.248 0 1.503-2.013 1.636-2.238 1.64h-1.001c-.248 0-.417.27-.29.48.17.287.293.66.293 1.22 0 .53-.13.97-.286 1.298-.101.218.052.468.296.465 1.03-.016 2.435-.081 2.978-.31 1.292-.539 1.773-1.235 2.05-1.895.191-.459.26-.979.26-1.548.058-2.12.087-4.598.087-7.428-.071-1.538-.335-2.777-.874-3.996.988-1.064 1.216-2.355 1.518-3.747a.319.319 0 00-.247-.393zM52.624 26.918V25.63h4.186a.326.326 0 00.325-.325v-1.73a.326.326 0 00-.325-.325h-4.186v-1.877h2.228v.202c0 .179.147.325.325.325h1.613a.326.326 0 00.326-.325V10.869a.326.326 0 00-.326-.325H46.413a.326.326 0 00-.325.325l-.003 10.706c0 .179.146.325.325.325h1.613a.326.326 0 00.325-.325v-.202h2.14v1.877H46.61a.326.326 0 00-.325.325v1.73c0 .179.147.325.325.325h3.877v1.288h-5.031a.326.326 0 00-.325.325v1.717c0 .18.146.325.325.325H57.62a.326.326 0 00.325-.325v-1.717a.326.326 0 00-.325-.325h-4.995zm0-13.7h2.231v1.86h-2.23v-1.86zm0 3.71h2.231v1.805h-2.23v-1.805zm-2.143 1.805h-2.14v-1.805h2.14v1.805zm0-3.652h-2.14v-1.86h2.14v1.86zM68.007 12.596h-2.296v-2.29a.326.326 0 00-.325-.325h-1.607a.326.326 0 00-.325.326v2.29h-2.553a.326.326 0 00-.325.324v2.238c0 .178.146.325.325.325h7.106a.326.326 0 00.325-.325V12.92a.328.328 0 00-.325-.325zM65.097 20.22c-.101.214-.248.386-.394.51a.323.323 0 00-.11.296c.146.923.27 2.195.37 3.245.026.273.351.387.553.202.42-.394.777-.917 1.073-1.574.348-.93.566-2.156.654-3.681.039-.996.062-1.981.065-2.963a.326.326 0 00-.325-.325h-.973a.328.328 0 00-.325.325A19.33 19.33 0 0165.601 18a5.434 5.434 0 01-.504 2.218zM80.202 19.045V17.3a.326.326 0 00-.325-.325H68.589a.326.326 0 00-.325.325v1.746c0 .179.146.325.325.325h4.162l-.26 1.314h-3.398a.326.326 0 00-.325.325v8.257c0 .18.146.326.325.326h1.597a.326.326 0 00.325-.326v-6.081h.933v5.883c0 .179.147.325.325.325h1.015a.326.326 0 00.325-.325v-5.883h.846v5.883c0 .179.146.325.325.325h1.015a.326.326 0 00.325-.325v-5.883h1.343V27.5c-.114.098-.293.147-.465.17a.329.329 0 00-.286.321v1.467c0 .14.09.267.224.31.27.087.722.223.97.25.549.055 1.079 0 1.648-.313a.324.324 0 00.166-.286v-8.413a.326.326 0 00-.325-.325h-5.207l.26-1.314h5.425a.32.32 0 00.325-.322zM63.112 17.998a21.437 21.437 0 01-.084-1.766.328.328 0 00-.326-.325h-.907a.324.324 0 00-.325.325c.003.982.026 1.97.065 2.963.071 1.538.29 2.773.654 3.704.292.66.643 1.187 1.05 1.583.198.192.53.075.556-.198.1-1.044.221-2.302.367-3.223a.312.312 0 00-.123-.305 1.41 1.41 0 01-.423-.514c-.309-.634-.432-1.402-.504-2.244zM64.843 25.1c-1.441.176-2.846.27-4.212.283a.32.32 0 00-.319.322v2.924c0 .192.166.345.358.322 1.301-.14 3.06-.387 4.547-.894 1.261-.433 2.162-.856 2.913-1.314a.318.318 0 00.153-.277v-1.668a.322.322 0 00-.42-.309c-.877.283-1.96.488-3.02.611zM69.178 16.502h1.6a.326.326 0 00.325-.325v-.202h5.993v.199c0 .178.147.325.326.325h1.6a.326.326 0 00.325-.325v-5.32a.326.326 0 00-.325-.326h-1.604a.326.326 0 00-.325.325v2.508h-1.909v-3.337a.326.326 0 00-.325-.325h-1.603a.326.326 0 00-.325.325v3.337h-1.825v-2.508a.326.326 0 00-.325-.325h-1.603a.326.326 0 00-.325.325v5.32c0 .183.146.329.325.329zM142.436 11.335h-14.95a.326.326 0 00-.325.325v17.174c0 .178.146.325.325.325h1.604a.327.327 0 00.325-.325v-.202h11.092v.202c0 .178.147.325.326.325h1.603a.326.326 0 00.325-.325V11.66a.322.322 0 00-.325-.325zm-1.929 13.759h-11.086V14.873h11.086v10.22zM163.692 15.894v-2.459a.327.327 0 00-.326-.325h-4.686V9.787a.326.326 0 00-.325-.326h-1.61a.326.326 0 00-.325.326v9.434h-2.55a.327.327 0 00-.325.325l-.003 10.068c0 .18.146.325.325.325h1.278a.326.326 0 00.325-.325v-.201h5.464v.201c0 .18.146.325.325.325h1.278a.326.326 0 00.325-.325V19.546a.326.326 0 00-.325-.325h-3.857v-3.002h4.686a.327.327 0 00.326-.325zm-2.758 6.406v4.062h-5.464v-4.061h5.464z"/>
	</g>
</svg>
