<svg viewBox="0 0 104 26" xmlns="http://www.w3.org/2000/svg">
	<path d="M19.274 15.395l-5.198-8.538h-3.754V19.1h3.736V10.56l5.228 8.539h3.724V6.857h-3.73l-.006 8.538zm29.59-4.418v-1.21H46.9V8.123h-3.632l.006 1.65H41.3v1.21h1.97v8.123H46.9v-8.123h1.963v-.006zM25.076 19.1h3.626v-8.142h-3.626V19.1zm-.013-9.742h3.639V6.857h-3.639v2.5zm63.57 1.048c-2.93 0-5.302 2.048-5.302 4.567 0 2.526 2.373 4.574 5.302 4.574 2.929 0 5.301-2.048 5.301-4.574 0-2.525-2.372-4.567-5.301-4.567zm1.455 6.28c0 1.297-.752 1.83-1.48 1.83-.727 0-1.486-.533-1.486-1.83V14.93v-1.7c0-1.291.758-1.825 1.48-1.825s1.48.534 1.48 1.825c0 .49 0 1.402.006 1.73v1.726zm-11.514-5.324c-.581-.329-1.193-.652-2.055-.726-2.61-.236-4.61 2.11-4.61 4.263a4.337 4.337 0 002.482 4.033c1.223.577 2.789.577 4.177-.304v.472h3.589V6.857h-3.577c-.006 0-.006 2.625-.006 4.505zm.024 3.624v1.445c0 1.26-.856 1.59-1.425 1.59-.574 0-1.418-.33-1.418-1.59v-1.445-1.452c0-1.26.844-1.576 1.425-1.576.562 0 1.418.322 1.418 1.576v1.452zm-41.403-4.4a4.35 4.35 0 00-2.892 1.229c-.006-.199 0-.856 0-.856h-3.602v8.14h3.602l-.006-5.348c0-.707.733-1.496 1.724-1.496.99 0 1.657.788 1.657 1.496V19.1h3.602s-.006-3.854 0-4.43c.018-3.221-2.733-4.127-4.085-4.084zm29.473 0a4.363 4.363 0 00-2.892 1.229c-.006-.199 0-.856 0-.856h-3.595v8.14h3.601l-.006-5.348c0-.707.734-1.496 1.724-1.496.991 0 1.657.788 1.657 1.496V19.1h3.602v-4.43c.018-3.221-2.733-4.127-4.09-4.084zm-7.588 4.48c0-2.525-2.403-4.616-5.35-4.616-2.948 0-5.339 2.047-5.339 4.573 0 2.526 2.391 4.567 5.338 4.567 2.446 0 4.513-1.415 5.143-3.338h-3.614s.006.037.006.496c0 1.49-.966 1.818-1.504 1.818s-1.516-.329-1.516-1.818v-1.682h6.836zM52.483 12.2a1.48 1.48 0 011.278-.745c.47 0 .99.242 1.278.745.232.41.239.88.239 1.594H52.25c-.012-.713 0-1.185.232-1.594zm42.895-3.83c0-.396-.293-.601-.88-.601h-.808v2.085h.502v-.856h.245l.39.856h.563l-.458-.93c.281-.07.446-.28.446-.553zm-.942.33h-.244v-.608h.22c.3 0 .446.093.446.31.007.205-.134.298-.422.298zm.019-1.744c-1.027 0-1.859.844-1.859 1.887 0 1.042.832 1.886 1.859 1.886 1.027 0 1.859-.844 1.859-1.886 0-1.043-.832-1.887-1.86-1.887zm0 3.407a1.514 1.514 0 01-1.504-1.527c0-.844.672-1.526 1.504-1.526s1.504.682 1.504 1.526c-.006.844-.679 1.527-1.504 1.527zM90.407 0H13.593C5.46-.019 0 5.914 0 13.025 0 20.136 5.448 26 13.605 26h76.796C98.55 26 104 20.136 104 13.025S98.54-.02 90.407 0zm-.037 22.81H13.63c-6.482.025-10.42-4.393-10.42-9.804 0-5.417 3.963-9.792 10.42-9.804h76.746c6.457.012 10.42 4.393 10.42 9.804-.006 5.417-3.944 9.83-10.426 9.805z"/>
</svg>
