<svg viewBox="0 0 256 120" xmlns="http://www.w3.org/2000/svg">
	<path d="m166.036 33.473c-5.243-4.193-13.833-4.17-18.18 2.024-4.346 6.193-.186 19.376-.186 19.376l.206.674a1.339 1.339 0 001.73.866c.987-.353 1.597-.936 3.097-.936 2.257 0 2.94 1.126 5.147 1.126 2.206 0 3.303-.983 5.197-.983 1.39 0 1.99.517 3.256.79a1.337 1.337 0 001.594-1.06c.15-.797.11-.57.11-.57s3.17-17.193-1.971-21.307zm-7.84-15.267 2.477 1.084-1.407.757-1.07-.044v-1.797zm4.947 4.234-1.553.17v-1.793l1.643.126-.09 1.497zm-3.706 4.547-1.124.583v-1.793l1.014-.457.11 1.667zm3.796.06s-.317.2-.823.4c-.057-.574-.034-1.624.02-2.227.43.283.88.267.88.267l-.077 1.56zm9.039 2.116.42 1.004s.507-.88.257-3.184m.594-2.643v1.797l-.647-.92.647-.877zm2.493 1.093v-1.793l-.556-.293-.937.166 1.493 1.92zm-5.767-5.786v1.796l-1.04.447s-.063-1.25 0-1.28c.064-.03 1.04-.963 1.04-.963zm.644-2.647v1.797l-.993.426-.054-.666 1.047-1.557z" fill="#007A59"/>
	<path d="m158.196 18.206 2.477 1.084-1.407.757-1.07-.044v-1.797z" fill="url(#paint0_radial)"/>
	<path d="m163.143 22.44-1.553.17v-1.793l1.643.126-.09 1.497z" fill="url(#paint1_radial)"/>
	<path d="m159.437 26.987-1.124.583v-1.793l1.014-.457.11 1.667z" fill="url(#paint2_radial)"/>
	<path d="m163.233 27.047s-.317.2-.823.4c-.057-.574-.034-1.624.02-2.227.43.283.88.267.88.267l-.077 1.56z" fill="url(#paint3_radial)"/>
	<path d="m172.272 29.163.42 1.004s.507-.88.257-3.184" fill="url(#paint4_radial)"/>
	<path d="m173.543 24.34v1.797l-.647-.92.647-.877z" fill="url(#paint5_radial)"/>
	<path d="M176.036 25.433V23.64l-.556-.293-.937.166 1.493 1.92z" fill="url(#paint6_radial)"/>
	<path d="m170.269 19.647v1.796l-1.04.447s-.063-1.25 0-1.28c.064-.03 1.04-.963 1.04-.963z" fill="url(#paint7_radial)"/>
	<path d="M170.913 17v1.797l-.993.426-.054-.666L170.913 17z" fill="url(#paint8_radial)"/>
	<g fill="#007A59">
		<path d="m162.863 31.827 3.167 1.833s2.417-6.146 1.68-8.82c-.33-1.2-1.217-.653-1.41-.123-.003 0 .073 3.357-3.437 7.11z"/>
		<path d="m158.196 20.003c.687.96 3.107 1.78 4.7 1.644-.573.143-1.213.666-1.306.966.703.174 1.836.437 2.703 1.357-1.13-.183-2.507.04-3.547.483-2.033.87-2.13 1.854-2.433 3.12 2.217.014 3.83-.816 4.31-1.136-.333.606-.183 1.236-.183 1.236 1.63-.216 3.206-.863 4.353-2.476.03-.044.103-.04.153-.024.044.014.377.087.39.13.49 1.597 1.487 3.44 2.367 3.934.22-.14.42-.477.457-.89.196.846 1.79 2.636 2.116 2.616 1.004-1.596.75-2.6.2-3.59-.266-.493-1-1.24-2.093-1.973 1.637.61 2.283.753 3.163.74 0-.303-.146-.697-.25-.917.13.044 2.74.334 2.74.217.01-1.567-1.543-2.3-2.88-2.49-1.446-.207-3.71-.05-4.546.543.686-.596 1.403-1.2 1.663-2.046a4.35 4.35 0 00-1.02-.01c1.033-.5 1.573-1.967 1.66-2.637-.48.003-1.19.117-1.63.353-1.403.787-2.07 2.297-2.55 3.77-.86-2.193-1.85-3.303-3.693-3.783-1.407-.37-3.48.34-4.844.863z"/>
		<path d="m162.863 31.827 3.167 1.833s2.417-6.146 1.68-8.82c-.33-1.2-1.217-.653-1.41-.123-.003 0 .073 3.357-3.437 7.11z"/>
		<path d="m158.196 20.003c.687.96 3.107 1.78 4.7 1.644-.573.143-1.213.666-1.306.966.703.174 1.836.437 2.703 1.357-1.13-.183-2.507.04-3.547.483-2.033.87-2.13 1.854-2.433 3.12 2.217.014 3.83-.816 4.31-1.136-.333.606-.183 1.236-.183 1.236 1.63-.216 3.206-.863 4.353-2.476.03-.044.103-.04.153-.024.044.014.377.087.39.13.49 1.597 1.487 3.44 2.367 3.934.22-.14.42-.477.457-.89.196.846 1.79 2.636 2.116 2.616 1.004-1.596.75-2.6.2-3.59-.266-.493-1-1.24-2.093-1.973 1.637.61 2.283.753 3.163.74 0-.303-.146-.697-.25-.917.13.044 2.74.334 2.74.217.01-1.567-1.543-2.3-2.88-2.49-1.446-.207-3.71-.05-4.546.543.686-.596 1.403-1.2 1.663-2.046a4.35 4.35 0 00-1.02-.01c1.033-.5 1.573-1.967 1.66-2.637-.48.003-1.19.117-1.63.353-1.403.787-2.07 2.297-2.55 3.77-.86-2.193-1.85-3.303-3.693-3.783-1.407-.37-3.48.34-4.844.863z"/>
	</g>
	<g fill="#00A57B">
		<path d="m166.037 31.68c-5.244-4.193-13.834-4.17-18.18 2.023-4.347 6.194-.867 18.797-.187 21.174 2.53.123 2.777-1.194 5.033-1.194 2.257 0 2.94 1.127 5.147 1.127s3.303-.983 5.197-.983c1.893 0 2.323.956 4.96.956 1.55-8.833 3.17-18.99-1.97-23.103z"/>
		<path d="m162.864 30.033 3.167 1.834s2.417-6.147 1.68-8.82c-.33-1.2-1.217-.654-1.41-.124-.003 0 .073 3.357-3.437 7.11z"/>
		<path d="m158.197 18.207c.687.96 3.107 1.78 4.7 1.643-.573.143-1.213.667-1.306.967.703.173 1.836.436 2.703 1.356-1.13-.183-2.507.04-3.547.484-2.033.87-2.13 1.853-2.433 3.12 2.217.013 3.83-.817 4.31-1.137-.333.607-.183 1.237-.183 1.237 1.63-.217 3.206-.864 4.353-2.477.03-.043.103-.04.153-.023.044.013.377.086.39.13.49 1.596 1.487 3.44 2.367 3.933.22-.14.42-.477.457-.89.196.847 1.79 2.637 2.116 2.617 1.004-1.597.75-2.6.2-3.59-.266-.494-1-1.24-2.093-1.974 1.637.61 2.283.754 3.163.74 0-.303-.146-.696-.25-.916.13.043 2.74.333 2.74.216.01-1.566-1.543-2.3-2.88-2.49-1.446-.206-3.71-.05-4.546.544.686-.597 1.403-1.2 1.663-2.047a4.35 4.35 0 00-1.02-.01c1.033-.5 1.573-1.967 1.66-2.637-.48.004-1.19.117-1.63.354-1.403.786-2.07 2.296-2.55 3.77-.86-2.194-1.85-3.304-3.693-3.784-1.407-.37-3.48.344-4.844.864z"/>
	</g>
	<path d="m131.023 84.513c0 6.803.26 9.98.284 10.113.176 1.02 1.126 1.817 2.163 1.817l19.83-.3a1.958 1.958 0 001.923-1.973c-.013-.644 0-1.927 0-2.67l-24.2-6.987z" fill="#A95B00"/>
	<path d="m133.443 93.773c-1.036 0-1.986-.8-2.163-1.816-.023-.137-.307-3.444-.283-10.554.02-5.646-.01-9.06-.014-9.093-.01-1.047.83-1.99 1.87-2.1.064-.007 6.287-.65 9.8-.65 3.5 0 10.257.373 10.324.377 1.036.056 1.95.946 2.036 1.98.007.063.134 1.596.134 6.18 0 6.193.073 13.336.076 13.41a1.958 1.958 0 01-1.923 1.973l-19.857.293z" fill="#FFB800"/>
	<path d="m142.787 78.993c-.093-2.523-7.08-2.543-11.783-2.37 0 1.33 0 2.93-.007 4.777-.003.743.003 1.437.01 2.097 6.377-.994 11.857-2.46 11.78-4.504zm.213 5.837c-2.967.76-7.27 1.733-11.94 2.667.05 1.923.123 3.2.17 3.873 5-.593 9.56-1.127 13.946-1.597 2.414-.256 6.1-.723 10.02-1.283-.016-2.197-.04-5.317-.046-8.413-2.234 1.823-7.38 3.53-12.15 4.753zm12.14-8.373c-.023-3.32-.12-4.49-.127-4.544-.086-1.033-1.003-1.92-2.036-1.98-.067-.003-6.824-.376-10.324-.376-3.513 0-9.736.643-9.8.65-1.04.11-1.88 1.053-1.87 2.1v.106c13.537-.193 21.407 1.89 24.157 4.044zm-1.84 17.016a1.96 1.96 0 001.924-1.973l-.017-1.73a1225.638 1225.638 0 01-22.927 3.643c.344.224.747.357 1.164.357l19.856-.297z" fill="#FFA600"/>
	<path d="m52.4 92.18.074 2.67a1.88 1.88 0 002.01 1.843c.063-.003 6.146-.36 8.376-.36.847 0 2.32.067 4.024.147 2.636.12 5.92.27 8.866.27.274 0 .544-.004.807-.004 4.987-.05 8.953-.383 8.993-.39a2.026 2.026 0 001.827-2.093c0-.026-.057-1.17-.113-2.673l-34.864.59z" fill="#A62B44"/>
	<path d="m75.75 94.08c-2.947 0-6.23-.15-8.867-.27-1.703-.077-3.176-.147-4.023-.147-2.23 0-8.387.357-8.447.36a1.88 1.88 0 01-2.01-1.843s-.126-7.15-.223-11.453c-.023-1.02-.167-4.797-.173-5.817l-.007-.5c-.007-.91.58-12.31.6-12.91a2.02 2.02 0 011.987-1.937c.033 0 3.303-.02 3.89-.033 1.796-.043 3.31-.083 4.7-.123 3.556-.1 6.273-.174 10.856-.154 3.297.017 11.094.384 11.17.387 1.047.05 1.937.943 1.98 1.99.014.337.347 8.243.247 10.12-.103 1.99-.437 8.7-.437 11.437 0 2.753.264 8.353.267 8.41.05 1.06-.77 2-1.827 2.093-.04.003-3.89.34-8.876.39h-.807z" fill="#FF528C"/>
	<g fill="#FF2370">
		<path d="M70.753 59.257c-2.79.02-4.956.08-7.576.15-1.39.04-2.904.08-4.7.123l-1.41.017c-1.75 2.27-3.66 5.986-4.797 8.703-.14 2.9-.273 5.727-.27 6.163l.003.5c.007 1.02.15 4.797.174 5.817.1 4.303.223 11.453.223 11.453a1.88 1.88 0 002.01 1.844c.063-.004 6.217-.36 8.447-.36.846 0 2.32.066 4.023.146 1.623.074 3.493.16 5.38.214.05-.087.087-.157.093-.167l.01-.02c.16-.337.314-.693.46-1.067a19.328 19.328 0 00.537-1.547c.117-.39.227-.8.333-1.22a30.405 30.405 0 00.36-1.663c.014-.076.027-.153.044-.233.086-.477.163-.967.233-1.477.007-.05.017-.1.023-.153.28-2.13.44-4.5.47-7.117v-.12a88.5 88.5 0 00-.013-2.65c-.17-8.3-1.8-14.1-4.057-17.336zM61.527 92.6c-4.787-1.05-7.17-3.207-7.564-11.803-.393-8.594 4.217-14.56 7.424-14.56 3.21 0 7.946 2.713 7.946 13.193-.003 4.78-3.023 14.217-7.806 13.17z"/>
		<path d="m59.463 74.303c-1.343 1.544-2.31 5.157-2.144 8.484.127 2.493.91 4.28 1.994 4.816 1.436.714 3.046.127 3.983-.806.994-.994 2.143-1.884 2.464-6.29.31-4.31-1.654-5.92-2.197-6.57-.927-1.11-2.817-1.11-4.1.366zm27.8 17.294c-.003-.057-.267-5.66-.267-8.41 0-2.737.337-9.444.437-11.437.097-1.877-.234-9.783-.247-10.12-.043-1.047-.933-1.944-1.98-1.99-.04-.004-1.933-.09-4.243-.184 1.733 8.18 3.36 17.844 3.36 25.56 0 3.197-.237 6.144-.607 8.797 1.07-.07 1.707-.123 1.724-.127a2.023 2.023 0 001.823-2.09z"/>
		<path d="M70.753 59.257c-2.79.02-4.956.08-7.576.15-1.39.04-2.904.08-4.7.123l-1.41.017c-1.75 2.27-3.66 5.986-4.797 8.703-.14 2.9-.273 5.727-.27 6.163l.003.5c.007 1.02.15 4.797.174 5.817.1 4.303.223 11.453.223 11.453a1.88 1.88 0 002.01 1.844c.063-.004 6.217-.36 8.447-.36.846 0 2.32.066 4.023.146 1.623.074 3.493.16 5.38.214.05-.087.087-.157.093-.167l.01-.02c.16-.337.314-.693.46-1.067a19.328 19.328 0 00.537-1.547c.117-.39.227-.8.333-1.22a30.405 30.405 0 00.36-1.663c.014-.076.027-.153.044-.233.086-.477.163-.967.233-1.477.007-.05.017-.1.023-.153.28-2.13.44-4.5.47-7.117v-.12a88.5 88.5 0 00-.013-2.65c-.17-8.3-1.8-14.1-4.057-17.336zM61.527 92.6c-4.787-1.05-7.17-3.207-7.564-11.803-.393-8.594 4.217-14.56 7.424-14.56 3.21 0 7.946 2.713 7.946 13.193-.003 4.78-3.023 14.217-7.806 13.17z"/>
		<path d="m59.463 74.303c-1.343 1.544-2.31 5.157-2.144 8.484.127 2.493.91 4.28 1.994 4.816 1.436.714 3.046.127 3.983-.806.994-.994 2.143-1.884 2.464-6.29.31-4.31-1.654-5.92-2.197-6.57-.927-1.11-2.817-1.11-4.1.366zm27.8 17.294c-.003-.057-.267-5.66-.267-8.41 0-2.737.337-9.444.437-11.437.097-1.877-.234-9.783-.247-10.12-.043-1.047-.933-1.944-1.98-1.99-.04-.004-1.933-.09-4.243-.184 1.733 8.18 3.36 17.844 3.36 25.56 0 3.197-.237 6.144-.607 8.797 1.07-.07 1.707-.123 1.724-.127a2.023 2.023 0 001.823-2.09z"/>
	</g>
	<path d="M92.036 88.75c-.006 1.57.164 5.047.287 5.74.183 1.023 1.14 1.847 2.18 1.87.153.003 15.46.357 17.617.357h.14c2.19-.027 4.376-.067 6.566-.11 2.214-.044 5.367-.11 5.367-.11 1.05-.024 1.957-.897 2.023-1.944.007-.106.084-1.336.164-2.67L92.036 88.75z" fill="#00669D"/>
	<path d="m112.123 94.047c-2.157 0-17.463-.354-17.617-.357-1.04-.023-1.996-.847-2.18-1.87-.013-.067-.293-1.66-.286-3.07.006-1.667.053-5.58.1-9.363.04-3.414.08-6.64.08-7.57 0-1.907-.394-9.967-.397-10.05a1.908 1.908 0 01.503-1.397c.35-.383.83-.607 1.347-.627.177-.006 4.313-.173 5.353-.173 1.37.003 2.747.063 4.08.127 1.214.056 2.47.113 3.704.123l.49.003c1.243 0 2.51-.036 3.736-.073 1.234-.037 2.507-.073 3.767-.073h.317c.623.003 8.89.216 9.243.226a1.967 1.967 0 011.91 1.987c0 .037-.047 3.473.013 5.89.03 1.153-.01 2.263-.05 3.337a52.028 52.028 0 00-.053 3.16c.027 1.246.077 2.5.123 3.71.104 2.536.207 5.163.097 7.806-.023.544-.007 5.864-.023 6.09-.064 1.047-.974 1.92-2.024 1.944l-5.53.11c-2.19.043-4.376.083-6.566.11h-.137z" fill="#00A8FF"/>
	<path d="m96.223 72.857c.104 2.786 8.86 5.976 23.58 7.14 2.294.183 4.347.29 6.59.35-.026-.794-.053-1.58-.086-2.36-.01-.29-.024-.59-.034-.887-.486-.02-.913-.033-1.373-.047-4.407-.116-13.247-.716-13.33-3.053-.087-2.337 7.853-1.73 11.27-1.853.643-.024 1.77-.05 3.367-.077l.03-.95c.023-.61.043-1.233.053-1.867-3.413.09-6.363.16-8.767.21-10.706.214-21.403.604-21.3 3.394zm-4.053 3.786c-.01.87-.02 1.8-.034 2.747-.013 1.217-.03 2.447-.043 3.61 1.91.323 3.56.713 5.786 1.08 6.577 1.09 18.297 1.877 28.507 2.05.01-.16.017-.277.017-.337.026-.646.04-1.293.046-1.936-2.35-.07-4.366-.167-6.533-.32-9-.644-21.373-3.694-27.747-6.894zm0-6.816c4.277-1.147 10.893-1.33 16.11-1.52 4.177-.154 11.007-.474 18.003-.8-.016-.814-.026-1.714-.026-2.554-7.304.327-25.464.794-34.234 1.234.054 1.246.107 2.556.147 3.64zm30.193-7.68c1.09-.034 2.423-.08 3.907-.134 0-.07.003-.116.003-.123a1.97 1.97 0 00-1.91-1.987c-.353-.01-8.62-.223-9.243-.226h-.317c-1.257 0-2.533.036-3.767.073a126.05 126.05 0 01-3.736.073l-.49-.003a97.197 97.197 0 01-3.704-.123c-1.333-.06-2.71-.124-4.08-.127-1.043 0-5.18.167-5.353.173-.517.02-.997.244-1.347.627s-.53.88-.503 1.397c0 .023.03.616.073 1.506 3.714-.33 7.21-.343 9.71-.346 6.294-.004 14.374-.58 20.757-.78zm1.997 31.68c1.05-.024 1.957-.897 2.023-1.944.004-.07.007-.636.007-1.396-8.157-.1-17.973-.384-23.947-1.14-4.15-.527-6.696-.964-10.373-1.27l-.026.03c-.004.24-.004.46-.004.646-.007 1.41.277 3 .287 3.07.183 1.024 1.14 1.847 2.18 1.87.153.004 15.46.357 17.616.357h.14c2.19-.027 4.377-.067 6.567-.11 2.213-.047 5.53-.113 5.53-.113z" fill="#0096FF"/>
	<path d="m204.003 78.667v-2.664l-.48.004c-.787-2.05-2.52-3.68-4.93-4.55.423-.91.647-1.9.657-2.9v-2.664h-.507a7.181 7.181 0 00-1.687-2.5c-1.423-1.376-3.323-2.146-5.35-2.163h-.063c-.49 0-.983.047-1.463.137-1.14-3.757-4.704-6.34-8.857-6.34-4.083 0-7.647 2.543-8.827 6.236a7.859 7.859 0 00-.48-.016c-3.206 0-5.953 1.913-7.066 4.603h-.537v2.663c0 1 .217 1.99.63 2.9-2.36.87-4.25 2.714-5.07 4.95l-.487.004.077 2.663h.003c0 2.58 1.264 4.977 3.404 6.52a8.19 8.19 0 00-.597 1.25h-.56v2.77c-.003.09-.01.177-.01.267 0 4.853 4.13 8.8 9.21 8.8 1.197 0 2.367-.084 3.46-.507l.12 1.89c0 .78.573 1.413 1.277 1.413l11.913-.15c.703 0 1.277-.633 1.277-1.413l.136-2.2c1.284.557 2.88.827 4.884.827 3.536 0 8.093-1.977 8.863-7.554.053-.39.073-.773.073-1.153h.007v-2.983h-.517c-.333-.944-.943-1.777-1.466-2.424 1.873-.956 2.94-2.99 2.963-5.716z" fill="#00753F"/>
	<path d="m187.959 98.617-12.25.15c-.703 0-1.276-.633-1.276-1.41l.013-.123.457-1.927c-1.21.54-2.534.67-3.884.67-5.076 0-9.21-3.947-9.21-8.8 0-1.51.404-2.98 1.167-4.287-2.14-1.54-3.48-3.94-3.48-6.517 0-3.37 2.297-6.416 5.55-7.616a7.036 7.036 0 01-.63-2.9c0-4.007 3.41-7.267 7.603-7.267.16 0 .317.007.48.017 1.177-3.694 4.74-6.237 8.824-6.237 4.15 0 7.716 2.58 8.856 6.34a8.01 8.01 0 011.464-.136h.063c2.027.016 3.927.783 5.35 2.163 1.43 1.383 2.207 3.22 2.19 5.163a7.1 7.1 0 01-.657 2.9c3.38 1.22 5.437 3.934 5.407 7.207-.023 2.723-1.09 4.76-2.957 5.71 1.2 1.486 2.27 3.913 1.904 6.56-.77 5.576-5.324 7.553-8.864 7.553-2.343 0-4.14-.363-5.516-1.133l.663 2.51c.007.777-.563 1.41-1.267 1.41z" fill="#00A971"/>
	<path d="m197.333 95.267c-10.353-.85-23.506-3.004-35.14-5.61 1.124 3.646 4.654 6.32 8.83 6.32 1.35 0 2.67-.13 3.884-.67l-.457 1.926-.013.124c0 .776.573 1.41 1.276 1.41l12.25-.15c.704 0 1.274-.634 1.274-1.41l-.664-2.51c1.377.77 3.174 1.133 5.517 1.133 1.033 0 2.153-.177 3.243-.553-.003-.004 0-.007 0-.01zm3.714-13.55a4.818 4.818 0 001.463-1.167c-11.12-.763-24.193-2.613-24.356-6.91-.17-4.38 11.976-4.457 21.43-4.423a9.72 9.72 0 00-.984-.42c.424-.91.647-1.9.657-2.9a6.964 6.964 0 00-.79-3.284c-1.867.04-3.633.077-5.283.107-9.337.18-19.75.513-28.437 1.06a6.994 6.994 0 00-.32 2.07c0 1 .217 1.99.63 2.9-3.253 1.197-5.55 4.243-5.55 7.617 0 2.576 1.34 4.976 3.48 6.516-.003.004-.003.007-.007.01 9.577 2.15 22.25 4.127 35.97 5.16 1.274.097 2.71.177 3.997.257 0-.013-.007-.037.007-.04.363-2.64-.71-5.067-1.907-6.553zm-19.714-29.35c-4.083 0-7.647 2.543-8.823 6.236 0 0 9.826-.306 17.416-.633-1.36-3.353-4.723-5.603-8.593-5.603z" fill="#00A059"/>
	<path d="m67.034 53.823c.066.327.236 1.12.346 1.637.074.343.277.653.577.837 1.567.96 2.75-.75 4.623-.75 2.18 0 2.787 1.046 4.997 1.046 1.477 0 2.677-1.21 4.703-1.21 1.767 0 3.527 1.904 6.22 1 .404-.136.727-.446.86-.85.137-.413.294-.973.4-1.543.18-.96-23.053-1.74-22.726-.167z" fill="#037C3C"/>
	<path d="m90.843 34.747c-2.66-10.157-18.953-10.987-23.603-1.92-3.627 7.073-.363 20.023-.21 20.996 2.193 2.05 3.367-.073 5.547-.073s2.786 1.047 4.996 1.047c1.477 0 2.677-1.21 4.704-1.21 2.026 0 4.043 2.506 7.48.403.57-3.14 2.75-12.897 1.086-19.243z" fill="#00A63C"/>
	<path d="m104.727 51.883c-7.347.787-9.39 2.734-9.39 2.734s-.02-.094.163.666c.187.77.997 1.214 1.74.95.887-.316 1.68-.84 2.96-.84 2.08 0 2.403 1.2 5.07 1.2s3.673-1.33 5.163-1.33c1.007 0 2.374.86 3.727 1.13.653.13 1.303-.25 1.517-.88l.37-1.083c.006-.003-5.597-3.16-11.32-2.547z" fill="#007960"/>
	<path d="m114.613 34.123c-4.046-4.653-13.86-4.863-18.176 1.134-4.317 5.996-1.773 16.13-1.097 19.356 2 .354 2.787-1.02 4.867-1.02s2.403 1.2 5.07 1.2c2.666 0 3.673-1.33 5.163-1.33 1.487 0 3.757 1.87 5.613.96 2.287-8.376 2.607-15.646-1.44-20.3z" fill="#009B7E"/>
	<path d="m130.893 51.737c-8.774.023-9.2 2.983-9.2 2.983l.163.55a1.335 1.335 0 001.78.863c.793-.323 1.45-.736 2.797-.736 2.216 0 3.046 1.083 5.16 1.083 2.113 0 2.743-.963 4.836-.963 1.227 0 1.847.283 2.56.543.71.26 1.497-.123 1.73-.843.234-.724.17-.537.17-.537s-2.413-2.963-9.996-2.943z" fill="#2E7A39"/>
	<path d="m142.873 34.503c-2.09-6.793-14.01-9.57-19.764-2.943-5.753 6.627-2.326 19.826-1.416 23.16 2.173 0 2.52-1.12 4.736-1.12 2.217 0 3.047 1.083 5.16 1.083 2.114 0 2.744-.963 4.837-.963 2.097 0 2.417.82 4.46.956 1.43-4.593 4.08-13.38 1.987-20.173z" fill="#42B053"/>
	<path d="m195.249 100.197v2.673h-.58v-2.673h-1.043v-.504h2.683v.504h-1.06zm4.137 2.673v-1.987l-.684 1.987h-.646l-.68-1.97v1.97h-.57v-3.18h.676l.9 2.47.887-2.47h.69v3.18h-.573z" fill="#00753F" stroke="#00753F" stroke-width=".25"/>
	<path d="m195.249 100.197v2.673h-.58v-2.673h-1.043v-.504h2.683v.504h-1.06zm4.137 2.673v-1.987l-.684 1.987h-.646l-.68-1.97v1.97h-.57v-3.18h.676l.9 2.47.887-2.47h.69v3.18h-.573z" stroke="#00753F" stroke-linecap="round" stroke-linejoin="round" stroke-width=".3"/>
	<path d="m195.249 100.197v2.673h-.58v-2.673h-1.043v-.504h2.683v.504h-1.06zm4.137 2.673v-1.987l-.684 1.987h-.646l-.68-1.97v1.97h-.57v-3.18h.676l.9 2.47.887-2.47h.69v3.18h-.573z" fill="#00753F"/>
	<path d="m70.453 90.66.106-.07c.037-.026.08-.056.124-.09.07-.053.15-.113.233-.18.007-.003.01-.01.017-.013.006-.007.016-.014.023-.02.08-.064.167-.134.257-.21.006-.007.013-.01.023-.017.093-.076.19-.163.293-.253.034-.027.064-.057.097-.087.103-.093.21-.186.32-.29l-.2.047h-.007c-.04.01-.083.016-.133.026l-.013.004a7.6 7.6 0 01-.574.09c-.306.04-.67.073-1.08.09-.186.2-.29.63-.29 1.003v.004a1.291 1.291 0 00.04.323c.01.043.024.087.037.13.09.26.22.443.353.523-.23-.227-.226-.64.374-1.01zm-2.753-15.757c-.24.007-.478.014-.718.014-.17 0-.336-.004-.503-.007l-.21-.01a7.394 7.394 0 01-.276-.013l-.27-.02c-.067-.007-.13-.01-.197-.017-.103-.01-.21-.02-.313-.033-.037-.003-.077-.01-.114-.013a9.582 9.582 0 01-1.583-.33c-.003 0-.003 0-.007-.004-1.853.094-3.713.444-4.397.944-.516.376-.703.846-.703 1.406 0 .744.327 1.47.827 1.577-.257-.16-.4-.357-.4-.597 0-.44.787-.74 1.92-.933h.003l.383-.06.06-.01.384-.05c.01 0 .02-.004.03-.004.29-.033.593-.063.903-.086.017 0 .03-.004.047-.004l.43-.03c.017 0 .03-.003.046-.003.317-.02.64-.037.96-.047h.037c.144-.006.287-.01.43-.013.024 0 .05 0 .074-.003.313-.007.623-.014.926-.014h.533c.117 0 .23.004.344.004h.076c.137.003.27.003.4.007h.044l.323.01c.037 0 .07.003.107.003l.246.01c.034 0 .067.003.1.003.107.007.21.01.307.017-.393-.787-.26-1.607-.25-1.694zm5.503 11.14a1.336 1.336 0 00-.033-.166 2.319 2.319 0 00-.273-.707c-.844.16-2.89.427-5.114-.013-.6-.12-1.003-.334-1.277-.577l-.073.057c-.03.023-.06.05-.087.073-.02.02-.043.037-.063.057-.04.04-.08.083-.113.123-.014.017-.024.033-.037.05a1.085 1.085 0 00-.073.113l-.02.034a.927.927 0 00-.067.19.667.667 0 00-.02.163c-.003.033-.133 1.44 1.83 1.83 2.497.497 4.777.097 5.37-.04 0-.013 0-.02.003-.027v-.01l-.006.03v.004c0-.007.006-.04.006-.034v-.006c.027-.134.044-.26.054-.384l.01-.116c.006-.087.006-.174.006-.254v-.113c0-.09-.01-.183-.023-.277z" fill="#A62B44"/>
	<path d="m77.363 84.667c-.117-.284-.35-.49-1.324-.254a5.42 5.42 0 00.054-.753c0-.51-.047-.957-.164-1.353-.273-.96-1.393-2.694-5.933-2.86-4.58-.167-6.333 1.383-6.99 2.423-.387.557-.727 1.6-.727 2.71 0 1.147.357 2.077.767 2.623a2.813 2.813 0 01-.2-.386c-.017-.04-.037-.08-.053-.12-.02-.047-.034-.097-.05-.147a1.906 1.906 0 01-.047-.147c-.013-.046-.023-.096-.037-.146-.013-.054-.023-.11-.033-.167-.007-.047-.017-.097-.02-.147a3.58 3.58 0 01-.017-.19 2.654 2.654 0 01-.003-.37c0-.04 0-.08.003-.123.007-.12.02-.243.037-.37 0-.003.003-.01.003-.023v-.007c.004-.013.004-.03.01-.05 0-.003 0-.007.004-.01.07-.347.43-1.64 2.08-2.56h.003c.003 0 .003-.003.007-.003h.003c.093-.054.19-.104.293-.154 0 0 .004 0 .004-.003.1-.05.206-.097.316-.143 0 0 .004 0 .004-.004l.066-.026a7.79 7.79 0 01.974-.314h.003a1.2 1.2 0 01.117-.026 8.373 8.373 0 01.603-.124 11.387 11.387 0 011.52-.153h.003c.044-.003.087-.003.127-.003h.01c.13-.004.26-.007.393-.007.227 0 .46 0 .704.01.17.007.333.017.493.027a39.132 39.132 0 01.487.043h.003l.113.01h.004c.146.017.29.037.43.057h.003a.251.251 0 00.05.006h.007l.18.03.28.05h.003c.057.01.107.024.16.037.073.017.147.03.217.047.046.01.09.023.136.036a6.61 6.61 0 01.544.164c.133.046.26.093.38.14.033.013.063.03.096.043.08.033.16.07.237.107h.003a3.87 3.87 0 01.207.106c1.983 1.064 1.96 2.687 1.96 2.814 0 .453-.033 1.006-.127 1.58.057-.014.104-.027.15-.037a5.11 5.11 0 01.364-.077c.013-.003.026-.003.036-.006.16-.024.297-.034.414-.034h.013a.976.976 0 01.363.07.766.766 0 01.127.074c.063.05.11.113.143.18.004.003.004.01.007.013.013.033.027.067.033.1 0 .007.004.013.004.02.006.033.013.07.016.107 0 .043-.006.09-.02.136.124-.276.204-.71.204-1.203.003-.527-.09-.993-.23-1.263zm-5.603-13.743c.3 0 .6.003.896.006h.047c.15.003.3.003.45.007h.007l.44.01h.04c.146.003.293.01.44.016h.016l.424.02h.026c.144.007.284.017.424.024a13.826 13.826 0 01.42.03h.02c.133.01.263.02.393.033.013 0 .023.004.037.004.126.013.25.023.37.036h.003c.123.014.24.027.357.043.013.004.026.004.036.007 1.31.177 2.197.47 2.194.94 0 .34-.104.64-.32.904.42-.274.713-.947.713-1.734 0-.613-.18-1.153-.457-1.493a.731.731 0 00-.21-.207.875.875 0 00-.203-.113c-2.257-1.063-11.827-.543-12.853-.487.013.293.03.614.043.957a19.944 19.944 0 01.02.51c0 .033.003.063.003.1l.02.573h.05c.077-.003.237-.013.47-.026.464-.024 1.21-.06 2.11-.094h.014c.253-.01.516-.016.793-.023h.023l.837-.02h.043c.284-.007.574-.01.867-.014h.053c.294-.003.587-.003.884-.003.026-.007.043-.007.06-.007zm-6.33-6.56c.176-.05.356-.097.532-.144l.204-.05.327-.08c.08-.017.156-.033.236-.053.097-.024.197-.044.293-.064.08-.016.16-.033.24-.046.097-.02.19-.04.287-.057l.23-.04.294-.053c.073-.014.143-.023.216-.034.1-.016.2-.033.3-.046l.213-.03.297-.044c.07-.01.137-.016.203-.026.1-.014.2-.027.3-.037l.194-.02.303-.033c.063-.007.123-.01.187-.017.103-.01.203-.02.306-.026.06-.007.12-.01.18-.014.1-.007.204-.017.304-.023l.177-.01c.1-.007.2-.014.3-.017.056-.003.11-.003.163-.006l.303-.014c.053-.003.107-.003.16-.003l.297-.01c.053 0 .106-.003.16-.003.097 0 .19-.004.283-.004h.437c.05 0 .1 0 .15.004.093 0 .183.003.273.003.05 0 .097.003.147.003.087.004.177.004.263.007.05 0 .1.003.15.006l.247.01c.05.004.1.007.153.007.077.004.157.007.233.014l.154.01c.073.003.146.01.216.013l.157.01c.067.006.133.01.2.017.053.003.103.01.154.013.063.007.123.01.183.017l.16.016c.053.007.106.01.16.017l.173.02c.044.003.09.01.133.013.06.007.12.014.18.023l.11.014c.064.006.12.017.18.023.03.004.06.007.09.014.064.01.124.016.184.026l.07.01.186.03c.017.003.03.007.047.007.067.01.127.02.187.033.01 0 .016.003.026.003.067.014.13.024.19.037h.004c.08.017.156.03.223.044.957.203 2.06 1.25 1.617 2.136.263-.363.37-.89.37-1.49 0-.653-.19-1.253-.427-1.63-.296-.547-.957-1.01-1.56-1.14-1.74-.367-7.173-1.037-12.897.55-1.03-.493-1.996-.683-2.866-.683-2.56.003-4.29 1.613-4.29 1.613s-.377.194-.44.617a4.569 4.569 0 00-.027.873c.06.89.36 2.04.36 2.04l-.053-.893c.013-.26.073-.393.113-.457.01-.013.017-.023.024-.03l.02-.02s1.726-1.61 4.29-1.613c.86-.014 1.826.173 2.856.666zm15.306 11.026c-.743-.586-3.88-.886-6.603-.946h-.004l-.523.06h-.003l-.604.06c-.473.016-.99.053-1.536.096.03.147.07.71.07.874.006.396-.027.716-.077 1.023.103 0 .213-.003.327-.003h1.573c.087 0 .173.003.26.003h.063l.567.01h.023c.457.01.924.027 1.387.047h.02c.217.01.43.02.64.033h.017a12.114 12.114 0 01.377.027l.06.003h.003c.223.017.44.033.65.053.01 0 .02.004.033.004h.013c.08.006.16.016.24.023.007 0 .01 0 .017.003.02.004.037.004.057.007h.006c.087.01.177.017.26.027h.014c.13.013.256.03.376.046.007 0 .01 0 .017.004.113.016.227.03.333.046.01 0 .02.004.03.004.107.016.21.033.31.053.007 0 .014.003.024.003l.3.06h.003l.013.004c.07.016.137.03.2.046.004 0 .004 0 .007.004l.043.01h.004a4.134 4.134 0 01.423.13h.003c.114.04.217.083.304.13l.02.01s.003 0 .003.003c.227.123.357.267.357.43 0 .073-.024.14-.064.203.097-.046.214-.196.32-.416.097-.26.164-.494.184-.814.046-.783-.354-1.216-.537-1.36z" fill="#A62B44"/>
	<path d="m75.89 86.557c-.047.01-.097.026-.15.036.093-.573.126-1.13.126-1.58 0-.186.05-3.5-5.997-3.72-6.753-.246-7.233 3.52-7.246 3.6-.32 2.177 1.013 3.374 2.85 4.097 2.976 1.177 6.02.563 6.47.443-.667.614-1.22 1.06-1.49 1.227-.994.613-.354 1.35.256 1.153 3.517-1.143 4.574-3.46 4.607-3.47 1.533-.4 2.107-.946 2.097-1.34-.04-.383-.284-.76-1.524-.446zm-2.73.683c-.594.137-2.877.537-5.37.04-1.964-.39-1.834-1.797-1.83-1.83 0-1.997 8.136-3.087 7.203 1.75-.024.117.006-.08-.004.04zm-1.7-10.687c.05-.306.083-.626.076-1.023a9.34 9.34 0 00-.07-.873c.547-.044 1.063-.08 1.537-.097 4.096-.367 5.8-1.077 5.8-2.46.006-1.82-13.24-.987-13.244-.99-.093-2.89-.236-4.547-.19-4.547.367.05 7.727.794 10.707.664 5.947-.257 3.883-3.067 2.247-3.414-1.74-.366-7.174-1.036-12.897.55-1.03-.493-1.997-.683-2.867-.683-2.56.003-4.29 1.613-4.29 1.613s-.193.127-.16.767c.127 2.663 1.487 5.033 1.874 5.707 1.406 2.443 4.016 3.15 6.996 3.146.24 0 .477-.003.717-.013-.01.087-.143.91.25 1.693-2.63-.153-9.11-.06-9.11 1.204 0 1.946 9.423.993 9.957.983.326.39 1.02.317 1.026.317.574-.017 1.044-.364 1.044-.364 3.576-.093 9.97.304 9.97-.956 0-1.154-6.37-1.26-9.374-1.224z" fill="#fff"/>
	<path d="m143.921 79.02-.01-.053a1.723 1.723 0 00-.06-.177l-.003-.01a1.868 1.868 0 00-.084-.177v-.003c-.396 1.04-1.333 1.503-2.303 1.487-1.813-.027-2.607-.647-2.923-1.477a2.014 2.014 0 00-.077.293c-.003.014-.007.024-.007.037-.02.107-.03.22-.033.34.127 1.153.757 2.687 3.04 2.717 1.273.02 2.483-.774 2.507-2.617 0-.073-.004-.143-.014-.213-.01-.054-.023-.1-.033-.147zm4.756-2.393c-.01.057-.023.117-.033.177.01-.057.02-.12.033-.177zm.077-.367c-.01.05-.023.103-.033.157.01-.054.02-.107.033-.157zm-.15.77-.03.193.03-.193zm.233-1.107-.033.134c.01-.044.02-.09.033-.134zm-.42 2.46c-.007.074-.017.147-.023.224.01-.077.016-.15.023-.224zm.121-.926-.03.206.03-.206zm-.064.453c-.01.07-.017.144-.027.214.01-.074.02-.144.027-.214zm2.39-1.833c0-.007 0-.017-.004-.023 0 .006.004.016.004.023zm-1.94-.45-.03.1.03-.1zm1.959.783v-.03c-.003.01 0 .02 0 .03zm-.012-.243v-.027c-.004.01-.004.02 0 .027zm-2.504 2.707c-.007.076-.017.153-.023.23.006-.08.016-.157.023-.23zm2.51-2.594v-.027c-.003.007 0 .017 0 .027zm-3.453 10.56c-.017-.003-.033-.003-.05-.007.013 0 .033.004.05.007zm.223.024m.194.02c-.02-.004-.044-.004-.064-.007.02.003.044.007.064.007zm.36-5.944c-.007.077-.01.157-.013.234.003-.08.01-.157.013-.234zm.12-1.563-.02.233c.003-.08.013-.156.02-.233zm-.043.517m-.041.52-.016.233c.003-.077.01-.153.016-.233zm-.097 1.563c-.003.076-.006.156-.013.233a4.36 4.36 0 00.013-.233zm.031-.513-.014.23.014-.23z" fill="#A95B00"/>
	<path d="m135.651 87.6c.403-.23.856-.416 1.336-.57 2.66-.85 6.3-.627 8.73-.38.654.067 1.217.133 1.65.183.017.004.034.004.05.007.054.007.1.01.15.017l.077.01c.047.007.087.01.127.013.02.004.043.004.063.007.06.007.113.01.16.013 0 .133 0-.51.023-1.556-1.71-.15-8.656-1.194-12.373.436-.197.11-.377.323-.43.417-.16.236-.257.636-.237 1.037.024.473.234.833.397 1.07-.13-.21-.097-.457.277-.704zm-.184.807c-.003-.004-.007-.007-.01-.007.003.003.007.007.01.007zm12.674-6.43c.003-.094.01-.19.013-.284.003-.076.01-.153.013-.23.007-.096.01-.193.017-.29.003-.076.01-.156.013-.233l.02-.29c.007-.077.01-.157.017-.233l.02-.29.02-.233c.007-.097.017-.19.023-.284l.02-.233c.007-.093.017-.183.027-.273.007-.077.013-.154.023-.23.01-.09.02-.18.027-.267.007-.077.017-.15.023-.224l.03-.26c.01-.073.017-.143.027-.213.01-.083.023-.166.033-.246l.03-.207c.014-.08.024-.157.037-.233l.03-.194.04-.223c.01-.06.02-.12.033-.177.014-.073.03-.14.044-.21.01-.053.023-.106.033-.157l.05-.2.033-.133c.02-.07.04-.133.06-.197l.03-.1c.03-.093.064-.176.097-.253.71-1.613 1.647-1.103 1.833.617.004.016.004.04.007.063 0 .007 0 .017.003.023 0 .02.004.04.004.064v.026c.003.027.003.054.006.084v.026c.004.034.004.067.007.104v.03c.003.04.003.087.007.13v.017c.026.606.053 1.603.063 2.8.023-2.63-.057-4.88-.1-5.28-.19-1.72-1.123-2.23-1.833-.617-.687 1.62-.867 6.35-.914 9.25l.014-.3.01-.204.01-.236zm-12.571-1.427c-.003-.003-.007-.007-.007-.01a.382.382 0 01-.106-.277c0-.01.003-.016.003-.026v-.003c.063-.974.87-1.56 1.007-1.697.003-.004.006-.007.01-.007.006-.007.013-.013.013-.017.313-1.603.787-2.596 1.217-3.21l.003-.003c.09-.126.18-.24.267-.337l.003-.003c.087-.096.167-.176.243-.243l.004-.004c.036-.033.073-.063.106-.09.004 0 .004-.003.007-.003.07-.053.13-.097.183-.127.117-.07.194-.096.214-.093a.54.54 0 01.156.03c.014.003.027.01.04.013a.357.357 0 01.09.047c.01.007.024.014.03.02.03.023.057.05.077.08.01.013.017.03.027.047.01.02.02.037.026.056.01.02.017.044.024.067a1.154 1.154 0 01.026.23c-.01.57-.43 1.37-.51 1.53-.003.004-.003.01-.006.014-.007.013-.01.02-.007.02 0 0 .467-.594 1.497-.867a3.169 3.169 0 01.25-.06c.053-.01.106-.023.16-.033l.05-.01c.07-.014.143-.024.216-.034.014 0 .027-.003.037-.003.063-.007.127-.017.19-.023.02-.004.04-.004.06-.007.073-.007.143-.01.217-.017h.016c.08-.003.164-.007.244-.007h.046a4.457 4.457 0 01.257.007c.17.007.343.023.517.05.013.004.03.004.043.007.08.013.163.026.247.043l.013.004c.09.02.18.04.27.063a5.21 5.21 0 01.3.093c.177.06.35.13.523.213a5.568 5.568 0 01.267.143c.007.004.013.008.02.01.723.42 1.38 1.084 1.853 2.087.024.047.044.1.067.154a.93.93 0 01.02.053c.017.043.03.087.047.133.006.02.013.04.016.06.017.054.03.107.047.164a5.788 5.788 0 01.167 1.163v.004c.003.103.006.21.006.316a5.21 5.21 0 01-.183 1.364c.227-.654.357-1.56.34-2.56-.017-.88-.147-1.684-.347-2.304a2.991 2.991 0 00-.176-.51c-1.357-2.863-4.18-2.96-5.8-2.53-.354.094-.63.224-.854.357.017-.114.027-.233.027-.364v-.053c0-.423-.09-.79-.223-1.003-.02-.033-.04-.067-.07-.093-.014-.014-.03-.024-.044-.037-.006-.007-.013-.01-.023-.017a.192.192 0 00-.057-.03.705.705 0 00-.223-.053c-.093-.007-1.56.59-2.247 4.116-.01.047-.686.45-.98 1.1-.173.29-.316.814-.366 1.337-.057.573.096 1.103.303 1.39.067.13.147.227.24.257a.264.264 0 01-.12-.077z" fill="#A95B00"/>
	<path d="m149.484 90.77c1.836.03 1.49-13.73 1.373-14.783-.19-1.72-1.123-2.23-1.833-.617-1.017 2.4-1.02 12.007-1.02 11.527-1.587-.127-8.76-1.347-12.35.7-.87.58.103 1.15.746 1.217.71.073 7.754.72 11.574-.517.02-.007.04-.01.06-.02-.004 0 .246 2.477 1.45 2.493z" fill="#fff"/>
	<path d="m140.201 75.68c-1.027.273-1.497.867-1.497.867-.027.02 1.177-2.08.027-2.15-.094-.007-1.56.59-2.247 4.116-.013.06-.98.674-1.033 1.75-.017.327.316.457.596.457a1.24 1.24 0 00.75-.26c.024.08.06 3.243 4.087 3.767 6.327.826 5.743-4.694 5.117-6.017-1.354-2.863-4.177-2.96-5.8-2.53zm3.76 3.697c-.024 1.843-1.234 2.64-2.507 2.616-2.283-.033-2.913-1.563-3.04-2.716.067-3.097 5.577-2.334 5.547.1z" fill="#fff"/>
	<path d="m114.39 71.633c-.003.06-.003.124-.003.187.003-.06.003-.127.003-.187zm.023-.51c-.003.037-.003.074-.003.11 0-.036 0-.073.003-.11zm-.026 1.71-.02-.003c.01.003.02.003.02.003zm-.033-.003c-.01 0-.023-.003-.043-.003.016.003.03.003.043.003zm-10.154-6.973c-.016.006-.03.01-.033.013l.033-.013zm-5.71.976c-.003.007-.003.014-.007.024.004-.01.007-.017.007-.024zm15.897 6m-.121-.01c-.016 0-.03-.003-.046-.003.016 0 .033.003.046.003zm-.119-.01c-.013 0-.027-.003-.043-.003.013.003.03.003.043.003z" fill="#00669D"/>
	<path d="m98.49 66.833c.01-.026.017-.05.03-.066l.007-.017.007-.01c.006-.007.243-1.657 3.313-1.68.687-.003 1.457.203 2.267.747l.013.01.01.01s.014.016.03.04c.004 0 .014-.007.034-.014.553-.203 7.953-2.713 13.1-.266.086.04.173.08.26.123 1.08.557 1.223 1.27 1.216 1.737 0 .016-.07 1.326-.076 1.506.25-1.31.263-1.896.296-2.436.057-.95-.076-1.56-.316-1.96-.237-.397-.62-.71-1.12-.97-5.317-2.744-13.28.103-13.394.153l-.03-.04-.01-.01-.013-.01c-.81-.54-1.58-.75-2.267-.747-3.07.024-3.5 1.68-3.506 1.687-.05.13-.08.287-.1.463 0 0-.077.714.03 1.647.066.583.256 1.34.256 1.34l-.06-1.123a.614.614 0 01.017-.1c.003 0 .007-.007.007-.014zm6.943 7.384c.27-1.654 5.377-1.587 7.753-1.464h.014c.386.02.696.04.906.057l.044.003c.026.004.05.004.073.007.017 0 .033.003.047.003.016 0 .03.004.043.004.017 0 .03.003.043.003h.014a.05.05 0 01.02.003c-.004-.22-.007-.43-.007-.63 0-.133.003-.256.007-.383l.003-.187c.003-.14.01-.27.017-.4.003-.036.003-.076.003-.11.007-.13.017-.246.023-.363.004-.03.004-.063.007-.09-1.953-.123-8.123-.377-8.93 1.193-.197.254-.333.897-.333 1.657 0 .807.156 1.487.373 1.7-.253-.283-.153-.803-.12-1.003zm14.31 2.93c-.003-.004-.007-.01-.013-.014l-.017-.016v.003c-.88-.707-7.25-.957-9.717-.65a1.5 1.5 0 00-1.06-.39c-.426.01-.746.157-.966.423-1.447.02-2.784.037-3.814.037-.58 0-3.9-.03-4.583.217-.406.156-.73.356-.886.586v-.003s-.444.457-.497 1.27c-.037.55.13.897.18 1.04.046.137.183.31.356.453a.434.434 0 01-.156-.313c.023-.353.21-.653.603-.89 0 0 .004 0 .004-.003.056-.034.116-.067.18-.1.066-.034.14-.064.216-.094.683-.246 4.003-.216 4.583-.216 1.027 0 2.364-.014 3.814-.037.22-.267.516-.463.943-.473.313 0 .683.1 1.083.44a4.496 4.496 0 01.327-.034l.18-.016c.037-.004.07-.007.107-.007.056-.003.116-.01.176-.013.037-.004.077-.007.117-.007l.197-.01c.036-.003.073-.003.11-.007l.283-.01c.03 0 .057-.003.087-.003.09-.003.183-.007.276-.007.047 0 .094-.003.137-.003l.203-.003c.054 0 .107 0 .157-.004.067 0 .133 0 .2-.003h.533c.067 0 .137 0 .207.003.12 0 .243.004.363.007.047 0 .094.003.14.003.077.004.154.004.23.007.047 0 .094.003.14.003.077.004.157.004.234.007.043 0 .086.003.133.003l.247.01c.033 0 .066.004.096.004.424.02.844.043 1.25.073.014 0 .027.003.04.003.1.007.197.014.294.024.013 0 .023.003.036.003 1.85.153 3.32.423 3.32.8.014.093-.013.197-.1.307.15-.194.33-.494.374-.6.06-.15.173-.35.173-.74-.003-.657-.433-.977-.52-1.06zm-9.08 4.66c-.003.04-.003.08-.006.116-.004.03-.004.06-.007.09l-.01.127c-.003.027-.003.053-.007.077a3.528 3.528 0 01-.01.126l-.006.06-.02.154c.66.02 1.703.123 2.363.226.2-.243.613-.666 1.2-.666.073 0 .143.01.213.023.017.003.034.01.047.013.053.014.103.03.153.05.014.007.024.014.037.017.053.027.103.053.15.087.007.003.013.01.017.013.636.453.91 1.54.91 2.007v.143c.046-.287.073-.627.073-.993 0-.6-.073-1.134-.183-1.464-.194-.61-.647-1.073-1.41-1.073-.587 0-1.077.217-1.274.457-.656-.104-1.536-.22-2.193-.24-.01.186-.02.42-.037.65zm-7.883 1.873c.047-.584.36-.81.727-.934.113-.036.227-.063.343-.086.027-.007.06-.01.094-.013.066-.01.146-.017.236-.027.01 0 .02-.004.034-.004h.01c.093-.006.2-.016.316-.023h.024c.01 0 .02 0 .03-.003.046-.004.096-.007.146-.007h.024c.05-.003.1-.007.153-.007h.02c.013 0 .027 0 .04-.003l.263-.01c.017 0 .034 0 .05-.003l.304-.01h.043c.053 0 .107-.004.16-.004h.02c.067-.003.133-.003.2-.003h.043c.037 0 .07 0 .107-.003h.26c.087-.004.177-.004.263-.004h.377c.09 0 .18 0 .27-.003h.343a1.574 1.574 0 01-.046-.193v-.004l-.01-.053c-.017-.08-.03-.166-.047-.26 0-.01-.003-.016-.003-.026v-.004c-.004-.013-.004-.023-.007-.036v-.007c-.04-.27-.077-.56-.11-.754-1.447.007-3.123.05-3.603.14-.324.064-.747.244-.9.48-.337.457-.424.87-.424 1.23 0 .517.18.954.38 1.11a.728.728 0 01-.13-.476zm.443 4.06c-.324-.737.283-1.09 1.09-1.193a31.9 31.9 0 012.4-.28c.016 0 .033-.004.05-.004l.346-.03.09-.006.314-.024.153-.01.253-.02c.114-.006.227-.016.34-.023l.064-.003a80.772 80.772 0 011.993-.11c.727-.05 1.443-.047 2.303.006a2.678 2.678 0 01-.02-.246v-.004c0-.016 0-.036-.003-.053v-.003c-.003-.1-.003-.207-.003-.314v-.22l.003-.073v-.033c.003-.05.003-.097.007-.144 0-.01 0-.023.003-.033.003-.05.007-.097.007-.14-.86-.05-1.577-.053-2.304-.007-1.993.087-4.616.28-6.003.514-.43.056-.793.183-1 .4-.22.213-.367.62-.367 1.093 0 .443.13.833.33 1.057-.013-.04-.033-.067-.046-.097zm13.777.653c-.013-.01-.026-.023-.04-.03-.167-.116-.417-.19-.733-.2-5.55-.18-9.327.127-9.953.17 0 .004 0 .01.003.014.003.03.01.063.013.096v.007a.191.191 0 01.004.043l.003.03v.014c0 .006 0 .013.003.02.007.07.01.146.014.22v.3l-.01.176v.017c-.004.017-.004.03-.007.047 0 .006 0 .01-.003.016-.01.064-.024.1-.037.1h.037c.026 0 .063-.003.113-.006.023 0 .047-.004.077-.004.913-.043 4.509-.216 9.739-.046.667.02 1.057.323.951.713a.557.557 0 01-.087.223c.2-.18.346-.52.346-.923.004-.453-.196-.847-.433-.997z" fill="#00669D"/>
	<path d="m100.426 75.663s.353.64 1.587.654c1.213.016 2.256-.884 2.353-1.39.073-.54.28-5.414.29-6.954 6.47 1.434 10.223.427 10.223.437.047.05-.556.863-.493 4.423.027 0-8.6-.78-8.953 1.384-.04.256-.19 1.02.4 1.17 5.223 1.443 11.126.236 11.423-.277 1.49-3.007 1.523-7.537 1.523-7.657.01-.466-.136-1.176-1.216-1.736-5.317-2.744-13.28.103-13.394.153l-.03-.04-.01-.01-.013-.01c-.81-.54-1.58-.75-2.267-.747-3.07.024-3.306 1.67-3.313 1.68l-.007.01-.006.017c-.284.367.47 4.17.71 5.27.563 2.617 1.193 3.623 1.193 3.623zm19.39 3.577c0-.83-7.17-1.147-9.823-.817-.4-.34-.77-.44-1.083-.44-.427.01-.727.204-.944.474-1.446.02-2.783.036-3.813.036-.58 0-3.9-.03-4.583.217-.674.257-.974.623-1.004 1.083.024.374.374.49 1.267.737 1.363.36 7.23.487 7.583.483.064.244.154 1.17.257 1.51-1.493.004-3.327.047-3.827.14-.5.1-1.01.26-1.073 1.02-.037.47.337.79 1.08.96.427.097 7.547-.03 8.797-.24-.02-.04-.1 1.144-.037 1.64a18.36 18.36 0 00-2.303-.006c-1.994.086-4.617.28-6.004.513-.81.103-1.413.457-1.09 1.193.1.23.327.37.607.457.013.197.083 1.103.137 1.45 0 0 .173 1.603 1.986 1.657 1.38.11 4.464-.034 4.81-.047 5.744-.217 6.33-.65 6.414-1.167.106-.386-.284-.69-.95-.713-6.02-.193-9.88.063-9.967.057.08 0 .08-.97-.02-1.25 2.317-.077 5.353-.364 6.663-.68.17.23.417.336.667.336 2.25 0 2.123-3.396 2.123-3.513 0-.597-.44-2.213-1.526-2.213-.587 0-1 .423-1.2.666a22.688 22.688 0 00-2.364-.226c.054-.377.097-1.304.114-1.64 7.546.003 9.196-1.08 9.106-1.677zm66.864 11.32c.187-.367 1.207-2.51-.243-2.647-1.517-.14-2.414 1.667-2.49 2.627-1.144-.007-2.29-.013-3.334-.023-.366-2.56-1.93-2.38-2.53-2.177-.907.617-.14 1.92-.026 2.137-.33-.01-4.447-.29-4.474 1.103-.03 1.477 4.493 1.327 6.824 1.374 9.873.196 10.446-1.404 10.466-1.714-.036-.43-1.006-.756-4.193-.68zm7.26-10.96c-.467-.133-1.19-.22-2.26-.24-.04 0-.08 0-.12-.003-2.167-.034-5.25-.04-8.254-.05-.476-.437-.906-.624-1.286-.63-.517 0-.9.293-1.17.62a335.847 335.847 0 01-4.7-.047c-4.667-.093-6.624.56-6.857 1.453.007.43.473.767 1.563 1.094 1.66.483 4.717.706 8.004.773.436.01.876.013 1.316.017.09.41.247 1.046.424 1.73-.77-.04-4.19-.104-4.68.136-.477.247-.664.51-.687.924-.22 1.773 5.32 1.273 6 1.246.223.344.513.494.817.5h.006c.524 0 1.02-.346 1.28-.636 1.507-.03 6.194-.197 6.3-1.36.054-1.104-4.973-.647-5.703-.67.103-.577.193-1.387.23-1.904 3.473-.086 6.433-.3 7.313-.526a10.463 10.463 0 002.03-.767c.62-.327 1.11-.66 1.14-1.057-.006-.283-.25-.473-.706-.603z" fill="#fff"/>
	<path d="m195.37 72.59a33.51 33.51 0 00-8.126-5.043 10.29 10.29 0 01-.297.313c-.087.087-.173.177-.267.267a15.518 15.518 0 01-.313.3c-.023.02-.043.04-.067.06-.11.1-.223.203-.343.306-.097.084-.057.04-.17.147.15.037.307.083.463.133.04.014.084.027.124.04.143.047.29.097.436.154l.047.016c.163.06.327.13.493.197.044.02.087.037.134.057.143.063.286.126.433.193l.083.04c.167.08.337.16.507.247l.137.07c.14.07.28.143.423.22.037.02.073.036.11.056.17.09.337.184.507.277.043.023.086.05.13.073.14.08.276.157.413.237.04.023.077.047.117.067.166.096.33.196.496.296.037.024.074.044.11.067.137.083.274.167.407.253l.113.07a27.515 27.515 0 01.544.347c.136.087.27.177.4.263.033.024.066.044.096.064.15.1.297.196.437.293l.017.01c.14.093.27.187.4.277l.066.046c.267.187.51.357.727.514.007.003.013.01.02.016.667.48 1.077.794 1.077.794.8.756.646 1.543.07 2 .393-.25.726-.917.77-1.8.036-.827-.31-1.59-.724-1.937zm-14.851 11.41-.04-.153c-.01-.034-.016-.067-.026-.1l-.03-.12c-.01-.037-.017-.074-.027-.11-.01-.034-.017-.07-.027-.104-.01-.037-.016-.076-.026-.113l-.02-.084c-.01-.04-.02-.08-.027-.116-.003-.02-.01-.037-.013-.057l-.067-.283c-1.167-.057-3.823-.15-4.293.056-.35.154-.504.28-.614.437-.233.263-.45.777-.45 1.357 0 .64.337 1.163.614 1.397a.722.722 0 01-.237-.634c.023-.413.21-.677.687-.923.096-.047.31-.084.596-.11h.007c.143-.014.303-.023.473-.034a38.74 38.74 0 012.34-.026h.007l.5.01h.033c.074.003.14.003.207.006h.023c.06.004.114.004.167.007h.027c.053.004.103.004.15.007h.03c.043.003.086.003.12.007-.02-.08-.044-.16-.064-.24-.01-.027-.013-.054-.02-.077zm-12.589-9.817c.127-.153.253-.3.38-.446.087-.104.177-.207.263-.31a152.404 152.404 0 00.404-.463c.083-.097.166-.197.25-.29a109.816 109.816 0 01.8-.903c.093-.108.186-.208.28-.311.723-.8 1.423-1.543 2.1-2.23l.146-.15.004-.003.256-.257c.107-.107.21-.21.317-.313l.157-.157c.18-.177.36-.35.54-.52.003-.003.006-.003.006-.007.07-.066.137-.13.207-.193l.457-.427a.105.105 0 01.01-.01l.346-.316.18-.164.004-.003c.113-.103.226-.2.34-.297l.17-.15.003-.003c.163-.14.323-.277.483-.41.084-.07.167-.14.25-.207l.247-.203c.003-.003.007-.003.007-.007.203-.166.403-.326.603-.48l.007-.006.253-.194.323-.246.004-.004c.086-.066.173-.13.26-.19.063-.046.13-.093.193-.14l.057-.04c.163-.116.323-.226.48-.333.106-.073.213-.143.316-.213.004 0 .004-.004.007-.004.037-.023.073-.046.107-.07.003-.003.006-.006.01-.006.066-.044.13-.084.193-.124.077-.05.153-.096.227-.143l.083-.05c.21-.127.413-.25.613-.363l.087-.05h.003l.204-.11.19-.104h.003c.113-.06.227-.12.34-.173.043-.023.087-.047.13-.067l.133-.063c.074-.037.15-.07.22-.107 0 0 .004 0 .004-.003.18-.083.356-.16.53-.23a7.67 7.67 0 01.26-.107c.006-.003.013-.003.016-.006l.304-.114c.086-.03.17-.056.253-.086l.08-.027c.07-.023.14-.043.207-.063l.186-.057c.007 0 .01-.003.017-.003.07-.02.14-.037.207-.054.05-.013.1-.026.15-.036.003 0 .006 0 .006-.004l.134-.03c.053-.01.106-.023.156-.033.064-.013.127-.023.187-.033.033-.007.067-.014.1-.017.087-.013.167-.027.25-.037h.003c.114-.016.227-.026.337-.036h.003c.084-.007.164-.014.244-.017.37-.017.71-.003 1.02.033h.006c.03.004.057.007.087.014l.117.016h.003a4.42 4.42 0 01.6.137h.003c.05.017.1.03.15.047.094.03.18.063.267.1.02.006.04.016.06.023.003 0 .003.003.007.003l.11.05.063.03a3.718 3.718 0 01.533.31c.077.054.147.107.214.157.326.263.513.507.58.62.016.027.03.06.046.09.004.01.007.02.014.03l.03.077.01.03.03.103c0 .007.003.01.003.013.02.087.037.187.047.29v.017c.003.05.006.1.006.153v.01c0 .117-.003.24-.02.374.134-.38.214-.874.214-1.41 0-.714-.14-1.347-.357-1.744l-.02-.043a1.286 1.286 0 00-.097-.143c-.876-1.124-6.44-5.764-21.02 11.636-.553.66-.923 1.224-1.113 1.694-.157.33-.263.76-.317 1.24a4.094 4.094 0 00-.026.353c0 .023-.004.047-.004.07l-.003.053c0 .01 0 .017.003.027-.01.873.237 1.597.62 1.847-.393-.417-.763-1.36.847-3.284zm26.604 4.1s0-.003 0 0l-.007-.007a.583.583 0 00-.043-.04c-.117-.11-.3-.2-.547-.27-.467-.133-1.19-.22-2.26-.24l-.12-.003c-2.167-.033-5.25-.04-8.253-.05-.477-.436-.907-.623-1.287-.63-.517 0-.9.293-1.17.62a334.473 334.473 0 01-4.7-.046c-4.273-.087-6.343.453-6.827 1.233 0 0 0 .003-.003.003a1.88 1.88 0 00-.367 1.077c0 .543.237 1 .544 1.213a.615.615 0 01-.2-.44c.106-.407.57-.763 1.483-1.02.003 0 .003 0 .007-.003h.003c.243-.07.517-.13.827-.184h.006c.01-.003.024-.003.034-.006h.003c.207-.037.43-.067.667-.097.013 0 .023-.003.036-.003h.01c.354-.04.74-.073 1.16-.097h.004c.013 0 .023 0 .036-.003.124-.007.254-.014.384-.017h.013c.033 0 .07-.003.107-.003h.003c.287-.01.59-.017.91-.02h.57c.193 0 .393.003.597.007 1.266.026 2.913.04 4.7.046.266-.326.653-.62 1.17-.62.38.007.81.193 1.286.63 3 .01 6.087.017 8.254.05a276.077 276.077 0 01.493.013c.043.004.083.004.123.007.014 0 .03 0 .044.004l.073.003c.13.007.257.013.377.023.013 0 .023 0 .036.004a8.557 8.557 0 01.507.053l.03.003h.003c.277.037.507.084.694.137.456.13.703.323.703.597a.598.598 0 01-.083.25c.23-.204.403-.604.403-1.07-.003-.487-.213-.904-.433-1.104zm-5.027 4.857c-.907-.577-4.35-.35-5.364-.323v.013c-.006.08-.013.163-.023.25l-.003.023c-.007.08-.017.157-.027.24v.004l-.01.096v.004l-.05.403-.01.08c0 .007-.003.013-.003.02-.007.037-.01.07-.017.103-.007.04-.013.08-.017.12 0 .007-.003.014-.003.02-.013.09-.03.177-.043.26h.153c.04 0 .083-.003.13-.003h.033c.047 0 .097-.003.147-.007.043-.003.09-.003.14-.006h.03c.157-.007.333-.014.527-.024h.01c.166-.006.343-.013.526-.016h.054c.073-.004.146-.004.22-.007h.066c.077-.003.154-.003.234-.003h.05c.293-.004.593-.004.886.003h.037l.253.01c.014 0 .027 0 .044.003l.266.014h.014c.283.016.55.046.793.083.01 0 .02.003.027.003.07.01.136.024.2.037.006 0 .013.003.016.003.517.11.854.294.84.58a.486.486 0 01-.086.227c.23-.143.436-.52.456-.98 0-.17 0-.287-.01-.37-.046-.327-.26-.73-.486-.86zm1.29 6.583-.014-.02c-.016-.023-.04-.046-.063-.07l-.017-.016c-.353-.314-1.326-.587-3.476-.574.076-.246.12-.543.12-.863 0-.45-.09-.853-.23-1.133a.69.69 0 00-.13-.204c-.014-.013-.024-.026-.037-.04-.007-.006-.013-.016-.023-.023a.457.457 0 00-.194-.117 1.063 1.063 0 00-.296-.083c-1.51-.187-2.567 1.49-2.647 2.45-1.143-.007-2.03-.013-3.073-.023-.367-2.56-2.037-2.204-2.637-2a.968.968 0 00-.313.333c-.007.01-.01.02-.017.033a.996.996 0 00-.037.084c-.096.23-.16.563-.16.936 0 .207.02.397.054.57-1.054.004-3.68.147-4.097 1.064-.12.203-.197.553-.197.953 0 .493.254.87.424 1.03a.665.665 0 01-.154-.433c.027-1.394 4.144-1.114 4.474-1.104-.114-.216-.877-1.52.026-2.136.6-.204 2.164-.384 2.53 2.176 1.044.01 2.19.017 3.334.024.08-.96.973-2.767 2.49-2.627 1.446.137.426 2.28.243 2.647 3.183-.074 4.157.253 4.19.683-.003.063-.033.183-.163.333.206-.16.403-.513.403-.95a1.441 1.441 0 00-.313-.9z" fill="#00753F"/>
	<path d="m186.68 90.56c.187-.367 1.207-2.51-.243-2.647-1.517-.14-2.414 1.667-2.49 2.627-1.144-.007-2.29-.014-3.334-.024-.366-2.56-1.93-2.38-2.53-2.176-.907.617-.14 1.92-.026 2.136-.33-.01-4.447-.29-4.474 1.104-.03 1.477 4.493 1.326 6.824 1.373 9.873.197 10.446-1.403 10.466-1.713-.036-.43-1.006-.757-4.193-.68zm7.261-10.96c-.467-.133-1.19-.22-2.26-.24-.04 0-.08-.004-.12-.004-2.167-.033-5.25-.04-8.254-.05-.476-.436-.906-.623-1.286-.63-.517 0-.9.294-1.17.62a334.312 334.312 0 01-4.7-.046c-4.667-.094-6.624.56-6.857 1.453.007.43.473.767 1.563 1.093 1.66.484 4.717.707 8.004.774.436.01.876.013 1.316.017.09.41.247 1.046.424 1.73-.77-.04-4.19-.104-4.68.136-.477.247-.664.51-.687.923-.22 1.774 5.32 1.274 6 1.247.223.343.513.493.817.5h.006c.524 0 1.02-.347 1.28-.636 1.507-.03 6.194-.197 6.3-1.36.054-1.104-4.973-.647-5.703-.67.103-.577.193-1.387.23-1.904 3.473-.087 6.433-.3 7.313-.526a10.456 10.456 0 002.03-.767c.62-.327 1.11-.66 1.14-1.057-.006-.283-.25-.473-.706-.603zm1.309-5.273s-5.783-4.464-9.46-5.387c.114-.107.074-.063.17-.147 3.42-2.963 3.54-5.33 3.094-6.1-.424-.726-5.784-6.806-21.12 11.494-2.174 2.593-.737 3.406-.504 3.553.247.153 1.05.303 1.974.093 1.68-.376 12.843-6.093 14.483-7.46 3.287 3.727 8.623 5.75 9.123 6.04 1.724.984 3.804-.61 2.24-2.086z" fill="#fff"/>
	<path d="m193.999 66.957c.454.213 3.06-.92 3.06-.92.054-.247.127-.777.137-1.087.007-.157-.007-.23-.137-.313-.506-.487-2.87-.814-3.48 1.43a2.318 2.318 0 00-3.39-1.43c-.126.083-.133.156-.136.313-.004.24.086.85.14 1.097 0 0 .7 2.063 2.916.896.017.52-.066 1.94-.976 3.017-.494.583-.984 1-1.4 1.293.363.22.716.44 1.06.66.393-.426.78-.963 1.04-1.626.663-1.707 1.166-3.33 1.166-3.33z" fill="#00753F"/>
	<path d="m186.679 90.56c.187-.367 1.207-2.51-.24-2.647-1.516-.14-2.413 1.667-2.49 2.627-1.143-.007-2.29-.013-3.333-.023-.367-2.56-1.93-2.38-2.53-2.177-.907.617-.14 1.92-.027 2.137-.33-.01-4.446-.29-4.473 1.103-.03 1.477 4.493 1.327 6.823 1.373 9.874.197 10.447-1.403 10.467-1.713-.04-.43-1.01-.757-4.197-.68zm7.261-10.96c-.467-.133-1.19-.22-2.26-.24-.04 0-.08 0-.12-.004-2.167-.033-5.25-.04-8.254-.05-.476-.436-.906-.623-1.286-.63-.517 0-.904.294-1.17.62a334.312 334.312 0 01-4.7-.046c-4.667-.094-6.624.56-6.857 1.453.007.43.473.767 1.563 1.093 1.66.484 4.717.707 8.004.774.436.01.876.013 1.316.017.09.41.247 1.046.424 1.73-.77-.04-4.19-.104-4.68.136-.477.247-.664.51-.687.923-.22 1.774 5.32 1.274 6 1.247.223.343.513.493.817.5h.006c.524 0 1.02-.347 1.28-.636 1.507-.03 6.194-.197 6.3-1.36.054-1.104-4.973-.647-5.703-.67.103-.577.193-1.387.23-1.904 3.473-.087 6.433-.3 7.313-.526a10.456 10.456 0 002.03-.767c.62-.327 1.11-.66 1.14-1.057-.006-.283-.25-.473-.706-.603zm-4.303-6.313c.216-.114 1.346-.574 2.496-1.927.91-1.073 1.177-2.703 1.164-3.223-.667.17-2.507.416-3.104-2.1a2.318 2.318 0 013.39 1.43c.61-2.244 2.974-1.917 3.48-1.43-.55 2.493-2.64 2.34-3.183 2.083 0 0-.017 1.733-1.043 3.25-1.027 1.516-2.877 2.42-2.877 2.42l-.323-.504z" fill="#fff"/>
	<g fill="#037C3C">
		<path d="m72.303 44.177s.343.523 1.297.406c.953-.116 1.596-.55 1.756-1.256.08-.45.067-3.14-.25-5.5 5.197.683 8.084-.367 8.084-.36.04.036-.38.72-.087 3.516.02-.003-6.563-.296-6.96 1.707a.872.872 0 00-.013.143c.003.844 1.073.887 1.686.934 1.29.093 2.577.053 3.864-.11 1.18-.15 2.383-.347 3.473-.84.103-.047.317-.12.363-.237.967-2.473.68-6.043.674-6.137-.027-.37-.19-.92-1.077-1.283-4.377-1.797-10.577 1.007-10.577 1.007l-.01-.007a5.081 5.081 0 00-1.266-.507c-.997-.23-3.11.25-3.084 1.62-.076.63.664 3.28.93 4.134.63 2.02 1.197 2.77 1.197 2.77z"/>
		<path d="m79.707 48.801c.85-.052 1.458-1.37 1.36-2.943-.097-1.573-.865-2.805-1.713-2.752-.85.052-1.458 1.37-1.36 2.943.097 1.573.864 2.805 1.713 2.752z"/>
		<path d="m88.036 47.4c.404 1.063-3.866 3.147-8.89 3.343-5.023.197-8.84-.853-8.403-2.096.487-1.394 3.183-.887 8.2-1.25 5.063-.37 8.573-1.364 9.093.003z"/>
		<path d="m70.716 47.373s-.38 1.574.267 1.964l.94-1.217-1.207-.747zm17.308-1.34s.286.627.006 1.687l-.406.18-.417-.557.817-1.31zm-17.817-10.343s-.14.527-.027 1.813l.323-.73-.296-1.083z"/>
	</g>
	<g fill="#007960">
		<path d="m104.596 40.94c.167-.063.41-.256.36-.553.003-.07-.073-.217-.117-.27-.35-.383-.78-.303-1.206-.28-.367.023-.714.093-.88.103a.093.093 0 01-.044 0h-.016c-.314-.066-.804-.36-1.344-.533-.513-.16-1.196-.233-1.707-.17-.256.046-.486.066-.693.32a.232.232 0 01-.023.036.573.573 0 00-.064.24c.027.394.337.51.597.674.13.07.263.14.38.21-1.773.907-3.68 2.42-3.447 4.46.007.047.01.093.02.147.16.836 1.024 1.626 1.734 2.083.983.61 2.167.93 3.32.933 2.4.027 5.007-1.483 4.99-3.99 0-.017 0-.03-.003-.047-.067-1.493-.924-2.53-1.857-3.363zm-1.807 4.91c-.336.163-.726.25-1.123.26-.993.034-1.967-.43-2.157-.986a1.67 1.67 0 01-.106-.46c-.104-1.037.92-2.174 2.18-2.62.303.156 1.493.86 1.733 1.483a2.3 2.3 0 01.193.79c.037.687-.236 1.3-.72 1.533z"/>
		<path d="m114.442 43.517c-.13 4.266-2.203 8.396-3.17 8.366-.966-.03-.43-3.703-.3-7.97.13-4.266-1.46-7.016.394-7.49 1.136-.293 3.206 2.827 3.076 7.094z" clip-rule="evenodd" fill-rule="evenodd"/>
		<path d="m110.412 43.413c1.832-.182 3.256-.941 3.181-1.696s-1.621-1.219-3.453-1.037-3.256.942-3.181 1.697 1.621 1.219 3.453 1.036zm.546 3.641c1.62-.16 2.882-.796 2.82-1.42-.062-.622-1.425-.996-3.044-.835s-2.882.797-2.82 1.42c.062.622 1.425.996 3.044.835z"/>
		<path d="m106.956 40.953s-.13 1.52.09 1.677l.673-.583.117-.507-.88-.587zm.956 3.887s-.167 1.443.143 1.673l.69-.586.117-.55-.95-.537zm-9.039-6.4s-.04.297-.007 1.393l.86-.57-.853-.823zm6.086.687-.01 1.226-.77-.833.78-.393zm-8.586 4.25s-.09.853.02 1.8l.356-1.084-.376-.716zm10.063-.514s.126.654 0 1.764l-.437-1.11.437-.654zm4.113-7.026s-.303.853-.03 2.86l.157-1.567-.127-1.293zm.161 12.493s-.027 1.197.01 2.03l.326-.693-.336-1.337z"/>
	</g>
	<g fill="#2E7A39">
		<path d="m127.033 40.313c.097 2.507-.657 4.574-1.68 4.61-1.023.04-1.933-1.96-2.03-4.47-.083-2.2-.31-3.776 1.027-4.406.416-.197.916-.243 1.34-.07 1.18.487 1.26 2.187 1.343 4.337zm3.289 6.304c.012-1.169-.531-2.122-1.214-2.13-.683-.007-1.247.935-1.259 2.104-.013 1.169.531 2.122 1.214 2.13.683.007 1.246-.935 1.259-2.104zm12.144-3.797c0 .627-1.186 1.137-2.653 1.14-1.467.004-2.293-.52-2.293-1.143 0-.627.823-1.117 2.29-1.12 1.466-.004 2.653.496 2.656 1.123z"/>
		<path d="m135.656 47.913c.04.794-2.717 1.73-6.39 1.894-3.673.163-6.657-.917-6.527-1.7.184-1.104 2.66-.85 6.337-.927 3.697-.077 6.54-.13 6.58.733z"/>
		<path d="m139.796 43.233c-.7 4.367-3.383 8.337-4.37 8.177-.986-.16.36-3.973 1.06-8.34s-.876-7.297 1.09-7.54c1.207-.147 2.92 3.337 2.22 7.703z" clip-rule="evenodd" fill-rule="evenodd"/>
		<path d="m132.679 35.65c-.54-.007-1.023.3-1.213.807-.184.49-.087 1.07.016 1.566.12.574.167 1.104.134 1.69-.074 1.277-.39 2.527-.684 3.767l-.056.213c-.487-.033-1.074-.02-1.724-.016-1.753.01-3.173.42-3.17.913.004.56 1.264.713 1.627.77 1.08.167 2.257.153 3.343.037 2.207-.244 2.964-2.964 3.327-4.757.417-2.04.597-4.96-1.6-4.99z"/>
		<path d="m133.696 40.313c.01.647-1.26 1.19-2.84 1.214-1.576.023-2.713-.454-2.723-1.1-.01-.647 1.11-1.22 2.687-1.244 1.58-.023 2.866.484 2.876 1.13zm-10.956 6.511s-.13 1.343.076 1.563l.857-.747-.933-.816zm11.923.559.837-.753.41.753-.624.96-.596-.313-.027-.647z"/>
		<path d="m128.136 39.093s-.076 1.37.034 1.49l.493-.063.27-.693-.157-.427-.64-.307zm-2.149 4.19-.147 1.154.307.233.603-.083.613-.434.087-.52-1.463-.35zm16.479-1.796s.037.666-.007 1.413l-.506.16-.23-.467-.09-.516.423-.474.41-.116zm-19.203-4.837s-.05 1.687.027 2.98l.403-1.723-.43-1.257zm3.763 2.437s.064 1.353.014 1.806l-.174-.96.16-.846zm4.353-3.674s-.09.8-.013 1.807l.237-.73-.224-1.077zm3.154 1.424s.076 1.236 0 1.833l-.18-1.147.18-.686zm2.076-1.757s-.193.737-.063 2.533l.167-1.23-.104-1.303zm-1.533 14.037s-.1 1.02.017 1.813l.156-1.16-.173-.653z"/>
	</g>
	<g fill="#007A59">
		<path d="m161.017 36.79c.193-.067.383-.28.38-.593a.749.749 0 00-.134-.344c-.506-.603-1.053-.426-1.553-.426-.427.003-.83.07-1.023.076h-.05c-.014 0-.02-.003-.02 0-.377-.096-.99-.473-1.63-.7-.61-.21-1.4-.296-1.984-.2-.296.067-.556.104-.793.434-.007.016-.017.03-.023.046a.694.694 0 00-.074.3c.034.49.404.62.714.817.156.08.316.167.46.25-2.06 1.21-4.474 3.23-4.017 5.687.01.056.023.113.04.18.273 1.02 1.21 2.143 2.063 2.72 1.197.776 2.714 1.01 4.01.92 3.964-.277 5.99-2.65 6.117-5.304 0-.02-.003-.033-.003-.05-.064-1.62-1.257-2.78-2.48-3.813zm-2.04 5.89a2.68 2.68 0 01-.87.383c-.99.237-2.637.03-3.074-1.053a2.182 2.182 0 01-.146-.577c-.17-1.303 1.053-2.783 2.563-3.356.38.196 1.93 1.15 2.19 1.783.143.303.227.627.247.947a2.054 2.054 0 01-.91 1.873z"/>
		<path d="m155.548 50.02c.695-.042 1.188-1.195 1.103-2.573-.086-1.378-.718-2.46-1.413-2.417-.694.043-1.188 1.196-1.103 2.574.086 1.378.719 2.46 1.413 2.417zm4.713.26c.694-.042 1.188-1.194 1.103-2.573-.086-1.378-.718-2.46-1.413-2.417s-1.188 1.196-1.103 2.574c.086 1.378.718 2.46 1.413 2.417z"/>
		<path d="m166.13 48.097c.4.913-3.24 2.923-7.623 3.32-4.384.396-7.767-.354-7.444-1.46.364-1.24 2.744-.917 7.114-1.46 4.413-.544 7.44-1.57 7.953-.4zm-12.023-14.044s-.124 1.244.033 1.517l1.017-.32.28-.51-.5-.407-.83-.28z"/>
		<path d="m151.043 48.763s-.053.967 0 1.384h.68l.157-.49-.113-.647-.72-.323m15.113-1.84s.073.876-.007 1.456l-.42.197-.457-.293-.073-.534.957-.826zm-14.95-6.98s-.127 1.03.01 2.01l.24-1.02-.25-.99zm10.19-4.99s.083.813-.007 1.316l-.6-.983.607-.334zm2.08 4.313s.063.923.006 1.533l-.243-1.006.237-.527z"/>
	</g>
	<g fill="#FF0">
		<path d="m161.017 35.457c.193-.067.383-.28.38-.593a.75.75 0 00-.134-.344c-.506-.603-1.053-.427-1.553-.427-.427.004-.83.07-1.023.077h-.05c-.014 0-.02-.003-.02 0-.377-.096-.99-.473-1.63-.7-.61-.21-1.4-.297-1.984-.2-.296.067-.556.103-.793.433-.007.017-.017.03-.023.047a.694.694 0 00-.074.3c.034.49.404.62.714.817.156.08.316.166.46.25-2.06 1.21-4.474 3.23-4.017 5.687.01.056.023.113.04.18.273 1.02 1.21 2.143 2.063 2.72 1.197.776 2.714 1.01 4.01.92 3.964-.277 5.99-2.65 6.117-5.304 0-.02-.003-.033-.003-.05-.064-1.623-1.257-2.78-2.48-3.813zm-2.04 5.89a2.682 2.682 0 01-.87.383c-.99.237-2.637.03-3.074-1.053a2.182 2.182 0 01-.146-.577c-.17-1.303 1.053-2.783 2.563-3.357.38.197 1.93 1.15 2.19 1.784.143.303.227.627.247.947a2.054 2.054 0 01-.91 1.873z"/>
		<path d="m155.548 48.688c.695-.044 1.188-1.196 1.103-2.574-.086-1.378-.718-2.46-1.413-2.417-.694.043-1.188 1.195-1.103 2.573.086 1.378.719 2.46 1.413 2.417zm4.714.259c.694-.043 1.188-1.195 1.103-2.573-.086-1.378-.719-2.46-1.413-2.417-.695.043-1.188 1.195-1.103 2.573.086 1.378.718 2.46 1.413 2.417z"/>
		<path d="m166.13 46.763c.4.914-3.24 2.924-7.623 3.32-4.384.397-7.767-.353-7.444-1.46.364-1.24 2.744-.916 7.114-1.46 4.413-.543 7.44-1.57 7.953-.4zm-39.097-7.786c.097 2.506-.657 4.573-1.68 4.61-1.023.04-1.933-1.96-2.03-4.47-.083-2.2-.31-3.777 1.027-4.407.416-.197.916-.243 1.34-.07 1.18.49 1.26 2.19 1.343 4.337zm3.289 6.306c.012-1.168-.531-2.122-1.214-2.13-.683-.006-1.247.935-1.259 2.104-.013 1.169.531 2.123 1.214 2.13s1.246-.935 1.259-2.104zm12.144-3.796c0 .626-1.186 1.136-2.653 1.14-1.467.003-2.293-.52-2.293-1.144 0-.626.823-1.116 2.29-1.12 1.466-.003 2.653.497 2.656 1.124z"/>
		<path d="m135.656 46.58c.04.793-2.717 1.73-6.39 1.893s-6.657-.916-6.527-1.7c.184-1.103 2.66-.85 6.337-.927 3.697-.076 6.54-.13 6.58.734z"/>
		<path d="m139.796 41.9c-.7 4.367-3.383 8.337-4.37 8.177-.986-.16.36-3.974 1.06-8.34.7-4.367-.876-7.297 1.09-7.54 1.207-.147 2.92 3.336 2.22 7.703z" clip-rule="evenodd" fill-rule="evenodd"/>
		<path d="m132.679 34.316c-.54-.006-1.023.3-1.213.807-.184.49-.087 1.07.016 1.567.12.573.167 1.103.134 1.69-.074 1.276-.39 2.526-.684 3.767l-.056.213c-.487-.033-1.074-.02-1.724-.017-1.753.01-3.173.42-3.17.913.004.56 1.264.714 1.627.77 1.08.167 2.257.154 3.343.037 2.207-.243 2.964-2.963 3.327-4.757.417-2.04.597-4.96-1.6-4.99z"/>
		<path d="m133.696 38.98c.01.647-1.26 1.19-2.84 1.213-1.576.024-2.713-.453-2.723-1.1-.01-.646 1.11-1.22 2.687-1.243 1.58-.023 2.866.483 2.876 1.13zm-61.393 3.863s.343.524 1.297.407c.953-.117 1.596-.55 1.756-1.257.08-.45.067-3.14-.25-5.5 5.197.684 8.084-.366 8.084-.36.04.037-.38.72-.087 3.517.02-.003-6.563-.297-6.96 1.707a.872.872 0 00-.013.143c.003.843 1.073.887 1.686.933 1.29.094 2.577.054 3.864-.11 1.18-.15 2.383-.346 3.473-.84.103-.046.317-.12.363-.236.967-2.474.68-6.044.674-6.137-.027-.37-.19-.92-1.077-1.283-4.377-1.797-10.577 1.006-10.577 1.006l-.01-.006a5.085 5.085 0 00-1.266-.507c-.997-.23-3.11.25-3.084 1.62-.076.63.664 3.28.93 4.133.63 2.02 1.197 2.77 1.197 2.77z"/>
		<path d="m79.708 47.468c.85-.053 1.458-1.37 1.36-2.943-.097-1.573-.865-2.806-1.713-2.753-.85.053-1.458 1.37-1.36 2.944.097 1.572.864 2.805 1.713 2.752z"/>
		<path d="m88.036 46.067c.404 1.063-3.866 3.147-8.89 3.343-5.023.197-8.84-.853-8.403-2.096.487-1.394 3.183-.887 8.2-1.25 5.063-.37 8.573-1.364 9.093.003zm16.561-6.46c.166-.064.41-.257.36-.554.003-.07-.074-.216-.117-.27-.35-.383-.78-.303-1.207-.28-.366.024-.713.094-.88.104a.09.09 0 01-.043 0h-.017c-.313-.067-.803-.36-1.343-.534-.513-.16-1.197-.233-1.706-.17-.257.047-.487.067-.694.32a.232.232 0 01-.023.037.573.573 0 00-.064.24c.027.393.337.51.597.673.13.07.264.14.38.21-1.773.907-3.68 2.42-3.447 4.46.007.047.01.094.02.147.16.837 1.024 1.627 1.734 2.083a6.41 6.41 0 003.32.934c2.4.026 5.006-1.484 4.99-3.99 0-.017 0-.03-.004-.047-.066-1.493-.923-2.53-1.856-3.363zm-1.807 4.91c-.337.163-.727.25-1.123.26-.994.033-1.967-.43-2.157-.987a1.67 1.67 0 01-.107-.46c-.103-1.037.92-2.173 2.18-2.62.304.157 1.494.86 1.734 1.483.113.254.176.527.193.79.037.687-.237 1.3-.72 1.534z"/>
		<path d="m114.443 42.183c-.13 4.267-2.203 8.397-3.17 8.367-.966-.03-.43-3.703-.3-7.97s-1.46-7.017.394-7.49c1.136-.293 3.206 2.827 3.076 7.093z" clip-rule="evenodd" fill-rule="evenodd"/>
		<path d="m110.413 42.08c1.832-.182 3.256-.942 3.181-1.697-.075-.754-1.621-1.219-3.453-1.036-1.832.182-3.256.942-3.181 1.696.075.755 1.621 1.22 3.453 1.037zm.546 3.638c1.62-.161 2.882-.797 2.82-1.42s-1.425-.997-3.044-.836-2.882.797-2.82 1.42 1.425.997 3.044.836z"/>
	</g>
	<defs>
		<radialGradient id="paint0_radial" cx="0" cy="0" r="1" gradientTransform="translate(159.435 19.127) scale(1.09101)" gradientUnits="userSpaceOnUse">
			<stop stop-color="#007A59" offset="0"/>
			<stop stop-color="#007A59" offset=".746"/>
		</radialGradient>
		<radialGradient id="paint1_radial" cx="0" cy="0" r="1" gradientTransform="matrix(.8605 0 0 .8605 162.412 21.713)" gradientUnits="userSpaceOnUse">
			<stop stop-color="#007A59" offset="0"/>
			<stop stop-color="#007A59" offset=".746"/>
		</radialGradient>
		<radialGradient id="paint2_radial" cx="0" cy="0" r="1" gradientTransform="matrix(.88933 0 0 .88933 158.875 26.445)" gradientUnits="userSpaceOnUse">
			<stop stop-color="#007A59" offset="0"/>
			<stop stop-color="#007A59" offset=".746"/>
		</radialGradient>
		<radialGradient id="paint3_radial" cx="0" cy="0" r="1" gradientTransform="translate(162.843 26.332) scale(.85406)" gradientUnits="userSpaceOnUse">
			<stop stop-color="#007A59" offset="0"/>
			<stop stop-color="#007A59" offset=".746"/>
		</radialGradient>
		<radialGradient id="paint4_radial" cx="0" cy="0" r="1" gradientTransform="translate(172.646 28.573) scale(1.15604)" gradientUnits="userSpaceOnUse">
			<stop stop-color="#007A59" offset="0"/>
			<stop stop-color="#007A59" offset=".746"/>
		</radialGradient>
		<radialGradient id="paint5_radial" cx="0" cy="0" r="1" gradientTransform="translate(173.221 25.238) scale(.6746)" gradientUnits="userSpaceOnUse">
			<stop stop-color="#007A59" offset="0"/>
			<stop stop-color="#007A59" offset=".746"/>
		</radialGradient>
		<radialGradient id="paint6_radial" cx="0" cy="0" r="1" gradientTransform="matrix(.90712 0 0 .90712 175.289 24.39)" gradientUnits="userSpaceOnUse">
			<stop stop-color="#007A59" offset="0"/>
			<stop stop-color="#007A59" offset=".746"/>
		</radialGradient>
		<radialGradient id="paint7_radial" cx="0" cy="0" r="1" gradientTransform="matrix(.8781 0 0 .8781 169.736 20.767)" gradientUnits="userSpaceOnUse">
			<stop stop-color="#007A59" offset="0"/>
			<stop stop-color="#007A59" offset=".746"/>
		</radialGradient>
		<radialGradient id="paint8_radial" cx="0" cy="0" r="1" gradientTransform="matrix(.86825 0 0 .86825 170.389 18.11)" gradientUnits="userSpaceOnUse">
			<stop stop-color="#007A59" offset="0"/>
			<stop stop-color="#007A59" offset=".746"/>
		</radialGradient>
	</defs>
</svg>
