<svg viewBox="0 0 256 120" xmlns="http://www.w3.org/2000/svg">
	<path d="m229.511 98.55h-2.796a.12.12 0 00-.12.12v.55c0 .067.053.12.12.12h1.003v2.393c0 .067.057.12.12.12h.55a.12.12 0 00.12-.12v-2.393h1.003a.12.12 0 00.12-.12v-.55a.12.12 0 00-.12-.12zm3.81 0h-.607a.12.12 0 00-.11.073l-.84 1.947-.823-1.947a.121.121 0 00-.113-.073h-.604a.12.12 0 00-.12.12v3.067c0 .066.054.12.12.12h.547a.12.12 0 00.12-.12v-1.33l.52 1.373a.12.12 0 00.113.077h.494c.05 0 .093-.03.113-.077l.52-1.373v1.33c0 .066.053.12.12.12h.55a.12.12 0 00.12-.12v-3.067a.117.117 0 00-.12-.12z" fill="#008648"/>
	<path d="m229.511 98.55h-2.796a.12.12 0 00-.12.12v.55c0 .067.053.12.12.12h1.003v2.393c0 .067.057.12.12.12h.55a.12.12 0 00.12-.12v-2.393h1.003a.12.12 0 00.12-.12v-.55a.12.12 0 00-.12-.12zm3.81 0h-.607a.12.12 0 00-.11.073l-.84 1.947-.823-1.947a.121.121 0 00-.113-.073h-.604a.12.12 0 00-.12.12v3.067c0 .066.054.12.12.12h.547a.12.12 0 00.12-.12v-1.33l.52 1.373a.12.12 0 00.113.077h.494c.05 0 .093-.03.113-.077l.52-1.373v1.33c0 .066.053.12.12.12h.55a.12.12 0 00.12-.12v-3.067a.117.117 0 00-.12-.12z" fill="#00753F"/>
	<path d="m133.065 89.75c-.007 1.57.163 5.047.286 5.74.184 1.023 1.14 1.847 2.18 1.87.154.003 15.46.357 17.617.357h.14c2.19-.027 4.377-.067 6.567-.11 2.213-.044 5.366-.11 5.366-.11 1.05-.024 1.957-.897 2.024-1.944.006-.106.083-1.336.163-2.67l-34.343-3.133z" fill="#00669D"/>
	<path d="m94.928 93.18.072 2.67a1.88 1.88 0 002.01 1.843c.063-.003 6.147-.36 8.377-.36.846 0 2.32.067 4.023.147 2.637.12 5.92.27 8.867.27.273 0 .543-.004.806-.004 4.987-.05 8.954-.383 8.994-.39a2.026 2.026 0 001.826-2.093c0-.026-.056-1.17-.113-2.673l-34.863.59z" fill="#A62B44"/>
	<path d="m57.559 93.327c.066 1.68.103 2.67.103 2.67a2.05 2.05 0 001.997 1.943s.503.007 1.736.007c1.197 0 3.21-.007 5.987-.044l5.497-.076c3.816-.057 7.42-.11 9.556-.11.617 0 1.104.003 1.427.016l5.293.17h.054a2.047 2.047 0 002.026-1.856c0-.014.074-.867.157-2.697l-33.833-.023z" fill="#006D67"/>
	<path d="M19.432 93.01c.043 1.853.01 2.66.01 2.67-.024.52.16 1.013.513 1.397.353.383.833.603 1.35.623.04.003 4.207.157 10.52.157 2.457 0 5.82-.087 9.07-.174 1.24-.033 2.48-.063 3.667-.093 1.18-.027 2.323-.04 3.393-.04 2.473 0 3.743.073 3.757.077.036.003.076.003.113.003.5 0 1.033-.193 1.38-.543a1.82 1.82 0 00.523-1.327l-.04-2.753H19.432v.003z" fill="#AF3300"/>
	<path d="m170.385 85.513c0 6.803.26 9.98.283 10.113.177 1.02 1.127 1.817 2.163 1.817l19.83-.3a1.96 1.96 0 001.924-1.973c-.014-.644 0-1.927 0-2.67l-24.2-6.987z" fill="#A95B00"/>
	<path d="m172.805 94.773c-1.037 0-1.987-.8-2.164-1.816-.023-.137-.306-3.444-.283-10.554.02-5.646-.01-9.06-.013-9.093-.01-1.047.83-1.99 1.87-2.1.063-.007 6.286-.65 9.8-.65 3.5 0 10.256.373 10.323.377 1.037.056 1.95.946 2.037 1.98.006.063.133 1.596.133 6.18 0 6.193.073 13.336.077 13.41a1.959 1.959 0 01-1.924 1.973l-19.856.293z" fill="#FFB800"/>
	<path d="m31.825 95.187c-6.314 0-10.487-.157-10.53-.157a1.932 1.932 0 01-1.35-.623 1.93 1.93 0 01-.514-1.397c0-.017.064-1.607-.11-5.487-.176-3.906-.216-8.623-.25-12.413a400.72 400.72 0 00-.046-4.05c-.117-5.69.216-8.373.233-8.483.133-1.04 1.057-1.89 2.103-1.937.23-.01 5.647-.253 6.964-.257 2.203 0 22.59.597 23.456.624a1.893 1.893 0 011.84 2.013c-.003.043-.39 4.063-.383 6.817.003 1.35.517 11.043.627 17.483.056 3.223-.177 5.68-.177 5.767.007.503-.18.976-.523 1.326-.347.35-.88.544-1.38.544-.037 0-.077 0-.114-.004-.013 0-1.243-.076-3.716-.076-1.07 0-2.214.013-3.394.04-1.186.026-2.423.06-3.666.093-3.254.09-6.614.177-9.07.177z" fill="#FF7321"/>
	<path d="m118.278 95.08c-2.947 0-6.23-.15-8.867-.27-1.703-.077-3.176-.147-4.023-.147-2.23 0-8.387.357-8.447.36a1.88 1.88 0 01-2.01-1.843s-.126-7.15-.223-11.453c-.023-1.02-.167-4.797-.173-5.817l-.004-.5c-.006-.91.58-12.31.6-12.91a2.02 2.02 0 011.987-1.937c.033 0 3.303-.02 3.89-.033 1.797-.043 3.31-.083 4.7-.123 3.557-.1 6.273-.174 10.857-.154 3.296.017 11.093.384 11.17.387 1.046.05 1.936.943 1.98 1.99.013.337.346 8.243.246 10.12-.103 1.99-.436 8.7-.436 11.437 0 2.753.263 8.353.266 8.41.05 1.06-.77 2-1.826 2.093-.04.003-3.89.34-8.877.39h-.81z" fill="#FF528C"/>
	<path d="m153.151 95.046c-2.156 0-17.463-.353-17.616-.356-1.04-.023-1.997-.847-2.18-1.87-.014-.067-.294-1.66-.287-3.07.007-1.667.053-5.58.1-9.364.04-3.413.08-6.64.08-7.57 0-1.906-.393-9.966-.397-10.05a1.912 1.912 0 01.504-1.396c.35-.383.83-.607 1.346-.627.177-.007 4.314-.173 5.354-.173 1.37.003 2.746.063 4.08.127 1.213.056 2.47.113 3.703.123l.49.003c1.243 0 2.51-.037 3.737-.073 1.233-.037 2.506-.074 3.766-.074h.317c.623.004 8.89.217 9.243.227a1.967 1.967 0 011.91 1.987c0 .036-.046 3.473.014 5.89.03 1.153-.01 2.263-.05 3.337a52.012 52.012 0 00-.054 3.16c.027 1.246.077 2.5.124 3.71.103 2.536.206 5.163.096 7.806-.023.543-.006 5.863-.023 6.09-.063 1.047-.973 1.92-2.023 1.944l-5.53.11c-2.19.043-4.377.083-6.567.11h-.137z" fill="#00A8FF"/>
	<path d="m61.395 95.273c-1.234 0-1.84-.007-1.84-.007a2.05 2.05 0 01-1.997-1.943s.043-2.4-.097-6.073c-.193-5.087-.59-10.51-.616-15.993-.004-.684.416-8.177.43-8.494.05-1.046.94-1.94 1.986-1.993.034-.004 3.244-.164 5.564-.187 2.246-.023 4.62-.033 7.053-.033 2.72 0 5.553.013 8.657.043.62.007 8.876.323 9.223.337.527.02.997.246 1.327.636s.476.894.413 1.414c-.003.027-.063 2.92-.053 7.98.006 2.347-.5 6.363-.457 8.57.05 2.757.13 5.133.13 6.8 0 1.84.277 7.003.273 7.026a2.04 2.04 0 01-2.026 1.857h-.054s-3.433-.083-5.45-.146c-.323-.01-.81-.017-1.426-.017-2.137 0-5.74.053-9.557.11-1.873.03-3.767.056-5.497.077-2.776.03-4.786.036-5.986.036z" fill="#00B0A8"/>
	<path d="m182.147 79.993c-.093-2.523-7.08-2.543-11.783-2.37 0 1.33 0 2.93-.007 4.777-.003.743.004 1.437.01 2.097 6.377-.994 11.854-2.46 11.78-4.504zm.214 5.837c-2.967.76-7.27 1.733-11.94 2.667.05 1.923.123 3.2.17 3.873 5-.593 9.56-1.127 13.947-1.597 2.413-.256 6.1-.723 10.02-1.283-.017-2.197-.04-5.317-.047-8.413-2.233 1.823-7.38 3.53-12.15 4.753zm12.14-8.373c-.023-3.32-.12-4.49-.126-4.544-.087-1.033-1.004-1.92-2.037-1.98-.067-.003-6.823-.376-10.323-.376-3.514 0-9.737.643-9.8.65-1.04.11-1.88 1.053-1.87 2.1v.106c13.536-.193 21.406 1.89 24.156 4.044zm-1.839 17.016a1.958 1.958 0 001.923-1.973l-.017-1.73a1225.645 1225.645 0 01-22.926 3.643c.343.224.746.357 1.163.357l19.857-.297z" fill="#FFA600"/>
	<path d="M31.812 83.403c1.117-15.117 12.187-20.523 16.813-22.487a3688.03 3688.03 0 00-17.79-.483c-1.656 2.083-9.24 12.127-9.55 21.71-.18 5.617.527 10.004 1.244 12.927 1.683.047 4.99.12 9.296.12.487 0 1.02-.004 1.57-.01-1.006-2.944-1.936-7-1.583-11.777zM51.786 94.96c.5 0 1.033-.194 1.38-.544a1.82 1.82 0 00.523-1.326c0-.087.233-2.547.177-5.767-.064-3.537-.244-8.053-.397-11.633-1.08-.377-2.693-.684-4.013-.684-4.41 0-6.424 4.97-6.424 12.317 0 3.257.447 5.617 1.067 7.61l.463-.01c1.18-.027 2.324-.04 3.394-.04 2.473 0 3.703.073 3.716.077h.114z" fill="#FF450A"/>
	<g fill="#00A395">
		<path d="m91.114 86.323c0-1.663-.08-4.043-.13-6.8-.04-2.206.464-6.223.457-8.57-.007-2.61.006-4.636.023-5.996-7.34-2.563-17.947-3.363-29.08-2.81-1.513.077-3.526.22-5.08.4-.01.073-.03.143-.033.217-.01.236-.273 4.403-.373 6.826a60.905 60.905 0 014.733-.207c9.746 0 24.143 1.94 24.143 9.437 0 3.42-9.173 10.167-23.717 9.417-1.43-.073-3.163-.157-4.573-.25.057 1.737.073 3.14.077 4.07 2.937.257 6.243.393 9.247.526.66.03 1.31.054 1.95.077.206.007.413.01.62.017.443.013.883.023 1.316.03l.667.01c.453.007.903.01 1.35.01l.513.003c.59-.003 1.17-.007 1.743-.017.184-.003.36-.01.544-.013.403-.01.803-.02 1.2-.033l.66-.027c.363-.016.723-.033 1.08-.053.207-.01.41-.023.617-.034.486-.03.966-.063 1.44-.1l.453-.04c.413-.033.82-.073 1.22-.113.2-.02.397-.043.593-.066.314-.034.623-.07.927-.11.203-.024.403-.05.603-.08.323-.044.644-.09.957-.14.16-.027.323-.05.483-.074.444-.073.877-.147 1.303-.23.17-.033.337-.07.504-.103.276-.057.553-.114.823-.174.184-.04.434-.083.614-.126.256-.06.51-.124.756-.187l.5-.13c.207-.056.657-.113 1.017-.173-.07-1.557-.147-3.423-.147-4.383z"/>
		<path d="m56.97 74.853c.077 2.99.214 5.947.34 8.82 3.48-.326 7.694-.67 9.924-.906 2.533-.27 6.723-.017 7.683-3.167.944-3.083-4.493-4.703-6.67-4.703-1.553-.004-7.266-.267-11.276-.044z"/>
		<path d="m91.114 86.323c0-1.663-.08-4.043-.13-6.8-.04-2.206.464-6.223.457-8.57-.007-2.61.006-4.636.023-5.996-7.34-2.563-17.947-3.363-29.08-2.81-1.513.077-3.526.22-5.08.4-.01.073-.03.143-.033.217-.01.236-.273 4.403-.373 6.826a60.905 60.905 0 014.733-.207c9.746 0 24.143 1.94 24.143 9.437 0 3.42-9.173 10.167-23.717 9.417-1.43-.073-3.163-.157-4.573-.25.057 1.737.073 3.14.077 4.07 2.937.257 6.243.393 9.247.526.66.03 1.31.054 1.95.077.206.007.413.01.62.017.443.013.883.023 1.316.03l.667.01c.453.007.903.01 1.35.01l.513.003c.59-.003 1.17-.007 1.743-.017.184-.003.36-.01.544-.013.403-.01.803-.02 1.2-.033l.66-.027c.363-.016.723-.033 1.08-.053.207-.01.41-.023.617-.034.486-.03.966-.063 1.44-.1l.453-.04c.413-.033.82-.073 1.22-.113.2-.02.397-.043.593-.066.314-.034.623-.07.927-.11.203-.024.403-.05.603-.08.323-.044.644-.09.957-.14.16-.027.323-.05.483-.074.444-.073.877-.147 1.303-.23.17-.033.337-.07.504-.103.276-.057.553-.114.823-.174.184-.04.434-.083.614-.126.256-.06.51-.124.756-.187l.5-.13c.207-.056.657-.113 1.017-.173-.07-1.557-.147-3.423-.147-4.383z"/>
		<path d="m56.97 74.853c.077 2.99.214 5.947.34 8.82 3.48-.326 7.694-.67 9.924-.906 2.533-.27 6.723-.017 7.683-3.167.944-3.083-4.493-4.703-6.67-4.703-1.553-.004-7.266-.267-11.276-.044z"/>
	</g>
	<g fill="#FF2370">
		<path d="M113.282 60.256c-2.79.02-4.957.08-7.577.15-1.39.04-2.903.08-4.7.124-.213.003-.777.01-1.41.016-1.75 2.27-3.66 5.987-4.797 8.704-.14 2.9-.273 5.726-.27 6.163l.004.5c.006 1.02.15 4.797.173 5.817.1 4.303.223 11.453.223 11.453a1.88 1.88 0 002.01 1.843c.064-.003 6.217-.36 8.447-.36.847 0 2.32.067 4.023.147 1.624.073 3.494.16 5.38.213.05-.086.087-.156.094-.166a16.993 16.993 0 00.47-1.087l.08-.203c.146-.38.283-.78.413-1.197a30.356 30.356 0 00.377-1.367c.02-.073.036-.146.053-.22.11-.463.213-.943.307-1.443a33.886 33.886 0 00.276-1.71c.007-.05.017-.1.024-.153.28-2.13.44-4.5.47-7.117v-.12c.01-.86.003-1.74-.014-2.65-.17-8.3-1.803-14.1-4.056-17.337zM104.055 93.6c-4.787-1.05-7.17-3.207-7.563-11.804-.394-8.593 4.216-14.56 7.423-14.56 3.21 0 7.947 2.714 7.947 13.194-.004 4.78-3.024 14.216-7.807 13.17z"/>
		<path d="m101.991 75.303c-1.343 1.544-2.31 5.157-2.143 8.484.127 2.493.91 4.28 1.993 4.816 1.437.714 3.047.127 3.983-.806.994-.994 2.144-1.884 2.464-6.29.31-4.31-1.654-5.92-2.197-6.57-.927-1.11-2.817-1.11-4.1.366zm27.8 17.293c-.003-.057-.266-5.66-.266-8.41 0-2.737.336-9.443.436-11.437.097-1.876-.233-9.783-.246-10.12-.044-1.046-.934-1.943-1.98-1.99a628.2 628.2 0 00-4.244-.183c1.734 8.18 3.36 17.843 3.36 25.56 0 3.197-.236 6.143-.606 8.797 1.07-.07 1.706-.124 1.723-.127a2.023 2.023 0 001.823-2.09z"/>
		<path d="M113.282 60.256c-2.79.02-4.957.08-7.577.15-1.39.04-2.903.08-4.7.124-.213.003-.777.01-1.41.016-1.75 2.27-3.66 5.987-4.797 8.704-.14 2.9-.273 5.726-.27 6.163l.004.5c.006 1.02.15 4.797.173 5.817.1 4.303.223 11.453.223 11.453a1.88 1.88 0 002.01 1.843c.064-.003 6.217-.36 8.447-.36.847 0 2.32.067 4.023.147 1.624.073 3.494.16 5.38.213.05-.086.087-.156.094-.166a16.993 16.993 0 00.47-1.087l.08-.203c.146-.38.283-.78.413-1.197a30.356 30.356 0 00.377-1.367c.02-.073.036-.146.053-.22.11-.463.213-.943.307-1.443a33.886 33.886 0 00.276-1.71c.007-.05.017-.1.024-.153.28-2.13.44-4.5.47-7.117v-.12c.01-.86.003-1.74-.014-2.65-.17-8.3-1.803-14.1-4.056-17.337zM104.055 93.6c-4.787-1.05-7.17-3.207-7.563-11.804-.394-8.593 4.216-14.56 7.423-14.56 3.21 0 7.947 2.714 7.947 13.194-.004 4.78-3.024 14.216-7.807 13.17z"/>
		<path d="m101.991 75.303c-1.343 1.544-2.31 5.157-2.143 8.484.127 2.493.91 4.28 1.993 4.816 1.437.714 3.047.127 3.983-.806.994-.994 2.144-1.884 2.464-6.29.31-4.31-1.654-5.92-2.197-6.57-.927-1.11-2.817-1.11-4.1.366zm27.8 17.293c-.003-.057-.266-5.66-.266-8.41 0-2.737.336-9.443.436-11.437.097-1.876-.233-9.783-.246-10.12-.044-1.046-.934-1.943-1.98-1.99a628.2 628.2 0 00-4.244-.183c1.734 8.18 3.36 17.843 3.36 25.56 0 3.197-.236 6.143-.606 8.797 1.07-.07 1.706-.124 1.723-.127a2.023 2.023 0 001.823-2.09z"/>
	</g>
	<path d="m137.251 73.856c.103 2.787 8.86 5.977 23.58 7.14 2.293.184 4.346.29 6.59.35-.027-.793-.054-1.58-.087-2.36-.01-.29-.023-.59-.033-.886-.487-.02-.914-.034-1.374-.047-4.406-.117-13.246-.717-13.33-3.053-.086-2.337 7.854-1.73 11.27-1.854.644-.023 1.77-.05 3.367-.076l.03-.95c.023-.61.043-1.234.053-1.867-3.413.09-6.363.16-8.766.21-10.707.213-21.404.603-21.3 3.393zm-4.053 3.787c-.01.87-.02 1.8-.034 2.747-.013 1.216-.03 2.446-.043 3.61 1.91.323 3.56.713 5.787 1.08 6.576 1.09 18.296 1.876 28.506 2.05.01-.16.017-.277.017-.337.027-.647.04-1.293.047-1.937-2.35-.07-4.367-.166-6.534-.32-9-.643-21.373-3.693-27.746-6.893zm0-6.817c4.277-1.146 10.894-1.33 16.11-1.52 4.177-.153 11.007-.473 18.004-.8-.017-.813-.027-1.713-.027-2.553-7.303.327-25.463.793-34.233 1.233.053 1.247.106 2.557.146 3.64zm30.193-7.679c1.09-.034 2.424-.08 3.907-.134 0-.07.003-.116.003-.123a1.969 1.969 0 00-1.91-1.987c-.353-.01-8.62-.223-9.243-.227h-.317c-1.256 0-2.533.037-3.766.074-1.227.036-2.494.073-3.737.073l-.49-.003a97.077 97.077 0 01-3.703-.123c-1.334-.06-2.71-.124-4.08-.127-1.044 0-5.18.166-5.354.173-.516.02-.996.243-1.346.627-.35.383-.53.88-.504 1.397 0 .023.03.616.074 1.506 3.713-.33 7.21-.343 9.71-.346 6.293-.004 14.373-.58 20.756-.78zm1.997 31.679c1.05-.023 1.957-.896 2.024-1.943.003-.07.006-.637.006-1.397-8.156-.1-17.973-.383-23.946-1.14-4.15-.526-6.697-.963-10.374-1.27l-.026.03c-.004.24-.004.46-.004.647-.006 1.41.277 3 .287 3.07.183 1.023 1.14 1.847 2.18 1.87.153.003 15.46.357 17.617.357h.14c2.19-.027 4.376-.067 6.566-.11 2.21-.047 5.53-.114 5.53-.114z" fill="#0096FF"/>
	<path d="M236.841 79.507v-2.42l-.433.003c-.717-1.863-2.29-3.347-4.48-4.137.383-.826.59-1.726.597-2.633V67.9h-.46a6.528 6.528 0 00-1.534-2.273c-1.293-1.254-3.02-1.95-4.863-1.967h-.057c-.446 0-.893.043-1.33.123-1.036-3.416-4.276-5.763-8.05-5.763-3.713 0-6.953 2.31-8.023 5.67a6.435 6.435 0 00-.437-.013c-2.916 0-5.41 1.736-6.423 4.183h-.487v2.42c0 .91.197 1.81.574 2.637-2.147.79-3.864 2.466-4.61 4.5l-.44.003.07 2.42h.003c0 2.343 1.147 4.527 3.093 5.927a7.92 7.92 0 00-.543 1.136h-.51v2.517c-.003.08-.007.16-.007.243 0 4.41 3.757 8 8.374 8 1.086 0 2.15-.073 3.146-.46l.107 1.717c0 .71.52 1.283 1.16 1.283l10.83-.136c.64 0 1.16-.577 1.16-1.284l.127-2c1.166.507 2.62.75 4.44.75 3.216 0 7.356-1.8 8.056-6.866a7.5 7.5 0 00.067-1.05h.007v-2.714h-.47c-.304-.856-.86-1.613-1.334-2.203 1.69-.867 2.66-2.717 2.68-5.193z" fill="#00753F"/>
	<path d="m222.258 97.643-11.137.137c-.64 0-1.16-.577-1.16-1.283l.013-.114.414-1.753c-1.1.49-2.304.607-3.53.607-4.617 0-8.374-3.587-8.374-8 0-1.374.367-2.71 1.06-3.897-1.946-1.4-3.163-3.58-3.163-5.923 0-3.067 2.09-5.834 5.047-6.924a6.37 6.37 0 01-.574-2.636c0-3.644 3.1-6.607 6.91-6.607.144 0 .29.003.437.013 1.07-3.356 4.31-5.67 8.023-5.67 3.774 0 7.014 2.347 8.05 5.764.44-.084.887-.124 1.33-.124h.057c1.843.017 3.57.714 4.863 1.967 1.3 1.26 2.007 2.927 1.99 4.697-.01.91-.213 1.81-.596 2.633 3.073 1.107 4.943 3.573 4.916 6.553-.023 2.477-.99 4.327-2.69 5.194 1.09 1.353 2.064 3.556 1.73 5.963-.7 5.07-4.84 6.867-8.056 6.867-2.13 0-3.764-.33-5.017-1.03l.603 2.28c.01.71-.51 1.286-1.146 1.286z" fill="#00A971"/>
	<path d="M230.778 94.597c-9.414-.774-21.37-2.734-31.947-5.1 1.023 3.316 4.23 5.746 8.027 5.746 1.226 0 2.43-.116 3.53-.606l-.414 1.753-.013.113c0 .707.52 1.284 1.16 1.284l11.137-.137c.64 0 1.16-.577 1.16-1.283l-.604-2.28c1.254.7 2.887 1.03 5.017 1.03.94 0 1.96-.16 2.947-.504-.004-.01 0-.013 0-.016zM234.154 82.276a4.406 4.406 0 001.33-1.06c-10.11-.693-21.993-2.376-22.143-6.28-.157-3.983 10.89-4.053 19.483-4.02a9.264 9.264 0 00-.893-.383 6.33 6.33 0 00-.123-5.62c-1.697.037-3.304.07-4.804.097-8.486.163-17.953.466-25.853.963a6.292 6.292 0 00-.29 1.883c0 .907.197 1.81.573 2.637-2.956 1.09-5.046 3.86-5.046 6.923 0 2.344 1.216 4.527 3.163 5.924l-.007.01c8.707 1.953 20.23 3.75 32.7 4.69 1.16.086 2.464.16 3.634.233 0-.013-.007-.033.006-.037.334-2.4-.64-4.606-1.73-5.96zM216.23 55.6c-3.713 0-6.95 2.31-8.023 5.67 0 0 8.933-.28 15.833-.577-1.233-3.05-4.29-5.093-7.81-5.093z" fill="#00A059"/>
	<path d="m48.208 63.893c-.947-.913-5.377-1.523-6.52 2.677a4.347 4.347 0 00-6.354-2.677c-.24.16-.31.3-.253.59.07.357.153.74.253 1.2h.664c1.46 2.77 4.096 2.414 5.156 2.144.057 2.013-.016 3.753-.016 3.753h1.146l-.043-3.783c.85.4 3.7.656 5.227-1.96l.74-.154c.1-.46.183-.843.253-1.2.057-.29-.013-.43-.253-.59z" fill="#AF3300"/>
	<path d="m47.638 90.554-3.08-5.15a.448.448 0 00-.567-.18s-.14.063-.387.153c-.753.287-2.5.84-4.16.84-.313 0-.607-.02-.907-.06-.96-.133-1.916-.507-2.603-1.027-.69-.52-1.09-1.16-1.09-1.88 0-.226.047-.473.133-.736.247-.73.78-1.44 1.52-2.107 1.45-1.233 3.804-2.543 7.394-3.963.58-.22 1.087-.4 1.456-.554a.451.451 0 00.264-.533l-1.083-4.277a.455.455 0 00-.54-.333c-.02.01-4.994 1.183-9.394 3.717a84.067 84.067 0 00-1.507-4.19c-1.286-3.217-2.366-5.094-2.37-5.114a.485.485 0 00-.296-.213.509.509 0 00-.354.057l-5.873 3.786a.477.477 0 00-.203.294c-.02.12.006.243.073.353 0 0 2.157 3.363 3.814 5.67.603.847 1.42 1.91 2.23 2.913-.047.06-.094.107-.14.16-1.667 1.604-2.84 3.55-2.84 5.864-.007 2.866 1.46 5.166 3.48 6.646 1.28 1.04 2.993 1.767 4.96 2.117 1.016.173 2.033.25 3.036.25 4.953 0 8.507-1.74 8.803-1.843a.452.452 0 00.23-.66z" fill="#AF3300"/>
	<path d="m68.794 68.553s1.55.214 3.8.987c1.677.53 3.694 1.327 4.964 2.243a.417.417 0 00.263.094c.14 0 .28-.07.367-.184l2.803-3.846a.483.483 0 00-.04-.597s-1.237-1.317-3.357-2.547c-1.526-1.033-4.41-2.173-6.55-2.5a.46.46 0 00-.477.287l-2.13 5.453a.449.449 0 00.357.61zm13.134 6.204c-1.144-1.347-3.424-2.6-7.75-2.6-5.627 0-9.86 2.47-9.883 2.48a.462.462 0 00-.164.61l2.86 5.273c.057.103.163.19.273.223.117.027.247.01.347-.04 1.453-.836 3.903-1.786 6.097-1.773.737-.007 1.44.093 2.08.337a2.554 2.554 0 011.39 1.193c.17.4.246.837.246 1.26.007.99-.41 2.023-1.066 2.94-1.167 1.62-2.663 2.883-3.874 3.737-.77.596-2.006 1.286-2.006 1.286a.463.463 0 00-.247.31c-.03.13.007.277.094.384l2.175 2.703a.446.446 0 00.493.147c4.377-1.35 7.47-4.154 8.994-7.877.677-1.343 1.133-2.957 1.33-4.917.037-.386.056-.786.056-1.203.004-1.49-.313-3.14-1.446-4.473z" fill="#006D67"/>
	<path d="m111.974 73.7 2.457-3.56a.162.162 0 00.043-.076l1.23-1.617a.449.449 0 00-.026-.58c-.054-.057-1.277-1.337-4.534-2.247-.44-.136-.953-.29-1.536-.426-2.794-.67-4.557-.767-5.064-.78-.096-.004-.15 0-.15 0-.2 0-.366.123-.43.313-.013.027-.486 1.53-.546 3.967-.014.546-.014 1.146.04 1.786 0 .03 0 .054.006.087.014.26.027.513.05.787a.452.452 0 00.484.41s.636-.04 1.506-.017c.584.013 1.27.057 1.917.163-.667 1.184-1.44 2.804-1.963 3.687a.444.444 0 00.13.603s.436.294 1.063.777c.443.38 3.083 2.583 3.743 4.823.557 1.93.244 3.224-.97 4.39-.64.67-1.596.77-2.606.75-.497-.01-1.037-.106-1.594-.24a.448.448 0 00-.546.304l-1.044 3.496a.452.452 0 00.13.467c.02.02.437.39 1.204.807a8.629 8.629 0 004.016 1.126c.084 0 .157-.003.224-.003h.033c.797.02 1.603-.11 2.38-.35a.274.274 0 00.107-.033c.07-.03.13-.044.18-.064.053-.02.12-.04.19-.07 2.876-1.113 5.303-3.93 5.39-7.543.04-.317.056-.637.063-.963.01-.32.01-.65-.013-.987-.237-4.073-2.357-6.69-5.564-9.187zm14.947 14.81c-.007-.007-1.203-5.173-2.703-8.863a.47.47 0 00-.534-.27l-3.33.873a.462.462 0 00-.34.54s.32 1.427.627 3.11c.337 1.8.68 4.05.85 5.717.01.13.08.25.18.32.08.056.18.093.267.093.033 0 .063 0 .093-.013l4.54-.957a.482.482 0 00.29-.2.48.48 0 00.06-.35z" fill="#A62B44"/>
	<path d="m104.971 80.45a.434.434 0 00.02-.39.43.43 0 00-.286-.267l-4.834-1.456a.464.464 0 00-.546.233c0 .02-2.244 4.567-2.864 8.92a.46.46 0 00.247.47l.53.277c.01.003.01.01.01.01l2.383 1.23c.067.026.144.05.21.05a.415.415 0 00.157-.037.425.425 0 00.267-.25c1.09-2.68 1.89-3.837 3.41-6.577-.004 0 .383-.756 1.296-2.213zm22.871-17.127c-.95-.913-5.377-1.523-6.52 2.68a4.342 4.342 0 00-6.35-2.676c-.24.16-.31.3-.254.59.07.356.154.74.254 1.2h.656c1.464 2.77 4.097 2.41 5.157 2.143.03.977-.47 4.03-2.177 6.04-2.15 2.537-4.27 3.4-4.676 3.613l.383 1.604s3.677-1.76 5.6-4.6c1.923-2.844 1.957-6.687 1.957-6.687.853.403 3.703.657 5.23-1.957l.736-.153c.1-.46.184-.847.254-1.2.06-.297-.007-.44-.25-.597z" fill="#A62B44"/>
	<path d="m152.398 88.996-.886-1.536-1.027-1.664a.465.465 0 01-.053-.36.454.454 0 01.226-.276c.71-.377 1.787-.867 2.8-1.544 2.337-1.563 2.967-3.24 2.614-4.263-.564-1.633-2.037-3.003-4.92-3.023-4.794-.007-8.817 2.92-9.724 3.643-.123.093-.19.157-.19.157a.447.447 0 01-.686-.134l-.954-1.766-.006-.017h-.007l-2.537-4.733a.448.448 0 01-.043-.35.506.506 0 01.23-.27c.79-.404 1.56-.77 2.307-1.1 4.683-2.217 8.656-3.137 11.93-3.137 6.756-.017 10.51 4.003 10.816 8.293.037.4.047.794.047 1.167 0 2.613-.737 4.44-1.67 5.65-2.49 4.247-7.733 5.46-7.773 5.48a.429.429 0 01-.114.013.454.454 0 01-.38-.23z" fill="#00669D"/>
	<path d="m183.708 91.553-.45-1.16-.56-1.493a.451.451 0 01.204-.557c.633-.343 1.613-.886 2.423-1.7.807-.826 1.43-1.896 1.433-3.376 0-.084 0-.164-.006-.244-.37-1.32-1.254-2.353-2.514-2.906-.336 3.233-.923 5.693-1.806 7.42-.917 1.823-2.264 2.856-3.917 2.846-1.397.01-2.58-.643-3.383-1.713-.804-1.053-1.25-2.503-1.324-4.183-.003-.087-.003-.154-.003-.22v-.064c-.003-.15-.003-.31-.003-.466 0-.387.003-.797.03-1.25.223-4.867 4.076-8.404 9.163-8.394 2.733 0 4.893.944 6.34 2.48 1.443 1.53 2.18 3.62 2.177 5.88 0 .807-.09 1.64-.277 2.474-.2.92-.48 1.7-.797 2.353-1.673 3.667-6.19 4.533-6.223 4.553-.03.004-.063.004-.063.004h-.024a.444.444 0 01-.42-.284zm-6.633-7.32c0 .404.1.7.22.857.13.17.243.223.4.223.19.007.547-.136.933-.653.377-.513.774-1.357 1.047-2.613.137-.667.233-1.33.297-1.95-1.614.646-2.677 2.03-2.894 4.12-.003.006-.003.01-.003.016z" fill="#A95B00"/>
	<path d="m233.038 88.33c-.01-.014-.543-.934-1.563-2.147-1.093-1.35-2.94-3-5.203-4.587 1.036.024 2.683.047 3.903.047.197 0 .377-.15.4-.35l.417-3.337a.393.393 0 00-.314-.436c-.01-.004-1.516-.357-3.896-.547.046-.4.08-.813.116-1.223a.394.394 0 00-.323-.434l.317-.193a.386.386 0 00.15-.53c-.01-.017-1.217-1.907-2.48-3.04a13.131 13.131 0 00-3.664-2.41c1.97-.113 3.324-.21 3.324-.21a.42.42 0 00.386-.377l.2-3.37a.444.444 0 00-.106-.3.383.383 0 00-.28-.126 61.102 61.102 0 00-3.88-.117c-.557 0-1.09.007-1.61.02.036-.873.07-1.543.07-1.903 0-.204-.157-.367-.364-.4l-4.146-.46a.368.368 0 00-.307.093.383.383 0 00-.143.277c0 .006-.067 1.053-.084 2.743-3.733.43-5.803 1.093-5.823 1.1a.417.417 0 00-.277.453l.457 2.66c.03.187.2.33.39.334.277.003.56.01.867.01.653 0 1.376-.017 2.113-.027-.977 1.133-1.873 2.5-2.707 4.237-.27.52-.523 1.06-.776 1.646l-1.64-.083a.434.434 0 00-.317.133.406.406 0 00-.1.32l.237 1.8c-1.35.197-2.764.464-4.137.85a.407.407 0 00-.293.484l.7 2.896a.4.4 0 00.393.31h.01s1.073-.023 2.683-.116c-.98 1.653-3.266 5.773-4.03 7.656a.405.405 0 00.13.477l1.457 1.06c.07.057.15.077.23.077.123 0 .247-.05.317-.154l3.69-5.073.47 3.893c.03.194.186.34.39.347l2.923.083h.057c.106 0 .163-.043.233-.113a.405.405 0 00.13-.29l-.06-5.973a27.982 27.982 0 011.93 3.213.4.4 0 00.363.223c.05 0 .1-.01.157-.026l2.617-1.174c-.357.757-.57 1.264-.57 1.274a.398.398 0 00.17.493l1.766 1.063a.44.44 0 00.217.057c.107 0 .217-.05.3-.14 0 0 1.127-1.287 2.537-2.993.246-.304.49-.61.726-.92l.13 4.913c.01.217.194.393.41.393h.007l2.553-.04a.4.4 0 00.39-.353s.214-1.747.54-4.803c.6 1.036 1.344 2.45 1.987 4.246.04.117.133.204.25.247.04.017.08.017.127.017.07 0 .133-.014.186-.04.15.36.294.733.434 1.126.04.117.133.2.253.25.043.017.09.02.127.02.08 0 .146-.02.216-.063l3.41-2.11a.42.42 0 00.13-.553zm-21.373-11.17-.007-.66a22.073 22.073 0 001.794-2.904c.25-.393.513-.8.756-1.233.134 1.573.337 3.2.634 4.797-.37-.01-.924-.03-1.64-.03-.45 0-.97.02-1.537.03zm6.823 5.95c-.33.48-.62.98-.89 1.456a20.632 20.632 0 00-4.383-3.363c.827-.14 1.643-.3 2.413-.497a.406.406 0 00.314-.416l-.194-2.19 1.647-.25v2.606c0 .197.13.357.32.394.02.003.793.15 2.36.323a11.904 11.904 0 00-1.587 1.937zm-.303-5.814c.043-.546.203-3.073.37-5.89 1.057 1.094 2.257 2.56 3.06 4.244l.033 1.263c-1.1.057-2.26.18-3.463.383z" fill="#00753F"/>
	<g fill="#fff">
		<path d="m46.585 90.976-2.027-3.343a.451.451 0 00-.566-.187c-.027.014-2.334.99-4.547.99-.313 0-.627-.013-.903-.056-2.044-.29-4.244-1.644-4.244-3.904 0-2.183 1.254-4.893 10.514-8.386a.434.434 0 00.273-.527l-.557-2.257a.445.445 0 00-.54-.33c-.366.08-5.156 1.247-9.396 3.697-.42-1.253-.944-2.777-1.504-4.167-1.273-3.193-2.326-5.046-2.37-5.12a.477.477 0 00-.296-.216.446.446 0 00-.354.056l-4.843 3.14a.45.45 0 00-.143.62 84.882 84.882 0 002.796 4.127c.847 1.183 2.147 2.827 3.184 4.12-1.784 1.667-3.027 3.71-3.027 6.143 0 3.817 2.817 6.594 7.533 7.437.957.163 1.974.243 3.037.243 3.16 0 6.16-.763 7.76-1.426a.433.433 0 00.26-.274.475.475 0 00-.04-.38z"/>
		<path d="m41.139 74.363s.073-2.733.017-4.746c-1.25.316-4.694.776-5.817-3.934a4.347 4.347 0 016.353 2.68c1.14-4.2 5.57-3.593 6.52-2.68-1.027 4.67-4.943 4.384-5.967 3.904l.044 4.776h-1.15zm40.725 2.7c-1.163-1.523-3.193-2.413-6.02-2.62a21.437 21.437 0 00-1.666-.063c-5.384 0-8.764 1.973-8.9 2.053a.449.449 0 00-.17.607l1.883 3.483c.057.114.163.19.273.224.117.026.247.01.347-.04 1.51-.867 3.907-1.774 6.097-1.774.776 0 1.47.11 2.08.337.833.317 1.396.943 1.676 1.867.557 1.82-.14 4.4-1.103 5.746-2.29 3.19-4.657 4.247-4.687 4.254a.455.455 0 00-.26.313.435.435 0 00.087.39l1.003 1.243a.446.446 0 00.494.147c5.31-1.643 8.8-5.41 9.81-10.61.433-2.253.103-4.177-.944-5.557zm-12.302-8.363c.06.023 5.41 1.207 7.997 3.087a.452.452 0 00.63-.097l1.696-2.33c.127-.163.107-.41-.03-.57-.143-.157-3.476-3.747-8.813-4.36a.441.441 0 00-.477.283l-1.333 3.387c-.05.12-.04.257.023.383.06.114.18.194.307.217zm44.373 9.997c.406-.213 2.526-1.073 4.676-3.614 1.707-2.01 2.207-5.063 2.177-6.04-1.25.317-4.693.777-5.817-3.933a4.344 4.344 0 016.35 2.677c1.14-4.2 5.57-3.59 6.52-2.677-1.026 4.67-4.943 4.383-5.966 3.9 0 0-.034 3.25-1.957 6.093-1.927 2.844-5.39 4.53-5.39 4.53l-.593-.936z"/>
		<path d="m110.742 75.357 3.703-5.22a.469.469 0 00-.027-.564c-.106-.116-1.153-1.263-4.86-2.16-2.806-.676-4.593-.763-5.063-.776-.1-.004-.15.003-.15.003a.43.43 0 00-.413.28c-.027.073-.65 1.693-.41 4.433a.45.45 0 00.483.41s.647-.04 1.51-.016c1.213.03 2.237.17 2.963.4-.436.823-1.396 2.613-2.216 3.986a.455.455 0 00.1.587c.046.037 4.313 3.487 4.533 7.243.11 1.974-.257 3.41-1.083 4.26-.64.664-1.587.984-2.8.954a8.71 8.71 0 01-1.837-.264.447.447 0 00-.547.31l-.48 1.627a.443.443 0 00.16.48c.08.063 1.92 1.503 4.687 1.57 2.197.053 4.06-.647 5.39-2.023 1.45-1.494 2.13-3.674 1.977-6.294-.26-4.17-2.417-6.736-5.62-9.226zm15.683 13.273c-.027-.127-.657-3.13-2.137-6.757a.435.435 0 00-.526-.266l-2.917.74a.45.45 0 00-.333.533c.013.037.72 3.457 1.05 6.737.01.13.08.25.18.32.083.056.18.093.266.093.034 0 .067 0 .097-.013l3.963-.85a.454.454 0 00.357-.537z"/>
		<path d="m103.869 81.95a.486.486 0 00-.29-.267l-3.707-1.123a.45.45 0 00-.537.227c-.07.143-1.766 3.503-2.32 6.993-.023.187.07.37.247.467l2.383 1.23c.054.026.134.05.204.05.05 0 .086-.01.14-.024a.429.429 0 00.263-.23c1.043-2.113 1.91-3.85 3.593-6.93a.49.49 0 00.024-.393zm47.336-10.973c-3.886 0-8.266 1.233-13.016 3.666a.501.501 0 00-.22.27.412.412 0 00.033.354l2.543 4.726c.06.127.174.214.31.234a.449.449 0 00.377-.1c.05-.044 4.463-3.797 9.917-3.797 1.863 0 3.34.607 4.243 1.76.847 1.093 1.147 2.6.793 4.037-.58 2.333-2.506 3.636-4.506 4.683a.467.467 0 00-.224.273c-.036.12-.02.25.04.357l.897 1.547a.452.452 0 00.497.213c.09-.02 8.973-2.223 8.973-10.04.003-4.057-3.657-8.183-10.657-8.183zm38.447 8.216c-1.443-1.95-3.81-3.026-6.673-3.026-2.677 0-5.227 1.063-7 2.91-1.48 1.54-2.244 3.456-2.164 5.41.154 3.573 1.997 5.893 4.707 5.893 3.137 0 5.013-3.36 5.723-10.27 1.857.803 2.897 2.673 2.69 4.903-.243 2.677-2.273 4.17-3.473 4.813a.457.457 0 00-.203.564l.45 1.16c.066.18.24.283.426.283 0 0 .06 0 .087-.003.21-.04 5.227-1.117 6.487-5.273.803-2.627.413-5.384-1.057-7.364zm-12.6 5.247c.147-2.117 1.2-3.663 2.92-4.35.047 1.083 0 2.52-.32 4.026-.437 1.974-1.067 2.677-1.48 2.677-.197 0-.377-.153-.497-.277-.353-.373-.68-1.166-.623-2.076zm54.983 4.493c-.094-.14-1.997-3.106-5.207-5.363.947.02 1.987.043 3.107.043.203 0 .373-.16.39-.356l.42-3.33a.406.406 0 00-.3-.447c-.084-.01-1.554-.367-3.887-.55.043-.397.077-.8.123-1.217a.392.392 0 00-.343-.433l-2.47-.377 2.027-1.29a.441.441 0 00.18-.263c.02-.107 0-.22-.064-.313-.083-.12-1.64-2.33-5.196-3.924 1.93-.12 3.256-.213 3.286-.213a.398.398 0 00.377-.38l.21-3.373a.403.403 0 00-.1-.294.38.38 0 00-.277-.13 63.545 63.545 0 00-3.86-.126c-.543 0-1.07.003-1.586.03.04-.877.06-1.547.06-1.904a.392.392 0 00-.364-.4l-4.066-.466a.403.403 0 00-.307.093.402.402 0 00-.143.277c0 .04-.067 1.086-.08 2.75-3.5.416-5.387 1.06-5.504 1.09a.417.417 0 00-.26.463l.454 2.65a.386.386 0 00.39.337c.273 0 .556.013.856.013.564 0 1.16-.013 1.774-.023-1.134 1.316-2.107 2.913-3.014 4.9-.08.16-.03.36.114.466l.693.574-2.647-.147c-.12 0-.233.05-.31.133a.396.396 0 00-.106.33l.226 1.7a31.538 31.538 0 00-3.953.787.413.413 0 00-.28.49l.697 2.903a.402.402 0 00.39.304h.01c.103 0 .976 0 2.296-.05-.98 1.646-2.553 4.396-3.34 6.31a.408.408 0 00.147.483l1.453 1.063c.064.04.147.064.23.064a.393.393 0 00.317-.147l3.117-3.927.546 4.17c.03.2.197.35.397.35l2.71.08h.007c.106 0 .196-.05.28-.11a.429.429 0 00.116-.296l-.05-5.96a27.978 27.978 0 011.884 3.203c.066.14.21.22.363.22.05 0 .1-.007.157-.033l2.616-1.167c-.35.727-.553 1.22-.57 1.27a.41.41 0 00.17.5l1.767 1.06a.476.476 0 00.217.053c.106 0 .216-.04.3-.13.003-.013 1.143-1.303 2.536-3.003.247-.3.49-.613.727-.92l.13 4.913c.01.217.193.394.41.394h.007l2.36-.044c.2 0 .38-.146.393-.35.003-.03.23-1.906.57-5.12.65 1.064 1.437 2.584 2.15 4.57a.4.4 0 00.25.247c.04.013.08.023.13.023a.513.513 0 00.217-.056l3.41-2.11a.426.426 0 00.18-.257.518.518 0 00-.06-.307zm-18.784-5.743c.877-.14 1.744-.31 2.567-.517a.4.4 0 00.31-.42l-.187-2.213 1.454-.227v2.614c0 .19.13.353.313.39.077.02.833.17 2.357.333a12.697 12.697 0 00-1.577 1.923c-.33.48-.62.98-.89 1.45a20.498 20.498 0 00-4.347-3.333zm8.397-4.31c-1.173.07-2.327.193-3.463.38.043-.573.183-3.107.343-5.917 1.057 1.094 2.267 2.57 3.087 4.277l.033 1.26zm-7.44-4.557c.14 1.564.337 3.204.63 4.787a38.092 38.092 0 00-2.19-.057c-.307 0-.633 0-.983.01l-.01-1.12c0-.013-.004-.03-.004-.043a21.65 21.65 0 002.557-3.577z"/>
	</g>
	<path d="m137.588 52.737c-8.773.023-9.2 2.983-9.2 2.983l.163.55a1.336 1.336 0 001.78.864c.794-.324 1.45-.737 2.797-.737 2.217 0 3.047 1.083 5.16 1.083s2.743-.963 4.837-.963c1.226 0 1.846.283 2.56.543.71.26 1.496-.123 1.73-.843.233-.723.17-.537.17-.537s-2.414-2.963-9.997-2.943z" fill="#2E7A39"/>
	<path d="m149.568 35.504c-2.09-6.794-14.01-9.57-19.763-2.944-5.754 6.627-2.327 19.827-1.417 23.16 2.173 0 2.52-1.12 4.737-1.12 2.216 0 3.046 1.084 5.16 1.084 2.113 0 2.743-.964 4.836-.964 2.097 0 2.417.82 4.46.957 1.43-4.593 4.08-13.38 1.987-20.173z" fill="#42B053"/>
	<path d="m111.422 52.884c-7.347.786-9.39 2.733-9.39 2.733s-.02-.093.163.667c.187.77.997 1.213 1.74.95.887-.317 1.68-.84 2.96-.84 2.08 0 2.404 1.2 5.07 1.2 2.667 0 3.674-1.33 5.164-1.33 1.006 0 2.373.86 3.726 1.13.654.13 1.304-.25 1.517-.88l.37-1.084c.007-.003-5.597-3.16-11.32-2.546z" fill="#007960"/>
	<path d="m121.308 35.124c-4.046-4.654-13.86-4.864-18.176 1.133-4.32 5.997-1.774 16.13-1.097 19.357 2 .353 2.787-1.02 4.867-1.02s2.403 1.2 5.07 1.2c2.666 0 3.673-1.33 5.163-1.33s3.757 1.87 5.613.96c2.287-8.377 2.607-15.647-1.44-20.3z" fill="#009B7E"/>
	<path d="m73.728 54.823c.067.327.237 1.12.347 1.637.073.343.276.653.576.836 1.567.96 2.75-.75 4.624-.75 2.18 0 2.786 1.047 4.996 1.047 1.477 0 2.677-1.21 4.704-1.21 1.766 0 3.526 1.903 6.22 1 .403-.137.726-.447.86-.85.136-.413.293-.973.4-1.543.18-.96-23.054-1.74-22.727-.167z" fill="#037C3C"/>
	<path d="m97.538 35.747c-2.66-10.157-18.954-10.987-23.604-1.92-3.626 7.073-.363 20.023-.21 20.996 2.194 2.05 3.367-.073 5.547-.073s2.787 1.047 4.997 1.047c1.476 0 2.676-1.21 4.703-1.21s4.043 2.506 7.48.403c.57-3.14 2.75-12.897 1.087-19.243z" fill="#00A63C"/>
	<path d="m172.731 34.474c-5.244-4.194-13.834-4.17-18.18 2.023-4.347 6.193-.187 19.377-.187 19.377l.207.673a1.338 1.338 0 001.73.867c.986-.354 1.596-.937 3.096-.937 2.257 0 2.94 1.127 5.147 1.127s3.303-.984 5.197-.984c1.39 0 1.99.517 3.256.79a1.337 1.337 0 001.594-1.06c.15-.796.11-.57.11-.57s3.17-17.193-1.97-21.306zm-7.84-15.268 2.476 1.084-1.406.757-1.07-.044v-1.797zm4.946 4.234-1.553.17v-1.794l1.643.127-.09 1.497zm-3.706 4.546-1.123.584v-1.794l1.013-.456.11 1.666zm3.796.061s-.316.2-.823.4c-.057-.573-.033-1.623.02-2.227.43.284.88.267.88.267l-.077 1.56zm9.044 2.116.42 1.004s.506-.88.256-3.184m.59-2.643v1.797l-.643-.92.643-.877zm2.494 1.093v-1.793l-.554-.293-.94.166 1.494 1.92zm-5.767-5.787v1.797l-1.04.447s-.064-1.25 0-1.28c.063-.03 1.04-.963 1.04-.963zm.643-2.646v1.797l-.993.426-.053-.666 1.046-1.557z" fill="#007A59"/>
	<path d="m164.891 19.206 2.476 1.084-1.406.757-1.07-.044v-1.797z" fill="url(#paint0_radial)"/>
	<path d="m169.837 23.44-1.553.17v-1.794l1.643.127-.09 1.497z" fill="url(#paint1_radial)"/>
	<path d="m166.131 27.986-1.123.584v-1.794l1.013-.456.11 1.666z" fill="url(#paint2_radial)"/>
	<path d="m169.927 28.047s-.316.2-.823.4c-.057-.573-.033-1.623.02-2.227.43.284.88.267.88.267l-.077 1.56z" fill="url(#paint3_radial)"/>
	<path d="m178.971 30.163.42 1.004s.506-.88.256-3.184" fill="url(#paint4_radial)"/>
	<path d="m180.237 25.34v1.797l-.643-.92.643-.877z" fill="url(#paint5_radial)"/>
	<path d="M182.731 26.433V24.64l-.554-.293-.94.166 1.494 1.92z" fill="url(#paint6_radial)"/>
	<path d="m176.964 20.646v1.797l-1.04.447s-.064-1.25 0-1.28c.063-.03 1.04-.963 1.04-.963z" fill="url(#paint7_radial)"/>
	<path d="M177.607 18v1.797l-.993.426-.053-.666L177.607 18z" fill="url(#paint8_radial)"/>
	<g fill="#007A59">
		<path d="m169.558 32.827 3.166 1.833s2.417-6.146 1.68-8.82c-.33-1.2-1.216-.653-1.41-.123-.003 0 .074 3.357-3.436 7.11z"/>
		<path d="m164.891 21.004c.686.96 3.106 1.78 4.7 1.643-.574.143-1.214.667-1.307.967.703.173 1.837.436 2.703 1.356-1.13-.183-2.506.04-3.546.484-2.034.87-2.13 1.853-2.434 3.12 2.217.013 3.83-.817 4.31-1.137-.333.607-.183 1.237-.183 1.237 1.63-.217 3.207-.864 4.353-2.477.03-.043.104-.04.154-.023.043.013.376.086.39.13.49 1.596 1.486 3.44 2.366 3.933.22-.14.42-.477.457-.89.197.847 1.79 2.637 2.117 2.617 1.003-1.597.75-2.6.2-3.59-.267-.494-1-1.24-2.094-1.974 1.637.61 2.284.754 3.164.74 0-.303-.147-.696-.25-.916.133.043 2.74.333 2.74.216.01-1.566-1.544-2.3-2.88-2.49-1.447-.206-3.71-.05-4.547.544.687-.597 1.403-1.2 1.663-2.047a4.345 4.345 0 00-1.02-.01c1.034-.5 1.574-1.967 1.66-2.637-.48.004-1.19.117-1.63.354-1.403.786-2.07 2.296-2.55 3.77-.86-2.194-1.85-3.304-3.693-3.784-1.407-.37-3.48.34-4.843.864z"/>
		<path d="m169.558 32.827 3.166 1.833s2.417-6.146 1.68-8.82c-.33-1.2-1.216-.653-1.41-.123-.003 0 .074 3.357-3.436 7.11z"/>
		<path d="m164.891 21.004c.686.96 3.106 1.78 4.7 1.643-.574.143-1.214.667-1.307.967.703.173 1.837.436 2.703 1.356-1.13-.183-2.506.04-3.546.484-2.034.87-2.13 1.853-2.434 3.12 2.217.013 3.83-.817 4.31-1.137-.333.607-.183 1.237-.183 1.237 1.63-.217 3.207-.864 4.353-2.477.03-.043.104-.04.154-.023.043.013.376.086.39.13.49 1.596 1.486 3.44 2.366 3.933.22-.14.42-.477.457-.89.197.847 1.79 2.637 2.117 2.617 1.003-1.597.75-2.6.2-3.59-.267-.494-1-1.24-2.094-1.974 1.637.61 2.284.754 3.164.74 0-.303-.147-.696-.25-.916.133.043 2.74.333 2.74.216.01-1.566-1.544-2.3-2.88-2.49-1.447-.206-3.71-.05-4.547.544.687-.597 1.403-1.2 1.663-2.047a4.345 4.345 0 00-1.02-.01c1.034-.5 1.574-1.967 1.66-2.637-.48.004-1.19.117-1.63.354-1.403.786-2.07 2.296-2.55 3.77-.86-2.194-1.85-3.304-3.693-3.784-1.407-.37-3.48.34-4.843.864z"/>
	</g>
	<g fill="#00A57B">
		<path d="m172.731 32.68c-5.243-4.193-13.833-4.17-18.18 2.023-4.347 6.194-.867 18.797-.187 21.174 2.53.123 2.777-1.194 5.034-1.194 2.256 0 2.94 1.127 5.146 1.127 2.207 0 3.304-.983 5.197-.983s2.323.956 4.957.956c1.553-8.833 3.173-18.99-1.967-23.103z"/>
		<path d="m169.559 31.034 3.166 1.833s2.417-6.147 1.68-8.82c-.33-1.2-1.216-.653-1.41-.123-.003 0 .074 3.356-3.436 7.11z"/>
		<path d="m164.892 19.207c.686.96 3.106 1.78 4.7 1.643-.574.143-1.214.667-1.307.967.703.173 1.837.436 2.703 1.356-1.13-.183-2.506.04-3.546.484-2.034.87-2.13 1.853-2.434 3.12 2.217.013 3.83-.817 4.31-1.137-.333.607-.183 1.237-.183 1.237 1.63-.217 3.207-.864 4.353-2.477.03-.043.104-.04.154-.023.043.013.376.086.39.13.49 1.596 1.486 3.44 2.366 3.933.22-.14.42-.477.457-.89.197.847 1.79 2.637 2.117 2.617 1.003-1.597.75-2.6.2-3.59-.267-.494-1-1.24-2.094-1.974 1.637.61 2.284.754 3.164.74 0-.303-.147-.696-.25-.916.133.043 2.74.333 2.74.216.01-1.566-1.544-2.3-2.88-2.49-1.447-.206-3.71-.05-4.547.544.687-.597 1.403-1.2 1.663-2.047a4.35 4.35 0 00-1.02-.01c1.034-.5 1.574-1.967 1.66-2.637-.48.004-1.19.117-1.63.354-1.403.786-2.07 2.296-2.55 3.77-.86-2.194-1.85-3.304-3.693-3.784-1.407-.37-3.48.344-4.843.864z"/>
	</g>
	<path d="m155.204 48.023v1.227l.773-.34-.773-.887zm-.163-9.83c-.043.234-.023 1.08-.01 1.474.013.483.283.233.283.233l.207-.853s-.173-.827-.48-.854zm9.97 1.547s.05.98-.02 1.536c-.326-.12-.443-.57-.443-.57l.463-.966zm9.35 8.643v1.227l-1.257-.773 1.257-.454zm-12.24-13.42c.07.533.896 18.007.796 18.323-.1.317-2.79.427-2.806.214-.04-.53-.054-.69-.094-1.23-.02-.244.437-.49.417-.737-.557-7.58-1.237-15.86-1.093-16.397.37-.18 2.373-.293 2.78-.173z" fill="#007A59"/>
	<path d="m155.467 42.63c-.183-.303-.523-2.66-.43-3.207.574-.35 9.224-1.406 9.584-1.393.14.467.47 2.843.366 3.247-.443.116-8.986 1.43-9.52 1.353zm17.677 5.5s-1.823 1.57-2.737.98c-.796-.514-.673-3.274-.366-5.937.146-.1.076-.643.076-.643.25-1.977.57-3.794.647-4.464-4.713 3.344-14.683 10.267-15.56 11.184.2.603 1.54 2.283 1.923 2.496.61-.266 6.08-3.943 9.84-6.486-.63 8.303 2.864 8.653 7.394 4.353 0-.003-1.217-1.483-1.217-1.483z" fill="#007A59"/>
	<g fill="#2E7A39">
		<path d="m142.109 32.41c.1.247.19 1.23.19 1.23l-.557.14v-.89c0 .004.124-.287.367-.48zm-10.411 8.704v1.23l.23-.467.197-.863-.427.1zm15.06-5.264c.264.993-.183 3.097-.183 3.097l-.17-1.494-.15-.516s-.09-.85.503-1.087zm-.776 4.56c.206 1.12-.17 2.65-.17 2.65l-.187-1.383v-.53c0 .003.193-.544.357-.737zm-1.757 9.347v1.23l-.6-1.17.3-.107.3.047zm-13.983-2.38c-.137 1.483.093 2.13.093 2.13l.457-1.297s-.467-1.757-.55-.833z"/>
		<path d="m132.825 35.18c-.124.177-.457 1.084-.46 1.634-.004.483 0 1.133 0 1.133.933.333 13.033 2.16 13.926 2.227 0 0 .55-2.007.467-3.097-.777-.39-13-2.057-13.933-1.897zm-.727 4.44c-.246.443-.44 2.087-.403 2.723 0 0 11.25 1.994 13.703 2.107.24-.203.617-2.313.58-2.81-.246-.18-13.02-2.14-13.88-2.02z"/>
		<path d="m142.298 33.64c-1.803 11.184-2.267 14.404-3.383 16.65-2.444 4.917-9.01 2.02-8.66-1.866.246-2.727 2.803-4.284 5.316-3.994 5.077.584 8.077 3.62 8.657 6.56 0 0-1.84.904-1.843.9-1.614-2.926-7.484-6.033-8.85-3.656-.414.72.363 1.516 1.073 1.556 1.203.07 1.62-1.27 1.9-2.196.317-1.054 2.1-13.14 2.18-14.35.577-.037 3.147.29 3.61.396z"/>
	</g>
	<path d="m104.008 40.323v1.23h.596v-.87l-.596-.36zm8.28 8.56v1.23l.33.224.5-.294-.83-1.16zm7.91-6.256c.303 1.876.003 2.98.003 2.98l-1.056-1.687s.973-1.79 1.053-1.293z" fill="#007960"/>
	<path d="m104.008 41.553c2.17-1.21 6.82-2.926 9.303-3.076 3.243-.2 6.02 1.65 6.753 4.673.844 3.483-.99 7.267-6.706 9.087-.45-.514-.787-1.22-1.07-2.12 6.88-3.534 4.42-8.44.626-7.664-2.463.504-5.286 1.734-7.48 2.71a24.717 24.717 0 01-1.426-3.61z" fill="#007960"/>
	<g fill="#037C3C">
		<path d="m76.798 36.01c-.07 1.094.053 2.56.053 2.56l.323-1.023c-.003-.003-.003-1.28-.376-1.537zm.127 9.907c-.16.933 0 2.503 0 2.503l.72-.573c0 .003-.62-2.67-.72-1.93zm10.146 5.443v1.23l-.87-1.23.72-.133.15.133zm2.314-1.49v1.23l.9-.987-.9-.243zm3.993-5.03c.09.677.013 1.817.013 1.817l-.47-.557s.383-1.823.457-1.26zm-1.95-5.147v1.23h-.463l.463-1.23z"/>
		<path d="m76.798 37.237s-.013 1.923.333 3.096c1.674-.076 12.57-1.11 14.3-1.46 0 0 .064-.416.094-1.276.016-.467-.107-1.35-.207-1.844-1.453-.08-11.853.857-14.52 1.484z"/>
		<path d="m81.728 35.493s-.717-2.383-.207-2.466c.55-.087 1.35-.164 2.297-.097.686 13.733 2.846 17.46 3.253 19.66l-2.643.66s-2.557-4.413-3.547-17.5c-.063-.817.897.627.847-.257z"/>
		<path d="M91.428 40.924c-.477 2.71-1.56 5.46-2.477 6.93-1.313 2.11-3.396 4.94-7.26 4.883-2.4-.037-4.453-1.883-4.76-4.26a5.67 5.67 0 01.894-3.8c1.866-2.817 5.57-3.47 8.69-3.32 1.78.087 3.72.367 5.183 1.497 1.167.9 1.74 2.33 1.697 3.783-.067 2.053-1.07 4.047-2.364 5.6L89.388 51.1c.76-1.403 2.22-4.826.103-6.126-1.17-.72-3.246-1.077-4.623-.887-2.103.29-4.2 1.177-4.69 2.583-.31.89-.34 2.057.463 2.657 1.614 1.203 3.96-.54 4.837-1.79 1.223-1.747 2.2-3.93 2.89-7.25.653-.13 2.267.227 3.06.637z"/>
	</g>
	<g fill="#FF0">
		<path d="m162.121 33.737c.07.533.896 18.006.796 18.323s-2.883.427-2.9.213c-.64-8.166-1.306-17.77-1.146-18.363.37-.18 2.843-.293 3.25-.173z"/>
		<path d="m155.467 41.4c-.183-.303-.523-2.66-.43-3.207.574-.35 9.224-1.406 9.584-1.393.14.467.47 2.843.366 3.247-.443.116-8.986 1.43-9.52 1.353zm-.263 6.623c.877-.916 11.367-7.84 16.083-11.18-.193 1.634-1.676 10.304-.88 11.044.797.74 2.737-.98 2.737-.98l1.217 1.48c-5.257 4.993-8.984 3.726-6.617-8.98l2.787 2.21s-12.467 8.49-13.404 8.903c-.383-.213-1.723-1.893-1.923-2.497zm-22.379-14.073c-.27.394-.476 2.304-.46 2.86.934.334 13.034 2.067 13.927 2.134 0 0 .55-2.007.467-3.097-.777-.387-13-2.053-13.934-1.897zm-.727 4.444c-.246.443-.44 2.086-.403 2.723 0 0 11.25 1.993 13.703 2.107.24-.204.617-2.314.58-2.81-.246-.18-13.02-2.144-13.88-2.02z"/>
		<path d="m142.108 32.41c.06.877-2.08 14.404-3.193 16.65-2.444 4.917-9.01 2.02-8.66-1.866.246-2.727 2.803-4.284 5.316-3.994 5.077.584 8.077 3.62 8.657 6.56 0 0-1.84.904-1.843.9-1.614-2.926-7.484-6.033-8.85-3.656-.414.72.363 1.516 1.073 1.556 1.203.07 1.62-1.27 1.9-2.196.317-1.054 2.1-13.14 2.18-14.35.577-.034 2.957.29 3.42.396zm-38.1 7.913c2.17-1.21 6.82-2.926 9.303-3.076 3.243-.2 6.02 1.65 6.753 4.673.844 3.483-.99 7.267-6.706 9.087-.45-.514-.787-1.22-1.07-2.12 6.88-3.534 4.42-8.44.626-7.664-2.463.504-5.286 1.734-7.48 2.71a24.551 24.551 0 01-1.426-3.61zm-27.21-4.313s.09 1.883.287 3.097c1.673-.077 12.713-1.16 14.443-1.507 0 0 .087-1.64-.207-3.07-1.456-.083-11.856.853-14.523 1.48z"/>
		<path d="m80.715 31.973s1.283-.4 3.103-.273c.687 13.733 2.847 17.46 3.254 19.66l-2.644.66s-2.883-4.98-3.713-20.047z"/>
		<path d="m91.428 39.694c-.477 2.71-1.56 5.46-2.477 6.93-1.313 2.11-3.396 4.94-7.26 4.883-2.4-.037-4.453-1.883-4.76-4.26a5.67 5.67 0 01.894-3.8c1.866-2.817 5.57-3.47 8.69-3.32 1.78.087 3.72.367 5.183 1.497 1.167.9 1.74 2.33 1.697 3.783-.067 2.053-1.07 4.047-2.364 5.6l-1.643-1.137c.76-1.403 2.22-4.826.103-6.126-1.17-.72-3.246-1.077-4.623-.887-2.103.29-4.2 1.177-4.69 2.583-.31.89-.34 2.057.463 2.657 1.614 1.203 3.96-.54 4.837-1.79 1.223-1.747 2.2-3.93 2.89-7.25.653-.127 2.267.227 3.06.637z"/>
	</g>
	<defs>
		<radialGradient id="paint0_radial" cx="0" cy="0" r="1" gradientTransform="translate(166.13 20.127) scale(1.09101)" gradientUnits="userSpaceOnUse">
			<stop stop-color="#007A59" offset="0"/>
			<stop stop-color="#007A59" offset=".746"/>
		</radialGradient>
		<radialGradient id="paint1_radial" cx="0" cy="0" r="1" gradientTransform="translate(169.106 22.713) scale(.86048)" gradientUnits="userSpaceOnUse">
			<stop stop-color="#007A59" offset="0"/>
			<stop stop-color="#007A59" offset=".746"/>
		</radialGradient>
		<radialGradient id="paint2_radial" cx="0" cy="0" r="1" gradientTransform="matrix(.8893 0 0 .8893 165.57 27.445)" gradientUnits="userSpaceOnUse">
			<stop stop-color="#007A59" offset="0"/>
			<stop stop-color="#007A59" offset=".746"/>
		</radialGradient>
		<radialGradient id="paint3_radial" cx="0" cy="0" r="1" gradientTransform="matrix(.85405 0 0 .85405 169.537 27.332)" gradientUnits="userSpaceOnUse">
			<stop stop-color="#007A59" offset="0"/>
			<stop stop-color="#007A59" offset=".746"/>
		</radialGradient>
		<radialGradient id="paint4_radial" cx="0" cy="0" r="1" gradientTransform="translate(179.342 29.573) scale(1.15597)" gradientUnits="userSpaceOnUse">
			<stop stop-color="#007A59" offset="0"/>
			<stop stop-color="#007A59" offset=".746"/>
		</radialGradient>
		<radialGradient id="paint5_radial" cx="0" cy="0" r="1" gradientTransform="matrix(.6746 0 0 .6746 179.915 26.238)" gradientUnits="userSpaceOnUse">
			<stop stop-color="#007A59" offset="0"/>
			<stop stop-color="#007A59" offset=".746"/>
		</radialGradient>
		<radialGradient id="paint6_radial" cx="0" cy="0" r="1" gradientTransform="translate(181.984 25.39) scale(.90716)" gradientUnits="userSpaceOnUse">
			<stop stop-color="#007A59" offset="0"/>
			<stop stop-color="#007A59" offset=".746"/>
		</radialGradient>
		<radialGradient id="paint7_radial" cx="0" cy="0" r="1" gradientTransform="matrix(.87816 0 0 .87816 176.431 21.767)" gradientUnits="userSpaceOnUse">
			<stop stop-color="#007A59" offset="0"/>
			<stop stop-color="#007A59" offset=".746"/>
		</radialGradient>
		<radialGradient id="paint8_radial" cx="0" cy="0" r="1" gradientTransform="matrix(.86822 0 0 .86822 177.084 19.11)" gradientUnits="userSpaceOnUse">
			<stop stop-color="#007A59" offset="0"/>
			<stop stop-color="#007A59" offset=".746"/>
		</radialGradient>
	</defs>
</svg>
