<svg viewBox="0 0 256 120" xmlns="http://www.w3.org/2000/svg">
	<path d="m219.825 100.053h-2.797a.12.12 0 00-.12.12v.55c0 .067.054.12.12.12h1.004v2.394c0 .066.056.12.12.12h.55a.12.12 0 00.12-.12v-2.394h1.003a.12.12 0 00.12-.12v-.55a.118.118 0 00-.12-.12zm3.814 0h-.607a.12.12 0 00-.11.074l-.84 1.946-.823-1.946a.122.122 0 00-.114-.074h-.603a.12.12 0 00-.12.12v3.067c0 .067.053.12.12.12h.547a.12.12 0 00.12-.12v-1.33l.52 1.373a.118.118 0 00.113.077h.493c.05 0 .094-.03.114-.077l.52-1.373v1.33c0 .067.053.12.12.12h.55a.12.12 0 00.12-.12v-3.067a.12.12 0 00-.12-.12z" fill="#00669D"/>
	<path d="m219.825 100.053h-2.797a.12.12 0 00-.12.12v.55c0 .067.054.12.12.12h1.004v2.394c0 .066.056.12.12.12h.55a.12.12 0 00.12-.12v-2.394h1.003a.12.12 0 00.12-.12v-.55a.118.118 0 00-.12-.12zm3.814 0h-.607a.12.12 0 00-.11.074l-.84 1.946-.823-1.946a.122.122 0 00-.114-.074h-.603a.12.12 0 00-.12.12v3.067c0 .067.053.12.12.12h.547a.12.12 0 00.12-.12v-1.33l.52 1.373a.118.118 0 00.113.077h.493c.05 0 .094-.03.114-.077l.52-1.373v1.33c0 .067.053.12.12.12h.55a.12.12 0 00.12-.12v-3.067a.12.12 0 00-.12-.12z" fill="#00669D"/>
	<path d="M32.435 94.513c.043 1.854.01 2.66.01 2.67-.024.52.16 1.014.513 1.397s.833.603 1.35.623c.04.004 4.207.157 10.52.157 2.457 0 5.82-.087 9.07-.173 1.24-.034 2.48-.064 3.667-.094 1.18-.026 2.323-.04 3.393-.04 2.473 0 3.743.074 3.757.077.036.003.076.003.113.003.5 0 1.033-.193 1.38-.543a1.82 1.82 0 00.523-1.327l-.04-2.753H32.435v.003z" fill="#006D67"/>
	<path d="m44.825 96.69c-6.314 0-10.487-.157-10.53-.157a1.932 1.932 0 01-1.35-.623 1.936 1.936 0 01-.514-1.397c0-.016.064-1.606-.11-5.486-.176-3.907-.216-8.624-.25-12.414a400.72 400.72 0 00-.046-4.05c-.117-5.69.216-8.373.233-8.483.133-1.04 1.057-1.89 2.103-1.937.23-.01 5.647-.253 6.964-.256 2.203 0 22.59.596 23.456.623a1.892 1.892 0 011.84 2.013c-.003.044-.39 4.064-.383 6.817.003 1.35.517 11.043.627 17.483.056 3.224-.177 5.68-.177 5.767.007.503-.18.977-.523 1.327-.347.35-.88.543-1.38.543a1.3 1.3 0 01-.114-.003c-.013 0-1.243-.077-3.716-.077-1.07 0-2.214.013-3.394.04-1.186.027-2.423.06-3.666.093-3.25.09-6.614.177-9.07.177z" fill="#00B0A8"/>
	<path d="m44.812 84.907c1.117-15.117 12.187-20.524 16.813-22.487-4.693-.137-13.39-.383-17.79-.483-1.656 2.083-9.24 12.126-9.55 21.71-.18 5.616.527 10.003 1.244 12.926 1.683.047 4.99.12 9.296.12.487 0 1.02-.003 1.57-.01-1.003-2.943-1.933-7-1.583-11.776zm19.974 11.556c.5 0 1.033-.193 1.38-.543a1.82 1.82 0 00.523-1.327c0-.086.233-2.546.177-5.766-.064-3.537-.244-8.054-.397-11.634-1.08-.376-2.693-.683-4.013-.683-4.41 0-6.424 4.97-6.424 12.317 0 3.256.447 5.616 1.067 7.61l.463-.01c1.18-.027 2.324-.04 3.394-.04 2.473 0 3.703.073 3.716.076h.114z" fill="#00A395"/>
	<path d="m70.561 94.83c.067 1.68.104 2.67.104 2.67a2.05 2.05 0 001.996 1.943s.504.007 1.737.007c1.197 0 3.21-.007 5.987-.043l5.496-.077c3.817-.057 7.42-.11 9.557-.11.617 0 1.103.003 1.427.017 2.017.063 5.293.17 5.293.17h.054a2.047 2.047 0 002.026-1.857c0-.013.074-.867.157-2.697l-33.834-.023z" fill="#AF3300"/>
	<path d="m74.398 96.78c-1.234 0-1.84-.007-1.84-.007a2.05 2.05 0 01-1.997-1.943s.043-2.4-.097-6.073c-.193-5.087-.59-10.51-.616-15.994-.004-.683.416-8.176.43-8.493.05-1.046.94-1.94 1.986-1.993.034-.003 3.244-.163 5.564-.187 2.246-.023 4.62-.033 7.053-.033 2.72 0 5.553.013 8.657.043.62.007 8.876.324 9.223.337.527.02.997.247 1.327.637s.476.893.413 1.413c-.003.026-.063 2.92-.053 7.98.006 2.347-.5 6.363-.457 8.57.05 2.756.13 5.133.13 6.8 0 1.84.277 7.003.273 7.026a2.038 2.038 0 01-2.026 1.857h-.054s-3.433-.083-5.45-.147a49.39 49.39 0 00-1.426-.016c-2.137 0-5.74.053-9.557.11-1.873.03-3.767.056-5.497.076-2.78.03-4.79.037-5.986.037z" fill="#FF7321"/>
	<g fill="#FF450A">
		<path d="m104.118 87.827c0-1.663-.08-4.043-.13-6.8-.04-2.207.463-6.224.457-8.57-.007-2.61.006-4.637.023-5.997-7.34-2.563-17.947-3.363-29.08-2.81-1.513.077-3.527.22-5.08.4-.01.074-.03.144-.033.217-.01.237-.274 4.403-.374 6.827a60.905 60.905 0 014.734-.207c9.746 0 24.143 1.94 24.143 9.436 0 3.42-9.173 10.167-23.717 9.417-1.43-.073-3.163-.156-4.573-.25.057 1.737.073 3.14.077 4.07 2.936.257 6.243.394 9.246.527.66.03 1.31.053 1.95.076.207.007.414.01.62.017.444.013.884.023 1.317.03l.667.01c.453.007.903.01 1.35.01.17 0 .343.004.513.004.59-.004 1.17-.007 1.743-.017.184-.003.36-.01.544-.013.403-.01.803-.02 1.2-.034.22-.01.44-.017.66-.026.363-.017.723-.034 1.08-.054.206-.01.41-.023.616-.033.487-.03.967-.064 1.44-.1l.454-.04c.413-.034.82-.073 1.22-.114.2-.02.396-.043.593-.066.313-.033.623-.07.927-.11.203-.023.403-.05.603-.08.323-.043.643-.09.957-.14.16-.027.323-.05.483-.073.443-.074.877-.147 1.303-.23.17-.034.337-.07.504-.104.276-.056.553-.113.823-.173.183-.04.433-.084.613-.127.257-.06.51-.123.757-.187.167-.043.337-.086.5-.13.207-.056.657-.113 1.017-.173-.074-1.553-.147-3.423-.147-4.383z"/>
		<path d="m69.972 76.357c.076 2.99.213 5.947.34 8.82 3.48-.327 7.693-.67 9.923-.907 2.533-.27 6.723-.016 7.683-3.166.944-3.084-4.493-4.704-6.67-4.704-1.55-.003-7.263-.263-11.276-.043z"/>
		<path d="m104.118 87.827c0-1.663-.08-4.043-.13-6.8-.04-2.207.463-6.224.457-8.57-.007-2.61.006-4.637.023-5.997-7.34-2.563-17.947-3.363-29.08-2.81-1.513.077-3.527.22-5.08.4-.01.074-.03.144-.033.217-.01.237-.274 4.403-.374 6.827a60.905 60.905 0 014.734-.207c9.746 0 24.143 1.94 24.143 9.436 0 3.42-9.173 10.167-23.717 9.417-1.43-.073-3.163-.156-4.573-.25.057 1.737.073 3.14.077 4.07 2.936.257 6.243.394 9.246.527.66.03 1.31.053 1.95.076.207.007.414.01.62.017.444.013.884.023 1.317.03l.667.01c.453.007.903.01 1.35.01.17 0 .343.004.513.004.59-.004 1.17-.007 1.743-.017.184-.003.36-.01.544-.013.403-.01.803-.02 1.2-.034.22-.01.44-.017.66-.026.363-.017.723-.034 1.08-.054.206-.01.41-.023.616-.033.487-.03.967-.064 1.44-.1l.454-.04c.413-.034.82-.073 1.22-.114.2-.02.396-.043.593-.066.313-.033.623-.07.927-.11.203-.023.403-.05.603-.08.323-.043.643-.09.957-.14.16-.027.323-.05.483-.073.443-.074.877-.147 1.303-.23.17-.034.337-.07.504-.104.276-.056.553-.113.823-.173.183-.04.433-.084.613-.127.257-.06.51-.123.757-.187.167-.043.337-.086.5-.13.207-.056.657-.113 1.017-.173-.074-1.553-.147-3.423-.147-4.383z"/>
		<path d="m69.972 76.357c.076 2.99.213 5.947.34 8.82 3.48-.327 7.693-.67 9.923-.907 2.533-.27 6.723-.016 7.683-3.166.944-3.084-4.493-4.704-6.67-4.704-1.55-.003-7.263-.263-11.276-.043z"/>
	</g>
	<path d="m151.451 94.687.074 2.67a1.88 1.88 0 002.01 1.843c.063-.003 6.146-.36 8.376-.36.847 0 2.32.067 4.027.147 2.637.12 5.92.27 8.866.27.274 0 .544-.003.807-.003 4.987-.05 8.953-.384 8.993-.39a2.026 2.026 0 001.827-2.094c0-.026-.057-1.17-.113-2.673l-34.867.59z" fill="#A62B44"/>
	<path d="m174.801 96.587c-2.947 0-6.23-.15-8.867-.27-1.703-.077-3.176-.147-4.026-.147-2.23 0-8.387.357-8.447.36a1.88 1.88 0 01-2.01-1.843s-.127-7.15-.223-11.453c-.024-1.02-.167-4.797-.174-5.817l-.003-.5c-.007-.91.58-12.31.6-12.91a2.02 2.02 0 011.987-1.937c.033 0 3.303-.02 3.89-.033 1.796-.044 3.31-.084 4.7-.123 3.556-.1 6.273-.174 10.856-.154 3.297.017 11.094.384 11.17.387 1.047.05 1.937.943 1.98 1.99.014.337.347 8.243.247 10.12-.103 1.99-.437 8.7-.437 11.436 0 2.754.264 8.354.267 8.41.05 1.06-.77 2-1.827 2.094-.04.003-3.89.34-8.876.39-.267-.004-.534 0-.807 0z" fill="#FF528C"/>
	<g fill="#FF2370">
		<path d="m169.804 61.76c-2.79.02-4.956.08-7.576.15-1.39.04-2.904.08-4.7.123-.214.004-.777.01-1.41.017-1.75 2.27-3.66 5.987-4.797 8.703-.14 2.9-.273 5.727-.27 6.164l.003.5c.007 1.02.15 4.796.174 5.816.1 4.304.223 11.454.223 11.454a1.88 1.88 0 002.01 1.843c.063-.003 6.217-.36 8.447-.36.846 0 2.32.067 4.026.147 1.624.073 3.494.16 5.38.213.05-.087.087-.157.094-.167l.01-.02c.16-.336.313-.693.46-1.066l.08-.204c.146-.38.283-.78.413-1.196a30.356 30.356 0 00.377-1.367c.02-.073.036-.147.053-.22.11-.463.213-.943.307-1.443.013-.077.026-.154.043-.234.087-.476.163-.966.233-1.476.007-.05.017-.1.024-.154.28-2.13.44-4.5.47-7.116v-.12c.01-.86.003-1.74-.014-2.65-.173-8.3-1.806-14.1-4.06-17.337zm-9.23 33.343c-4.786-1.05-7.17-3.206-7.563-11.803-.393-8.593 4.217-14.56 7.423-14.56 3.21 0 7.947 2.713 7.947 13.193 0 4.78-3.02 14.217-7.807 13.17z"/>
		<path d="m158.511 76.81c-1.344 1.543-2.31 5.156-2.144 8.483.127 2.493.91 4.28 1.994 4.817 1.436.713 3.046.127 3.983-.807.993-.993 2.143-1.883 2.463-6.29.31-4.31-1.653-5.92-2.196-6.57-.924-1.113-2.814-1.113-4.1.367zm27.8 17.29c-.004-.057-.267-5.66-.267-8.41 0-2.737.337-9.443.437-11.437.096-1.876-.234-9.783-.247-10.12-.043-1.046-.933-1.943-1.98-1.99-.04-.003-1.933-.09-4.243-.183 1.733 8.18 3.36 17.843 3.36 25.56 0 3.197-.237 6.143-.607 8.797 1.07-.07 1.707-.124 1.723-.127a2.019 2.019 0 001.824-2.09z"/>
		<path d="m169.804 61.76c-2.79.02-4.956.08-7.576.15-1.39.04-2.904.08-4.7.123-.214.004-.777.01-1.41.017-1.75 2.27-3.66 5.987-4.797 8.703-.14 2.9-.273 5.727-.27 6.164l.003.5c.007 1.02.15 4.796.174 5.816.1 4.304.223 11.454.223 11.454a1.88 1.88 0 002.01 1.843c.063-.003 6.217-.36 8.447-.36.846 0 2.32.067 4.026.147 1.624.073 3.494.16 5.38.213.05-.087.087-.157.094-.167l.01-.02c.16-.336.313-.693.46-1.066l.08-.204c.146-.38.283-.78.413-1.196a30.356 30.356 0 00.377-1.367c.02-.073.036-.147.053-.22.11-.463.213-.943.307-1.443.013-.077.026-.154.043-.234.087-.476.163-.966.233-1.476.007-.05.017-.1.024-.154.28-2.13.44-4.5.47-7.116v-.12c.01-.86.003-1.74-.014-2.65-.173-8.3-1.806-14.1-4.06-17.337zm-9.23 33.343c-4.786-1.05-7.17-3.206-7.563-11.803-.393-8.593 4.217-14.56 7.423-14.56 3.21 0 7.947 2.713 7.947 13.193 0 4.78-3.02 14.217-7.807 13.17z"/>
		<path d="m158.511 76.81c-1.344 1.543-2.31 5.156-2.144 8.483.127 2.493.91 4.28 1.994 4.817 1.436.713 3.046.127 3.983-.807.993-.993 2.143-1.883 2.463-6.29.31-4.31-1.653-5.92-2.196-6.57-.924-1.113-2.814-1.113-4.1.367zm27.8 17.29c-.004-.057-.267-5.66-.267-8.41 0-2.737.337-9.443.437-11.437.096-1.876-.234-9.783-.247-10.12-.043-1.046-.933-1.943-1.98-1.99-.04-.003-1.933-.09-4.243-.183 1.733 8.18 3.36 17.843 3.36 25.56 0 3.197-.237 6.143-.607 8.797 1.07-.07 1.707-.124 1.723-.127a2.019 2.019 0 001.824-2.09z"/>
	</g>
	<path d="m189.588 91.257c-.007 1.57.163 5.046.287 5.74.183 1.023 1.14 1.847 2.18 1.87.153.003 15.46.356 17.616.356h.14c2.19-.026 4.377-.066 6.567-.11 2.213-.043 5.367-.11 5.367-.11 1.05-.023 1.956-.896 2.023-1.943.007-.106.083-1.337.163-2.67l-34.343-3.133z" fill="#00669D"/>
	<path d="m209.675 96.554c-2.157 0-17.464-.354-17.617-.357-1.04-.023-1.997-.847-2.18-1.87-.013-.067-.293-1.66-.287-3.07.007-1.667.054-5.58.1-9.363.04-3.414.08-6.64.08-7.57 0-1.907-.393-9.967-.396-10.05a1.907 1.907 0 01.503-1.397c.35-.383.83-.607 1.347-.627.176-.006 4.313-.173 5.353-.173 1.37.003 2.747.063 4.08.127a96.87 96.87 0 003.703.123l.49.003c1.244 0 2.51-.036 3.737-.073 1.233-.037 2.507-.073 3.767-.073h.316c.624.003 8.89.216 9.244.226a1.968 1.968 0 011.91 1.987c0 .037-.047 3.473.013 5.89.03 1.153-.01 2.263-.05 3.337a51.226 51.226 0 00-.053 3.16c.026 1.246.076 2.5.123 3.71.103 2.536.207 5.163.097 7.806-.024.544-.007 5.864-.024 6.09-.063 1.047-.973 1.92-2.023 1.944l-5.53.11c-2.19.043-4.377.083-6.567.11h-.136z" fill="#00A8FF"/>
	<path d="m193.775 75.36c.103 2.787 8.86 5.977 23.58 7.14 2.293.183 4.347.29 6.59.35-.027-.793-.053-1.58-.087-2.36-.01-.29-.023-.59-.033-.886-.487-.02-.913-.034-1.373-.047-4.407-.117-13.247-.717-13.33-3.053-.087-2.337 7.853-1.73 11.27-1.854.643-.023 1.77-.05 3.366-.077l.03-.95c.024-.61.044-1.233.054-1.866-3.414.09-6.364.16-8.767.21-10.707.213-21.403.606-21.3 3.393zm-4.054 3.787c-.01.87-.02 1.8-.033 2.746-.013 1.217-.03 2.447-.043 3.61 1.91.324 3.56.714 5.786 1.08 6.577 1.09 18.297 1.877 28.507 2.05.01-.16.017-.276.017-.336.026-.647.04-1.294.046-1.937-2.35-.07-4.366-.167-6.533-.32-9-.643-21.373-3.693-27.747-6.893zm-.003-6.817c4.277-1.147 10.893-1.33 16.11-1.52 4.177-.153 11.007-.473 18.003-.8-.016-.813-.026-1.713-.026-2.553-7.304.327-25.464.793-34.234 1.233.057 1.247.11 2.557.147 3.64zm30.197-7.68c1.09-.033 2.423-.08 3.906-.133 0-.07.004-.117.004-.123a1.97 1.97 0 00-1.91-1.987c-.354-.01-8.62-.223-9.244-.227h-.316c-1.257 0-2.534.037-3.767.074-1.227.036-2.493.073-3.737.073l-.49-.003a97.145 97.145 0 01-3.703-.124c-1.333-.06-2.71-.123-4.08-.127-1.043 0-5.18.167-5.353.174-.517.02-.997.243-1.347.627-.35.383-.53.88-.503 1.396 0 .023.03.617.073 1.507 3.713-.33 7.21-.344 9.71-.347 6.293-.003 14.373-.577 20.757-.78zm1.996 31.68c1.05-.023 1.957-.897 2.023-1.943.004-.07.007-.637.007-1.397-8.157-.1-17.973-.383-23.947-1.14-4.15-.527-6.696-.963-10.373-1.27l-.027.03c-.003.24-.003.46-.003.647-.007 1.41.277 3 .287 3.07.183 1.023 1.14 1.846 2.18 1.87.153.003 15.46.356 17.616.356h.14c2.19-.026 4.377-.066 6.567-.11l5.53-.113z" fill="#0096FF"/>
	<path d="M147.772 81.814v-2.42l-.433.003c-.717-1.863-2.29-3.347-4.48-4.137.383-.826.59-1.726.596-2.633v-2.42h-.46a6.525 6.525 0 00-1.533-2.273c-1.293-1.254-3.02-1.95-4.863-1.967h-.057c-.447 0-.893.043-1.33.123-1.037-3.416-4.277-5.763-8.05-5.763-3.713 0-6.953 2.31-8.023 5.67a6.455 6.455 0 00-.437-.013c-2.917 0-5.41 1.736-6.423 4.183h-.487v2.42c0 .91.197 1.81.573 2.637-2.146.79-3.863 2.466-4.61 4.5l-.44.003.07 2.42h.004c0 2.343 1.146 4.527 3.093 5.927a7.914 7.914 0 00-.543 1.136h-.51v2.517c-.004.08-.007.16-.007.243 0 4.41 3.757 8 8.373 8 1.087 0 2.15-.073 3.147-.46l.107 1.717c0 .71.52 1.283 1.16 1.283l10.83-.136c.64 0 1.16-.577 1.16-1.284l.126-2c1.167.507 2.62.75 4.44.75 3.217 0 7.357-1.8 8.057-6.866a7.5 7.5 0 00.067-1.05h.006V89.21h-.47c-.303-.856-.86-1.613-1.333-2.203 1.69-.867 2.66-2.717 2.68-5.193z" fill="#00753F"/>
	<path d="m133.188 99.95-11.136.137c-.64 0-1.16-.577-1.16-1.284l.013-.113.413-1.753c-1.1.49-2.303.606-3.53.606-4.616 0-8.373-3.586-8.373-8 0-1.373.367-2.71 1.06-3.896-1.947-1.4-3.163-3.58-3.163-5.924 0-3.066 2.09-5.833 5.046-6.923a6.385 6.385 0 01-.573-2.636c0-3.644 3.1-6.607 6.91-6.607.143 0 .29.003.437.013 1.07-3.356 4.31-5.67 8.023-5.67 3.773 0 7.013 2.347 8.05 5.764.44-.084.887-.124 1.33-.124h.057c1.843.017 3.57.714 4.863 1.967 1.3 1.26 2.007 2.926 1.99 4.697-.01.91-.213 1.81-.597 2.633 3.074 1.106 4.944 3.573 4.917 6.553-.023 2.477-.99 4.327-2.69 5.194 1.09 1.353 2.063 3.556 1.73 5.963-.7 5.07-4.84 6.867-8.057 6.867-2.13 0-3.763-.33-5.016-1.03l.603 2.28c.01.71-.51 1.286-1.147 1.286z" fill="#00A971"/>
	<path d="m141.708 96.903c-9.413-.773-21.37-2.733-31.946-5.1 1.02 3.317 4.23 5.747 8.026 5.747 1.227 0 2.43-.117 3.53-.606l-.413 1.753-.013.113c0 .707.52 1.283 1.16 1.283l11.136-.136c.64 0 1.16-.577 1.16-1.283l-.603-2.28c1.253.7 2.887 1.03 5.017 1.03.94 0 1.96-.16 2.946-.504v-.017zm3.377-12.319a4.421 4.421 0 001.33-1.06c-10.11-.694-21.993-2.377-22.143-6.28-.157-3.984 10.89-4.054 19.483-4.02a9.399 9.399 0 00-.893-.384c.383-.826.59-1.727.596-2.633a6.319 6.319 0 00-.72-2.987c-1.696.037-3.303.07-4.803.097-8.487.163-17.953.467-25.853.963a6.292 6.292 0 00-.29 1.883c0 .907.196 1.81.573 2.637-2.957 1.09-5.047 3.86-5.047 6.924 0 2.343 1.217 4.526 3.164 5.923-.004.003-.004.007-.007.01 8.707 1.953 20.23 3.75 32.7 4.69 1.16.087 2.463.16 3.633.233 0-.013-.006-.033.007-.036.333-2.4-.64-4.607-1.73-5.96zm-17.924-26.677c-3.713 0-6.95 2.31-8.023 5.67 0 0 8.933-.28 15.833-.577-1.233-3.05-4.29-5.093-7.81-5.093z" fill="#00A059"/>
	<path d="m143.968 90.637c-.01-.013-.543-.933-1.563-2.147-1.094-1.35-2.94-3-5.204-4.587 1.037.024 2.684.047 3.904.047.196 0 .376-.15.4-.35l.416-3.337a.391.391 0 00-.313-.436c-.01-.004-1.517-.357-3.897-.547.047-.4.08-.813.117-1.223a.394.394 0 00-.323-.433l.316-.194a.384.384 0 00.15-.53c-.01-.017-1.216-1.907-2.48-3.04a13.12 13.12 0 00-3.663-2.41c1.97-.113 3.323-.21 3.323-.21a.42.42 0 00.387-.376l.2-3.37a.45.45 0 00-.107-.3.38.38 0 00-.28-.127 61.173 61.173 0 00-3.88-.117c-.556 0-1.09.007-1.61.02.037-.873.07-1.543.07-1.903 0-.203-.156-.367-.363-.4l-4.147-.46a.367.367 0 00-.306.093.384.384 0 00-.144.277c0 .007-.066 1.053-.083 2.743-3.733.43-5.803 1.094-5.823 1.1a.417.417 0 00-.277.454l.457 2.66c.03.186.2.33.39.333.276.003.56.01.866.01.654 0 1.377-.017 2.114-.027-.977 1.134-1.874 2.5-2.707 4.237-.27.52-.523 1.06-.777 1.647l-1.64-.084a.432.432 0 00-.316.133.402.402 0 00-.1.32l.236 1.8c-1.35.197-2.763.464-4.136.85a.408.408 0 00-.294.484l.7 2.897a.4.4 0 00.394.31h.01s1.073-.024 2.683-.117c-.98 1.653-3.267 5.773-4.03 7.657a.404.404 0 00.13.476l1.457 1.06c.07.057.15.077.23.077.123 0 .246-.05.316-.153l3.69-5.074.47 3.893c.03.194.187.34.39.347l2.924.084h.056c.107 0 .164-.044.234-.114a.405.405 0 00.13-.29l-.06-5.973a28.129 28.129 0 011.93 3.213c.066.14.21.224.363.224.05 0 .1-.01.157-.027l2.616-1.174c-.356.757-.57 1.264-.57 1.274a.4.4 0 00.17.493l1.767 1.064a.44.44 0 00.217.056c.106 0 .216-.05.3-.14 0 0 1.126-1.287 2.536-2.993.247-.303.49-.61.727-.92l.13 4.913c.01.217.193.394.41.394h.007l2.553-.04a.402.402 0 00.39-.354s.213-1.746.54-4.803c.6 1.037 1.343 2.45 1.987 4.246.04.117.133.204.25.247.04.017.08.017.126.017.07 0 .134-.014.187-.04.15.36.293.733.433 1.127.04.116.134.2.254.25a.392.392 0 00.343-.043l3.41-2.11a.42.42 0 00.13-.554zm-21.373-11.17-.007-.66a22.178 22.178 0 001.793-2.904c.25-.393.514-.8.757-1.233.133 1.573.337 3.2.633 4.797-.37-.01-.923-.03-1.64-.03-.45.003-.97.02-1.536.03zm6.823 5.95c-.33.48-.62.98-.89 1.457a20.632 20.632 0 00-4.383-3.364c.826-.14 1.643-.3 2.413-.497a.406.406 0 00.313-.416l-.193-2.19 1.647-.25v2.606c0 .197.13.357.32.394.02.003.793.15 2.36.323a12.057 12.057 0 00-1.587 1.937zm-.303-5.814c.043-.546.203-3.073.37-5.89 1.056 1.094 2.256 2.56 3.06 4.244l.033 1.263c-1.1.057-2.26.18-3.463.383z" fill="#00753F"/>
	<path d="m142.964 91.243c-.093-.14-1.996-3.106-5.206-5.363.946.02 1.986.043 3.106.043.204 0 .374-.16.39-.356l.42-3.33a.404.404 0 00-.3-.447c-.083-.01-1.553-.367-3.886-.55.043-.397.076-.8.123-1.217a.393.393 0 00-.343-.433l-2.47-.377 2.026-1.29a.433.433 0 00.18-.263.42.42 0 00-.063-.313c-.083-.12-1.64-2.33-5.197-3.924 1.93-.12 3.257-.213 3.287-.213a.398.398 0 00.377-.38l.21-3.373a.408.408 0 00-.1-.294.382.382 0 00-.277-.13 63.597 63.597 0 00-3.86-.126c-.543 0-1.07.003-1.587.03.04-.877.06-1.547.06-1.904a.391.391 0 00-.363-.4l-4.067-.466a.402.402 0 00-.306.093.403.403 0 00-.144.277c0 .04-.066 1.086-.08 2.75-3.5.416-5.386 1.06-5.503 1.09a.416.416 0 00-.26.463l.453 2.65a.388.388 0 00.39.337c.274 0 .557.013.857.013.563 0 1.16-.013 1.773-.023-1.133 1.316-2.106 2.913-3.013 4.9-.08.16-.03.36.113.466l.694.574-2.647-.147c-.12 0-.233.05-.31.133a.4.4 0 00-.107.33l.227 1.7a31.52 31.52 0 00-3.953.787.412.412 0 00-.28.49l.696 2.903a.404.404 0 00.39.304h.01c.104 0 .977 0 2.297-.05-.98 1.646-2.553 4.396-3.34 6.31a.407.407 0 00.147.483l1.453 1.063a.44.44 0 00.23.064.394.394 0 00.317-.147l3.116-3.927.547 4.17c.03.2.197.35.397.35l2.71.08h.006c.107 0 .197-.05.28-.11a.43.43 0 00.117-.296l-.05-5.96a27.969 27.969 0 011.883 3.203c.067.14.21.22.364.22.05 0 .1-.007.156-.033l2.617-1.167c-.35.727-.553 1.22-.57 1.27a.41.41 0 00.17.5l1.767 1.06a.469.469 0 00.216.053c.107 0 .217-.04.3-.13.004-.013 1.144-1.303 2.537-3.003.247-.3.49-.613.727-.92l.13 4.913c.01.217.193.394.41.394h.006l2.36-.044c.2 0 .38-.146.394-.35.003-.03.23-1.906.57-5.12.65 1.064 1.436 2.584 2.15 4.57.04.117.133.207.25.247.04.013.08.023.13.023a.51.51 0 00.216-.056l3.41-2.11a.422.422 0 00.18-.257.5.5 0 00-.06-.307zm-18.783-5.746c.877-.14 1.743-.31 2.567-.517a.4.4 0 00.31-.42l-.187-2.213 1.453-.227v2.613c0 .19.13.354.314.39.076.02.833.17 2.356.334a12.755 12.755 0 00-1.576 1.923c-.33.48-.62.98-.89 1.45a20.525 20.525 0 00-4.347-3.333zm8.397-4.307c-1.174.07-2.327.193-3.464.38.044-.573.184-3.107.344-5.917 1.056 1.094 2.266 2.57 3.086 4.277l.034 1.26zm-7.44-4.557c.14 1.564.336 3.204.63 4.787a38.102 38.102 0 00-2.19-.057c-.307 0-.634 0-.984.01l-.01-1.12-.003-.043c.58-.657 1.64-1.957 2.557-3.577z" fill="#fff"/>
	<path d="m213.395 75.267c.023.013.046.023.066.036l.054.03c.056.037.106.07.15.107v-1.847a36.24 36.24 0 013.823 2.644c.223.176.543.14.713-.09l.667-.9.493.403 2.66-3.6a.495.495 0 00-.076-.677c-1.05-.893-3.234-2.056-5.757-3.156a60.514 60.514 0 00-3.703-1.564c-.027-.01-.057-.02-.084-.033-.3-.117-.6-.227-.9-.337-.03-.01-.06-.023-.093-.033-.303-.11-.607-.22-.91-.323h-.003c-.294-.1-.584-.2-.874-.294a57.752 57.752 0 00-.966-.31l-.064-.02c-.03-.01-.06-.016-.09-.026a35.204 35.204 0 00-.806-.237c-.007 0-.01-.003-.017-.003-.26-.074-.513-.14-.763-.207-.047-.013-.097-.023-.144-.037-.243-.06-.48-.12-.713-.17l-.133-.03c-.24-.053-.474-.103-.697-.143-.007 0-.013-.003-.02-.003-.027-.004-.053-.007-.077-.007h-.003a.686.686 0 00-.083.007c-.004 0-.01 0-.014.003-.156.03-.313.07-.47.113-.053.014-.103.034-.156.047-.107.03-.21.063-.317.1-.017.007-.033.01-.053.017-.064.023-.127.05-.194.073-.06.023-.12.043-.176.067l-.067.03c-.067.026-.133.056-.2.083l-.163.07c-.03.013-.064.03-.094.047a.756.756 0 01-.08.036l-.133.064-.127.06-.123.063a2.25 2.25 0 00-.123.067l-.187.096c-.027.014-.05.03-.077.044-.026.013-.05.03-.076.043-.05.027-.1.057-.15.087l-.134.076c-.053.03-.103.064-.156.094l-.034.02-.156.096-.09.057c-.06.037-.12.077-.177.117l-.06.04c-.047.03-.093.06-.14.093l-.057.037-.186.126c-.04.03-.084.057-.124.087l-.096.067-.03.02c-.064.043-.124.09-.187.133l-.243.18a3.664 3.664 0 00-.187.143c-.08.06-.16.124-.24.184-.063.05-.127.096-.187.146-.08.064-.156.127-.236.19-.064.05-.124.1-.187.154-.077.063-.153.13-.233.193-.06.053-.124.103-.184.157l-.23.2c-.06.05-.116.103-.176.153l-.237.21-.167.15-.246.227c-.05.046-.1.09-.147.136l-.27.257-.117.11c-.126.123-.253.243-.376.367l-.054.053-.316.317a3.577 3.577 0 00-.124.126c-.076.08-.153.157-.23.237-.05.05-.096.1-.143.15-.067.07-.137.14-.2.21l-.147.157c-.063.066-.126.133-.186.2l-.144.153-.18.197-.11.12-.016.016c-.007.007-.01.014-.017.017-.013.017-.03.033-.043.05a72.501 72.501 0 00-2.774 3.25.5.5 0 00.014.643l1.65 1.947c.173.197.466.23.673.073 1.403-1.05 7.01-5.37 11.393-7.943a.487.487 0 01.454-.023c1.463.65 3.793 1.696 6.273 3.11l-.063-.014c-.074-.016-.15-.026-.227-.04l-.107-.02c-.01 0-.02-.003-.033-.003-.083-.01-.17-.02-.257-.027-.043-.003-.086-.01-.13-.013a5.381 5.381 0 00-.406-.013h-.057c-.11 0-.223.006-.337.013l-.116.01c-.097.01-.197.02-.297.033-.023.004-.05.004-.073.01-.01 0-.02.004-.03.007-.13.02-.26.047-.39.077a1.422 1.422 0 00-.067.02c-.11.026-.217.06-.323.096-.02.007-.04.01-.057.017-.02.007-.04.017-.06.023a4.898 4.898 0 00-.28.114c-.033.013-.067.026-.1.043-.123.057-.243.12-.36.19l-.06.04c-.097.06-.19.123-.283.193-.037.027-.07.054-.104.08a3.23 3.23 0 00-.236.207l-.09.087c-.104.103-.2.21-.294.33l-.03.04a3.594 3.594 0 00-.306.466 3.92 3.92 0 00-.164.317c-.02.047-.043.09-.063.137-.067.156-.13.32-.183.493 0-.003-.004-.003-.004-.007a5.945 5.945 0 00-.183-.42c-.023-.046-.047-.086-.07-.13-.047-.086-.09-.173-.14-.256-.03-.05-.06-.094-.09-.14-.047-.07-.09-.14-.137-.207-.033-.047-.07-.09-.103-.137-.047-.06-.093-.12-.143-.176-.037-.044-.077-.084-.114-.124-.05-.053-.1-.103-.15-.153-.04-.04-.08-.077-.123-.11a2.77 2.77 0 00-.157-.133c-.043-.034-.086-.067-.13-.097a2.632 2.632 0 00-.163-.113 1.836 1.836 0 00-.133-.084c-.057-.033-.11-.066-.167-.096-.027-.014-.05-.03-.077-.044-.016-.01-.036-.016-.053-.023-.083-.04-.163-.08-.247-.113-.03-.014-.063-.027-.093-.04a4.166 4.166 0 00-.347-.124c-.003 0-.006-.003-.01-.003-.02-.007-.04-.01-.06-.017a3.66 3.66 0 00-.393-.093 2.635 2.635 0 00-.223-.04l-.057-.01c-.023-.003-.043-.003-.067-.007a6.22 6.22 0 00-.25-.026l-.106-.01c-.117-.007-.23-.014-.344-.014h-.02c-.016 0-.033.004-.053.004-.117 0-.23.006-.343.013a28.446 28.446 0 00-.387.043c-.023.004-.047.004-.07.007l-.05.01a5.737 5.737 0 00-.39.077h-.003c-.124.03-.237.063-.344.1-.013.003-.03.006-.043.013l-.05.02c-.067.023-.127.05-.187.073a3.244 3.244 0 00-.29.143v2.037c.06-.036.134-.073.214-.11.023-.01.05-.023.076-.033.004 0 .004-.003.007-.003 1.373 3.35 4.5 2.98 5.693 2.713-.003.453-.01.827-.01.997-4.236.143-8.893.483-13 1.206a.5.5 0 00-.383.657l1.133 3.447a.5.5 0 00.477.336c1.11-.013 2.957-.046 5.303-.12-1.023.954-2.44 2.467-3.273 4.217a.57.57 0 00-.047.39c.18.697.637 2.427 1.117 2.857.093.083 1.467 1.646 1.597 1.643l.35-.013c.09.07.196.11.313.106 1.077-.023 6.49-.256 11.293-2.463.08.033.167.07.267.107.367.753.763 1.55 1.207 2.4a.498.498 0 00.68.21c.51-.27 1.386-.737 2.26-1.187l1.23.397s.293-.127 1.22-.634a.508.508 0 00.213-.696c-1.713-3.007-3.647-6.087-5.76-7.274a.516.516 0 00-.303-.076c-.82.056-2.84.63-3.647.97a.499.499 0 00-.24.693c.36.67.61 1.133.847 1.587a94.602 94.602 0 01-2.467.223c-.987.077-2.02.14-3.047.19-.156.007-.313.013-.473.023.53-1.08 1.187-2.386 1.967-3.88 4.013-.193 8.683-.493 13.42-.97a.502.502 0 00.446-.433l.43-3.28a.497.497 0 00-.47-.563c-1.463-.074-6.03-.247-11.483-.104l-.02-.98c1.007.397 4.513.62 5.857-2.726z" fill="#00669D"/>
	<path d="m102.121 75.047c-.2-2.413-1.273-3.57-1.85-4.027-.01-.007-.017-.016-.027-.023-.09-.08-.183-.153-.28-.23-.01-.007-.02-.017-.03-.023a5.063 5.063 0 00-.34-.23c-.03-.02-.06-.037-.093-.057a7.704 7.704 0 00-.33-.187l-.04-.023c-.007-.004-.01-.007-.016-.007a7.98 7.98 0 00-.337-.163c-.017-.007-.034-.013-.05-.023-.1-.044-.203-.09-.307-.13l-.133-.05c-.084-.034-.167-.064-.25-.094-.054-.017-.107-.037-.157-.053-.083-.027-.167-.057-.25-.08-.027-.007-.05-.017-.076-.023l-.07-.02a16.89 16.89 0 00-.567-.157c-.004 0-.007-.004-.01-.004-.194-.05-.397-.096-.603-.14l-.147-.03c-.21-.043-.427-.086-.65-.123-.03-.007-.063-.01-.097-.017l-.623-.1c.37-.83.683-1.58.886-2.156a.496.496 0 00-.36-.65l-.686-.16a.399.399 0 00-.057-.023l-.037-.01-3.446-.794a.535.535 0 00-.113-.013h-.004c-.026 0-.05.003-.077.007-.02.003-.04.01-.056.013-.007.003-.013.003-.02.003-.004 0-.007 0-.01.004-.04.013-.074.033-.11.053l-.027.02a.507.507 0 00-.077.07c-.01.01-.016.02-.023.03a.524.524 0 00-.067.12c-.946 2.56-2.55 8.02-3.03 9.673-.006.02-.006.04-.01.057-.17.606-.44 1.587-.493 1.92-.047.306.09.456.197.49.556.163.923.267.923.267l.287-.937 1.13.32a.5.5 0 00.543-.19c.45-.634.97-1.487 1.497-2.43.556.033 1.197.1 1.85.213 1.267.444 2.923 1.15 3.383 1.94.53.91-.103 4.087-1.07 7.49a102.95 102.95 0 00-2.363-1.463.503.503 0 00-.59.063c-1.834 1.677-4.963 4.26-5.797 4.967-.233.197-.233.6-.007.803l1.404 1.243a.52.52 0 00.526.087c.167-.067.344-.143.524-.22.117.047.25.053.373.004 1.763-.704 3.187-1.214 5.24-3.19-.86 2.726-1.813 5.306-2.436 6.69a.49.49 0 00.303.663c.18.053.703.22.703.22l.154-.32c.05.04.103.073.166.093l1.157.683a.496.496 0 00.58-.226c.753-1.313 3.677-6.757 5.203-11.85l.237.36c.006-.004 1.313-4.587 1.033-7.92zm-8.16-5.117v-.003.003zm.647-.93-.227-.03c.03-.07.064-.143.09-.213l.197.25c-.02-.004-.04-.004-.06-.007zm-6.068 15.41c.09 0 .18-.023.26-.076.543-.34 1.11-.704 1.68-1.09l.47.406c-.756-.013.21.123.327.123.09 0 .18-.023.26-.076 2.046-1.28 3.58-2.663 5.153-4.984.174-.253.12-.59-.14-.743l-3.47-2.236a.485.485 0 00-.25-.067.489.489 0 00-.367.163c-.563.617-1.23 1.364-1.893 2.107-1.42 1.576-3.16 3.553-3.88 4.37a.49.49 0 00.05.7l1.477 1.276c.096.08.206.127.323.127zm-15.823-4.98v-2.05 2.05zm12.996.28a.498.498 0 00-.596-.353l-.78.193c-.01-1.106-.017-2.21-.03-3.28.533.044.98.077 1.29.097.263.02.493-.17.526-.43l.464-3.293c.037-.274-.15-.554-.42-.594a32.085 32.085 0 00-1.914-.21 311.8 311.8 0 00-.1-5.213.504.504 0 00-.44-.483c-.863-.1-2.466-.374-3.353-.51a.502.502 0 00-.577.463 102.856 102.856 0 00-.233 5.517c-.733-.017-1.39-.027-1.917-.03.274-1.417.497-2.694.617-3.417a.503.503 0 00-.383-.573l-3.13-.69a.5.5 0 00-.597.37c-.653 2.79-.763 3.776-.943 5.1-.034.233-.024 5.513.203 5.57l2.033.483a.496.496 0 00.574-.277c.25-.55.53-1.533.806-2.687.687.127 1.677.254 2.764.374.046 1.743.14 3.397.26 4.973-.017.007-.037.01-.054.017v-.03c-.393.12-.786.243-1.176.367-.004 0-.007.003-.01.003-.387.123-.767.25-1.134.376h-.003c-.017.007-.033.014-.05.017-.12.04-.24.084-.357.127-.043.017-.09.033-.133.047-.093.033-.187.066-.277.1l-.136.05c-.094.033-.184.07-.274.103-.04.013-.076.03-.116.043l-.224.09c-.853.323-1.593.64-2.133.937a.495.495 0 00-.22.61c.003.01.01.023.013.037.004.01.004.02.007.03.147.39.373 1.023.607 1.66.196.54.396 1.08.553 1.476.02.05.05.09.09.127a.567.567 0 00.64.193c.847-.32 2.807-1.073 4.813-1.897.274 2.42.58 4.66.854 6.787.036.277.286.47.563.43a46.142 46.142 0 002.247-.403.483.483 0 00.4-.457c.037-1.83.043-4.83.03-8.143.587-.284 1.063-.54 1.356-.74a.43.43 0 00.11-.11c.057-.033.107-.067.154-.1a.494.494 0 00.206-.487c-.076-.496-.26-1.586-.47-2.36z" fill="#AF3300"/>
	<path d="m181.581 69.567a161.95 161.95 0 00-10.53-.503c.46-.837.913-1.68 1.366-2.537a.5.5 0 00-.31-.713l-.943-.264v-.006l-4.297-1.2c-.02-.007-.04-.01-.06-.014-.023-.003-.046-.003-.07-.003-.026 0-.05.003-.076.007l-.044.01-.026.006c-.007.004-.014.004-.02.004-.01.003-.017.01-.024.013a.474.474 0 00-.113.067c-.013.01-.023.02-.037.03a.466.466 0 00-.106.136 275.856 275.856 0 01-2.364 4.484c-2.566.073-5.44.236-7.806.436a.501.501 0 00-.447.597c.273 1.403.337 1.817.53 2.677l.233-.064c.214.817.43 1.53.56 1.934a.5.5 0 00.477.35c1.077-.004 2.17-.02 3.273-.044a216.643 216.643 0 00-2.883 5.57 172.177 172.177 0 00-3.69 7.704.503.503 0 00.19.63l2.023 1.26.24-.847.554.343c.223.14.52.08.673-.133.673-.953 2.54-3.627 4.913-7.323.91-.174 5.517-.977 9.55-.147.014.003.027.01.04.013-.683.614-1.733 1.537-3.046 2.637h-.004c-.226-.083-.45-.163-.67-.24-.06-.02-.12-.043-.176-.063l-.544-.187a39.205 39.205 0 00-.713-.237l-.147-.046-.453-.144-.093-.03-.05-.016c-.1-.03-.197-.06-.294-.087-.046-.013-.096-.03-.143-.043l-.403-.114h-.004c-.02-.006-.04-.01-.056-.013-.024-.003-.047-.007-.07-.007h-.004a.503.503 0 00-.156.027c-.007.003-.01.007-.017.007l-.023.01a.457.457 0 00-.147.096c-.077.077-.15.157-.223.237-.02.023-.04.047-.06.067-.054.06-.104.12-.154.18-.016.023-.036.043-.053.066-.053.064-.103.13-.15.194-.01.013-.02.03-.033.043-.057.077-.114.153-.167.23-.513.69-1.213 1.593-1.47 2.013-.147.24-.067.584.18.72.37.207.96.54 1.71.964-.683.506-1.74 1.293-2.33 1.736a.49.49 0 00-.123.687l1.283 1.883.387-.446.546.806a.5.5 0 00.58.194 31.445 31.445 0 005.404-2.58c1.66.97 3.463 2.043 5.23 3.126a.502.502 0 00.59-.05c.43-.376 1.3-1.15 2.12-1.953l.613.397c.363-.374.99-1.017 1.51-1.58a.504.504 0 00-.09-.76c-1.087-.727-3.447-1.86-5.34-2.7 1.48-1.44 2.803-3.15 3.71-5.157l.343.197c.314-.93.597-1.82.957-3.297a.497.497 0 00-.317-.593c-.876-.28-1.87-.53-2.95-.734-2.08-.433-4.26-.593-6.323-.593-.127 0-.253.003-.38.003-1.37.004-2.787.074-4.22.23.47-.776.95-1.58 1.433-2.4 4.377-.223 8.91-.57 13.58-1.033a.503.503 0 00.447-.42l.16-1.003.157.01.343-2.13a.51.51 0 00-.463-.577zm-15.627 18.823-.463-.446.083-.174.683.387-.303.233zm-4.653-13.383v-.053h.03c-.01.013-.02.033-.03.053z" fill="#A62B44"/>
	<g fill="#006D67">
		<path d="m56.268 66.864 4.147 1.513c.243.087.38.337.32.587-.303 1.27-1.667 6.896-1.883 7.136-.117.13-7.197 17.73-7.37 17.74l-.917.057c-.34.023-.493-.37-.41-.7.237-.957 3.27-14.337 5.453-25.95a.503.503 0 01.66-.383z"/>
		<path d="m49.778 73.757.58 4.346a.5.5 0 00.626.417c2.05-.546 9.514-.587 9.37 1.717-.223 3.617-2.393 10.443-2.933 12.423-.067.25.067.51.31.6l1.93.707c.267.097 1.003-1.763 1.09-2.034.737-2.313 3.737-12.076 3.093-15.436-1.086-5.674-11.383-3.79-13.676-3.297a.504.504 0 00-.39.557z"/>
		<path d="m59.338 72.66s3.653.49 4.61 2.947-.147 7.666-.397 8.873c-.21 1.01-1.553-.187-1.553-.187l-2.66-11.633zm-21.367-.923a.499.499 0 01-.426-.567l.483-3.437a.495.495 0 01.487-.433h.11c3.23 0 6.85.957 8.06 1.31a.498.498 0 01.343.59l-.57 2.503a.498.498 0 01-.463.39c-.657.034-1.474.01-2.104.01-2.65 0-4.946-.246-5.92-.366zm7.263 16.99c-2.87 1.547-6.443 3.13-7.663 3.66a.493.493 0 01-.64-.233l-1.757-3.407a.52.52 0 01-.036-.373c.77-2.594 1.95-5.19 2.776-6.87l4.214-.8c-.7 2.52-1.307 4.59-1.76 6.096 1.483-.433 2.893-.813 3.996-1.093l.87 3.02zm1.211.293c.136.447.276.893.416 1.327a.5.5 0 00.477.347.466.466 0 00.273-.087l3.01-2.04a.501.501 0 00.17-.63c-.406-.857-2.236-4.407-4.223-6.817a.505.505 0 00-.49-.173l-2.08.446a.498.498 0 00-.38.61c.143.567.677 2.697.993 3.864l1.834 3.153z"/>
		<path d="m50.011 87.45c-.407-.857-1.53-3.017-3.517-5.43a.498.498 0 00-.49-.17l-1.546.327a.5.5 0 00-.38.61c.103.403.26 1.023.46 1.77-.673.173-1.44.376-2.263.606-.254.07-.51.144-.77.217l-.314.09c-.13.037-.26.077-.393.113v2.037c1.483-.433 2.893-.813 3.996-1.093v-1.02c.367 1.343.82 2.92 1.287 4.353a.5.5 0 00.757.26l3.006-2.04a.506.506 0 00.167-.63zm-16.003-10.856.623 3.8c.044.27.74.38 1.01.34 1.557-.227 6.68-1.03 12.734-2.567a.505.505 0 00.376-.457l.164-2.733a.5.5 0 00-.504-.53c-1.826.026-8.456.283-14.026 1.576a.5.5 0 00-.377.57z"/>
	</g>
	<path d="M218.778 81.11c-1.073-.053-3.67-.163-7.03-.163-1.297 0-2.707.016-4.187.056l-.043-2.01c.293.124.823.234 1.453.234 1.624 0 3.93-.724 4.694-3.787-.377-.323-1.297-.603-2.347-.603-1.66 0-3.65.7-4.37 3.043-.89-2.296-2.763-2.947-4.323-2.95-.957 0-1.797.243-2.224.507.844 3.12 2.947 3.746 4.53 3.746.594 0 1.114-.09 1.464-.166 0 .87-.014 1.737-.014 2.02-3.97.146-8.346.486-12.346 1.19a.5.5 0 00-.384.656l.83 2.424c.067.203.257.34.477.34 1.273-.017 3.433-.047 6.187-.137-1.304 1.05-3.027 2.66-4.127 4.58a.504.504 0 00-.043.394c.66 2.223 2.173 3.706 2.653 4.14a.521.521 0 00.343.126c1.09-.027 6.624-.263 11.47-2.546.394.81.817 1.666 1.297 2.59.09.17.263.27.443.27.08 0 .16-.02.234-.06.81-.434 2.546-1.354 3.73-1.924a.505.505 0 00.216-.7c-1.383-2.426-2.616-4.386-4.74-5.736a.492.492 0 00-.306-.077c-.82.057-1.977.25-2.787.59a.499.499 0 00-.237.693c.307.57.614 1.184.934 1.837-1.987.253-4.824.463-7.474.573.59-1.233 1.414-2.9 2.46-4.9 3.924-.18 8.527-.466 13.297-.947a.503.503 0 00.447-.433l.296-2.3a.51.51 0 00-.473-.57zm2.01-8.22c-2.41-2.05-10.767-5.51-15.563-6.403a.514.514 0 00-.2 0c-4.644.943-10.157 7.293-12.087 9.673-.15.19-.143.46.017.644l1.243 1.426a.498.498 0 00.677.07c1.403-1.05 6.556-4.856 10.94-7.43a.508.508 0 01.453-.023c2.44 1.083 7.273 3.257 11.22 6.41a.507.507 0 00.717-.09l2.66-3.6a.502.502 0 00-.077-.677zM46.495 83.037a.505.505 0 00-.49-.173l-1.547.326a.498.498 0 00-.38.61c.143.567.4 1.557.717 2.724-1.104.283-2.51.66-3.997 1.093a261.993 261.993 0 001.76-6.097c1.727-.356 3.66-.793 5.7-1.31a.505.505 0 00.377-.456l.163-2.734a.5.5 0 00-.503-.53c-1.83.027-8.01.21-13.58 1.504a.501.501 0 00-.377.57l.623 3.8a.5.5 0 00.494.42c.023 0 .046 0 .07-.007.543-.08 1.523-.227 2.823-.457-.827 1.68-2.007 4.274-2.777 6.87a.518.518 0 00.037.374l1.757 3.406a.504.504 0 00.643.234c1.217-.53 4.79-2.11 7.663-3.66.137.446.277.893.417 1.326a.5.5 0 00.757.26l3.01-2.04a.501.501 0 00.17-.63 28.31 28.31 0 00-3.53-5.423zM64.11 78.48c-.443-2.326-2.443-3.383-4.8-3.783.464-1.797.807-3.2.974-3.87a.499.499 0 00-.32-.59l-3.667-1.293a.499.499 0 00-.657.383c-.333 1.813-.666 3.56-.996 5.24-1.854.143-3.46.453-4.207.613a.497.497 0 00-.39.554l.583 4.346a.496.496 0 00.624.417 49.696 49.696 0 012.296-.553 361.235 361.235 0 01-3.053 13.31c-.08.32.163.623.52.62l2.077-.144a.496.496 0 00.406-.263c1.277-2.39 3.127-8.693 4.59-14.107 1.39.004 2.44.297 2.517 1.16.213 2.354-1.933 10.417-2.473 12.397a.495.495 0 00.31.6l1.93.707a.495.495 0 00.647-.317c.73-2.307 3.733-12.067 3.09-15.427zm-26.413-4.76c.973.12 3.27.367 5.92.367.63 0 1.28-.013 1.94-.047a.5.5 0 00.463-.39l.57-2.503a.499.499 0 00-.343-.59c-1.21-.353-4.67-1.273-7.9-1.273h-.11a.495.495 0 00-.487.433l-.483 3.437a.501.501 0 00.43.566zM89.365 85.11c.09 0 .18-.023.26-.076 2.046-1.28 4.453-2.884 6.003-4.89a.504.504 0 00-.14-.744l-2.79-1.613a.486.486 0 00-.25-.067.488.488 0 00-.366.163 506.955 506.955 0 00-4.564 5.124.499.499 0 00.05.706l1.47 1.274c.094.08.21.123.327.123zm4.597-14.16c.386-.863.713-1.643.923-2.237a.496.496 0 00-.36-.65l-3.447-.793a.495.495 0 00-.577.31c-.946 2.56-2.55 8.02-3.03 9.674a.499.499 0 00.344.62l1.693.48a.501.501 0 00.543-.19c.487-.684 1.054-1.62 1.627-2.657.18-.007.364-.01.557-.01 1.713 0 3.847.337 4.733 1.867.6 1.033-.293 5.016-1.463 8.89a97.992 97.992 0 00-2.497-1.547.505.505 0 00-.59.063 169.19 169.19 0 01-4.553 4.004.504.504 0 00-.007.756l1.413 1.243a.493.493 0 00.517.09c1.78-.71 3.21-1.22 5.29-3.233-.76 2.374-1.573 4.56-2.136 5.81a.495.495 0 00.306.68l2.197.683a.5.5 0 00.583-.223c.937-1.633 4.857-8.736 5.65-14.533.8-5.9-.567-8.237-7.716-9.097zm-7.89 10.687a.495.495 0 00-.597-.35c-.263.063-.623.153-1.05.26-.013-1.1-.027-2.2-.043-3.27.376.03.7.053.976.07a.5.5 0 00.49-.43l.467-3.293a.501.501 0 00-.424-.564 26.14 26.14 0 00-1.576-.177c-.047-2.48-.09-4.423-.11-5.256a.498.498 0 00-.437-.483c-.863-.104-2.627-.374-3.517-.51a.507.507 0 00-.577.46 94.553 94.553 0 00-.222 5.556c-.85-.013-1.607-.02-2.19-.02.293-1.49.53-2.82.646-3.493a.5.5 0 00-.383-.573l-3.207-.707a.495.495 0 00-.593.37c-.653 2.79-.947 7.84-1 10.193a.496.496 0 00.38.493l1.956.484c.04.01.08.013.12.013.194 0 .374-.11.454-.29.246-.547.526-1.537.806-2.69.727.14 1.844.283 3.05.41.057 1.754.16 3.413.29 4.997-2.09.633-4.193 1.363-5.376 2.01a.496.496 0 00-.224.61c.277.737.88 2.333 1.257 3.19a.49.49 0 00.633.263c.754-.283 2.394-.913 4.164-1.633.283 2.423.61 4.666.883 6.796a.5.5 0 00.494.437c.023 0 .046 0 .07-.003a46.87 46.87 0 002.246-.404.496.496 0 00.4-.456c.103-1.757.137-4.79.123-8.163.834-.387 1.51-.734 1.887-.99a.488.488 0 00.207-.487c-.08-.51-.264-1.597-.474-2.37zM166.742 66.36c.043 0 .086.007.133.017l4.297 1.2a.501.501 0 01.31.713c-.494.937-.99 1.86-1.49 2.77 3.69.043 7.483.21 11.28.52.29.023.5.29.456.58l-.343 2.13a.506.506 0 01-.447.42c-4.683.463-9.226.81-13.61 1.033-.71 1.21-1.416 2.377-2.1 3.49 1.53-.17 3.36-.306 5.297-.306 2.883 0 6.01.303 8.75 1.246a.497.497 0 01.317.594c-.884 3.32-2.917 5.95-5.204 7.983 1.897.84 3.617 1.703 4.707 2.433.257.174.3.53.09.76-.977 1.044-2.323 2.237-2.897 2.74a.489.489 0 01-.33.124.488.488 0 01-.26-.074 288.682 288.682 0 00-5.233-3.126c-2.42 1.453-4.573 2.286-5.403 2.58a.5.5 0 01-.58-.193l-1.294-1.91a.5.5 0 01.124-.687 95.253 95.253 0 002.943-2.217c-.973-.553-1.73-.977-2.173-1.227a.496.496 0 01-.18-.693 9.068 9.068 0 011.236-1.627.487.487 0 01.474-.126c.966.256 2.266.683 3.7 1.206a125.21 125.21 0 003.24-2.806.501.501 0 00-.23-.86c-1.33-.274-2.72-.37-4.02-.37-2.7 0-5.014.416-5.567.523a202.976 202.976 0 01-4.893 7.287.497.497 0 01-.67.133l-2.024-1.26a.503.503 0 01-.19-.63c2.29-5.1 4.327-9.007 6.347-12.753-1.29.03-2.57.053-3.827.056a.491.491 0 01-.476-.346c-.21-.66-.66-2.147-.934-3.55a.502.502 0 01.447-.597c2.367-.2 4.85-.343 7.42-.413.77-1.437 1.557-2.91 2.363-4.484a.485.485 0 01.444-.283z" fill="#fff"/>
	<path d="m174.968 33.473c-5.243-4.193-13.833-4.17-18.18 2.024-4.347 6.193-.187 19.376-.187 19.376l.207.674a1.338 1.338 0 001.73.866c.987-.353 1.597-.936 3.097-.936 2.256 0 2.94 1.126 5.146 1.126 2.207 0 3.304-.983 5.197-.983 1.39 0 1.99.517 3.257.79a1.337 1.337 0 001.593-1.06c.15-.797.11-.57.11-.57s3.173-17.193-1.97-21.307z" fill="#007A59"/>
	<path d="m139.828 51.737c-8.773.023-9.2 2.983-9.2 2.983l.164.55a1.335 1.335 0 001.78.863c.793-.323 1.45-.736 2.796-.736 2.217 0 3.047 1.083 5.16 1.083 2.114 0 2.744-.963 4.837-.963 1.227 0 1.847.283 2.56.543.71.26 1.497-.123 1.73-.843.233-.724.17-.537.17-.537s-2.417-2.963-9.997-2.943z" fill="#2E7A39"/>
	<path d="m113.661 51.883c-7.347.787-9.39 2.734-9.39 2.734s-.02-.094.163.666c.187.77.997 1.214 1.74.95.887-.316 1.68-.84 2.96-.84 2.08 0 2.404 1.2 5.07 1.2 2.667 0 3.674-1.33 5.164-1.33 1.007 0 2.373.86 3.726 1.13.654.13 1.304-.25 1.517-.88l.37-1.083c.004-.003-5.6-3.16-11.32-2.547z" fill="#007960"/>
	<path d="m75.964 53.823c.067.327.237 1.12.347 1.637.073.343.277.653.577.837 1.566.96 2.75-.75 4.623-.75 2.18 0 2.787 1.046 4.997 1.046 1.476 0 2.676-1.21 4.703-1.21 1.767 0 3.527 1.904 6.22 1 .403-.133.727-.446.86-.85.137-.413.293-.973.4-1.543.18-.96-23.05-1.74-22.727-.167z" fill="#037C3C"/>
	<path d="m167.132 18.206 2.473 1.084-1.406.757-1.067-.044v-1.797zm4.943 4.234-1.554.17v-1.793l1.644.123-.09 1.5zm-3.707 4.543-1.123.587v-1.793l1.013-.457.11 1.663zm3.798.064s-.317.2-.824.4c-.056-.574-.033-1.624.02-2.227.43.283.88.267.88.267l-.076 1.56zm9.042 2.116.42 1.004s.507-.88.257-3.184m.594-2.643v1.797l-.647-.92.647-.877zm2.489 1.093v-1.793l-.553-.293-.94.166 1.493 1.92zm-5.766-5.786v1.796l-1.04.447s-.063-1.25 0-1.28 1.04-.963 1.04-.963zm.643-2.647v1.797l-.993.426-.053-.666 1.046-1.557z" fill="#007A59"/>
	<path d="m167.132 18.206 2.473 1.084-1.406.757-1.067-.044v-1.797z" fill="url(#paint0_radial)"/>
	<path d="m172.075 22.44-1.554.17v-1.793l1.644.123-.09 1.5z" fill="url(#paint1_radial)"/>
	<path d="m168.368 26.983-1.123.587v-1.793l1.013-.457.11 1.663z" fill="url(#paint2_radial)"/>
	<path d="m172.166 27.047s-.317.2-.824.4c-.056-.574-.033-1.624.02-2.227.43.283.88.267.88.267l-.076 1.56z" fill="url(#paint3_radial)"/>
	<path d="m181.208 29.163.42 1.004s.507-.88.257-3.184" fill="url(#paint4_radial)"/>
	<path d="m182.479 24.34v1.797l-.647-.92.647-.877z" fill="url(#paint5_radial)"/>
	<path d="M184.968 25.433V23.64l-.553-.293-.94.166 1.493 1.92z" fill="url(#paint6_radial)"/>
	<path d="m179.202 19.647v1.796l-1.04.447s-.063-1.25 0-1.28 1.04-.963 1.04-.963z" fill="url(#paint7_radial)"/>
	<path d="M179.845 17v1.797l-.993.426-.053-.666L179.845 17z" fill="url(#paint8_radial)"/>
	<g fill="#007A59">
		<path d="m171.795 31.827 3.163 1.833s2.417-6.146 1.68-8.82c-.33-1.2-1.216-.653-1.41-.123 0 0 .08 3.357-3.433 7.11z"/>
		<path d="m167.132 20.003c.687.96 3.107 1.78 4.7 1.644-.573.143-1.213.666-1.307.966.704.174 1.837.437 2.704 1.357-1.13-.183-2.507.04-3.547.483-2.033.87-2.13 1.854-2.433 3.12 2.216.014 3.83-.816 4.31-1.136-.334.606-.184 1.236-.184 1.236 1.63-.216 3.207-.863 4.354-2.476.03-.044.103-.04.153-.024.043.014.377.087.39.13.49 1.597 1.487 3.44 2.367 3.934.22-.14.42-.477.456-.89.197.846 1.79 2.636 2.117 2.616 1.003-1.596.75-2.6.2-3.59-.267-.493-1-1.24-2.093-1.973 1.636.61 2.283.753 3.163.74 0-.303-.147-.697-.25-.917.133.044 2.74.334 2.74.217.01-1.567-1.543-2.3-2.88-2.49-1.447-.207-3.71-.05-4.547.543.687-.596 1.404-1.2 1.664-2.046a4.357 4.357 0 00-1.02-.01c1.033-.5 1.573-1.967 1.66-2.637-.48.003-1.19.117-1.63.353-1.404.787-2.07 2.297-2.55 3.77-.86-2.193-1.85-3.303-3.694-3.783-1.41-.37-3.483.34-4.843.863z"/>
		<path d="m171.795 31.827 3.163 1.833s2.417-6.146 1.68-8.82c-.33-1.2-1.216-.653-1.41-.123 0 0 .08 3.357-3.433 7.11z"/>
		<path d="m167.132 20.003c.687.96 3.107 1.78 4.7 1.644-.573.143-1.213.666-1.307.966.704.174 1.837.437 2.704 1.357-1.13-.183-2.507.04-3.547.483-2.033.87-2.13 1.854-2.433 3.12 2.216.014 3.83-.816 4.31-1.136-.334.606-.184 1.236-.184 1.236 1.63-.216 3.207-.863 4.354-2.476.03-.044.103-.04.153-.024.043.014.377.087.39.13.49 1.597 1.487 3.44 2.367 3.934.22-.14.42-.477.456-.89.197.846 1.79 2.636 2.117 2.616 1.003-1.596.75-2.6.2-3.59-.267-.493-1-1.24-2.093-1.973 1.636.61 2.283.753 3.163.74 0-.303-.147-.697-.25-.917.133.044 2.74.334 2.74.217.01-1.567-1.543-2.3-2.88-2.49-1.447-.207-3.71-.05-4.547.543.687-.596 1.404-1.2 1.664-2.046a4.357 4.357 0 00-1.02-.01c1.033-.5 1.573-1.967 1.66-2.637-.48.003-1.19.117-1.63.353-1.404.787-2.07 2.297-2.55 3.77-.86-2.193-1.85-3.303-3.694-3.783-1.41-.37-3.483.34-4.843.863z"/>
	</g>
	<path d="m174.967 31.68c-5.243-4.193-13.833-4.17-18.18 2.023-4.346 6.194-.866 18.797-.186 21.174 2.53.123 2.776-1.194 5.033-1.194s2.94 1.127 5.147 1.127c2.206 0 3.303-.983 5.196-.983 1.894 0 2.324.956 4.957.956 1.557-8.833 3.177-18.99-1.967-23.103z" fill="#00A57B"/>
	<path d="m151.808 34.504c-2.09-6.794-14.01-9.57-19.763-2.944-5.753 6.627-2.327 19.827-1.417 23.16 2.174 0 2.52-1.12 4.737-1.12s3.047 1.084 5.16 1.084 2.743-.964 4.837-.964c2.093 0 2.416.82 4.46.957 1.426-4.593 4.076-13.38 1.986-20.173z" fill="#42B053"/>
	<path d="m123.545 34.123c-4.047-4.653-13.86-4.863-18.177 1.134-4.316 5.996-1.773 16.13-1.096 19.356 2 .354 2.786-1.02 4.866-1.02s2.404 1.2 5.07 1.2c2.667 0 3.674-1.33 5.164-1.33 1.486 0 3.756 1.87 5.613.96 2.287-8.376 2.607-15.646-1.44-20.3z" fill="#009B7E"/>
	<path d="m99.778 34.747c-2.66-10.157-18.953-10.987-23.603-1.92-3.627 7.073-.364 20.023-.21 20.996 2.193 2.05 3.366-.073 5.546-.073s2.787 1.047 4.997 1.047c1.477 0 2.677-1.21 4.703-1.21 2.027 0 4.044 2.506 7.48.403.567-3.14 2.747-12.897 1.087-19.243z" fill="#00A63C"/>
	<path d="m171.795 30.033 3.163 1.834s2.417-6.147 1.68-8.82c-.33-1.2-1.216-.654-1.41-.124 0 0 .08 3.357-3.433 7.11z" fill="#00A57B"/>
	<path d="m167.132 18.207c.687.96 3.107 1.78 4.7 1.643-.573.143-1.213.667-1.307.967.704.173 1.837.436 2.704 1.356-1.13-.183-2.507.04-3.547.484-2.033.87-2.13 1.853-2.433 3.12 2.216.013 3.83-.817 4.31-1.137-.334.607-.184 1.237-.184 1.237 1.63-.217 3.207-.864 4.354-2.477.03-.043.103-.04.153-.023.043.013.377.086.39.13.49 1.596 1.487 3.44 2.367 3.933.22-.14.42-.477.456-.89.197.847 1.79 2.637 2.117 2.617 1.003-1.597.75-2.6.2-3.59-.267-.494-1-1.24-2.093-1.974 1.636.61 2.283.754 3.163.74 0-.303-.147-.696-.25-.916.133.043 2.74.333 2.74.216.01-1.566-1.543-2.3-2.88-2.49-1.447-.206-3.71-.05-4.547.544.687-.597 1.404-1.2 1.664-2.047a4.351 4.351 0 00-1.02-.01c1.033-.5 1.573-1.967 1.66-2.637-.48.004-1.19.117-1.63.354-1.404.786-2.07 2.296-2.55 3.77-.86-2.194-1.85-3.304-3.694-3.784-1.41-.37-3.483.344-4.843.864z" fill="#00A57B"/>
	<path d="m122.721 41.05c-3.15-2.317-6.067-4.103-8.217-5.377 0 0-4.017 2.61-7.923 5.1-.634-.193-.83-.58-.844-.606v1.14c.017.036.364.713 1.637.713.37 0 .82-.063 1.353-.22 1.314-.38 3.167-1.327 5.764-3.363 0 0 .8.63 1.956 1.376 1.654 1.084 4.037 2.4 5.87 2.4.407 0 .78-.066 1.11-.22.017-.006.034-.02.05-.03.027-.013.05-.03.074-.043.063-.037.13-.067.19-.11v-1.14c-.297.213-.64.333-1.02.38zm-3.507 2.277v-1.14c0 .223-.007.43-.013.603a6.273 6.273 0 00-.05-.57c-1.767-.48-6.904-.5-9.047-.463a10.21 10.21 0 00-.147 1.07h-.046v-.087 1.227c2.956.063 8.943.436 9.26.456.003-.036.043-.52.043-1.096zm.767 1.433c0 .127-.007.263-.014.407-.003.036-.003.073-.006.11-.007.133-.017.27-.03.41 0 .016-.004.03-.004.046l-.01.114c-2.35-.614-9.3-.837-10.753-.574-.017.224-.027.48-.033.757a35.42 35.42 0 01-.007-.64v1.14c0 1.727.157 4.057.313 5.333 1.424.147 4.694.414 7.29.414.814 0 1.557-.027 2.164-.09.023-.077.05-.157.073-.237a.495.495 0 00.017-.063c.03-.097.056-.197.086-.297a19.014 19.014 0 00.154-.58c0-.003 0-.007.003-.01.037-.15.073-.3.107-.45l.033-.15.07-.32c.013-.06.023-.117.037-.177l.06-.303c.013-.06.023-.12.033-.18.02-.103.037-.207.057-.31l.03-.163c.023-.13.043-.26.063-.387.003-.027.01-.053.013-.08.024-.153.047-.307.067-.457l.003-.023c.004-.02.004-.04.007-.06.02-.153.04-.3.057-.45a39.348 39.348 0 00.06-.617c0-.016.003-.03.003-.046l.02-.274c.003-.03.003-.06.007-.09 0-.016.003-.033.003-.046.003-.037.003-.074.007-.11v-.034c.006-.143.013-.28.013-.41v-1.103h.007zm-3.017 5.587a152.42 152.42 0 01-5.347-.264c-.05-.763-.06-2.353-.05-3.023.517-.013 1-.02 1.46-.02 1.6 0 2.904.087 4.277.307-.007 1.073-.21 2.396-.34 3z" fill="#007960"/>
	<path d="m140.571 47.91c-.014-.47-.03-1.06-.054-1.72.737-.373 1.377-.727 1.577-.917l-.003-.016v-1.117a1.751 1.751 0 01-.207.157l-.13-.61c-.227-.01-.717.1-1.31.276v-1.126c-.013.003-.027.006-.037.01-.013-.414-.03-.827-.043-1.234.737-.053 1.29-.103 1.29-.103l.09-2.037h-.003v-1.133l-.05 1.13c-.42-.03-.907-.03-1.407-.017v-1.133c-.013 0-.027 0-.04.003l-.053-1.463c-.29-.003-1.914.047-2.174.057a68.37 68.37 0 01-.04-1.13v1.116c.024.914.064 1.817.114 2.687v.017c-.734.073-1.26.14-1.304.146l-.01-1.13v1.13l.014 1.88v.047c.233.063.786.073 1.44.053.08 1.05.173 2.034.266 2.92-.506.204-.99.42-1.38.627-.156-.48-.293-.92-.306-.963v1.116l.003.014s-.003 0-.003.003c0 0 .546 1.76.733 2.16 0 0 .53-.24 1.227-.57l.006.05c.167 1.327.294 2.117.294 2.117.42.01 1.51-.167 1.51-.167v-1.197.067c.01-.003 0 0-.01 0zm8.986-11.527c-.013.117-.03.227-.043.337l-.01.077c-.017.123-.037.24-.053.35l-.01.056c-.017.097-.034.187-.047.277-.523-.113-1.337-.233-2.253-.343v-.28c-.02-.2-.054-.507-.094-.864v.86h-.03l-.346-3.146c-.507-.08-1.69.18-2.12.28a43.338 43.338 0 01-.164-1.094v1.117c0 .003 0 .01.004.013h-.004c.15 1.077.334 2.134.474 2.88-1.03-.09-2.017-.15-2.734-.166l-.063 1.073c-.03-.003-.053-.01-.067-.01v1.117h.004v.016s4.503.704 6.536.85c0 .04 0 .084-.003.13 0 .014 0 .027-.003.04-.004.064-.007.134-.014.21l-.003.044-.02.236c0 .01 0 .017-.003.027l-.03.283c0 .01-.004.024-.004.034-1.263-.334-2.133-.17-2.133-.17s-.43 4.866-.577 8.1v-1.13l-.03.663c-.006.163-.01.317-.013.467-.34.01-.687.026-1.033.043.076-1.623.213-4.813.193-6.813v-.754c0 .17 0 .347-.003.527-.01-.613-.037-1.093-.087-1.343-.76-.087-1.943.086-2.17.12-.03-.654-.04-1.06-.043-1.12v1.116a138.389 138.389 0 00.543 8.364c-.747.053-1.43.11-1.977.173l-.096-1.12v1.117l.093 1.093.097 1.113s6.196.084 7.73-.123c0 0 .01-.14.01-.407v-1.126c0 .246-.01.383-.01.4h-.01c-.02-.344-.054-.76-.11-1.244-.38-.03-.857-.04-1.387-.043.39-2.34 1.097-6.737 1.09-7.83v-1.07c.227.017.427.027.583.027 0 0 .277-.91.437-2.294h-.003c0-.006 0-.01.003-.016v-1.124h.003zm-13.313 1.414c-2.01-.064-3.2.053-4.993.466-.007.047-.01.1-.014.157-.01-.237-.016-.453-.016-.647v1.127c0 .06 0 .123.003.183v.054c.05 2.65.907 8.73 1.197 9.553 1.733.047 4.156-.637 4.156-.637v-1.133c-.003 0-.016.007-.03.007-.063-2.407-.22-7.94-.303-9.13zm-2.483 8.946c-.337-2.31-.52-5.023-.62-7.04.43-.07.993-.14 1.46-.18.183 2.247.39 5.36.39 7.077-.287.04-.957.1-1.23.143z" fill="#2E7A39"/>
	<path d="m166.571 47.773c-.006.037-.016.08-.03.127-.003.017-.01.033-.013.05-.01.033-.017.063-.027.1l-.02.067-.03.103c-.006.027-.016.05-.023.077-.01.036-.023.07-.033.106-.014.04-.024.08-.037.12l-.01.034c-.017.056-.037.11-.053.166l-.017.047c-.003.013-.01.027-.013.04-.53-.167-1.624-.483-2.524-.587 0 0-.176.697-.32 1.404l-.146-.037v.89c-.01.09-.02.173-.027.247 0 0 1.81.463 2.57.533 0 0 .643-1.79.763-2.35 0 0-.006-.003-.01-.003v-1.134zm3.697-11.976v-1.114c-.007.03-.027.097-.05.184-.003.01-.003.016-.007.026l-.166.607a1.273 1.273 0 01-.024.083l-.03.11c-1.023-.333-3.54-.883-3.54-.883-.63 2.083-1.64 8.013-2.043 10.447a1.474 1.474 0 01-.157-.074v1.03l-.016.11c.153.08.403.17.693.257.537.163 1.207.32 1.623.41.21.047.354.077.38.08 0 0 0-.003.004-.003.006 0 .013.003.013.003.507-.76 3.367-11.253 3.367-11.253-.01-.007-.03-.014-.047-.02z" fill="#007A59"/>
	<path d="M94.474 50.077c-1.076-.754-2.313-1.75-2.826-2.17 2.09-.187 3.72-.34 4.06-.404 0 0 .003-.013.006-.04 0-.006.004-.013.004-.023l.006-.037c.004-.013.004-.033.007-.05 0-.01.003-.016.003-.023.007-.043.01-.097.014-.157 0-.013 0-.026.003-.04.003-.066.007-.136.007-.22v-1.13c0 .08-.004.154-.007.22 0 .014 0 .027-.003.04-.004.06-.01.114-.014.157 0 .01-.003.017-.003.023-.003.037-.01.064-.013.087 0 .007-.004.013-.004.02a4.583 4.583 0 00-.13-.66s-2.956.2-6.343.437l-.107-1.124v1.13h-.003a58.36 58.36 0 00-.13-1.22h.007l3.63-.29 1.696-.133a8.432 8.432 0 00.044-.837v-1.13c0 .237-.01.447-.02.594a4.9 4.9 0 00-.067-.54c-.83-.034-2.7.096-4.75.276v-.91c2.35-.17 4.213-.293 4.31-.3 0-.013.003-.086.003-.213v-1.13c0 .123-.003.2-.003.213-.007 0-.03.004-.063.004a6.253 6.253 0 00-.1-.56c-.447-.047-2.17.063-4.154.22v-.214c0-.193-.003-.396-.003-.6 2.437-.163 4.37-.286 4.473-.29v-1.13l-.093.007c-.03-.2-.067-.397-.117-.563-.316-.06-2.143.053-4.276.216l-.01-.913c2.94-.217 5.423-.383 5.553-.393v-.004s0-.023.003-.066c0-.06.004-.15.004-.27v-1.13c0 .19-.004.32-.007.34h-.023a5.042 5.042 0 00-.114-.794c-.293-.143-2.753.024-5.456.26-.014-.42-.027-.803-.044-1.123v1.127h-.003c-.023-.454-.05-.794-.083-.96 0 0-1.157-.257-2.487.22l-.01-.154-.057-.946V33.9c-.003 0-.006.003-.01.003l.06.95c-1.703.164-3.246.324-4.136.417l-.05-.38h-.007l.08-.163c.013-.03.03-.06.043-.09l.087-.187.03-.067c.037-.083.07-.163.103-.243.007-.013.01-.027.017-.04.027-.063.05-.127.073-.187.01-.023.02-.05.027-.073.02-.047.037-.097.053-.14.01-.023.017-.047.027-.07.017-.047.03-.09.047-.13l.02-.057c.043-.126.076-.236.103-.33l.01-.036c.027-.094.047-.164.057-.207 0-.007.003-.007.003-.013a.13.13 0 01.01-.037v-1.13a.15.15 0 01-.01.037l-.003.013-.024.087-.033.12a2.788 2.788 0 01-.06.2c-.017.05-.033.106-.053.163a1.01 1.01 0 00-.02.057c-.014.043-.03.083-.047.13-.01.023-.017.046-.027.07-.016.043-.033.09-.053.14-.003.003-.003.01-.007.013l-2.22-.637c-.696 1.537-2.28 4.344-3.21 5.96-.226.047-.46.09-.703.114v1.103l-.017.027c.007 0 .01 0 .017-.004v.004a6.206 6.206 0 003.333-1.367c.39 2.107 1.194 6.39 1.497 7.543h.013l4.714-.373c.023.31.06.72.1 1.197-3.064.216-5.957.43-6.91.52a6.898 6.898 0 01-.077-.98v.99h-.01s-.04 1.16.32 2.08h.013c.1-.01 2.004-.164 4.584-.38a23.508 23.508 0 01-2.324 2.276c-.026 0-.053.004-.08.004a8.106 8.106 0 01-1.293-.094v1.124c-.003.003-.007.006-.013.006a7.526 7.526 0 00.243.034c.02.003.043.003.067.006.043.004.086.01.136.014.014 0 .024.003.037.003.06.007.123.01.193.013.014 0 .027.004.04.004a37.234 37.234 0 00.267.013c.103.003.21.007.32.007.067 0 .133-.004.203-.004.034 0 .064 0 .097-.003.08-.003.163-.01.247-.013.033-.004.066-.004.103-.007.083-.007.167-.017.253-.027.037-.003.074-.01.107-.013.087-.01.17-.027.253-.04l.107-.02a3.5 3.5 0 00.257-.06l.096-.027c.087-.023.174-.05.26-.083.024-.01.047-.02.074-.027.09-.033.18-.07.266-.113l.017-.01c.203-.1.397-.22.563-.367.787-.696 1.434-1.5 1.84-2.046.167 1.63.36 3.16.52 3.53a2.317 2.317 0 00.243.023c.014 0 .027.003.044.003.023 0 .043.004.067.004.056.003.116.003.186.003h.024c.093 0 .196-.003.31-.01.02 0 .036-.003.056-.003.107-.007.217-.017.337-.03l.083-.01c.117-.014.237-.034.364-.057.033-.007.063-.01.096-.017.134-.026.27-.06.41-.1.02-.006.04-.01.06-.013v-1.13c-.033.01-.06.013-.093.023-.057-.696-.133-1.643-.22-2.62.52.617 1.3 1.457 2.137 2.047.013.01.03.017.043.027.073.05.15.096.23.136.027.014.057.027.087.04.07.034.143.064.22.094l.09.03c.08.026.163.05.246.073l.077.02a4.89 4.89 0 00.793.11c.074.003.144.01.217.01l.143.003h.077c.067 0 .13 0 .193-.003h.027c1.08-.03 1.973-.263 2.027-.277v-1.13c-.05 0-.67.16-1.494.234zM83.148 39.803c.04 0 .083-.003.123-.006v.91h-.013l-.12-.904h.01zm4.023.55c-1.443.124-2.81.25-3.75.34l-.12-.9c1.05-.086 2.413-.186 3.817-.283l.053.843zm-3.673 2.027c1.04-.087 2.393-.19 3.783-.293l.06.946c-1.383.134-2.71.27-3.713.374l-.137-1.027h.007zm3.513-4.6c-1.527.127-2.973.253-3.937.34l-.123-.933c1.043-.097 2.48-.214 4.003-.33l.057.923zm-4.213-.58l.126-.01v.943h-.01l-.126-.936c.006 0 .01 0 .01.003zm6.733 5.63v-.91h.007v.003h.003v.907h-.01zm-.007-2.673c0-.267-.003-.54-.006-.814h.003v.004h.007v.813c0-.003-.004-.003-.004-.003zm-.036-3.49h.016v.913h-.006c-.004-.313-.01-.62-.017-.917a.01.01 0 00.007.004z" fill="#037C3C"/>
	<g fill="#FF0">
		<path d="m109.444 50.653c-.203-1.606-.396-4.896-.28-6.506 1.467-.267 8.53-.037 10.817.586-.013 1.54-.46 4.294-1.09 6.24-2.53.267-7.583-.13-9.447-.32zm2.174-1.7c2.23.147 4.166.23 5.346.264.134-.614.34-1.964.34-3.047-1.766-.28-3.413-.343-5.736-.283-.007.643 0 2.29.05 3.066zm-1.513-8.326c2.14-.037 7.28-.017 9.046.463.124.896.02 2.183.02 2.183s-6.3-.397-9.256-.457c-.004 0-.02-1.13.19-2.19z"/>
		<path d="m114.505 34.543s-4.617 3-8.764 5.637c0 0 1.464 2.85 8.75-2.87 0 0 6.637 5.23 9.247 3.37-3.537-2.694-6.853-4.727-9.233-6.137zm17.916 13.014c-.327-.934-1.394-8.664-1.167-10.427 1.793-.413 2.983-.53 4.993-.467.107 1.534.334 10.254.334 10.254s-2.424.686-4.16.64zm.72-8.987c.1 2.02.283 4.73.62 7.04.273-.04.946-.103 1.23-.147 0-1.716-.207-4.83-.39-7.076a22.57 22.57 0 00-1.46.183zm4.846-2.78s1.894-.06 2.21-.057c0 0 .42 11.494.397 12.174 0 0-1.09.176-1.51.166-.003 0-.923-5.79-1.097-12.283z"/>
		<path d="m136.787 38.623s3.143-.423 4.957-.28l-.09 2.037s-4.104.377-4.854.167l-.013-1.924zm.033 5.69s.547 1.76.734 2.16c0 0 3.983-1.803 4.54-2.33l-.34-1.586c-.674-.034-3.63.993-4.934 1.756zm5.304-8.71-.127 2.197s5.573.873 7.12.877c0 0 .277-.91.437-2.294-1.357-.33-5.434-.733-7.43-.78zm-1.087 12.297.19 2.193s6.197.084 7.73-.123c0 0 .06-.867-.123-2.373-1.824-.14-5.817.073-7.797.303z"/>
		<path d="m142.567 39.367s.147 4.756.654 9.413l1.403-.137s.43-8.05.157-9.403c-.847-.097-2.214.127-2.214.127zm3.757.113s-.563 6.36-.62 9.367l1.49.183s1.38-7.98 1.34-9.36c-1.307-.36-2.21-.19-2.21-.19zm-1.94-6.59s1.656-.42 2.283-.32c0 0 .37 3.333.47 4.283 0 0-1.557-.066-2.077-.05 0 .004-.403-1.93-.676-3.913zm22.071.79s3.237.71 3.863 1.007c0 0-2.86 10.493-3.366 11.253 0 0-2.12-.43-2.714-.747 0 0 1.417-8.863 2.217-11.513zm-2.714 13.417s-.443 1.726-.493 2.503c0 0 1.81.463 2.57.533 0 0 .643-1.79.763-2.35 0 0-1.606-.546-2.84-.686zm-82.867-16.147 2.544.73s-1.414 5.983-6.474 6.473c0 0 2.91-4.956 3.93-7.203z"/>
		<path d="m81.897 34.223s12.337-1.333 13.024-1.003c.18.72.136 1.917.136 1.917s-10.22.696-13.04 1l-.12-1.914zm0 2.87s11.077-1.013 11.897-.86c.184.62.207 1.687.207 1.687s-9.417.59-11.99.857l-.114-1.684zm.271 2.587s10.327-1 11.517-.873c.203.88.16 1.683.16 1.683s-8.99.61-11.564.873l-.113-1.683z"/>
		<path d="m94.284 41.423c-1.68-.07-7.633.544-10.663.853l-.99-7.386s-.977-.294-2.557.713c0 0 1.31 7.183 1.713 8.73l12.54-.996s.117-1.057-.043-1.914zm-14.664 4.26s-.04 1.16.32 2.08c0 0 14.667-1.2 15.767-1.393 0 0 .164-.797-.12-1.837-.003.003-13.933.947-15.966 1.15z"/>
		<path d="m86.47 43.367s.547 7.226.924 8.093c0 0 1.02.146 2.273-.214 0 0-.543-6.943-.756-8.09l-2.44.21z"/>
		<path d="m85.158 46.66s-2.067 2.587-4.334 4.043c0 0 2.85.474 4.2-.723s2.297-2.71 2.297-2.71l-2.163-.61zm6.242-.087s3.39 2.824 4.56 3.257c0 0-2.98.783-4.462-.263-1.48-1.044-2.787-2.867-2.787-2.867l2.69-.127zm-4.63-13.8.647 10.43 2.11-.226s.037-9.294-.193-10.45c0 0-1.2-.27-2.564.246z"/>
	</g>
	<defs>
		<radialGradient id="paint0_radial" cx="0" cy="0" r="1" gradientTransform="translate(168.368 19.127) scale(1.091)" gradientUnits="userSpaceOnUse">
			<stop stop-color="#007A59" offset="0"/>
			<stop stop-color="#007A59" offset=".746"/>
		</radialGradient>
		<radialGradient id="paint1_radial" cx="0" cy="0" r="1" gradientTransform="matrix(.8605 0 0 .8605 171.344 21.713)" gradientUnits="userSpaceOnUse">
			<stop stop-color="#007A59" offset="0"/>
			<stop stop-color="#007A59" offset=".746"/>
		</radialGradient>
		<radialGradient id="paint2_radial" cx="0" cy="0" r="1" gradientTransform="matrix(.8893 0 0 .8893 167.807 26.445)" gradientUnits="userSpaceOnUse">
			<stop stop-color="#007A59" offset="0"/>
			<stop stop-color="#007A59" offset=".746"/>
		</radialGradient>
		<radialGradient id="paint3_radial" cx="0" cy="0" r="1" gradientTransform="translate(171.776 26.331) scale(.85409)" gradientUnits="userSpaceOnUse">
			<stop stop-color="#007A59" offset="0"/>
			<stop stop-color="#007A59" offset=".746"/>
		</radialGradient>
		<radialGradient id="paint4_radial" cx="0" cy="0" r="1" gradientTransform="translate(181.579 28.573) scale(1.156)" gradientUnits="userSpaceOnUse">
			<stop stop-color="#007A59" offset="0"/>
			<stop stop-color="#007A59" offset=".746"/>
		</radialGradient>
		<radialGradient id="paint5_radial" cx="0" cy="0" r="1" gradientTransform="translate(182.154 25.238) scale(.6746)" gradientUnits="userSpaceOnUse">
			<stop stop-color="#007A59" offset="0"/>
			<stop stop-color="#007A59" offset=".746"/>
		</radialGradient>
		<radialGradient id="paint6_radial" cx="0" cy="0" r="1" gradientTransform="matrix(.90712 0 0 .90712 184.222 24.39)" gradientUnits="userSpaceOnUse">
			<stop stop-color="#007A59" offset="0"/>
			<stop stop-color="#007A59" offset=".746"/>
		</radialGradient>
		<radialGradient id="paint7_radial" cx="0" cy="0" r="1" gradientTransform="matrix(.87816 0 0 .87816 178.67 20.767)" gradientUnits="userSpaceOnUse">
			<stop stop-color="#007A59" offset="0"/>
			<stop stop-color="#007A59" offset=".746"/>
		</radialGradient>
		<radialGradient id="paint8_radial" cx="0" cy="0" r="1" gradientTransform="matrix(.86823 0 0 .86823 179.323 18.11)" gradientUnits="userSpaceOnUse">
			<stop stop-color="#007A59" offset="0"/>
			<stop stop-color="#007A59" offset=".746"/>
		</radialGradient>
	</defs>
</svg>
