<svg viewBox="0 0 132 40" xmlns="http://www.w3.org/2000/svg">
	<path d="M16.748 5C8.605 5 2 11.605 2 19.751 2 27.898 8.605 34.5 16.748 34.5c8.143 0 14.748-6.605 14.748-14.748C31.499 11.605 24.894 5 16.748 5z" fill="#33A142"/>
	<path d="m26.572 21.715c-.221 1.874-1.096 3.766-2.702 4.723-.088.052-.605.315-.693.36-.065.033-.133-.032-.104-.097.039-.088.335-.329.432-.553.505-1.177.147-2.55-.689-3.31-.96-.879-2.56-.983-3.704-.368-1.145.618-1.88 1.948-1.626 3.424.244 1.422 1.382 2.244 3.122 2.228.039 0 .058.052.023.075-1.064.719-4.654.826-6.98.55-2.224-.267-4.38-.924-6.503-1.627-.173-.058-.436-.165-.436-.331 0-.095.127-.26.169-.345a16.337 16.337 0 001.551-4.192c.508-2.306.543-4.8 1.786-6.81 1.99-3.222 6.403-4.156 9.554-2.305.56.328 1.04.965 1.486 1.473a.114.114 0 00.189-.03 17.006 17.006 0 001.363-4.995 5.202 5.202 0 012.526 1.513 20.266 20.266 0 00-3.076 4.175.134.134 0 00.104.199c1.346.165 2.579 1.001 3.327 2.14.777 1.193 1.05 2.682.881 4.104z" fill="#F5F7E1"/>
	<path d="M42.046 21.31h3.779c.728 0 1.46-.066 2.175-.215.638-.134 1.17-.306 1.594-.514a.323.323 0 01.465.292v1.633a.327.327 0 01-.137.27c-1.011.692-2.452 1.04-4.325 1.04h-5.281c-.592 0-1.05-.15-1.376-.442-.325-.296-.488-.696-.488-1.197V11.303c0-.18.147-.326.325-.326h1.974c.865 0 1.298.41 1.298 1.23v9.102h-.003zm13.476-10.996V27.41c0 1.138-.195 2.016-.585 2.634a.32.32 0 01-.27.143H51.87a.327.327 0 01-.3-.449c.238-.608.355-1.391.355-2.35V17.69h-4.982a.326.326 0 01-.325-.326V15.53c0-.178.146-.325.325-.325h4.98V9.407c0-.18.145-.325.324-.325h1.974c.869.003 1.301.413 1.301 1.232zM71.89 24.519v-.91H61.56a.326.326 0 01-.325-.326V21.43c0-.178.146-.325.325-.325h4.98V19.33h-7.962a.326.326 0 01-.325-.326V17.15c0-.179.146-.325.325-.325h12.787c.335-1.32.5-2.647.5-3.984v-.728H61.699a.326.326 0 01-.325-.326V9.934c0-.18.146-.326.325-.326h11.899c.608 0 1.067.153 1.376.456.312.302.468.705.468 1.206v.364c0 1.867-.244 3.597-.728 5.19h3.43c.18 0 .326.147.326.326v1.854a.326.326 0 01-.326.325h-8.006v1.775h3.483c.62 0 1.09.153 1.401.456.313.302.469.712.469 1.229v3.909a.326.326 0 01-.325.325H64.835v.888h8.127c1.135 0 2.03-.15 2.686-.446a.322.322 0 01.455.296v1.623a.312.312 0 01-.14.267c-.312.201-.744.374-1.294.517a7.652 7.652 0 01-1.935.25h-9.63c-.59 0-1.05-.15-1.375-.445-.325-.296-.487-.693-.487-1.194v-3.932c0-.178.146-.325.325-.325H71.89v-.003zM99.113 18.633v1.613c0 .12-.065.234-.173.289-1.037.53-2.474.793-4.312.793H92.17v3.962h8.006c.179 0 .325.146.325.325v1.85a.326.326 0 01-.325.325h-19.56a.326.326 0 01-.326-.325v-1.85c0-.18.146-.325.325-.325h7.961v-3.962H82.3a.326.326 0 01-.325-.325v-1.85c0-.179.146-.325.325-.325h2.77V13h-2.543a.326.326 0 01-.325-.325v-1.828c0-.179.147-.325.325-.325h15.737c.179 0 .325.146.325.325v1.828a.326.326 0 01-.325.325h-2.589v5.805c1.305-.049 2.303-.208 2.999-.478a.325.325 0 01.439.305zm-7.034.195V13h-3.415v5.828h3.415zM103.357 9.609h10.253c.179 0 .325.146.325.325v1.853a.326.326 0 01-.325.326h-6.982V13.5h5.935c.179 0 .325.147.325.325v1.854a.326.326 0 01-.325.325h-5.935v1.139h4.237c.729 0 1.461-.066 2.173-.215.637-.133 1.167-.303 1.59-.514a.323.323 0 01.465.293v1.629a.318.318 0 01-.14.27c-1.011.693-2.452 1.04-4.322 1.04h-5.736c-.592 0-1.051-.149-1.376-.445-.325-.296-.488-.693-.488-1.194V9.935a.322.322 0 01.326-.325zm13.603 14.91v-.91h-9.873a.327.327 0 01-.326-.326V21.43c0-.18.147-.325.326-.325h11.603c.621 0 1.089.152 1.401.455.313.302.469.712.469 1.229v3.909a.327.327 0 01-.325.325h-9.877v.888h7.672c1.135 0 2.029-.15 2.686-.449a.322.322 0 01.455.296v1.623a.312.312 0 01-.14.267c-.312.201-.744.373-1.294.517a7.643 7.643 0 01-1.935.25h-9.174c-.592 0-1.05-.15-1.376-.445-.325-.296-.487-.693-.487-1.194v-3.932c0-.178.146-.325.325-.325h9.87zm3.271-4.53h-2.946a.326.326 0 01-.325-.325v-3.659h-2.862a.326.326 0 01-.325-.325v-1.854c0-.178.146-.325.325-.325h2.862v-4.09c0-.18.146-.326.325-.326h1.974c.865 0 1.297.41 1.297 1.23v9.349a.324.324 0 01-.325.325z" fill="#42332C"/>
</svg>
