<svg viewBox="0 0 176 40" xmlns="http://www.w3.org/2000/svg">
	<path d="m107.564 11.286h10.241c.179 0 .325.143.325.322-.009 1.327.078 6.423 1.792 9.502 1.33 2.39 3.021 3.392 4.946 4.14.212.082.27.348.121.517-.855.97-1.603 2.514-2.117 3.747a.323.323 0 01-.524.107c-1.756-1.74-3.486-3.964-4.543-6.488-1.125-2.686-1.828-5.584-1.828-8.429h-2.162v.263c0 4.947-.956 7.096-1.925 9.012-1.594 3.154-3.6 4.79-4.758 5.688a.323.323 0 01-.501-.14c-.449-1.177-1.07-2.722-1.697-3.568a.324.324 0 01.143-.488c.666-.263 1.463-.543 2.331-1.027 1.07-.595 1.704-1.083 2.472-2.29 1.249-1.974 1.564-4.133 1.61-6.471v-.983h-3.926a.327.327 0 01-.325-.325v-2.771c0-.176.147-.319.325-.319zm45.21 13.509v1.798a.33.33 0 01-.159.28c-.771.455-1.36.719-2.768 1.164-1.596.504-3.31.774-4.673.92a.322.322 0 01-.358-.321v-2.813c0-.18.143-.322.322-.326 1.464-.01 2.973-.068 4.511-.296 1.301-.192 1.977-.396 2.663-.702a.327.327 0 01.462.296zm-4.488-15.015h1.607c.179 0 .325.147.325.325v2.488h2.462c.179 0 .325.147.325.325v2.238a.326.326 0 01-.325.325h-7.272a.326.326 0 01-.325-.325v-2.238c0-.178.146-.325.325-.325h2.553v-2.488c0-.178.143-.325.325-.325zm-2.257 6.12h.908c.179 0 .322.147.325.326.006.654.036 1.242.084 1.766.072.842.196 1.61.501 2.244.104.217.251.383.423.513.094.072.14.189.124.306-.143.92-.267 2.179-.368 3.223-.026.276-.358.39-.556.198-.406-.396-.754-.923-1.047-1.58-.364-.93-.582-2.163-.654-3.704a81.822 81.822 0 01-.065-2.963c0-.182.147-.328.325-.328zm5.757.023c.178 0 .328.147.325.326-.004.982-.026 1.97-.065 2.962-.088 1.525-.306 2.751-.654 3.681-.296.657-.654 1.181-1.073 1.575a.327.327 0 01-.553-.202c-.101-1.05-.224-2.322-.371-3.246a.318.318 0 01.111-.296c.146-.123.296-.296.393-.51a5.4 5.4 0 00.501-2.221c.049-.478.078-1.06.085-1.743a.328.328 0 01.325-.326h.976zm-106.56-5.649-1.194-.237a.328.328 0 00-.383.263 5.367 5.367 0 01-.872 2.033c-.566-.823-1.258-1.496-2.179-2.156a.33.33 0 00-.416.03l-.875.838-.344.319c-.16.146-.137.4.045.514.507.312 1.415.953 1.961 1.808-.735.39-1.564.767-2.514 1.057a.325.325 0 00-.192.471c.355.615.605 1.269.745 2.05a.32.32 0 00.436.236c1.16-.471 2.13-1.08 2.862-1.717.218.592.302 1.392.328 2.208-.881 1.324-2.442 2.228-4.484 2.885a.322.322 0 00-.182.475c.393.634.663 1.252.81 2.081a.321.321 0 00.406.254c1.564-.475 2.787-1.207 3.499-2.446 0 .78-.003 1.965-.003 3.25 0 1.502-2.013 1.635-2.238 1.638h-1.001c-.248 0-.417.27-.29.481.17.287.293.66.293 1.22 0 .53-.13.969-.286 1.297-.101.218.052.469.296.465 1.03-.016 2.435-.08 2.978-.308 1.292-.54 1.773-1.236 2.05-1.896.191-.459.26-.98.26-1.548.058-2.12.087-4.599.087-7.428-.071-1.538-.335-2.777-.874-3.997.988-1.063 1.216-2.354 1.518-3.746a.319.319 0 00-.247-.393zm7.398 16.641v-1.288h4.186a.326.326 0 00.325-.325v-1.73a.326.326 0 00-.325-.325h-4.186v-1.877h2.228v.202c0 .179.147.325.325.325h1.613a.326.326 0 00.326-.325v-10.706a.326.326 0 00-.326-.325h-10.377a.326.326 0 00-.325.325l-.003 10.706c0 .179.146.325.325.325h1.613a.326.326 0 00.325-.325v-.202h2.14v1.877h-3.878a.326.326 0 00-.325.325v1.73c0 .179.147.325.325.325h3.877v1.288h-5.031a.326.326 0 00-.325.325v1.717c0 .18.146.325.325.325h12.164a.326.326 0 00.325-.325v-1.717a.326.326 0 00-.325-.325h-4.995zm0-13.704h2.231v1.86h-2.23v-1.86zm0 3.714h2.231v1.805h-2.23v-1.805zm-2.143 1.801h-2.14v-1.804h2.14v1.804zm0-3.652h-2.14v-1.86h2.14v1.86zm17.526-2.484h-2.296v-2.29a.326.326 0 00-.325-.325h-1.607a.326.326 0 00-.325.325v2.29h-2.553a.326.326 0 00-.325.325v2.237c0 .18.146.325.325.325h7.106a.326.326 0 00.325-.325v-2.237a.328.328 0 00-.325-.325zm-2.91 7.626c-.101.215-.248.387-.394.51a.323.323 0 00-.11.297c.146.923.27 2.195.37 3.245.026.273.351.387.553.202.42-.394.777-.917 1.073-1.574.348-.93.566-2.156.654-3.681.039-.996.062-1.98.065-2.963a.326.326 0 00-.325-.325h-.973a.328.328 0 00-.325.325 19.37 19.37 0 01-.084 1.746 5.458 5.458 0 01-.504 2.218zm15.105-1.177v-1.747a.326.326 0 00-.325-.325h-11.288a.326.326 0 00-.325.326v1.746c0 .179.146.325.325.325h4.162l-.26 1.314h-3.398a.326.326 0 00-.325.325v8.257c0 .179.146.325.325.325h1.597a.326.326 0 00.325-.325v-6.081h.933v5.883c0 .178.147.325.325.325h1.015a.326.326 0 00.325-.325v-5.883h.846v5.883c0 .178.146.325.325.325h1.015a.326.326 0 00.325-.325v-5.883h1.343v4.315c-.114.098-.293.146-.465.17a.329.329 0 00-.286.321v1.467c0 .14.09.266.224.309.27.088.722.224.97.25.549.056 1.079 0 1.648-.312a.324.324 0 00.166-.286v-8.413a.326.326 0 00-.325-.325h-5.207l.26-1.314h5.425a.32.32 0 00.325-.322zm-17.09-1.048a21.433 21.433 0 01-.084-1.765.328.328 0 00-.326-.326h-.907a.324.324 0 00-.325.326c.003.982.026 1.97.065 2.962.071 1.538.29 2.774.654 3.704.292.66.643 1.187 1.05 1.584.198.192.53.075.556-.198.1-1.044.221-2.303.367-3.223a.312.312 0 00-.123-.306 1.411 1.411 0 01-.423-.514c-.309-.634-.432-1.401-.504-2.244zm1.731 7.103c-1.441.176-2.846.27-4.212.283a.32.32 0 00-.319.322v2.924c0 .191.166.344.358.322 1.301-.14 3.06-.387 4.547-.895 1.261-.432 2.162-.855 2.913-1.314a.318.318 0 00.153-.276v-1.668a.322.322 0 00-.42-.31c-.877.284-1.96.489-3.02.612zm4.335-8.598h1.6a.326.326 0 00.325-.326v-.201h5.993v.198c0 .179.147.325.326.325h1.6a.326.326 0 00.325-.325v-5.32a.326.326 0 00-.325-.325h-1.604a.326.326 0 00-.325.325v2.507h-1.909v-3.336a.326.326 0 00-.325-.326h-1.603a.326.326 0 00-.325.326v3.336h-1.825v-2.507a.326.326 0 00-.325-.325h-1.603a.326.326 0 00-.325.325v5.32c0 .182.146.329.325.329zm73.258-5.167h-14.95a.326.326 0 00-.325.325v17.174c0 .179.146.325.325.325h1.604a.327.327 0 00.325-.325v-.202h11.092v.202c0 .179.147.325.326.325h1.603a.326.326 0 00.325-.325v-17.174a.324.324 0 00-.325-.325zm-1.929 13.759h-11.086v-10.221h11.086v10.221zm23.185-9.2v-2.459a.327.327 0 00-.326-.325h-4.686v-3.324a.326.326 0 00-.325-.325h-1.61a.326.326 0 00-.325.325v9.434h-2.55a.327.327 0 00-.325.326l-.003 10.068c0 .179.146.325.325.325h1.278a.326.326 0 00.325-.325v-.202h5.464v.202c0 .179.146.325.325.325h1.278a.326.326 0 00.325-.325v-10.068a.326.326 0 00-.325-.326h-3.857v-3.001h4.686a.325.325 0 00.326-.325zm-2.758 6.406v4.062h-5.464v-4.062h5.464zm-76.97-6.091a.326.326 0 00-.325.325v3.932c0 2.237-.683 2.725-1.119 2.875a.323.323 0 00-.211.302v3.847c0 .225.224.384.435.306.654-.25 1.38-.624 1.874-1.327.556-.787.806-1.434.806-6.36v-3.575a.324.324 0 00-.325-.325h-1.135zm17.467 6.972c0 .537.032 2.927-1.236 2.927-.703 0-.917-.283-.917-.849v-13.95a.326.326 0 00-.326-.326h-6.237a.326.326 0 00-.325.325v8.475c0 2.341-.143 3.64-.663 4.38-.03.06-.059.108-.088.153v-2.598a.314.314 0 00-.189-.293c-.615-.27-.83-.572-.83-1.401v-3.555a.326.326 0 00-.324-.325h-.934a.324.324 0 00-.325.325v5.428c.117 1.815.859 2.956 1.863 3.421-.396.445-.865.533-1.434.676a.324.324 0 00-.243.316v3.083c0 .214.201.37.41.315 1.352-.364 3.196-1.275 3.93-2.787.655-1.278 1.126-2.709 1.126-6.094v-6.524h2.277v12.264c0 1.6.582 3.018 2.315 3.018h1.239a1.96 1.96 0 001.818-1.213c.845-2.078-.133-4.729-.907-5.19z" fill="#42332C"/>
	<path d="M91.027 12.49h-2.722V9.968a.326.326 0 00-.325-.325h-1.607a.326.326 0 00-.325.325v2.52H83.07a.326.326 0 00-.325.325v2.238c0 .178.147.325.325.325h2.98v14.38c0 .18.146.326.324.326h1.607a.326.326 0 00.325-.326v-14.38h2.722a.326.326 0 00.325-.325v-2.238a.326.326 0 00-.325-.325z" fill="#42332C"/>
	<path d="M16.748 5C8.605 5 2 11.605 2 19.751 2 27.898 8.605 34.5 16.748 34.5c8.143 0 14.748-6.605 14.748-14.748C31.496 11.608 24.894 5 16.748 5z" fill="#33A142"/>
	<path d="m26.572 21.712c-.221 1.873-1.096 3.766-2.702 4.722-.088.052-.605.316-.693.361-.065.033-.133-.033-.104-.098.039-.087.335-.328.432-.552.505-1.178.147-2.55-.689-3.31-.96-.879-2.56-.983-3.704-.368-1.145.617-1.88 1.948-1.626 3.424.244 1.421 1.382 2.244 3.122 2.228.039 0 .058.052.023.074-1.064.72-4.654.826-6.98.55-2.224-.267-4.38-.924-6.503-1.626-.173-.059-.436-.166-.436-.332 0-.094.127-.26.169-.344a16.337 16.337 0 001.551-4.192c.508-2.306.543-4.8 1.786-6.81 1.99-3.223 6.403-4.156 9.554-2.306.56.329 1.04.966 1.486 1.473a.114.114 0 00.189-.029 17.006 17.006 0 001.363-4.995 5.203 5.203 0 012.526 1.512 20.271 20.271 0 00-3.076 4.176.134.134 0 00.104.198c1.346.166 2.579 1.002 3.327 2.14.777 1.194 1.05 2.686.881 4.104z" fill="#F5F7E1"/>
</svg>
