<svg viewBox="0 0 168 40" xmlns="http://www.w3.org/2000/svg">
	<path d="m55.667 12.222h-10.1c.023-.364.036-.742.036-1.132a.326.326 0 00-.325-.325h-2.176a.325.325 0 00-.325.338c.055 1.152-.091 4.907-4.175 6.1a.327.327 0 00-.238.313v4.452c0 .22.212.377.42.312.897-.286 3.043-1.177 4.692-3.509 1.119.634 2.777 1.753 4.614 3.58-2.266 1.337-4.624 1.825-5.407 1.958a.324.324 0 00-.27.319v4.48c0 .199.179.355.374.322 5.525-.845 9.619-3.521 11.57-7.804 1.508-3.307 1.671-7.073 1.632-9.089a.32.32 0 00-.322-.315zm-4.448 7.41c-1.356-.972-3.626-2.337-6.54-3.12.14-.359.267-.736.38-1.14h7.5c.198 0 .354.177.321.375a8.703 8.703 0 01-1.661 3.886zm84.16-7.41h-10.1c.023-.365.036-.742.036-1.132a.327.327 0 00-.325-.325h-2.176a.325.325 0 00-.325.338c.055 1.151-.091 4.907-4.175 6.1a.327.327 0 00-.238.312v4.452c0 .221.212.377.42.312.897-.286 3.043-1.177 4.692-3.508 1.119.634 2.777 1.752 4.614 3.58-2.266 1.336-4.624 1.824-5.407 1.957a.323.323 0 00-.27.32v4.48c0 .198.179.354.374.322 5.524-.845 9.618-3.522 11.57-7.804 1.508-3.307 1.671-7.073 1.632-9.09a.317.317 0 00-.322-.314zm-4.448 7.41c-1.356-.972-3.626-2.338-6.54-3.121.14-.358.267-.735.381-1.138h7.498c.199 0 .355.175.322.373a8.622 8.622 0 01-1.661 3.886zm-55.086-7.41h-15.498a.326.326 0 00-.325.325v2.5c0 .18.146.326.325.326h12.207c.205 0 .364.188.319.39-.26 1.177-1.158 2.738-2.758 4.22-1.908-1.427-4.025-2.79-5.986-3.557a.336.336 0 00-.345.069l-1.375 1.31c-.157.15-.124.4.058.514 1.795 1.096 3.372 2.422 4.712 3.765-1.824 1.012-4.107 1.828-6.88 2.228a.325.325 0 00-.28.319v4.47a.33.33 0 00.373.326c3.405-.537 6.92-2.062 9.551-4.179a32.939 32.939 0 012.39 3.548.322.322 0 00.514.062l3.22-3.31a.327.327 0 00-.004-.459 63.903 63.903 0 00-3.177-2.89c2.084-2.755 3.265-6.023 3.288-9.655a.328.328 0 00-.329-.322zm38.18 7.112h-10.565a.326.326 0 00-.325.325v2.498c0 .178.146.325.325.325h10.565a.326.326 0 00.325-.325v-2.498a.322.322 0 00-.325-.325zm-27.376-.293-2.062-.546a.324.324 0 00-.403.244c-.627 3.131-3.554 4.813-4.643 5.34a.321.321 0 00-.091.513l2.972 3.099c.104.11.276.137.406.052 3.346-2.123 3.958-7.131 4.058-8.364a.322.322 0 00-.237-.338zm14.326 5.034c-1.086-.527-4.012-2.208-4.643-5.34a.326.326 0 00-.404-.244l-2.061.547a.32.32 0 00-.24.338c.1 1.232.711 6.24 4.057 8.363.13.082.3.056.407-.052l2.972-3.099a.32.32 0 00-.088-.513z" fill="#42332C"/>
	<path d="m98.848 17.21a.326.326 0 00.325-.325v-.894a2.923 2.923 0 001.912-2.735c0-1.61-1.31-2.92-2.92-2.92s-2.92 1.31-2.92 2.92c0 .277.042.543.113.8h-3.508v-2.969a.326.326 0 00-.325-.325h-2.535a.326.326 0 00-.325.325v2.969h-7.001a.325.325 0 00-.325.322v2.507c0 .179.146.325.325.325h7.001v11.902c0 .179.147.325.325.325h2.534a.326.326 0 00.325-.325v-11.902h6.998zm-.683-4.861a.908.908 0 11-.001 1.815.908.908 0 010-1.815zm47.084-1.539h-2.15a.33.33 0 00-.325.329c.02 8.145-1.265 11.615-4.926 13.199a.326.326 0 00-.199.299v4.471c0 .234.238.393.452.302 5.028-2.152 7.626-5.303 7.473-18.275a.326.326 0 00-.325-.325zm11.183 9.151c-.846 1.141-2.559 3.073-4.881 3.7a.329.329 0 01-.416-.315v-12.214a.327.327 0 00-.326-.325h-2.64a.326.326 0 00-.325.325v17.856c0 .182.149.332.335.328 4.845-.123 8.106-2.88 8.734-3.45a.326.326 0 00.107-.24v-5.467c0-.315-.4-.448-.588-.198z" fill="#42332C"/>
	<path d="M17.371 5C9.228 5 2.624 11.604 2.624 19.747s6.604 14.747 14.747 14.747 14.75-6.601 14.75-14.747S25.517 5 17.371 5z" fill="#33A142"/>
	<path d="m27.194 21.71c-.221 1.874-1.096 3.766-2.703 4.722-.087.052-.604.316-.692.361-.065.033-.133-.032-.104-.097.039-.088.335-.329.432-.553.504-1.177.147-2.55-.69-3.31-.958-.878-2.558-.982-3.703-.368-1.145.618-1.88 1.948-1.626 3.424.244 1.421 1.382 2.244 3.122 2.228.039 0 .058.052.023.075-1.064.718-4.654.826-6.979.55-2.224-.268-4.38-.924-6.503-1.627-.173-.058-.436-.166-.436-.331 0-.095.127-.26.17-.345a16.336 16.336 0 001.55-4.192c.507-2.305.543-4.8 1.785-6.809 1.99-3.223 6.403-4.156 9.554-2.306.56.329 1.04.966 1.486 1.474a.114.114 0 00.189-.03 17.007 17.007 0 001.362-4.994 5.203 5.203 0 012.527 1.512 20.263 20.263 0 00-3.076 4.175.134.134 0 00.104.198c1.346.166 2.579 1.002 3.326 2.14.778 1.193 1.05 2.686.882 4.104z" fill="#F5F7E1"/>
</svg>
