<svg viewBox="0 0 256 120" xmlns="http://www.w3.org/2000/svg">
	<path d="m219.825 100.053h-2.797a.12.12 0 00-.12.12v.55c0 .067.054.12.12.12h1.004v2.394c0 .066.056.12.12.12h.55a.12.12 0 00.12-.12v-2.394h1.003a.12.12 0 00.12-.12v-.55a.118.118 0 00-.12-.12zm3.814 0h-.607a.12.12 0 00-.11.074l-.84 1.946-.823-1.946a.122.122 0 00-.114-.074h-.603a.12.12 0 00-.12.12v3.067c0 .067.053.12.12.12h.547a.12.12 0 00.12-.12v-1.33l.52 1.373a.118.118 0 00.113.077h.493c.05 0 .094-.03.114-.077l.52-1.373v1.33c0 .067.053.12.12.12h.55a.12.12 0 00.12-.12v-3.067a.12.12 0 00-.12-.12z" fill="#00669D"/>
	<path d="m219.825 100.053h-2.797a.12.12 0 00-.12.12v.55c0 .067.054.12.12.12h1.004v2.394c0 .066.056.12.12.12h.55a.12.12 0 00.12-.12v-2.394h1.003a.12.12 0 00.12-.12v-.55a.118.118 0 00-.12-.12zm3.814 0h-.607a.12.12 0 00-.11.074l-.84 1.946-.823-1.946a.122.122 0 00-.114-.074h-.603a.12.12 0 00-.12.12v3.067c0 .067.053.12.12.12h.547a.12.12 0 00.12-.12v-1.33l.52 1.373a.118.118 0 00.113.077h.493c.05 0 .094-.03.114-.077l.52-1.373v1.33c0 .067.053.12.12.12h.55a.12.12 0 00.12-.12v-3.067a.12.12 0 00-.12-.12z" fill="#00669D"/>
	<path d="M32.435 94.513c.043 1.854.01 2.66.01 2.67-.024.52.16 1.014.513 1.397s.833.603 1.35.623c.04.004 4.207.157 10.52.157 2.457 0 5.82-.087 9.07-.173 1.24-.034 2.48-.064 3.667-.094 1.18-.026 2.323-.04 3.393-.04 2.473 0 3.743.074 3.757.077.036.003.076.003.113.003.5 0 1.033-.193 1.38-.543a1.82 1.82 0 00.523-1.327l-.04-2.753H32.435v.003z" fill="#006D67"/>
	<path d="m44.825 96.69c-6.314 0-10.487-.157-10.53-.157a1.932 1.932 0 01-1.35-.623 1.936 1.936 0 01-.514-1.397c0-.016.064-1.606-.11-5.486-.176-3.907-.216-8.624-.25-12.414a400.72 400.72 0 00-.046-4.05c-.117-5.69.216-8.373.233-8.483.133-1.04 1.057-1.89 2.103-1.937.23-.01 5.647-.253 6.964-.256 2.203 0 22.59.596 23.456.623a1.892 1.892 0 011.84 2.013c-.003.044-.39 4.064-.383 6.817.003 1.35.517 11.043.627 17.483.056 3.224-.177 5.68-.177 5.767.007.503-.18.977-.523 1.327-.347.35-.88.543-1.38.543-.037 0-.077 0-.114-.003-.013 0-1.243-.077-3.716-.077-1.07 0-2.214.013-3.394.04-1.186.027-2.423.06-3.666.093-3.25.09-6.614.177-9.07.177z" fill="#00B0A8"/>
	<path d="m44.812 84.907c1.117-15.117 12.187-20.524 16.813-22.487-4.693-.137-13.39-.383-17.79-.483-1.656 2.083-9.24 12.126-9.55 21.71-.18 5.616.527 10.003 1.244 12.926 1.683.047 4.99.12 9.296.12.487 0 1.02-.003 1.57-.01-1.003-2.943-1.933-7-1.583-11.776zm19.974 11.556c.5 0 1.033-.193 1.38-.543a1.82 1.82 0 00.523-1.327c0-.086.233-2.546.177-5.766-.064-3.537-.244-8.054-.397-11.634-1.08-.376-2.693-.683-4.013-.683-4.41 0-6.424 4.97-6.424 12.317 0 3.256.447 5.616 1.067 7.61l.463-.01c1.18-.027 2.324-.04 3.394-.04 2.473 0 3.703.073 3.716.076h.114z" fill="#00A395"/>
	<path d="m70.561 94.83c.067 1.68.104 2.67.104 2.67a2.05 2.05 0 001.996 1.943s.504.007 1.737.007c1.197 0 3.21-.007 5.987-.043l5.496-.077c3.817-.057 7.42-.11 9.557-.11.617 0 1.103.003 1.427.017 2.017.063 5.293.17 5.293.17h.054a2.047 2.047 0 002.026-1.857c0-.013.074-.867.157-2.697l-33.834-.023z" fill="#AF3300"/>
	<path d="m74.398 96.78c-1.234 0-1.84-.006-1.84-.006a2.05 2.05 0 01-1.997-1.944s.043-2.4-.097-6.073c-.193-5.087-.59-10.51-.616-15.994-.004-.683.416-8.176.43-8.493.05-1.046.94-1.94 1.986-1.993.034-.003 3.244-.163 5.564-.187 2.246-.023 4.62-.033 7.053-.033 2.72 0 5.553.013 8.657.043.62.007 8.876.324 9.223.337.527.02.997.247 1.327.637s.476.893.413 1.413c-.003.026-.063 2.92-.053 7.98.006 2.347-.5 6.363-.457 8.57.05 2.757.13 5.133.13 6.8 0 1.84.277 7.003.273 7.026a2.038 2.038 0 01-2.026 1.857h-.054s-3.433-.083-5.45-.147a49.39 49.39 0 00-1.426-.016c-2.137 0-5.74.053-9.557.11-1.873.03-3.767.057-5.497.077-2.78.03-4.79.036-5.986.036z" fill="#FF7321"/>
	<g fill="#FF450A">
		<path d="m104.118 87.827c0-1.663-.08-4.043-.13-6.8-.04-2.207.463-6.224.457-8.57-.007-2.61.006-4.637.023-5.997-7.34-2.563-17.947-3.363-29.08-2.81-1.513.077-3.527.22-5.08.4-.01.074-.03.144-.033.217-.01.237-.274 4.403-.374 6.827a60.905 60.905 0 014.734-.207c9.746 0 24.143 1.94 24.143 9.436 0 3.42-9.173 10.167-23.717 9.417-1.43-.073-3.163-.156-4.573-.25.057 1.737.073 3.14.077 4.07 2.936.257 6.243.394 9.246.527.66.03 1.31.053 1.95.077l.62.016c.444.014.884.024 1.317.03l.667.01c.453.007.903.01 1.35.01.17 0 .343.004.513.004.59-.004 1.17-.007 1.743-.017.184-.003.36-.01.544-.013.403-.01.803-.02 1.2-.034.22-.01.44-.016.66-.026.363-.017.723-.034 1.08-.054.206-.01.41-.023.616-.033.487-.03.967-.064 1.44-.1l.454-.04c.413-.034.82-.073 1.22-.114.2-.02.396-.043.593-.066.313-.033.623-.07.927-.11.203-.023.403-.05.603-.08.323-.043.643-.09.957-.14.16-.027.323-.05.483-.073.443-.074.877-.147 1.303-.23.17-.034.337-.07.504-.104.276-.056.553-.113.823-.173.183-.04.433-.084.613-.127.257-.06.51-.123.757-.187.167-.043.337-.086.5-.13.207-.056.657-.113 1.017-.173-.074-1.553-.147-3.423-.147-4.383z"/>
		<path d="m69.972 76.357c.076 2.99.213 5.947.34 8.82 3.48-.327 7.693-.67 9.923-.907 2.533-.27 6.723-.016 7.683-3.166.944-3.084-4.493-4.704-6.67-4.704-1.55-.003-7.263-.263-11.276-.043z"/>
		<path d="m104.118 87.827c0-1.663-.08-4.043-.13-6.8-.04-2.207.463-6.224.457-8.57-.007-2.61.006-4.637.023-5.997-7.34-2.563-17.947-3.363-29.08-2.81-1.513.077-3.527.22-5.08.4-.01.074-.03.144-.033.217-.01.237-.274 4.403-.374 6.827a60.905 60.905 0 014.734-.207c9.746 0 24.143 1.94 24.143 9.436 0 3.42-9.173 10.167-23.717 9.417-1.43-.073-3.163-.156-4.573-.25.057 1.737.073 3.14.077 4.07 2.936.257 6.243.394 9.246.527.66.03 1.31.053 1.95.077l.62.016c.444.014.884.024 1.317.03l.667.01c.453.007.903.01 1.35.01.17 0 .343.004.513.004.59-.004 1.17-.007 1.743-.017.184-.003.36-.01.544-.013.403-.01.803-.02 1.2-.034.22-.01.44-.016.66-.026.363-.017.723-.034 1.08-.054.206-.01.41-.023.616-.033.487-.03.967-.064 1.44-.1l.454-.04c.413-.034.82-.073 1.22-.114.2-.02.396-.043.593-.066.313-.033.623-.07.927-.11.203-.023.403-.05.603-.08.323-.043.643-.09.957-.14.16-.027.323-.05.483-.073.443-.074.877-.147 1.303-.23.17-.034.337-.07.504-.104.276-.056.553-.113.823-.173.183-.04.433-.084.613-.127.257-.06.51-.123.757-.187.167-.043.337-.086.5-.13.207-.056.657-.113 1.017-.173-.074-1.553-.147-3.423-.147-4.383z"/>
		<path d="m69.972 76.357c.076 2.99.213 5.947.34 8.82 3.48-.327 7.693-.67 9.923-.907 2.533-.27 6.723-.016 7.683-3.166.944-3.084-4.493-4.704-6.67-4.704-1.55-.003-7.263-.263-11.276-.043z"/>
	</g>
	<path d="m151.451 94.687.074 2.67a1.88 1.88 0 002.01 1.843c.063-.003 6.146-.36 8.376-.36.847 0 2.32.067 4.027.147 2.637.12 5.92.27 8.866.27.274 0 .544-.003.807-.003 4.987-.05 8.953-.384 8.993-.39a2.026 2.026 0 001.827-2.094c0-.026-.057-1.17-.113-2.673l-34.867.59z" fill="#A62B44"/>
	<path d="m174.801 96.587c-2.947 0-6.23-.15-8.867-.27-1.703-.077-3.176-.147-4.026-.147-2.23 0-8.387.357-8.447.36a1.88 1.88 0 01-2.01-1.843s-.127-7.15-.223-11.453c-.024-1.02-.167-4.797-.174-5.817l-.003-.5c-.007-.91.58-12.31.6-12.91a2.02 2.02 0 011.987-1.937c.033 0 3.303-.02 3.89-.033 1.796-.044 3.31-.084 4.7-.123 3.556-.1 6.273-.174 10.856-.154 3.297.017 11.094.384 11.17.387 1.047.05 1.937.943 1.98 1.99.014.337.347 8.243.247 10.12-.103 1.99-.437 8.7-.437 11.436 0 2.754.264 8.354.267 8.41.05 1.06-.77 2-1.827 2.094-.04.003-3.89.34-8.876.39-.267-.004-.534 0-.807 0z" fill="#FF528C"/>
	<g fill="#FF2370">
		<path d="m169.804 61.76c-2.79.02-4.956.08-7.576.15-1.39.04-2.904.08-4.7.123-.214.004-.777.01-1.41.017-1.75 2.27-3.66 5.987-4.797 8.703-.14 2.9-.273 5.727-.27 6.164l.003.5c.007 1.02.15 4.796.174 5.816.1 4.304.223 11.454.223 11.454a1.88 1.88 0 002.01 1.843c.063-.003 6.217-.36 8.447-.36.846 0 2.32.067 4.026.147 1.624.073 3.494.16 5.38.213.05-.087.087-.157.094-.167a17.015 17.015 0 00.47-1.087l.08-.203c.146-.38.283-.78.413-1.196a30.356 30.356 0 00.377-1.367c.02-.073.036-.147.053-.22.11-.463.213-.943.307-1.443.013-.077.026-.154.043-.234.087-.476.163-.966.233-1.476.007-.05.017-.1.024-.154.28-2.13.44-4.5.47-7.116v-.12c.01-.86.003-1.74-.014-2.65-.173-8.3-1.806-14.1-4.06-17.337zm-9.23 33.343c-4.786-1.05-7.17-3.206-7.563-11.803-.393-8.593 4.217-14.56 7.423-14.56 3.21 0 7.947 2.713 7.947 13.193 0 4.78-3.02 14.217-7.807 13.17z"/>
		<path d="m158.511 76.81c-1.344 1.543-2.31 5.156-2.144 8.483.127 2.493.91 4.28 1.994 4.817 1.436.713 3.046.127 3.983-.807.993-.993 2.143-1.883 2.463-6.29.31-4.31-1.653-5.92-2.196-6.57-.924-1.113-2.814-1.113-4.1.367zm27.8 17.29c-.004-.057-.267-5.66-.267-8.41 0-2.737.337-9.443.437-11.437.096-1.876-.234-9.783-.247-10.12-.043-1.046-.933-1.943-1.98-1.99-.04-.003-1.933-.09-4.243-.183 1.733 8.18 3.36 17.843 3.36 25.56 0 3.197-.237 6.143-.607 8.797 1.07-.07 1.707-.124 1.723-.127a2.019 2.019 0 001.824-2.09z"/>
		<path d="m169.804 61.76c-2.79.02-4.956.08-7.576.15-1.39.04-2.904.08-4.7.123-.214.004-.777.01-1.41.017-1.75 2.27-3.66 5.987-4.797 8.703-.14 2.9-.273 5.727-.27 6.164l.003.5c.007 1.02.15 4.796.174 5.816.1 4.304.223 11.454.223 11.454a1.88 1.88 0 002.01 1.843c.063-.003 6.217-.36 8.447-.36.846 0 2.32.067 4.026.147 1.624.073 3.494.16 5.38.213.05-.087.087-.157.094-.167a17.015 17.015 0 00.47-1.087l.08-.203c.146-.38.283-.78.413-1.196a30.356 30.356 0 00.377-1.367c.02-.073.036-.147.053-.22.11-.463.213-.943.307-1.443.013-.077.026-.154.043-.234.087-.476.163-.966.233-1.476.007-.05.017-.1.024-.154.28-2.13.44-4.5.47-7.116v-.12c.01-.86.003-1.74-.014-2.65-.173-8.3-1.806-14.1-4.06-17.337zm-9.23 33.343c-4.786-1.05-7.17-3.206-7.563-11.803-.393-8.593 4.217-14.56 7.423-14.56 3.21 0 7.947 2.713 7.947 13.193 0 4.78-3.02 14.217-7.807 13.17z"/>
		<path d="m158.511 76.81c-1.344 1.543-2.31 5.156-2.144 8.483.127 2.493.91 4.28 1.994 4.817 1.436.713 3.046.127 3.983-.807.993-.993 2.143-1.883 2.463-6.29.31-4.31-1.653-5.92-2.196-6.57-.924-1.113-2.814-1.113-4.1.367zm27.8 17.29c-.004-.057-.267-5.66-.267-8.41 0-2.737.337-9.443.437-11.437.096-1.876-.234-9.783-.247-10.12-.043-1.046-.933-1.943-1.98-1.99-.04-.003-1.933-.09-4.243-.183 1.733 8.18 3.36 17.843 3.36 25.56 0 3.197-.237 6.143-.607 8.797 1.07-.07 1.707-.124 1.723-.127a2.019 2.019 0 001.824-2.09z"/>
	</g>
	<path d="m189.588 91.257c-.007 1.57.163 5.046.287 5.74.183 1.023 1.14 1.847 2.18 1.87.153.003 15.46.356 17.616.356h.14c2.19-.026 4.377-.066 6.567-.11 2.213-.043 5.367-.11 5.367-.11 1.05-.023 1.956-.896 2.023-1.943.007-.106.083-1.337.163-2.67l-34.343-3.133z" fill="#00669D"/>
	<path d="m209.675 96.554c-2.157 0-17.464-.354-17.617-.357-1.04-.023-1.997-.847-2.18-1.87-.013-.067-.293-1.66-.287-3.07.007-1.667.054-5.58.1-9.363.04-3.414.08-6.64.08-7.57 0-1.907-.393-9.967-.396-10.05a1.907 1.907 0 01.503-1.397c.35-.383.83-.607 1.347-.627.176-.006 4.313-.173 5.353-.173 1.37.003 2.747.063 4.08.127a96.87 96.87 0 003.703.123l.49.003c1.244 0 2.51-.036 3.737-.073 1.233-.037 2.507-.073 3.767-.073h.316c.624.003 8.89.216 9.244.226a1.968 1.968 0 011.91 1.987c0 .037-.047 3.473.013 5.89.03 1.153-.01 2.263-.05 3.337a51.226 51.226 0 00-.053 3.16c.026 1.246.076 2.5.123 3.71.103 2.536.207 5.163.097 7.806-.024.544-.007 5.864-.024 6.09-.063 1.047-.973 1.92-2.023 1.944l-5.53.11c-2.19.043-4.377.083-6.567.11h-.136z" fill="#00A8FF"/>
	<path d="m193.775 75.36c.103 2.787 8.86 5.977 23.58 7.14 2.293.183 4.347.29 6.59.35-.027-.793-.053-1.58-.087-2.36-.01-.29-.023-.59-.033-.886-.487-.02-.913-.034-1.373-.047-4.407-.117-13.247-.717-13.33-3.053-.087-2.337 7.853-1.73 11.27-1.854.643-.023 1.77-.05 3.366-.077l.03-.95c.024-.61.044-1.233.054-1.866-3.414.09-6.364.16-8.767.21-10.707.213-21.403.606-21.3 3.393zm-4.054 3.787c-.01.87-.02 1.8-.033 2.746-.013 1.217-.03 2.447-.043 3.61 1.91.324 3.56.714 5.786 1.08 6.577 1.09 18.297 1.877 28.507 2.05.01-.16.017-.276.017-.336.026-.647.04-1.294.046-1.937-2.35-.07-4.366-.167-6.533-.32-9-.643-21.373-3.693-27.747-6.893zm-.003-6.817c4.277-1.147 10.893-1.33 16.11-1.52 4.177-.153 11.007-.473 18.003-.8-.016-.813-.026-1.713-.026-2.553-7.304.327-25.464.793-34.234 1.233.057 1.247.11 2.557.147 3.64zm30.197-7.68c1.09-.033 2.423-.08 3.906-.133 0-.07.004-.117.004-.123a1.97 1.97 0 00-1.91-1.987c-.354-.01-8.62-.223-9.244-.227h-.316c-1.257 0-2.534.037-3.767.074-1.227.036-2.493.073-3.737.073l-.49-.003a97.145 97.145 0 01-3.703-.124c-1.333-.06-2.71-.123-4.08-.127-1.043 0-5.18.167-5.353.174-.517.02-.997.243-1.347.627-.35.383-.53.88-.503 1.396 0 .023.03.617.073 1.507 3.713-.33 7.21-.344 9.71-.347 6.293-.003 14.373-.577 20.757-.78zm1.996 31.68c1.05-.023 1.957-.897 2.023-1.943.004-.07.007-.637.007-1.397-8.157-.1-17.973-.383-23.947-1.14-4.15-.527-6.696-.963-10.373-1.27l-.027.03c-.003.24-.003.46-.003.647-.007 1.41.277 3 .287 3.07.183 1.023 1.14 1.846 2.18 1.87.153.003 15.46.356 17.616.356h.14c2.19-.026 4.377-.066 6.567-.11l5.53-.113z" fill="#0096FF"/>
	<path d="M147.772 81.814v-2.42l-.433.003c-.717-1.863-2.29-3.347-4.48-4.137.383-.826.59-1.726.596-2.633v-2.42h-.46a6.525 6.525 0 00-1.533-2.273c-1.293-1.254-3.02-1.95-4.863-1.967h-.057c-.447 0-.893.043-1.33.123-1.037-3.416-4.277-5.763-8.05-5.763-3.713 0-6.953 2.31-8.023 5.67a6.455 6.455 0 00-.437-.013c-2.917 0-5.41 1.736-6.423 4.183h-.487v2.42c0 .91.197 1.81.573 2.637-2.146.79-3.863 2.466-4.61 4.5l-.44.003.07 2.42h.004c0 2.343 1.146 4.527 3.093 5.927a7.914 7.914 0 00-.543 1.136h-.51v2.517c-.004.08-.007.16-.007.243 0 4.41 3.757 8 8.373 8 1.087 0 2.15-.073 3.147-.46l.107 1.717c0 .71.52 1.283 1.16 1.283l10.83-.136c.64 0 1.16-.577 1.16-1.284l.126-2c1.167.507 2.62.75 4.44.75 3.217 0 7.357-1.8 8.057-6.866a7.5 7.5 0 00.067-1.05h.006V89.21h-.47c-.303-.856-.86-1.613-1.333-2.203 1.69-.867 2.66-2.717 2.68-5.193z" fill="#00753F"/>
	<path d="m133.188 99.95-11.136.137c-.64 0-1.16-.577-1.16-1.284l.013-.113.413-1.753c-1.1.49-2.303.606-3.53.606-4.616 0-8.373-3.586-8.373-8 0-1.373.367-2.71 1.06-3.896-1.947-1.4-3.163-3.58-3.163-5.924 0-3.066 2.09-5.833 5.046-6.923a6.386 6.386 0 01-.573-2.636c0-3.644 3.1-6.607 6.91-6.607.143 0 .29.003.437.013 1.07-3.356 4.31-5.67 8.023-5.67 3.773 0 7.013 2.347 8.05 5.764.44-.084.887-.124 1.33-.124h.057c1.843.017 3.57.714 4.863 1.967 1.3 1.26 2.007 2.926 1.99 4.697-.01.91-.213 1.81-.597 2.633 3.074 1.106 4.944 3.573 4.917 6.553-.023 2.477-.99 4.327-2.69 5.194 1.09 1.353 2.063 3.556 1.73 5.963-.7 5.07-4.84 6.867-8.057 6.867-2.13 0-3.763-.33-5.016-1.03l.603 2.28c.01.71-.51 1.286-1.147 1.286z" fill="#00A971"/>
	<path d="m141.708 96.903c-9.413-.773-21.37-2.733-31.946-5.1 1.02 3.317 4.23 5.747 8.026 5.747 1.227 0 2.43-.117 3.53-.606l-.413 1.753-.013.113c0 .707.52 1.283 1.16 1.283l11.136-.136c.64 0 1.16-.577 1.16-1.283l-.603-2.28c1.253.7 2.887 1.03 5.017 1.03.94 0 1.96-.16 2.946-.504v-.017zm3.377-12.319a4.421 4.421 0 001.33-1.06c-10.11-.694-21.993-2.377-22.143-6.28-.157-3.984 10.89-4.054 19.483-4.02a9.399 9.399 0 00-.893-.384c.383-.826.59-1.727.596-2.633a6.319 6.319 0 00-.72-2.987c-1.696.037-3.303.07-4.803.097-8.487.163-17.953.467-25.853.963a6.293 6.293 0 00-.29 1.884c0 .906.196 1.81.573 2.636-2.957 1.09-5.047 3.86-5.047 6.924 0 2.343 1.217 4.526 3.164 5.923-.004.003-.004.007-.007.01 8.707 1.953 20.23 3.75 32.7 4.69 1.16.087 2.463.16 3.633.233 0-.013-.006-.033.007-.036.333-2.4-.64-4.607-1.73-5.96zm-17.924-26.677c-3.713 0-6.95 2.31-8.023 5.67 0 0 8.933-.28 15.833-.577-1.233-3.05-4.29-5.093-7.81-5.093z" fill="#00A059"/>
	<path d="m143.968 90.637c-.01-.013-.543-.933-1.563-2.147-1.094-1.35-2.94-3-5.204-4.587 1.037.024 2.684.047 3.904.047.196 0 .376-.15.4-.35l.416-3.337a.391.391 0 00-.313-.436c-.01-.004-1.517-.357-3.897-.547.047-.4.08-.813.117-1.223a.394.394 0 00-.323-.433l.316-.194a.384.384 0 00.15-.53c-.01-.017-1.216-1.907-2.48-3.04a13.12 13.12 0 00-3.663-2.41c1.97-.113 3.323-.21 3.323-.21a.42.42 0 00.387-.376l.2-3.37a.45.45 0 00-.107-.3.38.38 0 00-.28-.127 61.173 61.173 0 00-3.88-.117c-.556 0-1.09.007-1.61.02.037-.873.07-1.543.07-1.903 0-.203-.156-.367-.363-.4l-4.147-.46a.367.367 0 00-.306.093.384.384 0 00-.144.277c0 .007-.066 1.053-.083 2.743-3.733.43-5.803 1.094-5.823 1.1a.417.417 0 00-.277.454l.457 2.66c.03.186.2.33.39.333.276.003.56.01.866.01.654 0 1.377-.017 2.114-.027-.977 1.134-1.874 2.5-2.707 4.237-.27.52-.523 1.06-.777 1.647l-1.64-.084a.432.432 0 00-.316.133.402.402 0 00-.1.32l.236 1.8c-1.35.197-2.763.464-4.136.85a.408.408 0 00-.294.484l.7 2.897a.4.4 0 00.394.31h.01s1.073-.024 2.683-.117c-.98 1.653-3.267 5.773-4.03 7.657a.404.404 0 00.13.476l1.457 1.06c.07.057.15.077.23.077.123 0 .246-.05.316-.153l3.69-5.074.47 3.893c.03.194.187.34.39.347l2.924.084h.056c.107 0 .164-.044.234-.114a.405.405 0 00.13-.29l-.06-5.973a28.129 28.129 0 011.93 3.213c.066.14.21.224.363.224.05 0 .1-.01.157-.027l2.616-1.174c-.356.757-.57 1.264-.57 1.274a.4.4 0 00.17.493l1.767 1.064a.44.44 0 00.217.056c.106 0 .216-.05.3-.14 0 0 1.126-1.287 2.536-2.993.247-.303.49-.61.727-.92l.13 4.913c.01.217.193.394.41.394h.007l2.553-.04a.402.402 0 00.39-.354s.213-1.746.54-4.803c.6 1.037 1.343 2.45 1.987 4.246.04.117.133.204.25.247.04.017.08.017.126.017.07 0 .134-.014.187-.04.15.36.293.733.433 1.127.04.116.134.2.254.25a.392.392 0 00.343-.043l3.41-2.11a.42.42 0 00.13-.554zm-21.373-11.17-.007-.66a22.178 22.178 0 001.793-2.904c.25-.393.514-.8.757-1.233.133 1.573.337 3.2.633 4.797-.37-.01-.923-.03-1.64-.03-.45.003-.97.02-1.536.03zm6.823 5.95c-.33.48-.62.98-.89 1.457a20.632 20.632 0 00-4.383-3.364c.826-.14 1.643-.3 2.413-.497a.406.406 0 00.313-.416l-.193-2.19 1.647-.25v2.606c0 .197.13.357.32.394.02.003.793.15 2.36.323a12.057 12.057 0 00-1.587 1.937zm-.303-5.814c.043-.546.203-3.073.37-5.89 1.056 1.094 2.256 2.56 3.06 4.244l.033 1.263c-1.1.057-2.26.18-3.463.383z" fill="#00753F"/>
	<path d="m142.964 91.243c-.093-.14-1.996-3.106-5.206-5.363.946.02 1.986.043 3.106.043.204 0 .374-.16.39-.356l.42-3.33a.404.404 0 00-.3-.447c-.083-.01-1.553-.367-3.886-.55.043-.397.076-.8.123-1.217a.393.393 0 00-.343-.433l-2.47-.377 2.026-1.29a.433.433 0 00.18-.263.42.42 0 00-.063-.313c-.083-.12-1.64-2.33-5.197-3.924 1.93-.12 3.257-.213 3.287-.213a.398.398 0 00.377-.38l.21-3.373a.408.408 0 00-.1-.294.382.382 0 00-.277-.13 63.597 63.597 0 00-3.86-.126c-.543 0-1.07.003-1.587.03.04-.877.06-1.547.06-1.904a.391.391 0 00-.363-.4l-4.067-.466a.402.402 0 00-.306.093.403.403 0 00-.144.277c0 .04-.066 1.086-.08 2.75-3.5.416-5.386 1.06-5.503 1.09a.416.416 0 00-.26.463l.453 2.65a.388.388 0 00.39.337c.274 0 .557.013.857.013.563 0 1.16-.013 1.773-.023-1.133 1.316-2.106 2.913-3.013 4.9-.08.16-.03.36.113.466l.694.574-2.647-.147c-.12 0-.233.05-.31.133a.4.4 0 00-.107.33l.227 1.7a31.52 31.52 0 00-3.953.787.412.412 0 00-.28.49l.696 2.903a.404.404 0 00.39.304h.01c.104 0 .977 0 2.297-.05-.98 1.646-2.553 4.396-3.34 6.31a.407.407 0 00.147.483l1.453 1.063a.44.44 0 00.23.064.394.394 0 00.317-.147l3.116-3.927.547 4.17c.03.2.197.35.397.35l2.71.08h.006c.107 0 .197-.05.28-.11a.43.43 0 00.117-.296l-.05-5.96a27.969 27.969 0 011.883 3.203c.067.14.21.22.364.22.05 0 .1-.007.156-.033l2.617-1.167c-.35.727-.553 1.22-.57 1.27a.41.41 0 00.17.5l1.767 1.06a.469.469 0 00.216.053c.107 0 .217-.04.3-.13.004-.013 1.144-1.303 2.537-3.003.247-.3.49-.613.727-.92l.13 4.913c.01.217.193.394.41.394h.006l2.36-.044c.2 0 .38-.146.394-.35.003-.03.23-1.906.57-5.12.65 1.064 1.436 2.584 2.15 4.57.04.117.133.207.25.247.04.013.08.023.13.023a.51.51 0 00.216-.056l3.41-2.11a.422.422 0 00.18-.257.5.5 0 00-.06-.307zm-18.783-5.746c.877-.14 1.743-.31 2.567-.517a.4.4 0 00.31-.42l-.187-2.213 1.453-.227v2.613c0 .19.13.354.314.39.076.02.833.17 2.356.334a12.755 12.755 0 00-1.576 1.923c-.33.48-.62.98-.89 1.45a20.525 20.525 0 00-4.347-3.333zm8.397-4.307c-1.174.07-2.327.193-3.464.38.044-.573.184-3.107.344-5.917 1.056 1.094 2.266 2.57 3.086 4.277l.034 1.26zm-7.44-4.557c.14 1.564.336 3.204.63 4.787a38.102 38.102 0 00-2.19-.057c-.307 0-.634 0-.984.01l-.01-1.12-.003-.043c.58-.657 1.64-1.957 2.557-3.577z" fill="#fff"/>
	<path d="m215.592 85.883v-.003l-.01-.04a.383.383 0 01-.01-.043s0-.004-.004-.004a.457.457 0 00-.086-.143c-.004-.003-.004-.007-.007-.01a.45.45 0 00-.133-.103c-.004 0-.004-.004-.007-.007-.003 0-.003 0-.007-.003-.013-.007-.026-.01-.04-.017a.183.183 0 00-.04-.017c-.003 0-.006 0-.01-.003-.006-.003-.016-.003-.026-.006a1.668 1.668 0 01-.04-.01c-.014-.004-.024-.004-.037-.004-.673-.05-1.697-.07-2.923-.07h-.394c-.253 0-.513.003-.78.003h-.053l-.81.01h-.063l-.83.014h-.08l-.844.016a.85.85 0 00-.093.004l-.843.02c-.04 0-.08.003-.124.003-.276.007-.556.014-.836.023-.044 0-.087.004-.13.004l-.844.023c-.04 0-.076.004-.116.004-.28.01-.564.016-.84.026-.044 0-.084.004-.127.004l-.83.03c-.037 0-.073.003-.113.003l-.81.03c-.044.003-.087.003-.13.007l-.784.03c-.033 0-.066.003-.103.003-.26.01-.513.02-.76.033-.037 0-.073.004-.107.004-.246.01-.486.02-.72.033l-.093.003c-.237.01-.467.023-.69.033-.02 0-.037.004-.057.004-.23.01-.45.023-.663.033h-.027c-.216.01-.426.023-.623.034-.017 0-.033.003-.053.006a.051.051 0 00-.024.007l-.04.01c-.006.003-.013.003-.023.007-.007.003-.01.006-.013.006a.494.494 0 00-.12.063c-.004.004-.007.004-.007.007a.608.608 0 00-.09.09c-.003.007-.01.013-.013.02a.667.667 0 00-.06.117c-.004.01-.007.016-.007.026a.482.482 0 00-.023.137v2.037c0-.047.01-.094.023-.137.003-.01.003-.017.007-.026a.412.412 0 01.06-.117c.003-.007.01-.014.013-.02.003-.007.01-.01.013-.013.34 1.823.827 3.51 1.58 5.6.067.19.244.32.444.333 3.586.21 11.063-.037 13.833-.393a.497.497 0 00.407-.33 53.346 53.346 0 001.65-5.607l.013.01c.003.003.003.007.007.01a.545.545 0 01.086.143c.007.014.01.03.014.047.003.013.01.026.01.04.006.03.01.06.01.09v-2.047a.124.124 0 000-.067zm-13.807 5.13v-.006.006zm9.107.067c-2.017.107-6.107.217-8.85.267a6.057 6.057 0 01-.077-.343c1.753 0 5.007-.044 9.007-.297a9.159 9.159 0 01-.08.373zm.453-2.723c-.25-.004-.53-.004-.837-.004h-.89c-.073 0-.143 0-.22.004-.063 0-.13 0-.196.003-.077 0-.154.004-.23.004l-.21.003c-.077 0-.154.003-.234.003-.073 0-.146.004-.223.004-.083 0-.167.003-.253.006a5.15 5.15 0 00-.23.007c-.087.003-.174.003-.264.007-.08.003-.163.003-.243.006-.093.003-.183.003-.28.007-.083.003-.17.003-.257.007l-.286.01-.274.01-.3.01-.28.01c-.106.003-.213.006-.323.013l-.287.01c-.116.003-.233.01-.35.013l-.28.01c-.123.007-.25.01-.376.017-.097.003-.194.01-.29.013l-.397.02-.287.014c-.15.006-.303.016-.456.023-.087.003-.17.01-.26.013l-.724.04h-.013a.863.863 0 00-.013-.093c1.816-.19 7.616-.49 9.77-.29.003.03-.004.066-.007.1zm11.007-18.483a21.738 21.738 0 00-2.067-1.057c-.03-.017-.06-.03-.093-.047l-.124-.06c-.073-.033-.146-.07-.223-.103a5.751 5.751 0 00-.133-.06 14.405 14.405 0 01-.254-.114c-.04-.016-.08-.036-.123-.053-.127-.053-.257-.11-.393-.166l-.034-.014c-.126-.053-.256-.103-.386-.157-.047-.016-.094-.036-.14-.053-.1-.04-.197-.076-.3-.116-.057-.02-.114-.044-.17-.064-.097-.037-.197-.073-.297-.11-.057-.02-.11-.04-.167-.063-.11-.04-.223-.08-.336-.124-.047-.016-.097-.033-.144-.053-.16-.056-.326-.113-.49-.173-.023-.01-.05-.017-.076-.027-.144-.05-.287-.097-.434-.147-.056-.02-.113-.036-.17-.056-.116-.04-.233-.077-.353-.117l-.193-.063c-.117-.037-.234-.077-.354-.114l-.186-.06c-.134-.043-.27-.083-.404-.126-.046-.013-.093-.03-.14-.043l-.036-.01c-.017-.007-.034-.01-.054-.017a68.134 68.134 0 00-4.606-1.25 52.592 52.592 0 00-1.144-.26l-.096-.02a52.295 52.295 0 00-1.02-.214c-.037-.006-.074-.016-.114-.023a95.08 95.08 0 00-.963-.18l-.12-.02c-.31-.053-.61-.1-.9-.143l-.073-.01-.067-.01c-.203-.03-.4-.057-.593-.08h-.004a.88.88 0 00-.093.007h-.007c-.246.046-.493.103-.74.17-.033.01-.07.016-.103.026h-.003c-.754.2-1.527.5-2.307.874-.033.016-.067.03-.1.043l-.05.023-.063.034-.14.07c-.177.086-.354.173-.527.27-.023.013-.047.023-.073.036-.24.13-.48.267-.717.407l-.117.07a27.761 27.761 0 00-1.49.953l-.086.06c-.23.16-.46.32-.684.483-.003.004-.01.007-.013.01-.227.164-.45.33-.667.5-.03.024-.06.044-.086.067-.207.16-.41.32-.61.48l-.104.084c-.196.156-.39.316-.576.473-.03.026-.06.05-.094.076-.19.16-.376.32-.556.477-.017.014-.03.027-.044.04-.18.157-.353.31-.52.463-.013.014-.026.024-.04.037-.01.007-.016.017-.026.023a57.599 57.599 0 00-2.884 2.73.501.501 0 00.02.717l1.04.95c.067.06.534.037 1.077-.02l.02.017a.503.503 0 00.607.053l.293-.186c.287-.044.547-.087.727-.127-.01.01-.02.017-.027.026-.003.007-.01.01-.013.017a.667.667 0 00-.06.117c-.004.01-.007.017-.007.027a.485.485 0 00-.023.14v2.036c0-.05.01-.093.023-.14.003-.01.007-.016.007-.026.003-.01.01-.017.013-.024.2 2.977 1.003 6.46 1.587 8.55.06.22.26.37.49.367 3.98-.077 15.013-.487 19.45-.743a.498.498 0 00.453-.37c.47-1.814 1.15-5.257 1.32-8.264v.003c.007.017.01.034.017.05a.46.46 0 01.02.127v-2.047c0-.026-.004-.05-.007-.073 0-.003 0-.003-.003-.006a.498.498 0 01-.01-.037c-.004-.014-.007-.03-.014-.043 0-.004-.003-.004-.003-.007a.608.608 0 00-.083-.14c-.004-.004-.007-.01-.014-.014a.522.522 0 00-.126-.1c-.004-.003-.007-.006-.01-.006-.004-.004-.01-.004-.014-.007a.157.157 0 00-.043-.016l-.03-.014c-.007-.003-.01-.003-.017-.003-.01-.003-.02-.003-.03-.007-.01-.003-.02-.007-.03-.007-.016-.003-.033-.003-.05-.003-.7-.033-1.653-.05-2.776-.05h-.784c-.106 0-.216 0-.326.004-.084 0-.17 0-.254.003-.116 0-.233.003-.35.003-.09 0-.18.003-.273.003-.117 0-.233.004-.353.004-.097 0-.194.003-.294.003-.116 0-.23.004-.35.004-.1 0-.203.003-.306.003-.117.003-.234.003-.354.007-.106.003-.216.003-.326.006-.114.003-.23.003-.344.007-.106.003-.216.003-.326.007l-.367.006c-.11.004-.223.004-.337.007-.116.003-.233.007-.353.007a11.34 11.34 0 01-.34.006l-.37.01-.343.01-.36.01-.35.01-.364.01-.336.01-.39.01-.32.01-.38.01h-.017a75.387 75.387 0 005.553-.397.507.507 0 00.447-.453l.047-.513c.01.02.026.037.033.056.007.017.01.03.013.047.004.014.01.027.01.04.007.03.01.06.01.093v-2.046c0-.02-.003-.04-.006-.06 2.096.843 4.36 1.883 6.406 3.123a.498.498 0 00.627-.09l.403-.443c.08.05.164.097.244.147a.497.497 0 00.626-.09l2.69-2.95a.498.498 0 00-.116-.76zm-24.374 4.543-.51.02h-.006c-.16.007-.314.01-.467.017h-.043l-.304.01-.813.03c-.3.01-.567.02-.797.03.847-.54 2.747-1.73 4.927-2.95v1.923c0-.057.01-.11.027-.16.006-.017.016-.03.023-.047l.01-.02.04.484c.02.256.233.456.49.46.643.01 1.943.033 3.66-.004l-.29.01-.297.01-.373.01-.327.01c-.123.004-.243.007-.366.013l-.307.01-.413.014c-.077.003-.154.003-.23.006-.154.007-.307.01-.457.017-.07.004-.137.004-.207.007-.136.003-.27.01-.403.013l-.257.01c-.133.004-.263.01-.393.013-.07.004-.14.004-.21.007l-.397.014-.21.006-.52.02h-.013l-.513.02c-.014-.003-.034-.003-.054-.003zm7.704 8.266v.54c-2.784.107-5.45.184-6.8.184-.36-1.747-.594-4.043-.72-5.96.473-.02 1.126-.05 1.9-.087-.024.01-.05.02-.07.03a1.78 1.78 0 00-.29.147v2.036c.063-.036.133-.076.213-.113.023-.01.05-.023.077-.033 0 0 .003 0 .003-.004 1.373 3.35 4.497 2.977 5.693 2.71-.006.204-.006.394-.006.55zm8.81-5.823c-.14 1.607-.41 4.65-.614 5.93-1.473.127-4.23.27-7.04.387v-.547l-.01-.516c1.004.403 4.51.63 5.854-2.717.023.013.046.023.066.036a1.623 1.623 0 01.204.14v-2.036a1.162 1.162 0 00-.15-.107c-.017-.01-.037-.02-.054-.033-.023-.014-.046-.03-.073-.044a.569.569 0 01-.05-.023c-.037-.02-.08-.037-.12-.053-.04-.017-.08-.034-.123-.05l-.14-.05a.843.843 0 00-.08-.027c-.017-.007-.04-.01-.057-.017a20.209 20.209 0 00-.193-.05c-.047-.01-.094-.023-.14-.033-.074-.016-.15-.026-.227-.04l-.11-.02-.03-.003c-.083-.01-.17-.02-.257-.027-.043-.003-.086-.01-.13-.013a5.221 5.221 0 00-.4-.014c1.464-.043 2.814-.073 3.874-.073zm-3.98.077c-.097.003-.197.007-.297.013l-.117.01c-.096.01-.196.02-.296.034-.024.003-.05.003-.074.01-.01 0-.02.003-.03.006-.13.02-.26.047-.39.077a3.652 3.652 0 00-.39.113c-.02.007-.04.01-.056.017-.02.007-.04.017-.06.023-.094.034-.187.074-.28.114a3.547 3.547 0 00-.46.233l-.06.04a3.225 3.225 0 00-.387.273c-.08.063-.16.133-.237.207-.03.03-.06.056-.09.087-.103.103-.2.21-.293.33-.01.013-.017.026-.027.04-.083.106-.16.22-.233.34-.027.04-.05.083-.073.126-.057.1-.114.207-.164.32-.02.047-.043.09-.063.137-.067.157-.13.32-.183.493 0-.003-.004-.003-.004-.007a4.558 4.558 0 00-.183-.42c-.023-.046-.047-.086-.07-.13-.047-.086-.09-.173-.137-.253-.03-.05-.06-.093-.09-.14-.046-.07-.09-.14-.14-.207-.033-.046-.07-.09-.103-.133-.047-.06-.093-.12-.143-.177-.037-.043-.077-.083-.114-.123-.05-.053-.096-.103-.15-.153-.04-.04-.08-.073-.123-.11a2.772 2.772 0 00-.157-.133c-.043-.034-.086-.067-.13-.097a3.92 3.92 0 00-.16-.114c-.043-.03-.09-.056-.133-.086-.057-.034-.11-.067-.167-.097-.026-.013-.05-.03-.076-.043-.017-.01-.037-.017-.054-.023-.08-.04-.163-.08-.246-.114-.03-.013-.064-.03-.094-.04a4.66 4.66 0 00-.343-.123c-.003 0-.007-.004-.01-.004l-.063-.016c-.014-.003-.03-.007-.044-.013 2.274-.11 4.88-.217 7.194-.287zm-3.267-6.53h-.193c-.184 0-.367.003-.557.003h-.11a64.073 64.073 0 00-1.027.023c-.193.007-.39.014-.583.024-.097.003-.19.01-.283.013-.187.01-.374.02-.56.034l-.274.02c-.23.016-.456.036-.683.056l-.13.01a30.293 30.293 0 00-1.007.12c-.13.017-.263.037-.393.057 1.38-.733 2.797-1.427 4.083-1.94.017.003.034.003.05.007 1.147.373 2.817.916 4.7 1.633-.77-.027-1.833-.06-3.033-.06z" fill="#00669D"/>
	<path d="m181.582 69.567a161.95 161.95 0 00-10.53-.503c.46-.837.913-1.68 1.366-2.537a.5.5 0 00-.31-.713l-.943-.264v-.006l-4.297-1.2c-.02-.007-.04-.01-.06-.014-.023-.003-.046-.003-.07-.003-.026 0-.05.003-.076.007l-.044.01-.026.006c-.007.004-.014.004-.02.004-.01.003-.017.01-.024.013a.474.474 0 00-.113.067c-.013.01-.023.02-.037.03a.466.466 0 00-.106.136 275.856 275.856 0 01-2.364 4.484c-2.566.073-5.44.236-7.806.436a.501.501 0 00-.447.597c.273 1.403.337 1.817.53 2.677l.233-.064c.214.817.43 1.53.56 1.934a.5.5 0 00.477.35c1.077-.004 2.17-.02 3.273-.044a216.643 216.643 0 00-2.883 5.57 172.177 172.177 0 00-3.69 7.704.503.503 0 00.19.63l2.023 1.26.24-.847.554.343c.223.14.52.08.673-.133.673-.953 2.54-3.627 4.913-7.323.91-.174 5.517-.977 9.55-.147.014.003.027.01.04.013-.683.614-1.733 1.537-3.046 2.637h-.004c-.226-.083-.45-.163-.67-.24-.06-.02-.12-.043-.176-.063l-.544-.187a39.205 39.205 0 00-.713-.237l-.147-.046-.453-.144-.093-.03-.05-.016c-.1-.03-.197-.06-.294-.087-.046-.013-.096-.03-.143-.043l-.403-.114h-.004c-.02-.006-.04-.01-.056-.013-.024-.003-.047-.007-.07-.007h-.004a.503.503 0 00-.156.027c-.007.003-.01.007-.017.007l-.023.01a.457.457 0 00-.147.096c-.077.077-.15.157-.223.237-.02.023-.04.047-.06.067-.054.06-.104.12-.154.18-.016.023-.036.043-.053.066-.053.064-.103.13-.15.194-.01.013-.02.03-.033.043-.057.077-.114.153-.167.23-.513.69-1.213 1.593-1.47 2.013-.147.24-.067.584.18.72.37.207.96.54 1.71.964-.683.506-1.74 1.293-2.33 1.736a.49.49 0 00-.123.687l1.283 1.883.387-.446.546.806a.5.5 0 00.58.194 31.445 31.445 0 005.404-2.58c1.66.97 3.463 2.043 5.23 3.126a.502.502 0 00.59-.05c.43-.376 1.3-1.15 2.12-1.953l.613.397c.363-.374.99-1.017 1.51-1.58a.504.504 0 00-.09-.76c-1.087-.727-3.447-1.86-5.34-2.7 1.48-1.44 2.803-3.15 3.71-5.157l.343.197c.314-.93.597-1.82.957-3.297a.497.497 0 00-.317-.593c-.876-.28-1.87-.53-2.95-.734-2.08-.433-4.26-.593-6.323-.593-.127 0-.253.003-.38.003-1.37.004-2.787.074-4.22.23.47-.776.95-1.58 1.433-2.4 4.377-.223 8.91-.57 13.58-1.033a.503.503 0 00.447-.42l.16-1.003.157.01.343-2.13a.51.51 0 00-.463-.577zm-15.627 18.823-.463-.446.083-.174.683.387-.303.233zm-4.653-13.383v-.053h.03c-.01.013-.02.033-.03.053z" fill="#A62B44"/>
	<path d="m64.112 76.61c-.374-2.02-1.974-3.05-3.957-3.52.46-1.73.8-3.06.956-3.68a.497.497 0 00-.323-.593l-.406-.14c-.01-.007-.017-.017-.027-.02l-.07-.03-3.663-1.25c-.007-.003-.01-.003-.017-.007a.522.522 0 00-.077-.017c-.023-.003-.047-.006-.07-.006-.026 0-.05.003-.073.007-.03.003-.057.013-.087.02h-.003c-.007.003-.01.006-.014.006a.528.528 0 00-.12.067l-.036.03c-.027.026-.053.053-.074.083a.483.483 0 00-.083.19c-.326 1.74-.656 3.42-.983 5.034v.03c-1.837.136-3.427.44-4.16.596a.5.5 0 00-.39.557l.576 4.173c.02.14.094.254.197.33l.087.624c.04.296.333.493.627.416.406-.11 1.016-.267 1.723-.427a418.53 418.53 0 01-3.32 13.874.498.498 0 00.517.623l1.07-.067c.17-.01 1.82-.206 1.903-.36 1.267-2.296 3.27-8.94 4.873-14.676.073.003.143.013.213.02.81.49 1.524 1.216 1.534 2.266.026 2.28-2.257 9.707-2.807 11.66a.503.503 0 00.313.607l1.927.683a.502.502 0 00.643-.313c.047-.143.104-.313.167-.51a.505.505 0 00.344-.323c.523-1.597 2.183-6.813 2.873-10.87.09.02.16-.117.217-.497.336-2.253.22-3.4 0-4.59zm-13.554 14.22c-.036-.26-.157-1.04-.273-1.766v-.064l-.003-.06c-.017-.106-.03-.206-.047-.306l-.014-.084-.033-.21c-.003-.026-.01-.056-.013-.083-.014-.09-.03-.18-.047-.273-.017-.104-.036-.207-.056-.317a.615.615 0 00-.024-.084c-.007-.013-.017-.023-.023-.036a.425.425 0 00-.05-.084l-.05-.06c-.023-.023-.05-.04-.077-.06-.013-.01-.023-.023-.036-.03a.617.617 0 01-.047-.02.047.047 0 00-.02-.006c-.007-.004-.01-.007-.017-.007a.588.588 0 00-.073-.017c-.02-.003-.037-.003-.057-.003a.567.567 0 00-.13.007c-.09.02-.183.04-.273.056v-2.06c0-.07-.01-.143-.014-.213-.003-.037-.003-.076-.006-.113a8.9 8.9 0 00-.05-.373v-.007a.876.876 0 00-.023-.09c-.007-.013-.017-.023-.024-.037-.013-.023-.027-.047-.043-.07-.017-.026-.04-.046-.063-.07a.314.314 0 00-.067-.05c-.014-.006-.023-.02-.037-.026a.497.497 0 00-.19-.06 1.096 1.096 0 00-.11-.007h-.01c-1.043.15-2.033.293-3.01.443 0-.11-.003-.22-.003-.333 1.066-.23 2.136-.464 3.23-.687a.503.503 0 00.397-.426c.153-1.197.24-2.277.26-3.31.003.17.01.336.01.51v-.004.004-2.037c0-.147 0-.29-.004-.433l-.01-.264c-.003-.117-.006-.233-.013-.347-.01-.173-.02-.346-.033-.52-.007-.11-.017-.22-.024-.326-.016-.19-.036-.38-.06-.57l-.03-.273a20.527 20.527 0 00-.127-.857v-.004c-.006-.03-.013-.06-.023-.086-.007-.013-.017-.023-.023-.037a.52.52 0 00-.044-.073.375.375 0 00-.06-.067.382.382 0 00-.07-.053c-.013-.007-.023-.02-.036-.027a.56.56 0 00-.09-.037c-.004 0-.004 0-.007-.003h-.003a.42.42 0 00-.093-.02c-.034-.003-.067-.007-.104-.007h-.007c-.986.127-2.013.274-3.096.437 1.58-.337 3.013-.713 4.127-1.103a.492.492 0 00.323-.42c.003.28.01.567.01.853v-2.036c0-.667-.02-1.327-.02-1.894v-.147c0-.026-.003-.05-.007-.076 0-.004 0-.004-.003-.007a.47.47 0 01-.01-.033c-.004-.017-.007-.033-.014-.047 0-.003-.003-.003-.003-.007a.516.516 0 00-.083-.136c-.007-.007-.01-.013-.017-.017a.586.586 0 00-.123-.097c-.004-.003-.007-.006-.01-.006a.149.149 0 00-.023-.01.2.2 0 00-.04-.017l-.024-.01c-.01-.003-.02-.003-.03-.007l-.03-.006c-.007 0-.01-.004-.017-.004a.502.502 0 00-.07-.006c-.026 0-.05.003-.076.006l-.047.01c-.107.027-.206.054-.313.08 0 0 .003 0 .003-.003a.505.505 0 00.163-.633c-.156-.32-.396-.834-.67-1.417 0-.01 0-.016-.003-.026l-.003-.014a.47.47 0 01-.01-.033l-.01-.044-.02-.046-.777-1.597c-.183-.39-.36-.757-.51-1.063a.503.503 0 00-.707-.21c-3.096 1.833-7 3.117-10.53 3.933a.498.498 0 00-.38.567c.09.553.304 2.026.397 2.58.017.093.157.4.344.75-.604.11-1.22.22-1.857.333a.501.501 0 00-.407.593c.117.544.643 2.454.807 2.83.08.18.257.294.453.294.294 0 .597-.017.9-.037-.013.014-.03.027-.043.043a.532.532 0 00-.057.094c-.006.016-.02.03-.023.046a.458.458 0 00-.03.164v.02a.503.503 0 00-.257.443c.057 2.334.997 6.114 1.473 7.45.054.153.27.317.48.397l.1.287c.08.223.31.363.547.326 1.404-.206 2.77-.46 4.123-.736l.04.193c-1.12.206-2.26.44-3.48.723a.318.318 0 00-.053.017c-.02.007-.04.02-.06.03l-.06.03a.429.429 0 00-.07.063c-.013.013-.03.027-.043.043a.418.418 0 00-.05.094c-.007.016-.017.03-.023.046a.532.532 0 00-.024.127h-.003c-.25.06-.42.3-.383.553.113.81.46 2.324.693 2.794.03.063.076.113.127.156-.257.07-.514.14-.77.207a.501.501 0 00-.367.537c.083.796.166 1.383.27 2.193.017.127.127.563.273 1.027.004.016.01.033.017.05.203.643.473 1.32.64 1.27 3.74-1.097 7.816-1.947 11.136-3.707.187-.09.3-.297.267-.51zm-11.316-11.91v-.01.01zm.233.4-.07-.356-.014-.07c.737-.107 1.454-.207 2.144-.307l.05.43c-.7.11-1.4.22-2.107.323 0-.007 0-.013-.003-.02zm2.383 2.74c-.24.037-.486.073-.743.107-.037.007-.077.01-.114.013-.27.037-.55.07-.836.1a14.55 14.55 0 01-.067-.29c.62-.09 1.233-.186 1.837-.293l.053.34c-.047.01-.09.016-.13.023zm3.597-3.927v-.123.123zm.007-.123c.513-.08.993-.16 1.436-.24.007.097.01.187.017.28-.483.1-.97.204-1.45.294 0-.11 0-.224-.004-.334zm.033 2.953c.49-.116.98-.243 1.473-.373-.003.1-.013.197-.02.293-.413.13-.89.274-1.45.424-.003-.117-.003-.23-.003-.344zm.03 3.347v-.05.05zm.056 3.814v-.034.034zm.017-.004v-.037a35.843 35.843 0 003.264-1.053c.13-.05.23-.15.283-.273.01.073.023.146.03.216.003.037.003.077.007.114.006.08.01.16.013.24-1.203.243-2.404.51-3.597.793z" fill="#006D67"/>
	<path d="m102.122 75.047c-.2-2.413-1.273-3.57-1.85-4.027-.01-.007-.017-.016-.027-.023-.09-.08-.183-.153-.28-.23-.01-.007-.02-.017-.03-.023a5.013 5.013 0 00-.34-.23c-.03-.02-.06-.037-.093-.057a7.828 7.828 0 00-.33-.187l-.04-.023c-.007-.004-.01-.007-.017-.007-.11-.056-.22-.11-.336-.163-.017-.007-.034-.013-.05-.023-.1-.044-.204-.09-.307-.13l-.133-.05a7.537 7.537 0 00-.25-.094c-.054-.017-.107-.037-.157-.053-.083-.027-.167-.057-.25-.08-.027-.007-.05-.017-.077-.023a16.883 16.883 0 00-.637-.177c-.003 0-.006-.004-.01-.004-.193-.05-.396-.096-.603-.14l-.146-.03c-.21-.043-.427-.086-.65-.123-.03-.007-.064-.01-.097-.017l-.623-.1c.37-.83.683-1.58.886-2.156a.496.496 0 00-.36-.65l-.686-.16a.399.399 0 00-.057-.023l-.037-.01-3.446-.794c-.014-.003-.027-.006-.04-.006a.535.535 0 00-.074-.007h-.003c-.027 0-.05.003-.077.007-.02.003-.04.01-.056.013a.043.043 0 01-.02.003c-.004 0-.007 0-.01.004-.04.013-.074.033-.11.053l-.027.02a.502.502 0 00-.077.07c-.01.01-.016.02-.023.03a.528.528 0 00-.067.12c-.946 2.56-2.55 8.02-3.03 9.673-.006.02-.006.04-.01.057-.17.606-.44 1.587-.493 1.92-.047.306.09.456.197.49.556.163.923.267.923.267l.287-.937 1.13.32a.5.5 0 00.543-.19c.45-.634.97-1.487 1.497-2.43.556.033 1.196.1 1.85.213 1.266.444 2.923 1.15 3.383 1.94.53.91-.103 4.087-1.07 7.49a102.95 102.95 0 00-2.363-1.463.503.503 0 00-.59.063c-1.834 1.677-4.964 4.26-5.797 4.967-.233.197-.233.6-.007.803l1.404 1.243a.52.52 0 00.526.087c.167-.067.344-.143.524-.22.116.047.25.053.373.004 1.763-.704 3.187-1.214 5.24-3.19-.86 2.726-1.813 5.306-2.437 6.69a.49.49 0 00.304.663c.18.053.703.22.703.22l.153-.32c.05.04.104.073.167.093l1.157.683a.496.496 0 00.58-.226c.753-1.313 3.676-6.757 5.203-11.85l.237.36c.006-.004 1.313-4.587 1.033-7.92zm-8.16-5.117v-.003.003zm.647-.93-.227-.03c.03-.07.063-.143.09-.213l.197.25c-.02-.004-.04-.004-.06-.007zm-6.067 15.41c.09 0 .18-.023.26-.076.543-.34 1.11-.704 1.68-1.09l.47.406c-.757-.013.21.123.327.123.09 0 .18-.023.26-.076 2.046-1.28 3.58-2.663 5.153-4.984.173-.253.12-.59-.14-.743l-3.47-2.236a.485.485 0 00-.25-.067.489.489 0 00-.367.163c-.563.617-1.23 1.364-1.893 2.107-1.42 1.576-3.16 3.553-3.88 4.37a.49.49 0 00.05.7l1.477 1.276c.096.08.206.127.323.127zm-15.822-4.98v-2.05 2.05zm12.996.28a.498.498 0 00-.596-.353l-.78.193c-.01-1.106-.017-2.21-.03-3.28.533.044.98.077 1.29.097.263.02.493-.17.526-.43l.464-3.293c.036-.274-.15-.554-.42-.594a32.08 32.08 0 00-1.914-.21c-.033-2.45-.07-4.373-.1-5.213a.504.504 0 00-.44-.483c-.863-.1-2.466-.374-3.353-.51a.502.502 0 00-.577.463 102.856 102.856 0 00-.233 5.517c-.733-.017-1.39-.027-1.917-.03.274-1.417.497-2.694.617-3.417a.503.503 0 00-.383-.573l-3.13-.69a.5.5 0 00-.597.37c-.653 2.79-.763 3.776-.943 5.1-.034.233-.024 5.513.203 5.57l2.033.483a.496.496 0 00.574-.277c.25-.55.53-1.533.806-2.687.687.127 1.677.254 2.764.374.046 1.743.14 3.397.26 4.973-.017.007-.037.01-.054.017v-.03c-.393.12-.786.243-1.176.367-.004 0-.007.003-.01.003-.387.123-.767.25-1.134.376h-.003c-.017.007-.033.014-.05.017-.12.04-.24.084-.357.127-.043.017-.09.033-.133.047-.093.033-.187.066-.277.1l-.136.05c-.094.033-.184.07-.274.103-.04.013-.076.03-.116.043l-.224.09c-.853.323-1.593.64-2.133.937a.495.495 0 00-.22.61c.003.01.01.023.013.037.004.01.004.02.007.03.147.39.373 1.023.607 1.66.196.54.396 1.08.553 1.476.02.05.05.09.09.127a.567.567 0 00.64.193c.847-.32 2.807-1.073 4.813-1.897.274 2.42.58 4.66.854 6.787.036.277.286.47.563.43a46.142 46.142 0 002.247-.403.483.483 0 00.4-.457c.036-1.83.043-4.83.03-8.143.586-.284 1.063-.54 1.356-.74a.43.43 0 00.11-.11c.057-.033.107-.067.154-.1a.494.494 0 00.206-.487c-.076-.496-.26-1.586-.47-2.36z" fill="#AF3300"/>
	<path d="m64.111 78.647c-.436-2.21-2.28-3.244-4.466-3.66.456-1.724.8-3.07.966-3.73a.497.497 0 00-.323-.594l-3.663-1.25a.496.496 0 00-.653.38c-.327 1.74-.657 3.42-.984 5.034-1.703.133-3.17.41-3.877.56a.496.496 0 00-.39.556l.577 4.174a.502.502 0 00.627.416 40.732 40.732 0 011.963-.48 336.603 336.603 0 01-3.05 12.884c-.083.317.16.623.517.62l2.08-.137a.512.512 0 00.406-.257c1.274-2.32 3.127-8.426 4.59-13.673 1.21.037 2.11.34 2.18 1.137.214 2.27-1.916 10.037-2.466 11.987a.499.499 0 00.313.606l1.927.683a.5.5 0 00.643-.313c.73-2.25 3.727-11.693 3.083-14.943zm-14.53 10.646a.505.505 0 00-.1.01c-1.32.267-2.61.554-3.886.854-.007-.35-.01-.703-.014-1.053a36.132 36.132 0 003.277-1.057.505.505 0 00.323-.427 4.137 4.137 0 00-.063-1.023c-.037-.247-.253-.423-.567-.417-1.043.15-2.033.293-3.01.444-.006-.45-.013-.9-.016-1.347 1.07-.234 2.146-.467 3.243-.694a.507.507 0 00.4-.426c.357-2.813.373-4.997-.033-7.413-.04-.244-.254-.417-.557-.414-1 .13-2.037.277-3.133.44v-1.013c1.593-.34 3.043-.72 4.16-1.11a.5.5 0 00.333-.464c.003-.76-.023-1.516-.02-2.146a.497.497 0 00-.627-.484c-1.326.344-2.58.657-3.82.947.007-.313.014-.623.017-.936a14.881 14.881 0 002.777-1.51.51.51 0 00.163-.634c-.407-.84-.693-1.427-1.287-2.636a.495.495 0 00-.446-.277.514.514 0 00-.257.07c-3.097 1.833-6.693 3.076-10.223 3.897a.495.495 0 00-.38.566c.09.553.16.963.253 1.517.04.24.25.416.513.416 1.69-.06 3.177-.143 4.547-.32 0 .26.007.527.01.794-1.92.397-3.92.77-6.177 1.166a.494.494 0 00-.406.59c.116.544.28 1.05.44 1.424a.488.488 0 00.453.297c1.767-.007 3.797-.177 5.81-.454.017.314.04.633.063.95l-4.906.827a.5.5 0 00-.42.5c.056 2.333 1.323 6.23 1.796 7.567.074.203.264.333.547.326a83.078 83.078 0 004.127-.733c.076.39.156.783.236 1.177-1.183.216-2.386.46-3.676.763a.498.498 0 00-.384.553c.114.81.284 1.233.52 1.7a.5.5 0 00.447.277c.03 0 .057-.003.087-.007a78.152 78.152 0 003.603-.713c.083.327.17.653.257.977-1.677.416-3.334.853-4.997 1.306a.501.501 0 00-.367.537c.084.796.167 1.386.267 2.193a.5.5 0 00.64.417c3.737-1.097 7.393-1.85 10.897-3.603a.509.509 0 00.27-.524c-.07-.48-.127-.83-.207-1.27a.51.51 0 00-.497-.397zm-10.34-9.363c.79-.113 1.557-.223 2.297-.327.047.474.103.95.167 1.43-.737.117-1.477.23-2.224.344-.113-.55-.206-1.063-.24-1.447zm.92 4.39c-.066-.293-.18-.753-.303-1.273.703-.103 1.39-.21 2.073-.33.067.443.137.886.21 1.333-.61.1-1.266.19-1.98.27zm5.294-5.29a68.739 68.739 0 001.776-.303c.034.456.064.88.084 1.276-.617.134-1.237.257-1.85.374-.007-.447-.007-.897-.01-1.347zm.026 2.954a59.75 59.75 0 001.877-.487c0 .463-.017.893-.053 1.306-.487.154-1.08.344-1.807.537-.007-.453-.013-.903-.017-1.356zm43.884 3.123c.09 0 .18-.023.26-.077 2.047-1.276 4.454-2.88 6.004-4.89a.505.505 0 00-.14-.743l-2.79-1.614a.494.494 0 00-.617.097c-1.487 1.633-3.723 4.174-4.563 5.124a.498.498 0 00.05.706l1.47 1.274c.093.083.21.123.326.123zm4.597-14.157c.387-.863.713-1.64.923-2.237a.497.497 0 00-.36-.65l-3.446-.793a.495.495 0 00-.58.31c-.947 2.56-2.55 8.023-3.03 9.674a.499.499 0 00.343.62l1.693.48a.497.497 0 00.543-.187c.487-.683 1.054-1.624 1.627-2.657.18-.007.364-.01.557-.01 1.713 0 3.847.337 4.733 1.867.6 1.033-.293 5.02-1.463 8.89a108.709 108.709 0 00-2.497-1.547.503.503 0 00-.59.067 181.902 181.902 0 01-4.553 4.003.504.504 0 00-.007.757l1.413 1.243a.507.507 0 00.517.087c1.78-.707 3.21-1.22 5.29-3.234-.76 2.374-1.573 4.564-2.136 5.814-.124.273.02.59.306.68l2.197.683a.496.496 0 00.583-.227c.937-1.633 4.857-8.733 5.65-14.53.804-5.906-.563-8.24-7.713-9.103zm-7.89 10.687a.494.494 0 00-.597-.353c-.263.063-.623.153-1.05.26-.013-1.1-.026-2.2-.043-3.267.376.026.7.05.97.07.246 0 .46-.18.493-.43l.467-3.293a.5.5 0 00-.423-.564c-.48-.073-1.017-.13-1.577-.18-.047-2.477-.09-4.42-.11-5.256a.495.495 0 00-.437-.48 129.71 129.71 0 01-3.516-.514c-.027-.003-.05-.006-.077-.006a.507.507 0 00-.5.47 94.556 94.556 0 00-.224 5.556c-.85-.013-1.606-.017-2.19-.02.294-1.486.53-2.82.647-3.493a.496.496 0 00-.383-.57l-3.207-.71a.494.494 0 00-.593.37c-.653 2.79-.947 7.843-1 10.197a.496.496 0 00.38.493l1.957.483c.04.01.08.013.12.013.193 0 .373-.11.453-.29.246-.546.526-1.533.806-2.69.727.14 1.844.284 3.05.41.057 1.754.16 3.414.29 4.997-2.09.637-4.193 1.364-5.376 2.01a.5.5 0 00-.224.614c.277.733.88 2.33 1.257 3.19a.49.49 0 00.634.263c.753-.284 2.393-.913 4.163-1.63.283 2.42.61 4.663.883 6.793a.499.499 0 00.494.437c.023 0 .046 0 .07-.007a51.508 51.508 0 002.246-.403.497.497 0 00.4-.46c.104-1.757.137-4.79.124-8.163.833-.387 1.51-.734 1.886-.99a.488.488 0 00.207-.487c-.077-.51-.26-1.6-.47-2.37zm80.663-15.277c.047 0 .09.007.137.02l4.296 1.197a.501.501 0 01.31.713c-.493.937-.99 1.86-1.49 2.773 3.69.04 7.484.21 11.28.517.29.023.5.293.457.583l-.343 2.127a.503.503 0 01-.447.42c-4.683.463-9.227.81-13.61 1.033-.71 1.21-1.417 2.374-2.1 3.487 1.53-.17 3.36-.307 5.297-.307 2.883 0 6.01.304 8.75 1.247a.498.498 0 01.316.597c-.883 3.316-2.916 5.95-5.203 7.983 1.897.84 3.617 1.7 4.707 2.433a.5.5 0 01.09.757c-.977 1.043-2.324 2.24-2.897 2.74a.5.5 0 01-.587.047 288.124 288.124 0 00-5.233-3.127c-2.42 1.453-4.573 2.287-5.403 2.58a.491.491 0 01-.58-.19l-1.294-1.91a.495.495 0 01.124-.683 100.79 100.79 0 002.943-2.22c-.973-.554-1.73-.977-2.173-1.227a.496.496 0 01-.18-.693 9.064 9.064 0 011.236-1.627.494.494 0 01.474-.127c.966.257 2.266.684 3.7 1.207 1.443-1.207 2.566-2.2 3.24-2.807a.498.498 0 00-.23-.856c-1.334-.277-2.727-.374-4.03-.374a31.11 31.11 0 00-5.557.524 207.798 207.798 0 01-4.893 7.29.497.497 0 01-.67.136l-2.024-1.26a.506.506 0 01-.19-.633c2.29-5.1 4.327-9.003 6.347-12.753-1.29.033-2.57.053-3.827.06-.22 0-.41-.14-.476-.347-.21-.66-.66-2.147-.934-3.553a.499.499 0 01.447-.594c2.367-.203 4.85-.343 7.42-.416.77-1.434 1.557-2.91 2.363-4.48a.476.476 0 01.437-.287zm48.4 21.15c-.673-.05-1.697-.07-2.923-.07-4.26 0-10.994.25-14.314.44a.499.499 0 00-.466.577c.343 2.07.853 3.897 1.693 6.22.07.19.247.32.443.333.91.053 2.07.077 3.34.077 3.737 0 8.43-.207 10.494-.47a.488.488 0 00.403-.33c.537-1.49 1.303-3.947 1.783-6.18a.496.496 0 00-.453-.597zm-4.243 5.607c-2.017.106-6.107.216-8.85.266-.1-.403-.184-.88-.257-1.363h.177c1.776 0 5.103-.046 9.186-.306a18.96 18.96 0 01-.256 1.403zm.453-2.724c-.25-.003-.53-.003-.837-.003-1.87 0-4.79.057-8.906.287-.06-.464-.104-.854-.144-1.1 1.28-.144 5.184-.37 7.91-.37.884 0 1.644.023 2.15.08-.056.32-.113.703-.173 1.106zm6.053-14.303c-.7-.033-1.653-.05-2.776-.05-5.9 0-16.48.403-19.637.523a.494.494 0 00-.48.507c.09 3.13.993 7.084 1.63 9.364.06.216.25.366.487.366 3.98-.076 15.013-.486 19.453-.743a.5.5 0 00.453-.374c.517-1.98 1.28-5.916 1.354-9.09a.504.504 0 00-.484-.503zm-3.896 8.19c-1.477.13-4.047.273-6.66.39l-.034-1.543c.294.123.824.233 1.454.233 1.623 0 3.93-.723 4.693-3.783-.377-.323-1.297-.603-2.347-.603-1.66 0-3.646.7-4.366 3.043-.89-2.293-2.76-2.947-4.32-2.947-.957 0-1.797.247-2.224.51.84 3.117 2.944 3.747 4.527 3.747.593 0 1.113-.09 1.463-.167 0 .584-.006 1.16-.01 1.57-2.553.107-4.996.177-6.326.177-.36-1.747-.784-4.513-.91-6.43 2.843-.12 11.413-.587 15.763-.587-.133 1.597-.5 5.114-.703 6.39zm-12.94-9.046c.38.006.99.016 1.776.016 1.97 0 5.07-.067 8.577-.453a.497.497 0 00.443-.453l.11-1.254a.498.498 0 00-.466-.543 68.673 68.673 0 00-3.757-.107c-2.197 0-4.837.117-6.877.57a.503.503 0 00-.396.53l.1 1.233c.02.257.233.457.49.46zm20.513-3.954c-2.773-1.686-11.593-4.326-16.7-4.936a.537.537 0 00-.103.01c-4.86.906-10.277 5.856-12.324 7.956-.196.2-.19.527.02.717l1.04.95a.491.491 0 00.604.05c1.46-.937 7.586-4.784 11.646-6.167a.516.516 0 01.314 0c2.61.85 7.946 2.59 12.296 5.227a.494.494 0 00.627-.09l2.687-2.95a.496.496 0 00-.107-.767z" fill="#fff"/>
	<path d="m174.968 33.473c-5.243-4.193-13.833-4.17-18.18 2.024-4.347 6.193-.187 19.376-.187 19.376l.207.674a1.338 1.338 0 001.73.866c.987-.353 1.597-.936 3.097-.936 2.256 0 2.94 1.126 5.146 1.126 2.207 0 3.304-.983 5.197-.983 1.39 0 1.99.517 3.257.79a1.337 1.337 0 001.593-1.06c.15-.797.11-.57.11-.57s3.173-17.193-1.97-21.307z" fill="#007A59"/>
	<path d="m139.828 51.737c-8.773.023-9.2 2.983-9.2 2.983l.164.55a1.335 1.335 0 001.78.863c.793-.323 1.45-.736 2.796-.736 2.217 0 3.047 1.083 5.16 1.083 2.114 0 2.744-.963 4.837-.963 1.227 0 1.847.283 2.56.543.71.26 1.497-.123 1.73-.843.233-.724.17-.537.17-.537s-2.417-2.963-9.997-2.943z" fill="#2E7A39"/>
	<path d="m113.661 51.883c-7.347.787-9.39 2.734-9.39 2.734s-.02-.094.163.666c.187.77.997 1.214 1.74.95.887-.316 1.68-.84 2.96-.84 2.08 0 2.404 1.2 5.07 1.2 2.667 0 3.674-1.33 5.164-1.33 1.007 0 2.373.86 3.726 1.13.654.13 1.304-.25 1.517-.88l.37-1.083c.004-.003-5.6-3.16-11.32-2.547z" fill="#007960"/>
	<path d="m75.964 53.823c.067.327.237 1.12.347 1.637.073.343.277.653.577.837 1.566.96 2.75-.75 4.623-.75 2.18 0 2.787 1.046 4.997 1.046 1.476 0 2.676-1.21 4.703-1.21 1.767 0 3.527 1.904 6.22 1 .403-.136.727-.446.86-.85.137-.413.293-.973.4-1.543.18-.96-23.05-1.74-22.727-.167z" fill="#037C3C"/>
	<path d="m167.132 18.206 2.473 1.084-1.406.757-1.067-.044v-1.797zm4.943 4.234-1.554.17v-1.793l1.644.123-.09 1.5zm-3.707 4.543-1.123.587v-1.793l1.013-.457.11 1.663zm3.798.064s-.317.2-.824.4c-.056-.574-.033-1.624.02-2.227.43.283.88.267.88.267l-.076 1.56zm9.042 2.116.42 1.004s.507-.88.257-3.184m.594-2.643v1.797l-.647-.92.647-.877zm2.489 1.093v-1.793l-.553-.293-.94.166 1.493 1.92zm-5.766-5.786v1.796l-1.04.447s-.063-1.25 0-1.28 1.04-.963 1.04-.963zm.643-2.647v1.797l-.993.426-.053-.666 1.046-1.557z" fill="#007A59"/>
	<path d="m167.132 18.206 2.473 1.084-1.406.757-1.067-.044v-1.797z" fill="url(#paint0_radial)"/>
	<path d="m172.075 22.44-1.554.17v-1.793l1.644.123-.09 1.5z" fill="url(#paint1_radial)"/>
	<path d="m168.368 26.983-1.123.587v-1.793l1.013-.457.11 1.663z" fill="url(#paint2_radial)"/>
	<path d="m172.166 27.047s-.317.2-.824.4c-.056-.574-.033-1.624.02-2.227.43.283.88.267.88.267l-.076 1.56z" fill="url(#paint3_radial)"/>
	<path d="m181.208 29.163.42 1.004s.507-.88.257-3.184" fill="url(#paint4_radial)"/>
	<path d="m182.479 24.34v1.797l-.647-.92.647-.877z" fill="url(#paint5_radial)"/>
	<path d="M184.968 25.433V23.64l-.553-.293-.94.166 1.493 1.92z" fill="url(#paint6_radial)"/>
	<path d="m179.202 19.647v1.796l-1.04.447s-.063-1.25 0-1.28 1.04-.963 1.04-.963z" fill="url(#paint7_radial)"/>
	<path d="M179.845 17v1.797l-.993.426-.053-.666L179.845 17z" fill="url(#paint8_radial)"/>
	<g fill="#007A59">
		<path d="m171.795 31.827 3.163 1.833s2.417-6.146 1.68-8.82c-.33-1.2-1.216-.653-1.41-.123 0 0 .08 3.357-3.433 7.11z"/>
		<path d="m167.132 20.003c.687.96 3.107 1.78 4.7 1.644-.573.143-1.213.666-1.307.966.704.174 1.837.437 2.704 1.357-1.13-.183-2.507.04-3.547.483-2.033.87-2.13 1.854-2.433 3.12 2.216.014 3.83-.816 4.31-1.136-.334.606-.184 1.236-.184 1.236 1.63-.216 3.207-.863 4.354-2.476.03-.044.103-.04.153-.024.043.014.377.087.39.13.49 1.597 1.487 3.44 2.367 3.934.22-.14.42-.477.456-.89.197.846 1.79 2.636 2.117 2.616 1.003-1.596.75-2.6.2-3.59-.267-.493-1-1.24-2.093-1.973 1.636.61 2.283.753 3.163.74 0-.303-.147-.697-.25-.917.133.044 2.74.334 2.74.217.01-1.567-1.543-2.3-2.88-2.49-1.447-.207-3.71-.05-4.547.543.687-.596 1.404-1.2 1.664-2.046a4.357 4.357 0 00-1.02-.01c1.033-.5 1.573-1.967 1.66-2.637-.48.003-1.19.117-1.63.353-1.404.787-2.07 2.297-2.55 3.77-.86-2.193-1.85-3.303-3.694-3.783-1.41-.37-3.483.34-4.843.863z"/>
		<path d="m171.795 31.827 3.163 1.833s2.417-6.146 1.68-8.82c-.33-1.2-1.216-.653-1.41-.123 0 0 .08 3.357-3.433 7.11z"/>
		<path d="m167.132 20.003c.687.96 3.107 1.78 4.7 1.644-.573.143-1.213.666-1.307.966.704.174 1.837.437 2.704 1.357-1.13-.183-2.507.04-3.547.483-2.033.87-2.13 1.854-2.433 3.12 2.216.014 3.83-.816 4.31-1.136-.334.606-.184 1.236-.184 1.236 1.63-.216 3.207-.863 4.354-2.476.03-.044.103-.04.153-.024.043.014.377.087.39.13.49 1.597 1.487 3.44 2.367 3.934.22-.14.42-.477.456-.89.197.846 1.79 2.636 2.117 2.616 1.003-1.596.75-2.6.2-3.59-.267-.493-1-1.24-2.093-1.973 1.636.61 2.283.753 3.163.74 0-.303-.147-.697-.25-.917.133.044 2.74.334 2.74.217.01-1.567-1.543-2.3-2.88-2.49-1.447-.207-3.71-.05-4.547.543.687-.596 1.404-1.2 1.664-2.046a4.357 4.357 0 00-1.02-.01c1.033-.5 1.573-1.967 1.66-2.637-.48.003-1.19.117-1.63.353-1.404.787-2.07 2.297-2.55 3.77-.86-2.193-1.85-3.303-3.694-3.783-1.41-.37-3.483.34-4.843.863z"/>
	</g>
	<path d="m174.967 31.68c-5.243-4.193-13.833-4.17-18.18 2.023-4.346 6.194-.866 18.797-.186 21.174 2.53.123 2.776-1.194 5.033-1.194s2.94 1.127 5.147 1.127c2.206 0 3.303-.983 5.196-.983 1.894 0 2.324.956 4.957.956 1.557-8.833 3.177-18.99-1.967-23.103z" fill="#00A57B"/>
	<path d="m151.808 34.504c-2.09-6.794-14.01-9.57-19.763-2.944-5.753 6.627-2.327 19.827-1.417 23.16 2.174 0 2.52-1.12 4.737-1.12s3.047 1.083 5.16 1.083 2.743-.963 4.837-.963c2.093 0 2.416.82 4.46.957 1.426-4.594 4.076-13.38 1.986-20.173z" fill="#42B053"/>
	<path d="m123.545 34.123c-4.047-4.653-13.86-4.863-18.177 1.134-4.316 5.996-1.773 16.13-1.096 19.356 2 .354 2.786-1.02 4.866-1.02s2.404 1.2 5.07 1.2c2.667 0 3.674-1.33 5.164-1.33 1.486 0 3.756 1.87 5.613.96 2.287-8.376 2.607-15.646-1.44-20.3z" fill="#009B7E"/>
	<path d="m99.778 34.747c-2.66-10.157-18.953-10.987-23.603-1.92-3.627 7.073-.364 20.023-.21 20.996 2.193 2.05 3.366-.073 5.546-.073s2.787 1.047 4.997 1.047c1.477 0 2.677-1.21 4.703-1.21 2.027 0 4.044 2.506 7.48.403.567-3.14 2.747-12.897 1.087-19.243z" fill="#00A63C"/>
	<path d="m171.795 30.033 3.163 1.834s2.417-6.147 1.68-8.82c-.33-1.2-1.216-.654-1.41-.124 0 0 .08 3.357-3.433 7.11z" fill="#00A57B"/>
	<path d="m167.132 18.207c.687.96 3.107 1.78 4.7 1.643-.573.143-1.213.667-1.307.967.704.173 1.837.436 2.704 1.356-1.13-.183-2.507.04-3.547.484-2.033.87-2.13 1.853-2.433 3.12 2.216.013 3.83-.817 4.31-1.137-.334.607-.184 1.237-.184 1.237 1.63-.217 3.207-.864 4.354-2.477.03-.043.103-.04.153-.023.043.013.377.086.39.13.49 1.596 1.487 3.44 2.367 3.933.22-.14.42-.477.456-.89.197.847 1.79 2.637 2.117 2.617 1.003-1.597.75-2.6.2-3.59-.267-.494-1-1.24-2.093-1.974 1.636.61 2.283.754 3.163.74 0-.303-.147-.696-.25-.916.133.043 2.74.333 2.74.216.01-1.566-1.543-2.3-2.88-2.49-1.447-.206-3.71-.05-4.547.544.687-.597 1.404-1.2 1.664-2.047a4.351 4.351 0 00-1.02-.01c1.033-.5 1.573-1.967 1.66-2.637-.48.004-1.19.117-1.63.354-1.404.786-2.07 2.296-2.55 3.77-.86-2.194-1.85-3.304-3.694-3.784-1.41-.37-3.483.344-4.843.864z" fill="#00A57B"/>
	<path d="m122.721 41.05c-3.15-2.317-6.067-4.103-8.217-5.377 0 0-4.017 2.61-7.923 5.1-.634-.193-.83-.58-.844-.606v1.14c.017.036.364.713 1.637.713.37 0 .82-.063 1.353-.22 1.314-.38 3.167-1.327 5.764-3.363 0 0 .8.63 1.956 1.376 1.654 1.084 4.037 2.4 5.87 2.4.407 0 .78-.066 1.11-.22.017-.006.034-.02.05-.03.027-.013.05-.03.074-.043.063-.037.13-.067.19-.11v-1.14c-.297.213-.64.333-1.02.38zm-3.507 2.277v-1.14c0 .223-.007.43-.013.603a6.273 6.273 0 00-.05-.57c-1.767-.48-6.904-.5-9.047-.463a10.21 10.21 0 00-.147 1.07h-.046v-.087 1.227c2.956.063 8.943.436 9.26.456.003-.036.043-.52.043-1.096zm.767 1.433c0 .127-.007.263-.014.407-.003.036-.003.073-.006.11-.007.133-.017.27-.03.41 0 .016-.004.03-.004.046l-.01.114c-2.35-.614-9.3-.837-10.753-.574-.017.224-.027.48-.033.757a35.42 35.42 0 01-.007-.64v1.14c0 1.727.157 4.057.313 5.333 1.424.147 4.694.414 7.29.414.814 0 1.557-.027 2.164-.09.023-.077.05-.157.073-.237a.495.495 0 00.017-.063c.03-.097.056-.197.086-.297a19.014 19.014 0 00.154-.58c0-.003 0-.007.003-.01.037-.15.073-.3.107-.45l.033-.15.07-.32c.013-.06.023-.117.037-.177l.06-.303c.013-.06.023-.12.033-.18.02-.103.037-.207.057-.31l.03-.163c.023-.13.043-.26.063-.387.003-.027.01-.053.013-.08.024-.153.047-.307.067-.457l.003-.023c.004-.02.004-.04.007-.06.02-.153.04-.3.057-.45a39.348 39.348 0 00.06-.617c0-.016.003-.03.003-.046l.02-.274c.003-.03.003-.06.007-.09 0-.016.003-.033.003-.046.003-.037.003-.074.007-.11v-.034c.006-.143.013-.28.013-.41v-1.103h.007zm-3.017 5.587a152.42 152.42 0 01-5.347-.264c-.05-.763-.06-2.353-.05-3.023.517-.013 1-.02 1.46-.02 1.6 0 2.904.087 4.277.307-.007 1.073-.21 2.396-.34 3z" fill="#007960"/>
	<path d="m140.571 47.91c-.014-.47-.03-1.06-.054-1.72.737-.373 1.377-.727 1.577-.917l-.003-.016v-1.117a1.752 1.752 0 01-.207.157l-.13-.61c-.227-.01-.717.1-1.31.276v-1.126c-.013.003-.027.006-.037.01-.013-.414-.03-.827-.043-1.234.737-.053 1.29-.103 1.29-.103l.09-2.037h-.003v-1.133l-.05 1.13c-.42-.03-.907-.03-1.407-.017v-1.133c-.013 0-.027 0-.04.003l-.053-1.463c-.29-.003-1.914.047-2.174.057a68.37 68.37 0 01-.04-1.13v1.116c.024.914.064 1.817.114 2.687v.017c-.734.073-1.26.14-1.304.146l-.01-1.13v1.13l.014 1.88v.047c.233.063.786.073 1.44.053.08 1.05.173 2.034.266 2.92-.506.204-.99.42-1.38.627a73.03 73.03 0 01-.306-.963v1.116l.003.014s-.003 0-.003.003c0 0 .546 1.76.733 2.16 0 0 .53-.24 1.227-.57l.006.05c.167 1.327.294 2.117.294 2.117.42.01 1.51-.167 1.51-.167v-1.197.067c.01-.003 0 0-.01 0zm8.986-11.527c-.013.117-.03.227-.043.337l-.01.077c-.017.123-.037.24-.053.35l-.01.056c-.017.097-.034.187-.047.277-.523-.113-1.337-.233-2.253-.343v-.28c-.02-.2-.054-.507-.094-.864v.86h-.03l-.346-3.146c-.507-.08-1.69.18-2.12.28a43.338 43.338 0 01-.164-1.094v1.117c0 .003 0 .01.004.013h-.004c.15 1.077.334 2.134.474 2.88-1.03-.09-2.017-.15-2.734-.166l-.063 1.073c-.03-.003-.053-.01-.067-.01v1.117h.004v.016s4.503.704 6.536.85c0 .04 0 .084-.003.13 0 .014 0 .027-.003.04-.004.064-.007.134-.014.21l-.003.044-.02.236c0 .01 0 .017-.003.027l-.03.283c0 .01-.004.024-.004.034-1.263-.334-2.133-.17-2.133-.17s-.43 4.866-.577 8.1v-1.13l-.03.663c-.006.163-.01.317-.013.467-.34.01-.687.026-1.033.043.076-1.623.213-4.813.193-6.813v-.754c0 .17 0 .347-.003.527-.01-.613-.037-1.093-.087-1.343-.76-.087-1.943.086-2.17.12-.03-.654-.04-1.06-.043-1.12v1.116a138.38 138.38 0 00.543 8.364c-.747.053-1.43.11-1.977.173l-.096-1.12v1.117l.093 1.093.097 1.113s6.196.084 7.73-.123c0 0 .01-.14.01-.407v-1.126c0 .246-.01.383-.01.4h-.01a21.92 21.92 0 00-.11-1.244c-.38-.03-.857-.04-1.387-.043.39-2.34 1.097-6.737 1.09-7.83v-1.07c.227.017.427.027.583.027 0 0 .277-.91.437-2.294h-.003c0-.006 0-.01.003-.016v-1.124h.003zm-13.313 1.414c-2.01-.064-3.2.053-4.993.466-.007.047-.01.1-.014.157-.01-.237-.016-.453-.016-.647v1.127c0 .06 0 .123.003.183v.054c.05 2.65.907 8.73 1.197 9.553 1.733.047 4.156-.637 4.156-.637v-1.133c-.003 0-.016.007-.03.007-.063-2.407-.22-7.94-.303-9.13zm-2.483 8.946c-.337-2.31-.52-5.023-.62-7.04.43-.07.993-.14 1.46-.18.183 2.247.39 5.36.39 7.077-.287.04-.957.1-1.23.143z" fill="#2E7A39"/>
	<path d="m166.571 47.773c-.006.037-.016.08-.03.127-.003.017-.01.033-.013.05-.01.033-.017.063-.027.1l-.02.067-.03.103c-.006.027-.016.05-.023.077-.01.036-.023.07-.033.106-.014.04-.024.08-.037.12l-.01.034c-.017.056-.037.11-.053.166l-.017.047c-.003.013-.01.027-.013.04-.53-.167-1.624-.483-2.524-.587 0 0-.176.697-.32 1.404l-.146-.037v.89c-.01.09-.02.173-.027.247 0 0 1.81.463 2.57.533 0 0 .643-1.79.763-2.35 0 0-.006-.003-.01-.003v-1.134zm3.697-11.976v-1.114c-.007.03-.027.097-.05.184-.003.01-.003.016-.007.026l-.166.607a1.273 1.273 0 01-.024.083l-.03.11c-1.023-.333-3.54-.883-3.54-.883-.63 2.083-1.64 8.013-2.043 10.447a1.473 1.473 0 01-.157-.074v1.03l-.016.11c.153.08.403.17.693.257.537.163 1.207.32 1.623.41.21.047.354.077.38.08 0 0 0-.003.004-.003.006 0 .013.003.013.003.507-.76 3.367-11.253 3.367-11.253-.01-.007-.03-.014-.047-.02z" fill="#007A59"/>
	<path d="M94.474 50.077c-1.076-.754-2.313-1.75-2.826-2.17 2.09-.187 3.72-.34 4.06-.404 0 0 .003-.013.006-.04 0-.006.004-.013.004-.023l.006-.037c.004-.013.004-.033.007-.05 0-.01.003-.016.003-.023.007-.043.01-.097.014-.157 0-.013 0-.026.003-.04.003-.066.007-.136.007-.22v-1.13c0 .08-.004.154-.007.22 0 .014 0 .027-.003.04-.004.06-.01.114-.014.157 0 .01-.003.017-.003.023-.003.037-.01.064-.013.087 0 .007-.004.013-.004.02a4.583 4.583 0 00-.13-.66s-2.956.2-6.343.437l-.107-1.124v1.13h-.003a58.36 58.36 0 00-.13-1.22h.007l3.63-.29 1.696-.133a8.432 8.432 0 00.044-.837v-1.13c0 .237-.01.447-.02.594a4.9 4.9 0 00-.067-.54c-.83-.034-2.7.096-4.75.276v-.91c2.35-.17 4.213-.293 4.31-.3 0-.013.003-.086.003-.213v-1.13c0 .123-.003.2-.003.213-.007 0-.03.004-.063.004a6.253 6.253 0 00-.1-.56c-.447-.047-2.17.063-4.154.22v-.214c0-.193-.003-.396-.003-.6 2.437-.163 4.37-.286 4.473-.29v-1.13l-.093.007c-.03-.2-.067-.397-.117-.563-.316-.06-2.143.053-4.276.216l-.01-.913c2.94-.217 5.423-.383 5.553-.393v-.004s0-.023.003-.066c0-.06.004-.15.004-.27v-1.13c0 .19-.004.32-.007.34h-.023a5.042 5.042 0 00-.114-.794c-.293-.143-2.753.024-5.456.26-.014-.42-.027-.803-.044-1.123v1.127h-.003c-.023-.454-.05-.794-.083-.96 0 0-1.157-.257-2.487.22l-.01-.154-.057-.946V33.9c-.003 0-.006.003-.01.003l.06.95c-1.703.164-3.246.324-4.136.417l-.05-.38h-.007l.08-.163c.013-.03.03-.06.043-.09l.087-.187.03-.067c.037-.083.07-.163.103-.243.007-.013.01-.027.017-.04.027-.063.05-.127.073-.187.01-.023.02-.05.027-.073.02-.047.037-.097.053-.14.01-.023.017-.047.027-.07.017-.047.03-.09.047-.13l.02-.057c.043-.126.076-.236.103-.33l.01-.036c.027-.094.047-.164.057-.207 0-.007.003-.007.003-.013a.13.13 0 01.01-.037v-1.13a.15.15 0 01-.01.037l-.003.013-.024.087-.033.12a2.788 2.788 0 01-.06.2c-.017.05-.033.106-.053.163a1.01 1.01 0 00-.02.057c-.014.043-.03.083-.047.13-.01.023-.017.046-.027.07-.016.043-.033.09-.053.14-.003.003-.003.01-.007.013l-2.22-.637c-.696 1.537-2.28 4.344-3.21 5.96-.226.047-.46.09-.703.114v1.103l-.017.027c.007 0 .01 0 .017-.004v.004a6.206 6.206 0 003.333-1.367c.39 2.107 1.194 6.39 1.497 7.543h.013l4.714-.373c.023.31.06.72.1 1.197-3.064.216-5.957.43-6.91.52a6.898 6.898 0 01-.077-.98v.99h-.01s-.04 1.16.32 2.08h.013c.1-.01 2.004-.164 4.584-.38a23.508 23.508 0 01-2.324 2.276c-.026 0-.053.004-.08.004a8.106 8.106 0 01-1.293-.094v1.124c-.003.003-.007.006-.013.006a7.526 7.526 0 00.243.034c.02.003.043.003.067.006.043.004.086.01.136.014.014 0 .024.003.037.003.06.007.123.01.193.013.014 0 .027.004.04.004a37.234 37.234 0 00.267.013c.103.003.21.007.32.007.067 0 .133-.004.203-.004.034 0 .064 0 .097-.003.08-.003.163-.01.247-.013.033-.004.066-.004.103-.007.083-.007.167-.017.253-.027.037-.003.074-.01.107-.013.087-.01.17-.027.253-.04l.107-.02a3.5 3.5 0 00.257-.06l.096-.027c.087-.023.174-.05.26-.083.024-.01.047-.02.074-.027.09-.033.18-.07.266-.113l.017-.01c.203-.1.397-.22.563-.367.787-.696 1.434-1.5 1.84-2.046.167 1.63.36 3.16.52 3.53a2.317 2.317 0 00.243.023c.014 0 .027.003.044.003.023 0 .043.004.067.004.056.003.116.003.186.003h.024c.093 0 .196-.003.31-.01.02 0 .036-.003.056-.003.107-.007.217-.017.337-.03l.083-.01c.117-.014.237-.034.364-.057.033-.007.063-.01.096-.017.134-.026.27-.06.41-.1.02-.006.04-.01.06-.013v-1.13c-.033.01-.06.013-.093.023-.057-.696-.133-1.643-.22-2.62.52.617 1.3 1.457 2.137 2.047.013.01.03.017.043.027.073.05.15.096.23.136.027.014.057.027.087.04.07.034.143.064.22.094l.09.03c.08.026.163.05.246.073l.077.02a4.89 4.89 0 00.793.11c.074.003.144.01.217.01l.143.003h.077c.067 0 .13 0 .193-.003h.027c1.08-.03 1.973-.263 2.027-.277v-1.13c-.05 0-.67.16-1.494.234zM83.148 39.803c.04 0 .083-.003.123-.006v.91h-.013l-.12-.904h.01zm4.023.55c-1.443.124-2.81.25-3.75.34l-.12-.9c1.05-.086 2.413-.186 3.817-.283l.053.843zm-3.673 2.027c1.04-.087 2.393-.19 3.783-.293l.06.946c-1.383.134-2.71.27-3.713.374l-.137-1.027h.007zm3.513-4.6c-1.527.127-2.973.253-3.937.34l-.123-.933c1.043-.097 2.48-.214 4.003-.33l.057.923zm-4.213-.58l.126-.01v.943h-.01l-.126-.936c.006 0 .01 0 .01.003zm6.733 5.63v-.91h.007v.003h.003v.907h-.01zm-.007-2.673c0-.267-.003-.54-.006-.814h.003v.004h.007v.813c0-.003-.004-.003-.004-.003zm-.036-3.49h.016v.913h-.006c-.004-.313-.01-.62-.017-.917a.01.01 0 00.007.004z" fill="#037C3C"/>
	<g fill="#FF0">
		<path d="m109.444 50.653c-.203-1.606-.396-4.896-.28-6.506 1.467-.267 8.53-.037 10.817.586-.013 1.54-.46 4.294-1.09 6.24-2.53.267-7.583-.13-9.447-.32zm2.174-1.7c2.23.147 4.166.23 5.346.264.134-.614.34-1.964.34-3.047-1.766-.28-3.413-.343-5.736-.283-.007.643 0 2.29.05 3.066zm-1.513-8.326c2.14-.037 7.28-.017 9.046.463.124.896.02 2.183.02 2.183s-6.3-.397-9.256-.457c-.004 0-.02-1.13.19-2.19z"/>
		<path d="m114.505 34.543s-4.617 3-8.764 5.637c0 0 1.464 2.85 8.75-2.87 0 0 6.637 5.23 9.247 3.37-3.537-2.694-6.853-4.727-9.233-6.137zm17.916 13.014c-.327-.934-1.394-8.664-1.167-10.427 1.793-.413 2.983-.53 4.993-.467.107 1.534.334 10.254.334 10.254s-2.424.686-4.16.64zm.72-8.987c.1 2.02.283 4.73.62 7.04.273-.04.946-.103 1.23-.147 0-1.716-.207-4.83-.39-7.076a22.57 22.57 0 00-1.46.183zm4.846-2.78s1.894-.06 2.21-.057c0 0 .42 11.494.397 12.174 0 0-1.09.176-1.51.166-.003 0-.923-5.79-1.097-12.283z"/>
		<path d="m136.787 38.623s3.143-.423 4.957-.28l-.09 2.037s-4.104.377-4.854.167l-.013-1.924zm.033 5.69s.547 1.76.734 2.16c0 0 3.983-1.803 4.54-2.33l-.34-1.586c-.674-.034-3.63.993-4.934 1.756zm5.304-8.71-.127 2.197s5.573.873 7.12.877c0 0 .277-.91.437-2.294-1.357-.33-5.434-.733-7.43-.78zm-1.087 12.297.19 2.193s6.197.084 7.73-.123c0 0 .06-.867-.123-2.373-1.824-.14-5.817.073-7.797.303z"/>
		<path d="m142.567 39.367s.147 4.756.654 9.413l1.403-.137s.43-8.05.157-9.403c-.847-.097-2.214.127-2.214.127zm3.757.113s-.563 6.36-.62 9.367l1.49.183s1.38-7.98 1.34-9.36c-1.307-.36-2.21-.19-2.21-.19zm-1.94-6.59s1.656-.42 2.283-.32c0 0 .37 3.333.47 4.283 0 0-1.557-.066-2.077-.05 0 .004-.403-1.93-.676-3.913zm22.071.79s3.237.71 3.863 1.007c0 0-2.86 10.493-3.366 11.253 0 0-2.12-.43-2.714-.747 0 0 1.417-8.863 2.217-11.513zm-2.714 13.417s-.443 1.726-.493 2.503c0 0 1.81.463 2.57.533 0 0 .643-1.79.763-2.35 0 0-1.606-.546-2.84-.686zm-82.867-16.147 2.544.73s-1.414 5.983-6.474 6.473c0 0 2.91-4.956 3.93-7.203z"/>
		<path d="m81.897 34.223s12.337-1.333 13.024-1.003c.18.72.136 1.917.136 1.917s-10.22.696-13.04 1l-.12-1.914zm0 2.87s11.077-1.013 11.897-.86c.184.62.207 1.687.207 1.687s-9.417.59-11.99.857l-.114-1.684zm.271 2.587s10.327-1 11.517-.873c.203.88.16 1.683.16 1.683s-8.99.61-11.564.873l-.113-1.683z"/>
		<path d="m94.284 41.423c-1.68-.07-7.633.544-10.663.853l-.99-7.386s-.977-.294-2.557.713c0 0 1.31 7.183 1.713 8.73l12.54-.996s.117-1.057-.043-1.914zm-14.664 4.26s-.04 1.16.32 2.08c0 0 14.667-1.2 15.767-1.393 0 0 .164-.797-.12-1.837-.003.003-13.933.947-15.966 1.15z"/>
		<path d="m86.47 43.367s.547 7.226.924 8.093c0 0 1.02.146 2.273-.214 0 0-.543-6.943-.756-8.09l-2.44.21z"/>
		<path d="m85.158 46.66s-2.067 2.587-4.334 4.043c0 0 2.85.474 4.2-.723s2.297-2.71 2.297-2.71l-2.163-.61zm6.242-.087s3.39 2.824 4.56 3.257c0 0-2.98.783-4.462-.263-1.48-1.044-2.787-2.867-2.787-2.867l2.69-.127zm-4.63-13.8.647 10.43 2.11-.226s.037-9.294-.193-10.45c0 0-1.2-.27-2.564.246z"/>
	</g>
	<defs>
		<radialGradient id="paint0_radial" cx="0" cy="0" r="1" gradientTransform="translate(168.368 19.127) scale(1.091)" gradientUnits="userSpaceOnUse">
			<stop stop-color="#007A59" offset="0"/>
			<stop stop-color="#007A59" offset=".746"/>
		</radialGradient>
		<radialGradient id="paint1_radial" cx="0" cy="0" r="1" gradientTransform="matrix(.8605 0 0 .8605 171.344 21.713)" gradientUnits="userSpaceOnUse">
			<stop stop-color="#007A59" offset="0"/>
			<stop stop-color="#007A59" offset=".746"/>
		</radialGradient>
		<radialGradient id="paint2_radial" cx="0" cy="0" r="1" gradientTransform="matrix(.8893 0 0 .8893 167.807 26.445)" gradientUnits="userSpaceOnUse">
			<stop stop-color="#007A59" offset="0"/>
			<stop stop-color="#007A59" offset=".746"/>
		</radialGradient>
		<radialGradient id="paint3_radial" cx="0" cy="0" r="1" gradientTransform="translate(171.776 26.331) scale(.85409)" gradientUnits="userSpaceOnUse">
			<stop stop-color="#007A59" offset="0"/>
			<stop stop-color="#007A59" offset=".746"/>
		</radialGradient>
		<radialGradient id="paint4_radial" cx="0" cy="0" r="1" gradientTransform="translate(181.579 28.573) scale(1.156)" gradientUnits="userSpaceOnUse">
			<stop stop-color="#007A59" offset="0"/>
			<stop stop-color="#007A59" offset=".746"/>
		</radialGradient>
		<radialGradient id="paint5_radial" cx="0" cy="0" r="1" gradientTransform="translate(182.154 25.238) scale(.6746)" gradientUnits="userSpaceOnUse">
			<stop stop-color="#007A59" offset="0"/>
			<stop stop-color="#007A59" offset=".746"/>
		</radialGradient>
		<radialGradient id="paint6_radial" cx="0" cy="0" r="1" gradientTransform="matrix(.90712 0 0 .90712 184.222 24.39)" gradientUnits="userSpaceOnUse">
			<stop stop-color="#007A59" offset="0"/>
			<stop stop-color="#007A59" offset=".746"/>
		</radialGradient>
		<radialGradient id="paint7_radial" cx="0" cy="0" r="1" gradientTransform="matrix(.87816 0 0 .87816 178.67 20.767)" gradientUnits="userSpaceOnUse">
			<stop stop-color="#007A59" offset="0"/>
			<stop stop-color="#007A59" offset=".746"/>
		</radialGradient>
		<radialGradient id="paint8_radial" cx="0" cy="0" r="1" gradientTransform="matrix(.86823 0 0 .86823 179.323 18.11)" gradientUnits="userSpaceOnUse">
			<stop stop-color="#007A59" offset="0"/>
			<stop stop-color="#007A59" offset=".746"/>
		</radialGradient>
	</defs>
</svg>
