<svg viewBox="0 0 128 32" xmlns="http://www.w3.org/2000/svg">
	<path d="m64.953 17.437c0 1.004-.307 2.834-2.358 2.834s-2.397-1.815-2.397-2.814v-8.93h-2.917a.611.611 0 00-.603.619v8.762c0 1.693.642 5.516 5.84 5.516s5.953-4.388 5.953-5.48v-9.417h-3.518v8.91zm31.845 4.522v.732c0 .337.273.611.609.611h8.875v-3.054h-5.35a.61.61 0 01-.608-.611v-2.5l4.742-.003a.613.613 0 00.608-.608v-2.45h-4.811a.614.614 0 01-.539-.605v-1.891h5.956v-3.053h-9.482v13.433zm-21.278-13.432h-3.525v14.164c0 .337.273.611.608.611h8.268v-3.054h-5.35v-11.72zm-31.363 0a.61.61 0 00-.608.611v14.164h3.526v-4.763a.61.61 0 01.608-.61h4.134a.61.61 0 00.608-.611v-2.434h-5.35v-2.694a.61.61 0 01.608-.61h5.35v-3.054h-8.876zm43.766 0h-3.526v14.164c0 .337.274.611.609.611h8.267v-3.054h-5.35v-11.72zm29.948 8.653a4.7 4.7 0 002.146-3.952c0-2.596-2.095-4.7-4.68-4.7h-5.53v14.162c0 .337.273.611.608.611h.729c.026 0 .049-.003.075-.005v.005h2.113v-5.374h1.193l3.317 5.374h4.157l-4.128-6.122zm-3.08-2.303h-1.459v-3.298h1.459c.907 0 1.642.738 1.642 1.649s-.735 1.649-1.642 1.649zm-94.514-.449c.376-.218.956-.166 1.286.121l2.34 2.02a.792.792 0 001.116-.086l1.78-2.081a.8.8 0 00-.085-1.121l-2.925-2.526c-.33-.285-.667-.87-.747-1.3l-.714-3.807a.795.795 0 00-.925-.634l-2.683.51a.798.798 0 00-.631.929l.572 3.046c.08.43-.163.96-.539 1.178l-2.94 1.706c-.377.217-.995.217-1.372 0l-2.94-1.706c-.376-.217-.619-.748-.539-1.178l.57-3.049a.8.8 0 00-.632-.93l-2.683-.506a.796.796 0 00-.925.634l-.714 3.807c-.08.43-.417 1.015-.747 1.3l-2.925 2.525a.8.8 0 00-.085 1.12l1.78 2.082a.792.792 0 001.117.085l2.34-2.019c.33-.284.91-.339 1.286-.121l2.94 1.705c.377.218.686.756.686 1.194v3.409c0 .437-.335.913-.748 1.058l-2.911 1.027a.8.8 0 00-.484 1.015l.904 2.588a.794.794 0 001.01.487l3.642-1.284c.41-.145 1.083-.145 1.495 0l3.641 1.284a.795.795 0 001.01-.487l.905-2.588a.8.8 0 00-.484-1.015l-2.912-1.025c-.41-.145-.748-.621-.748-1.058v-3.412c0-.437.31-.973.686-1.193l2.933-1.703z"/>
</svg>
