<svg viewBox="0 0 72 72" xmlns="http://www.w3.org/2000/svg">
	<path d="m33.598 22.372c4.208-2.895 2.203-6.067-.553-8.05-1.969-1.417-6.63-1.883-7.369 4.308-.921-.128-2.465-.075-4.014.06-1.552.1-3.086.275-3.978.544-1.663-6.013-6.196-4.848-7.933-3.15-2.423 2.375-3.931 5.813.668 8.04-2.792 3.973-3.354 8.842-2.479 11.573 2.327 7.286 7.896 8.54 15.62 8.09 7.704-.716 13.02-2.794 14.229-10.348.455-2.83-.834-7.56-4.191-11.067z" fill="#EEB04B"/>
	<path d="m34.32 24.706c-.828-1.107-3.158-3.84-8.532-5-1.353-.29-2.728-.325-4.101-.19-1.374.073-2.728.314-4.026.805-5.138 1.959-7.031 5.007-7.683 6.226-.652 1.22-1.95 4.575-1.582 7.317.324 2.398 1.396 3.914 3.126 4.493.974.327 2.025.438 3.396.028 3.068-.916 4.04-6.217 7.705-6.494 3.669-.277 5.423 4.817 8.593 5.261 1.417.2 2.44-.069 3.354-.538 1.623-.833 2.455-2.492 2.414-4.912-.048-2.767-1.836-5.888-2.664-6.996z" fill="#A48255"/>
	<path d="M31.034 34.403c-2.018.152-3.961-1.91-4.52-4.8-.277-1.44-.165-2.87.316-4.027.506-1.213 1.353-1.987 2.388-2.189 2.111-.41 4.243 1.72 4.831 4.757.278 1.44.165 2.87-.316 4.028-.506 1.212-1.352 1.987-2.388 2.188a2.218 2.218 0 01-.31.043zM29.59 24.088a1.561 1.561 0 00-.226.032c-.781.153-1.437.77-1.842 1.743-.428 1.024-.525 2.302-.274 3.6.503 2.59 2.273 4.49 3.957 4.168.781-.153 1.437-.77 1.842-1.744.428-1.023.525-2.301.274-3.598-.479-2.477-2.118-4.323-3.731-4.2z" fill="#AA9387"/>
	<path d="m33.688 28.216c.547 2.83-.532 5.417-2.412 5.78-1.879.362-3.847-1.635-4.393-4.461-.547-2.83.532-5.417 2.411-5.78 1.88-.366 3.844 1.631 4.394 4.461z" fill="#fff"/>
	<path d="m32.568 27.688c.381 1.882-.397 3.604-1.739 3.855-1.338.247-2.732-1.072-3.113-2.954-.382-1.878.396-3.604 1.738-3.855 1.339-.247 2.732 1.072 3.114 2.954z" fill="#A48255"/>
	<path d="m15.13 35.606a2.929 2.929 0 01-.313.005c-1.054-.044-2.01-.682-2.69-1.805-.653-1.072-.98-2.472-.918-3.934.125-3.09 1.908-5.517 4.06-5.43 1.055.044 2.011.682 2.69 1.805.654 1.072.98 2.472.92 3.934-.119 2.94-1.73 5.272-3.748 5.425zm-.12-10.416c-1.614.122-2.957 2.19-3.058 4.71-.053 1.32.236 2.57.812 3.517.547.9 1.289 1.413 2.084 1.446 1.713.065 3.178-2.076 3.285-4.716.053-1.32-.236-2.57-.812-3.517-.547-.9-1.289-1.413-2.084-1.446-.075-.002-.153 0-.227.006z" fill="#AA9387"/>
	<path d="m11.58 29.888c-.115 2.88 1.341 5.275 3.254 5.351 1.912.076 3.558-2.194 3.673-5.07.115-2.88-1.341-5.276-3.254-5.352-1.912-.08-3.558 2.191-3.673 5.071z" fill="#fff"/>
	<path d="m12.642 29.195c-.094 1.917.934 3.503 2.299 3.55 1.36.042 2.54-1.471 2.633-3.389.095-1.914-.934-3.504-2.298-3.55-1.36-.043-2.54 1.47-2.634 3.389zm23.374-9.948c.314-1.875-1.15-3.649-2.926-4.928-1.46-1.048-4.39-1.574-6.114.736 1.453 2.058 6.158 4.256 9.04 4.192zm-19.912-3.205c-2.064-2.226-4.992-1.25-6.308.04-1.532 1.502-2.698 3.43-2.182 5.208 2.725-.157 7.101-2.949 8.49-5.248z" fill="#A48255"/>
	<g fill="#E79591">
		<path d="m30.002 15.312c-2.802.522-2.683 3.631-2.683 3.631s3.261.756 5.487 2.745c0 0 .007 0 .022-.006 3.29-3.21-.054-6.886-2.826-6.37z"/>
		<path d="m34.697 18.718c.176-2.627-3.964-5.36-6.254-3.352a3.485 3.485 0 00-1.127 1.959c-.03.338-.058.659-.077.91.01.422.083.7.083.7s-.119-3.108 2.683-3.63c2.776-.517 6.117 3.163 2.83 6.37.194-.049 1.701-.54 1.862-2.957zm-21.621-2.126c2.849.095 3.198 3.187 3.198 3.187s-3.11 1.237-5.011 3.538l-.023-.002c-3.736-2.679-.986-6.816 1.836-6.723z"/>
		<path d="m8.942 20.666c-.568-2.57 3.114-5.896 5.68-4.254a3.487 3.487 0 011.408 1.766c.08.33.157.643.213.889.054.418.023.705.023.705s-.35-3.092-3.198-3.187c-2.823-.093-5.571 4.048-1.84 6.723-.2-.018-1.76-.278-2.286-2.642z"/>
	</g>
	<path d="m27.196 36.69c-.222-1.498-2.907-2.992-4.29-2.888-1.339.101-3.813 1.986-3.807 3.5.005 1.506.305 3.188 4.309 3.14 3.966-.555 4.009-2.263 3.788-3.753zm-3.732 3.104-.108.009-.108.008c-3.841.126-3.685-3.39-3.054-4.047.502-.524 1.11-1.134 2.094-1.433.194-.145.414-.26.631-.302.225.006.456.09.67.204 1.013.148 1.71.66 2.285 1.102.723.555 1.406 4.006-2.41 4.46z" fill="#DFA74D"/>
	<path d="m25.878 35.335c-.576-.443-1.269-.955-2.285-1.102.338.18.638.438.806.627.274.308 1.897 1.053 1.237 2.362-.553 1.097-1.43 1.701-2.338 1.819-.914.02-1.873-.45-2.584-1.446-.85-1.192.647-2.173.867-2.522.137-.212.395-.516.703-.741-.98.298-1.591.909-2.094 1.433-.627.653-.784 4.172 3.054 4.046l.216-.016c3.82-.454 3.137-3.905 2.418-4.46z" fill="#C19451"/>
	<path d="m23.593 34.233c-.215-.115-.428-.222-.67-.204s-.437.157-.631.302c-.309.23-2.526 1.612-1.619 3.323.576 1.086 1.722 1.459 2.63 1.39.925-.07 1.983-.61 2.389-1.77.64-1.828-1.757-2.861-2.1-3.041z" fill="#A48255"/>
	<path d="m63.196 38.09c4.929-1.338 4.087-4.995 2.142-7.778-1.389-1.989-5.632-3.971-8.378 1.627-.828-.427-2.303-.887-3.809-1.272-1.497-.42-3.003-.762-3.934-.803.421-6.225-4.242-6.625-6.443-5.598-3.072 1.439-5.633 4.184-2.03 7.809-3.95 2.824-6.092 7.233-6.169 10.1-.215 7.646 4.624 10.672 12.062 12.803 7.507 1.873 13.211 1.672 16.851-5.056 1.367-2.521 1.716-7.41-.292-11.831z" fill="#EEB04B"/>
	<path d="m63.106 40.533c-.415-1.32-1.71-4.67-6.397-7.543-1.181-.721-2.467-1.209-3.807-1.537-1.321-.385-2.679-.605-4.066-.572-5.497.148-8.292 2.398-9.31 3.333-1.02.935-3.354 3.672-3.914 6.382-.489 2.37.021 4.154 1.462 5.274.811.63 1.767 1.083 3.197 1.15 3.197.15 5.868-4.53 9.419-3.579 3.554.953 3.523 6.34 6.368 7.809 1.271.657 2.325.742 3.343.602 1.807-.249 3.141-1.54 3.903-3.836.87-2.627.216-6.164-.198-7.483z" fill="#A48255"/>
	<path d="m56.796 48.595c-1.955-.524-3.106-3.113-2.678-6.024.216-1.452.795-2.763 1.632-3.697.879-.976 1.934-1.427 2.977-1.275 2.128.312 3.435 3.028 2.985 6.088-.215 1.452-.794 2.763-1.63 3.697-.88.976-1.935 1.427-2.979 1.274a2.206 2.206 0 01-.307-.063zm2.05-10.211a1.552 1.552 0 00-.224-.045c-.788-.114-1.611.252-2.316 1.036-.741.824-1.257 1.998-1.449 3.305-.383 2.61.659 4.99 2.355 5.243.787.115 1.61-.251 2.315-1.035.742-.824 1.257-1.998 1.45-3.306.367-2.495-.569-4.78-2.132-5.198z" fill="#AA9387"/>
	<path d="m61.348 43.636c-.42 2.851-2.295 4.935-4.189 4.656-1.893-.28-3.09-2.816-2.67-5.664.42-2.852 2.295-4.935 4.189-4.656 1.894.276 3.087 2.811 2.67 5.664z" fill="#fff"/>
	<path d="m60.465 42.766c-.262 1.902-1.567 3.27-2.916 3.063-1.345-.21-2.223-1.916-1.96-3.818.26-1.898 1.566-3.27 2.916-3.063 1.345.21 2.223 1.916 1.96 3.818z" fill="#A48255"/>
	<path d="m41.39 44.468c-.1-.027-.2-.062-.297-.1-.98-.39-1.672-1.308-1.942-2.592-.261-1.228-.106-2.657.436-4.017 1.14-2.875 3.627-4.575 5.629-3.78.98.39 1.672 1.309 1.941 2.593.262 1.228.107 2.657-.435 4.017-1.084 2.736-3.376 4.403-5.331 3.879zm3.332-9.869c-1.563-.418-3.515 1.089-4.444 3.434-.487 1.228-.628 2.502-.398 3.587.218 1.03.748 1.76 1.488 2.054 1.595.628 3.686-.907 4.66-3.363.488-1.228.628-2.503.398-3.587-.218-1.031-.748-1.76-1.488-2.055a2.325 2.325 0 00-.216-.07z" fill="#AA9387"/>
	<path d="m39.932 37.897c-1.062 2.68-.48 5.422 1.3 6.126 1.78.705 4.083-.893 5.144-3.57 1.061-2.68.48-5.42-1.3-6.126-1.779-.708-4.083.89-5.144 3.57z" fill="#fff"/>
	<path d="m41.163 37.594c-.723 1.779-.277 3.616.995 4.111 1.27.49 2.883-.547 3.606-2.326.723-1.775.278-3.615-.994-4.11-1.27-.491-2.883.547-3.607 2.325zm25.349-1.652c.917-1.665.122-3.824-1.13-5.618-1.03-1.472-3.62-2.939-6.013-1.33.69 2.424 4.403 6.055 7.143 6.948zm-17.729-9.614c-1.211-2.783-4.298-2.83-5.966-2.05-1.942.912-3.681 2.345-3.783 4.193 2.624.753 7.677-.432 9.749-2.143z" fill="#A48255"/>
	<g fill="#E79591">
		<path d="m62.14 30.239c-2.818-.434-3.734 2.539-3.734 2.539s2.828 1.792 4.27 4.405c0 0 .007.002.022.003 4.167-1.94 2.229-6.517-.559-6.947z"/>
		<path d="m65.443 35.007c1.035-2.421-1.967-6.371-4.793-5.233a3.487 3.487 0 00-1.711 1.475c-.14.31-.273.602-.374.834-.13.401-.154.688-.154.688s.917-2.973 3.734-2.539c2.79.432 4.725 5.01.562 6.948.2.019 1.784.053 2.736-2.173zm-19.7-9.161c2.657 1.032 1.964 4.065 1.964 4.065s-3.345.138-5.9 1.68c0 0-.007-.001-.02-.009-2.64-3.764 1.324-6.758 3.956-5.736z"/>
		<path d="m40.495 28.322c.314-2.614 4.889-4.534 6.766-2.135.566.726.736 1.49.745 2.133-.033.338-.065.658-.093.909-.087.413-.211.673-.211.673s.693-3.034-1.964-4.066c-2.633-1.022-6.597 1.977-3.96 5.736-.183-.084-1.569-.845-1.283-3.25z"/>
	</g>
	<path d="m52.417 49.483c.286-1.486-1.753-3.785-3.093-4.144-1.296-.347-4.255.612-4.75 2.043-.494 1.423-.768 3.11 3.027 4.389 3.926.789 4.531-.809 4.816-2.288zm-4.55 1.695a40.32 40.32 0 01-.208-.056c-3.667-1.152-2.356-4.417-1.543-4.829.647-.328 1.423-.703 2.45-.66.232-.072.476-.107.696-.075.21.08.4.234.564.413.907.475 1.395 1.189 1.792 1.797.498.762.001 4.245-3.75 3.41z" fill="#DFA74D"/>
	<path d="m51.622 47.769c-.397-.608-.882-1.32-1.792-1.797.26.282.458.625.553.859.156.382 1.441 1.621.385 2.639-.884.852-1.913 1.132-2.807.942-.87-.283-1.62-1.044-1.96-2.22-.407-1.405 1.329-1.836 1.652-2.092.2-.155.544-.357.909-.467-1.023-.043-1.802.331-2.45.66-.808.408-2.12 3.677 1.543 4.828l.104.028.105.028c3.755.837 4.252-2.646 3.758-3.408z" fill="#C19451"/>
	<path d="m49.83 45.972c-.164-.179-.33-.35-.565-.414-.234-.062-.464.004-.696.076-.366.114-2.916.686-2.626 2.6.184 1.215 1.142 1.947 2.02 2.182.897.24 2.075.081 2.841-.879 1.209-1.513-.71-3.282-.974-3.565z" fill="#A48255"/>
</svg>
