<svg viewBox="0 0 72 72" xmlns="http://www.w3.org/2000/svg">
	<path d="m63.2 38.1c4.9-1.3 4.1-5 2.1-7.8-1.4-2-5.6-4-8.3 1.6-.9-.4-2.3-.8-3.8-1.2-1.5-.5-3.1-.8-4-.8.4-6.3-4.2-6.7-6.4-5.6-3.1 1.4-5.7 4.2-2.1 7.8-3.9 2.8-6 7.2-6.1 10.1-.2 7.6 4.6 10.6 12 12.8 7.5 1.9 13.2 1.7 16.9-5.1 1.4-2.5 1.7-7.4-.3-11.8zm-29.6-15.7c4.2-2.9 2.2-6.1-.6-8.1-1.9-1.4-6.6-1.9-7.3 4.3-.9-.1-2.5 0-4 .1-1.6.1-3.1.3-4 .5-1.7-6-6.2-4.8-7.95-3.1-2.42 2.4-3.93 5.8.65 8-2.77 4-3.33 8.9-2.46 11.6 2.36 7.3 7.86 8.5 15.66 8.1 7.7-.7 13-2.8 14.2-10.4.4-2.8-.8-7.5-4.2-11z" fill="#d9863a"/>
	<g fill="#4d2a20">
		<path d="m52.4 49.5c.3-1.5-1.7-3.8-3.1-4.2-1.3-.3-4.2.7-4.7 2.1s-.8 3.1 3 4.4c3.9.8 4.5-.8 4.8-2.3zm-4.5 1.7a40.3 40.3 0 01-.2-.1c-3.7-1.1-2.4-4.4-1.6-4.8.7-.3 1.4-.7 2.5-.7.2 0 .4-.1.7 0 .2 0 .4.2.5.4.9.4 1.4 1.2 1.8 1.8.5.7 0 4.2-3.7 3.4zm-20.7-14.5c-.2-1.5-2.9-3-4.3-2.9-1.3.1-3.8 2-3.8 3.5s.3 3.2 4.3 3.1c4-.5 4-2.2 3.8-3.7zm-3.7 3.1h-.3c-3.8.1-3.6-3.4-3-4 .5-.6 1.1-1.2 2.1-1.5l.6-.3c.2 0 .5.1.7.2 1 .2 1.7.7 2.3 1.1.7.6 1.4 4-2.4 4.5z" fill-opacity=".2"/>
		<path d="m51.6 47.8c-.4-.6-.9-1.4-1.8-1.8.3.3.5.6.6.8.1.4 1.4 1.7.4 2.7-.9.8-1.9 1.1-2.8.9-.9-.3-1.7-1-2-2.2-.4-1.4 1.3-1.8 1.7-2.1.2-.2.5-.4.9-.5-1.1 0-1.8.4-2.5.7-.8.4-2.1 3.7 1.6 4.8h.1l.1.1c3.7.8 4.2-2.7 3.7-3.4zm-25.7-12.5c-.6-.4-1.3-.9-2.3-1.1.3.2.6.5.8.7.3.3 1.9 1 1.2 2.3-.5 1.1-1.4 1.7-2.3 1.8s-1.9-.4-2.6-1.4c-.8-1.2.7-2.2.9-2.5.1-.2.4-.5.7-.8-1 .3-1.6.9-2.1 1.5-.6.6-.8 4.1 3 4h.3c3.8-.5 3.1-3.9 2.4-4.5z" fill-opacity=".501961"/>
		<path d="m49.8 46c-.1-.2-.3-.4-.5-.4-.3-.1-.5 0-.7 0-.4.1-2.9.7-2.7 2.6.2 1.2 1.2 2 2.1 2.2.9.3 2 .1 2.8-.9 1.2-1.5-.7-3.2-1-3.5zm-26.2-11.8c-.2-.1-.4-.2-.7-.2-.2 0-.4.2-.6.3-.3.3-2.5 1.6-1.6 3.4.5 1 1.7 1.4 2.6 1.3.9 0 2-.6 2.4-1.7.6-1.9-1.8-2.9-2.1-3.1zm42.9 1.7c.9-1.6.1-3.8-1.1-5.6-1-1.4-3.6-2.9-6-1.3.7 2.4 4.4 6 7.1 6.9zm-17.7-9.6c-1.2-2.8-4.3-2.8-6-2-1.9.9-3.7 2.3-3.8 4.2 2.7.7 7.7-.5 9.8-2.2zm14.3 14.2c-.4-1.3-1.7-4.6-6.4-7.5-1.2-.7-2.5-1.2-3.8-1.5-1.3-.4-2.7-.7-4.1-.6-5.5.1-8.3 2.4-9.3 3.3s-3.3 3.7-3.9 6.4c-.5 2.4 0 4.1 1.5 5.3.8.6 1.7 1.1 3.2 1.1 3.2.2 5.8-4.5 9.4-3.6 3.5 1 3.5 6.4 6.4 7.8 1.2.7 2.3.8 3.3.7 1.8-.3 3.1-1.6 3.9-3.9.9-2.6.2-6.1-.2-7.5zm-27.1-21.3c.3-1.8-1.1-3.6-2.9-4.9-1.5-1-4.4-1.6-6.1.8 1.4 2 6.1 4.2 9 4.1zm-19.9-3.2c-2.1-2.2-5-1.2-6.3.1-1.54 1.5-2.7 3.4-2.19 5.2 2.69-.2 7.09-3 8.49-5.3zm18.2 8.7c-.8-1.1-3.1-3.8-8.5-5-1.4-.3-2.7-.3-4.1-.2s-2.7.3-4 .8c-5.2 2-7.1 5-7.72 6.2-.65 1.3-1.95 4.6-1.58 7.4.32 2.4 1.39 3.9 3.1 4.5 1 .3 2 .4 3.4 0 3.1-.9 4.1-6.2 7.7-6.5 3.7-.3 5.4 4.8 8.6 5.3 1.4.2 2.5-.1 3.4-.6 1.6-.8 2.4-2.5 2.4-4.9-.1-2.8-1.9-5.9-2.7-7z"/>
	</g>
	<path d="m39.9 37.9c-1 2.7-.4 5.4 1.3 6.1 1.8.7 4.1-.9 5.2-3.5 1-2.7.5-5.5-1.3-6.2s-4.1.9-5.2 3.6zm21.4 5.7c-.4 2.9-2.2 5-4.1 4.7s-3.1-2.8-2.7-5.7c.4-2.8 2.3-4.9 4.2-4.6 1.9.2 3.1 2.8 2.6 5.6zm-49.7-13.7c-.1 2.9 1.3 5.3 3.2 5.3 1.9.1 3.6-2.2 3.7-5 .1-2.9-1.3-5.3-3.2-5.4-2-.1-3.6 2.2-3.7 5.1zm22.1-1.7c.5 2.8-.5 5.4-2.4 5.8s-3.9-1.6-4.4-4.5c-.6-2.8.5-5.4 2.4-5.7 1.9-.4 3.8 1.6 4.4 4.4z" fill="#fff"/>
	<path d="m41.2 37.6c-.8 1.8-.3 3.6 1 4.1 1.2.5 2.8-.5 3.6-2.3.7-1.8.2-3.6-1-4.1-1.3-.5-2.9.5-3.6 2.3zm19.3 5.2c-.3 1.9-1.6 3.2-3 3-1.3-.2-2.2-1.9-1.9-3.8.2-1.9 1.6-3.3 2.9-3.1 1.4.3 2.2 2 2 3.9zm-47.9-13.6c-.1 1.9 1 3.5 2.3 3.5 1.4.1 2.6-1.4 2.7-3.3.1-2-1-3.5-2.3-3.6-1.4 0-2.6 1.5-2.7 3.4zm20-1.5c.3 1.9-.4 3.6-1.8 3.8-1.3.3-2.7-1-3.1-2.9s.4-3.6 1.8-3.9c1.3-.2 2.7 1.1 3.1 3z" fill="#09223f"/>
	<path d="m44.9 25.1c-2 0-4.2 1.4-4.4 3.2-.3 2.4 1.1 3.2 1.3 3.3 0-.1-.1-.1-.1-.1.1 0 .1.1.1.1 2.6-1.6 5.9-1.7 5.9-1.7 0-.1.1-.3.2-.7 0-.2.1-.5.1-.9 0-.6-.2-1.4-.7-2.1-.6-.8-1.5-1.1-2.4-1.1zm16.8 4.5c-.3 0-.7 0-1 .2-.8.3-1.4.8-1.8 1.4-.1.4-.2.7-.3.9-.2.4-.2.7-.2.7s2.8 1.8 4.3 4.4c.2 0 1.8 0 2.7-2.2.9-2.1-1.2-5.4-3.7-5.4zm-31.3-14.9c-.7 0-1.4.2-2 .7-.5.5-.9 1.2-1.1 1.9 0 .4 0 .7-.1.9 0 .4.1.7.1.7s3.3.8 5.5 2.8c0 0 .1 0 .1-.1l-.1.1c.2-.1 1.7-.6 1.9-3 .1-2-2.2-4-4.3-4zm-17.3 1.3c-2.3 0-4.62 2.6-4.16 4.7.53 2.3 2.06 2.6 2.26 2.6h.1c1.9-2.3 5-3.5 5-3.5v-.1s0-.2-.1-.6c0-.3-.1-.6-.2-.9-.2-.8-.7-1.4-1.4-1.8-.5-.3-1-.4-1.5-.4z" fill="#c35151"/>
	<path d="m45.7 25.8c2.7 1.1 2 4.1 2 4.1s-3.3.1-5.9 1.7c-2.7-3.8 1.3-6.8 3.9-5.8zm16.4 4.4c-2.8-.4-3.7 2.6-3.7 2.6s2.8 1.8 4.3 4.4c4.2-2 2.2-6.5-.6-7zm-31.6-14.9h-.5c-2.8.5-2.7 3.6-2.7 3.6s3.3.8 5.5 2.8c3.1-3 .4-6.4-2.3-6.4zm-17.4 1.3c-2.8-.1-5.6 4-1.9 6.7h.1c1.9-2.3 5-3.5 5-3.5s-.4-3.1-3.2-3.2z" fill="#e1696a"/>
</svg>
