<svg viewBox="0 0 48 48" xmlns="http://www.w3.org/2000/svg">
	<path d="M24 48c13.255 0 24-10.745 24-24S37.255 0 24 0 0 10.745 0 24s10.745 24 24 24zm9.544-15.024c2.097-1.248 3.238-3.719 3.527-6.164.22-1.85-.136-3.799-1.15-5.356-.977-1.486-2.585-2.577-4.343-2.793a.175.175 0 01-.135-.26 26.45 26.45 0 014.015-5.45 6.79 6.79 0 00-3.298-1.973 22.197 22.197 0 01-1.778 6.52.149.149 0 01-.247.038c-.105-.12-.21-.244-.319-.371-.492-.578-1.022-1.2-1.62-1.552-4.114-2.415-9.873-1.197-12.471 3.01-1.166 1.886-1.518 4.099-1.87 6.312-.137.865-.274 1.73-.46 2.576a21.32 21.32 0 01-2.025 5.471 1.705 1.705 0 01-.07.12c-.068.11-.15.243-.15.33 0 .216.343.357.568.433 2.772.917 5.586 1.774 8.49 2.122 3.034.361 7.72.22 9.108-.717.047-.03.021-.098-.03-.098-2.27.022-3.756-1.052-4.074-2.907-.331-1.927.628-3.663 2.122-4.47 1.494-.802 3.582-.666 4.835.48 1.09.993 1.557 2.784.9 4.32-.08.182-.257.37-.393.516-.084.09-.153.163-.172.206-.038.085.05.17.136.128l.134-.07c.237-.121.679-.348.77-.401z" clip-rule="evenodd" fill="#938666" fill-rule="evenodd"/>
</svg>
