<svg viewBox="0 0 64 64" xmlns="http://www.w3.org/2000/svg">
	<path d="m54.66 33.61c-.24-6.79-3.79-15.67-11.07-18.9-1.25-.55-3.15-.91-5.05-1.06.07 1.19.33 2.4.76 2.49l.19.04c.79.16 1.31 1.62.6 2.01 0 0-2.98 1.78-4.28 2.44-1.33.67-3.06.47-3.79.06l-.57-.28c-.75 1.03-1.82 2.17-3.18 3.22.29.43.36 1.1.12 1.73-.31.83-1.08 1.24-1.7.87-.38-.23-.58-.68-.61-1.17-2.59 1.42-5.91 2.39-9.97 2.12-.58-.03-1.4-.13-2.3-.26-.97 2.74-1.6 5.51-1.68 7.68-.29 8.4 6.85 20.57 21.47 20.57 13.01.01 21.38-12.41 21.06-21.56zm-33.92 6.92c-.28.87-1.01 1.23-1.6.78s-.8-1.56-.5-2.43c.31-.87.99-1.18 1.55-.72.58.45.83 1.5.55 2.37zm2.35-8.09c-.28.87-1.01 1.23-1.6.78s-.8-1.56-.5-2.43c.31-.87.99-1.18 1.55-.72.57.45.83 1.5.55 2.37zm4.9 11.58c-.17.97-.89 1.57-1.6 1.3s-1.11-1.32-.92-2.29.89-1.51 1.57-1.23c.69.27 1.12 1.25.95 2.22zm3.89-9.11c-.16.97-.91 1.63-1.66 1.43s-1.2-1.17-1.02-2.15c.19-.97.92-1.57 1.64-1.37.73.2 1.2 1.11 1.04 2.09zm1.53-9.41c.1-.89.71-1.53 1.37-1.48s1.18.77 1.16 1.66-.64 1.62-1.38 1.57c-.73-.06-1.24-.87-1.15-1.75zm2.09 20.74c-.78-.01-1.39-.84-1.38-1.83.02-.98.64-1.74 1.39-1.73s1.37.78 1.38 1.76-.61 1.81-1.39 1.8zm3.51-10.49c-.79.17-1.55-.51-1.69-1.48-.14-.98.37-1.88 1.14-2.05.76-.17 1.51.45 1.68 1.42.16.98-.34 1.94-1.13 2.11zm2.74-11.22c-.26-.85.03-1.74.61-2.03s1.3.11 1.62.92.09 1.78-.56 2.1c-.65.33-1.41-.14-1.67-.99zm3.1 18.78c-.7.27-1.42-.25-1.61-1.13s.22-1.77.89-2.04 1.37.19 1.58 1.07-.17 1.83-.86 2.1zm3.71-10.18c-.6.52-1.49.25-1.95-.58s-.35-1.89.22-2.41 1.42-.29 1.91.53c.49.83.42 1.94-.18 2.46z" fill="#F8A422"/>
	<path d="m35.79 9.28c0-.02 0-.05-.01-.07-.02-.08-.04-.16-.07-.23l-.03-.09c-.03-.07-.07-.13-.11-.19l-.06-.09c-.04-.05-.09-.1-.14-.15-.03-.03-.06-.06-.09-.08l-.15-.12c-.04-.03-.09-.05-.13-.08-.05-.03-.1-.06-.15-.08-.06-.03-.12-.05-.18-.08-.04-.02-.08-.04-.12-.05-.11-.04-.22-.07-.33-.1a1.91 1.91 0 00-.33-.06c-.77-.1-1.49.13-1.73 1.12 0 .01 0 .02-.01.03-.27 1.09-.45 2.24-.54 3.41-6.57-4.82-19.67-4.85-20.3 11.12 11.11 3.21 17.95-2.9 20.41-7.09.19 1.11 1.36 1.23 2.12 1.2 1.08-.04 1.74-.24 1.61-1.24-.27-2.09-.19-4.4.32-6.44.05-.23.05-.44.02-.64z" fill="#F8A422"/>
</svg>
