<svg viewBox="0 0 24 25" xmlns="http://www.w3.org/2000/svg">
	<path d="M19.72 1.414l3.329 3.394v15.273l-3.33 3.394H4.281L.95 20.08V4.808l3.33-3.394h15.438zm0-.97H4.28a.943.943 0 00-.672.284L.278 4.122A.98.98 0 000 4.808v15.273c0 .257.1.504.278.686l3.33 3.394c.178.182.42.284.673.284h15.438a.943.943 0 00.673-.284l3.33-3.394a.98.98 0 00.278-.686V4.808a.98.98 0 00-.278-.686L20.392.728a.943.943 0 00-.673-.283z" fill="#98754D"/>
	<path d="M19.482 2.626l2.378 2.425v14.788l-2.378 2.424H4.519L2.14 19.839V5.05L4.52 2.626h14.963zm0-.484H4.519a.463.463 0 00-.336.143L1.805 4.709a.481.481 0 00-.14.342v14.788c0 .128.05.252.14.341l2.378 2.425c.088.092.21.143.336.143h14.963c.126 0 .247-.051.335-.143l2.378-2.425a.485.485 0 00.14-.341V5.05a.481.481 0 00-.14-.342l-2.378-2.424a.463.463 0 00-.335-.143z" fill="#98754D"/>
</svg>
