<svg xmlns="http://www.w3.org/2000/svg">
	<pattern id="pattern" width="64" height="128" patternUnits="userSpaceOnUse">
		<path d="M64 0H0V128H64V0Z" fill="#E6EED4"/>
		<g fill="#F2F9E1">
			<path d="m41.605 21.8549c-2.515 2.145-4.5 2.61-5.575 3.685-1.955 1.955.635 4.7 2.64 2.69 1.08-1.08 1.97-2.965 3.73-5.07.605 2.98 3.245 5.715 6.6 6.555.37.095 1.13.24 2.14.24 1.495 0 3.55-.325 5.735-1.64 3.165-1.9 5.075-4.845 5.675-8.755.375-2.44.105-5.235-.185-8.2-.275-2.83997-.56-5.76997-.22-8.33497l.005-.045v-.045c-.01-.25-.115-.48-.29-.645-.165-.175-.395-.275-.645-.285h-.045l-.045.005c-2.565.335-5.5.055-8.335-.22-2.96-.285-5.76-.56-8.2-.185-3.91.6-6.855 2.51-8.755 5.675-2.205 3.67497-1.625 6.95997-1.395 7.87997.895 3.585 3.955 6.345 7.165 6.695zm3.67-1.675c-.16 1.905.68 3.825 1.985 5.1 1.71 1.67 4.45 2.18 6.775 2.17-1.84.58-3.605.49-4.615.25-3.145-.74-5.22-3.53-5.385-6.29.33-.325.75-.74 1.24-1.23zm15.095-.69c-.175.875-.41 1.665-.68 2.375-2.775-.085-8.915-1.04-9.13-7.01.26-.265.52-.535.785-.8.825 2.96 3.845 6.67 9.05 5.31-.01.04-.02.085-.025.125zm.065-.37c-5.625-.31-7.725-3.455-7.845-6.355.25-.255.495-.515.74-.77.89 3.005 4.045 5.16 7.315 4.585-.015.905-.08 1.76-.21 2.54zm-4.735-11.43997c-3.005.2-4.355-3.07-4.695-4.07 1.195.07 2.395.17 3.54.245-.285 1.66.67 2.825 1.755 3.245-.195.185-.395.38-.6.58zm-1.155 1.135-.995.995c-3.065-.25-5.115-3.05-5.53-6.3.935-.005 1.905.035 2.88.09-.005 1.055.21 4.74 3.645 5.215zm1.065 17.96497c-2.29-.045-5.515-.46-7.33-2.355-1.77-1.85-2.03-4.03-1.875-5.375.28-.28.57-.57.87-.875-.13 4.58 5.09 7.965 10.525 6.855-.675.75-1.42 1.325-2.19 1.75zm-7.13-9.82c.32-.32.645-.65.975-.985.505 5.485 6.49 7.56 10.01 6.43-.34.77-.735 1.445-1.17 2.02-3.09-.04-9.96-.575-9.815-7.465zm6.095-6.26c.335-.355.665-.69997.98-1.03997.345 3.40497 3.73 3.79997 5.02 3.82497.055.97.085 1.935.075 2.855-3.2-.485-5.905-2.575-6.075-5.64zm2.17-2.32997c.16-.175.315-.345.465-.515.32 1.13 1.45 2.19997 3.11 2.015.08 1.11497.17 2.27997.24 3.43497-1.23-.455-4.25-1.9-3.815-4.93497zm3.555 1.155c-1.97-.88-1.955-2.495-1.89-3.025 1.02-1.195 1.595-2 1.445-2.15-.2-.2-1.065.445-2.385 1.65-.745-.02-2.005-.35-2.695-2.125 2.365.16 4.465.22 5.735-.215-.45 1.285-.375 3.445-.21 5.865zm-7.965 1.51497c-.245.25-.495.5-.745.76-2.935-.14-6.1-2.30497-6.33-8.10497.805-.12 1.685-.17 2.6-.18-.715 3.33 1.43 6.58997 4.475 7.52497zm-1.975 2.015c-.25.26-.505.52-.765.78-6.26-.185-7.045-6.84997-7.07-9.44497.65-.235 1.365-.44 2.15-.595.14-.03.285-.055.43-.075-1.57 5.385 2.24 8.50497 5.255 9.33497zm-1.845 1.885c-.315.32-.63.645-.945.965-7.335.255-7.595-7.32497-7.605-10.19997.62-.435 1.335-.83 2.165-1.16-1.425 3.465.625 9.93497 6.385 10.39497zm-2.12 2.165c-.355.36-.71.725-1.065 1.085-1.355.105-3.415-.21-5.18-1.895-2.22-2.125-2.41-6.19-2.35-8.41497.44-.64.995-1.255 1.69-1.815-1.47 5.68997 2.09 11.31997 6.905 11.03997zm-7.095.21c1.235 1.265 3.075 2.095 4.92 2-.27.27-.54.545-.805.81-2.96.16-6.15-1.995-6.95-5.39-.29-1.235-.365-3.615.76-5.87497-.295 2.54497-.025 6.30997 2.075 8.45497z"/>
			<path d="m62.1501 67.3949.005-.045v-.045c-.01-.25-.115-.48-.29-.645-.165-.175-.39-.275-.645-.29h-.05l-.05.005c-2.565.335-5.5.055-8.34-.22-2.96-.285-5.76-.555-8.2-.185-3.91.6-6.855 2.51-8.755 5.675-2.205 3.675-1.625 6.96-1.395 7.88.895 3.585 3.95 6.345 7.165 6.695-2.515 2.145-4.5 2.61-5.575 3.685-1.955 1.955.635 4.7 2.64 2.69 1.08-1.08 1.97-2.965 3.73-5.07.605 2.98 3.245 5.715 6.6 6.555.37.095 1.13.24 2.145.24 1.495 0 3.545-.325 5.735-1.64 3.165-1.9 5.075-4.845 5.675-8.755.375-2.44.105-5.235-.185-8.2-.26-2.83-.545-5.765-.21-8.33zm-25.69 11.705c-.29-1.235-.365-3.615.76-5.875-.295 2.54-.025 6.305 2.075 8.45 1.235 1.265 3.075 2.095 4.92 2-.27.27-.54.545-.805.81-2.955.165-6.15-1.99-6.95-5.385zm23.91 4.75c-.175.875-.41 1.665-.68 2.375-2.775-.085-8.915-1.04-9.13-7.01.26-.265.52-.535.785-.8.825 2.96 3.845 6.67 9.05 5.31-.01.04-.02.085-.025.125zm-4.67-11.81c-3.005.2-4.355-3.07-4.695-4.07 1.195.07 2.395.17 3.54.245-.285 1.66.67 2.825 1.755 3.245-.195.185-.395.38-.6.58zm-1.155 1.135-.995.995c-3.065-.25-5.115-3.05-5.53-6.3.935-.005 1.905.035 2.88.09-.005 1.055.21 4.74 3.645 5.215zm5.89 10.305c-5.625-.31-7.725-3.455-7.845-6.355.25-.255.495-.515.74-.77.89 3.005 4.045 5.16 7.315 4.585-.015.905-.08 1.76-.21 2.54zm-5.86-8.42c.335-.355.665-.7.98-1.04.345 3.405 3.73 3.8 5.02 3.825.055.97.085 1.935.075 2.855-3.2-.485-5.905-2.575-6.075-5.64zm2.17-2.325c.16-.175.315-.345.465-.515.32 1.13 1.45 2.2 3.11 2.015.08 1.115.17 2.28.24 3.435-1.23-.46-4.25-1.905-3.815-4.935zm3.555 1.15c-1.97-.88-1.955-2.495-1.89-3.025 1.02-1.195 1.595-2 1.445-2.15-.2-.2-1.065.445-2.385 1.65-.745-.02-2.005-.35-2.695-2.125 2.365.16 4.465.22 5.735-.215-.45 1.285-.375 3.445-.21 5.865zm-7.965 1.52c-.245.25-.495.5-.745.76-2.935-.14-6.1-2.305-6.33-8.105.805-.12 1.685-.17 2.6-.18-.715 3.325 1.43 6.585 4.475 7.525zm-1.975 2.01c-.25.26-.505.52-.765.78-6.26-.185-7.045-6.85-7.07-9.445.65-.235 1.365-.44 2.15-.595.14-.03.285-.055.43-.075-1.57 5.385 2.24 8.505 5.255 9.335zm-1.845 1.885c-.315.32-.63.645-.945.965-7.335.255-7.595-7.325-7.605-10.2.62-.435 1.335-.83 2.165-1.16-1.425 3.47.625 9.94 6.385 10.395zm-2.12 2.165c-.355.36-.71.725-1.065 1.085-1.355.105-3.415-.21-5.18-1.895-2.22-2.125-2.41-6.19-2.35-8.415.44-.64.995-1.255 1.69-1.815-1.47 5.69 2.09 11.32 6.905 11.04zm-1.12 3.075c-.16 1.905.68 3.825 1.985 5.1 1.71 1.67 4.45 2.18 6.775 2.17-1.84.58-3.605.49-4.615.25-3.145-.74-5.22-3.53-5.385-6.29.33-.325.75-.74 1.24-1.23zm10.335 6.6c-2.29-.045-5.515-.46-7.33-2.355-1.77-1.85-2.03-4.03-1.875-5.375.28-.28.57-.57.87-.875-.13 4.58 5.09 7.965 10.525 6.855-.675.755-1.42 1.325-2.19 1.75zm-7.13-9.82c.32-.32.645-.65.975-.985.505 5.48 6.49 7.56 10.01 6.43-.34.77-.735 1.445-1.17 2.02-3.09-.04-9.96-.575-9.815-7.465z"/>
			<path d="m7.11499 28.3249c2.19 1.315 4.24001 1.64 5.73501 1.64 1.015 0 1.77-.15 2.14-.24 3.355-.84 5.995-3.575 6.6-6.555 1.76 2.105 2.65 3.985 3.73 5.07 2.01 2.01 4.595-.74 2.64-2.69-1.075-1.075-3.065-1.545-5.575-3.685 3.21-.35 6.27-3.11 7.165-6.695.23-.92.805-4.205-1.395-7.87999-1.9-3.165-4.845-5.075-8.755-5.675-2.44-.375-5.24-.105-8.2.185-2.83001.265-5.76501.55-8.33001.21l-.045-.005h-.045c-.25.01-.48.115-.645.285-.18.17-.28.4-.29.65v.045l.005.05c.335 2.565.055 5.5-.22 8.33499-.285 2.96-.555 5.76-.185 8.2.6 3.91 2.505 6.855 5.67 8.755zm-3.625-24.66999c1.265.44 3.365.375 5.735.215-.695 1.775-1.95 2.105-2.695 2.125-1.32-1.205-2.185-1.85-2.385-1.65-.155.155.42.96 1.44 2.155.065.53.08 2.145-1.89 3.025.17-2.42.245-4.58-.205-5.87zm17.10001 16.47499c-.27-.27-.535-.54-.805-.81 1.845.095 3.685-.735 4.92-2 2.1-2.15 2.365-5.91 2.075-8.44999 1.125 2.25999 1.055 4.63999.76 5.87499-.8 3.39-3.995 5.545-6.95 5.385zm-12.29001-12.44999c-.205-.2-.405-.395-.6-.58 1.085-.42 2.035-1.585 1.755-3.245 1.14501-.08 2.34501-.175 3.54001-.245-.34 1-1.685 4.27-4.69501 4.07zm4.79501-4.08c.975-.055 1.95-.095 2.88-.09-.415 3.25-2.465 6.05-5.53 6.3-.34-.345-.67501-.675-.99501-.995 3.44001-.475 3.65501-4.16 3.64501-5.215zm-9.46501 15.88999c-.01-.04-.015-.085-.02-.125 5.205 1.355 8.22501-2.355 9.05001-5.31.26.27.525.535.785.8-.22 5.97-6.36001 6.92-9.13501 7.005-.27-.71-.505-1.495-.68-2.37zm7.78001-6.72c-.12 2.9-2.22001 6.04-7.84501 6.355-.13-.785-.195-1.64-.21-2.535 3.27.575 6.425-1.58 7.31501-4.585.245.25.49.505.74.765zm-6.87501 9.635c3.52 1.13 9.50501-.945 10.01001-6.43.33.335.655.665.975.985.145 6.89-6.72501 7.425-9.82001 7.465-.43-.58-.825-1.25-1.165-2.02zm12.18501-4.23c.305.305.59.595.87.875.155 1.345-.105 3.525-1.875 5.375-1.81 1.895-5.04 2.31-7.33001 2.355-.77-.425-1.515-.995-2.19-1.755 5.44001 1.11 10.65501-2.27 10.52501-6.85zm.02 7.105c1.305-1.275 2.145-3.195 1.985-5.1.49.49.91.905 1.235 1.235-.165 2.76-2.24 5.55-5.385 6.29-1.005.235-2.77.33-4.61501-.25 2.33001.005 5.07001-.505 6.78001-2.175zm9.46-17.39999c.06 2.22499-.13 6.28999-2.35 8.41499-1.765 1.685-3.825 2-5.18 1.895-.355-.36-.71-.725-1.065-1.085 4.82.28 8.375-5.35 6.905-11.03999.695.56 1.25 1.175 1.69 1.815zm-9.77 8.02499c-.315-.325-.63-.645-.945-.965 5.76-.46 7.81-6.92999 6.39-10.39499.83.335 1.545.725 2.165 1.16-.015 2.875-.275 10.45499-7.61 10.19999zm5.045-11.51499c-.025 2.6-.81 9.25999-7.07 9.44499-.255-.265-.51-.525-.765-.78 3.015-.83 6.825-3.94999 5.25-9.33999.145.025.29.05.43.075.79.16 1.505.365 2.155.6zm-9.06 7.40999c-.25-.255-.5-.51-.745-.76 3.045-.935 5.19-4.19999 4.475-7.52999.915.01 1.795.06 2.6.18-.23 5.805-3.4 7.96999-6.33 8.10999zm-8.74001-1.92999c1.665.18499 2.795-.885 3.11-2.015.15.17.305.34.465.515.435 3.02999-2.585 4.47499-3.815 4.93499.07-1.155.16-2.32.24-3.43499zm-.25 3.61499c1.29-.025 4.675-.425 5.02-3.82499.32.34.645.68499.98 1.03999-.17 3.065-2.875 5.155-6.075 5.64-.01-.92.02-1.885.075-2.855z"/>
			<path d="m7.11498 92.685c2.19 1.315 4.24002 1.64 5.73502 1.64 1.015 0 1.77-.15 2.145-.24 3.355-.835 5.995-3.57 6.6-6.555 1.76 2.105 2.65 3.985 3.73 5.07 2.01 2.01 4.595-.74 2.64-2.69-1.075-1.075-3.065-1.545-5.575-3.685 3.21-.35 6.27-3.11 7.165-6.695.23-.92.805-4.205-1.395-7.88-1.9-3.165-4.845-5.075-8.755-5.675-2.44-.375-5.235-.105-8.2.185-2.84002.275-5.77502.555-8.34002.22l-.05-.005h-.05c-.25.01-.48.115-.645.29-.175.165-.275.395-.29.645v.045l.005.045c.335 2.565.055 5.5-.22 8.335-.285 2.96-.555 5.76-.185 8.2.615 3.905 2.52 6.85 5.685 8.75zm-3.625-24.67c1.265.44 3.365.375 5.735.215-.695 1.775-1.95 2.105-2.695 2.125-1.32-1.205-2.185-1.85-2.385-1.65-.15.15.425.96 1.445 2.15.065.53.08 2.145-1.89 3.025.165-2.415.24-4.575-.21-5.865zm17.10002 16.475c-.27-.27-.535-.54-.805-.81 1.845.095 3.685-.735 4.92-2 2.1-2.15 2.365-5.91 2.075-8.45 1.125 2.26 1.055 4.64.76 5.875-.8 3.39-3.995 5.545-6.95 5.385zm-12.29002-12.45c-.205-.2-.405-.395-.6-.58 1.085-.42 2.035-1.585 1.755-3.245 1.14502-.08 2.34502-.175 3.54002-.245-.34 1-1.685 4.27-4.69502 4.07zm4.79502-4.075c.975-.055 1.95-.095 2.88-.09-.415 3.25-2.465 6.05-5.53 6.3-.34-.345-.67502-.675-.99502-.995 3.44002-.48 3.65502-4.165 3.64502-5.215zm-9.46502 15.885c-.01-.04-.015-.085-.02-.125 5.205 1.355 8.22502-2.355 9.05002-5.31.26.27.525.535.785.8-.215 5.97-6.35502 6.925-9.13002 7.01-.275-.715-.51-1.5-.685-2.375zm7.78002-6.72c-.12 2.9-2.22002 6.04-7.84502 6.355-.13-.785-.195-1.64-.21-2.535 3.27.575 6.425-1.58 7.31502-4.585.245.25.49.505.74.765zm-6.87502 9.635c3.52 1.13 9.50502-.945 10.01002-6.43.33.335.655.665.975.985.145 6.89-6.72502 7.425-9.81502 7.465-.435-.58-.83-1.25-1.17-2.02zm12.18502-4.23c.305.305.59.595.87.875.155 1.345-.105 3.525-1.875 5.375-1.81 1.895-5.04 2.31-7.33002 2.355-.77-.425-1.515-.995-2.19-1.755 5.44002 1.115 10.65502-2.27 10.52502-6.85zm.02 7.105c1.305-1.275 2.145-3.195 1.985-5.1.49.49.91.905 1.235 1.235-.165 2.76-2.24 5.55-5.385 6.29-1.005.235-2.77.33-4.61502-.25 2.33002.005 5.07002-.505 6.78002-2.175zm9.46-17.4c.06 2.225-.13 6.29-2.35 8.415-1.765 1.685-3.825 2-5.18 1.895-.355-.36-.71-.725-1.065-1.085 4.82.28 8.375-5.35 6.905-11.04.695.56 1.25 1.175 1.69 1.815zm-9.77 8.03c-.315-.325-.63-.645-.945-.965 5.76-.46 7.81-6.93 6.39-10.395.83.335 1.545.725 2.165 1.16-.015 2.875-.275 10.45-7.61 10.2zm5.045-11.52c-.025 2.6-.81 9.26-7.07 9.445-.255-.265-.51-.525-.765-.78 3.015-.83 6.825-3.95 5.25-9.34.145.025.29.05.43.075.79.16 1.505.365 2.155.6zm-9.06 7.41c-.25-.255-.5-.51-.745-.76 3.045-.935 5.19-4.2 4.475-7.53.915.01 1.795.06 2.6.18-.23 5.805-3.4 7.97-6.33 8.11zm-8.74002-1.925c1.665.185 2.795-.885 3.11-2.015.15.17.305.34.465.515.435 3.03-2.585 4.475-3.815 4.935.07-1.16.16-2.32.24-3.435zm-.25 3.61c1.29-.025 4.675-.425 5.02-3.825.32.34.645.685.98 1.04-.17 3.065-2.875 5.155-6.075 5.645-.01-.925.02-1.89.075-2.86z"/>
			<path d="m30.4701 30.4848c-.855-.39-1.845-.68-2.605-.68-1.645 0-2.425.815-2.425 2.14s.885 2.105 2.53 2.105c.715 0 1.62-.25 2.415-.595-.345.81-.595 1.715-.595 2.42 0 1.645.815 2.425 2.14 2.425s2.105-.885 2.105-2.53c0-.68-.225-1.525-.545-2.29.785.335 1.665.575 2.365.575 1.645 0 2.53-.78 2.53-2.105s-.775-2.14-2.425-2.14c-.74 0-1.71.28-2.55.655.36-.81.625-1.74.625-2.47 0-1.645-.78-2.53-2.105-2.53s-2.14.775-2.14 2.425c0 .75.295 1.74.68 2.595z"/>
			<path d="m56.885 35.4249c-3.675-2.205-6.96-1.625-7.88-1.395-3.355.84-5.995 3.57-6.6 6.555-1.76-2.105-2.65-3.985-3.73-5.07-2.01-2.01-4.595.74-2.64 2.69 1.075 1.075 3.065 1.545 5.575 3.685-3.21.35-6.27 3.11-7.165 6.695-.23.92-.805 4.205 1.395 7.88 1.9 3.165 4.845 5.075 8.755 5.675.855.13 1.75.185 2.685.185 1.735 0 3.59-.18 5.515-.365 2.84-.275 5.775-.555 8.335-.22l.045.005h.045c.25-.01.48-.115.645-.29.175-.165.275-.395.285-.645v-.045l-.005-.045c-.335-2.565-.055-5.5.22-8.335.285-2.96.555-5.76.185-8.2-.595-3.915-2.5-6.86-5.665-8.76zm3.625 24.67c-1.265-.44-3.365-.375-5.735-.215.695-1.775 1.95-2.105 2.695-2.125 1.32 1.205 2.185 1.85 2.385 1.65.15-.15-.425-.96-1.445-2.15-.065-.53-.08-2.145 1.89-3.025-.165 2.415-.24 4.575.21 5.865zm-17.1-16.475c.27.27.535.54.805.81-1.845-.095-3.685.735-4.92 2-2.1 2.15-2.365 5.91-2.075 8.45-1.125-2.26-1.055-4.64-.76-5.875.8-3.39 3.995-5.545 6.95-5.385zm12.29 12.45c.205.2.405.395.6.58-1.085.42-2.035 1.585-1.755 3.245-1.145.08-2.345.175-3.54.245.34-1 1.685-4.27 4.695-4.07zm-4.795 4.075c-.975.055-1.95.095-2.88.09.415-3.25 2.465-6.05 5.53-6.3.34.345.675.675.995.995-3.44.48-3.655 4.165-3.645 5.215zm9.465-15.885c.01.04.015.085.02.125-5.205-1.355-8.225 2.355-9.05 5.31-.26-.27-.525-.535-.785-.8.215-5.97 6.355-6.925 9.13-7.01.275.715.51 1.5.685 2.375zm-7.78 6.72c.12-2.9 2.22-6.04 7.845-6.355.13.785.195 1.64.21 2.535-3.27-.575-6.425 1.58-7.315 4.585-.245-.25-.49-.505-.74-.765zm6.875-9.635c-3.52-1.13-9.505.945-10.01 6.43-.33-.335-.655-.665-.975-.985-.145-6.89 6.725-7.425 9.815-7.465.435.58.83 1.25 1.17 2.02zm-12.185 4.23c-.305-.305-.59-.595-.87-.875-.155-1.345.105-3.525 1.875-5.375 1.81-1.895 5.04-2.31 7.33-2.355.77.425 1.515.995 2.19 1.755-5.44-1.11-10.655 2.27-10.525 6.85zm-.02-7.105c-1.305 1.275-2.145 3.195-1.985 5.1-.49-.49-.91-.905-1.235-1.235.165-2.76 2.24-5.55 5.385-6.29 1.005-.235 2.77-.33 4.615.25-2.33-.005-5.07.505-6.78 2.175zm-9.46 17.4c-.06-2.225.13-6.29 2.35-8.415 1.765-1.685 3.825-2 5.18-1.895.355.36.71.725 1.065 1.085-4.82-.28-8.375 5.35-6.905 11.04-.695-.56-1.25-1.175-1.69-1.815zm9.77-8.03c.315.325.63.645.945.965-5.76.46-7.81 6.93-6.39 10.395-.83-.335-1.545-.725-2.165-1.16.015-2.875.275-10.45 7.61-10.2zm-5.045 11.52c.025-2.6.81-9.26 7.07-9.445.255.265.51.525.765.78-3.015.83-6.825 3.95-5.25 9.34-.145-.025-.29-.05-.43-.075-.79-.16-1.505-.365-2.155-.6zm9.06-7.41c.25.255.5.51.745.76-3.045.935-5.19 4.2-4.475 7.53-.915-.01-1.795-.06-2.6-.18.23-5.805 3.4-7.97 6.33-8.11zm8.74 1.925c-1.665-.185-2.795.885-3.11 2.015-.15-.17-.305-.34-.465-.515-.435-3.03 2.585-4.475 3.815-4.935-.07 1.16-.16 2.32-.24 3.435zm.25-3.61c-1.29.025-4.675.425-5.02 3.825-.32-.34-.645-.685-.98-1.04.17-3.065 2.875-5.155 6.075-5.645.01.925-.02 1.89-.075 2.86z"/>
			<path d="m56.885 99.6749c-3.675-2.2-6.96-1.625-7.88-1.395-3.355.84-5.995 3.5751-6.6 6.5551-1.76-2.105-2.65-3.985-3.73-5.0701-2.01-2.01-4.595.7401-2.64 2.6901 1.075 1.075 3.065 1.545 5.575 3.685-3.21.35-6.27 3.11-7.165 6.695-.23.92-.805 4.205 1.395 7.88 1.9 3.165 4.845 5.075 8.755 5.675.855.13 1.75.185 2.685.185 1.735 0 3.59-.18 5.515-.365 2.835-.275 5.77-.56 8.335-.22l.045.005h.045c.25-.01.48-.115.645-.285.175-.165.275-.395.29-.645v-.045l-.005-.045c-.335-2.565-.055-5.5.22-8.335.285-2.96.555-5.76.185-8.2-.6-3.92-2.505-6.865-5.67-8.7651zm3.625 24.6701c-1.265-.44-3.365-.375-5.735-.215.695-1.775 1.95-2.105 2.695-2.125 1.32 1.205 2.185 1.85 2.385 1.65.15-.15-.425-.96-1.445-2.15-.065-.53-.08-2.145 1.89-3.025-.165 2.415-.24 4.575.21 5.865zm-17.1-16.475c.27.27.535.54.805.81-1.845-.095-3.685.735-4.92 2-2.1 2.15-2.365 5.91-2.075 8.45-1.125-2.26-1.055-4.64-.76-5.875.8-3.39 3.995-5.545 6.95-5.385zm16.96.64c.01.04.015.085.02.125-5.205-1.355-8.225 2.355-9.05 5.31-.26-.27-.525-.535-.785-.8.215-5.97 6.355-6.925 9.13-7.01.275.715.51 1.5.685 2.375zm-5.825 10.675c-3.435.475-3.655 4.155-3.645 5.21-.975.055-1.95.095-2.88.09.415-3.25 2.465-6.05 5.53-6.3.345.35.675.68.995 1zm-1.955-3.955c.12-2.9 2.22-6.04 7.845-6.355.13.785.195 1.64.21 2.535-3.27-.575-6.425 1.58-7.315 4.585-.245-.25-.49-.505-.74-.765zm6.875-9.635c-3.52-1.13-9.505.945-10.01 6.43-.33-.335-.655-.665-.975-.985-.145-6.89 6.725-7.425 9.815-7.465.435.58.83 1.25 1.17 2.02zm-12.185 4.23c-.305-.305-.59-.595-.87-.875-.155-1.345.105-3.525 1.875-5.375 1.81-1.895 5.04-2.31 7.33-2.355.77.425 1.515.995 2.19 1.755-5.44-1.11-10.655 2.27-10.525 6.85zm-.02-7.105c-1.305 1.275-2.145 3.195-1.985 5.1-.49-.49-.91-.905-1.235-1.235.165-2.76 2.24-5.55 5.385-6.29 1.005-.235 2.77-.3301 4.615.25-2.33-.005-5.07.505-6.78 2.175zm-9.46 17.4c-.06-2.225.13-6.29 2.35-8.415 1.765-1.685 3.825-2 5.18-1.895.355.36.71.725 1.065 1.085-4.82-.28-8.375 5.35-6.905 11.04-.695-.56-1.25-1.175-1.69-1.815zm9.77-8.025c.315.325.63.645.945.965-5.76.46-7.81 6.93-6.39 10.395-.83-.335-1.545-.725-2.165-1.16.015-2.875.275-10.455 7.61-10.2zm-5.045 11.515c.025-2.6.81-9.26 7.07-9.445.255.265.51.525.765.78-3.015.83-6.825 3.95-5.25 9.34-.145-.025-.29-.05-.43-.075-.79-.16-1.505-.365-2.155-.6zm9.06-7.41c.25.255.5.51.745.76-3.045.935-5.19 4.2-4.475 7.53-.915-.01-1.795-.06-2.6-.18.23-5.805 3.4-7.97 6.33-8.11zm4.115 4.12c.205.2.405.395.6.58-1.085.42-2.035 1.585-1.755 3.245-1.145.08-2.345.175-3.54.245.34-1 1.685-4.27 4.695-4.07zm4.625-2.19c-1.665-.185-2.795.885-3.11 2.015-.15-.165-.305-.34-.465-.515-.435-3.03 2.585-4.475 3.815-4.935-.07 1.155-.16 2.32-.24 3.435zm.25-3.615c-1.29.025-4.675.425-5.02 3.825-.32-.34-.645-.685-.98-1.04.17-3.065 2.875-5.155 6.075-5.645.01.925-.02 1.89-.075 2.86z"/>
			<path d="m1.84998 60.7149-.005.045v.045c.01.25.115.48.285.645.165.175.395.275.645.29h.045l.045-.005c2.565-.335 5.5-.055 8.33502.22 1.925.185 3.78.365 5.515.365.935 0 1.83-.05 2.685-.185 3.91-.6 6.855-2.51 8.755-5.675 2.205-3.675 1.625-6.96 1.395-7.88-.895-3.585-3.95-6.35-7.165-6.695 2.515-2.145 4.5-2.61 5.575-3.685 1.955-1.955-.635-4.7-2.64-2.69-1.08 1.08-1.97 2.965-3.73 5.07-.605-2.98-3.245-5.715-6.6-6.555-.92-.23-4.205-.805-7.88002 1.395-3.16 1.905-5.065 4.85-5.665 8.76-.375 2.44-.105 5.235.185 8.2.27 2.835.555 5.77.22 8.335zm25.69002-11.705c.29 1.235.365 3.615-.76 5.875.295-2.54.025-6.305-2.075-8.45-1.235-1.265-3.075-2.095-4.92-2 .27-.27.54-.545.805-.81 2.955-.165 6.15 1.99 6.95 5.385zm-23.91002-4.75c.175-.875.41-1.665.68-2.375 2.775.085 8.91502 1.04 9.13002 7.01-.26.265-.52.535-.785.8-.825-2.96-3.84502-6.67-9.05002-5.31.01-.04.02-.085.025-.125zm6.82002 9.68c3.065.25 5.115 3.05 5.53 6.3-.935.005-1.905-.035-2.88-.09.01-1.055-.205-4.735-3.64502-5.21.32-.325.65002-.66.99502-1zm-6.88502-9.31c5.625.31 7.72502 3.455 7.84502 6.355-.25.255-.495.515-.74.77-.89002-3.005-4.04502-5.16-7.31502-4.585.015-.905.08-1.76.21-2.54zm5.86 8.42c-.335.355-.665.7-.98 1.04-.345-3.405-3.73-3.8-5.02-3.825-.055-.97-.085-1.935-.075-2.855 3.2.485 5.905 2.575 6.075 5.64zm-2.17 2.33c-.16.175-.315.345-.465.515-.32-1.13-1.45-2.2-3.11-2.015-.08-1.115-.17-2.28-.24-3.435 1.23.455 4.25 1.9 3.815 4.935zm-3.555-1.155c1.97.88 1.955 2.495 1.89 3.025-1.02 1.195-1.595 2-1.445 2.15.2.2 1.065-.445 2.385-1.65.745.02 2.005.35 2.695 2.125-2.365-.16-4.465-.22-5.735.215.45-1.285.375-3.445.21-5.865zm4 2.425c.195-.185.395-.38.6-.58 3.00502-.2 4.35502 3.07 4.69502 4.07-1.195-.07-2.395-.17-3.54002-.245.285-1.66-.67-2.825-1.755-3.245zm3.96502-3.94c.245-.25.495-.5.745-.76 2.935.14 6.1 2.305 6.33 8.105-.805.12-1.685.17-2.6.18.715-3.33-1.43-6.59-4.475-7.525zm1.975-2.015c.25-.26.505-.52.765-.78 6.26.185 7.045 6.85 7.07 9.445-.65.235-1.365.44-2.15.595-.14.03-.285.055-.43.075 1.57-5.385-2.24-8.505-5.255-9.335zm1.845-1.885c.315-.32.63-.645.945-.965 7.335-.255 7.595 7.325 7.605 10.2-.62.435-1.335.83-2.165 1.16 1.425-3.465-.625-9.935-6.385-10.395zm2.12-2.165c.355-.36.71-.725 1.065-1.085 1.355-.105 3.415.21 5.18 1.895 2.22 2.125 2.41 6.19 2.35 8.415-.44.64-.995 1.255-1.69 1.815 1.47-5.69-2.09-11.32-6.905-11.04zm1.12-3.075c.16-1.905-.68-3.825-1.985-5.1-1.71-1.67-4.45-2.18-6.77502-2.17 1.84002-.58 3.60502-.49 4.61502-.25 3.145.74 5.22 3.53 5.385 6.29-.33.325-.75.74-1.24 1.23zm-10.33502-6.6c2.29002.045 5.51502.46 7.33002 2.355 1.77 1.85 2.03 4.03 1.875 5.375-.28.28-.57.57-.87.875.13-4.58-5.09-7.965-10.52502-6.855.675-.75 1.42-1.325 2.19-1.75zm7.13002 9.82c-.32.32-.645.65-.975.985-.505-5.48-6.49502-7.555-10.01002-6.43.34-.77.735-1.445 1.17-2.02 3.09.04 9.96002.575 9.81502 7.465z"/>
			<path d="m35.8551 98.455c1.645 0 2.53-.775 2.53-2.105s-.775-2.14-2.425-2.14c-.74 0-1.71.28-2.55.655.36-.81.625-1.74.625-2.47 0-1.645-.78-2.53-2.105-2.53s-2.14.775-2.14 2.425c0 .76.29 1.755.68 2.605-.855-.39-1.845-.68-2.605-.68-1.645 0-2.425.815-2.425 2.14s.885 2.105 2.53 2.105c.735 0 1.665-.265 2.47-.625-.375.84-.655 1.81-.655 2.55 0 1.645.815 2.425 2.14 2.425s2.105-.885 2.105-2.53c0-.715-.25-1.62-.6-2.42.805.345 1.71.595 2.425.595z"/>
			<path d="m22.4 106.145c2.54-2.185 4.545-2.65 5.63-3.735 1.955-1.955-.635-4.7001-2.64-2.6901-1.09 1.0901-1.985 2.9951-3.775 5.1201-.605-2.985-3.245-5.7201-6.6-6.5601-.92-.23-4.205-.805-7.88 1.395-3.165 1.9001-5.075 4.8451-5.675 8.7551-.375 2.44-.105 5.235.185 8.2.275 2.84.56 5.77.22 8.335-.005.03-.005.065-.005.095.01.25.115.48.29.645.165.175.395.275.645.285.03 0 .06 0 .095-.005 2.565-.335 5.5-.055 8.335.22 1.925.185 3.765.36 5.5.36.355 0 .71-.01 1.055-.025.03 0 .06.005.095 0l.24-.02c.13-.005.255-.015.38-.025.06-.005.12-.025.17-.05.59-.09 1.125-.23 1.615-.36 1.905-.52 2.44-1.31 2.58-1.625.14-.31.085-.54.02-.675-.205-.41-.7-.45-1.275-.49-.135-.01-.275-.02-.41-.035-1.68-.195-3.145-1.645-3.195-3.17-.06-1.805 1.22-3.22 3.035-3.365.93-.075 1.775.17 2.38.69.58.5.915 1.22.975 2.085.03.455-.08 1.295-.29 1.78-.13.305-.27.595-.39.845-.37.77-.595 1.235-.205 1.59.42.38 1.58.12 2.63-.6.255-.18.505-.38.735-.605.53-.505 1.015-1.195 1.475-2.09.37-.66.675-1.35.9-2.025 0-.005.015-.035.015-.035.01-.025.02-.055.025-.08.59-1.835.695-3.815.29-5.435-.9-3.595-3.96-6.355-7.175-6.7zm-3.66 1.67c.155-1.905-.68-3.82-1.985-5.095-1.71-1.67-4.45-2.18-6.775-2.17 1.84-.5801 3.605-.49 4.615-.25 3.145.74 5.22 3.53 5.385 6.285-.335.33-.755.745-1.24 1.23zm-15.095.695c.175-.875.41-1.665.68-2.375 2.775.085 8.915 1.04 9.13 7.005-.26.265-.52.535-.785.8-.825-2.96-3.85-6.665-9.05-5.31.01-.035.015-.08.025-.12zm-.065.37c5.625.31 7.725 3.45 7.845 6.35-.25.255-.495.515-.74.77-.89-3.005-4.045-5.16-7.315-4.585.015-.9.08-1.755.21-2.535zm4.825-7.66c2.29.045 5.515.46 7.33 2.355 1.77 1.85 2.03 4.025 1.875 5.37-.28.28-.57.57-.87.875.125-4.58-5.09-7.96-10.525-6.85.675-.75 1.42-1.325 2.19-1.75zm7.125 9.82c-.32.32-.645.65-.975.985-.505-5.48-6.49-7.555-10.01-6.425.34-.77.735-1.445 1.17-2.02 3.095.035 9.96.57 9.815 7.46zm-6.09 6.26c-.335.355-.665.7-.98 1.04-.345-3.4-3.73-3.8-5.02-3.825-.055-.97-.085-1.935-.075-2.855 3.2.485 5.905 2.575 6.075 5.64zm-2.175 2.33c-.16.175-.315.345-.465.515-.32-1.13-1.45-2.2-3.115-2.015-.08-1.115-.17-2.28-.24-3.435 1.24.455 4.26 1.9 3.82 4.935zm-3.555-1.155c1.975.885 1.955 2.505 1.89 3.03-.99 1.165-1.55 1.95-1.4 2.095.195.195 1.045-.425 2.33-1.6.745.02 2.01.345 2.705 2.125-2.365-.16-4.465-.22-5.735.22.45-1.29.375-3.45.21-5.87zm4 2.425c.195-.185.395-.38.6-.58 3.01-.205 4.355 3.065 4.7 4.07-1.195-.07-2.395-.165-3.54-.245.285-1.665-.675-2.83-1.76-3.245zm1.755-1.715.995-.995c3.065.25 5.115 3.045 5.53 6.295-.935.005-1.905-.03-2.88-.09.01-1.06-.21-4.735-3.645-5.21zm2.215-2.23c.245-.25.495-.5.745-.76 1.37.065 2.785.575 3.935 1.685-.29.695-.445 1.46-.42 2.275.06 1.8 1.025 3.255 2.53 4.055-.625.115-1.27.21-1.98.27h-.335c.71-3.325-1.43-6.585-4.475-7.525zm5.3-.17c-1.015-.92-2.225-1.53-3.33-1.835.255-.26.515-.525.775-.79 1.675.05 2.955.57 3.935 1.35-.54.34-1.005.77-1.38 1.275zm2.745-1.9c-1.07-.995-2.475-1.69-4.225-1.83.31-.32.625-.64.94-.965 2.92-.1 4.72 1.04 5.83 2.635-.45-.07-.92-.095-1.4-.055-.4.035-.78.11-1.145.215zm5.035.97c-.225-.195-.47-.36-.725-.51-1.195-2.735-3.59-4.62-6.42-4.455.355-.36.71-.72 1.065-1.085 1.355-.105 3.42.21 5.18 1.895 1.62 1.55 2.16 4.135 2.31 6.28-.28-.825-.755-1.56-1.41-2.125zm-.045-5.17c-1.235-1.265-3.075-2.095-4.925-2 .27-.27.54-.545.805-.815 2.96-.165 6.155 1.99 6.955 5.39.29 1.23.36 3.6-.76 5.855.29-2.54.02-6.29-2.075-8.43z"/>
		</g>
		<g fill="#E5CF45">
			<path d="m41.1749 21.3501c-2.78 2.585-4.99 3.04-6.145 4.195-1.955 1.955.635 4.7 2.64 2.69 1.175-1.175 2.12-3.285 4.195-5.605.395 2.875 2.91 5.73 6.265 6.565 1.78.445 4.655.355 7.47-1.335 2.69-1.615 4.78-4.22 5.42-8.375.73-4.755-1.095-11.28003-.405-16.52503-.005-.125-.055-.22-.13-.285-.065-.075-.165-.125-.285-.13-5.245.69-11.77-1.135-16.525-.405-4.155.635-6.76 2.73-8.375 5.42-1.69 2.82003-1.78 5.69003-1.335 7.47003.9 3.605 4.13 6.245 7.21 6.32z" opacity=".1"/>
			<path d="m60.6199 67.3251c-.005-.125-.055-.22-.13-.285-.065-.075-.165-.125-.285-.13-5.245.69-11.77-1.135-16.525-.405-4.155.635-6.76 2.725-8.375 5.42-1.69 2.82-1.78 5.69-1.335 7.47.9 3.605 4.13 6.245 7.21 6.32-2.78 2.585-4.99 3.04-6.145 4.195-1.955 1.955.635 4.7 2.64 2.69 1.175-1.175 2.12-3.285 4.195-5.605.395 2.875 2.91 5.73 6.265 6.565 1.78.445 4.655.355 7.47-1.335 2.69-1.615 4.78-4.22 5.42-8.375.725-4.755-1.095-11.285-.405-16.525z" opacity=".1"/>
			<path d="m.974974 19.49c.634996 4.155 2.724996 6.76 5.419996 8.375 2.82 1.69 5.69003 1.78 7.47003 1.335 3.355-.835 5.875-3.695 6.265-6.565 2.075 2.315 3.02 4.43 4.195 5.605 2.01 2.01 4.595-.74 2.64-2.69-1.155-1.155-3.365-1.61-6.145-4.195 3.08-.075 6.31-2.71 7.21-6.32.445-1.78.355-4.655-1.335-7.47002-1.615-2.69-4.22-4.78-8.375-5.42-4.75-.73-11.28003 1.09-16.52003.4-.125.005-.22.055-.285.13-.075.065-.125.165-.135.29.69 5.24-1.129996 11.77002-.404996 16.52502z" opacity=".1"/>
			<path d="m6.39491 92.2251c2.82 1.69 5.68999 1.78 7.46999 1.335 3.355-.835 5.875-3.695 6.265-6.565 2.075 2.315 3.02 4.43 4.195 5.605 2.01 2.01 4.595-.74 2.64-2.69-1.155-1.155-3.365-1.61-6.145-4.195 3.08-.075 6.31-2.71 7.21-6.32.445-1.78.355-4.655-1.335-7.47-1.615-2.69-4.22-4.78-8.375-5.42-4.755-.73-11.27999 1.095-16.52499.405-.125.005-.22.055-.285.13-.075.065-.125.165-.13.285.69 5.245-1.134998 11.77-.404998 16.525.639998 4.155 2.729998 6.76 5.419998 8.375z" opacity=".1"/>
			<path d="m26.8649 29.8051c-1.645 0-2.425.815-2.425 2.14s.885 2.105 2.53 2.105c.715 0 1.62-.25 2.415-.595-.345.81-.595 1.715-.595 2.42 0 1.645.815 2.425 2.14 2.425s2.105-.885 2.105-2.53c0-.68-.225-1.525-.545-2.29.785.335 1.665.575 2.365.575 1.645 0 2.53-.78 2.53-2.105s-.775-2.14-2.425-2.14c-.74 0-1.71.28-2.55.655.36-.81.625-1.74.625-2.47 0-1.645-.78-2.53-2.105-2.53s-2.14.775-2.14 2.425c0 .76.29 1.755.68 2.605-.85-.4-1.845-.69-2.605-.69z" opacity=".1"/>
			<path d="m55.6049 35.8901c-2.82-1.69-5.69-1.78-7.47-1.335-3.355.835-5.875 3.695-6.265 6.565-2.075-2.315-3.02-4.43-4.195-5.605-2.01-2.01-4.595.74-2.64 2.69 1.155 1.155 3.365 1.61 6.145 4.195-3.08.075-6.31 2.71-7.21 6.32-.445 1.78-.355 4.655 1.335 7.47 1.615 2.69 4.22 4.78 8.375 5.42 4.755.73 11.28-1.095 16.525-.405.125-.005.22-.055.285-.13.075-.065.125-.165.13-.285-.69-5.245 1.135-11.77.405-16.525-.64-4.16-2.73-6.765-5.42-8.375z" opacity=".1"/>
			<path d="m61.0249 108.51c-.635-4.155-2.725-6.76-5.42-8.375-2.82-1.69-5.69-1.78-7.47-1.335-3.355.835-5.875 3.695-6.265 6.565-2.075-2.315-3.02-4.43-4.195-5.605-2.01-2.01-4.595.74-2.64 2.69 1.155 1.155 3.365 1.61 6.145 4.195-3.08.075-6.31 2.71-7.21 6.32-.445 1.78-.355 4.655 1.335 7.47 1.615 2.69 4.22 4.78 8.375 5.42 4.755.73 11.28-1.095 16.525-.405.125-.005.22-.055.285-.13.075-.065.125-.165.13-.285-.69-5.24 1.13-11.77.405-16.525z" opacity=".1"/>
			<path d="m1.37997 60.785c.005.125.055.22.13.285.065.075.165.125.285.13 5.245-.69 11.77003 1.135 16.52503.405 4.155-.635 6.76-2.725 8.375-5.42 1.69-2.82 1.78-5.69 1.335-7.47-.9-3.605-4.13-6.245-7.21-6.32 2.78-2.585 4.99-3.04 6.145-4.195 1.955-1.955-.635-4.7-2.64-2.69-1.175 1.175-2.12 3.285-4.195 5.605-.395-2.875-2.91-5.73-6.265-6.565-1.78-.445-4.65503-.355-7.47003 1.335-2.69 1.615-4.78 4.22-5.419996 8.375-.725 4.755 1.094996 11.285.404996 16.525z" opacity=".1"/>
			<path d="m34.8549 98.455c1.645 0 2.53-.775 2.53-2.105s-.775-2.14-2.425-2.14c-.74 0-1.71.28-2.55.655.36-.81.625-1.74.625-2.47 0-1.645-.78-2.53-2.105-2.53s-2.14.775-2.14 2.425c0 .76.29 1.755.68 2.605-.855-.39-1.845-.68-2.605-.68-1.645 0-2.425.815-2.425 2.14s.885 2.105 2.53 2.105c.735 0 1.665-.265 2.47-.625-.375.84-.655 1.81-.655 2.55 0 1.645.815 2.425 2.14 2.425s2.105-.885 2.105-2.53c0-.715-.25-1.62-.6-2.42.805.345 1.71.595 2.425.595z" opacity=".1"/>
			<path d="m28.0499 112.97c-.9-3.61-4.135-6.25-7.215-6.32 2.805-2.625 5.03-3.08 6.195-4.245 1.955-1.955-.635-4.7-2.64-2.69-1.18 1.18-2.135 3.315-4.24 5.655-.395-2.875-2.91-5.73-6.265-6.57-1.78-.445-4.65497-.355-7.46997 1.335-2.69 1.615-4.78 4.22-5.419999 8.375-.73 4.755 1.094999 11.28.404999 16.525.005.125.055.22.13.285.065.075.165.125.285.13 4.705-.62 10.44497.78 15.00997.55l.005.005c.04-.005.07-.01.11-.01.17-.01.34-.015.51-.03.005-.01.01-.02.01-.025.595-.085 1.135-.22 1.68-.37 1.925-.525 2.35-1.355 2.26-1.54s-.715-.17-1.265-.235c-1.99-.23-3.615-1.955-3.67-3.685-.07-2.1 1.415-3.75 3.53-3.92 1.075-.09 2.065.205 2.775.82.695.6 1.095 1.45 1.16 2.455.035.51-.085 1.45-.33 2.025-.395.925-.87 1.7-.73 1.82.11.1.95.06 1.955-.64l.005-.005c.22-.15.445-.33.67-.55.545-.52.995-1.22 1.38-1.965.37-.655.655-1.31.865-1.95.005-.015.01-.025.015-.04h-.005c.655-2.01.62-3.89.295-5.19z" opacity=".1"/>
		</g>
	</pattern>
	<rect width="100%" height="100%" fill="url(#pattern)"/>
</svg>
