<svg height="24" xmlns="http://www.w3.org/2000/svg">
	<defs>
		<pattern id="wave-top-pattern" width="46" height="24" patternUnits="userSpaceOnUse">
			<path d="m34.7 16.1-.1-.1c-7.5-6.57-15.7-6.55-23.2 0v.1c-3.68 3.2-7.1 4.7-11.4 4.7v2.7c4.46 0 8.11-1.5 12-4.9 7.1-6.3 14.9-6.3 22-.1l.1.1c3.9 3.4 7.5 4.9 11.9 4.9v-2.7c-4.2 0-7.7-1.5-11.3-4.7zm0-4-.1-.1c-7.5-6.56-15.7-6.54-23.2 0v.1c-3.68 3.2-7.12 4.7-11.4 4.7v2.7c4.5 0 8.11-1.5 12-4.9 7.1-6.27 14.9-6.28 22 0l.1.1c3.9 3.3 7.4 4.8 11.9 4.8v-2.7c-4.1 0-7.7-1.5-11.3-4.7zm0-3.97-.1-.11c-7.5-6.57-15.7-6.56-23.2.04-3.68 3.24-7.2 4.74-11.4 4.74v2.8c4.63 0 8.11-1.6 12-5 7.1-6.26 14.9-6.27 22 0l.1.1c3.9 3.3 7.4 4.9 11.9 4.9v-2.8c-4.1 0-7.7-1.5-11.3-4.67zm0-3.99-.1-.1c-2.2-1.9-4.4-3.24-6.6-4.04h-9.9c-2.3.805-4.5 2.16-6.7 4.07-3.68 3.26-7.16 4.73-11.4 4.73v2.8c4.56 0 8.11-1.6 12-4.96 7.1-6.265 14.9-6.275 22 0l.1.11c3.9 3.35 7.6 4.85 11.9 4.85v-2.79c-4.2 0-7.7-1.47-11.3-4.67zm0-3.985-.1-.105c0-.015-.1-.035-.1-.05h-4.1c1.2.695 2.4 1.55 3.6 2.6l.1.1c3.9 3.37 7.5 4.9 11.9 4.9v-2.8c-4.1 0-7.7-1.45-11.3-4.645zm6.3-.155h-5.3c3.4 2.5 6.8 3.67 10.3 3.6v-2.8c-1.5 0-3.4-.205-5-.8zm-23.2 24h10.4c-3.4-1.3-6.9-1.3-10.4 0zm-6.4 0h4.1c4.9-2.9 10.1-2.9 15 0h4.1c-7.5-6.6-15.7-6.6-23.2 0zm23.2-4c-7.5-6.6-15.7-6.6-23.2 0-2.16 1.9-4.37 3.3-6.61 4h5.41c.6-.4 1.2-.9 1.8-1.4 7.1-6.3 14.9-6.3 22-.1l.1.1c.6.5 1.1 1 1.7 1.4h5.4c-2.2-.8-4.4-2.1-6.5-3.9zm-22.6-17.35c1.2-1.08 2.4-1.95 3.6-2.65h-4.1c0 .03-.1.055-.1.085v.02c-3.68 3.235-7.03 4.695-11.4 4.695v2.8c4.52 0 8.11-1.55 12-4.95zm-1.7-2.65h-5.28c-1.66.585-2.94.8-5.02.8v2.8c3.91 0 6.96-1.1 10.3-3.6z" fill="#fff"/>
		</pattern>
		<linearGradient id="wave-top-gradient">
			<stop offset="0" stop-color="#eee4db"/>
			<stop offset="1" stop-color="#f9f0e7"/>
		</linearGradient>
		<mask id="wave-top-mask">
			<rect width="100%" height="100%" fill="url(#wave-top-pattern)"/>
		</mask>
	</defs>
	<rect width="100%" height="100%" mask="url(#wave-top-mask)" fill="url(#wave-top-gradient)"/>
</svg>
