<svg viewBox="0 0 268 268" xmlns="http://www.w3.org/2000/svg">
	<path d="m265.7 268c2.41-10.85 3.96-26.05-.77-40.7-11.37-35.16-42.43-53.97-92.32-55.93 1.65-20.3.39-41.01-3.67-60.03l2.28-2.21.52-2.41.51-.16c2.11 14.17 5.02 22.81 7.86 23.22 1.59.22 4.41-1.87 6.53-10.07 5.52 24.58 11 24.68 11.66 24.59 1.32-.17 6.08-4.04 6.66-18.14 9.5 19.05 15.45 24.16 17.35 24.04.51-.02.96-.29 1.35-.79 1.57-2.03 4.44-11.44 2.67-19.67-5.26-24.5-21.26-38.29-47.59-41.11 12.17-1.02 26.49 3.74 33.41 6.05 4 1.33 4.61 1.54 5.31.5.15-.22.55-.81.03-2.57-.53-1.81-2.28-5.64-8.02-9.77 8.72 1.99 14.57 2.87 18.23 3.26 9.02.97 9.53-.38 9.8-1.1.66-1.77-3.06-8.64-12.91-14.7 13.32 1.26 31.99 1.29 33.61 0l.54-.45.02-.64c.08-2.21-5.81-7.37-6.65-8.03-16.99-13.27-40.33-9.73-48-8.57-11.61 1.76-22.64 7.08-31.64 15.16 8.29-24.49.16-41.52-2.73-46.43-5.68-9.67-10.96-14.89-14.39-17.58s-6.78-4.19-8.13-3.65c-1.06.42-1.22 1.35-.92 5.52.21 2.92.65 6.72 1.25 10.7 1.02 6.75 2.88 16.72 6.11 27.86-4.6-3.86-9.77-6.74-11.31-6.65-.49.03-.93.27-1.19.66-1.18 1.72 1.86 15.15 10.16 31.09.35 1.06.62 2.04.8 2.95l-1.19.91-2.09-1.18c-15.93-28.39-40.9-43.44-66.88-40.28-15.05 1.83-24.4 5.09-29.6 7.5-4.21 1.95-8.74 4.88-8.76 6.68 0 .51.23.94.84 1.52 2.17 2.09 11.66 8.56 45.62 7.9-15.64 8.68-19.36 16.37-20.16 18.69-.62 1.81-.28 2.51-.17 2.74.97 1.96 10.79 6.89 38.65-1.57-7.54 5.51-8.87 9.2-8.12 10.77.3.63.8 1.67 9.58 1.4 4.14-.13 10.77-.63 19.38-2.25l-1.4 2.63 1.49.98c-18.93.09-41.94 5.16-53.48 26.53l-1.71 3.24.37-.13c-4.96 11.85-3.96 18.56-2.16 19.43 2.62 1.25 11.14-5.03 22.6-16.58-1.48 11.08 2.46 17.11 4.22 17.56 2.29.59 10.26-6.44 18.49-21.78.44 7.89 1.82 12.53 3.93 12.94.66.13 6.57.56 11.97-23.93l1.21-.61 1.26 2.09-1.05 3.61 3.84 8.25 4.24-3.46 3.07 5.16.33.04c.73 17.27-3.23 34.45-12.08 52.44-33.69 5.65-47.24 20.65-51.88 27.71-25.15-4.91-60-.49-76.95 28.04-7.9 13.3-5.91 28.04-2.42 38.79h262.59v-.02z" fill="#FAF7DA"/>
	<g fill="#E8EDD6">
		<path d="m195.92 182.35c-.72-.17-1.44-.34-2.16-.5-.01 0-.01 0-.02-.01-.01 0-.03-.01-.04-.01h-.01c-3.92-.87-7.91-1.57-11.93-2.11-5.05.71-10.12.31-15.15-1.23-4.8-.14-9.59-.04-14.32.3 14.2 10.16 29.24 11.34 43.63 3.56z"/>
		<path d="m146.91 184.97c19.22 17.11 40.37 17.23 59.62.38-.13-.04-.25-.09-.37-.13h-.01c-.01 0-.01 0-.02-.01-.36-.12-.72-.23-1.08-.34a145.006 145.006 0 00-5.27-1.55c-.02 0-.03-.01-.05-.01-.18-.05-.35-.09-.53-.14-16.35 11.05-33.8 9.68-49.88-4.14-2.87.27-5.71.63-8.51 1.08 1.95 1.35 3.89 2.87 5.8 4.57l.3.29z"/>
		<path d="M146.91 195.45c19.36 17.24 40.69 17.24 60.06 0l.31-.28c2.79-2.49 5.63-4.59 8.49-6.32-2.33-1-4.72-1.91-7.15-2.76-.95.76-1.9 1.54-2.84 2.38l-.31.28c-18.4 16.38-38.66 16.38-57.06 0l-.32-.28c-3.55-3.16-7.17-5.74-10.83-7.74-2.14.41-4.26.86-6.34 1.37-.05.01-.1.03-.15.04-.03.01-.05.01-.08.02-1.3.32-2.58.66-3.85 1.03h-.02c-.51.15-1 .31-1.5.47 7.22 1.54 14.37 5.38 21.26 11.51l.33.28zM58.5 208.37c1.53.03 3.06-.03 4.58-.19-1.53.01-3.06.07-4.58.19z"/>
		<path d="m82.94 210.87c2.11-1.45 4.21-3.08 6.28-4.93l.31-.28c.45-.4.91-.79 1.36-1.17 18.03-15.19 37.75-14.81 55.7 1.17l.32.28c19.36 17.24 40.69 17.24 60.06 0l.31-.28c6.42-5.72 13.07-9.43 19.79-11.16-.7-.4-1.41-.81-2.13-1.2-.02-.01-.05-.03-.07-.04-.25-.14-.49-.28-.74-.42-1.77-.95-3.6-1.83-5.46-2.69-4.36 2.12-8.67 5.05-12.88 8.81l-.31.28c-18.4 16.38-38.66 16.38-57.06 0l-.32-.28c-9.56-8.51-19.59-12.81-29.63-12.92-10.3-.11-20.62 4.19-30.42 12.92l-.31.28c-4.86 4.33-9.85 7.5-14.91 9.54-8 3.23-16.15 3.6-24.18 1.1-1.91.45-3.79.97-5.63 1.6-.03.01-.07.02-.1.04-.02.01-.03.01-.05.02-.85.29-1.7.59-2.53.92h-.01c-.38.15-.75.32-1.13.48-.05.02-.1.04-.15.07-.04.02-.08.04-.13.05 14.48 8.4 29.66 7.67 44.02-2.19z"/>
		<path d="m89.22 216.42.31-.28c18.4-16.38 38.66-16.38 57.06 0l.32.28c7.18 6.4 14.64 10.41 22.16 12.06 3.82.84 7.66 1.07 11.49.68 8.96-.9 17.87-5.15 26.41-12.75l.31-.28c10.59-9.43 21.81-13.42 32.93-11.99-.02-.02-.04-.03-.05-.05-.41-.39-.83-.78-1.26-1.17-.15-.13-.29-.27-.44-.4-.12-.1-.25-.2-.37-.3-.04-.03-.08-.06-.11-.09-.7-.6-1.43-1.2-2.18-1.79-.19-.15-.36-.31-.56-.46-.1-.08-.21-.15-.31-.22-1.04-.79-2.11-1.56-3.25-2.32-.25-.17-.52-.32-.78-.49-8.53 1.16-17 5.35-25.12 12.59l-.31.28c-18.4 16.38-38.66 16.38-57.06 0l-.32-.28c-19.36-17.24-40.69-17.24-60.06 0l-.31.28c-16.52 14.71-34.54 16.2-51.36 4.51-.71.35-1.41.71-2.1 1.09h-.01c-.05.03-.09.05-.14.08l-.01.01c-.92.51-1.83 1.05-2.71 1.61-.01.01-.02.02-.03.02-.01.01-.02.01-.03.02-.27.17-.53.36-.8.54 19 16.05 39.78 15.66 58.69-1.18z"/>
		<path d="m250.46 217.51c-.3-.56-.61-1.12-.94-1.68-.05-.08-.09-.16-.14-.24-.4-.67-.82-1.33-1.25-1.99-.08-.13-.17-.26-.26-.39-.41-.61-.83-1.21-1.27-1.81-.13-.18-.27-.36-.4-.54-.41-.55-.84-1.09-1.28-1.63-.18-.23-.37-.45-.56-.68s-.39-.45-.59-.67c-12.79-2.84-25.78 1.17-37.99 12.04l-.31.28c-6.15 5.47-12.5 9.11-18.92 10.92-7.26 2.05-14.62 1.77-21.86-.85-5.52-2-10.98-5.35-16.28-10.07l-.32-.28c-19.36-17.24-40.69-17.24-60.06 0l-.31.28c-18.4 16.38-38.66 16.38-57.06 0l-.26-.23c-.49-.44-.98-.85-1.47-1.27-.4.29-.81.58-1.2.88-.11.09-.23.17-.34.26-.52.41-1.04.84-1.54 1.27-.17.14-.33.29-.5.43-.45.39-.89.79-1.32 1.2 1.64 1.18 3.26 2.48 4.88 3.92l.26.23c19.36 17.24 40.69 17.24 60.06 0l.31-.28c18.4-16.38 38.66-16.38 57.06 0l.32.28c.35.31.71.61 1.06.91 19.08 16.31 39.99 16.02 59-.91l.21-.19.1-.09c13.86-12.33 28.78-15.37 43.17-9.1z"/>
		<path d="m88.04 230.41-.31.28c-18.4 16.38-38.66 16.38-57.06 0l-.26-.23c-2.64-2.35-5.31-4.36-8.01-6.07-.36.38-.72.77-1.07 1.16-.02.02-.04.05-.06.07l-.02.02v.01c-.8.9-1.56 1.84-2.3 2.81-.27.36-.53.73-.8 1.1 3.64 1.94 7.23 4.47 10.76 7.61l.26.23c8.89 7.92 18.2 12.19 27.55 12.84 8.72.6 17.46-1.97 25.93-7.7 2.21-1.5 4.41-3.2 6.58-5.14l.31-.28c14.94-13.3 31.11-15.8 46.52-7.5l5.6-1.97c.81-.28 1.65-.44 2.49-.49-18.29-13.91-38.06-12.83-56.11 3.25zm121.41-3.04 4.12 1.19c2.34.68 4.86.35 6.96-.89l7.27-4.32a8.801 8.801 0 015.69-1.16l9.33 1.26c2.55.34 5.12-.44 7.05-2.16l.81-.72c-13.71-5.74-27.87-3.48-41.23 6.8zm-179.04 13.57c-4.49-4-9.09-7.06-13.74-9.2-.15.24-.32.47-.46.71 0 .01-.01.01-.01.02l-.01.01c-.51.85-.99 1.7-1.46 2.55l-.18.33c-.23.42-.44.83-.66 1.25l-.48.93c-.04.09-.09.17-.13.26 5.3 2.02 10.54 5.3 15.63 9.83l.26.23c2.73 2.43 5.51 4.51 8.31 6.26.19-.11.38-.22.56-.36l3.14-2.43c.95-.73 2.09-1.1 3.25-1.11-4.66-2.05-9.27-5.06-13.76-9.06l-.26-.22z"/>
		<path d="m126.85 230.07c1.71.83 3.62 1.07 5.45.73-2.98-1.2-5.99-2.02-9-2.45l3.55 1.72zm-25.48 4.79c1.88.14 3.69-.71 4.79-2.26l2.39-3.37c-4.02 1.07-8.02 2.83-11.96 5.26l4.78.37zm-13.64 6.31c-.57.5-1.13.99-1.7 1.46a5.389 5.389 0 003.66-2.88l.24-.48c-.63.52-1.26 1.06-1.88 1.62l-.32.28zm-57.32 10.26c-5.97-5.32-12.13-8.99-18.35-11.03-.1.21-.2.42-.29.63-.05.1-.1.2-.14.31v.01c-.07.16-.13.32-.2.48-.22.52-.43 1.04-.64 1.56-.1.24-.21.49-.3.73h-.01c-.06.16-.11.32-.18.49-.07.19-.14.39-.21.58-.13.36-.27.72-.39 1.09-.02.06-.05.13-.07.19-.03.08-.06.17-.09.25 0 .01-.01.02-.01.03-.03.1-.06.2-.09.29 3.72.99 7.43 2.61 11.08 4.83l2.23-1.07c1.79-.86 3.91-.65 5.51.54l3.3 2.47c.9.67 1.95 1.01 3.01 1.05a65.77 65.77 0 01-3.92-3.21l-.24-.22zm-17.91.02a5.325 5.325 0 005.05 1.67c-1.85-.9-3.71-1.65-5.57-2.26l.52.59zm190.84-136.86c1.22-.94 2.43-1.94 3.63-3.01l.32-.28c.95-.84 1.9-1.63 2.85-2.38-.13-.16-.25-.32-.39-.47a38.932 38.932 0 00-3.84-3.95c-.04.03-.08.07-.12.1l-.32.28c-4.56 4.06-9.24 7.12-13.98 9.17.07.35.13.7.17 1.1.1.96.32 3.3.71 6.03 2.85-1.24 5.68-2.83 8.47-4.77.84-.58 1.67-1.18 2.5-1.82zm3.63-55.43.32-.28c.98-.87 1.96-1.68 2.95-2.46-5.4.47-10.46 1.65-16.12 3.96-1.45.75-2.91 1.41-4.38 1.96-1.12.54-2.25 1.1-3.43 1.73-4.19 2.21-8.22 4.96-11.97 7.92 11.03.79 22.12-3.47 32.63-12.83z"/>
		<path d="m194.5 78.24c1.77-.88 3.53-1.89 5.28-3.04 2.42-1.59 4.82-3.44 7.19-5.55l.32-.28c.58-.52 1.16-1.02 1.75-1.5 1.85-1.53 3.72-2.9 5.6-4.1 5.72-3.67 11.57-5.83 17.44-6.47-1.75-.29-3.62-.53-5.64-.68-4.42-.33-8.33-.49-12.01-.41-2.91 1.79-5.8 3.93-8.64 6.46l-.32.28c-11.08 9.86-22.83 13.78-34.44 11.77-2.22 1.91-4.3 3.86-6.23 5.8 9.86 3.34 19.92 2.59 29.7-2.28z"/>
		<path d="m244.11 61.18c-8.24-1.91-16.56-.97-24.71 2.82 11.63.88 27.33 3.56 28.18 1.51.46-1.1-.74-2.74-3.47-4.33zm-45.24 38.33c-7.02 4.67-14.24 7.05-21.46 7.15.59 2.24.86 4.83 1.05 7.32 1.94-.08 3.89-.32 5.83-.72 2.09-.43 4.18-1.04 6.26-1.83 4.69-1.8 9.34-4.53 13.89-8.2a40.612 40.612 0 00-5.57-3.72zm-45.18 1.9.75-2.29c-.72-.49-1.44-1.01-2.15-1.55.2 2.87 1.4 3.84 1.4 3.84zm2.97 0s.39-.09 1.05-.22c-.49-.28-.97-.57-1.45-.88l.4 1.1zm23.92 22.53c1.79-.07 2.59-3.91 3.18-7.46-1.69.34-3.39.56-5.09.64.26 3.86.54 6.87 1.91 6.82zm30.87-13.37c-1.9 1.34-3.79 2.84-5.66 4.51l-.32.28-.62.53c-1.37 1.19-2.76 2.3-4.15 3.31-2.6 1.89-5.24 3.47-7.89 4.72.42 2.38.97 4.81 1.69 6.74 2.07-1.03 4.13-2.25 6.17-3.65 2.12-1.45 4.22-3.09 6.3-4.95l.32-.28c.16-.15.33-.28.49-.42 2.4-2.1 4.84-3.92 7.29-5.46a55.784 55.784 0 00-3.62-5.33zm-13.83 23.85c1.65.05 2.44-1.88 2.81-4.52-1.59 1.14-3.2 2.16-4.81 3.06.57.89 1.24 1.44 2 1.46zm18.66-16.41c-2.59 1.44-5.15 3.17-7.68 5.19.76 1.68 1.72 3.69 2.77 5.73 2.55-1.91 5.14-3.52 7.74-4.82-.76-1.95-1.7-4-2.83-6.1zm3.71 8.63c-2.55 1.14-5.08 2.56-7.59 4.26 1.11 2.03 2.28 3.98 3.4 5.53 1.88-1.13 3.77-2.11 5.67-2.92-.18-1.97-.66-4.31-1.48-6.87zm.03 12.91c.79-.36 1.29-1.44 1.47-3.06-1.36.55-2.72 1.17-4.07 1.88.99 1 1.89 1.49 2.6 1.18zm-56.53-22.84c-1.79.94-3.99 1.87-5.78 2.58a43.86 43.86 0 008.19 3.5c-.66-2.72-1.45-4.97-2.41-6.08zm4.16 17.08c-.26-2.48-.62-5.19-1.08-7.73-3.94-1.2-7.85-3.1-11.7-5.68-.54-.36-1.08-.74-1.62-1.13-1.2-.87-2.4-1.81-3.59-2.82v4.12s.17 1.65.24 4c5.79 4.6 11.74 7.68 17.75 9.24zm.29 3.15c-6.11-1.62-12.15-4.89-18.03-9.8-.02 1.47-.1 3.05-.27 4.6-.17 1.51.56 3.07 1.85 4.52 3.17 2.35 6.38 4.24 9.62 5.69 2.76.79 5.39.93 7.1.04 0-.97-.08-2.8-.27-5.05zm18.21-41.99c-9.93 2.69-20.02 1.01-29.76-5.04-1.61 2.04-2.88 3.84-3.75 5.25 3.13 2.2 6.3 3.97 9.49 5.3 4.66 1.94 9.36 2.96 14.07 3.06 6.76.14 13.52-1.62 20.15-5.29 1.7-.94 3.4-2.02 5.08-3.21-2.33-1.2-4.8-2.25-7.42-3.14-2.6 1.33-5.22 2.35-7.86 3.07zm40.1-15.56c.23-1.69-1.66-3.85-4.59-5.89-2.75 1.1-5.49 2.51-8.19 4.25-2.59 1.66-5.15 3.61-7.68 5.87l-.3.27-.01.01a62.189 62.189 0 01-3.66 3.02 54.735 54.735 0 01-4.95 3.36c2.86.63 5.58 1.36 8.03 2.08.7-.57 1.39-1.15 2.08-1.76l.32-.28c1.89-1.69 3.81-3.19 5.74-4.53-.97-.96-2.14-1.96-3.56-2.98 2.22.51 4.25.94 6.11 1.31 2.73-1.67 5.49-2.99 8.26-3.97.79-.27 1.59-.53 2.4-.76z"/>
		<path d="m203.84 82.74c1.05-.83 2.1-1.69 3.14-2.62l.32-.28c1.1-.98 2.21-1.9 3.33-2.77 2.73-2.12 5.5-3.87 8.29-5.28a43.228 43.228 0 00-7.37-3.22 65.07 65.07 0 00-5.74 4.56l-.32.28c-.85.76-1.71 1.47-2.56 2.15a55.759 55.759 0 01-5.48 3.89c-2.47 1.53-4.96 2.78-7.47 3.75-5.44 2.1-10.95 2.88-16.45 2.33-3.64-.36-7.26-1.31-10.86-2.83-1.74 1.83-3.31 3.62-4.7 5.29 3.84 2.08 7.73 3.51 11.64 4.31 6.8 1.39 13.64.85 20.4-1.63-3.51-.93-7.26-1.61-11.25-2.04 4.57-.38 9.45.05 14.12.86 2.18-.98 4.35-2.15 6.5-3.54 1.48-.97 2.97-2.04 4.46-3.21z"/>
	</g>
</svg>
