<!-- 
aries: #afaf93
taurus: #85ac94
gemini: #a3a0aa
cancer: #c9ab9c
leo: #8ea582
virgo: #aa9fb7
libra: #83a097
scorpio: #a39774
sagittarius: #8f9ca7
capricorn: #c79585
aquarius: #b491ae
pisces: #8594a4
-->
<svg viewBox="0 0 128 8" xmlns="http://www.w3.org/2000/svg">
	<path d="M44.565 4.864c1.482 0 2.077-.835 2.077-1.881 0-1.039-.639-1.816-2.092-1.816h-1.758c-.523 0-.784.262-.784.785v4.547c0 .283.254.428.508.428.255 0 .509-.145.509-.428V4.864h1.54zm-1.54-.973v-1.75h1.533c.697 0 1.067.355 1.067.857 0 .5-.348.893-1.067.893h-1.533zM51.325 6.622c.094.21.283.298.472.298.262 0 .53-.181.53-.458a.471.471 0 00-.05-.21l-2.165-4.714a.79.79 0 00-.734-.458.793.793 0 00-.74.458l-2.165 4.714a.471.471 0 00-.051.21c0 .277.269.458.53.458a.497.497 0 00.472-.298l.56-1.235h2.767l.574 1.235zm-1.002-2.2h-1.904l.952-2.093.952 2.092zM54.335 4.094c.552.182 1.126.211 1.634.356.45.124.698.4.698.734 0 .458-.378.835-1.322.835-.785 0-1.279-.4-1.402-.98-.058-.204-.226-.29-.414-.29-.27 0-.567.188-.567.486 0 .073.16 1.765 2.383 1.765 1.62 0 2.39-.72 2.39-1.772 0-.923-.51-1.468-1.49-1.715-.544-.152-1.162-.203-1.525-.327-.385-.109-.581-.268-.581-.537 0-.421.436-.712 1.17-.712.711 0 1.125.29 1.256.705.08.181.247.261.428.261.27 0 .56-.189.56-.457a.38.38 0 00-.03-.153C57.292 1.479 56.53 1 55.324 1c-1.438 0-2.209.734-2.209 1.656 0 .683.407 1.184 1.22 1.438zM60.024 4.094c.552.182 1.126.211 1.634.356.45.124.697.4.697.734 0 .458-.377.835-1.322.835-.784 0-1.278-.4-1.401-.98-.059-.204-.226-.29-.415-.29-.268 0-.566.188-.566.486 0 .073.16 1.765 2.382 1.765 1.62 0 2.39-.72 2.39-1.772 0-.923-.508-1.468-1.489-1.715-.545-.152-1.162-.203-1.525-.327-.385-.109-.581-.268-.581-.537 0-.421.435-.712 1.17-.712.71 0 1.125.29 1.256.705.08.181.247.261.428.261.27 0 .56-.189.56-.457a.38.38 0 00-.03-.153C62.98 1.479 62.218 1 61.013 1c-1.439 0-2.209.734-2.209 1.656 0 .683.407 1.184 1.22 1.438zM67.115 4.864c1.481 0 2.077-.835 2.077-1.881 0-1.039-.64-1.816-2.092-1.816h-1.758c-.523 0-.784.262-.784.785v4.547c0 .283.254.428.508.428s.508-.145.508-.428V4.864h1.54zm-1.54-.973v-1.75h1.532c.698 0 1.068.355 1.068.857 0 .5-.349.893-1.068.893h-1.532zM72.884 7c1.627 0 2.891-1.257 2.891-3s-1.264-3-2.891-3-2.891 1.257-2.891 3 1.264 3 2.89 3zm0-.995c-1.032 0-1.874-.9-1.874-2.005 0-1.104.842-2.02 1.874-2.02 1.031 0 1.874.916 1.874 2.02s-.843 2.005-1.874 2.005zM79.66 4.487c.232 0 .413.152.493.305.24.457.283 1.17.734 1.867a.53.53 0 00.457.261c.298 0 .582-.225.582-.508a.467.467 0 00-.102-.284c-.436-.61-.45-1.17-.676-1.641a.767.767 0 00-.283-.32c.581-.182.923-.697.923-1.373 0-1.068-.741-1.627-2.107-1.627h-1.954c-.523 0-.784.262-.784.785V6.47c0 .298.254.45.508.45s.509-.152.509-.45V4.487h1.7zm.065-2.347c.675 0 1.053.24 1.053.64 0 .414-.349.726-.944.726H77.96V2.14h1.765zM84.236 6.52c0 .262.262.393.523.393.255 0 .516-.13.516-.392V2.155h1.395c.269 0 .406-.247.406-.494s-.137-.494-.406-.494h-3.828c-.27 0-.407.247-.407.494s.138.494.407.494h1.394v4.366z" fill="currentColor"/>
	<path d="M95.615 4.109c0-.25.203-.454.454-.454h29.056a.454.454 0 010 .908H96.069a.454.454 0 01-.454-.454zM3 4.109c0-.25.203-.454.454-.454H32.51a.454.454 0 010 .908H3.454A.454.454 0 013 4.109z" fill="currentColor" clipRule="evenodd" fillRule="evenodd"/>
</svg>
