<svg viewBox="0 0 12 12" xmlns="http://www.w3.org/2000/svg">
	<path d="M10.154 0H1.846L0 1.846v8.308L1.846 12h8.308L12 10.154V1.846L10.154 0zm.406 8.663a1.557 1.557 0 01-2.202 0 .891.891 0 00-1.257 0 1.559 1.559 0 01-2.202 0 .891.891 0 00-1.257 0 1.559 1.559 0 01-2.202 0 .334.334 0 010-.47c.13-.13.342-.13.47 0 .322.32.825.34 1.173.069-.028-.462.044-2.057 2.312-2.269V2.388a.335.335 0 01.67 0v.167l1.973.987a.274.274 0 010 .492l-1.973.988v.95c2.217.058 2.589 1.373 2.623 2.093.049.04.097.079.144.125a.891.891 0 001.257 0c.13-.13.342-.13.471 0 .13.132.13.342 0 .473z" fill="#98754D" clipRule="evenodd" fillRule="evenodd"/>
</svg>
