<svg viewBox="0 0 80 6" xmlns="http://www.w3.org/2000/svg">
	<path d="M3.057 4.984L1 2.867 3.236.565M9.94 4.984L7.882 2.867 10.117.565M16.821 4.984l-2.054-2.117L17 .565M23.704 4.984l-2.056-2.117L23.883.565M30.588 4.984L28.53 2.867 30.765.565M37.47 4.984l-2.055-2.117L37.648.565M44.352 4.984l-2.054-2.117L44.532.565M51.236 4.984l-2.057-2.117L51.413.565M58.117 4.984l-2.054-2.117L58.297.565M65 4.984l-2.054-2.117L65.18.565M71.884 4.984l-2.056-2.117L72.062.565M78.766 4.984L76.71 2.867 78.945.565" fill-opacity="0" stroke="#938666" strokeLinecap="round" strokeLinejoin="round" strokeMiterlimit="10"/>
</svg>
