<!--
top:
	0: fruit.0
	0: zodiac.0
bottom:
	0: zodiac.1
	0: fruit.1

apple:
	0: #f9f1d8
	1: #fae0ce
cherry:
	0: #f9eed6
	1: #fce7df
orange:
	0: #f9f4d4
	1: #fceece
peach:
	0: #f9f0dd
	1: #fce7df
pear:
	0: #f5f6d9
	1: #e4f4cc

aquarius:
	0: #f7f3e2
	1: #f8ece8
aries:
	0: #f5f4de
	1: #f3f1dd
cancer:
	0: #f8f4df
	1: #fceedb
capricorn:
	0: #f8f4e0
	1: #fcecd9
gemini:
	0: #f4f5df
	1: #eceee9
leo:
	0: #f5f5de
	1: #f3f6d4
libra:
	0: #f3f5df
	1: #eaf6df
pisces:
	0: #f3f4e1
	1: #eaf2e6
sagittarius:
	0: #f4f5e1
	1: #e8f3e6
scorpio:
	0: #f7f5dc
	1: #faf0d2
taurus:
	0: #ebf4d8
	1: #ebf4d8
virgo:
	0: #f5f4e2
	1: #f2f0e9
-->
<svg height="44" xmlns="http://www.w3.org/2000/svg">
	<defs>
		<pattern id="wave-bottom-pattern" width="44" height="40" patternUnits="userSpaceOnUse">
			<path d="M23.715 1.496c-.136 0-.267 0-.403-.004a.266.266 0 01-.26-.267c.005-.146.124-.267.264-.258.152 0 .304 0 .456.004.194 0 .387 0 .58-.004.14-.013.263.112.267.258a.257.257 0 01-.255.267c-.217.004-.44.004-.65.004zm-2.139-.079h-.02c-.35-.025-.7-.059-1.049-.096a.262.262 0 01-.23-.292c.016-.146.148-.254.288-.233.345.037.687.067 1.032.092a.265.265 0 01-.02.529zm4.52-.009a.258.258 0 01-.26-.241.264.264 0 01.24-.284 28.76 28.76 0 001.031-.095.26.26 0 01.288.233.262.262 0 01-.23.292c-.35.037-.7.07-1.049.1-.004-.005-.012-.005-.02-.005zm-7.287-.325c-.012 0-.029 0-.041-.004a30.11 30.11 0 01-1.036-.191.264.264 0 01.102-.517c.338.067.679.129 1.02.187a.261.261 0 01.214.305.262.262 0 01-.259.22zm10.05-.02A.268.268 0 0128.6.842a.263.263 0 01.214-.304 28.38 28.38 0 001.015-.192c.14-.03.28.062.309.204a.265.265 0 01-.202.313c-.345.07-.69.137-1.036.195-.008.005-.024.005-.041.005zm-4.277 2.191c-.135 0-.267 0-.403-.004a.262.262 0 01.004-.525h.005c.152 0 .3 0 .456.004.193 0 .387 0 .58-.004.131.012.263.112.267.258a.257.257 0 01-.255.267c-.218.004-.44.004-.654.004zm-2.138-.079h-.02c-.35-.025-.7-.058-1.049-.096a.262.262 0 01-.23-.291.263.263 0 01.288-.234c.345.038.686.067 1.032.092a.265.265 0 01-.02.53zm4.523-.012a.258.258 0 01-.259-.242.264.264 0 01.239-.283 28.76 28.76 0 001.032-.096.263.263 0 01.288.233.262.262 0 01-.23.292c-.35.037-.7.07-1.049.1-.008-.004-.012-.004-.02-.004zm-7.287-.321c-.012 0-.028 0-.04-.004a31.423 31.423 0 01-1.037-.192.264.264 0 01.103-.517c.337.067.679.13 1.02.188a.261.261 0 01.214.304.268.268 0 01-.26.22zm10.05-.022a.268.268 0 01-.258-.22.263.263 0 01.214-.304c.34-.058.678-.121 1.015-.192.14-.029.28.063.309.204a.265.265 0 01-.202.313c-.345.07-.69.137-1.036.196a.13.13 0 01-.041.004zm-12.776-.562a.354.354 0 01-.065-.008 21.585 21.585 0 01-1.016-.287.264.264 0 01-.177-.33.263.263 0 01.325-.179c.333.1.662.192 1 .28a.26.26 0 01.184.32.255.255 0 01-.25.204zm15.499-.033a.26.26 0 01-.25-.196.261.261 0 01.184-.32c.333-.088.666-.184.995-.288a.26.26 0 01.325.175.267.267 0 01-.172.329c-.338.104-.675.2-1.012.292-.025.008-.05.008-.07.008zm-18.155-.8a.246.246 0 01-.09-.017c-.264-.096-.523-.196-.782-.296l-.201-.079a.26.26 0 01-.148-.341.257.257 0 01.337-.15l.205.079c.255.1.51.196.77.291a.265.265 0 01-.09.513zm20.812-.042a.265.265 0 01-.09-.512c.192-.071.382-.142.575-.221l.395-.154a.258.258 0 01.337.15.262.262 0 01-.148.342l-.4.154-.583.225c-.029.008-.058.016-.086.016zm-9.656 3.629c-.136 0-.267 0-.403-.004a.266.266 0 01-.259-.266.255.255 0 01.263-.259c.152 0 .305 0 .457.004.193 0 .386 0 .58-.004.16-.004.263.113.267.259a.257.257 0 01-.255.266c-.218 0-.44.004-.65.004zm-2.138-.079h-.02c-.35-.025-.7-.058-1.05-.096a.262.262 0 01-.23-.291.263.263 0 01.288-.234c.346.038.687.067 1.033.092a.265.265 0 01-.021.53zm4.524-.013a.258.258 0 01-.26-.24.264.264 0 01.239-.284c.345-.025.686-.058 1.032-.096a.263.263 0 01.288.233.262.262 0 01-.23.292c-.35.038-.7.07-1.05.1-.007-.004-.016-.004-.02-.004zm-7.287-.32c-.013 0-.03 0-.042-.004a30.14 30.14 0 01-1.036-.192.264.264 0 01.103-.516c.337.066.678.129 1.02.187a.261.261 0 01.214.304.268.268 0 01-.26.221zm10.05-.02a.268.268 0 01-.26-.222.263.263 0 01.214-.304c.342-.058.679-.12 1.016-.191a.26.26 0 01.308.204.265.265 0 01-.201.312c-.346.071-.69.138-1.036.196a.138.138 0 01-.041.004zm-12.777-.563a.355.355 0 01-.066-.009 21.665 21.665 0 01-1.015-.287.264.264 0 01-.177-.33.266.266 0 01.325-.178c.333.1.662.191.999.279a.26.26 0 01.185.32.258.258 0 01-.25.205zm15.499-.034a.26.26 0 01-.251-.195.261.261 0 01.185-.321c.333-.088.666-.184.995-.288a.26.26 0 01.325.175.267.267 0 01-.173.33c-.337.104-.674.2-1.011.291-.029.004-.05.008-.07.008zm-18.159-.8a.246.246 0 01-.09-.016c-.264-.096-.523-.196-.782-.296l-.198-.08a.26.26 0 01-.148-.341.257.257 0 01.338-.15l.205.08c.255.1.51.195.77.29.135.05.205.2.155.338a.27.27 0 01-.25.175zm20.811-.041a.265.265 0 01-.09-.513c.193-.07.382-.142.575-.22l.395-.155a.258.258 0 01.337.15.262.262 0 01-.148.342l-.399.154-.584.225a.265.265 0 01-.086.017zM12.55 2.225a.256.256 0 01-.078-.012 27.156 27.156 0 00-.99-.305.267.267 0 01-.182-.325.264.264 0 01.32-.183c.338.096.675.2 1.008.308a.266.266 0 01.169.334.256.256 0 01-.247.183zm26.05-.042A.264.264 0 0138.35 2a.261.261 0 01.169-.33c.337-.107.67-.207 1.011-.303a.259.259 0 01.32.183.26.26 0 01-.18.325c-.333.096-.662.192-.991.3-.029.004-.054.008-.078.008zM9.861 1.488c-.02 0-.037 0-.058-.005a27.414 27.414 0 00-1.015-.208.265.265 0 01.095-.52c.345.066.686.137 1.031.212.14.033.23.17.198.316a.253.253 0 01-.251.205zm31.425-.03a.263.263 0 01-.255-.208.26.26 0 01.197-.312c.346-.075.687-.146 1.033-.209a.257.257 0 01.304.213.267.267 0 01-.21.308c-.341.063-.678.133-1.015.208-.013-.004-.033 0-.054 0zm1.135 1.63a.259.259 0 01-.226-.209.265.265 0 01.205-.312c.346-.071.691-.134 1.037-.192a.264.264 0 01.086.52c-.341.06-.679.122-1.02.188-.029.005-.053.005-.082.005zM7.118 1h-.033A28.738 28.738 0 006.057.883a.259.259 0 01-.234-.287.26.26 0 01.284-.238c.35.034.699.071 1.048.117A.263.263 0 017.118 1zM.39.87A.261.261 0 01.133.63.258.258 0 01.366.345C.716.313 1.065.288 1.419.27c.131-.021.267.1.271.246a.264.264 0 01-.247.279C1.102.813.757.838.411.87h-.02zm3.952-.1h-.008A32.43 32.43 0 003.298.75a.26.26 0 01-.26-.263c0-.145.12-.262.264-.262.35 0 .703.008 1.053.02.144.005.255.13.25.276a.26.26 0 01-.263.25zm21.984 6c-.136 0-.267 0-.403-.003a.262.262 0 01.004-.525h.004c.152 0 .304 0 .457.004.193 0 .386 0 .58-.004h.004c.143 0 .259.116.263.258a.257.257 0 01-.255.267c-.222 0-.444.004-.654.004zm-2.138-.078h-.02c-.35-.025-.7-.059-1.05-.096a.262.262 0 01-.23-.292.263.263 0 01.288-.233c.346.037.687.067 1.032.092a.265.265 0 01-.02.529zm4.519-.012a.258.258 0 01-.26-.242.264.264 0 01.24-.284 28.76 28.76 0 001.031-.096.263.263 0 01.288.234.262.262 0 01-.23.291c-.35.038-.699.071-1.049.1-.004-.004-.012-.004-.02-.004zm-7.287-.322c-.012 0-.029 0-.04-.004-.346-.058-.692-.12-1.037-.192a.264.264 0 01.103-.516c.337.066.678.129 1.02.187a.261.261 0 01.213.304.262.262 0 01-.259.221zm10.05-.02a.268.268 0 01-.259-.221.263.263 0 01.214-.304c.341-.059.678-.121 1.016-.192a.26.26 0 01.308.204.265.265 0 01-.201.313c-.346.07-.691.137-1.037.195-.008.005-.024.005-.04.005zm-12.772-.563a.354.354 0 01-.066-.008 21.653 21.653 0 01-1.016-.288.264.264 0 01-.177-.329.266.266 0 01.325-.18c.334.1.663.193 1 .28.14.038.222.18.185.32a.258.258 0 01-.251.205zm15.495-.033a.26.26 0 01-.251-.196.261.261 0 01.185-.32c.333-.088.666-.184.995-.288a.26.26 0 01.325.175.267.267 0 01-.173.329c-.337.104-.674.2-1.011.291a.344.344 0 01-.07.009zm-18.156-.8a.246.246 0 01-.09-.017c-.263-.096-.522-.196-.781-.296l-.202-.079a.26.26 0 01-.148-.342.257.257 0 01.337-.15l.206.08c.255.1.51.195.769.291a.265.265 0 01-.09.513zm20.812-.046a.265.265 0 01-.09-.513c.193-.07.382-.141.575-.22l.395-.155a.258.258 0 01.337.15.262.262 0 01-.148.342l-.399.154-.584.225a.2.2 0 01-.086.017zm-23.431-.913a.256.256 0 01-.078-.012 27.256 27.256 0 00-.991-.304.267.267 0 01-.181-.325.264.264 0 01.32-.184c.338.096.675.2 1.008.309a.266.266 0 01.169.333.256.256 0 01-.247.183zm26.05-.041a.264.264 0 01-.25-.184.261.261 0 01.168-.329c.337-.108.67-.208 1.012-.304a.259.259 0 01.32.183.26.26 0 01-.18.325c-.333.096-.662.192-.991.3a.39.39 0 01-.079.009zm-28.735-.696c-.02 0-.037 0-.058-.004a27.437 27.437 0 00-1.016-.209.265.265 0 01.095-.52c.345.066.687.137 1.032.212.14.033.23.17.197.317a.256.256 0 01-.25.204zM7.99 2.758h-.033a28.731 28.731 0 00-1.028-.116.265.265 0 01-.239-.288.26.26 0 01.284-.237c.35.033.7.07 1.049.116.144.017.242.15.226.296a.26.26 0 01-.26.23zm-6.6-.128a.261.261 0 01-.26-.242.255.255 0 01.235-.284c.35-.033.7-.058 1.053-.075.127-.012.267.104.275.25a.264.264 0 01-.246.28 17.3 17.3 0 00-1.037.07h-.02zM.711 4.32a.255.255 0 00-.3-.212c-.135.025-.271.055-.411.084v.537c.169-.033.337-.07.506-.104a.258.258 0 00.205-.304zm4.503-1.79h-.008c-.345-.013-.69-.022-1.036-.022a.26.26 0 01-.26-.262c0-.146.12-.263.264-.263.35 0 .703.009 1.053.021.143.004.254.13.25.275a.266.266 0 01-.263.25zm22.156 6c-.135 0-.267 0-.402-.005A.262.262 0 0126.972 8h.004c.152 0 .304 0 .456.004.194 0 .387 0 .58-.004a.263.263 0 01.267.258.257.257 0 01-.255.267c-.222 0-.444.004-.653.004zm-2.138-.084h-.02c-.35-.025-.7-.058-1.049-.096a.262.262 0 01-.23-.292c.016-.145.148-.254.288-.233.345.038.686.067 1.032.092a.265.265 0 01-.02.529zm4.519-.008a.258.258 0 01-.259-.242.264.264 0 01.239-.283c.345-.025.686-.059 1.032-.096a.26.26 0 01.288.233.262.262 0 01-.23.292c-.35.037-.7.07-1.05.1-.003-.004-.011-.004-.02-.004zm-7.286-.321c-.013 0-.03 0-.041-.005a28.99 28.99 0 01-1.037-.191.264.264 0 01.103-.517c.337.067.679.13 1.02.188a.261.261 0 01.214.304.262.262 0 01-.26.22zm10.054-.021a.268.268 0 01-.26-.221.263.263 0 01.215-.304c.341-.058.678-.121 1.015-.192.14-.029.28.063.309.204a.265.265 0 01-.202.313c-.345.07-.69.137-1.036.196a.143.143 0 01-.041.004zm-12.777-.563a.356.356 0 01-.065-.008 21.653 21.653 0 01-1.016-.288.264.264 0 01-.177-.329.266.266 0 01.325-.179c.333.1.662.192 1 .28a.26.26 0 01.184.32.258.258 0 01-.25.204zM35.237 7.5a.26.26 0 01-.25-.196.261.261 0 01.184-.32c.333-.088.666-.184.995-.288a.26.26 0 01.325.175.267.267 0 01-.172.329c-.338.104-.675.2-1.012.292-.025.004-.045.008-.07.008zm-18.155-.8a.245.245 0 01-.09-.017 43.56 43.56 0 01-.782-.295l-.201-.08a.26.26 0 01-.148-.341.257.257 0 01.337-.15l.205.079c.255.1.51.196.77.292a.265.265 0 01-.09.512zm20.812-.046a.265.265 0 01-.09-.512c.192-.071.381-.142.575-.221l.395-.154a.258.258 0 01.337.15.262.262 0 01-.148.341l-.4.155-.583.225a.2.2 0 01-.086.016zm-23.432-.912a.256.256 0 01-.078-.013 27.195 27.195 0 00-.99-.304.267.267 0 01-.182-.325.266.266 0 01.321-.183c.337.095.674.2 1.008.308a.266.266 0 01-.079.517zM40.513 5.7a.264.264 0 01-.251-.183.261.261 0 01.169-.33c.337-.108.67-.208 1.011-.304a.259.259 0 01.321.184.26.26 0 01-.181.325 24.55 24.55 0 00-.991.3c-.025.004-.05.008-.078.008zm-28.736-.696c-.02 0-.037 0-.057-.004a27.423 27.423 0 00-1.016-.208.268.268 0 01-.21-.309.268.268 0 01.304-.212c.346.067.687.137 1.033.212.14.034.23.171.197.317a.256.256 0 01-.25.204zm-2.743-.487h-.032A28.709 28.709 0 007.973 4.4a.259.259 0 01-.234-.288.26.26 0 01.284-.237c.35.033.699.07 1.048.117a.263.263 0 01-.037.525zm-6.6-.13a.261.261 0 01-.259-.241.255.255 0 01.235-.284c.35-.033.699-.058 1.052-.075a.274.274 0 01.276.25.264.264 0 01-.247.28c-.345.02-.69.045-1.032.075-.012-.005-.016-.005-.025-.005zm3.825-.104H6.25c-.345-.012-.69-.02-1.036-.02A.26.26 0 014.955 4c0-.146.12-.262.263-.262.35 0 .703.008 1.053.02.144.005.255.13.25.275a.263.263 0 01-.262.25zm21.979 6c-.136 0-.267 0-.403-.004a.262.262 0 01.004-.525h.004c.152 0 .3 0 .457.004.193 0 .386 0 .58-.004.143-.012.263.113.267.258a.257.257 0 01-.255.267c-.218.004-.44.008-.654.004zm-2.138-.079h-.02c-.35-.025-.7-.058-1.05-.096a.262.262 0 01-.23-.291.263.263 0 01.288-.234c.346.038.687.067 1.032.092a.265.265 0 01-.02.53zm4.523-.008a.258.258 0 01-.259-.242.264.264 0 01.239-.283c.345-.025.686-.059 1.032-.096a.263.263 0 01.288.233.262.262 0 01-.23.292c-.35.037-.7.07-1.05.1-.008-.004-.012-.004-.02-.004zm-7.286-.321c-.013 0-.03 0-.042-.004-.345-.058-.69-.121-1.036-.192a.264.264 0 01.103-.516c.337.066.678.129 1.02.187a.261.261 0 01.214.304.262.262 0 01-.26.221zm10.049-.021a.268.268 0 01-.259-.22.263.263 0 01.214-.305c.342-.058.679-.12 1.016-.192.14-.029.28.063.308.205a.265.265 0 01-.201.312c-.346.071-.69.138-1.036.196-.013 0-.025.004-.041.004zM20.61 9.292a.355.355 0 01-.066-.009 21.653 21.653 0 01-1.015-.287.264.264 0 01-.177-.33.266.266 0 01.325-.178c.333.1.662.191.999.279a.26.26 0 01.185.32.255.255 0 01-.25.205zm15.499-.034a.26.26 0 01-.251-.195.261.261 0 01.185-.321c.333-.088.666-.184.995-.288a.26.26 0 01.325.175.267.267 0 01-.173.33c-.337.104-.674.2-1.011.291a.451.451 0 01-.07.008zm-18.155-.8a.245.245 0 01-.09-.016c-.264-.096-.523-.196-.782-.296l-.202-.08a.26.26 0 01-.148-.341.257.257 0 01.338-.15l.205.08c.255.1.51.195.77.29a.265.265 0 01-.09.512zm20.811-.045a.265.265 0 01-.09-.513c.193-.07.382-.142.576-.22l.394-.155a.258.258 0 01.337.15.262.262 0 01-.148.342l-.399.154-.583.225a.212.212 0 01-.087.017zm-23.431-.917a.255.255 0 01-.078-.013 27.261 27.261 0 00-.991-.304.267.267 0 01-.18-.325.264.264 0 01.32-.183c.337.096.674.2 1.007.308a.266.266 0 01.169.334.256.256 0 01-.247.183zm26.051-.038a.265.265 0 01-.251-.183.261.261 0 01.168-.33c.338-.107.67-.208 1.012-.303a.259.259 0 01.32.183.26.26 0 01-.18.325 27.16 27.16 0 00-.991.3.498.498 0 01-.078.008zm-28.736-.7c-.02 0-.037 0-.058-.004a27.422 27.422 0 00-1.015-.208.265.265 0 01.095-.52c.345.066.686.137 1.031.212.14.033.23.17.198.316a.256.256 0 01-.251.204zM.35 6.546a.257.257 0 01-.255-.217.27.27 0 01.21-.308 41.7 41.7 0 011.04-.175.264.264 0 01.074.52 29.135 29.135 0 00-1.07.18zm9.556-.271h-.033a28.709 28.709 0 00-1.028-.117.259.259 0 01-.234-.287.263.263 0 01.284-.238c.35.034.699.071 1.048.117.144.017.243.15.226.296a.274.274 0 01-.263.229zm-6.604-.129a.261.261 0 01-.259-.242.265.265 0 01.238-.287c.35-.034.7-.059 1.053-.075.124-.017.267.104.276.25a.264.264 0 01-.247.279c-.345.02-.69.046-1.032.075h-.029zm3.828-.104h-.008c-.345-.013-.69-.021-1.036-.021a.26.26 0 01-.26-.263c0-.145.12-.262.264-.262.35 0 .703.008 1.053.02.144.005.255.13.25.276a.266.266 0 01-.263.25zm21.98 6c-.136 0-.267 0-.403-.005a.262.262 0 01.004-.525h.004c.152 0 .3 0 .457.005.193 0 .386 0 .58-.005.14.013.263.113.267.259a.257.257 0 01-.255.266c-.222.005-.44.009-.654.005zm-2.138-.079h-.021c-.35-.025-.7-.059-1.049-.096a.262.262 0 01-.23-.292.263.263 0 01.288-.233c.345.037.687.066 1.032.091a.265.265 0 01-.02.53zm4.523-.009a.258.258 0 01-.26-.242.264.264 0 01.24-.283c.345-.025.686-.058 1.032-.096a.263.263 0 01.287.234.262.262 0 01-.23.291c-.35.038-.699.071-1.049.1-.008-.004-.016-.004-.02-.004zm-7.287-.321c-.012 0-.029 0-.04-.004a30.12 30.12 0 01-1.037-.191.264.264 0 01.103-.517c.337.067.678.13 1.02.187a.261.261 0 01.213.305.268.268 0 01-.259.22zm10.05-.02a.268.268 0 01-.259-.221.263.263 0 01.214-.304c.341-.059.679-.121 1.016-.192a.26.26 0 01.308.204.265.265 0 01-.201.313c-.346.07-.691.137-1.036.195-.013 0-.03.005-.042.005zm-12.776-.563a.354.354 0 01-.066-.008 21.617 21.617 0 01-1.016-.288.264.264 0 01-.176-.329.263.263 0 01.325-.18c.332.1.662.193.999.28a.26.26 0 01.185.32.258.258 0 01-.251.205zm15.498-.033a.26.26 0 01-.25-.196.261.261 0 01.185-.321c.333-.088.666-.183.995-.287a.26.26 0 01.325.175.267.267 0 01-.173.329c-.337.104-.674.2-1.012.291-.028.005-.049.009-.07.009zm-18.159-.8a.246.246 0 01-.09-.017 43.306 43.306 0 01-.782-.296l-.201-.079a.26.26 0 01-.148-.342.257.257 0 01.337-.15l.206.08c.255.1.51.195.769.291.136.05.205.2.156.338a.26.26 0 01-.247.175zm20.812-.047a.265.265 0 01-.09-.512c.193-.07.382-.141.575-.22l.395-.155a.258.258 0 01.337.15.262.262 0 01-.148.342l-.399.154-.584.225a.189.189 0 01-.086.017zm-23.427-.916a.254.254 0 01-.078-.012 27.241 27.241 0 00-.991-.304.267.267 0 01-.181-.325.264.264 0 01.32-.184c.338.096.675.2 1.008.309a.266.266 0 01.169.333.256.256 0 01-.247.183zm26.051-.037a.264.264 0 01-.251-.184.261.261 0 01.168-.329c.337-.108.67-.208 1.012-.304a.259.259 0 01.32.183.26.26 0 01-.18.325 27.18 27.18 0 00-.991.3.48.48 0 01-.078.009zm-28.74-.7c-.02 0-.037 0-.058-.004a27.422 27.422 0 00-1.016-.209.265.265 0 01.095-.52c.345.066.687.137 1.032.212.14.033.23.17.197.317a.253.253 0 01-.25.204zM1.415 8.28a.257.257 0 01-.255-.217.27.27 0 01.21-.309c.345-.062.69-.12 1.04-.175a.263.263 0 01.074.521c-.342.05-.683.108-1.024.17-.012.01-.029.01-.045.01zm9.363-.247h-.033a28.788 28.788 0 00-1.028-.116.259.259 0 01-.234-.288.263.263 0 01.283-.237c.35.033.7.07 1.049.116.144.017.243.15.226.296a.277.277 0 01-.263.23zm-6.604-.129a.261.261 0 01-.26-.242.265.265 0 01.24-.287c.349-.033.698-.058 1.052-.075.132-.013.267.104.276.25a.264.264 0 01-.247.28c-.346.02-.691.045-1.032.074-.013-.004-.02 0-.03 0zM8.002 7.8h-.008c-.345-.013-.69-.02-1.036-.02a.26.26 0 01-.26-.263c0-.146.12-.263.264-.263.35 0 .703.008 1.053.021.144.004.255.13.25.275a.266.266 0 01-.263.25zm21.98 6c-.136 0-.268 0-.403-.004a.266.266 0 01-.26-.267.265.265 0 01.264-.258c.152 0 .304 0 .456.004.194 0 .387 0 .58-.004a.271.271 0 01.267.258.257.257 0 01-.255.267c-.218.004-.44.004-.65.004zm-2.139-.08h-.02c-.35-.024-.7-.058-1.049-.095a.262.262 0 01-.23-.292.263.263 0 01.288-.233c.341.037.686.067 1.032.092a.265.265 0 01-.02.529zm4.519-.007a.258.258 0 01-.259-.242.264.264 0 01.239-.283c.345-.025.687-.059 1.032-.096a.263.263 0 01.288.233.262.262 0 01-.23.292c-.35.037-.7.07-1.049.1-.004-.004-.012-.004-.02-.004zm-7.286-.321c-.012 0-.029 0-.041-.005a30.32 30.32 0 01-1.037-.191.264.264 0 01.103-.517c.338.067.679.13 1.02.188a.261.261 0 01.214.304.262.262 0 01-.26.22zm10.054-.025a.268.268 0 01-.259-.221.263.263 0 01.214-.304 28.38 28.38 0 001.015-.192c.14-.03.28.063.309.204a.265.265 0 01-.202.313c-.345.07-.69.137-1.036.196a.143.143 0 01-.041.004zm-12.776-.563a.362.362 0 01-.066-.008 21.738 21.738 0 01-1.016-.288.264.264 0 01-.177-.329.266.266 0 01.325-.179c.333.1.662.192 1 .28a.26.26 0 01.184.32.254.254 0 01-.25.204zm15.494-.029a.26.26 0 01-.25-.196.261.261 0 01.184-.32c.334-.088.667-.184.996-.288a.26.26 0 01.324.175.267.267 0 01-.172.33c-.337.103-.675.2-1.012.29-.025.005-.045.01-.07.01zm-18.155-.805a.246.246 0 01-.09-.016c-.264-.096-.523-.196-.782-.296l-.201-.079a.26.26 0 01-.148-.341.257.257 0 01.337-.15l.206.079c.255.1.51.196.768.291a.265.265 0 01-.09.513zm20.812-.04a.265.265 0 01-.09-.513c.192-.071.382-.142.575-.221l.395-.154a.258.258 0 01.337.15.262.262 0 01-.148.341l-.4.155-.583.224a.2.2 0 01-.086.017zm-23.431-.918a.255.255 0 01-.079-.012 27.441 27.441 0 00-.99-.304.267.267 0 01-.181-.325.26.26 0 01.32-.184c.337.096.675.2 1.008.309a.266.266 0 01.168.333.256.256 0 01-.246.183zm-2.685-.737c-.021 0-.037 0-.058-.004a27.423 27.423 0 00-1.016-.209.265.265 0 01.095-.52c.345.066.687.137 1.032.212.14.034.23.171.197.317a.256.256 0 01-.25.204zm-12.103-.238a.257.257 0 01-.255-.216.27.27 0 01.21-.309c.346-.062.69-.12 1.04-.175a.264.264 0 01.074.52 33.582 33.582 0 00-1.069.18zm-1.591.076a.259.259 0 00-.32-.184c-.128.034-.252.075-.375.113v.55c.173-.05.341-.104.514-.155a.27.27 0 00.181-.324zm10.951-.321h-.033a28.73 28.73 0 00-1.028-.117.26.26 0 01-.235-.287.26.26 0 01.284-.238c.35.033.7.07 1.049.117.144.016.242.15.226.296a.27.27 0 01-.263.229zm-6.6-.134a.261.261 0 01-.26-.241.265.265 0 01.239-.288c.35-.033.7-.058 1.053-.075a.274.274 0 01.275.25.264.264 0 01-.247.28c-.345.02-.69.045-1.032.074h-.028zm3.824-.1h-.008a29.89 29.89 0 00-1.037-.02.26.26 0 01-.259-.263c0-.146.12-.262.264-.262.35 0 .703.008 1.052.02.144.005.255.13.251.275a.264.264 0 01-.263.25zm21.98 6c-.136 0-.268 0-.404-.004a.266.266 0 01-.259-.267c.004-.145.111-.279.263-.258.153 0 .305 0 .457.004.193 0 .386 0 .58-.004h.004c.144 0 .259.117.263.258a.257.257 0 01-.255.267c-.214.004-.436.004-.65.004zm-2.135-.078h-.02c-.35-.026-.7-.06-1.049-.097a.262.262 0 01-.23-.291c.016-.146.148-.255.287-.234.342.038.687.067 1.033.092.144.008.25.138.242.283a.271.271 0 01-.263.246zm4.519-.01a.258.258 0 01-.259-.24.264.264 0 01.239-.284c.345-.025.687-.059 1.032-.096a.263.263 0 01.288.233.262.262 0 01-.23.292c-.35.037-.7.07-1.05.1-.003-.008-.011-.004-.02-.004zm-7.286-.324c-.013 0-.03 0-.041-.004a31.423 31.423 0 01-1.037-.192.264.264 0 01.103-.517c.337.067.679.13 1.02.188a.261.261 0 01.214.304.262.262 0 01-.26.22zm10.05-.021a.268.268 0 01-.26-.22.263.263 0 01.215-.305c.34-.058.678-.12 1.015-.192.14-.029.28.063.309.205a.265.265 0 01-.202.312c-.345.07-.69.137-1.036.196-.013.004-.025.004-.041.004zm-12.773-.562a.352.352 0 01-.065-.009 21.586 21.586 0 01-1.016-.287.264.264 0 01-.177-.33.263.263 0 01.325-.179c.333.1.662.192 1 .28a.26.26 0 01.184.32.258.258 0 01-.25.204zm15.495-.033a.26.26 0 01-.25-.197.261.261 0 01.184-.32c.333-.088.666-.184.995-.288a.26.26 0 01.325.175.267.267 0 01-.172.33c-.338.103-.675.2-1.012.29-.025.01-.05.01-.07.01zm-18.155-.8a.245.245 0 01-.09-.018 42.963 42.963 0 01-.782-.295l-.201-.08a.261.261 0 01-.149-.341.257.257 0 01.338-.15l.205.079c.255.1.51.196.77.292a.265.265 0 01-.09.513zm20.811-.042a.265.265 0 01-.09-.513c.193-.07.382-.142.576-.22l.394-.155a.258.258 0 01.338.15.262.262 0 01-.148.342l-.4.154-.583.225a.213.213 0 01-.087.017zm-23.431-.918a.253.253 0 01-.078-.012 27.296 27.296 0 00-.99-.304.267.267 0 01-.182-.325.266.266 0 01.321-.183c.337.096.675.2 1.008.308a.265.265 0 01.168.334.256.256 0 01-.247.183zm-2.685-.737c-.02 0-.037 0-.057-.004a27.423 27.423 0 00-1.016-.208.268.268 0 01-.21-.309.268.268 0 01.304-.212c.346.067.687.137 1.033.212.14.034.23.171.197.317a.256.256 0 01-.25.204zm-12.106-.237a.257.257 0 01-.255-.217.27.27 0 01.21-.308c.345-.063.69-.121 1.04-.175a.263.263 0 01.074.52c-.341.05-.682.109-1.024.171-.012.009-.029.009-.045.009zm9.364-.25h-.033a28.967 28.967 0 00-1.028-.117.259.259 0 01-.235-.287.258.258 0 01.284-.238c.35.034.699.071 1.049.117.143.017.242.15.226.296a.27.27 0 01-.264.229zm-6.605-.129a.261.261 0 01-.259-.242.265.265 0 01.239-.288c.35-.033.699-.058 1.052-.075.124-.016.268.105.276.25a.264.264 0 01-.247.28c-.345.02-.69.045-1.032.075h-.029zm3.829-.1h-.009c-.345-.013-.69-.021-1.036-.021a.263.263 0 01.004-.525c.35 0 .703.008 1.053.02.144.005.255.13.25.276a.266.266 0 01-.262.25zm21.979 6c-.136 0-.267 0-.403-.005a.262.262 0 01.004-.525h.004c.152 0 .3 0 .457.005.193 0 .386 0 .58-.005a.263.263 0 01.267.259.257.257 0 01-.255.267c-.218.004-.44.004-.654.004zm-2.138-.079h-.02c-.35-.026-.7-.059-1.05-.096a.262.262 0 01-.23-.292c.017-.146.148-.254.288-.233.341.037.687.066 1.032.091a.265.265 0 01-.02.53zm4.523-.013a.258.258 0 01-.259-.242.264.264 0 01.239-.283 28.76 28.76 0 001.032-.096.26.26 0 01.288.233.262.262 0 01-.23.292c-.35.038-.7.071-1.05.1-.008-.004-.012-.004-.02-.004zm-7.286-.321c-.013 0-.03 0-.042-.004a30.12 30.12 0 01-1.036-.192.264.264 0 01.103-.516c.337.066.678.129 1.02.187a.261.261 0 01.213.304.268.268 0 01-.259.221zm10.05-.021a.268.268 0 01-.26-.22.263.263 0 01.214-.305c.342-.058.679-.12 1.016-.191a.264.264 0 01.107.516c-.346.071-.69.138-1.036.196-.013.004-.025.004-.041.004zm-12.777-.563a.353.353 0 01-.066-.008 21.617 21.617 0 01-1.015-.287.264.264 0 01-.177-.33.263.263 0 01.325-.178c.333.1.662.191.999.279a.26.26 0 01.185.32.258.258 0 01-.251.205zm15.499-.032a.26.26 0 01-.251-.196.261.261 0 01.185-.321c.333-.088.666-.184.995-.288a.26.26 0 01.325.175.267.267 0 01-.173.33c-.337.104-.674.2-1.011.291-.03.009-.05.009-.07.009zm-18.159-.8a.246.246 0 01-.091-.017c-.263-.096-.522-.196-.781-.296l-.202-.08a.26.26 0 01-.148-.34.257.257 0 01.337-.15l.206.078c.255.1.51.196.769.292.136.05.206.2.156.338a.26.26 0 01-.246.175zm20.815-.042a.265.265 0 01-.09-.513c.193-.07.382-.141.575-.22l.395-.155a.258.258 0 01.337.15.262.262 0 01-.148.342l-.399.154-.584.225c-.028.008-.057.017-.086.017zm-23.431-.916a.256.256 0 01-.078-.013 27.436 27.436 0 00-.99-.304.267.267 0 01-.182-.325.266.266 0 01.32-.184c.338.096.675.2 1.008.308a.266.266 0 01.169.334.256.256 0 01-.247.183zm-17.505-.347a.263.263 0 01-.07-.517c.337-.095.678-.183 1.02-.266a.263.263 0 01.123.512c-.337.084-.67.171-1.003.263-.02.008-.046.008-.07.008zm-.037-2.253a.265.265 0 00-.325-.184 41.14 41.14 0 00-.95.296v.529c.008 0 .016.004.025.004a.253.253 0 00.078-.012c.329-.109.658-.213.99-.309a.267.267 0 00.182-.325zm14.853 1.862c-.02 0-.037 0-.058-.005a27.422 27.422 0 00-1.015-.208.268.268 0 01-.21-.308.267.267 0 01.304-.213c.346.067.687.138 1.032.213.14.033.23.17.198.316a.25.25 0 01-.251.205zm-12.102-.238a.257.257 0 01-.255-.216.27.27 0 01.21-.309c.345-.062.69-.12 1.04-.175a.264.264 0 01.074.52c-.341.051-.683.11-1.024.172-.012.008-.029.008-.045.008zm9.364-.25h-.034a28.734 28.734 0 00-1.028-.117.26.26 0 01-.234-.287.26.26 0 01.284-.238c.35.034.699.071 1.048.117.144.017.243.15.226.296a.273.273 0 01-.263.23zm-6.605-.129a.261.261 0 01-.259-.242.265.265 0 01.239-.287c.349-.034.699-.059 1.052-.075.132-.013.268.104.276.25a.264.264 0 01-.247.279c-.345.02-.69.046-1.032.075h-.029zm3.829-.1h-.009c-.345-.012-.69-.02-1.036-.02a.26.26 0 01-.26-.263c0-.146.12-.263.264-.263.35 0 .703.009 1.053.021.144.004.255.13.25.275a.266.266 0 01-.262.25zm21.979 6c-.136 0-.267 0-.403-.004a.262.262 0 01.004-.525h.004c.152 0 .3 0 .456.004.194 0 .387 0 .58-.004.144-.013.264.112.268.258a.257.257 0 01-.255.267c-.222 0-.444.004-.654.004zm-2.138-.079h-.02c-.35-.025-.7-.058-1.05-.096a.262.262 0 01-.23-.292.263.263 0 01.288-.233 26.9 26.9 0 001.032.092.265.265 0 01-.02.529zm4.523-.013a.258.258 0 01-.26-.241.264.264 0 01.24-.284c.345-.025.686-.058 1.032-.095a.26.26 0 01.287.233.262.262 0 01-.23.291c-.35.038-.699.071-1.048.1-.009-.004-.017-.004-.021-.004zm-7.287-.32c-.012 0-.028 0-.04-.005-.346-.058-.692-.12-1.037-.191a.264.264 0 01.103-.517c.337.067.678.13 1.02.188a.261.261 0 01.213.304.268.268 0 01-.259.22zm10.05-.021a.268.268 0 01-.259-.221.263.263 0 01.214-.304c.341-.059.678-.121 1.016-.192a.26.26 0 01.308.204.265.265 0 01-.201.313c-.346.07-.691.137-1.037.195-.012.005-.028.005-.04.005zm-12.776-.562a.354.354 0 01-.066-.01 21.617 21.617 0 01-1.016-.287.264.264 0 01-.177-.329.263.263 0 01.325-.179c.333.1.662.192 1 .28a.26.26 0 01.185.32.258.258 0 01-.251.204zm15.495-.034a.26.26 0 01-.251-.196.261.261 0 01.185-.32c.333-.088.666-.184.995-.288a.26.26 0 01.325.175.267.267 0 01-.173.329c-.337.104-.674.2-1.012.292-.024.004-.045.008-.07.008zm-18.156-.8a.246.246 0 01-.09-.017 43.72 43.72 0 01-.781-.296l-.202-.079a.261.261 0 01-.148-.341.257.257 0 01.337-.15l.206.079c.255.1.51.195.769.291.136.05.205.2.156.338a.26.26 0 01-.247.175zm-2.615-.958a.256.256 0 01-.078-.013 27.04 27.04 0 00-.991-.304.267.267 0 01-.181-.325.264.264 0 01.32-.184c.338.096.675.2 1.008.309a.266.266 0 01-.078.517zm-17.505-.346a.263.263 0 01-.07-.517c.337-.096.678-.183 1.02-.267.14-.033.28.055.316.196a.26.26 0 01-.193.317c-.337.083-.67.17-1.004.262a.449.449 0 01-.07.009zM.609 16.3a.259.259 0 00-.342-.142L0 16.271v.57c.025-.008.05-.02.074-.029l.395-.162a.273.273 0 00.14-.35zM17 15.55c-.02 0-.037 0-.058-.004a27.423 27.423 0 00-1.016-.208.265.265 0 01.095-.52c.345.065.687.136 1.032.211.14.034.23.171.197.317a.256.256 0 01-.25.204zm-12.102-.237a.257.257 0 01-.255-.217.27.27 0 01.21-.308c.345-.063.69-.121 1.04-.175a.263.263 0 01.074.52c-.342.05-.683.109-1.024.171-.017.009-.033.009-.045.009zm9.359-.25h-.033a28.961 28.961 0 00-1.028-.117.259.259 0 01-.235-.288.26.26 0 01.284-.237c.35.033.7.07 1.049.117a.263.263 0 01-.037.524zm-6.6-.13a.261.261 0 01-.26-.241.265.265 0 01.24-.288c.349-.033.698-.058 1.052-.075.127-.016.267.104.275.25a.264.264 0 01-.246.28c-.346.02-.691.045-1.032.074h-.03zm3.824-.1h-.008c-.346-.012-.69-.02-1.036-.02a.263.263 0 01.004-.525c.35 0 .703.008 1.053.02.143.005.254.13.25.275a.264.264 0 01-.263.25zm21.984 6c-.136 0-.268 0-.403-.004a.262.262 0 01.004-.525h.004c.152 0 .304 0 .456.004.194 0 .387 0 .58-.004.14.009.263.113.267.259a.257.257 0 01-.255.266c-.222 0-.444.004-.653.004zm-2.139-.079h-.02c-.35-.025-.7-.058-1.049-.096a.262.262 0 01-.23-.291.265.265 0 01.288-.234 26.9 26.9 0 001.032.092c.144.008.25.137.243.283a.272.272 0 01-.264.246zm4.52-.012a.258.258 0 01-.26-.242.264.264 0 01.239-.283c.345-.025.687-.059 1.032-.096a.26.26 0 01.288.233.262.262 0 01-.23.292c-.35.037-.7.07-1.049.1-.004-.004-.012-.004-.02-.004zm-7.287-.322c-.012 0-.029 0-.041-.003a30.12 30.12 0 01-1.037-.192.264.264 0 01.103-.517c.338.067.679.13 1.02.188a.261.261 0 01.214.304.262.262 0 01-.26.22zm10.05-.02a.268.268 0 01-.26-.22.263.263 0 01.215-.305c.341-.058.678-.12 1.015-.192.14-.029.28.063.309.204a.265.265 0 01-.202.313c-.345.07-.69.137-1.036.196-.008.004-.025.004-.041.004zm-12.772-.563a.36.36 0 01-.066-.008 21.704 21.704 0 01-1.016-.287.264.264 0 01-.177-.33.266.266 0 01.325-.179c.333.1.662.192 1 .28.14.037.222.179.184.32a.259.259 0 01-.25.204zm15.494-.033a.26.26 0 01-.25-.196.261.261 0 01.184-.32c.334-.088.667-.184.996-.288a.26.26 0 01.324.175.267.267 0 01-.172.33c-.337.103-.675.2-1.012.29a.446.446 0 01-.07.01zm-18.155-.8a.246.246 0 01-.09-.017 42.963 42.963 0 01-.782-.295l-.201-.08a.26.26 0 01-.148-.341.257.257 0 01.337-.15l.205.079c.256.1.51.196.77.292a.265.265 0 01-.09.512zm-2.619-.958a.256.256 0 01-.078-.013 27.498 27.498 0 00-.991-.304.267.267 0 01-.181-.325.264.264 0 01.32-.183c.338.096.675.2 1.008.308a.266.266 0 01.168.334.256.256 0 01-.246.183zM3.055 17.7a.263.263 0 01-.07-.517c.338-.096.679-.183 1.02-.266a.263.263 0 01.123.513c-.337.082-.67.17-1.003.262a.448.448 0 01-.07.008zm14.816-.392c-.02 0-.037 0-.057-.004a27.422 27.422 0 00-1.016-.208.268.268 0 01-.21-.308.268.268 0 01.305-.213c.345.067.686.137 1.032.213.14.033.23.17.197.316a.256.256 0 01-.25.204zM5.765 17.07a.257.257 0 01-.255-.216.27.27 0 01.21-.308c.345-.063.69-.121 1.04-.175a.264.264 0 01.074.52 29.135 29.135 0 00-1.069.18zm9.364-.25h-.033a28.502 28.502 0 00-1.028-.116.26.26 0 01-.235-.287.258.258 0 01.284-.238c.35.034.699.071 1.049.117a.263.263 0 01-.037.525zm-6.605-.128a.261.261 0 01-.259-.242.265.265 0 01.239-.287c.35-.034.699-.059 1.053-.076.123-.016.267.105.275.25a.264.264 0 01-.247.28c-.345.02-.69.046-1.032.075h-.029zm3.829-.1h-.008a27.593 27.593 0 00-1.037-.021.26.26 0 01-.259-.263c0-.145.12-.262.264-.262.349 0 .703.008 1.052.02.144.005.255.13.251.276a.266.266 0 01-.263.25zm21.979 6c-.135 0-.267 0-.403-.005a.266.266 0 01-.259-.266.265.265 0 01.264-.259c.152 0 .304 0 .456.005.193 0 .386 0 .58-.005a.271.271 0 01.267.259.257.257 0 01-.255.266c-.214 0-.436 0-.65.005zm-2.138-.084h-.02c-.35-.025-.7-.058-1.05-.095a.262.262 0 01-.23-.292.265.265 0 01.288-.233c.342.037.687.066 1.033.091a.265.265 0 01-.021.53zm4.523-.008a.258.258 0 01-.259-.242.264.264 0 01.239-.283 28.76 28.76 0 001.032-.096.26.26 0 01.288.233.262.262 0 01-.23.292c-.35.038-.7.071-1.049.1-.008-.004-.012-.004-.02-.004zm-7.287-.32c-.012 0-.028 0-.04-.005-.346-.058-.691-.12-1.037-.192a.264.264 0 01.103-.516c.337.066.679.129 1.02.187a.261.261 0 01.214.304.268.268 0 01-.26.221zm10.05-.022a.268.268 0 01-.258-.22.263.263 0 01.213-.305c.342-.058.679-.12 1.016-.191.14-.03.28.062.309.204a.265.265 0 01-.202.312c-.345.071-.69.138-1.036.196a.13.13 0 01-.041.004zm-12.776-.562a.362.362 0 01-.066-.009 21.738 21.738 0 01-1.015-.287.264.264 0 01-.177-.33.266.266 0 01.325-.178c.333.1.662.191 1 .279a.26.26 0 01.184.32.255.255 0 01-.25.205zm15.499-.033a.26.26 0 01-.25-.196.261.261 0 01.184-.321c.333-.088.666-.183.995-.288a.26.26 0 01.325.175.267.267 0 01-.172.33c-.338.104-.675.2-1.012.291-.025.004-.05.009-.07.009zm-18.155-.801a.246.246 0 01-.09-.016c-.264-.096-.523-.196-.782-.296l-.201-.08a.26.26 0 01-.148-.34.257.257 0 01.337-.15l.205.078c.255.1.51.196.77.292a.265.265 0 01-.09.512zm-22.769-.425a.257.257 0 01-.243-.17.268.268 0 01.152-.342c.33-.125.658-.246.991-.363a.262.262 0 11.169.496c-.325.113-.65.23-.975.355a.162.162 0 01-.094.024zm20.149-.533a.256.256 0 01-.078-.012 27.04 27.04 0 00-.99-.305.267.267 0 01-.182-.324.264.264 0 01.321-.184c.337.096.675.2 1.008.309a.266.266 0 01-.079.516zm-17.505-.346a.263.263 0 01-.07-.517c.337-.095.679-.183 1.02-.266a.263.263 0 01.123.512c-.337.084-.67.171-1.003.263a.363.363 0 01-.07.008zm14.82-.391c-.02 0-.037 0-.057-.005a27.423 27.423 0 00-1.016-.208.265.265 0 01.095-.52c.345.066.686.137 1.032.212.14.033.23.17.197.317a.256.256 0 01-.25.204zM6.637 18.83a.257.257 0 01-.255-.217.27.27 0 01.21-.309c.345-.062.69-.12 1.04-.175.136-.02.276.08.296.221a.264.264 0 01-.222.3 29.131 29.131 0 00-1.069.18zM16 18.58h-.033a28.967 28.967 0 00-1.028-.117.259.259 0 01-.234-.288.258.258 0 01.284-.238c.35.034.699.071 1.048.117.144.017.243.15.227.296a.273.273 0 01-.264.23zm-6.604-.13a.261.261 0 01-.259-.242.265.265 0 01.239-.287c.35-.033.699-.058 1.052-.075.132-.013.268.104.276.25a.264.264 0 01-.247.28c-.345.02-.69.045-1.032.074h-.029zm3.829-.104h-.008a27.593 27.593 0 00-1.037-.021.26.26 0 01-.259-.262c0-.146.12-.263.263-.263.35 0 .704.008 1.053.02a.264.264 0 01-.012.525zm21.979 6c-.136 0-.267 0-.403-.004a.263.263 0 01-.259-.267c.004-.146.111-.28.263-.258.152 0 .3 0 .457.004.193 0 .386 0 .58-.004h.004c.144 0 .259.116.263.258a.257.257 0 01-.255.267c-.218.004-.436.004-.65.004zm-2.138-.079h-.02c-.35-.025-.7-.059-1.05-.096a.262.262 0 01-.23-.292.257.257 0 01.288-.233c.341.037.687.066 1.032.091a.265.265 0 01-.02.53zm4.524-.009a.258.258 0 01-.26-.241.264.264 0 01.239-.284 28.76 28.76 0 001.032-.096.26.26 0 01.288.234.262.262 0 01-.23.292c-.35.037-.7.07-1.05.1-.008-.005-.016-.005-.02-.005zm-7.288-.32c-.012 0-.028 0-.04-.005a30.36 30.36 0 01-1.037-.191.264.264 0 01.103-.517c.337.067.678.13 1.02.188a.261.261 0 01.213.304.268.268 0 01-.259.22zm10.051-.021a.268.268 0 01-.26-.221.263.263 0 01.214-.304 28.02 28.02 0 001.016-.192c.14-.03.28.063.309.204a.266.266 0 01-.202.313c-.346.07-.69.137-1.036.196-.013 0-.03.004-.041.004zm-12.777-.563a.354.354 0 01-.066-.008 21.617 21.617 0 01-1.016-.288.264.264 0 01-.176-.329.266.266 0 01.325-.179c.333.1.662.192.999.28a.26.26 0 01.185.32.259.259 0 01-.251.204zm-2.66-.834a.246.246 0 01-.09-.016 42.963 42.963 0 01-.782-.296l-.202-.079a.261.261 0 01-.148-.341.257.257 0 01.337-.15l.206.079c.255.1.51.196.769.291.136.05.206.2.156.338a.26.26 0 01-.246.175zM2.15 22.096a.258.258 0 01-.242-.171.262.262 0 01.148-.342c.329-.125.658-.245.991-.362a.262.262 0 11.169.496c-.325.112-.65.229-.975.354a.186.186 0 01-.09.025zm-1.504.474a.26.26 0 00-.325-.174c-.107.033-.214.058-.321.092v.55c.156-.046.313-.088.469-.134a.272.272 0 00.177-.333zM22.3 21.558a.256.256 0 01-.078-.012 27.04 27.04 0 00-.991-.304.267.267 0 01-.18-.325.266.266 0 01.32-.184c.337.096.674.2 1.007.309a.266.266 0 01-.078.516zm-17.505-.341a.263.263 0 01-.07-.517c.337-.096.678-.183 1.02-.267.14-.033.28.055.316.196a.26.26 0 01-.193.317c-.337.083-.67.17-1.003.262a.344.344 0 01-.07.009zm14.815-.397c-.02 0-.036 0-.057-.003a27.422 27.422 0 00-1.015-.209.265.265 0 01.095-.52c.345.066.686.137 1.031.212.14.033.23.17.198.317a.256.256 0 01-.251.204zm-12.101-.237a.257.257 0 01-.255-.216.27.27 0 01.21-.309c.345-.062.69-.12 1.04-.175a.264.264 0 01.074.52c-.341.051-.683.11-1.024.172a.09.09 0 01-.045.008zm9.359-.245h-.033a28.502 28.502 0 00-1.028-.117.26.26 0 01-.234-.288.26.26 0 01.284-.237c.349.033.698.07 1.048.117.144.016.243.15.226.295a.27.27 0 01-.263.23zm-6.6-.13a.261.261 0 01-.259-.241.265.265 0 01.239-.288c.35-.033.699-.058 1.052-.075.128-.017.268.104.276.25a.264.264 0 01-.247.28c-.345.02-.69.045-1.032.074h-.029zm3.824-.104h-.008c-.345-.012-.69-.02-1.036-.02a.26.26 0 01-.26-.263c0-.146.12-.263.264-.263.35 0 .703.009 1.053.021.144.004.255.13.25.275a.26.26 0 01-.263.25zm21.984 6c-.136 0-.267 0-.403-.004a.262.262 0 01.004-.525h.004c.152 0 .3 0 .457.004.193 0 .386 0 .58-.004a.263.263 0 01.267.258.257.257 0 01-.255.267c-.222.004-.444.004-.654.004zm-2.138-.079h-.021c-.35-.025-.7-.058-1.049-.096a.262.262 0 01-.23-.291.26.26 0 01.288-.234 26.9 26.9 0 001.032.092.265.265 0 01-.02.529zm4.519-.008a.258.258 0 01-.26-.242.264.264 0 01.24-.283c.345-.025.686-.059 1.031-.096a.263.263 0 01.288.233.262.262 0 01-.23.292c-.35.037-.7.07-1.049.1-.004-.004-.012-.004-.02-.004zm-7.287-.321c-.012 0-.029 0-.041-.004-.345-.059-.69-.121-1.036-.192a.264.264 0 01.102-.517c.338.067.679.13 1.02.188a.261.261 0 01.214.304.262.262 0 01-.259.22zm10.05-.021a.268.268 0 01-.259-.22.263.263 0 01.214-.305 24.9 24.9 0 001.016-.192c.14-.029.28.063.308.205a.265.265 0 01-.201.312c-.346.07-.691.137-1.037.196-.008 0-.024.004-.04.004zm-12.772-.562a.352.352 0 01-.066-.009 21.617 21.617 0 01-1.016-.287.264.264 0 01-.177-.33.266.266 0 01.325-.179c.334.1.663.192 1 .28a.26.26 0 01.185.32.258.258 0 01-.251.204zM.33 24.837a.268.268 0 01-.251-.187.267.267 0 01.173-.33c.329-.1.658-.207.987-.32a.26.26 0 01.329.167.262.262 0 01-.165.333c-.333.117-.666.225-1.003.325a.188.188 0 01-.07.012zm25.457-.557a.246.246 0 01-.09-.018 42.963 42.963 0 01-.781-.295l-.202-.08a.261.261 0 01-.148-.341.257.257 0 01.337-.15l.206.079c.255.1.51.196.769.292a.265.265 0 01-.09.512zm-22.769-.426a.258.258 0 01-.242-.17.268.268 0 01.152-.342c.329-.125.658-.246.99-.363a.26.26 0 01.334.163.262.262 0 01-.165.333c-.324.112-.65.23-.974.354a.19.19 0 01-.095.025zm20.15-.537a.253.253 0 01-.078-.013 27.296 27.296 0 00-.991-.304.267.267 0 01-.181-.325.264.264 0 01.32-.183c.338.096.675.2 1.008.308a.266.266 0 01.169.333.256.256 0 01-.247.184zm-17.501-.342a.263.263 0 01-.07-.517c.337-.096.678-.183 1.02-.266a.263.263 0 01.123.512c-.337.084-.67.171-1.003.263a.449.449 0 01-.07.008zm14.816-.395c-.02 0-.037 0-.058-.005a27.423 27.423 0 00-1.016-.208.265.265 0 01.095-.52c.345.066.687.136 1.032.211.14.034.23.171.197.317a.256.256 0 01-.25.204zm-12.107-.238a.257.257 0 01-.255-.217.27.27 0 01.21-.308c.346-.063.691-.121 1.04-.175a.263.263 0 01.075.52c-.342.05-.683.109-1.024.171-.013.009-.03.009-.046.009zm9.364-.246h-.033a28.502 28.502 0 00-1.028-.117.26.26 0 01-.235-.287.263.263 0 01.284-.238c.35.034.7.071 1.049.117.144.016.242.15.226.296a.27.27 0 01-.263.229zm-6.6-.129a.261.261 0 01-.26-.242.265.265 0 01.24-.288c.349-.033.698-.058 1.052-.075.123-.012.267.105.275.25a.264.264 0 01-.246.28c-.346.02-.691.046-1.032.075-.017-.005-.021 0-.03 0zm3.824-.104h-.008c-.345-.013-.69-.021-1.036-.021a.26.26 0 01-.26-.263c0-.146.12-.262.264-.262.35 0 .703.008 1.053.02.143.005.255.13.25.276a.267.267 0 01-.263.25zm21.98 6c-.136 0-.268 0-.403-.005a.262.262 0 01.004-.525h.004c.152 0 .304 0 .456.005.194 0 .387 0 .58-.005.144-.012.263.113.267.259a.257.257 0 01-.255.266c-.218.005-.44.005-.654.005zm-2.139-.08h-.02c-.35-.025-.7-.058-1.049-.096a.262.262 0 01-.23-.291.26.26 0 01.288-.233c.34.037.686.066 1.032.091a.265.265 0 01-.02.53zm4.524-.008a.258.258 0 01-.26-.242.264.264 0 01.239-.283 27.47 27.47 0 001.032-.096.263.263 0 01.288.234.262.262 0 01-.23.291c-.35.038-.7.071-1.049.1-.008-.004-.012-.004-.02-.004zm-7.287-.321c-.013 0-.029 0-.041-.004a30.41 30.41 0 01-1.037-.192.264.264 0 01.103-.516c.337.066.679.129 1.02.187a.261.261 0 01.214.304.268.268 0 01-.26.221zm10.05-.024a.268.268 0 01-.26-.222.263.263 0 01.215-.304c.341-.058.678-.12 1.015-.192.14-.029.28.063.309.205a.265.265 0 01-.202.312c-.345.071-.69.138-1.036.196a.124.124 0 01-.041.004zm-12.776-.563a.362.362 0 01-.066-.009 21.738 21.738 0 01-1.016-.287.264.264 0 01-.177-.33.266.266 0 01.325-.178c.333.1.662.191 1 .279a.26.26 0 01.184.32.251.251 0 01-.25.205zm-28.054-.321a.268.268 0 01-.25-.188.267.267 0 01.172-.329c.33-.1.658-.208.987-.32a.268.268 0 01.333.162.262.262 0 01-.164.333 20.96 20.96 0 01-1.004.325.149.149 0 01-.074.017zm25.398-.513a.246.246 0 01-.091-.016c-.264-.096-.523-.196-.782-.296l-.201-.08a.26.26 0 01-.148-.341.257.257 0 01.337-.15l.206.08c.254.1.51.195.768.29a.265.265 0 01-.09.512zm-22.77-.42a.257.257 0 01-.243-.171.268.268 0 01.153-.342c.329-.125.658-.246.99-.363a.262.262 0 11.169.496c-.325.113-.65.23-.974.355a.2.2 0 01-.095.024zm20.15-.538a.253.253 0 01-.078-.012 27.235 27.235 0 00-.991-.305.267.267 0 01-.181-.325.264.264 0 01.32-.183c.338.096.675.2 1.008.308a.266.266 0 01.168.334.256.256 0 01-.246.183zm-17.506-.342a.263.263 0 01-.07-.517c.337-.095.679-.183 1.02-.266a.263.263 0 01.123.512c-.337.084-.67.171-1.003.263a.355.355 0 01-.07.008zm14.82-.396c-.02 0-.037 0-.057-.004a27.422 27.422 0 00-1.016-.208.268.268 0 01-.21-.308.268.268 0 01.305-.213c.345.067.686.138 1.032.213.14.033.23.17.197.316a.256.256 0 01-.25.204zM9.248 24.1a.257.257 0 01-.255-.217.27.27 0 01.21-.308c.345-.063.69-.12 1.04-.175a.264.264 0 01.074.52c-.34.05-.682.11-1.024.172-.012.008-.028.008-.045.008zm9.364-.246h-.033a28.734 28.734 0 00-1.028-.116.26.26 0 01-.235-.288.263.263 0 01.284-.237c.35.033.699.07 1.049.116.143.017.242.15.226.296a.274.274 0 01-.263.23zm-6.604-.134a.261.261 0 01-.26-.24.265.265 0 01.239-.288c.35-.034.699-.059 1.053-.075a.271.271 0 01.275.25.264.264 0 01-.247.279c-.345.02-.69.046-1.032.075h-.028zm3.828-.1h-.008a29.89 29.89 0 00-1.037-.02.26.26 0 01-.259-.263c0-.145.12-.262.264-.262.349 0 .703.008 1.052.02.144.005.255.13.251.276a.267.267 0 01-.263.25zm21.979 6c-.135 0-.267 0-.403-.003a.262.262 0 01.004-.525h.005c.152.004.304 0 .456.004.193 0 .387 0 .58-.004.14.008.263.112.267.258a.257.257 0 01-.255.267c-.222.004-.44.004-.654.004zm-2.138-.078h-.02c-.35-.025-.7-.059-1.05-.096a.262.262 0 01-.23-.292.26.26 0 01.288-.233c.342.037.687.067 1.033.091a.265.265 0 01-.021.53zm4.523-.009a.258.258 0 01-.259-.241.264.264 0 01.239-.284c.345-.025.687-.058 1.032-.095a.263.263 0 01.288.233.262.262 0 01-.23.291c-.35.038-.7.071-1.049.1a.045.045 0 00-.02-.004zm-7.286-.325c-.013 0-.03 0-.041-.004a30.36 30.36 0 01-1.037-.192.264.264 0 01.103-.516c.337.067.679.129 1.02.187a.261.261 0 01.214.305.268.268 0 01-.26.22zM.498 28.53a.26.26 0 00-.321-.184c-.062.017-.12.033-.177.046v.546c.107-.03.21-.055.317-.084a.263.263 0 00.18-.325zm29.689.095a.354.354 0 01-.066-.008 21.617 21.617 0 01-1.015-.288.264.264 0 01-.177-.329.263.263 0 01.325-.18c.333.1.662.192.999.28a.26.26 0 01.185.32.258.258 0 01-.25.205zm-28.053-.321a.268.268 0 01-.25-.187.267.267 0 01.172-.33c.329-.1.658-.208.987-.32a.268.268 0 01.333.162.262.262 0 01-.164.333 31.08 31.08 0 01-1 .33.277.277 0 01-.078.012zm25.393-.512a.246.246 0 01-.09-.017 43.72 43.72 0 01-.782-.296l-.202-.079a.261.261 0 01-.148-.342.257.257 0 01.338-.15l.205.08c.255.1.51.195.77.291.135.05.205.2.155.338a.26.26 0 01-.246.175zm-22.765-.425a.258.258 0 01-.243-.171.268.268 0 01.152-.342c.33-.125.658-.246.991-.362a.262.262 0 11.169.496c-.325.112-.65.229-.975.354a.17.17 0 01-.094.025zm20.15-.534a.257.257 0 01-.079-.012 26.98 26.98 0 00-.99-.304.267.267 0 01-.182-.325.26.26 0 01.321-.184c.337.096.675.2 1.008.309a.266.266 0 01.168.333.256.256 0 01-.247.183zm-17.506-.341a.263.263 0 01-.07-.517c.337-.096.679-.183 1.02-.267a.263.263 0 01.123.512c-.337.084-.67.172-1.003.263-.025.005-.045.009-.07.009zm14.816-.396c-.02 0-.037 0-.058-.004a27.423 27.423 0 00-1.015-.209.265.265 0 01.095-.52c.345.066.686.137 1.032.212.14.033.23.17.197.317a.253.253 0 01-.25.204zm-12.102-.238a.257.257 0 01-.255-.216.27.27 0 01.21-.309c.345-.062.69-.12 1.04-.175a.264.264 0 01.074.52c-.341.051-.682.11-1.024.172a.09.09 0 01-.045.008zm9.36-.25h-.034a28.76 28.76 0 00-1.028-.116.26.26 0 01-.234-.288.26.26 0 01.284-.237c.35.033.699.07 1.048.116a.263.263 0 01-.037.525zm-6.6-.128a.261.261 0 01-.26-.242.265.265 0 01.239-.288c.35-.033.699-.058 1.052-.075.128-.017.268.104.276.25a.264.264 0 01-.247.28c-.345.02-.69.045-1.032.074h-.029zm3.824-.1h-.009c-.345-.013-.69-.022-1.036-.022a.26.26 0 01-.259-.262c0-.146.12-.263.263-.263.35 0 .703.009 1.053.021.144.004.255.13.25.275a.26.26 0 01-.262.25zm21.983 6c-.136 0-.267 0-.403-.005a.262.262 0 01.004-.525c.152 0 .3.004.457.004.193 0 .386 0 .58-.004a.271.271 0 01.267.258.257.257 0 01-.255.267c-.218.004-.436.004-.65.004zm-2.138-.08h-.02c-.35-.025-.7-.058-1.05-.096a.262.262 0 01-.23-.291c.017-.146.148-.255.288-.234a26.9 26.9 0 001.032.092.265.265 0 01-.02.529zm4.519-.012a.258.258 0 01-.259-.242.264.264 0 01.239-.284 28.76 28.76 0 001.032-.095.26.26 0 01.288.233.262.262 0 01-.23.292c-.35.037-.7.07-1.05.1-.003-.005-.012-.005-.02-.005zm-7.287-.321c-.012 0-.029 0-.04-.005-.346-.058-.692-.12-1.037-.191a.264.264 0 01.103-.517c.337.067.678.13 1.02.188a.261.261 0 01.213.304.262.262 0 01-.259.22zm-2.721-.584a.352.352 0 01-.067-.008 21.617 21.617 0 01-1.015-.288.264.264 0 01-.177-.329.263.263 0 01.325-.179c.333.1.662.192.999.28a.26.26 0 01.185.32.259.259 0 01-.25.204zm-28.054-.32a.268.268 0 01-.25-.188.267.267 0 01.172-.33c.329-.1.658-.208.987-.32a.262.262 0 11.169.496 21.74 21.74 0 01-1.004.325.16.16 0 01-.074.017zm25.393-.513a.246.246 0 01-.09-.017c-.264-.096-.523-.196-.782-.296l-.202-.079a.26.26 0 01-.148-.341.257.257 0 01.338-.15l.205.079c.255.1.51.196.769.292a.265.265 0 01-.09.512zM5.63 29.125a.258.258 0 01-.243-.17.268.268 0 01.152-.342c.33-.125.658-.246.991-.363a.262.262 0 11.169.496c-.325.112-.65.229-.975.354a.155.155 0 01-.094.025zm20.15-.533a.256.256 0 01-.079-.013 27.436 27.436 0 00-.991-.304.267.267 0 01-.18-.325.266.266 0 01.32-.183c.337.096.674.2 1.007.308a.266.266 0 01.169.333.256.256 0 01-.247.184zm-17.502-.346a.263.263 0 01-.07-.517c.337-.096.678-.183 1.02-.267a.263.263 0 01.123.513c-.337.083-.67.17-1.003.262-.025.009-.05.009-.07.009zm14.816-.392c-.02 0-.037 0-.058-.004a27.422 27.422 0 00-1.016-.208.265.265 0 01.095-.52c.346.066.687.136 1.032.211.14.034.23.171.198.317a.256.256 0 01-.251.204zm-12.106-.237a.257.257 0 01-.255-.217.27.27 0 01.21-.308c.345-.063.69-.121 1.04-.175a.263.263 0 01.074.52c-.341.05-.683.109-1.024.171-.012.009-.029.009-.045.009zm9.363-.25h-.033a28.967 28.967 0 00-1.028-.117.259.259 0 01-.234-.288.26.26 0 01.284-.237c.349.033.699.07 1.048.117a.263.263 0 01-.037.525zm-6.6-.129a.261.261 0 01-.26-.242.265.265 0 01.24-.288c.349-.033.699-.058 1.052-.075.123-.012.267.105.276.25a.264.264 0 01-.247.28c-.345.02-.69.045-1.032.075h-.029zm3.824-.1h-.008c-.345-.013-.69-.021-1.036-.021a.26.26 0 01-.26-.263c0-.146.12-.262.264-.262.35 0 .703.008 1.053.02.144.005.255.13.25.276a.267.267 0 01-.263.25zm21.98 6c-.136 0-.267 0-.403-.005a.266.266 0 01-.26-.266c.005-.146.112-.28.264-.259.152.005.3.005.456.005.194 0 .387 0 .58-.005h.004c.144 0 .26.117.263.259a.257.257 0 01-.255.266c-.213 0-.435.005-.65.005zm-2.139-.08h-.02c-.35-.025-.7-.058-1.049-.096a.262.262 0 01-.23-.291.263.263 0 01.288-.233c.341.037.687.066 1.032.091a.265.265 0 01-.02.53zm4.524-.012a.258.258 0 01-.26-.242.264.264 0 01.24-.283c.345-.025.686-.059 1.031-.096a.26.26 0 01.288.233.262.262 0 01-.23.292c-.35.037-.7.07-1.049.1-.008-.004-.012-.004-.02-.004zm-7.287-.321c-.012 0-.029 0-.041-.004-.346-.058-.69-.12-1.036-.192a.264.264 0 01.102-.516c.338.066.679.129 1.02.187a.265.265 0 01-.045.525zm-33.477-.212a.264.264 0 01-.255-.209.265.265 0 01.202-.312c.337-.071.674-.146 1.011-.23a.264.264 0 01.124.513 30.39 30.39 0 01-1.028.233c-.017.005-.037.005-.054.005zm.041-2.196a.261.261 0 00-.312-.196c-.3.07-.6.133-.905.196v.537c.341-.066.683-.142 1.02-.22a.263.263 0 00.197-.317zm30.71 1.825a.354.354 0 01-.066-.009 21.617 21.617 0 01-1.016-.287.264.264 0 01-.177-.33.263.263 0 01.325-.178c.333.1.662.191 1 .279a.26.26 0 01.185.32.255.255 0 01-.251.205zM3.874 31.82a.268.268 0 01-.251-.187.267.267 0 01.172-.329c.33-.1.658-.208.987-.32a.262.262 0 11.169.496c-.333.116-.666.224-1.003.324a.149.149 0 01-.074.017zm25.396-.512a.246.246 0 01-.09-.016c-.263-.096-.522-.196-.782-.296l-.201-.08a.26.26 0 01-.148-.341.257.257 0 01.337-.15l.206.08c.255.1.51.195.769.29a.265.265 0 01-.09.512zm-22.769-.425a.258.258 0 01-.242-.17.268.268 0 01.152-.342c.329-.125.658-.246.99-.363a.262.262 0 11.169.496c-.324.113-.65.23-.974.354a.162.162 0 01-.095.025zm20.149-.533a.254.254 0 01-.077-.013 27.175 27.175 0 00-.991-.304.267.267 0 01-.181-.325.266.266 0 01.32-.183c.338.096.675.2 1.008.308a.266.266 0 01.169.334.256.256 0 01-.247.183zm-17.505-.346a.263.263 0 01-.07-.517c.338-.095.679-.183 1.02-.266a.263.263 0 01.123.512 40 40 0 00-1.003.263.355.355 0 01-.07.008zm14.821-.391c-.021 0-.037 0-.058-.005a27.38 27.38 0 00-1.016-.208.265.265 0 01.095-.52c.345.066.687.137 1.032.212.14.033.23.17.198.316a.256.256 0 01-.251.204zm-12.106-.238a.257.257 0 01-.255-.217.27.27 0 01.21-.308c.345-.063.69-.12 1.04-.175a.264.264 0 01.074.52c-.342.05-.683.11-1.024.172-.013.008-.03.008-.045.008zm9.363-.25h-.033a28.708 28.708 0 00-1.028-.117.259.259 0 01-.235-.287.263.263 0 01.284-.238c.35.034.7.071 1.049.117.144.017.242.15.226.296a.27.27 0 01-.263.229zm-6.604-.129a.261.261 0 01-.26-.242.265.265 0 01.24-.287c.349-.034.698-.059 1.052-.075a.271.271 0 01.275.25.264.264 0 01-.246.279c-.346.02-.691.046-1.032.075h-.03zm3.828-.1h-.008a27.583 27.583 0 00-1.036-.021.26.26 0 01-.26-.262c0-.146.12-.263.264-.263.35 0 .703.008 1.052.02.144.005.255.13.251.276a.267.267 0 01-.263.25zm21.979 6c-.135 0-.267 0-.403-.004a.262.262 0 01.004-.525h.005c.152 0 .304.004.456.004.193 0 .387 0 .58-.004a.26.26 0 01.267.258.257.257 0 01-.255.267c-.222 0-.44.004-.654.004zm2.622-.145c-.136.009-.267.017-.403.021a.266.266 0 01-.274-.25.263.263 0 01.247-.274h.004c.152-.01.304-.015.456-.025.193-.011.386-.023.578-.04a.26.26 0 01.283.242.258.258 0 01-.239.282c-.221.013-.439.031-.652.044zm-4.76.066h-.02c-.35-.025-.7-.059-1.049-.096a.262.262 0 01-.23-.292.263.263 0 01.288-.233c.341.037.686.067 1.032.092a.265.265 0 01-.02.529zm-2.763-.334c-.012 0-.029 0-.041-.004a28.99 28.99 0 01-1.037-.191.264.264 0 01.103-.517c.338.066.679.129 1.02.187a.261.261 0 01.214.305.268.268 0 01-.26.22zM2.048 34.27a.263.263 0 01-.053-.52c.337-.07.674-.146 1.01-.23a.264.264 0 01.124.513 30.39 30.39 0 01-1.028.234c-.02 0-.037.004-.053.004zm-1.608.043a.258.258 0 00-.296-.221c-.05.008-.095.012-.144.016v.534c.074-.013.148-.017.222-.03a.266.266 0 00.218-.3zm32.359-.413a.36.36 0 01-.066-.008 21.738 21.738 0 01-1.016-.288.264.264 0 01-.177-.329.266.266 0 01.325-.18c.333.1.662.193 1 .28a.26.26 0 01.184.32.259.259 0 01-.25.205zm-28.054-.325a.268.268 0 01-.25-.188.267.267 0 01.172-.329c.33-.1.658-.208.987-.32a.268.268 0 01.333.162.262.262 0 01-.164.333 20.96 20.96 0 01-1.004.325c-.024.017-.049.017-.074.017zm25.393-.508a.246.246 0 01-.09-.017 42.963 42.963 0 01-.782-.296l-.201-.079a.26.26 0 01-.148-.342.257.257 0 01.337-.15l.205.08c.255.1.51.195.77.291.135.05.205.2.156.338a.26.26 0 01-.247.175zm-22.765-.425a.257.257 0 01-.243-.171.268.268 0 01.153-.342c.329-.125.658-.246.99-.362a.262.262 0 11.169.496c-.325.112-.65.229-.974.354a.17.17 0 01-.095.025zm20.15-.534a.257.257 0 01-.078-.012 27.374 27.374 0 00-.992-.304.267.267 0 01-.18-.325.264.264 0 01.32-.184c.337.096.675.2 1.008.309a.266.266 0 01.168.333.256.256 0 01-.246.183zm-17.506-.346a.263.263 0 01-.07-.517c.338-.095.679-.183 1.02-.266a.263.263 0 01.123.513c-.337.083-.67.17-1.003.262-.025.004-.045.008-.07.008zm14.816-.392c-.02 0-.037 0-.057-.003a27.422 27.422 0 00-1.016-.209.268.268 0 01-.21-.308.268.268 0 01.305-.213c.345.067.686.138 1.032.213.14.033.23.17.197.317a.253.253 0 01-.25.204zm-12.102-.237a.257.257 0 01-.255-.216.27.27 0 01.21-.309c.345-.062.69-.12 1.04-.175a.264.264 0 01.074.52 29.134 29.134 0 00-1.069.18zm9.364-.25h-.033a28.729 28.729 0 00-1.028-.116.259.259 0 01-.235-.288.263.263 0 01.284-.237c.35.033.7.07 1.049.116.143.017.242.15.226.296a.273.273 0 01-.263.23zm-6.605-.129a.261.261 0 01-.259-.242.265.265 0 01.239-.287c.35-.033.699-.058 1.053-.075.127-.017.267.104.275.25a.264.264 0 01-.247.28c-.345.02-.69.045-1.032.074h-.028zm3.829-.1h-.008a29.89 29.89 0 00-1.037-.02.263.263 0 01.004-.525c.35 0 .704.008 1.053.02.144.004.255.13.251.275a.266.266 0 01-.263.25zm21.979 6c-.135 0-.267 0-.403-.004a.262.262 0 01.004-.525h.005c.152.004.304.004.456.004.193 0 .386 0 .58-.004.144-.013.263.112.267.258a.257.257 0 01-.255.267c-.222 0-.44 0-.654.004zm-2.138-.084h-.02c-.35-.024-.7-.057-1.05-.095a.262.262 0 01-.23-.292.263.263 0 01.288-.233c.342.038.687.067 1.033.092a.265.265 0 01-.02.529zm-2.768-.328c-.012 0-.028 0-.04-.005a28.99 28.99 0 01-1.037-.191.264.264 0 01.103-.517c.337.067.678.13 1.02.188a.261.261 0 01.214.304.262.262 0 01-.26.22zM2.915 36.03a.264.264 0 01-.255-.21.265.265 0 01.202-.312c.337-.07.674-.146 1.012-.229a.263.263 0 01.123.512 30.39 30.39 0 01-1.028.234c-.017 0-.033.004-.054.004zm-1.78.078a.257.257 0 00-.296-.22c-.28.041-.56.075-.839.112v.533c.304-.037.613-.079.917-.125a.265.265 0 00.218-.3zm32.535-.45a.352.352 0 01-.066-.008 21.617 21.617 0 01-1.015-.288.264.264 0 01-.177-.329.266.266 0 01.325-.179c.333.1.662.192 1 .28a.26.26 0 01.184.32.259.259 0 01-.25.204zm-28.053-.325a.268.268 0 01-.25-.187.267.267 0 01.172-.33c.329-.1.658-.208.987-.32a.262.262 0 11.169.496c-.334.116-.667.225-1.004.325a.16.16 0 01-.074.016zm25.393-.508a.246.246 0 01-.09-.017 42.963 42.963 0 01-.782-.295l-.202-.08a.261.261 0 01-.148-.341.257.257 0 01.337-.15l.206.079c.255.1.51.196.77.292a.265.265 0 01-.09.512zM8.24 34.4a.257.257 0 01-.242-.17.268.268 0 01.152-.342c.33-.125.658-.246.991-.363a.262.262 0 11.169.496c-.325.112-.65.229-.975.354a.154.154 0 01-.094.025zm20.15-.533a.253.253 0 01-.078-.013 27.235 27.235 0 00-.99-.304.267.267 0 01-.182-.325.264.264 0 01.32-.183c.338.096.675.2 1.008.308a.266.266 0 01-.078.517zm-17.501-.347a.263.263 0 01-.07-.517c.337-.095.679-.182 1.02-.265a.263.263 0 01.123.512c-.337.083-.67.17-1.003.263a.485.485 0 01-.07.008zm14.816-.39c-.02 0-.037 0-.058-.005a27.422 27.422 0 00-1.015-.208.265.265 0 01.095-.52c.345.066.686.136 1.032.211.14.034.23.171.197.317a.256.256 0 01-.251.204zm-12.102-.238a.257.257 0 01-.255-.217.27.27 0 01.21-.308c.345-.063.69-.121 1.04-.175a.262.262 0 01.296.22.263.263 0 01-.222.3 30.356 30.356 0 00-1.069.18zm9.359-.25h-.033a28.708 28.708 0 00-1.028-.117.259.259 0 01-.234-.288.26.26 0 01.284-.237c.35.033.699.07 1.048.117a.263.263 0 01-.037.525zm-6.6-.129a.261.261 0 01-.259-.242.265.265 0 01.239-.288c.35-.033.699-.058 1.053-.075.123-.012.267.105.275.25a.264.264 0 01-.247.28c-.345.02-.69.045-1.032.075h-.029zm3.824-.105h-.008c-.345-.012-.69-.02-1.036-.02a.26.26 0 01-.26-.263c0-.146.12-.262.264-.262.35 0 .703.008 1.053.02a.263.263 0 01-.012.525zm22.157 6c-.136 0-.267 0-.403-.004a.262.262 0 01.004-.525h.004c.152 0 .3.004.456.004.194 0 .387 0 .58-.004.144.009.264.113.268.259a.257.257 0 01-.255.266c-.222.004-.44.004-.654.004zm-2.138-.078h-.021c-.35-.026-.7-.06-1.049-.097a.262.262 0 01-.23-.291.26.26 0 01.288-.234 26.9 26.9 0 001.032.092.265.265 0 01-.02.53zm-38.992-.1a.263.263 0 01-.029-.526 28.9 28.9 0 001.028-.133.258.258 0 01.296.22.263.263 0 01-.222.3c-.345.05-.695.096-1.044.138-.008-.004-.02 0-.029 0zM37.437 38c-.012 0-.029 0-.041-.004a30.36 30.36 0 01-1.036-.192.264.264 0 01.102-.517c.338.067.679.13 1.02.188a.261.261 0 01.214.304.262.262 0 01-.259.221zM3.96 37.788a.264.264 0 01-.255-.209.265.265 0 01.202-.312c.337-.071.674-.146 1.011-.23a.264.264 0 01.123.513 30.39 30.39 0 01-1.028.233c-.016 0-.032.005-.053.005zm30.755-.371a.354.354 0 01-.066-.009 21.617 21.617 0 01-1.016-.287.264.264 0 01-.177-.33.266.266 0 01.325-.178c.334.1.662.191 1 .279a.26.26 0 01.185.32.259.259 0 01-.251.205zm-28.053-.325a.268.268 0 01-.251-.188.267.267 0 01.173-.329c.329-.1.658-.208.987-.32a.264.264 0 01.333.162.262.262 0 01-.165.333c-.333.117-.666.225-1.003.325a.16.16 0 01-.074.017zm25.392-.509a.246.246 0 01-.09-.016 43.533 43.533 0 01-.782-.296l-.201-.08a.26.26 0 01-.148-.341.257.257 0 01.337-.15l.206.08c.255.1.51.195.769.29a.265.265 0 01-.09.513zM9.29 36.158a.258.258 0 01-.243-.17.268.268 0 01.152-.342c.329-.125.658-.246.99-.363a.26.26 0 01.334.163.262.262 0 01-.165.333c-.324.113-.65.23-.974.354a.215.215 0 01-.095.025zm20.145-.538a.255.255 0 01-.078-.012 27.045 27.045 0 00-.991-.304.267.267 0 01-.181-.325.264.264 0 01.32-.183c.338.096.675.2 1.008.308a.266.266 0 01.168.334.256.256 0 01-.246.183zm-17.501-.34a.263.263 0 01-.07-.517c.337-.096.678-.184 1.02-.267a.263.263 0 01.123.512c-.338.084-.67.171-1.004.263a.455.455 0 01-.07.008zm14.816-.397c-.021 0-.038 0-.058-.004a27.422 27.422 0 00-1.016-.208.265.265 0 01.095-.52c.345.066.687.136 1.032.211.14.034.23.171.197.317a.256.256 0 01-.25.204zm-12.103-.237a.257.257 0 01-.255-.217.27.27 0 01.21-.308c.346-.063.691-.121 1.04-.175a.263.263 0 01.074.52c-.34.05-.682.109-1.023.172a.095.095 0 01-.046.008zm9.36-.246h-.033a28.502 28.502 0 00-1.028-.117.259.259 0 01-.235-.287.257.257 0 01.284-.238c.35.034.7.071 1.049.117.144.017.242.15.226.296a.27.27 0 01-.263.23zm-6.6-.13a.261.261 0 01-.26-.24.265.265 0 01.24-.288c.349-.034.698-.059 1.052-.075a.268.268 0 01.275.25.264.264 0 01-.246.279c-.346.02-.691.046-1.032.075h-.03zm3.824-.103h-.008a27.593 27.593 0 00-1.037-.021.263.263 0 01.004-.525c.35 0 .704.008 1.053.02.144.005.255.13.251.276a.264.264 0 01-.263.25zM2.257 39.983a.263.263 0 01-.028-.525 28.9 28.9 0 001.028-.133c.144-.02.275.08.296.22a.263.263 0 01-.222.3c-.346.05-.695.097-1.045.138h-.029zm36.224-.225c-.012 0-.028 0-.04-.004a28.99 28.99 0 01-1.037-.191.264.264 0 01.103-.517c.337.067.678.13 1.02.187a.261.261 0 01.214.305.262.262 0 01-.26.22zm-33.472-.216a.264.264 0 01-.255-.209.265.265 0 01.201-.312c.337-.071.675-.146 1.012-.23.14-.033.28.055.316.197a.263.263 0 01-.193.316 30.39 30.39 0 01-1.028.233c-.02.005-.037.005-.053.005zm30.751-.367a.352.352 0 01-.066-.008 21.617 21.617 0 01-1.016-.288.264.264 0 01-.177-.329.266.266 0 01.325-.18c.333.1.662.193 1 .28.139.038.221.18.184.32a.258.258 0 01-.25.205zM7.706 38.85a.268.268 0 01-.25-.188.267.267 0 01.172-.329c.329-.1.658-.208.987-.32a.262.262 0 11.169.496c-.334.116-.667.224-1.004.324a.16.16 0 01-.074.017zm25.393-.508a.246.246 0 01-.09-.017 42.963 42.963 0 01-.782-.296l-.202-.079a.261.261 0 01-.148-.342.257.257 0 01.338-.15l.205.08c.255.1.51.195.77.291.135.05.205.2.155.338a.26.26 0 01-.246.175zm-22.765-.425a.258.258 0 01-.243-.171.268.268 0 01.152-.342c.33-.125.658-.246.992-.362a.262.262 0 11.169.496c-.326.112-.65.229-.976.354a.213.213 0 01-.094.025zm20.149-.537a.254.254 0 01-.078-.013 27.175 27.175 0 00-.99-.304.267.267 0 01-.182-.325.266.266 0 01.321-.184c.337.096.674.2 1.008.309a.266.266 0 01-.079.516zm-17.505-.342a.263.263 0 01-.07-.517c.337-.096.678-.183 1.02-.267.14-.033.28.054.316.196a.26.26 0 01-.193.317c-.337.083-.67.17-1.003.262a.485.485 0 01-.07.008zm14.816-.396c-.02 0-.037 0-.058-.005a27.422 27.422 0 00-1.015-.208.265.265 0 01.095-.52c.345.066.686.137 1.031.212.14.033.23.17.198.316a.256.256 0 01-.251.205zm-12.102-.238a.257.257 0 01-.255-.216.27.27 0 01.21-.309c.345-.062.69-.12 1.04-.175a.264.264 0 01.074.52c-.341.051-.683.11-1.024.172a.098.098 0 01-.045.008zm9.359-.246h-.033a28.993 28.993 0 00-1.028-.116.259.259 0 01-.234-.288.258.258 0 01.284-.237c.35.033.699.07 1.048.116.144.017.243.15.226.296a.27.27 0 01-.263.23zm-6.6-.128a.261.261 0 01-.259-.242.265.265 0 01.239-.288c.35-.033.699-.058 1.052-.075.132-.017.268.104.276.25a.264.264 0 01-.247.28c-.345.02-.69.045-1.032.074-.012-.004-.02 0-.029 0zm3.825-.105h-.009c-.345-.012-.69-.02-1.036-.02a.26.26 0 01-.26-.263c0-.146.12-.263.264-.263.35 0 .703.009 1.053.021.144.004.255.13.25.275a.264.264 0 01-.262.25zm-11.075 3.75a.258.258 0 01-.242-.17.268.268 0 01.152-.343c.329-.124.658-.245.991-.362a.262.262 0 11.169.496 30.6 30.6 0 00-.975.354.2.2 0 01-.095.025zm20.15-.537a.253.253 0 01-.078-.013 27.235 27.235 0 00-.991-.304.267.267 0 01-.181-.325.264.264 0 01.32-.184c.338.096.675.2 1.008.309a.266.266 0 01.169.333.256.256 0 01-.247.184zm-17.501-.342a.263.263 0 01-.07-.517c.337-.096.678-.183 1.02-.266a.263.263 0 01.123.512c-.337.083-.67.17-1.003.263a.446.446 0 01-.07.008zm14.816-.396c-.02 0-.037 0-.058-.004a27.423 27.423 0 00-1.015-.209.268.268 0 01-.21-.308.268.268 0 01.304-.212c.345.066.687.137 1.032.212.14.034.23.171.198.317a.256.256 0 01-.251.204zm-12.106-.237a.257.257 0 01-.255-.217.27.27 0 01.21-.308c.345-.063.69-.121 1.04-.175a.264.264 0 01.074.52c-.341.05-.683.109-1.024.171-.012.008-.029.008-.045.008zm9.363-.246h-.033a28.507 28.507 0 00-1.028-.117.26.26 0 01-.234-.287.26.26 0 01.283-.238c.35.033.7.07 1.049.117.144.016.243.15.226.295a.274.274 0 01-.263.23zm-6.604-.134a.261.261 0 01-.26-.241.265.265 0 01.24-.288c.349-.033.698-.058 1.052-.075.128-.012.267.104.276.25a.264.264 0 01-.247.28c-.346.02-.691.045-1.032.074h-.03zm3.828-.1h-.008c-.345-.012-.69-.02-1.036-.02a.26.26 0 01-.26-.263c0-.146.12-.262.264-.262.35 0 .703.008 1.053.02.143.005.255.13.25.275a.267.267 0 01-.263.25zm-5.543 2.237a.257.257 0 01-.255-.216.27.27 0 01.21-.308c.345-.063.69-.121 1.04-.175a.264.264 0 01.074.52c-.341.05-.682.109-1.024.172-.012.008-.029.008-.045.008zm9.364-.25h-.033a28.961 28.961 0 00-1.028-.116.259.259 0 01-.235-.287.26.26 0 01.284-.238c.35.034.699.071 1.049.117.143.017.242.15.226.296a.27.27 0 01-.264.229zm-6.605-.128a.261.261 0 01-.259-.242.265.265 0 01.239-.287c.35-.034.699-.059 1.052-.075.128-.017.268.104.276.25a.264.264 0 01-.247.279c-.345.02-.69.046-1.032.075h-.029zm3.829-.1h-.009c-.345-.013-.69-.021-1.036-.021a.263.263 0 01.004-.525c.35 0 .703.008 1.053.02.144.005.255.13.25.276a.266.266 0 01-.262.25zM.3 18.667a.265.265 0 01-.09-.513c.193-.07.383-.142.576-.22l.395-.155a.258.258 0 01.337.15.262.262 0 01-.148.342l-.4.154-.583.225a.2.2 0 01-.086.017zm43.075-14.35a.262.262 0 00-.197.312.26.26 0 00.255.209c.02 0 .036 0 .057-.005.169-.037.341-.07.51-.104v-.537c-.21.041-.415.079-.625.125zm.568 7.741a.267.267 0 00-.17.334.262.262 0 00.227.179v-.53a.304.304 0 01-.057.017zm-.58-1.825a.263.263 0 00.16.5c.16-.05.32-.096.481-.146v-.545a23.45 23.45 0 00-.641.191zm.51 6.087c-.19.08-.379.155-.572.23a.262.262 0 00-.148.342.261.261 0 00.337.15c.169-.067.337-.138.506-.205v-.57l-.123.054zm-.551 6.36a.263.263 0 00.065.516c.02 0 .045-.004.066-.009.181-.05.362-.104.543-.154v-.55c-.222.071-.448.138-.675.196zm-.149 5.933a.263.263 0 00.078.517c.017 0 .03-.005.046-.01.234-.058.469-.12.703-.187v-.546a15.3 15.3 0 01-.827.226zm.72 1.724a.264.264 0 00-.206.309.259.259 0 00.264.212c.016 0 .029 0 .045-.004h.008v-.537c-.04.004-.078.016-.11.02zm-.083 5.688a.264.264 0 00.037.525h.021c.042-.004.087-.012.128-.017V36l-.185.025zM15.005.208c.337.1.675.196 1.016.288a.26.26 0 00.164-.492h-1.36a.26.26 0 00.18.204zM31.33.27a.263.263 0 00.317.188c.337-.091.679-.187 1.012-.291a.267.267 0 00.168-.171h-1.41a.274.274 0 00-.087.275zM10.605.15c.333.096.662.196.991.304a.255.255 0 00.325-.17.248.248 0 00-.078-.284h-1.402c.033.07.086.13.164.15zm26.873.092a.264.264 0 00.33.17c.328-.104.661-.204.99-.3a.247.247 0 00.148-.116h-1.418a.277.277 0 00-.05.246zm4.03 39.6a.264.264 0 00-.242-.284 28.73 28.73 0 01-1.033-.091.263.263 0 00-.287.233.262.262 0 00.23.292c.029.004.053.004.082.008h1.176a.248.248 0 00.074-.158zm-40.99.054a.271.271 0 00-.288-.258c-.078 0-.152 0-.23.004V40h.493a.229.229 0 00.025-.104zm9.298.042a.257.257 0 00-.333-.163c-.235.08-.47.154-.704.23h1.045c0-.026 0-.047-.008-.068zm24.401-.013a.264.264 0 00-.156-.337c-.26-.096-.514-.192-.77-.292l-.205-.08a.26.26 0 00-.337.15.267.267 0 00.148.342l.202.08c.189.075.374.145.563.216h.506a.32.32 0 00.05-.079zm-18.06.038a.267.267 0 00-.317-.196c-.296.07-.592.15-.888.233h1.205c0-.013.004-.025 0-.037zm13.808-.009a.266.266 0 00-.197-.316c-.346-.075-.687-.15-1.032-.213a.262.262 0 00-.305.213.267.267 0 00.21.308c.095.017.185.037.28.058h1.028c.004-.02.012-.033.016-.05zm13.64-.312c-.164 0-.325 0-.49-.005-.168 0-.283.113-.283.259 0 .037.008.07.02.104H44v-.362c-.132 0-.263.004-.395.004z" fill="#fff"/>
		</pattern>
		<linearGradient id="wave-bottom-gradient">
			<stop stop-color="zodiac1" offset="0"/>
			<stop stop-color="fruit1" offset="1"/>
		</linearGradient>
		<mask id="wave-bottom-mask">
			<rect width="100%" height="100%" fill="url(#wave-bottom-pattern)"/>
		</mask>
	</defs>
	<rect width="100%" height="100%" fill="url(#wave-bottom-gradient)" mask="url(#wave-bottom-mask)"/>
</svg>
