<svg width="100%" height="100%" xmlns="http://www.w3.org/2000/svg">
	<pattern id="pattern" x="0" y="0" width="64" height="128" patternUnits="userSpaceOnUse">
		<path d="M64 0H0V128H64V0Z" fill="#DDEBCA"/>
		<path d="M41.605 21.8549C39.09 23.9999 37.105 24.4649 36.03 25.5399C34.075 27.4949 36.665 30.2399 38.67 28.2299C39.75 27.1499 40.64 25.2649 42.4 23.1599C43.005 26.1399 45.645 28.8749 49 29.7149C49.37 29.8099 50.13 29.9549 51.14 29.9549C52.635 29.9549 54.69 29.6299 56.875 28.3149C60.04 26.4149 61.95 23.4699 62.55 19.5599C62.925 17.1199 62.655 14.3249 62.365 11.3599C62.09 8.51993 61.805 5.58993 62.145 3.02493L62.15 2.97993V2.93493C62.14 2.68493 62.035 2.45493 61.86 2.28993C61.695 2.11493 61.465 2.01493 61.215 2.00493H61.17L61.125 2.00993C58.56 2.34493 55.625 2.06493 52.79 1.78993C49.83 1.50493 47.03 1.22993 44.59 1.60493C40.68 2.20493 37.735 4.11493 35.835 7.27993C33.63 10.9549 34.21 14.2399 34.44 15.1599C35.335 18.7449 38.395 21.5049 41.605 21.8549ZM45.275 20.1799C45.115 22.0849 45.955 24.0049 47.26 25.2799C48.97 26.9499 51.71 27.4599 54.035 27.4499C52.195 28.0299 50.43 27.9399 49.42 27.6999C46.275 26.9599 44.2 24.1699 44.035 21.4099C44.365 21.0849 44.785 20.6699 45.275 20.1799ZM60.37 19.4899C60.195 20.3649 59.96 21.1549 59.69 21.8649C56.915 21.7799 50.775 20.8249 50.56 14.8549C50.82 14.5899 51.08 14.3199 51.345 14.0549C52.17 17.0149 55.19 20.7249 60.395 19.3649C60.385 19.4049 60.375 19.4499 60.37 19.4899ZM60.435 19.1199C54.81 18.8099 52.71 15.6649 52.59 12.7649C52.84 12.5099 53.085 12.2499 53.33 11.9949C54.22 14.9999 57.375 17.1549 60.645 16.5799C60.63 17.4849 60.565 18.3399 60.435 19.1199ZM55.7 7.67993C52.695 7.87993 51.345 4.60993 51.005 3.60993C52.2 3.67993 53.4 3.77993 54.545 3.85493C54.26 5.51493 55.215 6.67993 56.3 7.09993C56.105 7.28493 55.905 7.47993 55.7 7.67993ZM54.545 8.81493C54.225 9.13493 53.89 9.46993 53.55 9.80993C50.485 9.55993 48.435 6.75993 48.02 3.50993C48.955 3.50493 49.925 3.54493 50.9 3.59993C50.895 4.65493 51.11 8.33993 54.545 8.81493ZM55.61 26.7799C53.32 26.7349 50.095 26.3199 48.28 24.4249C46.51 22.5749 46.25 20.3949 46.405 19.0499C46.685 18.7699 46.975 18.4799 47.275 18.1749C47.145 22.7549 52.365 26.1399 57.8 25.0299C57.125 25.7799 56.38 26.3549 55.61 26.7799ZM48.48 16.9599C48.8 16.6399 49.125 16.3099 49.455 15.9749C49.96 21.4599 55.945 23.5349 59.465 22.4049C59.125 23.1749 58.73 23.8499 58.295 24.4249C55.205 24.3849 48.335 23.8499 48.48 16.9599ZM54.575 10.6999C54.91 10.3449 55.24 9.99993 55.555 9.65993C55.9 13.0649 59.285 13.4599 60.575 13.4849C60.63 14.4549 60.66 15.4199 60.65 16.3399C57.45 15.8549 54.745 13.7649 54.575 10.6999ZM56.745 8.36993C56.905 8.19493 57.06 8.02493 57.21 7.85493C57.53 8.98493 58.66 10.0549 60.32 9.86993C60.4 10.9849 60.49 12.1499 60.56 13.3049C59.33 12.8499 56.31 11.4049 56.745 8.36993ZM60.3 9.52493C58.33 8.64493 58.345 7.02993 58.41 6.49993C59.43 5.30493 60.005 4.49993 59.855 4.34993C59.655 4.14993 58.79 4.79493 57.47 5.99993C56.725 5.97993 55.465 5.64993 54.775 3.87493C57.14 4.03493 59.24 4.09493 60.51 3.65993C60.06 4.94493 60.135 7.10493 60.3 9.52493ZM52.335 11.0399C52.09 11.2899 51.84 11.5399 51.59 11.7999C48.655 11.6599 45.49 9.49493 45.26 3.69493C46.065 3.57493 46.945 3.52493 47.86 3.51493C47.145 6.84493 49.29 10.1049 52.335 11.0399ZM50.36 13.0549C50.11 13.3149 49.855 13.5749 49.595 13.8349C43.335 13.6499 42.55 6.98493 42.525 4.38993C43.175 4.15493 43.89 3.94993 44.675 3.79493C44.815 3.76493 44.96 3.73993 45.105 3.71993C43.535 9.10493 47.345 12.2249 50.36 13.0549ZM48.515 14.9399C48.2 15.2599 47.885 15.5849 47.57 15.9049C40.235 16.1599 39.975 8.57993 39.965 5.70493C40.585 5.26993 41.3 4.87493 42.13 4.54493C40.705 8.00993 42.755 14.4799 48.515 14.9399ZM46.395 17.1049C46.04 17.4649 45.685 17.8299 45.33 18.1899C43.975 18.2949 41.915 17.9799 40.15 16.2949C37.93 14.1699 37.74 10.1049 37.8 7.87993C38.24 7.23993 38.795 6.62493 39.49 6.06493C38.02 11.7549 41.58 17.3849 46.395 17.1049ZM39.3 17.3149C40.535 18.5799 42.375 19.4099 44.22 19.3149C43.95 19.5849 43.68 19.8599 43.415 20.1249C40.455 20.2849 37.265 18.1299 36.465 14.7349C36.175 13.4999 36.1 11.1199 37.225 8.85993C36.93 11.4049 37.2 15.1699 39.3 17.3149Z" fill="#EAF6D6"/>
		<path d="M62.1501 67.3949L62.1551 67.3499V67.3049C62.1451 67.0549 62.0401 66.8249 61.8651 66.6599C61.7001 66.4849 61.4751 66.3849 61.2201 66.3699H61.1701L61.1201 66.3749C58.5551 66.7099 55.6201 66.4299 52.7801 66.1549C49.8201 65.8699 47.0201 65.5999 44.5801 65.9699C40.6701 66.5699 37.7251 68.4799 35.8251 71.6449C33.6201 75.3199 34.2001 78.6049 34.4301 79.5249C35.3251 83.1099 38.3801 85.8699 41.5951 86.2199C39.0801 88.3649 37.0951 88.8299 36.0201 89.9049C34.0651 91.8599 36.6551 94.6049 38.6601 92.5949C39.7401 91.5149 40.6301 89.6299 42.3901 87.5249C42.9951 90.5049 45.6351 93.2399 48.9901 94.0799C49.3601 94.1749 50.1201 94.3199 51.1351 94.3199C52.6301 94.3199 54.6801 93.9949 56.8701 92.6799C60.0351 90.7799 61.9451 87.8349 62.5451 83.9249C62.9201 81.4849 62.6501 78.6899 62.3601 75.7249C62.1001 72.8949 61.8151 69.9599 62.1501 67.3949ZM36.4601 79.0999C36.1701 77.8649 36.0951 75.4849 37.2201 73.2249C36.9251 75.7649 37.1951 79.5299 39.2951 81.6749C40.5301 82.9399 42.3701 83.7699 44.2151 83.6749C43.9451 83.9449 43.6751 84.2199 43.4101 84.4849C40.4551 84.6499 37.2601 82.4949 36.4601 79.0999ZM60.3701 83.8499C60.1951 84.7249 59.9601 85.5149 59.6901 86.2249C56.9151 86.1399 50.7751 85.1849 50.5601 79.2149C50.8201 78.9499 51.0801 78.6799 51.3451 78.4149C52.1701 81.3749 55.1901 85.0849 60.3951 83.7249C60.3851 83.7649 60.3751 83.8099 60.3701 83.8499ZM55.7001 72.0399C52.6951 72.2399 51.3451 68.9699 51.0051 67.9699C52.2001 68.0399 53.4001 68.1399 54.5451 68.2149C54.2601 69.8749 55.2151 71.0399 56.3001 71.4599C56.1051 71.6449 55.9051 71.8399 55.7001 72.0399ZM54.5451 73.1749C54.2251 73.4949 53.8901 73.8299 53.5501 74.1699C50.4851 73.9199 48.4351 71.1199 48.0201 67.8699C48.9551 67.8649 49.9251 67.9049 50.9001 67.9599C50.8951 69.0149 51.1101 72.6999 54.5451 73.1749ZM60.4351 83.4799C54.8101 83.1699 52.7101 80.0249 52.5901 77.1249C52.8401 76.8699 53.0851 76.6099 53.3301 76.3549C54.2201 79.3599 57.3751 81.5149 60.6451 80.9399C60.6301 81.8449 60.5651 82.6999 60.4351 83.4799ZM54.5751 75.0599C54.9101 74.7049 55.2401 74.3599 55.5551 74.0199C55.9001 77.4249 59.2851 77.8199 60.5751 77.8449C60.6301 78.8149 60.6601 79.7799 60.6501 80.6999C57.4501 80.2149 54.7451 78.1249 54.5751 75.0599ZM56.7451 72.7349C56.9051 72.5599 57.0601 72.3899 57.2101 72.2199C57.5301 73.3499 58.6601 74.4199 60.3201 74.2349C60.4001 75.3499 60.4901 76.5149 60.5601 77.6699C59.3301 77.2099 56.3101 75.7649 56.7451 72.7349ZM60.3001 73.8849C58.3301 73.0049 58.3451 71.3899 58.4101 70.8599C59.4301 69.6649 60.0051 68.8599 59.8551 68.7099C59.6551 68.5099 58.7901 69.1549 57.4701 70.3599C56.7251 70.3399 55.4651 70.0099 54.7751 68.2349C57.1401 68.3949 59.2401 68.4549 60.5101 68.0199C60.0601 69.3049 60.1351 71.4649 60.3001 73.8849ZM52.3351 75.4049C52.0901 75.6549 51.8401 75.9049 51.5901 76.1649C48.6551 76.0249 45.4901 73.8599 45.2601 68.0599C46.0651 67.9399 46.9451 67.8899 47.8601 67.8799C47.1451 71.2049 49.2901 74.4649 52.3351 75.4049ZM50.3601 77.4149C50.1101 77.6749 49.8551 77.9349 49.5951 78.1949C43.3351 78.0099 42.5501 71.3449 42.5251 68.7499C43.1751 68.5149 43.8901 68.3099 44.6751 68.1549C44.8151 68.1249 44.9601 68.0999 45.1051 68.0799C43.5351 73.4649 47.3451 76.5849 50.3601 77.4149ZM48.5151 79.2999C48.2001 79.6199 47.8851 79.9449 47.5701 80.2649C40.2351 80.5199 39.9751 72.9399 39.9651 70.0649C40.5851 69.6299 41.3001 69.2349 42.1301 68.9049C40.7051 72.3749 42.7551 78.8449 48.5151 79.2999ZM46.3951 81.4649C46.0401 81.8249 45.6851 82.1899 45.3301 82.5499C43.9751 82.6549 41.9151 82.3399 40.1501 80.6549C37.9301 78.5299 37.7401 74.4649 37.8001 72.2399C38.2401 71.5999 38.7951 70.9849 39.4901 70.4249C38.0201 76.1149 41.5801 81.7449 46.3951 81.4649ZM45.2751 84.5399C45.1151 86.4449 45.9551 88.3649 47.2601 89.6399C48.9701 91.3099 51.7101 91.8199 54.0351 91.8099C52.1951 92.3899 50.4301 92.2999 49.4201 92.0599C46.2751 91.3199 44.2001 88.5299 44.0351 85.7699C44.3651 85.4449 44.7851 85.0299 45.2751 84.5399ZM55.6101 91.1399C53.3201 91.0949 50.0951 90.6799 48.2801 88.7849C46.5101 86.9349 46.2501 84.7549 46.4051 83.4099C46.6851 83.1299 46.9751 82.8399 47.2751 82.5349C47.1451 87.1149 52.3651 90.4999 57.8001 89.3899C57.1251 90.1449 56.3801 90.7149 55.6101 91.1399ZM48.4801 81.3199C48.8001 80.9999 49.1251 80.6699 49.4551 80.3349C49.9601 85.8149 55.9451 87.8949 59.4651 86.7649C59.1251 87.5349 58.7301 88.2099 58.2951 88.7849C55.2051 88.7449 48.3351 88.2099 48.4801 81.3199Z" fill="#EAF6D6"/>
		<path d="M7.11499 28.3249C9.30499 29.6399 11.355 29.9649 12.85 29.9649C13.865 29.9649 14.62 29.8149 14.99 29.7249C18.345 28.8849 20.985 26.1499 21.59 23.1699C23.35 25.2749 24.24 27.1549 25.32 28.2399C27.33 30.2499 29.915 27.4999 27.96 25.5499C26.885 24.4749 24.895 24.0049 22.385 21.8649C25.595 21.5149 28.655 18.7549 29.55 15.1699C29.78 14.2499 30.355 10.9649 28.155 7.28991C26.255 4.12491 23.31 2.21491 19.4 1.61491C16.96 1.23991 14.16 1.50991 11.2 1.79991C8.36999 2.06491 5.43499 2.34991 2.86999 2.00991L2.82499 2.00491H2.77999C2.52999 2.01491 2.29999 2.11991 2.13499 2.28991C1.95499 2.45991 1.85499 2.68991 1.84499 2.93991V2.98491L1.84999 3.03491C2.18499 5.59991 1.90499 8.53491 1.62999 11.3699C1.34499 14.3299 1.07499 17.1299 1.44499 19.5699C2.04499 23.4799 3.94999 26.4249 7.11499 28.3249ZM3.48999 3.65491C4.75499 4.09491 6.85499 4.02991 9.22499 3.86991C8.52999 5.64491 7.27499 5.97491 6.52999 5.99491C5.20999 4.78991 4.34499 4.14491 4.14499 4.34491C3.98999 4.49991 4.56499 5.30491 5.58499 6.49991C5.64999 7.02991 5.66499 8.64491 3.69499 9.52491C3.86499 7.10491 3.93999 4.94491 3.48999 3.65491ZM20.59 20.1299C20.32 19.8599 20.055 19.5899 19.785 19.3199C21.63 19.4149 23.47 18.5849 24.705 17.3199C26.805 15.1699 27.07 11.4099 26.78 8.86991C27.905 11.1299 27.835 13.5099 27.54 14.7449C26.74 18.1349 23.545 20.2899 20.59 20.1299ZM8.29999 7.67991C8.09499 7.47991 7.89499 7.28491 7.69999 7.09991C8.78499 6.67991 9.73499 5.51491 9.45499 3.85491C10.6 3.77491 11.8 3.67991 12.995 3.60991C12.655 4.60991 11.31 7.87991 8.29999 7.67991ZM13.095 3.59991C14.07 3.54491 15.045 3.50491 15.975 3.50991C15.56 6.75991 13.51 9.55991 10.445 9.80991C10.105 9.46491 9.76999 9.13491 9.44999 8.81491C12.89 8.33991 13.105 4.65491 13.095 3.59991ZM3.62999 19.4899C3.61999 19.4499 3.61499 19.4049 3.60999 19.3649C8.81499 20.7199 11.835 17.0099 12.66 14.0549C12.92 14.3249 13.185 14.5899 13.445 14.8549C13.225 20.8249 7.08499 21.7749 4.30999 21.8599C4.03999 21.1499 3.80499 20.3649 3.62999 19.4899ZM11.41 12.7699C11.29 15.6699 9.18999 18.8099 3.56499 19.1249C3.43499 18.3399 3.36999 17.4849 3.35499 16.5899C6.62499 17.1649 9.77999 15.0099 10.67 12.0049C10.915 12.2549 11.16 12.5099 11.41 12.7699ZM4.53499 22.4049C8.05499 23.5349 14.04 21.4599 14.545 15.9749C14.875 16.3099 15.2 16.6399 15.52 16.9599C15.665 23.8499 8.79499 24.3849 5.69999 24.4249C5.26999 23.8449 4.87499 23.1749 4.53499 22.4049ZM16.72 18.1749C17.025 18.4799 17.31 18.7699 17.59 19.0499C17.745 20.3949 17.485 22.5749 15.715 24.4249C13.905 26.3199 10.675 26.7349 8.38499 26.7799C7.61499 26.3549 6.86999 25.7849 6.19499 25.0249C11.635 26.1349 16.85 22.7549 16.72 18.1749ZM16.74 25.2799C18.045 24.0049 18.885 22.0849 18.725 20.1799C19.215 20.6699 19.635 21.0849 19.96 21.4149C19.795 24.1749 17.72 26.9649 14.575 27.7049C13.57 27.9399 11.805 28.0349 9.95999 27.4549C12.29 27.4599 15.03 26.9499 16.74 25.2799ZM26.2 7.87991C26.26 10.1049 26.07 14.1699 23.85 16.2949C22.085 17.9799 20.025 18.2949 18.67 18.1899C18.315 17.8299 17.96 17.4649 17.605 17.1049C22.425 17.3849 25.98 11.7549 24.51 6.06491C25.205 6.62491 25.76 7.23991 26.2 7.87991ZM16.43 15.9049C16.115 15.5799 15.8 15.2599 15.485 14.9399C21.245 14.4799 23.295 8.00991 21.875 4.54491C22.705 4.87991 23.42 5.26991 24.04 5.70491C24.025 8.57991 23.765 16.1599 16.43 15.9049ZM21.475 4.38991C21.45 6.98991 20.665 13.6499 14.405 13.8349C14.15 13.5699 13.895 13.3099 13.64 13.0549C16.655 12.2249 20.465 9.10491 18.89 3.71491C19.035 3.73991 19.18 3.76491 19.32 3.78991C20.11 3.94991 20.825 4.15491 21.475 4.38991ZM12.415 11.7999C12.165 11.5449 11.915 11.2899 11.67 11.0399C14.715 10.1049 16.86 6.83991 16.145 3.50991C17.06 3.51991 17.94 3.56991 18.745 3.68991C18.515 9.49491 15.345 11.6599 12.415 11.7999ZM3.67499 9.86991C5.33999 10.0549 6.46999 8.98491 6.78499 7.85491C6.93499 8.02491 7.08999 8.19491 7.24999 8.36991C7.68499 11.3999 4.66499 12.8449 3.43499 13.3049C3.50499 12.1499 3.59499 10.9849 3.67499 9.86991ZM3.42499 13.4849C4.71499 13.4599 8.09999 13.0599 8.44499 9.65991C8.76499 9.99991 9.08999 10.3449 9.42499 10.6999C9.25499 13.7649 6.54999 15.8549 3.34999 16.3399C3.33999 15.4199 3.36999 14.4549 3.42499 13.4849Z" fill="#EAF6D6"/>
		<path d="M7.11498 92.685C9.30498 94 11.355 94.325 12.85 94.325C13.865 94.325 14.62 94.175 14.995 94.085C18.35 93.25 20.99 90.515 21.595 87.53C23.355 89.635 24.245 91.515 25.325 92.6C27.335 94.61 29.92 91.86 27.965 89.91C26.89 88.835 24.9 88.365 22.39 86.225C25.6 85.875 28.66 83.115 29.555 79.53C29.785 78.61 30.36 75.325 28.16 71.65C26.26 68.485 23.315 66.575 19.405 65.975C16.965 65.6 14.17 65.87 11.205 66.16C8.36498 66.435 5.42998 66.715 2.86498 66.38L2.81498 66.375H2.76498C2.51498 66.385 2.28498 66.49 2.11998 66.665C1.94498 66.83 1.84498 67.06 1.82998 67.31V67.355L1.83498 67.4C2.16998 69.965 1.88998 72.9 1.61498 75.735C1.32998 78.695 1.05998 81.495 1.42998 83.935C2.04498 87.84 3.94998 90.785 7.11498 92.685ZM3.48998 68.015C4.75498 68.455 6.85498 68.39 9.22498 68.23C8.52998 70.005 7.27498 70.335 6.52998 70.355C5.20998 69.15 4.34498 68.505 4.14498 68.705C3.99498 68.855 4.56998 69.665 5.58998 70.855C5.65498 71.385 5.66998 73 3.69998 73.88C3.86498 71.465 3.93998 69.305 3.48998 68.015ZM20.59 84.49C20.32 84.22 20.055 83.95 19.785 83.68C21.63 83.775 23.47 82.945 24.705 81.68C26.805 79.53 27.07 75.77 26.78 73.23C27.905 75.49 27.835 77.87 27.54 79.105C26.74 82.495 23.545 84.65 20.59 84.49ZM8.29998 72.04C8.09498 71.84 7.89498 71.645 7.69998 71.46C8.78498 71.04 9.73498 69.875 9.45498 68.215C10.6 68.135 11.8 68.04 12.995 67.97C12.655 68.97 11.31 72.24 8.29998 72.04ZM13.095 67.965C14.07 67.91 15.045 67.87 15.975 67.875C15.56 71.125 13.51 73.925 10.445 74.175C10.105 73.83 9.76998 73.5 9.44998 73.18C12.89 72.7 13.105 69.015 13.095 67.965ZM3.62998 83.85C3.61998 83.81 3.61498 83.765 3.60998 83.725C8.81498 85.08 11.835 81.37 12.66 78.415C12.92 78.685 13.185 78.95 13.445 79.215C13.23 85.185 7.08998 86.14 4.31498 86.225C4.03998 85.51 3.80498 84.725 3.62998 83.85ZM11.41 77.13C11.29 80.03 9.18998 83.17 3.56498 83.485C3.43498 82.7 3.36998 81.845 3.35498 80.95C6.62498 81.525 9.77998 79.37 10.67 76.365C10.915 76.615 11.16 76.87 11.41 77.13ZM4.53498 86.765C8.05498 87.895 14.04 85.82 14.545 80.335C14.875 80.67 15.2 81 15.52 81.32C15.665 88.21 8.79498 88.745 5.70498 88.785C5.26998 88.205 4.87498 87.535 4.53498 86.765ZM16.72 82.535C17.025 82.84 17.31 83.13 17.59 83.41C17.745 84.755 17.485 86.935 15.715 88.785C13.905 90.68 10.675 91.095 8.38498 91.14C7.61498 90.715 6.86998 90.145 6.19498 89.385C11.635 90.5 16.85 87.115 16.72 82.535ZM16.74 89.64C18.045 88.365 18.885 86.445 18.725 84.54C19.215 85.03 19.635 85.445 19.96 85.775C19.795 88.535 17.72 91.325 14.575 92.065C13.57 92.3 11.805 92.395 9.95998 91.815C12.29 91.82 15.03 91.31 16.74 89.64ZM26.2 72.24C26.26 74.465 26.07 78.53 23.85 80.655C22.085 82.34 20.025 82.655 18.67 82.55C18.315 82.19 17.96 81.825 17.605 81.465C22.425 81.745 25.98 76.115 24.51 70.425C25.205 70.985 25.76 71.6 26.2 72.24ZM16.43 80.27C16.115 79.945 15.8 79.625 15.485 79.305C21.245 78.845 23.295 72.375 21.875 68.91C22.705 69.245 23.42 69.635 24.04 70.07C24.025 72.945 23.765 80.52 16.43 80.27ZM21.475 68.75C21.45 71.35 20.665 78.01 14.405 78.195C14.15 77.93 13.895 77.67 13.64 77.415C16.655 76.585 20.465 73.465 18.89 68.075C19.035 68.1 19.18 68.125 19.32 68.15C20.11 68.31 20.825 68.515 21.475 68.75ZM12.415 76.16C12.165 75.905 11.915 75.65 11.67 75.4C14.715 74.465 16.86 71.2 16.145 67.87C17.06 67.88 17.94 67.93 18.745 68.05C18.515 73.855 15.345 76.02 12.415 76.16ZM3.67498 74.235C5.33998 74.42 6.46998 73.35 6.78498 72.22C6.93498 72.39 7.08998 72.56 7.24998 72.735C7.68498 75.765 4.66498 77.21 3.43498 77.67C3.50498 76.51 3.59498 75.35 3.67498 74.235ZM3.42498 77.845C4.71498 77.82 8.09998 77.42 8.44498 74.02C8.76498 74.36 9.08998 74.705 9.42498 75.06C9.25498 78.125 6.54998 80.215 3.34998 80.705C3.33998 79.78 3.36998 78.815 3.42498 77.845Z" fill="#EAF6D6"/>
		<path d="M30.4701 30.4848C29.6151 30.0948 28.6251 29.8048 27.8651 29.8048C26.2201 29.8048 25.4401 30.6198 25.4401 31.9448C25.4401 33.2698 26.3251 34.0498 27.9701 34.0498C28.6851 34.0498 29.5901 33.7998 30.3851 33.4548C30.0401 34.2648 29.7901 35.1698 29.7901 35.8748C29.7901 37.5198 30.6051 38.2998 31.9301 38.2998C33.2551 38.2998 34.0351 37.4148 34.0351 35.7698C34.0351 35.0898 33.8101 34.2448 33.4901 33.4798C34.2751 33.8148 35.1551 34.0548 35.8551 34.0548C37.5001 34.0548 38.3851 33.2748 38.3851 31.9498C38.3851 30.6248 37.6101 29.8098 35.9601 29.8098C35.2201 29.8098 34.2501 30.0898 33.4101 30.4648C33.7701 29.6548 34.0351 28.7248 34.0351 27.9948C34.0351 26.3498 33.2551 25.4648 31.9301 25.4648C30.6051 25.4648 29.7901 26.2398 29.7901 27.8898C29.7901 28.6398 30.0851 29.6298 30.4701 30.4848Z" fill="#EAF6D6"/>
		<path d="M56.885 35.4249C53.21 33.2199 49.925 33.7999 49.005 34.0299C45.65 34.8699 43.01 37.5999 42.405 40.5849C40.645 38.4799 39.755 36.5999 38.675 35.5149C36.665 33.5049 34.08 36.2549 36.035 38.2049C37.11 39.2799 39.1 39.7499 41.61 41.8899C38.4 42.2399 35.34 44.9999 34.445 48.5849C34.215 49.5049 33.64 52.7899 35.84 56.4649C37.74 59.6299 40.685 61.5399 44.595 62.1399C45.45 62.2699 46.345 62.3249 47.28 62.3249C49.015 62.3249 50.87 62.1449 52.795 61.9599C55.635 61.6849 58.57 61.4049 61.13 61.7399L61.175 61.7449H61.22C61.47 61.7349 61.7 61.6299 61.865 61.4549C62.04 61.2899 62.14 61.0599 62.15 60.8099V60.7649L62.145 60.7199C61.81 58.1549 62.09 55.2199 62.365 52.3849C62.65 49.4249 62.92 46.6249 62.55 44.1849C61.955 40.2699 60.05 37.3249 56.885 35.4249ZM60.51 60.0949C59.245 59.6549 57.145 59.7199 54.775 59.8799C55.47 58.1049 56.725 57.7749 57.47 57.7549C58.79 58.9599 59.655 59.6049 59.855 59.4049C60.005 59.2549 59.43 58.4449 58.41 57.2549C58.345 56.7249 58.33 55.1099 60.3 54.2299C60.135 56.6449 60.06 58.8049 60.51 60.0949ZM43.41 43.6199C43.68 43.8899 43.945 44.1599 44.215 44.4299C42.37 44.3349 40.53 45.1649 39.295 46.4299C37.195 48.5799 36.93 52.3399 37.22 54.8799C36.095 52.6199 36.165 50.2399 36.46 49.0049C37.26 45.6149 40.455 43.4599 43.41 43.6199ZM55.7 56.0699C55.905 56.2699 56.105 56.4649 56.3 56.6499C55.215 57.0699 54.265 58.2349 54.545 59.8949C53.4 59.9749 52.2 60.0699 51.005 60.1399C51.345 59.1399 52.69 55.8699 55.7 56.0699ZM50.905 60.1449C49.93 60.1999 48.955 60.2399 48.025 60.2349C48.44 56.9849 50.49 54.1849 53.555 53.9349C53.895 54.2799 54.23 54.6099 54.55 54.9299C51.11 55.4099 50.895 59.0949 50.905 60.1449ZM60.37 44.2599C60.38 44.2999 60.385 44.3449 60.39 44.3849C55.185 43.0299 52.165 46.7399 51.34 49.6949C51.08 49.4249 50.815 49.1599 50.555 48.8949C50.77 42.9249 56.91 41.9699 59.685 41.8849C59.96 42.5999 60.195 43.3849 60.37 44.2599ZM52.59 50.9799C52.71 48.0799 54.81 44.9399 60.435 44.6249C60.565 45.4099 60.63 46.2649 60.645 47.1599C57.375 46.5849 54.22 48.7399 53.33 51.7449C53.085 51.4949 52.84 51.2399 52.59 50.9799ZM59.465 41.3449C55.945 40.2149 49.96 42.2899 49.455 47.7749C49.125 47.4399 48.8 47.1099 48.48 46.7899C48.335 39.8999 55.205 39.3649 58.295 39.3249C58.73 39.9049 59.125 40.5749 59.465 41.3449ZM47.28 45.5749C46.975 45.2699 46.69 44.9799 46.41 44.6999C46.255 43.3549 46.515 41.1749 48.285 39.3249C50.095 37.4299 53.325 37.0149 55.615 36.9699C56.385 37.3949 57.13 37.9649 57.805 38.7249C52.365 37.6149 47.15 40.9949 47.28 45.5749ZM47.26 38.4699C45.955 39.7449 45.115 41.6649 45.275 43.5699C44.785 43.0799 44.365 42.6649 44.04 42.3349C44.205 39.5749 46.28 36.7849 49.425 36.0449C50.43 35.8099 52.195 35.7149 54.04 36.2949C51.71 36.2899 48.97 36.7999 47.26 38.4699ZM37.8 55.8699C37.74 53.6449 37.93 49.5799 40.15 47.4549C41.915 45.7699 43.975 45.4549 45.33 45.5599C45.685 45.9199 46.04 46.2849 46.395 46.6449C41.575 46.3649 38.02 51.9949 39.49 57.6849C38.795 57.1249 38.24 56.5099 37.8 55.8699ZM47.57 47.8399C47.885 48.1649 48.2 48.4849 48.515 48.8049C42.755 49.2649 40.705 55.7349 42.125 59.1999C41.295 58.8649 40.58 58.4749 39.96 58.0399C39.975 55.1649 40.235 47.5899 47.57 47.8399ZM42.525 59.3599C42.55 56.7599 43.335 50.0999 49.595 49.9149C49.85 50.1799 50.105 50.4399 50.36 50.6949C47.345 51.5249 43.535 54.6449 45.11 60.0349C44.965 60.0099 44.82 59.9849 44.68 59.9599C43.89 59.7999 43.175 59.5949 42.525 59.3599ZM51.585 51.9499C51.835 52.2049 52.085 52.4599 52.33 52.7099C49.285 53.6449 47.14 56.9099 47.855 60.2399C46.94 60.2299 46.06 60.1799 45.255 60.0599C45.485 54.2549 48.655 52.0899 51.585 51.9499ZM60.325 53.8749C58.66 53.6899 57.53 54.7599 57.215 55.8899C57.065 55.7199 56.91 55.5499 56.75 55.3749C56.315 52.3449 59.335 50.8999 60.565 50.4399C60.495 51.5999 60.405 52.7599 60.325 53.8749ZM60.575 50.2649C59.285 50.2899 55.9 50.6899 55.555 54.0899C55.235 53.7499 54.91 53.4049 54.575 53.0499C54.745 49.9849 57.45 47.8949 60.65 47.4049C60.66 48.3299 60.63 49.2949 60.575 50.2649Z" fill="#EAF6D6"/>
		<path d="M56.885 99.6749C53.21 97.4749 49.925 98.0499 49.005 98.2799C45.65 99.1199 43.01 101.855 42.405 104.835C40.645 102.73 39.755 100.85 38.675 99.7649C36.665 97.7549 34.08 100.505 36.035 102.455C37.11 103.53 39.1 104 41.61 106.14C38.4 106.49 35.34 109.25 34.445 112.835C34.215 113.755 33.64 117.04 35.84 120.715C37.74 123.88 40.685 125.79 44.595 126.39C45.45 126.52 46.345 126.575 47.28 126.575C49.015 126.575 50.87 126.395 52.795 126.21C55.63 125.935 58.565 125.65 61.13 125.99L61.175 125.995H61.22C61.47 125.985 61.7 125.88 61.865 125.71C62.04 125.545 62.14 125.315 62.155 125.065V125.02L62.15 124.975C61.815 122.41 62.095 119.475 62.37 116.64C62.655 113.68 62.925 110.88 62.555 108.44C61.955 104.52 60.05 101.575 56.885 99.6749ZM60.51 124.345C59.245 123.905 57.145 123.97 54.775 124.13C55.47 122.355 56.725 122.025 57.47 122.005C58.79 123.21 59.655 123.855 59.855 123.655C60.005 123.505 59.43 122.695 58.41 121.505C58.345 120.975 58.33 119.36 60.3 118.48C60.135 120.895 60.06 123.055 60.51 124.345ZM43.41 107.87C43.68 108.14 43.945 108.41 44.215 108.68C42.37 108.585 40.53 109.415 39.295 110.68C37.195 112.83 36.93 116.59 37.22 119.13C36.095 116.87 36.165 114.49 36.46 113.255C37.26 109.865 40.455 107.71 43.41 107.87ZM60.37 108.51C60.38 108.55 60.385 108.595 60.39 108.635C55.185 107.28 52.165 110.99 51.34 113.945C51.08 113.675 50.815 113.41 50.555 113.145C50.77 107.175 56.91 106.22 59.685 106.135C59.96 106.85 60.195 107.635 60.37 108.51ZM54.545 119.185C51.11 119.66 50.89 123.34 50.9 124.395C49.925 124.45 48.95 124.49 48.02 124.485C48.435 121.235 50.485 118.435 53.55 118.185C53.895 118.535 54.225 118.865 54.545 119.185ZM52.59 115.23C52.71 112.33 54.81 109.19 60.435 108.875C60.565 109.66 60.63 110.515 60.645 111.41C57.375 110.835 54.22 112.99 53.33 115.995C53.085 115.745 52.84 115.49 52.59 115.23ZM59.465 105.595C55.945 104.465 49.96 106.54 49.455 112.025C49.125 111.69 48.8 111.36 48.48 111.04C48.335 104.15 55.205 103.615 58.295 103.575C58.73 104.155 59.125 104.825 59.465 105.595ZM47.28 109.825C46.975 109.52 46.69 109.23 46.41 108.95C46.255 107.605 46.515 105.425 48.285 103.575C50.095 101.68 53.325 101.265 55.615 101.22C56.385 101.645 57.13 102.215 57.805 102.975C52.365 101.865 47.15 105.245 47.28 109.825ZM47.26 102.72C45.955 103.995 45.115 105.915 45.275 107.82C44.785 107.33 44.365 106.915 44.04 106.585C44.205 103.825 46.28 101.035 49.425 100.295C50.43 100.06 52.195 99.9649 54.04 100.545C51.71 100.54 48.97 101.05 47.26 102.72ZM37.8 120.12C37.74 117.895 37.93 113.83 40.15 111.705C41.915 110.02 43.975 109.705 45.33 109.81C45.685 110.17 46.04 110.535 46.395 110.895C41.575 110.615 38.02 116.245 39.49 121.935C38.795 121.375 38.24 120.76 37.8 120.12ZM47.57 112.095C47.885 112.42 48.2 112.74 48.515 113.06C42.755 113.52 40.705 119.99 42.125 123.455C41.295 123.12 40.58 122.73 39.96 122.295C39.975 119.42 40.235 111.84 47.57 112.095ZM42.525 123.61C42.55 121.01 43.335 114.35 49.595 114.165C49.85 114.43 50.105 114.69 50.36 114.945C47.345 115.775 43.535 118.895 45.11 124.285C44.965 124.26 44.82 124.235 44.68 124.21C43.89 124.05 43.175 123.845 42.525 123.61ZM51.585 116.2C51.835 116.455 52.085 116.71 52.33 116.96C49.285 117.895 47.14 121.16 47.855 124.49C46.94 124.48 46.06 124.43 45.255 124.31C45.485 118.505 48.655 116.34 51.585 116.2ZM55.7 120.32C55.905 120.52 56.105 120.715 56.3 120.9C55.215 121.32 54.265 122.485 54.545 124.145C53.4 124.225 52.2 124.32 51.005 124.39C51.345 123.39 52.69 120.12 55.7 120.32ZM60.325 118.13C58.66 117.945 57.53 119.015 57.215 120.145C57.065 119.98 56.91 119.805 56.75 119.63C56.315 116.6 59.335 115.155 60.565 114.695C60.495 115.85 60.405 117.015 60.325 118.13ZM60.575 114.515C59.285 114.54 55.9 114.94 55.555 118.34C55.235 118 54.91 117.655 54.575 117.3C54.745 114.235 57.45 112.145 60.65 111.655C60.66 112.58 60.63 113.545 60.575 114.515Z" fill="#EAF6D6"/>
		<path d="M1.84998 60.7149L1.84498 60.7599V60.8049C1.85498 61.0549 1.95998 61.2849 2.12998 61.4499C2.29498 61.6249 2.52498 61.7249 2.77498 61.7399H2.81998L2.86498 61.7349C5.42998 61.3999 8.36498 61.6799 11.2 61.9549C13.125 62.1399 14.98 62.3199 16.715 62.3199C17.65 62.3199 18.545 62.2699 19.4 62.1349C23.31 61.5349 26.255 59.6249 28.155 56.4599C30.36 52.7849 29.78 49.4999 29.55 48.5799C28.655 44.9949 25.6 42.2299 22.385 41.8849C24.9 39.7399 26.885 39.2749 27.96 38.1999C29.915 36.2449 27.325 33.4999 25.32 35.5099C24.24 36.5899 23.35 38.4749 21.59 40.5799C20.985 37.5999 18.345 34.8649 14.99 34.0249C14.07 33.7949 10.785 33.2199 7.10998 35.4199C3.94998 37.3249 2.04498 40.2699 1.44498 44.1799C1.06998 46.6199 1.33998 49.4149 1.62998 52.3799C1.89998 55.2149 2.18498 58.1499 1.84998 60.7149ZM27.54 49.0099C27.83 50.2449 27.905 52.6249 26.78 54.8849C27.075 52.3449 26.805 48.5799 24.705 46.4349C23.47 45.1699 21.63 44.3399 19.785 44.4349C20.055 44.1649 20.325 43.8899 20.59 43.6249C23.545 43.4599 26.74 45.6149 27.54 49.0099ZM3.62998 44.2599C3.80498 43.3849 4.03998 42.5949 4.30998 41.8849C7.08498 41.9699 13.225 42.9249 13.44 48.8949C13.18 49.1599 12.92 49.4299 12.655 49.6949C11.83 46.7349 8.80998 43.0249 3.60498 44.3849C3.61498 44.3449 3.62498 44.2999 3.62998 44.2599ZM10.45 53.9399C13.515 54.1899 15.565 56.9899 15.98 60.2399C15.045 60.2449 14.075 60.2049 13.1 60.1499C13.11 59.0949 12.895 55.4149 9.45498 54.9399C9.77498 54.6149 10.105 54.2799 10.45 53.9399ZM3.56498 44.6299C9.18998 44.9399 11.29 48.0849 11.41 50.9849C11.16 51.2399 10.915 51.4999 10.67 51.7549C9.77998 48.7499 6.62498 46.5949 3.35498 47.1699C3.36998 46.2649 3.43498 45.4099 3.56498 44.6299ZM9.42498 53.0499C9.08998 53.4049 8.75998 53.7499 8.44498 54.0899C8.09998 50.6849 4.71498 50.2899 3.42498 50.2649C3.36998 49.2949 3.33998 48.3299 3.34998 47.4099C6.54998 47.8949 9.25498 49.9849 9.42498 53.0499ZM7.25498 55.3799C7.09498 55.5549 6.93998 55.7249 6.78998 55.8949C6.46998 54.7649 5.33998 53.6949 3.67998 53.8799C3.59998 52.7649 3.50998 51.5999 3.43998 50.4449C4.66998 50.8999 7.68998 52.3449 7.25498 55.3799ZM3.69998 54.2249C5.66998 55.1049 5.65498 56.7199 5.58998 57.2499C4.56998 58.4449 3.99498 59.2499 4.14498 59.3999C4.34498 59.5999 5.20998 58.9549 6.52998 57.7499C7.27498 57.7699 8.53498 58.0999 9.22498 59.8749C6.85998 59.7149 4.75998 59.6549 3.48998 60.0899C3.93998 58.8049 3.86498 56.6449 3.69998 54.2249ZM7.69998 56.6499C7.89498 56.4649 8.09498 56.2699 8.29998 56.0699C11.305 55.8699 12.655 59.1399 12.995 60.1399C11.8 60.0699 10.6 59.9699 9.45498 59.8949C9.73998 58.2349 8.78498 57.0699 7.69998 56.6499ZM11.665 52.7099C11.91 52.4599 12.16 52.2099 12.41 51.9499C15.345 52.0899 18.51 54.2549 18.74 60.0549C17.935 60.1749 17.055 60.2249 16.14 60.2349C16.855 56.9049 14.71 53.6449 11.665 52.7099ZM13.64 50.6949C13.89 50.4349 14.145 50.1749 14.405 49.9149C20.665 50.0999 21.45 56.7649 21.475 59.3599C20.825 59.5949 20.11 59.7999 19.325 59.9549C19.185 59.9849 19.04 60.0099 18.895 60.0299C20.465 54.6449 16.655 51.5249 13.64 50.6949ZM15.485 48.8099C15.8 48.4899 16.115 48.1649 16.43 47.8449C23.765 47.5899 24.025 55.1699 24.035 58.0449C23.415 58.4799 22.7 58.8749 21.87 59.2049C23.295 55.7399 21.245 49.2699 15.485 48.8099ZM17.605 46.6449C17.96 46.2849 18.315 45.9199 18.67 45.5599C20.025 45.4549 22.085 45.7699 23.85 47.4549C26.07 49.5799 26.26 53.6449 26.2 55.8699C25.76 56.5099 25.205 57.1249 24.51 57.6849C25.98 51.9949 22.42 46.3649 17.605 46.6449ZM18.725 43.5699C18.885 41.6649 18.045 39.7449 16.74 38.4699C15.03 36.7999 12.29 36.2899 9.96498 36.2999C11.805 35.7199 13.57 35.8099 14.58 36.0499C17.725 36.7899 19.8 39.5799 19.965 42.3399C19.635 42.6649 19.215 43.0799 18.725 43.5699ZM8.38998 36.9699C10.68 37.0149 13.905 37.4299 15.72 39.3249C17.49 41.1749 17.75 43.3549 17.595 44.6999C17.315 44.9799 17.025 45.2699 16.725 45.5749C16.855 40.9949 11.635 37.6099 6.19998 38.7199C6.87498 37.9699 7.61998 37.3949 8.38998 36.9699ZM15.52 46.7899C15.2 47.1099 14.875 47.4399 14.545 47.7749C14.04 42.2949 8.04998 40.2199 4.53498 41.3449C4.87498 40.5749 5.26998 39.8999 5.70498 39.3249C8.79498 39.3649 15.665 39.8999 15.52 46.7899Z" fill="#EAF6D6"/>
		<path d="M35.8551 98.455C37.5001 98.455 38.3851 97.68 38.3851 96.35C38.3851 95.02 37.6101 94.21 35.9601 94.21C35.2201 94.21 34.2501 94.49 33.4101 94.865C33.7701 94.055 34.0351 93.125 34.0351 92.395C34.0351 90.75 33.2551 89.865 31.9301 89.865C30.6051 89.865 29.7901 90.64 29.7901 92.29C29.7901 93.05 30.0801 94.045 30.4701 94.895C29.6151 94.505 28.6251 94.215 27.8651 94.215C26.2201 94.215 25.4401 95.03 25.4401 96.355C25.4401 97.68 26.3251 98.46 27.9701 98.46C28.7051 98.46 29.6351 98.195 30.4401 97.835C30.0651 98.675 29.7851 99.645 29.7851 100.385C29.7851 102.03 30.6001 102.81 31.9251 102.81C33.2501 102.81 34.0301 101.925 34.0301 100.28C34.0301 99.565 33.7801 98.66 33.4301 97.86C34.2351 98.205 35.1401 98.455 35.8551 98.455Z" fill="#EAF6D6"/>
		<path d="M22.4 106.145C24.94 103.96 26.945 103.495 28.03 102.41C29.985 100.455 27.395 97.7099 25.39 99.7199C24.3 100.81 23.405 102.715 21.615 104.84C21.01 101.855 18.37 99.1199 15.015 98.2799C14.095 98.0499 10.81 97.4749 7.135 99.6749C3.97 101.575 2.06 104.52 1.46 108.43C1.085 110.87 1.355 113.665 1.645 116.63C1.92 119.47 2.205 122.4 1.865 124.965C1.86 124.995 1.86 125.03 1.86 125.06C1.87 125.31 1.975 125.54 2.15 125.705C2.315 125.88 2.545 125.98 2.795 125.99C2.825 125.99 2.855 125.99 2.89 125.985C5.455 125.65 8.39 125.93 11.225 126.205C13.15 126.39 14.99 126.565 16.725 126.565C17.08 126.565 17.435 126.555 17.78 126.54C17.81 126.54 17.84 126.545 17.875 126.54L18.115 126.52C18.245 126.515 18.37 126.505 18.495 126.495C18.555 126.49 18.615 126.47 18.665 126.445C19.255 126.355 19.79 126.215 20.28 126.085C22.185 125.565 22.72 124.775 22.86 124.46C23 124.15 22.945 123.92 22.88 123.785C22.675 123.375 22.18 123.335 21.605 123.295C21.47 123.285 21.33 123.275 21.195 123.26C19.515 123.065 18.05 121.615 18 120.09C17.94 118.285 19.22 116.87 21.035 116.725C21.965 116.65 22.81 116.895 23.415 117.415C23.995 117.915 24.33 118.635 24.39 119.5C24.42 119.955 24.31 120.795 24.1 121.28C23.97 121.585 23.83 121.875 23.71 122.125C23.34 122.895 23.115 123.36 23.505 123.715C23.925 124.095 25.085 123.835 26.135 123.115C26.39 122.935 26.64 122.735 26.87 122.51C27.4 122.005 27.885 121.315 28.345 120.42C28.715 119.76 29.02 119.07 29.245 118.395C29.245 118.39 29.26 118.36 29.26 118.36C29.27 118.335 29.28 118.305 29.285 118.28C29.875 116.445 29.98 114.465 29.575 112.845C28.675 109.25 25.615 106.49 22.4 106.145ZM18.74 107.815C18.895 105.91 18.06 103.995 16.755 102.72C15.045 101.05 12.305 100.54 9.98 100.55C11.82 99.9699 13.585 100.06 14.595 100.3C17.74 101.04 19.815 103.83 19.98 106.585C19.645 106.915 19.225 107.33 18.74 107.815ZM3.645 108.51C3.82 107.635 4.055 106.845 4.325 106.135C7.1 106.22 13.24 107.175 13.455 113.14C13.195 113.405 12.935 113.675 12.67 113.94C11.845 110.98 8.82 107.275 3.62 108.63C3.63 108.595 3.635 108.55 3.645 108.51ZM3.58 108.88C9.205 109.19 11.305 112.33 11.425 115.23C11.175 115.485 10.93 115.745 10.685 116C9.795 112.995 6.64 110.84 3.37 111.415C3.385 110.515 3.45 109.66 3.58 108.88ZM8.405 101.22C10.695 101.265 13.92 101.68 15.735 103.575C17.505 105.425 17.765 107.6 17.61 108.945C17.33 109.225 17.04 109.515 16.74 109.82C16.865 105.24 11.65 101.86 6.215 102.97C6.89 102.22 7.635 101.645 8.405 101.22ZM15.53 111.04C15.21 111.36 14.885 111.69 14.555 112.025C14.05 106.545 8.065 104.47 4.545 105.6C4.885 104.83 5.28 104.155 5.715 103.58C8.81 103.615 15.675 104.15 15.53 111.04ZM9.44 117.3C9.105 117.655 8.775 118 8.46 118.34C8.115 114.94 4.73 114.54 3.44 114.515C3.385 113.545 3.355 112.58 3.365 111.66C6.565 112.145 9.27 114.235 9.44 117.3ZM7.265 119.63C7.105 119.805 6.95 119.975 6.8 120.145C6.48 119.015 5.35 117.945 3.685 118.13C3.605 117.015 3.515 115.85 3.445 114.695C4.685 115.15 7.705 116.595 7.265 119.63ZM3.71 118.475C5.685 119.36 5.665 120.98 5.6 121.505C4.61 122.67 4.05 123.455 4.2 123.6C4.395 123.795 5.245 123.175 6.53 122C7.275 122.02 8.54 122.345 9.235 124.125C6.87 123.965 4.77 123.905 3.5 124.345C3.95 123.055 3.875 120.895 3.71 118.475ZM7.71 120.9C7.905 120.715 8.105 120.52 8.31 120.32C11.32 120.115 12.665 123.385 13.01 124.39C11.815 124.32 10.615 124.225 9.47 124.145C9.755 122.48 8.795 121.315 7.71 120.9ZM9.465 119.185C9.785 118.865 10.12 118.53 10.46 118.19C13.525 118.44 15.575 121.235 15.99 124.485C15.055 124.49 14.085 124.455 13.11 124.395C13.12 123.335 12.9 119.66 9.465 119.185ZM11.68 116.955C11.925 116.705 12.175 116.455 12.425 116.195C13.795 116.26 15.21 116.77 16.36 117.88C16.07 118.575 15.915 119.34 15.94 120.155C16 121.955 16.965 123.41 18.47 124.21C17.845 124.325 17.2 124.42 16.49 124.48C16.38 124.48 16.265 124.48 16.155 124.48C16.865 121.155 14.725 117.895 11.68 116.955ZM16.98 116.785C15.965 115.865 14.755 115.255 13.65 114.95C13.905 114.69 14.165 114.425 14.425 114.16C16.1 114.21 17.38 114.73 18.36 115.51C17.82 115.85 17.355 116.28 16.98 116.785ZM19.725 114.885C18.655 113.89 17.25 113.195 15.5 113.055C15.81 112.735 16.125 112.415 16.44 112.09C19.36 111.99 21.16 113.13 22.27 114.725C21.82 114.655 21.35 114.63 20.87 114.67C20.47 114.705 20.09 114.78 19.725 114.885ZM24.76 115.855C24.535 115.66 24.29 115.495 24.035 115.345C22.84 112.61 20.445 110.725 17.615 110.89C17.97 110.53 18.325 110.17 18.68 109.805C20.035 109.7 22.1 110.015 23.86 111.7C25.48 113.25 26.02 115.835 26.17 117.98C25.89 117.155 25.415 116.42 24.76 115.855ZM24.715 110.685C23.48 109.42 21.64 108.59 19.79 108.685C20.06 108.415 20.33 108.14 20.595 107.87C23.555 107.705 26.75 109.86 27.55 113.26C27.84 114.49 27.91 116.86 26.79 119.115C27.08 116.575 26.81 112.825 24.715 110.685Z" fill="#EAF6D6"/>
		<path d="M41.1749 21.3501C38.3949 23.9351 36.1849 24.3901 35.0299 25.5451C33.0749 27.5001 35.6649 30.2451 37.6699 28.2351C38.8449 27.0601 39.7899 24.9501 41.8649 22.6301C42.2599 25.5051 44.7749 28.3601 48.1299 29.1951C49.9099 29.6401 52.7849 29.5501 55.5999 27.8601C58.2899 26.2451 60.3799 23.6401 61.0199 19.4851C61.7499 14.7301 59.9249 8.20507 60.6149 2.96007C60.6099 2.83507 60.5599 2.74007 60.4849 2.67507C60.4199 2.60007 60.3199 2.55007 60.1999 2.54507C54.9549 3.23507 48.4299 1.41007 43.6749 2.14007C39.5199 2.77507 36.9149 4.87007 35.2999 7.56007C33.6099 10.3801 33.5199 13.2501 33.9649 15.0301C34.8649 18.6351 38.0949 21.2751 41.1749 21.3501Z" fill="#E5CF45" opacity="0.1"/>
		<path d="M60.6199 67.3251C60.6149 67.2001 60.5649 67.1051 60.4899 67.0401C60.4249 66.9651 60.3249 66.9151 60.2049 66.9101C54.9599 67.6001 48.4349 65.7751 43.6799 66.5051C39.5249 67.1401 36.9199 69.2301 35.3049 71.9251C33.6149 74.7451 33.5249 77.6151 33.9699 79.3951C34.8699 83.0001 38.0999 85.6401 41.1799 85.7151C38.3999 88.3001 36.1899 88.7551 35.0349 89.9101C33.0799 91.8651 35.6699 94.6101 37.6749 92.6001C38.8499 91.4251 39.7949 89.3151 41.8699 86.9951C42.2649 89.8701 44.7799 92.7251 48.1349 93.5601C49.9149 94.0051 52.7899 93.9151 55.6049 92.2251C58.2949 90.6101 60.3849 88.0051 61.0249 83.8501C61.7499 79.0951 59.9299 72.5651 60.6199 67.3251Z" fill="#E5CF45" opacity="0.1"/>
		<path d="M0.974974 19.49C1.60997 23.645 3.69997 26.25 6.39497 27.865C9.21497 29.555 12.085 29.645 13.865 29.2C17.22 28.365 19.74 25.505 20.13 22.635C22.205 24.95 23.15 27.065 24.325 28.24C26.335 30.25 28.92 27.5 26.965 25.55C25.81 24.395 23.6 23.94 20.82 21.355C23.9 21.28 27.13 18.645 28.03 15.035C28.475 13.255 28.385 10.38 26.695 7.56498C25.08 4.87498 22.475 2.78498 18.32 2.14498C13.57 1.41498 7.03997 3.23498 1.79997 2.54498C1.67497 2.54998 1.57997 2.59998 1.51497 2.67498C1.43997 2.73998 1.38997 2.83998 1.37997 2.96498C2.06997 8.20498 0.249974 14.735 0.974974 19.49Z" fill="#E5CF45" opacity="0.1"/>
		<path d="M6.39491 92.2251C9.21491 93.9151 12.0849 94.0051 13.8649 93.5601C17.2199 92.7251 19.7399 89.8651 20.1299 86.9951C22.2049 89.3101 23.1499 91.4251 24.3249 92.6001C26.3349 94.6101 28.9199 91.8601 26.9649 89.9101C25.8099 88.7551 23.5999 88.3001 20.8199 85.7151C23.8999 85.6401 27.1299 83.0051 28.0299 79.3951C28.4749 77.6151 28.3849 74.7401 26.6949 71.9251C25.0799 69.2351 22.4749 67.1451 18.3199 66.5051C13.5649 65.7751 7.03991 67.6001 1.79491 66.9101C1.66991 66.9151 1.57491 66.9651 1.50991 67.0401C1.43491 67.1051 1.38491 67.2051 1.37991 67.3251C2.06991 72.5701 0.244912 79.0951 0.974912 83.8501C1.61491 88.0051 3.70491 90.6101 6.39491 92.2251Z" fill="#E5CF45" opacity="0.1"/>
		<path d="M26.8649 29.8051C25.2199 29.8051 24.4399 30.6201 24.4399 31.9451C24.4399 33.2701 25.3249 34.0501 26.9699 34.0501C27.6849 34.0501 28.5899 33.8001 29.3849 33.4551C29.0399 34.2651 28.7899 35.1701 28.7899 35.8751C28.7899 37.5201 29.6049 38.3001 30.9299 38.3001C32.2549 38.3001 33.0349 37.4151 33.0349 35.7701C33.0349 35.0901 32.8099 34.2451 32.4899 33.4801C33.2749 33.8151 34.1549 34.0551 34.8549 34.0551C36.4999 34.0551 37.3849 33.2751 37.3849 31.9501C37.3849 30.6251 36.6099 29.8101 34.9599 29.8101C34.2199 29.8101 33.2499 30.0901 32.4099 30.4651C32.7699 29.6551 33.0349 28.7251 33.0349 27.9951C33.0349 26.3501 32.2549 25.4651 30.9299 25.4651C29.6049 25.4651 28.7899 26.2401 28.7899 27.8901C28.7899 28.6501 29.0799 29.6451 29.4699 30.4951C28.6199 30.0951 27.6249 29.8051 26.8649 29.8051Z" fill="#E5CF45" opacity="0.1"/>
		<path d="M55.6049 35.8901C52.7849 34.2001 49.9149 34.1101 48.1349 34.5551C44.7799 35.3901 42.2599 38.2501 41.8699 41.1201C39.7949 38.8051 38.8499 36.6901 37.6749 35.5151C35.6649 33.5051 33.0799 36.2551 35.0349 38.2051C36.1899 39.3601 38.3999 39.8151 41.1799 42.4001C38.0999 42.4751 34.8699 45.1101 33.9699 48.7201C33.5249 50.5001 33.6149 53.3751 35.3049 56.1901C36.9199 58.8801 39.5249 60.9701 43.6799 61.6101C48.4349 62.3401 54.9599 60.5151 60.2049 61.2051C60.3299 61.2001 60.4249 61.1501 60.4899 61.0751C60.5649 61.0101 60.6149 60.9101 60.6199 60.7901C59.9299 55.5451 61.7549 49.0201 61.0249 44.2651C60.3849 40.1051 58.2949 37.5001 55.6049 35.8901Z" fill="#E5CF45" opacity="0.1"/>
		<path d="M61.0249 108.51C60.3899 104.355 58.2999 101.75 55.6049 100.135C52.7849 98.445 49.9149 98.355 48.1349 98.8C44.7799 99.635 42.2599 102.495 41.8699 105.365C39.7949 103.05 38.8499 100.935 37.6749 99.76C35.6649 97.75 33.0799 100.5 35.0349 102.45C36.1899 103.605 38.3999 104.06 41.1799 106.645C38.0999 106.72 34.8699 109.355 33.9699 112.965C33.5249 114.745 33.6149 117.62 35.3049 120.435C36.9199 123.125 39.5249 125.215 43.6799 125.855C48.4349 126.585 54.9599 124.76 60.2049 125.45C60.3299 125.445 60.4249 125.395 60.4899 125.32C60.5649 125.255 60.6149 125.155 60.6199 125.035C59.9299 119.795 61.7499 113.265 61.0249 108.51Z" fill="#E5CF45" opacity="0.1"/>
		<path d="M1.37997 60.785C1.38497 60.91 1.43497 61.005 1.50997 61.07C1.57497 61.145 1.67497 61.195 1.79497 61.2C7.03997 60.51 13.565 62.335 18.32 61.605C22.475 60.97 25.08 58.88 26.695 56.185C28.385 53.365 28.475 50.495 28.03 48.715C27.13 45.11 23.9 42.47 20.82 42.395C23.6 39.81 25.81 39.355 26.965 38.2C28.92 36.245 26.33 33.5 24.325 35.51C23.15 36.685 22.205 38.795 20.13 41.115C19.735 38.24 17.22 35.385 13.865 34.55C12.085 34.105 9.20997 34.195 6.39497 35.885C3.70497 37.5 1.61497 40.105 0.974974 44.26C0.249974 49.015 2.06997 55.545 1.37997 60.785Z" fill="#E5CF45" opacity="0.1"/>
		<path d="M34.8549 98.455C36.4999 98.455 37.3849 97.68 37.3849 96.35C37.3849 95.02 36.6099 94.21 34.9599 94.21C34.2199 94.21 33.2499 94.49 32.4099 94.865C32.7699 94.055 33.0349 93.125 33.0349 92.395C33.0349 90.75 32.2549 89.865 30.9299 89.865C29.6049 89.865 28.7899 90.64 28.7899 92.29C28.7899 93.05 29.0799 94.045 29.4699 94.895C28.6149 94.505 27.6249 94.215 26.8649 94.215C25.2199 94.215 24.4399 95.03 24.4399 96.355C24.4399 97.68 25.3249 98.46 26.9699 98.46C27.7049 98.46 28.6349 98.195 29.4399 97.835C29.0649 98.675 28.7849 99.645 28.7849 100.385C28.7849 102.03 29.5999 102.81 30.9249 102.81C32.2499 102.81 33.0299 101.925 33.0299 100.28C33.0299 99.565 32.7799 98.66 32.4299 97.86C33.2349 98.205 34.1399 98.455 34.8549 98.455Z" fill="#E5CF45" opacity="0.1"/>
		<path d="M28.0499 112.97C27.1499 109.36 23.9149 106.72 20.8349 106.65C23.6399 104.025 25.8649 103.57 27.0299 102.405C28.9849 100.45 26.3949 97.705 24.3899 99.715C23.2099 100.895 22.2549 103.03 20.1499 105.37C19.7549 102.495 17.2399 99.64 13.8849 98.8C12.1049 98.355 9.22993 98.445 6.41493 100.135C3.72493 101.75 1.63493 104.355 0.994931 108.51C0.264931 113.265 2.08993 119.79 1.39993 125.035C1.40493 125.16 1.45493 125.255 1.52993 125.32C1.59493 125.395 1.69493 125.445 1.81493 125.45C6.51993 124.83 12.2599 126.23 16.8249 126L16.8299 126.005C16.8699 126 16.8999 125.995 16.9399 125.995C17.1099 125.985 17.2799 125.98 17.4499 125.965C17.4549 125.955 17.4599 125.945 17.4599 125.94C18.0549 125.855 18.5949 125.72 19.1399 125.57C21.0649 125.045 21.4899 124.215 21.3999 124.03C21.3099 123.845 20.6849 123.86 20.1349 123.795C18.1449 123.565 16.5199 121.84 16.4649 120.11C16.3949 118.01 17.8799 116.36 19.9949 116.19C21.0699 116.1 22.0599 116.395 22.7699 117.01C23.4649 117.61 23.8649 118.46 23.9299 119.465C23.9649 119.975 23.8449 120.915 23.5999 121.49C23.2049 122.415 22.7299 123.19 22.8699 123.31C22.9799 123.41 23.8199 123.37 24.8249 122.67C24.8249 122.67 24.8249 122.67 24.8299 122.665C25.0499 122.515 25.2749 122.335 25.4999 122.115C26.0449 121.595 26.4949 120.895 26.8799 120.15C27.2499 119.495 27.5349 118.84 27.7449 118.2C27.7499 118.185 27.7549 118.175 27.7599 118.16C27.7599 118.16 27.7599 118.16 27.7549 118.16C28.4099 116.15 28.3749 114.27 28.0499 112.97Z" fill="#E5CF45" opacity="0.1"/>
	</pattern>
	<rect fill="url(#pattern)" x="0" y="0" width="100%" height="100%"/>
</svg>