<svg viewBox="0 0 64 64" xmlns="http://www.w3.org/2000/svg">
	<path d="m43.33 50.1c5.03-1.76 5.26-4.01 5.89-2.71 1.49 3.06.94 5.66-1.4 9.39 0 0-7.22-.77-11.1-4.86-1.19-1.25.72.24 6.61-1.82zm-25.43-.26c-3.21-1.15-4.1-2.48-4.12-1.4-.03 1.86.21 4.32 1.22 6.2 2.46-.68 5.88-.21 8.65-1.76 4.27-2.38-1.98-1.69-5.75-3.04zm27.11-4.57c-5.27 2.89-11.65 2.72-14.58 1.13-9.22-5.01-5.35-15.89-4.63-18.24-2.13-.42-5.12 3.54-5.12 9.06 0 4.23 1.56 6.2.91 7.56-.75 1.57-2.73 1.01-3.79.64-8.56-3.04-9.83-14.79-4.68-21.81 2.57-3.5 14.42-14.21 17.44-14.21 2.84 0 12.18 6.68 15.67 9.19 9.04 6.48 10.34 20.33-1.22 26.68z" fill="#FF8B8F"/>
</svg>
