<svg viewBox="0 0 64 64" xmlns="http://www.w3.org/2000/svg">
	<path d="m49.57 41.56c0-6.65-.97-7.53-2.1-9.91.67-7.11-.45-12.77-4.03-14.8-.28.59-.52 1.11-.47 1.14 1.65 1.04 1.39 3.11-.74 2.37-.45-.16-1.74-.27-2.22-.24-.78.05-1.9.71-2.74.39-.8-.3-1.35-1.6-1.84-2.05-.71-.59-1.49-1.01-2.59-1.06-.6-.03-.76-1.06.08-1.58.62-.39 1.38-.34 2.13-.18.03.01.17-.66.3-1.3-4.53-.83-7.72 3.31-12.01 9.61-11.41 3.66-13.73 19.27-6.87 25.92 4.29 4.95 12.22 7.76 18.61 6.53.35-.06.7-.14 1.07-.24 5.58-1.42 11.24-5.54 12.93-11.16h-.07c.35-1.1.56-2.25.56-3.44zm-29.47.93c-.21.47-.59.81-1.19.81a2.19 2.19 0 01-2.19-2.19c0-.66.32-1.29.83-1.7.87-.69 2.1-.65 2.44.57.15.53.3 1.08.29 1.63 0 .3-.06.61-.18.88zm4.9 8.36c-1.06-.54-1.34-2.49-.4-3.25 1.21-.98 2.89.27 2.97 1.36.07.98-.83 2.77-2.57 1.89zm7.28-11.51c-.43.88-2.12 1.96-3.17.32-.64-1 .11-2.82 1.3-3 1.54-.23 2.35 1.69 1.87 2.68zm1.53 6.13c-.58-.77-.64-1.89-.14-2.71 1.17-1.92 3.74-1.52 4.32.63.02.06.1 1.01.1 1.07.06 2.22-2.9 2.82-4.28 1.01zm6.3 5.96c-.48.85-2.22 1.85-3.18.15-.59-1.04.26-2.81 1.46-2.93 1.55-.15 2.26 1.82 1.72 2.78zm5.8-8.22c-3.14-.24-.2-4.71 1.29-3.13.96 1.03.3 3.25-1.29 3.13z" fill="#99CD66"/>
	<path d="m40.95 5.37c-3.27-.79-4.16 1.77-4.2 2.32s.61 1.17 1.63 2.47c.1 1.45.22 2.72-.9 6.58.32.21.66.66.71.79.07.17.25.27.44.26l1.68-.09c1.79-6.02 1.38-11.83.64-12.33z" fill="#99CD66"/>
</svg>
