<svg height="100" xmlns="http://www.w3.org/2000/svg">
	<defs>
		<pattern id="a" width="50%" height="146" patternUnits="userSpaceOnUse" preserveAspectRatio="xMidYMin meet" viewBox="0 0 329 146">
			<path d="M164.49 79.42v-3c-54.24 0-117.74-24.87-150.98-59.14C8.05 11.66 3.55 5.87 0 0v5.54c3.2 4.69 6.98 9.31 11.35 13.82 33.76 34.8 98.16 60.06 153.14 60.06zm0-3v3c54.97 0 119.38-25.26 153.14-60.05 4.38-4.51 8.15-9.13 11.35-13.82V0c-3.55 5.87-8.05 11.66-13.51 17.28-33.25 34.27-96.74 59.14-150.98 59.14z" fill="#FBED7C"/>
			<path d="m164.49 140.88-29-67h58l-29 67z" fill="#F3615A"/>
			<path d="m189.79 77.92c.33-.76-.02-1.64-.78-1.97-.76-.32-1.65.02-1.97.78-.33.76.02 1.64.78 1.97.76.32 1.64-.03 1.97-.78zm-2 4.58c.33-.76-.02-1.64-.78-1.97-.76-.32-1.65.02-1.97.78-.33.76.02 1.64.78 1.97.76.32 1.65-.02 1.97-.78zm-1.99 4.59c.33-.76-.02-1.64-.78-1.97-.76-.32-1.65.02-1.97.78-.33.76.02 1.64.78 1.97.76.32 1.64-.03 1.97-.78zm-1.99 4.58c.33-.76-.02-1.64-.78-1.97-.76-.32-1.65.02-1.97.78-.33.76.02 1.64.78 1.97.76.32 1.64-.02 1.97-.78zm-2 4.59c.33-.76-.02-1.64-.78-1.97-.76-.32-1.65.02-1.97.78-.33.76.02 1.64.78 1.97.76.32 1.64-.03 1.97-.78zm-1.99 4.58c.33-.76-.02-1.64-.78-1.97-.76-.32-1.65.02-1.97.78-.33.76.02 1.64.78 1.97.76.32 1.64-.02 1.97-.78zm-1.99 4.59c.33-.76-.02-1.64-.78-1.97-.76-.32-1.65.02-1.97.78-.33.76.02 1.64.78 1.97.76.32 1.64-.02 1.97-.78zm-2 4.58c.33-.76-.02-1.64-.78-1.97-.76-.32-1.65.02-1.97.78-.33.76.02 1.64.78 1.97s1.64-.02 1.97-.78zm-1.99 4.59c.33-.76-.02-1.64-.78-1.97-.76-.32-1.65.02-1.97.78-.33.76.02 1.64.78 1.97.76.32 1.64-.02 1.97-.78zm-2 4.59c.33-.76-.02-1.64-.78-1.97-.76-.32-1.65.02-1.97.78-.33.76.02 1.64.78 1.97.76.32 1.65-.03 1.97-.78zm-1.99 4.58c.33-.76-.02-1.64-.78-1.97-.76-.32-1.65.02-1.97.78-.33.76.02 1.64.78 1.97.76.32 1.64-.02 1.97-.78zm-1.99 4.59c.33-.76-.02-1.64-.78-1.97-.76-.32-1.65.02-1.97.78-.33.76.02 1.64.78 1.97.76.32 1.64-.03 1.97-.78zm-2 4.58c.33-.76-.02-1.64-.78-1.97-.76-.32-1.65.02-1.97.78-.33.76.02 1.64.78 1.97.76.32 1.64-.02 1.97-.78zm-26.67-55.02c-.33-.76.02-1.64.78-1.97.76-.32 1.65.02 1.97.78.33.76-.02 1.64-.78 1.97-.76.32-1.64-.03-1.97-.78zm1.99 4.58c-.33-.76.02-1.64.78-1.97.76-.32 1.65.02 1.97.78.33.76-.02 1.64-.78 1.97-.76.32-1.64-.02-1.97-.78zm1.99 4.59c-.33-.76.02-1.64.78-1.97.76-.32 1.65.02 1.97.78.33.76-.02 1.64-.78 1.97-.76.32-1.64-.03-1.97-.78zm2 4.58c-.33-.76.02-1.64.78-1.97.76-.32 1.65.02 1.97.78.33.76-.02 1.64-.78 1.97-.76.32-1.64-.02-1.97-.78zm1.99 4.59c-.33-.76.02-1.64.78-1.97.76-.32 1.65.02 1.97.78.33.76-.02 1.64-.78 1.97-.76.32-1.64-.03-1.97-.78zm2 4.58c-.33-.76.02-1.64.78-1.97.76-.32 1.65.02 1.97.78.33.76-.02 1.64-.78 1.97-.76.32-1.65-.02-1.97-.78zm1.99 4.59c-.33-.76.02-1.64.78-1.97.76-.32 1.65.02 1.97.78.33.76-.02 1.64-.78 1.97-.76.32-1.64-.02-1.97-.78zm1.99 4.58c-.33-.76.02-1.64.78-1.97.76-.32 1.65.02 1.97.78.33.76-.02 1.64-.78 1.97s-1.64-.02-1.97-.78zm2 4.59c-.33-.76.02-1.64.78-1.97.76-.32 1.65.02 1.97.78s-.02 1.64-.78 1.97c-.76.32-1.64-.02-1.97-.78zm1.99 4.59c-.33-.76.02-1.64.78-1.97.76-.32 1.65.02 1.97.78.33.76-.02 1.64-.78 1.97-.76.32-1.64-.03-1.97-.78zm1.99 4.58c-.33-.76.02-1.64.78-1.97.76-.32 1.65.02 1.97.78.33.76-.02 1.64-.78 1.97-.76.32-1.64-.02-1.97-.78zm2 4.59c-.33-.76.02-1.64.78-1.97.76-.32 1.65.02 1.97.78s-.02 1.64-.78 1.97c-.76.32-1.64-.03-1.97-.78z" fill="#FBED7C"/>
			<path d="m81.27 128.3-8.14-72.55 55.46 16.96-47.32 55.59z" fill="#89D3D4"/>
			<path d="m247.7 128.3 8.15-72.55-55.47 16.96 47.32 55.59z" fill="#9ED353"/>
			<path d="m229.32 73.01c-.45-.24-.81-.65-.98-1.18-.31-1.06.28-2.18 1.33-2.5a2.01 2.01 0 012.5 1.33c.16.53.09 1.07-.15 1.52l-1.77-.94-.93 1.77z" fill="#FBED7C"/>
			<path d="m230.84 73.16c-.53.16-1.07.09-1.52-.15l.94-1.77 1.77.94c-.25.45-.66.82-1.19.98zm-16.4 4.4c-.45-.24-.81-.65-.98-1.18-.31-1.06.28-2.18 1.33-2.5a2.01 2.01 0 012.5 1.33c.16.53.09 1.07-.15 1.52l-1.77-.94-.93 1.77zm12.42 4.33c-.24.45-.65.82-1.18.98s-1.07.09-1.52-.15l.94-1.77 1.76.94zm-3.53-1.87c.24-.45.65-.82 1.18-.98s1.07-.09 1.52.15l-.94 1.77-1.76-.94z" fill="#FBED7C"/>
			<path d="m226.86 81.89-1.77-.94.94-1.77c.45.24.81.65.98 1.18.16.54.09 1.08-.15 1.53zm-7.87 10.54m2.86-2.35c.16.53.09 1.07-.15 1.52.23-.45.3-.99.15-1.52zm-5.88-12.37c-.53.16-1.07.09-1.52-.15l.94-1.77 1.77.94c-.25.45-.67.81-1.19.98zm8.18 5.01c-.45-.24-.81-.65-.98-1.18-.16-.53-.09-1.07.15-1.52l1.77.94-.94 1.76zm20.4-17.94a2.01 2.01 0 012.5 1.33c.16.53.09 1.07-.15 1.52l-1.77-.94-.94 1.77c-.45-.24-.81-.65-.98-1.18-.31-1.06.29-2.18 1.34-2.5zm7.05 16.2c.16.53.09 1.07-.15 1.52.24-.44.3-.99.15-1.52zm-3.83 1.18m-7.21-3.84c-.53.16-1.07.09-1.52-.15l.94-1.77 1.77.94c-.25.46-.67.82-1.19.98zm-2.36-2.85c.24-.45.65-.82 1.18-.98s1.07-.09 1.52.15l-.94 1.77-1.76-.94z" fill="#FBED7C"/>
			<path d="m239.03 78.17c-.45-.24-.81-.65-.98-1.18-.16-.53-.09-1.07.15-1.52l1.77.94-.94 1.76zm7.87-10.54c-.24.45-.65.82-1.18.98s-1.07.09-1.52-.15l.94-1.77 1.76.94zm-5.99 7.01c.45.24.81.65.98 1.18.16.53.09 1.07-.15 1.52l-1.77-.94.94-1.76zm-5.17 9.71m-2.85 2.35m1.92-.58.94-1.77c.45.24.81.65.98 1.18.16.53.09 1.07-.15 1.52l-1.77-.93z" fill="#FBED7C"/>
			<path d="m234.81 86.12-.94 1.77c-.45-.24-.81-.65-.98-1.18-.16-.53-.09-1.07.15-1.52l1.77.93z" fill="#FBED7C"/>
			<path d="m234.81 86.12-1.77-.94c.24-.45.65-.82 1.18-.98s1.07-.09 1.52.15l-.93 1.77zm3.6 16.64m2.86-2.35m-5.88-12.38c-.53.16-1.07.09-1.52-.15.45.25.99.32 1.52.15z" fill="#FBED7C"/>
			<path d="m234.81 86.12 1.77.94c-.24.45-.65.82-1.18.98s-1.07.09-1.52-.15l.93-1.77zm2.63 15.46m3.83-1.17m-3.83 0m2.85-1.18m-.94 1.76-.94 1.77c-.45-.24-.81-.65-.98-1.18-.12-.4-.11-.81.01-1.17.04-.12.09-.24.15-.35l1.76.93zm0 0 .94-1.77c.11.06.22.13.32.21.3.24.54.57.66.97.16.53.09 1.07-.15 1.52l-1.77-.93z" fill="#FBED7C"/>
			<path d="m239.35 100.99-1.77-.94a1.989 1.989 0 011.18-.98c.27-.08.53-.1.79-.08.26.03.51.11.74.23l-.94 1.77zm8.78 6.93.94-1.77-1.77-.94c.24-.45.65-.82 1.18-.98a1.98 1.98 0 011.88.4l-.37 3.29c-.11.06-.22.11-.34.14-.53.18-1.07.11-1.52-.14zm-3.29 6.19c.45.24.81.65.98 1.18.31 1.06-.28 2.18-1.33 2.5a2.01 2.01 0 01-2.5-1.33c-.16-.53-.09-1.07.15-1.52l1.77.94.93-1.77zm-11.24-5.32c.53-.16 1.07-.09 1.52.15l-.94 1.77 1.77.94c-.24.45-.65.82-1.18.98-.12.04-.24.06-.36.07l-2.15-2.52c.19-.65.67-1.18 1.34-1.39z" fill="#FBED7C"/>
			<path d="m238.41 102.76.94-1.77 1.77.94c-.18.34-.46.63-.81.82-.12.06-.24.12-.37.16s-.26.07-.4.08c-.39.04-.78-.05-1.13-.23zm8.89 2.46 1.77.94-.94 1.77c-.45-.24-.81-.65-.98-1.18-.16-.54-.09-1.08.15-1.53zm-3.98 8.73c.53-.16 1.07-.09 1.52.15l-.94 1.77-1.77-.94c.25-.45.66-.81 1.19-.98zm-8.19-5.01c.45.24.81.65.98 1.18.16.53.09 1.07-.15 1.52l-1.77-.94.94-1.76zm-17.12-17.69c-.16-.53-.09-1.07.15-1.52-.23.45-.3.99-.15 1.52zm3.84-1.17m-1.92.59.94-1.77c.45.24.81.65.98 1.18.16.53.09 1.07-.15 1.52l-1.77-.93z" fill="#FBED7C"/>
			<path d="m219.93 90.67-.94 1.77c-.45-.24-.81-.65-.98-1.18-.16-.53-.09-1.07.15-1.52l1.77.93z" fill="#FBED7C"/>
			<path d="m219.93 90.67-1.77-.94c.24-.45.65-.82 1.18-.98s1.07-.09 1.52.15l-.93 1.77zm11.48 6.1c-.24.45-.65.82-1.18.98s-1.07.09-1.52-.15l.94-1.77 1.76.94zm-2.35-2.86c.53-.16 1.07-.09 1.52.15l-.94 1.77-1.77-.94c.25-.45.66-.81 1.19-.98z" fill="#FBED7C"/>
			<path d="m230.58 94.06c.45.24.81.65.98 1.18.16.53.09 1.07-.15 1.52l-1.77-.94.94-1.76zm-10.07-1.48m-.58-1.91 1.77.94c-.24.45-.65.82-1.18.98s-1.07.09-1.52-.15l.93-1.77zm8.77 6.93c-.45-.24-.81-.65-.98-1.18-.16-.53-.09-1.07.15-1.52l1.77.94-.94 1.76zm21.92-17.8c.45.24.81.65.98 1.18-.17-.52-.53-.93-.98-1.18z" fill="#FBED7C"/>
			<path d="m249.68 81.57.94-1.77c.45.24.81.65.98 1.18.16.53.09 1.07-.15 1.52l-1.77-.93z" fill="#FBED7C"/>
			<path d="m249.68 81.57-.94 1.77c-.45-.24-.81-.65-.98-1.18-.16-.53-.09-1.07.15-1.52l1.77.93zm-.58-1.92c-.53.16-.94.52-1.18.98.24-.45.65-.82 1.18-.98z" fill="#FBED7C"/>
			<path d="m249.68 81.57-1.77-.94c.24-.45.65-.82 1.18-.98s1.07-.09 1.52.15l-.93 1.77zm-3.4 10.65c-.24.45-.65.82-1.18.98s-1.07.09-1.52-.15l.94-1.77 1.76.94zm-3.53-1.88c.24-.45.65-.82 1.18-.98s1.07-.09 1.52.15l-.94 1.77-1.76-.94z" fill="#FBED7C"/>
			<path d="m242.75 90.34 1.77.94-.94 1.77c-.45-.24-.81-.65-.98-1.18-.15-.53-.09-1.07.15-1.53zm7.52-6.85c.53-.16.94-.52 1.18-.98-.24.45-.65.81-1.18.98z" fill="#FBED7C"/>
			<path d="m249.68 81.57 1.77.94c-.24.45-.65.82-1.18.98s-1.07.09-1.52-.15l.93-1.77zm-4.22 7.95c.45.24.81.65.98 1.18.16.53.09 1.07-.15 1.52l-1.77-.94.94-1.76z" fill="#FBED7C"/>
			<path d="m9.51 95.66 4.76-3.28-2.57-11.15-2.19 14.43z" fill="#F6C642"/>
			<path d="m11.7 81.23 2.57 11.15 4.77-3.29-5.15-22.35-2.19 14.49z" fill="#F6DC41"/>
			<path d="m13.89 66.74 5.15 22.35 4.78-3.3-7.74-33.54-2.19 14.49z" fill="#F6C642"/>
			<path d="m16.08 52.25 7.74 33.54 4.77-3.29-10.32-44.74-2.19 14.49z" fill="#F6DC41"/>
			<path d="m20.42 23.47-2.15 14.29 10.32 44.74 4.78-3.29-12.86-55.68-.09-.06z" fill="#F6C642"/>
			<path d="m20.51 23.53 12.86 55.68 4.77-3.3-11.16-48.34-6.47-4.04z" fill="#F6DC41"/>
			<path d="m26.98 27.57 11.16 48.34 4.78-3.29-9.47-41.01-6.47-4.04z" fill="#F6C642"/>
			<path d="m33.45 31.61 9.47 41.01 4.77-3.29-7.77-33.68-6.47-4.04z" fill="#F6DC41"/>
			<path d="m39.92 35.65 7.77 33.68 4.78-3.3-6.08-26.33-6.47-4.05z" fill="#F6C642"/>
			<path d="m46.39 39.7 6.08 26.33 4.77-3.29-4.39-19-6.46-4.04z" fill="#F6DC41"/>
			<path d="m52.85 43.74 4.39 19 4.78-3.29-2.7-11.67-6.47-4.04z" fill="#F6C642"/>
			<path d="m59.32 47.78 2.7 11.67 4.77-3.3-1-4.33-6.47-4.04z" fill="#F6DC41"/>
			<path d="m66.79 56.15 2.82-1.94-3.82-2.39 1 4.33z" fill="#F6C642"/>
			<path d="m315.01 92.59 1.14-2.24 2.5-.04.81 5.35-4.45-3.07z" fill="#8073AC"/>
			<path d="m315.01 92.59-4.98-3.44 2.41-4.73 5.31-.1.9 5.99-2.5.04-1.14 2.24z" fill="#B2ACCB"/>
			<path d="m310.02 89.15-4.98-3.43 3.69-7.24 8.11-.15.91 5.99-5.31.09-2.42 4.74z" fill="#8073AC"/>
			<path d="m305.04 85.71-4.98-3.43 4.96-9.74 10.92-.19.9 5.98-8.11.15-3.69 7.23z" fill="#B2ACCB"/>
			<path d="m300.06 82.28-7.57-5.22 3.53-.07 5.29-10.38 11.66-.21 1.6-3.13 1.37 9.08-10.92.19-4.96 9.74z" fill="#8073AC"/>
			<path d="m301.31 66.6-5.29 10.39-3.54.06-8.48-5.84 8.31-.15 5.3-10.39 11.65-.21 3.77-7.37 1.54 10.18-1.6 3.13-11.66.2z" fill="#B2ACCB"/>
			<path d="m297.6 60.67-5.29 10.38-8.31.15-7.44-5.13.38-.74 11.66-.21 5.3-10.39 11.65-.21 5.3-10.38.82-.02 1.36 8.96-3.77 7.38-11.66.21z" fill="#8073AC"/>
			<path d="m305.55 54.52-11.65.21-5.3 10.39-11.66.21-.38.74-4.98-3.44 1.65-3.24 11.66-.21 5.3-10.38 11.65-.21 5.3-10.39 3.63-.06.9 5.98-.82.02-5.3 10.38z" fill="#B2ACCB"/>
			<path d="m301.84 48.59-11.65.21-5.3 10.38-11.66.21-1.66 3.24-4.98-3.43 2.93-5.74 11.66-.21 5.3-10.39 11.65-.21 5.3-10.38 6.43-.12.91 5.98-3.63.07-5.3 10.39z" fill="#8073AC"/>
			<path d="m298.13 42.65-11.65.21-5.3 10.38-11.66.21-2.93 5.74-4.98-3.43 2.21-4.34 6.37-3.98 7.28-.13 3.31-6.48 6.37-3.98 7.27-.13 3.31-6.49 6.38-3.98 4.85-.09.9 5.99-6.43.11-5.3 10.39z" fill="#B2ACCB"/>
			<path d="m270.2 47.44 10.57-6.61-3.3 6.48-7.27.13zm38.35-23.97.41 2.69-4.85.09 4.44-2.78zm-21.4 13.37 10.58-6.6-3.31 6.47-7.27.13zm-27.79 17.37 4.45-2.78-2.21 4.33-2.24-1.55z" fill="#8073AC"/>
		</pattern>
	</defs>
	<rect width="100%" height="100" fill="url(#a)"/>
</svg>
