<svg viewBox="0 0 64 48" xmlns="http://www.w3.org/2000/svg">
	<path d="m63.647 23.98c-.133-.074-5.633-3.062-7.23-7.463-1.33-3.688.06-8.386.06-8.386.03-.119-.03-.163-.148-.119 0 0-6.194 1.398-9.787.075-3.947-1.784-5.263-6.795-5.263-6.795-.03-.074-.089-.104-.148-.09-.059 0-.103.03-.147.075 0 0-1.641 5.516-8.442 5.71-6.8-.179-8.442-5.71-8.442-5.71-.059-.044-.118-.074-.162-.074-.06-.015-.118.015-.148.09 0 0-1.316 5.01-5.263 6.794-3.607 1.323-9.802-.075-9.802-.075-.103-.044-.162 0-.147.12 0 0 1.39 4.697.059 8.385-1.597 4.4-7.097 7.404-7.23 7.463-.31.164-.28.223 0 .387.133.074 5.81 3.182 7.067 7.478 1.271 4.357-.636 8.43-.636 8.43-.03.12.03.164.148.12 0 0 6.328-1.844 10.29-.15 3.518 1.666 4.775 7.598 4.775 7.598.03.074.089.104.148.09.044 0 .103-.016.133-.06 0 0 3.37-6.066 9.195-5.917 5.825-.15 9.196 5.917 9.196 5.917a.18.18 0 00.133.06c.059.014.118-.016.148-.09 0 0 1.242-5.932 4.775-7.597 3.962-1.695 10.29.148 10.29.148.103.045.162 0 .147-.119 0 0-1.907-4.088-.636-8.43 1.257-4.296 6.934-7.389 7.067-7.478.266-.178.31-.223 0-.387z" fill="#FA6549"/>
	<path d="M28.63 32.256c.24.24.505.336.769.336.792 0 1.56-.816 1.56-1.584 0-.264-.096-.528-.312-.768l-4.416-4.416 4.416-4.392c.24-.24.336-.504.336-.792 0-.768-.816-1.584-1.608-1.584a1.05 1.05 0 00-.768.312l-4.416 4.416-4.416-4.416a1.05 1.05 0 00-.768-.312c-.792 0-1.608.816-1.608 1.584 0 .288.096.552.336.792l4.416 4.392-4.416 4.416c-.216.24-.312.504-.312.768 0 .768.768 1.584 1.56 1.584.264 0 .528-.096.768-.336l4.44-4.392 4.44 4.392zM38.889 21.48c-.936 0-1.416.816-1.416 1.608 0 .816.48 1.632 1.416 1.632.096 0 .744 0 .84.024 1.776.096 3.408.936 3.408 2.736 0 1.848-1.344 2.856-3.384 2.856-1.68 0-2.856-.816-3.216-2.184-.216-.768-.816-1.104-1.416-1.104-.864 0-1.776.648-1.776 1.584 0 .36.72 4.92 6.408 4.92 4.224 0 6.768-2.376 6.768-6.048 0-1.944-1.008-3.744-2.856-4.512 1.488-.6 2.304-2.112 2.304-3.84 0-3.384-2.52-5.424-6.24-5.424-3.216 0-5.52 1.776-5.88 4.368 0 .072-.024.144-.024.216 0 .912.912 1.44 1.752 1.44.648 0 1.272-.312 1.44-.984.24-1.128 1.2-1.872 2.736-1.872 1.848 0 2.904 1.008 2.904 2.304 0 1.44-1.416 2.112-2.88 2.256-.12.024-.312.024-.504.024h-.384z" fill="#F6ED8B"/>
</svg>
