<svg viewBox="0 0 16 16" xmlns="http://www.w3.org/2000/svg">
	<path d="M12.676 1.755l.094-.093L14.275.178c.15-.148.288-.204.413-.167.126.037.207.155.245.353l1.053 6.14c.037.198 0 .352-.113.463-.113.112-.27.149-.47.112l-6.15-1.095c-.213-.037-.332-.117-.357-.24-.038-.137.013-.273.15-.409l1.317-1.298a4.951 4.951 0 00-1.599-.576 4.48 4.48 0 00-1.673.019 4.714 4.714 0 00-1.599.594 4.555 4.555 0 00-1.335 1.168c-.326.42-.57.878-.734 1.373a4.83 4.83 0 000 3.042c.163.495.414.953.753 1.373.413.52.902.927 1.467 1.224a5.077 5.077 0 001.767.557 4.95 4.95 0 001.806-.112 4.872 4.872 0 001.655-.797.432.432 0 01.376-.111c.138.012.25.074.338.185l1.41 1.54c.101.123.151.26.151.408a.513.513 0 01-.207.37 7.844 7.844 0 01-2.651 1.373 8.659 8.659 0 01-2.915.316 8.249 8.249 0 01-2.84-.742 7.673 7.673 0 01-2.464-1.781 7.93 7.93 0 01-1.542-2.449 7.567 7.567 0 01-.526-2.764 7.771 7.771 0 01.47-2.764A7.537 7.537 0 011.919 2.98a7.617 7.617 0 012.388-1.855A7.947 7.947 0 017.11.29a8.21 8.21 0 012.896.223c.966.235 1.856.65 2.671 1.243z" fill="#897A66"/>
</svg>
