<svg viewBox="0 0 64 64" xmlns="http://www.w3.org/2000/svg">
	<path d="m53.51 30.36h-44.93v2.33h44.93v-2.33zm-3.91 4.33h-3.58c-3.23 3.08-7.62 7.41-10.74 10.53-1.47-3.75-4.23-5.73-6.26-6.6-2.4-1.03-4.04-1.02-4.62-3.93h-5.66c.89 7.6 5.28 8.59 8.3 9.89 2.73 1.17 3.65 3.16 3.65 6.4 0 1.76 1.25 3.19 2.8 3.19 1.54 0 2.8-1.43 2.8-3.19 0-1.15-.11-2.2-.29-3.16 3.57-3.53 9.86-9.55 13.6-13.13zm-25.09-6.33c.66-2.41 2.25-2.46 4.5-3.42 2.04-.87 4.8-2.85 6.26-6.6 2.95 2.95 7.04 6.99 10.21 10.02h3.58c-3.77-3.62-9.65-9.26-13.06-12.62.18-.97.29-2.01.29-3.16 0-1.76-1.25-3.19-2.8-3.19s-2.8 1.43-2.8 3.19c0 3.25-.92 5.23-3.65 6.41-2.96 1.26-7.24 2.22-8.25 9.38h5.72v-.01z" fill="#53B7CA"/>
	<path d="m11.42 37.51-9.29-5.02c-.77-.41-.77-1.52 0-1.93l9.29-5.02c.93-.5 1.97.48 1.51 1.43l-2.14 4.55 2.15 4.55c.44.96-.59 1.94-1.52 1.44zm37.29-5.98 1.99 2.94c.69 1.02 1.75 1.72 2.95 2.01 1.62.38 3.95 1.16 5.32 2.65.4.43 1.14.26 1.32-.3 1.43-4.49-3.15-7.29-3.15-7.29s4.58-2.81 3.15-7.29c-.18-.56-.92-.74-1.32-.3-1.37 1.49-3.7 2.27-5.32 2.65-1.2.28-2.26.99-2.95 2.01l-1.99 2.92z" fill="#53B7CA"/>
</svg>
