<svg viewBox="0 0 72 72" xmlns="http://www.w3.org/2000/svg">
	<g clip-path="url(#clip0)">
		<path d="m55.339 25.65s4.36-1.575 5.203-5.501c-2.801-.338-11.948-4.804-14.473-7.077a8.074 8.074 0 00-.765 1.277c-.642 1.31-.754 4.045-.692 4.337-1.018-.253-3.763-1.125-8.73-1.125h-.023c-4.967 0-7.712.872-8.73 1.125.057-.292-.056-3.02-.692-4.337-.241-.49-.5-.917-.781-1.3-2.492 2.256-11.61 6.717-14.457 7.088.838 3.938 5.21 5.513 5.21 5.513-4.585 6.187-7.06 13.517-6.83 19.642.585 11.24 10.035 13.247 12.19 13.838 4.185 1.153 9.585 2.03 14.09 2.036h.022c4.507-.006 9.907-.883 14.091-2.036 2.155-.596 11.6-2.599 12.19-13.838.23-6.125-2.245-13.455-6.823-19.642z" fill="#EEB04B"/>
		<path d="M60.66 19.361c.197-3.088-1.84-4.916-4.033-6.536-2.363-1.738-7.532-3.898-10.564.242 2.526 2.272 11.672 6.738 14.473 7.076a4.83 4.83 0 00.124-.782zM15.109 12.83c-2.188 1.615-4.23 3.443-4.028 6.531.023.27.062.53.118.777 2.852-.372 11.97-4.832 14.462-7.088-3.037-4.112-8.195-1.957-10.552-.22z" fill="#A48255"/>
		<path d="m48.696 14.203c-2.138 1.39-2.093 5.36-2.093 5.36s4.376 2.093 6.829 4.478c0 0 3.46-1.187 4.146-4 .894-3.656-5.699-7.903-8.882-5.838zm-25.628 0c-3.178-2.065-9.776 2.182-8.882 5.838.687 2.819 4.146 4 4.146 4 2.452-2.385 6.829-4.478 6.829-4.478s.05-3.97-2.093-5.36z" fill="#E79591"/>
		<path d="m48.74 14.945c-2.205 1.277-2.137 4.619-2.137 4.619s4.376 2.092 6.829 4.477c0 0 2.503-1.012 3.212-3.825.838-3.341-4.68-7.138-7.904-5.27zm-25.785 0c-2.89-1.794-8.696 1.89-7.987 5.226.607 2.835 3.364 3.87 3.364 3.87 2.452-2.385 6.828-4.477 6.828-4.477s0-3.246-2.204-4.619z" fill="#E79591"/>
		<g clip-rule="evenodd" fill-rule="evenodd">
			<g fill="#A48255">
				<path d="m43.324 47.672c-.962-1.744-2.728-2.717-3.881-3.302-1.44-.737-3.015-1.03-3.612-1.03-.596 0-2.171.293-3.611 1.03-1.153.59-2.92 1.558-3.881 3.302-1.361 2.469-.287 5.045.77 6.058 1.058 1.007 3.786 1.76 6.722 1.76s5.665-.753 6.722-1.76c1.058-1.013 2.132-3.589.77-6.058z" fill-opacity=".2"/>
				<path d="m42.587 48.808c-.163-2.75-3.437-4.134-4.332-4.55-.675-.31-1.805-.844-2.418-.844s-1.75.534-2.419.843c-.894.417-4.168 1.8-4.331 4.55-.175 2.96 1.294 3.848 2.12 4.5.703.558 2.864 1.008 4.63 1.008s3.932-.45 4.63-1.007c.82-.653 2.294-1.536 2.12-4.5z" fill-opacity=".5"/>
				<path d="m38.492 44.589c-.636-.428-2.081-1.063-2.655-1.063s-2.02.641-2.655 1.063c-.776.523-2.813 1.907-2.83 4.331-.01 2.256 2.031 3.1 2.644 3.415s1.767.511 2.841.511 2.227-.202 2.84-.511c.614-.31 2.656-1.16 2.644-3.415-.017-2.424-2.053-3.808-2.829-4.331z"/>
				<path d="m57.302 33.941c-2.093-4.708-3.786-7.127-8.843-9.922-1.968-1.086-7.273-2.695-12.583-2.706h-.034c-5.31.006-10.614 1.614-12.583 2.706-5.057 2.795-6.75 5.214-8.842 9.922-1.44 3.234-1.913 7.695-.67 10.58.614 1.424 1.829 2.52 2.965 2.943a7.083 7.083 0 002.47.433c3.205 0 6.457-2.149 8.054-3.223 1.924-1.288 5.423-2.886 8.629-2.993 3.206.107 6.705 1.699 8.629 2.993 1.597 1.068 4.843 3.223 8.055 3.223a7.06 7.06 0 002.47-.433c1.135-.422 2.35-1.514 2.963-2.942 1.232-2.892.76-7.346-.68-10.58z"/>
			</g>
			<path d="m53.758 35.01c-.641-3.82-3.195-6.109-5.462-6.17-2.615-.068-5.636 2.233-4.708 8.696.816 4.815 3.37 5.878 5.755 5.76 2.379-.118 5.287-3.117 4.415-8.286zm-30.347-6.17c-2.267.056-4.82 2.35-5.462 6.17-.872 5.17 2.037 8.168 4.416 8.286 2.385.118 4.939-.94 5.754-5.76.928-6.463-2.092-8.764-4.708-8.697z" fill="#fff"/>
			<path d="m51.553 35.741v-.118s-.99-2.88-1.164-3.054c-.175-.175-2.093-.703-2.093-.703s-1.626.236-2.21 1.057c-.58.822-.698 8.05 2.671 7.639 3.375-.41 2.796-4.82 2.796-4.82zm-28.147-3.875s-1.919.529-2.093.703-1.164 3.054-1.164 3.054v.118s-.58 4.41 2.79 4.821c3.369.41 3.256-6.817 2.671-7.639-.573-.821-2.204-1.057-2.204-1.057z" fill="#85CCC8"/>
			<path d="m53.741 35.01c-.641-3.82-3.195-6.109-5.462-6.17-1.772-.046-3.723.995-4.517 3.672 1.35.838 5.727 3.437 10.131 4.754a10.99 10.99 0 00-.152-2.256zm-30.313-6.17c-2.267.055-4.82 2.35-5.462 6.17-.135.81-.18 1.564-.146 2.261 4.399-1.316 8.78-3.915 10.13-4.753-.798-2.683-2.756-3.724-4.522-3.679z" fill="#EEB04B"/>
		</g>
	</g>
	<defs>
		<clipPath id="clip0">
			<path d="M9.563 10.688h52.616v50.479H9.563z" fill="#fff"/>
		</clipPath>
	</defs>
</svg>
