mtllib Material.mtl
v  -0.029999997467 1.570312142372 -0.076406255364
v  0.029999997467 1.570312142372 -0.076406255364
v  -0.063749991357 1.610624670982 -0.006093759090
v  0.034687496722 1.615312099457 -0.091406255960
v  -0.034687496722 1.615312099457 -0.091406255960
v  0.040312498808 1.693124532700 -0.097968742251
v  -0.040312495083 1.693124532700 -0.097968742251
v  0.063749998808 1.610624670982 -0.006093759090
vn -0.576255619526 -0.730299293995 -0.366868287325
vn 0.576255619526 -0.730299293995 -0.366868287325
vn -0.650509655476 -0.689024925232 -0.319502383471
vn 0.568651616573 -0.206147104502 -0.796328186989
vn -0.569228589535 -0.205555602908 -0.796068787575
vn 0.520781338215 0.316014885902 -0.793045580387
vn -0.521843194962 0.316216170788 -0.792266905308
vn 0.649379193783 -0.689613521099 -0.320530533791
vt 0.696259021759 0.284759998322 0.000000000000
vt 0.303680002689 0.284759998322 0.000000000000
vt 0.915466010571 0.462554991245 0.000000000000
vt 0.270965993404 0.480377018452 0.000000000000
vt 0.728972971439 0.480377018452 0.000000000000
vt 0.238220006227 0.817718982697 0.000000000000
vt 0.761718988419 0.817718982697 0.000000000000
vt 0.084472998977 0.462554991245 0.000000000000
g Head_Back
usemtl Head_Back
f 1/1/1 2/2/2 3/3/3 
f 1/1/1 4/4/4 2/2/2 
f 5/5/5 4/4/4 1/1/1 
f 5/5/5 6/6/6 4/4/4 
f 7/7/7 6/6/6 5/5/5 
f 3/3/3 2/2/2 8/8/8 
v  -0.028124995530 1.727812528610 -0.032343752682
v  -0.069374993443 1.697812557220 -0.016406254843
v  -0.053437486291 1.690312385559 0.045468736440
v  -0.040312495083 1.693125009537 -0.097968742251
v  0.029062498361 1.727812528610 -0.032343752682
v  0.040312498808 1.693125009537 -0.097968742251
v  0.069374993443 1.697812557220 -0.016406254843
v  0.000000000000 1.713749885559 0.073593720794
v  0.055312491953 1.690312385559 0.045468736440
vn -0.303267091513 0.944151222706 -0.128870308399
vn -0.903286814690 0.428744554520 -0.015839615837
vn -0.770157098770 0.326711416245 0.547829866409
vn -0.521843194962 0.316216170788 -0.792266905308
vn 0.308157742023 0.942244887352 -0.131199553609
vn 0.520781338215 0.316014885902 -0.793045580387
vn 0.906214356422 0.422027617693 -0.025848133489
vn -0.005622264929 0.614038109779 0.789256274700
vn 0.772749781609 0.312407553196 0.552502632141
vt 0.296234011650 0.614960014820 0.000000000000
vt 0.000000000000 0.523833990097 0.000000000000
vt 0.113372996449 0.165436029434 0.000000000000
vt 0.210114002228 1.000000000000 0.000000000000
vt 0.708190977573 0.614960014820 0.000000000000
vt 0.789825022221 1.000000000000 0.000000000000
vt 0.999939024448 0.523833990097 0.000000000000
vt 0.499969005585 0.000030994415 0.000000000000
vt 0.898499011993 0.165436029434 0.000000000000
g Head_Top
usemtl Head
f 9/9/9 10/10/10 11/11/11 
f 9/9/9 12/12/12 10/10/10 
f 13/13/13 12/12/12 9/9/9 
f 13/13/13 14/14/14 12/12/12 
f 15/15/15 14/14/14 13/13/13 
f 16/16/16 9/9/9 11/11/11 
f 16/16/16 13/13/13 9/9/9 
f 17/17/17 13/13/13 16/16/16 
f 17/17/17 15/15/15 13/13/13 
v  -0.076874986291 1.612499952316 -0.022968756035
v  -0.054374992847 1.571249961853 -0.002343758242
v  -0.061874993145 1.610625028610 0.000468742102
v  -0.067499987781 1.576874971390 -0.018281254917
v  0.061874993145 1.610625028610 0.000468742102
v  0.067499995232 1.576874971390 -0.018281254917
v  0.076874986291 1.612499952316 -0.022968756035
v  0.054374992847 1.571249961853 -0.002343758242
vn -0.984752118587 0.162030518055 -0.063318386674
vn -0.709019184113 -0.618180096149 0.339330285788
vn -0.816585540771 0.206258356571 0.539115369320
vn -0.884903728962 -0.464840888977 -0.029466135427
vn 0.805565178394 0.221481412649 0.549554884434
vn 0.874308049679 -0.480866670609 -0.065973937511
vn 0.981708467007 0.172936379910 -0.079633034766
vn 0.692427992821 -0.632577538490 0.346971213818
vt 0.999969005585 1.000000000000 0.000000000000
vt 0.116699002683 0.000060975552 0.000000000000
vt 0.000000000000 0.956969976425 0.000000000000
vt 0.805419981480 0.134154975414 0.000000000000
g Ear_Fronts
usemtl Ear_Fronts
f 18/18/18 19/19/19 20/20/20 
f 18/18/18 21/21/21 19/19/19 
f 22/20/22 23/21/23 24/18/24 
f 22/20/22 25/19/25 23/21/23 
v  -0.053437486291 1.570312738419 -0.023906255141
v  -0.076874986291 1.612500071526 -0.022968754172
v  -0.062812492251 1.613437652588 -0.029531255364
v  -0.067499987781 1.576875209808 -0.018281256780
v  -0.054374992847 1.571249961853 -0.002343758475
v  0.067499995232 1.576875209808 -0.018281256780
v  0.062812492251 1.613437652588 -0.029531255364
v  0.076874986291 1.612500071526 -0.022968754172
v  0.053437493742 1.570312738419 -0.023906255141
v  0.054374992847 1.571249961853 -0.002343758475
v  -0.065624989569 1.620937585831 -0.017343755811
v  -0.061874993145 1.610625267029 0.000468741637
v  0.065624997020 1.620937585831 -0.017343755811
v  0.061874993145 1.610625267029 0.000468741637
vn -0.514526247978 -0.711755871773 -0.478190571070
vn -0.984752118587 0.162030518055 -0.063318386674
vn -0.425037533045 0.206620782614 -0.881277918816
vn -0.884903728962 -0.464840888977 -0.029466135427
vn -0.709019184113 -0.618180096149 0.339330285788
vn 0.874308049679 -0.480866670609 -0.065973937511
vn 0.432514369488 0.196342736483 -0.879989027977
vn 0.981708467007 0.172936379910 -0.079633034766
vn 0.521203160286 -0.706487894058 -0.478771328926
vn 0.692427992821 -0.632577538490 0.346971213818
vn -0.626649141312 0.773775935173 0.092637188733
vn -0.816585540771 0.206258356571 0.539115369320
vn 0.626649141312 0.773775875568 0.092637203634
vn 0.805565178394 0.221481412649 0.549554884434
vt 0.999939024448 0.000060975552 0.000000000000
vt 0.000000000000 0.879517018795 0.000000000000
vt 0.896362006664 0.845153987408 0.000000000000
vt 0.191131994128 0.176514029503 0.000000000000
vt 0.958557009697 0.028961002827 0.000000000000
vt 0.813934028149 1.000000000000 0.000000000000
vt 0.899567008018 0.797913014889 0.000000000000
g Ear_Sides
usemtl Ear_Sides
f 26/22/26 27/23/27 28/24/28 
f 26/22/26 29/25/29 27/23/27 
f 30/26/30 29/25/29 26/22/26 
f 31/25/31 32/24/32 33/23/33 
f 31/25/31 34/22/34 32/24/32 
f 35/26/35 34/22/34 31/25/31 
f 27/23/27 36/27/36 28/24/28 
f 27/23/27 37/28/37 36/27/36 
f 38/27/38 33/23/33 32/24/32 
f 38/27/38 39/28/39 33/23/33 
v  0.052499994636 1.564687728882 0.007031244226
v  0.035624995828 1.539375185966 0.044531233609
v  0.044062495232 1.531875133514 -0.000468757004
v  0.043124996126 1.563750267029 0.046406231821
v  0.063749998808 1.610625267029 -0.006093755364
v  0.048749990761 1.585312843323 0.043593741953
v  0.050624996424 1.607812881470 0.041718732566
v  0.055312491953 1.690312743187 0.045468740165
v  0.052499994636 1.657500267029 0.046406231821
v  0.069374993443 1.697812795639 -0.016406252980
v  0.034687496722 1.615312814713 -0.091406248510
v  0.040312498808 1.693125247955 -0.097968742251
v  -0.069374993443 1.697812795639 -0.016406252980
v  -0.052499987185 1.657500267029 0.046406231821
v  -0.053437486291 1.690312743187 0.045468740165
v  -0.063749991357 1.610625267029 -0.006093755364
v  -0.040312495083 1.693125247955 -0.097968742251
v  -0.034687496722 1.615312814713 -0.091406248510
v  -0.048749990761 1.614375352859 0.052031233907
v  -0.050624988973 1.607812881470 0.041718732566
v  -0.047812491655 1.585312843323 0.043593741953
v  -0.052499987185 1.564687728882 0.007031244226
v  -0.043124992400 1.563750267029 0.046406231821
v  -0.035624995828 1.539375185966 0.044531233609
v  -0.044062491506 1.531875133514 -0.000468757004
v  0.048749990761 1.614375352859 0.052031233907
v  0.029999997467 1.570312738419 -0.076406240463
v  -0.029999997467 1.570312738419 -0.076406240463
vn 0.964040577412 -0.237385392189 0.119473218918
vn 0.846908271313 -0.341650277376 0.407457143068
vn 0.808191895485 -0.533350646496 -0.249725461006
vn 0.803606212139 -0.199712470174 0.560652971268
vn 0.649379193783 -0.689613521099 -0.320530533791
vn 0.797655344009 -0.064465813339 0.599658131599
vn 0.754355549812 -0.252423286438 0.605995118618
vn 0.772749781609 0.312407553196 0.552502632141
vn 0.776316106319 -0.017517020926 0.630100190639
vn 0.906214356422 0.422027617693 -0.025848133489
vn 0.568651616573 -0.206147104502 -0.796328186989
vn 0.520781338215 0.316014885902 -0.793045580387
vn -0.903286814690 0.428744554520 -0.015839615837
vn -0.782676398754 0.003166633658 0.622420608997
vn -0.770157098770 0.326711416245 0.547829866409
vn -0.650509655476 -0.689024925232 -0.319502383471
vn -0.521843194962 0.316216170788 -0.792266905308
vn -0.569228589535 -0.205555602908 -0.796068787575
vn -0.765551388264 -0.284904986620 0.576853573322
vn -0.766005218029 -0.251665949821 0.591523528099
vn -0.797599375248 -0.079157866538 0.597970843315
vn -0.963919699192 -0.238362461329 0.118498928845
vn -0.798620283604 -0.176347240806 0.575419068336
vn -0.846908211708 -0.341650247574 0.407457262278
vn -0.808191895485 -0.533350706100 -0.249725431204
vn 0.768321990967 -0.286665499210 0.572279691696
vn 0.576255619526 -0.730299293995 -0.366868287325
vn -0.576255619526 -0.730299293995 -0.366868287325
vt 0.411437988281 0.260864019394 0.000000000000
vt 0.201720997691 0.152190983295 0.000000000000
vt 0.453368991613 0.119597971439 0.000000000000
vt 0.195189997554 0.259064018726 0.000000000000
vt 0.486937999725 0.462554991245 0.000000000000
vt 0.210693001747 0.352416992188 0.000000000000
vt 0.221863001585 0.449523985386 0.000000000000
vt 0.198822006583 0.807953000069 0.000000000000
vt 0.195373997092 0.663818001747 0.000000000000
vt 0.542846977711 0.839447021484 0.000000000000
vt 0.959502995014 0.480377018452 0.000000000000
vt 0.999969005585 0.817718982697 0.000000000000
vt 0.160126000643 0.478209972382 0.000000000000
vt 0.875609993935 0.284759998322 0.000000000000
g Head_Sides
usemtl Head_Sides
f 40/29/40 41/30/41 42/31/42 
f 40/29/40 43/32/43 41/30/41 
f 44/33/44 43/32/43 40/29/40 
f 44/33/44 45/34/45 43/32/43 
f 46/35/46 45/34/45 44/33/44 
f 44/33/44 47/36/47 48/37/48 
f 44/33/44 49/38/49 47/36/47 
f 50/39/50 49/38/49 44/33/44 
f 50/39/50 51/40/51 49/38/49 
f 52/38/52 53/37/53 54/36/54 
f 52/38/52 55/33/55 53/37/53 
f 56/40/56 55/33/55 52/38/52 
f 56/40/56 57/39/57 55/33/55 
f 55/33/55 58/41/58 53/37/53 
f 55/33/55 59/35/59 58/41/58 
f 60/34/60 59/35/59 55/33/55 
f 61/29/61 62/32/62 60/34/60 
f 61/29/61 63/30/63 62/32/62 
f 64/31/64 63/30/63 61/29/61 
f 44/33/44 65/41/65 46/35/46 
f 44/33/44 48/37/48 65/41/65 
f 55/33/55 61/29/61 60/34/60 
f 55/33/55 64/31/64 61/29/61 
f 40/29/40 42/31/42 44/33/44 
f 66/42/66 50/39/50 44/33/44 
f 55/33/55 57/39/57 67/42/67 
v  0.044062495232 1.531875014305 -0.000468759448
v  -0.044062491506 1.531875014305 -0.000468759448
v  0.063749998808 1.610625028610 -0.006093759090
v  -0.014999998733 1.503750085831 0.033281236887
v  0.014999998733 1.503750085831 0.033281236887
v  -0.063749991357 1.610625028610 -0.006093759090
vn 0.000000000000 -0.341424912214 -0.939908981323
vn 0.000000000000 -0.341424942017 -0.939908981323
vn 0.000000000000 -0.071247100830 -0.997458636761
vn 0.000000000000 -0.768221259117 -0.640184342861
vn 0.000000000000 -0.768221259117 -0.640184402466
vt 0.527617990971 0.422577023506 0.000000000000
vt 0.474242985249 0.422577023506 0.000000000000
vt 0.528809010983 0.995148003101 0.000000000000
vt 0.474303990602 0.353057980537 0.000000000000
vt 0.527953982353 0.350861012936 0.000000000000
vt 0.474914997816 0.994536995888 0.000000000000
g Neck_Inner
usemtl Neck_Front
f 68/43/68 69/44/69 70/45/70 
f 68/43/68 71/46/71 69/44/69 
f 72/47/72 71/46/71 68/43/68 
f 70/45/70 69/44/69 73/48/70 
v  0.012187480927 1.507499933243 0.058593738824
v  -0.009375015274 1.530937433243 0.057656239718
v  -0.012187513523 1.507499933243 0.058593738824
v  0.009374982677 1.530937433243 0.057656239718
v  0.035624980927 1.539375066757 0.044531237334
v  0.011249982752 1.544062614441 0.062343735248
v  0.043124981225 1.563750028610 0.046406235546
v  0.017812481150 1.569375038147 0.063281238079
v  0.048749975860 1.585312485695 0.043593738228
v  0.014062482864 1.583437681198 0.063281238079
v  0.009374982677 1.605000019073 0.060468737036
v  -0.011250015348 1.544062614441 0.062343735248
v  -0.000000015663 1.559062480927 0.067031234503
v  0.004687483422 1.569375038147 0.081093743443
v  -0.017812512815 1.569375038147 0.063281238079
v  -0.004687515087 1.569375038147 0.081093743443
v  -0.004687515087 1.605000019073 0.068906232715
v  0.004687483422 1.605000019073 0.068906232715
v  -0.043125007302 1.563750028610 0.046406235546
v  -0.014062514529 1.583437681198 0.063281238079
v  -0.035625007004 1.539375066757 0.044531237334
v  0.005624983925 1.614375114441 0.075468733907
v  -0.005625015125 1.614375114441 0.075468733907
v  -0.000000015663 1.653750181198 0.073593735695
v  -0.048750009388 1.614375114441 0.052031233907
v  -0.052500005811 1.657500028610 0.046406235546
v  -0.000000015663 1.713750123978 0.073593735695
v  -0.053437508643 1.690312623978 0.045468736440
v  0.052499979734 1.657500028610 0.046406235546
v  0.048749975860 1.614375114441 0.052031233907
v  0.050624981523 1.607812404633 0.041718736291
v  -0.047812506557 1.585312485695 0.043593738228
v  -0.050625007600 1.607812404633 0.041718736291
v  -0.009375015274 1.605000019073 0.060468737036
v  -0.015000013635 1.503750085831 0.033281236887
v  0.014999982901 1.503750085831 0.033281236887
v  0.044062472880 1.531875014305 -0.000468757877
v  -0.044062510133 1.531875014305 -0.000468757877
v  0.055312480778 1.690312623978 0.045468736440
vn 0.523242652416 -0.612746775150 0.592248558998
vn -0.231137618423 -0.134103849530 0.963634490967
vn -0.523242652416 -0.612746775150 0.592248618603
vn 0.231137618423 -0.134103849530 0.963634490967
vn 0.846908271313 -0.341650277376 0.407457143068
vn 0.291610062122 -0.274255186319 0.916377425194
vn 0.803606212139 -0.199712470174 0.560652971268
vn 0.585456371307 -0.089324340224 0.805767893791
vn 0.797655344009 -0.064465813339 0.599658131599
vn 0.661418318748 0.196699246764 0.723764479160
vn 0.645580947399 -0.255201429129 0.719789803028
vn -0.291610121727 -0.274255186319 0.916377365589
vn 0.000000000000 -0.493683099747 0.869641840458
vn 0.405434638262 -0.279856264591 0.870231628418
vn -0.608266353607 -0.066520757973 0.790940523148
vn -0.407432049513 -0.276828855276 0.870267093182
vn -0.565426945686 -0.163580045104 0.808414340019
vn 0.555441915989 -0.143031835556 0.819161772728
vn -0.798620283604 -0.176347240806 0.575419068336
vn -0.647453129292 0.183501735330 0.739683270454
vn -0.846908211708 -0.341650247574 0.407457262278
vn 0.273881435394 -0.293151587248 0.915997266769
vn -0.279199182987 -0.289060831070 0.915691852570
vn -0.004836527631 0.057630259544 0.998326241970
vn -0.765551388264 -0.284904986620 0.576853573322
vn -0.782676398754 0.003166633658 0.622420608997
vn -0.005622264929 0.614038109779 0.789256274700
vn -0.770157098770 0.326711416245 0.547829866409
vn 0.776316106319 -0.017517020926 0.630100190639
vn 0.768321990967 -0.286665499210 0.572279691696
vn 0.754355549812 -0.252423286438 0.605995118618
vn -0.797599375248 -0.079157866538 0.597970843315
vn -0.766005218029 -0.251665949821 0.591523528099
vn -0.621758043766 -0.257677525282 0.739607334137
vn -0.323025316000 -0.940577745438 -0.104729108512
vn 0.323025316000 -0.940577745438 -0.104729108512
vn 0.808191895485 -0.533350646496 -0.249725461006
vn 0.726202547550 -0.370880752802 0.578858494759
vn -0.808191895485 -0.533350706100 -0.249725431204
vn -0.726202428341 -0.370880693197 0.578858673573
vn 0.772749781609 0.312407553196 0.552502632141
vt 0.579070985317 0.014403998852 0.000000000000
vt 0.440490990877 0.116119027138 0.000000000000
vt 0.420653998852 0.014403998852 0.000000000000
vt 0.559296011925 0.116119027138 0.000000000000
vt 0.730225026608 0.152190983295 0.000000000000
vt 0.572234988213 0.174346983433 0.000000000000
vt 0.779143989086 0.259064018726 0.000000000000
vt 0.614655017853 0.273406982422 0.000000000000
vt 0.819793999195 0.352416992188 0.000000000000
vt 0.593536019325 0.342926025391 0.000000000000
vt 0.559906005859 0.445128977299 0.000000000000
vt 0.427612006664 0.174346983433 0.000000000000
vt 0.499969005585 0.227874994278 0.000000000000
vt 0.531096994877 0.274872004986 0.000000000000
vt 0.385071009398 0.273406982422 0.000000000000
vt 0.468658000231 0.274872004986 0.000000000000
vt 0.465301990509 0.445128977299 0.000000000000
vt 0.528747975826 0.445128977299 0.000000000000
vt 0.220520004630 0.259064018726 0.000000000000
vt 0.406250000000 0.342926025391 0.000000000000
vt 0.269713997841 0.152190983295 0.000000000000
vt 0.536194026470 0.486846983433 0.000000000000
vt 0.457794010639 0.486846983433 0.000000000000
vt 0.499969005585 0.647736012936 0.000000000000
vt 0.183044001460 0.478209972382 0.000000000000
vt 0.155608996749 0.663818001747 0.000000000000
vt 0.499969005585 0.908996999264 0.000000000000
vt 0.150878995657 0.807953000069 0.000000000000
vt 0.844299018383 0.663818001747 0.000000000000
vt 0.816895008087 0.478209972382 0.000000000000
vt 0.827362000942 0.447356998920 0.000000000000
vt 0.187987998128 0.352416992188 0.000000000000
vt 0.172362998128 0.447356998920 0.000000000000
vt 0.434082001448 0.445128977299 0.000000000000
vt 0.404296994209 0.000030994415 0.000000000000
vt 0.595427989960 0.000060975552 0.000000000000
vt 0.778442025185 0.023041009903 0.000000000000
vt 0.986999988556 0.128234982491 0.000000000000
vt 0.929596006870 0.160857975483 0.000000000000
vt 0.794799983501 0.008697986603 0.000000000000
vt 0.221283003688 0.023041009903 0.000000000000
vt 0.012938999571 0.128234982491 0.000000000000
vt 0.204925999045 0.008697986603 0.000000000000
vt 0.070343002677 0.160857975483 0.000000000000
vt 0.859862983227 0.807953000069 0.000000000000
g Head_Front
usemtl Head_Front
f 74/49/73 75/50/74 76/51/75 
f 74/49/73 77/52/76 75/50/74 
f 78/53/77 77/52/76 74/49/73 
f 78/53/77 79/54/78 77/52/76 
f 80/55/79 79/54/78 78/53/77 
f 80/55/79 81/56/80 79/54/78 
f 82/57/81 81/56/80 80/55/79 
f 82/57/81 83/58/82 81/56/80 
f 84/59/83 83/58/82 82/57/81 
f 79/54/78 85/60/84 77/52/76 
f 79/54/78 86/61/85 85/60/84 
f 81/56/80 86/61/85 79/54/78 
f 81/56/80 87/62/86 86/61/85 
f 83/58/82 87/62/86 81/56/80 
f 86/61/85 88/63/87 85/60/84 
f 86/61/85 89/64/88 88/63/87 
f 87/62/86 89/64/88 86/61/85 
f 87/62/86 90/65/89 89/64/88 
f 91/66/90 90/65/89 87/62/86 
f 92/67/91 88/63/87 93/68/92 
f 92/67/91 85/60/84 88/63/87 
f 94/69/93 85/60/84 92/67/91 
f 94/69/93 75/50/74 85/60/84 
f 76/51/75 75/50/74 94/69/93 
f 95/70/94 91/66/90 84/59/83 
f 95/70/94 96/71/95 91/66/90 
f 97/72/96 96/71/95 95/70/94 
f 97/72/96 98/73/97 96/71/95 
f 99/74/98 98/73/97 97/72/96 
f 97/72/96 100/75/99 101/76/100 
f 97/72/96 102/77/101 100/75/99 
f 95/70/94 102/77/101 97/72/96 
f 95/70/94 103/78/102 102/77/101 
f 84/59/83 103/78/102 95/70/94 
f 84/59/83 104/79/103 103/78/102 
f 82/57/81 104/79/103 84/59/83 
f 93/68/92 105/80/104 92/67/91 
f 93/68/92 106/81/105 105/80/104 
f 107/82/106 106/81/105 93/68/92 
f 108/83/107 74/49/73 76/51/75 
f 108/83/107 109/84/108 74/49/73 
f 83/58/82 91/66/90 87/62/86 
f 83/58/82 84/59/83 91/66/90 
f 96/71/95 90/65/89 91/66/90 
f 96/71/95 107/82/106 90/65/89 
f 89/64/88 107/82/106 93/68/92 
f 89/64/88 90/65/89 107/82/106 
f 96/71/95 106/81/105 107/82/106 
f 96/71/95 98/73/97 106/81/105 
f 74/85/73 110/86/109 78/87/110 
f 74/85/73 109/88/108 110/86/109 
f 76/89/75 111/90/111 108/91/107 
f 76/89/75 94/92/112 111/90/111 
f 75/50/74 77/52/76 85/60/84 
f 93/68/92 88/63/87 89/64/88 
f 99/74/98 97/72/96 101/76/100 
f 100/75/99 102/77/101 112/93/113 