mtllib Material.mtl
v  0.008124987595 1.004999995232 0.039062492549
v  -0.006250009872 1.020624995232 0.038437493145
v  -0.008125009015 1.004999995232 0.039062492549
v  0.006249988452 1.020624995232 0.038437493145
v  0.023749986663 1.026250004768 0.029687492177
v  0.007499988656 1.029375076294 0.041562490165
v  0.028749987483 1.042500019073 0.030937490985
v  0.011874987744 1.046249985695 0.042187489569
v  0.032499983907 1.056874990463 0.029062492773
v  0.009374988265 1.055625081062 0.042187489569
v  0.006249988452 1.070000052452 0.040312491357
v  -0.007500010077 1.029375076294 0.041562490165
v  -0.000000010442 1.039374947548 0.044687487185
v  0.003124989104 1.046249985695 0.054062493145
v  -0.011875008233 1.046249985695 0.042187489569
v  -0.003125010058 1.046249985695 0.054062493145
v  -0.003125010058 1.070000052452 0.045937485993
v  0.003124989104 1.070000052452 0.045937485993
v  -0.028750004247 1.042500019073 0.030937490985
v  -0.009375009686 1.055625081062 0.042187489569
v  -0.023750005290 1.026250004768 0.029687492177
v  0.003749989206 1.076250076294 0.050312489271
v  -0.003750009928 1.076250076294 0.050312489271
v  -0.000000010442 1.102500081062 0.049062490463
v  -0.032500006258 1.076250076294 0.034687489271
v  -0.035000003874 1.105000019073 0.030937490985
v  -0.000000010442 1.142500042915 0.049062490463
v  -0.035625007004 1.126875042915 0.030312491581
v  0.034999985248 1.105000019073 0.030937490985
v  0.032499983907 1.076250076294 0.034687489271
v  0.033749986440 1.071874976158 0.027812490240
v  -0.031875003129 1.056874990463 0.029062492773
v  -0.033750005066 1.071874976158 0.027812490240
v  -0.006250009872 1.070000052452 0.040312491357
v  -0.010000009090 1.002500057220 0.022187491879
v  0.009999988601 1.002500057220 0.022187491879
v  0.029374983162 1.021250009537 -0.000312505261
v  -0.029375005513 1.021250009537 -0.000312505261
v  0.036874987185 1.126875042915 0.030312491581
vn 0.523242652416 -0.612746775150 0.592248558998
vn -0.231137618423 -0.134103849530 0.963634490967
vn -0.523242652416 -0.612746775150 0.592248618603
vn 0.231137618423 -0.134103849530 0.963634490967
vn 0.846908271313 -0.341650277376 0.407457143068
vn 0.291610062122 -0.274255186319 0.916377425194
vn 0.803606212139 -0.199712470174 0.560652971268
vn 0.585456371307 -0.089324340224 0.805767893791
vn 0.797655344009 -0.064465813339 0.599658131599
vn 0.661418318748 0.196699246764 0.723764479160
vn 0.645580947399 -0.255201429129 0.719789803028
vn -0.291610121727 -0.274255186319 0.916377365589
vn 0.000000000000 -0.493683099747 0.869641840458
vn 0.405434638262 -0.279856264591 0.870231628418
vn -0.608266353607 -0.066520757973 0.790940523148
vn -0.407432049513 -0.276828855276 0.870267093182
vn -0.565426945686 -0.163580045104 0.808414340019
vn 0.555441915989 -0.143031835556 0.819161772728
vn -0.798620283604 -0.176347240806 0.575419068336
vn -0.647453129292 0.183501735330 0.739683270454
vn -0.846908211708 -0.341650247574 0.407457262278
vn 0.273881435394 -0.293151587248 0.915997266769
vn -0.279199182987 -0.289060831070 0.915691852570
vn -0.004836527631 0.057630259544 0.998326241970
vn -0.765551388264 -0.284904986620 0.576853573322
vn -0.782676398754 0.003166633658 0.622420608997
vn -0.005622264929 0.614038109779 0.789256274700
vn -0.770157098770 0.326711416245 0.547829866409
vn 0.776316106319 -0.017517020926 0.630100190639
vn 0.768321990967 -0.286665499210 0.572279691696
vn 0.754355549812 -0.252423286438 0.605995118618
vn -0.797599375248 -0.079157866538 0.597970843315
vn -0.766005218029 -0.251665949821 0.591523528099
vn -0.621758043766 -0.257677525282 0.739607334137
vn -0.323025316000 -0.940577745438 -0.104729108512
vn 0.323025316000 -0.940577745438 -0.104729108512
vn 0.808191895485 -0.533350646496 -0.249725461006
vn 0.726202547550 -0.370880752802 0.578858494759
vn -0.808191895485 -0.533350706100 -0.249725431204
vn -0.726202428341 -0.370880693197 0.578858673573
vn 0.772749781609 0.312407553196 0.552502632141
vt 0.579070985317 0.014403998852 0.000000000000
vt 0.440490990877 0.116119027138 0.000000000000
vt 0.420653998852 0.014403998852 0.000000000000
vt 0.559296011925 0.116119027138 0.000000000000
vt 0.730225026608 0.152190983295 0.000000000000
vt 0.572234988213 0.174346983433 0.000000000000
vt 0.779143989086 0.259064018726 0.000000000000
vt 0.614655017853 0.273406982422 0.000000000000
vt 0.819793999195 0.352416992188 0.000000000000
vt 0.593536019325 0.342926025391 0.000000000000
vt 0.559906005859 0.445128977299 0.000000000000
vt 0.427612006664 0.174346983433 0.000000000000
vt 0.499969005585 0.227874994278 0.000000000000
vt 0.531096994877 0.274872004986 0.000000000000
vt 0.385071009398 0.273406982422 0.000000000000
vt 0.468658000231 0.274872004986 0.000000000000
vt 0.465301990509 0.445128977299 0.000000000000
vt 0.528747975826 0.445128977299 0.000000000000
vt 0.220520004630 0.259064018726 0.000000000000
vt 0.406250000000 0.342926025391 0.000000000000
vt 0.269713997841 0.152190983295 0.000000000000
vt 0.536194026470 0.486846983433 0.000000000000
vt 0.457794010639 0.486846983433 0.000000000000
vt 0.499969005585 0.647736012936 0.000000000000
vt 0.183044001460 0.478209972382 0.000000000000
vt 0.155608996749 0.663818001747 0.000000000000
vt 0.499969005585 0.908996999264 0.000000000000
vt 0.150878995657 0.807953000069 0.000000000000
vt 0.844299018383 0.663818001747 0.000000000000
vt 0.816895008087 0.478209972382 0.000000000000
vt 0.827362000942 0.447356998920 0.000000000000
vt 0.187987998128 0.352416992188 0.000000000000
vt 0.172362998128 0.447356998920 0.000000000000
vt 0.434082001448 0.445128977299 0.000000000000
vt 0.404296994209 0.000030994415 0.000000000000
vt 0.595427989960 0.000060975552 0.000000000000
vt 0.778442025185 0.023041009903 0.000000000000
vt 0.986999988556 0.128234982491 0.000000000000
vt 0.929596006870 0.160857975483 0.000000000000
vt 0.794799983501 0.008697986603 0.000000000000
vt 0.221283003688 0.023041009903 0.000000000000
vt 0.012938999571 0.128234982491 0.000000000000
vt 0.204925999045 0.008697986603 0.000000000000
vt 0.070343002677 0.160857975483 0.000000000000
vt 0.859862983227 0.807953000069 0.000000000000
g Head_Front
usemtl Head_Front
f 1/1/1 2/2/2 3/3/3 
f 1/1/1 4/4/4 2/2/2 
f 5/5/5 4/4/4 1/1/1 
f 5/5/5 6/6/6 4/4/4 
f 7/7/7 6/6/6 5/5/5 
f 7/7/7 8/8/8 6/6/6 
f 9/9/9 8/8/8 7/7/7 
f 9/9/9 10/10/10 8/8/8 
f 11/11/11 10/10/10 9/9/9 
f 6/6/6 12/12/12 4/4/4 
f 6/6/6 13/13/13 12/12/12 
f 8/8/8 13/13/13 6/6/6 
f 8/8/8 14/14/14 13/13/13 
f 10/10/10 14/14/14 8/8/8 
f 13/13/13 15/15/15 12/12/12 
f 13/13/13 16/16/16 15/15/15 
f 14/14/14 16/16/16 13/13/13 
f 14/14/14 17/17/17 16/16/16 
f 18/18/18 17/17/17 14/14/14 
f 19/19/19 15/15/15 20/20/20 
f 19/19/19 12/12/12 15/15/15 
f 21/21/21 12/12/12 19/19/19 
f 21/21/21 2/2/2 12/12/12 
f 3/3/3 2/2/2 21/21/21 
f 22/22/22 18/18/18 11/11/11 
f 22/22/22 23/23/23 18/18/18 
f 24/24/24 23/23/23 22/22/22 
f 24/24/24 25/25/25 23/23/23 
f 26/26/26 25/25/25 24/24/24 
f 24/24/24 27/27/27 28/28/28 
f 24/24/24 29/29/29 27/27/27 
f 22/22/22 29/29/29 24/24/24 
f 22/22/22 30/30/30 29/29/29 
f 11/11/11 30/30/30 22/22/22 
f 11/11/11 31/31/31 30/30/30 
f 9/9/9 31/31/31 11/11/11 
f 20/20/20 32/32/32 19/19/19 
f 20/20/20 33/33/33 32/32/32 
f 34/34/34 33/33/33 20/20/20 
f 35/35/35 1/1/1 3/3/3 
f 35/35/35 36/36/36 1/1/1 
f 10/10/10 18/18/18 14/14/14 
f 10/10/10 11/11/11 18/18/18 
f 23/23/23 17/17/17 18/18/18 
f 23/23/23 34/34/34 17/17/17 
f 16/16/16 34/34/34 20/20/20 
f 16/16/16 17/17/17 34/34/34 
f 23/23/23 33/33/33 34/34/34 
f 23/23/23 25/25/25 33/33/33 
f 1/37/1 37/38/37 5/39/38 
f 1/37/1 36/40/36 37/38/37 
f 3/41/3 38/42/39 35/43/35 
f 3/41/3 21/44/40 38/42/39 
f 2/2/2 4/4/4 12/12/12 
f 20/20/20 15/15/15 16/16/16 
f 26/26/26 24/24/24 28/28/28 
f 27/27/27 29/29/29 39/45/41 
v  -0.019999997690 1.046874761581 -0.050937503576
v  0.019999997690 1.046874761581 -0.050937503576
v  -0.042499992996 1.073749780655 -0.004062505905
v  0.023124998435 1.076874732971 -0.060937505215
v  -0.023124996573 1.076874732971 -0.060937505215
v  0.026874998584 1.128749728203 -0.065312497318
v  -0.026874996722 1.128749728203 -0.065312497318
v  0.042499996722 1.073749780655 -0.004062505905
vn -0.576255619526 -0.730299293995 -0.366868287325
vn 0.576255619526 -0.730299293995 -0.366868287325
vn -0.650509655476 -0.689024925232 -0.319502383471
vn 0.568651616573 -0.206147104502 -0.796328186989
vn -0.569228589535 -0.205555602908 -0.796068787575
vn 0.520781338215 0.316014885902 -0.793045580387
vn -0.521843194962 0.316216170788 -0.792266905308
vn 0.649379193783 -0.689613521099 -0.320530533791
vt 0.696259021759 0.284759998322 0.000000000000
vt 0.303680002689 0.284759998322 0.000000000000
vt 0.915466010571 0.462554991245 0.000000000000
vt 0.270965993404 0.480377018452 0.000000000000
vt 0.728972971439 0.480377018452 0.000000000000
vt 0.238220006227 0.817718982697 0.000000000000
vt 0.761718988419 0.817718982697 0.000000000000
vt 0.084472998977 0.462554991245 0.000000000000
g Head_Back
usemtl Head_Back
f 40/46/42 41/47/43 42/48/44 
f 40/46/42 43/49/45 41/47/43 
f 44/50/46 43/49/45 40/46/42 
f 44/50/46 45/51/47 43/49/45 
f 46/52/48 45/51/47 44/50/46 
f 42/48/44 41/47/43 47/53/49 
v  -0.018749997020 1.151875019073 -0.021562501788
v  -0.046249993145 1.131875038147 -0.010937503539
v  -0.035624992102 1.126874923706 0.030312491581
v  -0.026874996722 1.128749966621 -0.065312497318
v  0.019374998286 1.151875019073 -0.021562501788
v  0.026874998584 1.128749966621 -0.065312497318
v  0.046249996871 1.131875038147 -0.010937503539
v  0.000000000000 1.142499923706 0.049062483013
v  0.036874994636 1.126874923706 0.030312491581
vn -0.303267091513 0.944151222706 -0.128870308399
vn -0.903286814690 0.428744554520 -0.015839615837
vn -0.770157098770 0.326711416245 0.547829866409
vn -0.521843194962 0.316216170788 -0.792266905308
vn 0.308157742023 0.942244887352 -0.131199553609
vn 0.520781338215 0.316014885902 -0.793045580387
vn 0.906214356422 0.422027617693 -0.025848133489
vn -0.005622264929 0.614038109779 0.789256274700
vn 0.772749781609 0.312407553196 0.552502632141
vt 0.296234011650 0.614960014820 0.000000000000
vt 0.000000000000 0.523833990097 0.000000000000
vt 0.113372996449 0.165436029434 0.000000000000
vt 0.210114002228 1.000000000000 0.000000000000
vt 0.708190977573 0.614960014820 0.000000000000
vt 0.789825022221 1.000000000000 0.000000000000
vt 0.999939024448 0.523833990097 0.000000000000
vt 0.499969005585 0.000030994415 0.000000000000
vt 0.898499011993 0.165436029434 0.000000000000
g Head_Top
usemtl Head
f 48/54/50 49/55/51 50/56/52 
f 48/54/50 51/57/53 49/55/51 
f 52/58/54 51/57/53 48/54/50 
f 52/58/54 53/59/55 51/57/53 
f 54/60/56 53/59/55 52/58/54 
f 55/61/57 48/54/50 50/56/52 
f 55/61/57 52/58/54 48/54/50 
f 56/62/58 52/58/54 55/61/57 
f 56/62/58 54/60/56 52/58/54 
v  -0.051249992102 1.074999928474 -0.015312504023
v  -0.036249995232 1.047500014305 -0.001562505495
v  -0.041249994189 1.073750019073 0.000312494725
v  -0.044999990612 1.051249980927 -0.012187503278
v  0.041249994189 1.073750019073 0.000312494725
v  0.044999994338 1.051249980927 -0.012187503278
v  0.051249992102 1.074999928474 -0.015312504023
v  0.036249995232 1.047500014305 -0.001562505495
vn -0.984752118587 0.162030518055 -0.063318386674
vn -0.709019184113 -0.618180096149 0.339330285788
vn -0.816585540771 0.206258356571 0.539115369320
vn -0.884903728962 -0.464840888977 -0.029466135427
vn 0.805565178394 0.221481412649 0.549554884434
vn 0.874308049679 -0.480866670609 -0.065973937511
vn 0.981708467007 0.172936379910 -0.079633034766
vn 0.692427992821 -0.632577538490 0.346971213818
vt 0.999969005585 1.000000000000 0.000000000000
vt 0.116699002683 0.000060975552 0.000000000000
vt 0.000000000000 0.956969976425 0.000000000000
vt 0.805419981480 0.134154975414 0.000000000000
g Ear_Fronts
usemtl Ear_Fronts
f 57/63/59 58/64/60 59/65/61 
f 57/63/59 60/66/62 58/64/60 
f 61/65/63 62/66/64 63/63/65 
f 61/65/63 64/64/66 62/66/64 
v  -0.035624992102 1.046875119209 -0.015937503427
v  -0.051249992102 1.075000047684 -0.015312503092
v  -0.041874993593 1.075625061989 -0.019687503576
v  -0.044999990612 1.051250100136 -0.012187504210
v  -0.036249995232 1.047500014305 -0.001562505728
v  0.044999994338 1.051250100136 -0.012187504210
v  0.041874993593 1.075625061989 -0.019687503576
v  0.051249992102 1.075000047684 -0.015312503092
v  0.035624995828 1.046875119209 -0.015937503427
v  0.036249995232 1.047500014305 -0.001562505728
v  -0.043749991804 1.080625057220 -0.011562503874
v  -0.041249994189 1.073750138283 0.000312494434
v  0.043749995530 1.080625057220 -0.011562503874
v  0.041249994189 1.073750138283 0.000312494434
vn -0.514526247978 -0.711755871773 -0.478190571070
vn -0.984752118587 0.162030518055 -0.063318386674
vn -0.425037533045 0.206620782614 -0.881277918816
vn -0.884903728962 -0.464840888977 -0.029466135427
vn -0.709019184113 -0.618180096149 0.339330285788
vn 0.874308049679 -0.480866670609 -0.065973937511
vn 0.432514369488 0.196342736483 -0.879989027977
vn 0.981708467007 0.172936379910 -0.079633034766
vn 0.521203160286 -0.706487894058 -0.478771328926
vn 0.692427992821 -0.632577538490 0.346971213818
vn -0.626649141312 0.773775935173 0.092637188733
vn -0.816585540771 0.206258356571 0.539115369320
vn 0.626649141312 0.773775875568 0.092637203634
vn 0.805565178394 0.221481412649 0.549554884434
vt 0.999939024448 0.000060975552 0.000000000000
vt 0.000000000000 0.879517018795 0.000000000000
vt 0.896362006664 0.845153987408 0.000000000000
vt 0.191131994128 0.176514029503 0.000000000000
vt 0.958557009697 0.028961002827 0.000000000000
vt 0.813934028149 1.000000000000 0.000000000000
vt 0.899567008018 0.797913014889 0.000000000000
g Ear_Sides
usemtl Ear_Sides
f 65/67/67 66/68/68 67/69/69 
f 65/67/67 68/70/70 66/68/68 
f 69/71/71 68/70/70 65/67/67 
f 70/70/72 71/69/73 72/68/74 
f 70/70/72 73/67/75 71/69/73 
f 74/71/76 73/67/75 70/70/72 
f 66/68/68 75/72/77 67/69/69 
f 66/68/68 76/73/78 75/72/77 
f 77/72/79 72/68/74 71/69/73 
f 77/72/79 78/73/80 72/68/74 
v  0.034999996424 1.043125152588 0.004687495995
v  0.023749997839 1.026250123978 0.029687490314
v  0.029374996200 1.021250128746 -0.000312504679
v  0.028749996796 1.042500138283 0.030937489122
v  0.042499996722 1.073750138283 -0.004062503576
v  0.032499995083 1.056875228882 0.029062494636
v  0.033749997616 1.071875214577 0.027812488377
v  0.036874994636 1.126875162125 0.030312493443
v  0.034999996424 1.105000138283 0.030937489122
v  0.046249996871 1.131875157356 -0.010937502608
v  0.023124998435 1.076875209808 -0.060937497765
v  0.026874998584 1.128750205040 -0.065312497318
v  -0.046249993145 1.131875157356 -0.010937502608
v  -0.034999992698 1.105000138283 0.030937489122
v  -0.035624992102 1.126875162125 0.030312493443
v  -0.042499992996 1.073750138283 -0.004062503576
v  -0.026874996722 1.128750205040 -0.065312497318
v  -0.023124996573 1.076875209808 -0.060937497765
v  -0.032499995083 1.076250195503 0.034687489271
v  -0.033749993891 1.071875214577 0.027812488377
v  -0.031874995679 1.056875228882 0.029062494636
v  -0.034999992698 1.043125152588 0.004687495995
v  -0.028749994934 1.042500138283 0.030937489122
v  -0.023749995977 1.026250123978 0.029687490314
v  -0.029374994338 1.021250128746 -0.000312504679
v  0.032499995083 1.076250195503 0.034687489271
v  0.019999997690 1.046875119209 -0.050937496126
v  -0.019999997690 1.046875119209 -0.050937496126
vn 0.964040577412 -0.237385392189 0.119473218918
vn 0.846908271313 -0.341650277376 0.407457143068
vn 0.808191895485 -0.533350646496 -0.249725461006
vn 0.803606212139 -0.199712470174 0.560652971268
vn 0.649379193783 -0.689613521099 -0.320530533791
vn 0.797655344009 -0.064465813339 0.599658131599
vn 0.754355549812 -0.252423286438 0.605995118618
vn 0.772749781609 0.312407553196 0.552502632141
vn 0.776316106319 -0.017517020926 0.630100190639
vn 0.906214356422 0.422027617693 -0.025848133489
vn 0.568651616573 -0.206147104502 -0.796328186989
vn 0.520781338215 0.316014885902 -0.793045580387
vn -0.903286814690 0.428744554520 -0.015839615837
vn -0.782676398754 0.003166633658 0.622420608997
vn -0.770157098770 0.326711416245 0.547829866409
vn -0.650509655476 -0.689024925232 -0.319502383471
vn -0.521843194962 0.316216170788 -0.792266905308
vn -0.569228589535 -0.205555602908 -0.796068787575
vn -0.765551388264 -0.284904986620 0.576853573322
vn -0.766005218029 -0.251665949821 0.591523528099
vn -0.797599375248 -0.079157866538 0.597970843315
vn -0.963919699192 -0.238362461329 0.118498928845
vn -0.798620283604 -0.176347240806 0.575419068336
vn -0.846908211708 -0.341650247574 0.407457262278
vn -0.808191895485 -0.533350706100 -0.249725431204
vn 0.768321990967 -0.286665499210 0.572279691696
vn 0.576255619526 -0.730299293995 -0.366868287325
vn -0.576255619526 -0.730299293995 -0.366868287325
vt 0.411437988281 0.260864019394 0.000000000000
vt 0.201720997691 0.152190983295 0.000000000000
vt 0.453368991613 0.119597971439 0.000000000000
vt 0.195189997554 0.259064018726 0.000000000000
vt 0.486937999725 0.462554991245 0.000000000000
vt 0.210693001747 0.352416992188 0.000000000000
vt 0.221863001585 0.449523985386 0.000000000000
vt 0.198822006583 0.807953000069 0.000000000000
vt 0.195373997092 0.663818001747 0.000000000000
vt 0.542846977711 0.839447021484 0.000000000000
vt 0.959502995014 0.480377018452 0.000000000000
vt 0.999969005585 0.817718982697 0.000000000000
vt 0.160126000643 0.478209972382 0.000000000000
vt 0.875609993935 0.284759998322 0.000000000000
g Head_Sides
usemtl Head_Sides
f 79/74/81 80/75/82 81/76/83 
f 79/74/81 82/77/84 80/75/82 
f 83/78/85 82/77/84 79/74/81 
f 83/78/85 84/79/86 82/77/84 
f 85/80/87 84/79/86 83/78/85 
f 83/78/85 86/81/88 87/82/89 
f 83/78/85 88/83/90 86/81/88 
f 89/84/91 88/83/90 83/78/85 
f 89/84/91 90/85/92 88/83/90 
f 91/83/93 92/82/94 93/81/95 
f 91/83/93 94/78/96 92/82/94 
f 95/85/97 94/78/96 91/83/93 
f 95/85/97 96/84/98 94/78/96 
f 94/78/96 97/86/99 92/82/94 
f 94/78/96 98/80/100 97/86/99 
f 99/79/101 98/80/100 94/78/96 
f 100/74/102 101/77/103 99/79/101 
f 100/74/102 102/75/104 101/77/103 
f 103/76/105 102/75/104 100/74/102 
f 83/78/85 104/86/106 85/80/87 
f 83/78/85 87/82/89 104/86/106 
f 94/78/96 100/74/102 99/79/101 
f 94/78/96 103/76/105 100/74/102 
f 79/74/81 81/76/83 83/78/85 
f 105/87/107 89/84/91 83/78/85 
f 94/78/96 96/84/98 106/87/108 
v  0.029374996200 1.021250009537 -0.000312506309
v  -0.029374994338 1.021250009537 -0.000312506309
v  0.042499996722 1.073750019073 -0.004062505905
v  -0.009999998845 1.002500057220 0.022187490016
v  0.009999998845 1.002500057220 0.022187490016
v  -0.042499992996 1.073750019073 -0.004062505905
vn 0.000000000000 -0.341424912214 -0.939908981323
vn 0.000000000000 -0.341424942017 -0.939908981323
vn 0.000000000000 -0.071247100830 -0.997458636761
vn 0.000000000000 -0.768221259117 -0.640184342861
vn 0.000000000000 -0.768221259117 -0.640184402466
vt 0.527617990971 0.422577023506 0.000000000000
vt 0.474242985249 0.422577023506 0.000000000000
vt 0.528809010983 0.995148003101 0.000000000000
vt 0.474303990602 0.353057980537 0.000000000000
vt 0.527953982353 0.350861012936 0.000000000000
vt 0.474914997816 0.994536995888 0.000000000000
g Neck_Inner
usemtl Neck_Front
f 107/88/109 108/89/110 109/90/111 
f 107/88/109 110/91/112 108/89/110 
f 111/92/113 110/91/112 107/88/109 
f 109/90/111 108/89/110 112/93/111 