mtllib ma.mtl
v  645.208923339844 171.979171752930 -597.787353515625
v  654.344116210938 184.251052856445 -589.593017578125
v  645.208923339844 184.251052856445 -597.787353515625
v  654.344116210938 171.979171752930 -589.593017578125
v  664.815917968750 182.628509521484 -575.544982910156
v  672.473754882813 192.915771484375 -568.675842285156
v  664.815917968750 192.915771484375 -575.544982910156
v  672.473754882813 182.628509521484 -568.675842285156
v  683.297058105469 173.881988525391 -553.910949707031
v  691.078063964844 184.334716796875 -546.931335449219
v  683.297058105469 184.334716796875 -553.910949707031
v  691.078063964844 173.881988525391 -546.931335449219
v  854.735473632813 182.754547119141 -359.853271484375
v  862.746459960938 193.516235351563 -352.667327880859
v  854.735473632813 193.516235351563 -359.853271484375
v  862.746459960938 182.754547119141 -352.667327880859
v  871.831604003906 193.549072265625 -338.505493164063
v  880.118774414063 204.681747436523 -331.071838378906
v  871.831604003906 204.681747436523 -338.505493164063
v  880.118774414063 193.549072265625 -331.071838378906
v  892.013916015625 184.416641235352 -316.619445800781
v  899.710449218750 194.755828857422 -309.715606689453
v  892.013916015625 194.755828857422 -316.619445800781
v  899.710449218750 184.416641235352 -309.715606689453
v  540.346679687500 394.494598388672 -1745.980834960938
v  551.663391113281 405.815643310547 -1745.668334960938
v  540.346679687500 405.815643310547 -1745.980834960938
v  551.663391113281 394.494598388672 -1745.668334960938
v  933.015869140625 1041.774536132813 -1727.386840820313
v  938.848510742188 1054.291748046875 -1720.282226562500
v  931.992126464844 1052.629150390625 -1728.697265625000
v  939.872253417969 1043.437133789063 -1718.971801757813
v  976.151306152344 1061.344970703125 -1688.443481445313
v  981.983886718750 1073.862182617188 -1681.338867187500
v  975.127502441406 1072.199584960938 -1689.753906250000
v  983.007690429688 1063.007568359375 -1680.028442382813
v  1368.248291015625 1230.270019531250 -1324.271484375000
v  1374.080932617188 1242.787231445313 -1317.166748046875
v  1367.224487304688 1241.124633789063 -1325.581787109375
v  1375.104614257813 1231.932617187500 -1315.856445312500
v  1411.111328125000 1249.727783203125 -1284.333496093750
v  1416.943969726563 1262.244873046875 -1277.228759765625
v  1410.087524414063 1260.582397460938 -1285.643798828125
v  1417.967651367188 1251.390380859375 -1275.918457031250
v  1803.056762695313 1418.523315429688 -918.721435546875
v  1808.889404296875 1431.040527343750 -911.616760253906
v  1802.032958984375 1429.377929687500 -920.031799316406
v  1809.913085937500 1420.185913085938 -910.306396484375
v  1845.980590820313 1437.453735351563 -878.611694335938
v  1851.813232421875 1449.970825195313 -871.507019042969
v  1844.956787109375 1448.308349609375 -879.922058105469
v  1852.837036132813 1439.116333007813 -870.196655273438
v  1111.338867187500 82.602737426758 -2163.331298828125
v  1121.506103515625 91.995033264160 -2164.608398437500
v  1111.338867187500 91.995033264160 -2163.331298828125
v  1121.506103515625 82.602737426758 -2164.608398437500
v  639.640991210938 108.151313781738 -1675.269165039063
v  651.927307128906 119.501129150391 -1676.812500000000
v  639.640991210938 119.501129150391 -1675.269165039063
v  651.927307128906 108.151313781738 -1676.812500000000
v  857.348571777344 116.120628356934 -1356.667846679688
v  866.626525878906 127.773780822754 -1347.975219726563
v  857.348571777344 127.773780822754 -1356.667846679688
v  866.626525878906 116.120628356934 -1347.975219726563
v  1242.434204101563 126.400810241699 -972.821716308594
v  1251.679687500000 138.013259887695 -964.159545898438
v  1242.434204101563 138.013259887695 -972.821716308594
v  1251.679687500000 126.400810241699 -964.159545898438
v  1637.648803710938 126.843597412109 -661.201538085938
v  1648.914794921875 140.993667602539 -650.646423339844
v  1637.648803710938 140.993667602539 -661.201538085938
v  1648.914794921875 126.843597412109 -650.646423339844
v  1744.316284179688 133.313888549805 -247.341827392578
v  1747.540893554688 148.065414428711 -231.573989868164
v  1744.316284179688 148.065414428711 -247.341827392578
v  1747.540893554688 133.313888549805 -231.573989868164
v  1434.593994140625 134.640625000000 40.829177856445
v  1428.256347656250 149.289733886719 55.501346588135
v  1434.593994140625 149.289733886719 40.829177856445
v  1428.256347656250 134.640625000000 55.501346588135
v  1195.199218750000 142.353607177734 348.716552734375
v  1187.759887695313 159.549362182617 365.939361572266
v  1195.199218750000 159.549362182617 348.716552734375
v  1187.759887695313 142.353607177734 365.939361572266
v  2002.100708007813 1653.920166015625 -172.250411987305
v  2002.468872070313 1666.209472656250 -162.763031005859
v  2001.077026367188 1664.774780273438 -173.560791015625
v  2003.492675781250 1655.354980468750 -161.452667236328
v  1966.899536132813 1659.647949218750 -110.007057189941
v  1966.714843750000 1671.892822265625 -100.456932067871
v  1965.875732421875 1670.502563476563 -111.317436218262
v  1967.738647460938 1661.038208007813 -99.146560668945
v  1553.423583984375 1692.168334960938 399.136871337891
v  1553.791748046875 1704.457763671875 408.624237060547
v  1552.399780273438 1703.022949218750 397.826477050781
v  1554.815429687500 1693.603149414063 409.934600830078
v  1518.222412109375 1696.831176757813 461.380218505859
v  1518.037719726563 1709.075927734375 470.930328369141
v  1517.198608398438 1707.685791015625 460.069854736328
v  1519.061401367188 1698.221435546875 472.240722656250
v  1159.973632812500 41.018703460693 -1264.768310546875
v  1221.019897460938 123.026084899902 -1210.009155273438
v  1159.973632812500 123.026084899902 -1264.768310546875
v  1221.019897460938 41.018703460693 -1210.009155273438
vn -0.667733013630 0.000000000000 0.744400858879
vn -0.667733013630 0.000000000000 0.744400799274
vn -0.667733311653 0.000000000000 0.744400620461
vn -0.667733252048 0.000000000000 0.744400620461
vn -0.667733311653 0.000000000000 0.744400680065
vn -0.667732775211 0.000000000000 0.744401097298
vn -0.667732715607 0.000000000000 0.744401037693
vn -0.667734563351 0.000000000000 0.744399368763
vn -0.667734563351 0.000000000000 0.744399428368
vn -0.667734563351 0.000000000000 0.744399487972
vn -0.667733132839 0.000000000000 0.744400799274
vn -0.667732596397 0.000000000000 0.744401216507
vn -0.027603503317 0.000000000000 0.999619007111
vn -0.027603503317 0.000000000000 0.999618947506
vn -0.775542140007 0.003067827784 0.631288290024
vn -0.775542199612 0.003067828016 0.631288290024
vn -0.775542199612 0.003067827784 0.631288290024
vn -0.775541841984 0.003063587239 0.631288766861
vn -0.775541543961 0.003060872434 0.631289064884
vn -0.775541603565 0.003060872201 0.631289064884
vn -0.775538504124 0.003057253780 0.631292879581
vn -0.775544703007 0.003064490855 0.631285309792
vn -0.775541543961 0.003060891526 0.631289064884
vn -0.775541543961 0.003060891759 0.631289064884
vn -0.775538444519 0.003057258436 0.631292819977
vn -0.775544643402 0.003064524382 0.631285190582
vn -0.775541901588 0.003064333927 0.631288588047
vn -0.775541901588 0.003064333927 0.631288647652
vn -0.775538802147 0.003060731571 0.631292462349
vn -0.775545060635 0.003067936981 0.631284832954
vn -0.775538802147 0.003060750663 0.631292462349
vn -0.775538802147 0.003060750896 0.631292462349
vn -0.775538802147 0.003060736461 0.631292402744
vn -0.775538802147 0.003060764866 0.631292402744
vn 0.124629966915 0.000000000000 0.992203235626
vn 0.124634683132 0.000000000000 0.992202639580
vn 0.124634675682 0.000000000000 0.992202639580
vn -0.683712720871 0.000000000000 0.729751288891
vn -0.683711349964 0.000000000000 0.729752540588
vn -0.683711409569 0.000000000000 0.729752600193
vn -0.683708369732 0.000000000000 0.729755342007
vn -0.683708369732 0.000000000000 0.729755461216
vn -0.979722678661 0.000000000000 0.200358673930
vn -0.979722619057 0.000000000000 0.200358659029
vn -0.918018221855 0.000000000000 -0.396538197994
vn -0.918018221855 0.000000000000 -0.396538138390
vn -0.918019473553 0.000000000000 -0.396535217762
vn -0.918019413948 0.000000000000 -0.396535187960
vn -0.987543582916 -0.076543994248 0.137472152710
vn -0.987543642521 -0.076543994248 0.137472167611
vn -0.987544953823 -0.076538838446 0.137465521693
vn -0.987542331219 -0.076549150050 0.137478783727
vn -0.992707848549 -0.083088696003 0.087335497141
vn -0.992707788944 -0.083088703454 0.087335489690
vn -0.992707848549 -0.083088666201 0.087335459888
vn -0.992707848549 -0.083088718355 0.087335526943
vn -0.987543642521 -0.076543420553 0.137472599745
vn -0.987543582916 -0.076543413103 0.137472599745
vn -0.987542390823 -0.076547957957 0.137478441000
vn -0.987544834614 -0.076538883150 0.137466773391
vn -0.992708802223 -0.083084419370 0.087329074740
vn -0.992708683014 -0.083084404469 0.087329059839
vn -0.992707848549 -0.083088867366 0.087334811687
vn -0.992709636688 -0.083079956472 0.087323330343
vn -0.667734503746 0.000000000000 0.744399607182
vt 0.000030517578 0.000000000000 0.000000000000
vt 1.000000000000 0.999969482422 0.999969482422
vt 0.000030517578 0.999969482422 0.999969482422
vt 1.000000000000 0.000000000000 0.000000000000
g ma_fire
usemtl ma_fire_a_INST
s 1
f 1/1/1 2/2/2 3/3/2
s 2
f 2/2/1 1/1/2 4/4/2
s 3
f 5/1/3 6/2/4 7/3/5
s 4
f 6/2/3 5/1/4 8/4/5
s 5
f 9/1/6 10/2/6 11/3/7
s 6
f 10/2/6 9/1/6 12/4/7
s 7
f 13/1/8 14/2/9 15/3/10
s 8
f 14/2/8 13/1/9 16/4/10
s 9
f 17/1/11 18/2/11 19/3/11
s 10
f 18/2/11 17/1/11 20/4/11
s 11
f 21/1/12 22/2/12 23/3/12
s 12
f 22/2/12 21/1/12 24/4/12
s 13
f 25/1/13 26/2/13 27/3/14
s 14
f 26/2/13 25/1/13 28/4/14
s 15
f 29/1/15 30/2/16 31/3/17
s 16
f 30/2/15 29/1/16 32/4/17
s 17
f 33/1/18 34/2/18 35/3/18
s 18
f 34/2/18 33/1/18 36/4/18
s 19
f 37/1/19 38/2/20 39/3/21
s 20
f 38/2/20 37/1/19 40/4/22
s 21
f 41/1/23 42/2/24 43/3/25
s 22
f 42/2/24 41/1/23 44/4/26
s 23
f 45/1/27 46/2/28 47/3/29
s 24
f 46/2/28 45/1/27 48/4/30
s 25
f 49/1/31 50/2/32 51/3/33
s 26
f 50/2/32 49/1/31 52/4/34
s 27
f 53/1/35 54/2/35 55/3/35
s 28
f 54/2/35 53/1/35 56/4/35
s 29
f 57/1/36 58/2/36 59/3/37
s 30
f 58/2/36 57/1/36 60/4/37
s 31
f 61/1/38 62/2/38 63/3/38
s 32
f 62/2/38 61/1/38 64/4/38
s 33
f 65/1/39 66/2/39 67/3/40
s 34
f 66/2/39 65/1/39 68/4/40
s 35
f 69/1/41 70/2/41 71/3/42
s 36
f 70/2/41 69/1/41 72/4/42
s 37
f 73/1/43 74/2/43 75/3/44
s 38
f 74/2/43 73/1/43 76/4/44
s 39
f 77/1/45 78/2/45 79/3/46
s 40
f 78/2/45 77/1/45 80/4/46
s 41
f 81/1/47 82/2/47 83/3/48
s 42
f 82/2/47 81/1/47 84/4/48
s 43
f 85/1/49 86/2/50 87/3/51
s 44
f 86/2/50 85/1/49 88/4/52
s 45
f 89/1/53 90/2/54 91/3/55
s 46
f 90/2/54 89/1/53 92/4/56
s 47
f 93/1/57 94/2/58 95/3/59
s 48
f 94/2/58 93/1/57 96/4/60
s 49
f 97/1/61 98/2/62 99/3/63
s 50
f 98/2/62 97/1/61 100/4/64
usemtl ma_fire_b_INST
s 51
f 101/1/65 102/2/65 103/3/65
s 52
f 102/2/65 101/1/65 104/4/65