v  -191108.140625000000 1893.106079101563 63600.128906250000
v  -135050.921875000000 1893.106079101563 149920.671875000000
v  112.367179870605 -5239.854492187500 -193.361511230469
v  -196494.843750000000 1893.106079101563 -39184.273437500000
v  -149767.671875000000 1893.106079101563 -130891.523437500000
v  -63447.117187500000 1893.106079101563 -186948.750000000000
v  39337.285156250000 1893.106079101563 -192335.453125000000
v  131044.539062500000 1893.106079101563 -145608.265625000000
v  -43343.667968750000 1893.106079101563 196647.859375000000
v  59440.730468750000 1893.106079101563 191261.156250000000
v  145761.281250000000 1893.106079101563 135203.937500000000
v  192488.468750000000 1893.106079101563 43496.683593750000
v  187101.765625000000 1893.106079101563 -59287.718750000000
vn 0.030639352277 0.999332427979 -0.019897427410
vn 0.023613605648 0.999377131462 -0.026225563139
vn -0.000204300683 0.999999940395 0.000226900214
vn 0.036636613309 0.999326825142 -0.001920045470
vn 0.034803293645 0.999367296696 0.007331683300
vn 0.032928138971 0.999316871166 0.016777722165
vn 0.020299751312 0.999305188656 0.031258873641
vn 0.011230130680 0.999346911907 0.034347184002
vn -0.007519517094 0.999339103699 0.035563752055
vn -0.024375686422 0.999336242676 0.027071947232
vn 0.016585746780 0.999332427979 -0.032551355660
vn -0.001920044073 0.999326825142 -0.036636613309
vn -0.010929455049 0.999367296696 -0.033846266568
vn -0.026590481400 0.999357163906 -0.024044057354
vn -0.035332892090 0.999346911907 -0.007578351535
vn -0.034582924098 0.999339103699 0.011195749044
vt 0.584960937500 0.994644165039 0.994644165039
vt 0.500000000000 0.994644165039 0.994644165039
vt 0.554199218750 0.008789062500 0.008789062500
vt 0.643066406250 0.008789062500 0.008789062500
vt 0.668945312500 0.994644165039 0.994644165039
vt 0.723632812500 0.008789062500 0.008789062500
vt 0.748535156250 0.994644165039 0.994644165039
vt 0.798828125000 0.008789062500 0.008789062500
vt 0.828125000000 0.994644165039 0.994644165039
vt 0.880371093750 0.008789062500 0.008789062500
vt 0.908203125000 0.994644165039 0.994644165039
vt 0.957031250000 0.008789062500 0.008789062500
vt 0.986816406250 0.994644165039 0.994644165039
vt 0.417724609375 0.994644165039 0.994644165039
vt 0.467285156250 0.008789062500 0.008789062500
vt 0.333984375000 0.994644165039 0.994644165039
vt 0.381103515625 0.008789062500 0.008789062500
vt 0.254394531250 0.994644165039 0.994644165039
vt 0.297363281250 0.008789062500 0.008789062500
vt 0.178710937500 0.994644165039 0.994644165039
vt 0.220825195313 0.008789062500 0.008789062500
vt 0.093017578125 0.994644165039 0.994644165039
vt 0.137329101563 0.008789062500 0.008789062500
vt 0.006210327148 0.994644165039 0.994644165039
vt 0.047607421875 0.008789062500 0.008789062500
g ma_lake
s 1
f 1/1/1 2/2/2 3/3/3
s 2
f 1/1/4 3/4/3 4/5/5
s 3
f 4/5/5 3/6/3 5/7/6
s 4
f 5/7/7 3/8/3 6/9/8
s 5
f 6/9/8 3/10/3 7/11/9
s 6
f 7/11/9 3/12/3 8/13/10
s 7
f 2/2/2 9/14/11 3/15/3
s 8
f 9/14/12 10/16/13 3/17/3
s 9
f 10/16/13 11/18/14 3/19/3
s 10
f 11/18/14 12/20/15 3/21/3
s 11
f 12/20/15 13/22/16 3/23/3
s 12
f 13/22/16 8/24/10 3/25/3