mtllib ma.mtl
v  -80411.593750000000 82626.843750000000 -122396.679687500000
v  -18881.832031250000 1834.815551757813 -166067.250000000000
v  -7307.345703125000 77359.359375000000 -149566.765625000000
v  -91986.078125000000 7102.303710937500 -138897.171875000000
v  187480.765625000000 1362.275024414063 42125.835937500000
v  142012.343750000000 1362.275024414063 131362.640625000000
v  181032.140625000000 33881.761718750000 40755.136718750000
v  137113.015625000000 33881.761718750000 126951.281250000000
v  58017.121093750000 1362.275024414063 185909.781250000000
v  162125.750000000000 64185.097656250000 36736.460937500000
v  122748.945312500000 64185.097656250000 114017.804687500000
v  55979.867187500000 33881.761718750000 179639.765625000000
v  -41998.437500000000 1362.275024414063 191151.375000000000
v  -40627.742187500000 33881.761718750000 184702.750000000000
v  50006.949218750000 64185.097656250000 161257.015625000000
v  99898.992187500000 90207.164062500000 93443.625000000000
v  132050.031250000000 90207.164062500000 30343.667968750000
v  92854.578125000000 110174.601562500000 22012.417968750000
v  70120.367187500000 110174.601562500000 66630.820312500000
v  40505.406250000000 90207.164062500000 132014.265625000000
v  -36609.062500000000 64185.097656250000 165796.359375000000
v  -126823.882812500000 33881.761718750000 140783.625000000000
v  -131235.250000000000 1362.275024414063 145682.937500000000
v  -185782.375000000000 1362.275024414063 61687.726562500000
v  -179512.359375000000 33881.761718750000 59650.476562500000
v  -113890.406250000000 64185.097656250000 126419.546875000000
v  -30216.271484375000 90207.164062500000 135720.640625000000
v  28122.757812500000 110174.601562500000 93904.390625000000
v  35442.417968750000 122726.648437500000 35406.660156250000
v  47210.511718750000 122726.648437500000 12310.472656250000
v  -1771.605102539063 127007.921875000000 1899.001708984375
v  13702.855468750000 122726.648437500000 49524.496093750000
v  -21885.021484375000 110174.601562500000 96525.187500000000
v  -93316.226562500000 90207.164062500000 103569.601562500000
v  -161129.609375000000 64185.097656250000 53677.558593750000
v  -184575.359375000000 33881.761718750000 -36957.136718750000
v  -191023.968750000000 1362.275024414063 -38327.832031250000
v  -145555.546875000000 1362.275024414063 -127564.640625000000
v  -140656.234375000000 33881.761718750000 -123153.273437500000
v  -165668.968750000000 64185.097656250000 -32938.457031250000
v  -131886.875000000000 90207.164062500000 44176.015625000000
v  -66503.429687500000 110174.601562500000 73790.976562500000
v  -12183.075195312500 122726.648437500000 50881.121093750000
v  -35279.261718750000 122726.648437500000 39113.023437500000
v  -49397.097656250000 122726.648437500000 17373.462890625000
v  -93776.992187500000 110174.601562500000 31793.365234375000
v  -135593.234375000000 90207.164062500000 -26545.664062500000
v  -126292.156250000000 64185.097656250000 -110219.804687500000
v  -59523.078125000000 33881.761718750000 -175841.765625000000
v  -61560.332031250000 1362.275024414063 -182111.781250000000
v  38455.226562500000 1362.275024414063 -187353.375000000000
v  37084.531250000000 33881.761718750000 -180904.750000000000
v  -53550.160156250000 64185.097656250000 -157459.000000000000
v  -103442.203125000000 90207.164062500000 -89645.617187500000
v  -96397.789062500000 110174.601562500000 -18214.414062500000
v  -50753.722656250000 122726.648437500000 -8512.468750000000
v  -73663.578125000000 110174.601562500000 -62832.820312500000
v  -44048.617187500000 90207.164062500000 -128216.265625000000
v  33065.855468750000 64185.097656250000 -161998.359375000000
v  123280.671875000000 33881.761718750000 -136985.625000000000
v  127692.039062500000 1362.275024414063 -141884.937500000000
v  182239.171875000000 1362.275024414063 -57889.722656250000
v  175969.156250000000 33881.761718750000 -55852.472656250000
v  110347.203125000000 64185.097656250000 -122621.546875000000
v  26673.060546875000 90207.164062500000 -131922.625000000000
v  -31665.968750000000 110174.601562500000 -90106.382812500000
v  -38985.628906250000 122726.648437500000 -31608.654296875000
v  -17246.066406250000 122726.648437500000 -45726.492187500000
v  18341.810546875000 110174.601562500000 -92727.179687500000
v  89773.015625000000 90207.164062500000 -99771.601562500000
v  157586.406250000000 64185.097656250000 -49879.554687500000
v  128343.664062500000 90207.164062500000 -40378.011718750000
v  62960.214843750000 110174.601562500000 -69992.968750000000
v  8639.865234375000 122726.648437500000 -47083.117187500000
v  31736.050781250000 122726.648437500000 -35315.019531250000
v  90233.781250000000 110174.601562500000 -27995.361328125000
v  45853.886718750000 122726.648437500000 -13575.458984375000
v  22562.687500000000 32395.832031250000 -148911.812500000000
v  44431.535156250000 -2049.537841796875 -154758.296875000000
v  45197.539062500000 31392.453125000000 -151842.640625000000
v  21796.681640625000 -1046.159423828125 -151827.468750000000
v  -9710.610351562500 32682.078125000000 -162497.406250000000
v  -10476.615234375000 -759.911682128906 -165413.046875000000
v  3789.030273437500 45015.726562500000 -154641.406250000000
v  23931.341796875000 25573.777343750000 -158045.515625000000
v  23691.341796875000 44964.730468750000 -153400.265625000000
v  4029.031738281250 25624.773437500000 -159286.656250000000
vn 0.321608990431 -0.248885035515 0.913577437401
vn 0.321608990431 -0.248885050416 0.913577556610
vn 0.321609020233 -0.248885065317 0.913577556610
vn 0.321608871222 -0.248885154724 0.913577437401
vn 0.321608871222 -0.248885169625 0.913577556610
vn 0.321608871222 -0.248885184526 0.913577556610
vn -0.958645939827 -0.198688551784 -0.203766494989
vn -0.605784773827 -0.195873901248 -0.771140873432
vn -0.906205534935 -0.315745115280 -0.281241148710
vn -0.874399125576 -0.192172631621 -0.445528686047
vn -0.752485513687 -0.306735455990 -0.582819879055
vn -0.302856057882 -0.198688358068 -0.932094991207
vn -0.725227713585 -0.670478999615 -0.156533271074
vn -0.589295208454 -0.662854790688 -0.461903274059
vn -0.463696360588 -0.524544775486 -0.714029788971
vn -0.287763327360 -0.364453226328 -0.885644435883
vn -0.463696330786 -0.524544775486 -0.714029788971
vn 0.203766524792 -0.198688521981 -0.958645939827
vn 0.193611919880 -0.364453256130 -0.910872161388
vn -0.235902935266 -0.645928323269 -0.726034641266
vn -0.418788224459 -0.826092123985 -0.377078652382
vn -0.549378395081 -0.826846659184 -0.120449125767
vn -0.587174415588 -0.752141952515 -0.299180209637
vn -0.345015734434 -0.932801365852 -0.104142770171
vn -0.274189740419 -0.929445803165 -0.246881514788
vn -0.215041249990 -0.803818523884 -0.554646849632
vn 0.158719390631 -0.645928263664 -0.746715962887
vn 0.623108923435 -0.364453226328 -0.692032575607
vn 0.655789971352 -0.198688298464 -0.728328526020
vn 0.932095050812 -0.198688358068 -0.302855968475
vn 0.885644435883 -0.364453226328 -0.287763357162
vn 0.510812997818 -0.645928323269 -0.567315340042
vn 0.132988542318 -0.817261993885 -0.560711145401
vn -0.023994367570 -0.888711452484 -0.457838743925
vn -0.023994365707 -0.888711392879 -0.457838684320
vn -0.114014528692 -0.929445862770 -0.350900560617
vn -0.139264523983 -0.982283890247 -0.125394359231
vn -0.183303818107 -0.982283890247 -0.038962423801
vn -0.000492345018 -0.999955773354 -0.009394424036
vn -0.057909443974 -0.982283890247 -0.178226962686
vn 0.076710812747 -0.929445862770 -0.360895991325
vn 0.377078682184 -0.826092064381 -0.418788284063
vn 0.726034700871 -0.645928263664 -0.235903039575
vn 0.910872280598 -0.364453047514 0.193611845374
vn 0.958646059036 -0.198688149452 0.203766420484
vn 0.874399244785 -0.192172348499 0.445528715849
vn 0.692032575607 -0.364453136921 0.623108923435
vn 0.746715962887 -0.645928323269 0.158719360828
vn 0.535953819752 -0.826092064381 -0.174141958356
vn 0.246881559491 -0.929445803165 -0.274189770222
vn 0.038962427527 -0.982283890247 -0.183303818107
vn 0.108724832535 -0.984448254108 -0.137988120317
vn 0.158414050937 -0.987141370773 -0.021375678480
vn 0.360038310289 -0.926245927811 -0.111538149416
vn 0.224990114570 -0.963343739510 -0.146110311151
vn 0.224990144372 -0.963343739510 -0.146110311151
vn 0.224990129471 -0.963343739510 -0.146110311151
vn 0.551220476627 -0.826092123985 0.117165587842
vn 0.567315280437 -0.645928382874 0.510812997818
vn 0.287763297558 -0.364453345537 0.885644435883
vn 0.302856087685 -0.198688402772 0.932094991207
vn 0.534487605095 -0.192172408104 0.823038697243
vn -0.203766524792 -0.198688521981 0.958645939827
vn -0.193611904979 -0.364453285933 0.910872220993
vn 0.235902935266 -0.645928442478 0.726034581661
vn 0.418788254261 -0.826092123985 0.377078652382
vn 0.360896080732 -0.929445862770 0.076710820198
vn 0.183303833008 -0.982283890247 0.038962423801
vn 0.274189740419 -0.929445803165 0.246881544590
vn 0.174141973257 -0.826092064381 0.535953879356
vn -0.158719360828 -0.645928323269 0.746715962887
vn -0.623108923435 -0.364453196526 0.692032694817
vn -0.655789971352 -0.198688298464 0.728328526020
vn -0.932095050812 -0.198688387871 0.302855998278
vn -0.885644495487 -0.364453226328 0.287763327360
vn -0.510813057423 -0.645928323269 0.567315280437
vn -0.117165572941 -0.826092123985 0.551220595837
vn 0.114014476538 -0.929445743561 0.350900560617
vn 0.139264553785 -0.982283890247 0.125394359231
vn 0.057909458876 -0.982283890247 0.178226977587
vn -0.076710812747 -0.929445803165 0.360896050930
vn -0.377078682184 -0.826092064381 0.418788284063
vn -0.726034760475 -0.645928263664 0.235902979970
vn -0.524947524071 -0.830712616444 0.185328528285
vn -0.246881514788 -0.929445862770 0.274189680815
vn -0.038962431252 -0.982283890247 0.183303818107
vn -0.125394359231 -0.982283890247 0.139264509082
vn -0.350900530815 -0.929445862770 0.114014498889
vn -0.658097982407 -0.752141952515 0.034489467740
vn -0.178226977587 -0.982283890247 0.057909455150
vn -0.135145336390 -0.082986518741 0.987344384193
vn 0.124019950628 -0.089004404843 0.988279998302
vn 0.124019958079 -0.089004397392 0.988279938698
vn -0.137557774782 -0.082902722061 0.987018167973
vn -0.387530684471 -0.071255281568 0.919098794460
vn -0.387530535460 -0.071255095303 0.919098913670
vn -0.061119314283 -0.233245968819 0.970495104790
vn -0.061119318008 -0.233245983720 0.970495104790
vn -0.061119306833 -0.233245968819 0.970495104790
vt 0.015304565430 0.984695434570 0.984695434570
vt 0.984375000000 0.015625000000 0.015625000000
vt 0.984375000000 0.984695434570 0.984695434570
vt 0.015304565430 0.015625000000 0.015625000000
vt -0.895507812500 -0.002929687500 -0.002929687500
vt -0.665039062500 -0.002929687500 -0.002929687500
vt -0.895507812500 0.353027343750 0.353027343750
vt -0.665039062500 0.353027343750 0.353027343750
vt -0.434814453125 -0.002929687500 -0.002929687500
vt -0.895507812500 0.684570312500 0.684570312500
vt -0.665039062500 0.684570312500 0.684570312500
vt -0.434814453125 0.353027343750 0.353027343750
vt -0.204345703125 -0.002929687500 -0.002929687500
vt -0.204345703125 0.353027343750 0.353027343750
vt -0.434814453125 0.684570312500 0.684570312500
vt -0.665039062500 0.872680664063 0.872680664063
vt -0.895507812500 0.872680664063 0.872680664063
vt -0.895507812500 0.968353271484 0.968353271484
vt -0.665039062500 0.968353271484 0.968353271484
vt -0.434814453125 0.872680664063 0.872680664063
vt -0.204345703125 0.684570312500 0.684570312500
vt 0.026092529297 0.353027343750 0.353027343750
vt 0.026092529297 -0.002929687500 -0.002929687500
vt 0.256347656250 -0.002929687500 -0.002929687500
vt 0.256347656250 0.353027343750 0.353027343750
vt 0.026092529297 0.684570312500 0.684570312500
vt -0.204345703125 0.872680664063 0.872680664063
vt -0.434814453125 0.968353271484 0.968353271484
vt -0.665039062500 0.993541717529 0.993541717529
vt -0.895507812500 0.993541717529 0.993541717529
vt -0.895996093750 0.993541717529 0.993541717529
vt -0.434814453125 0.993541717529 0.993541717529
vt -0.204345703125 0.968353271484 0.968353271484
vt 0.026092529297 0.872680664063 0.872680664063
vt 0.256347656250 0.684570312500 0.684570312500
vt 0.486816406250 0.353027343750 0.353027343750
vt 0.486816406250 -0.002929687500 -0.002929687500
vt 0.717285156250 -0.002929687500 -0.002929687500
vt 0.717285156250 0.353027343750 0.353027343750
vt 0.486816406250 0.684570312500 0.684570312500
vt 0.256347656250 0.872680664063 0.872680664063
vt 0.026092529297 0.968353271484 0.968353271484
vt -0.204345703125 0.993541717529 0.993541717529
vt 0.026092529297 0.993541717529 0.993541717529
vt 0.256347656250 0.993541717529 0.993541717529
vt 0.256347656250 0.968353271484 0.968353271484
vt 0.486816406250 0.872680664063 0.872680664063
vt 0.717285156250 0.684570312500 0.684570312500
vt 0.947753906250 0.353027343750 0.353027343750
vt 0.947753906250 -0.002929687500 -0.002929687500
vt 1.177734375000 -0.002929687500 -0.002929687500
vt 1.177734375000 0.353027343750 0.353027343750
vt 0.947753906250 0.684570312500 0.684570312500
vt 0.717285156250 0.872680664063 0.872680664063
vt 0.486816406250 0.968353271484 0.968353271484
vt 0.486816406250 0.993541717529 0.993541717529
vt 1.867187500000 0.993541717529 0.993541717529
vt 0.717285156250 0.968353271484 0.968353271484
vt 0.947753906250 0.872680664063 0.872680664063
vt 1.177734375000 0.684570312500 0.684570312500
vt 1.408203125000 0.353027343750 0.353027343750
vt 1.408203125000 -0.002929687500 -0.002929687500
vt 1.638671875000 -0.002929687500 -0.002929687500
vt 1.638671875000 0.353027343750 0.353027343750
vt 1.408203125000 0.684570312500 0.684570312500
vt 1.177734375000 0.872680664063 0.872680664063
vt 0.947753906250 0.968353271484 0.968353271484
vt 0.717285156250 0.993541717529 0.993541717529
vt 0.947753906250 0.993541717529 0.993541717529
vt 1.177734375000 0.968353271484 0.968353271484
vt 1.408203125000 0.872680664063 0.872680664063
vt 1.638671875000 0.684570312500 0.684570312500
vt 1.869140625000 0.353027343750 0.353027343750
vt 1.869140625000 -0.002929687500 -0.002929687500
vt 1.869140625000 0.684570312500 0.684570312500
vt 1.638671875000 0.872680664063 0.872680664063
vt 1.408203125000 0.968353271484 0.968353271484
vt 1.177734375000 0.993541717529 0.993541717529
vt 1.408203125000 0.993541717529 0.993541717529
vt 1.638671875000 0.968353271484 0.968353271484
vt 1.869140625000 0.872680664063 0.872680664063
vt 1.869140625000 0.968353271484 0.968353271484
vt 1.638671875000 0.993541717529 0.993541717529
vt 1.869140625000 0.993541717529 0.993541717529
vt 0.709960937500 0.810913085938 0.810913085938
vt 0.995117187500 0.111816406250 0.111816406250
vt 0.995117187500 0.808349609375 0.808349609375
vt 0.709960937500 0.114257812500 0.114257812500
vt 0.003032684326 0.810913085938 0.810913085938
vt 0.003032684326 0.114257812500 0.114257812500
g ma_sky
usemtl ma_sky_moon
s 1
f 1/1/1 2/2/2 3/3/3
s 2
f 2/2/4 1/1/5 4/4/6
usemtl ma_sky
s 3
f 5/5/7 6/6/8 7/7/9
s 4
f 7/7/9 6/6/10 8/8/11
s 5
f 6/6/8 9/9/12 8/8/11
s 6
f 7/7/9 8/8/11 10/10/13
s 7
f 10/10/13 8/8/11 11/11/14
s 8
f 8/8/15 12/12/16 11/11/17
s 9
f 12/12/16 8/8/11 9/9/12
s 10
f 12/12/16 9/9/12 13/13/18
s 11
f 12/12/16 13/13/18 14/14/19
s 12
f 12/12/16 14/14/19 15/15/20
s 13
f 12/12/16 15/15/20 11/11/14
s 14
f 11/11/14 15/15/20 16/16/21
s 15
f 11/11/14 16/16/21 17/17/22
s 16
f 11/11/23 17/17/22 10/10/13
s 17
f 17/17/22 16/16/21 18/18/24
s 18
f 18/18/24 16/16/21 19/19/25
s 19
f 16/16/21 20/20/26 19/19/25
s 20
f 20/20/26 16/16/21 15/15/20
s 21
f 20/20/26 15/15/20 21/21/27
s 22
f 21/21/27 15/15/20 14/14/19
s 23
f 21/21/27 14/14/19 22/22/28
s 24
f 22/22/28 14/14/19 23/23/29
s 25
f 23/23/29 14/14/19 13/13/18
s 26
f 22/22/28 23/23/29 24/24/30
s 27
f 22/22/28 24/24/30 25/25/31
s 28
f 22/22/28 25/25/31 26/26/32
s 29
f 22/22/28 26/26/32 21/21/27
s 30
f 21/21/27 26/26/32 27/27/33
s 31
f 21/21/27 27/27/33 20/20/26
s 32
f 20/20/34 27/27/35 28/28/36
s 33
f 20/20/26 28/28/36 19/19/25
s 34
f 19/19/25 28/28/36 29/29/37
s 35
f 19/19/25 29/29/37 30/30/38
s 36
f 19/19/25 30/30/38 18/18/24
s 37
f 30/30/38 29/29/37 31/31/39
s 38
f 31/31/39 29/29/37 32/32/40
s 39
f 32/32/40 29/29/37 28/28/36
s 40
f 32/32/40 28/28/36 33/33/41
s 41
f 33/33/41 28/28/36 27/27/33
s 42
f 33/33/41 27/27/33 34/34/42
s 43
f 34/34/42 27/27/33 26/26/32
s 44
f 34/34/42 26/26/32 35/35/43
s 45
f 35/35/43 26/26/32 25/25/31
s 46
f 35/35/43 25/25/31 36/36/44
s 47
f 36/36/44 25/25/31 37/37/45
s 48
f 37/37/45 25/25/31 24/24/30
s 49
f 36/36/44 37/37/45 38/38/46
s 50
f 36/36/44 38/38/46 39/39/47
s 51
f 36/36/44 39/39/47 40/40/48
s 52
f 36/36/44 40/40/48 35/35/43
s 53
f 35/35/43 40/40/48 41/41/49
s 54
f 35/35/43 41/41/49 34/34/42
s 55
f 34/34/42 41/41/49 42/42/50
s 56
f 34/34/42 42/42/50 33/33/41
s 57
f 33/33/41 42/42/50 43/43/51
s 58
f 33/33/41 43/43/51 32/32/40
s 59
f 32/32/40 43/43/51 31/31/39
s 60
f 31/31/39 43/43/51 44/44/52
s 61
f 44/44/52 43/43/51 42/42/50
s 62
f 31/31/39 44/44/52 45/45/53
s 63
f 42/42/50 46/46/54 44/44/52
s 64
f 45/45/55 44/44/56 46/46/57
s 65
f 42/42/50 41/41/49 46/46/54
s 66
f 41/41/49 47/47/58 46/46/54
s 67
f 47/47/58 41/41/49 40/40/48
s 68
f 47/47/58 40/40/48 48/48/59
s 69
f 48/48/59 40/40/48 39/39/47
s 70
f 48/48/59 39/39/47 49/49/60
s 71
f 49/49/60 39/39/47 50/50/61
s 72
f 50/50/61 39/39/47 38/38/62
s 73
f 49/49/60 50/50/61 51/51/63
s 74
f 49/49/60 51/51/63 52/52/64
s 75
f 49/49/60 52/52/64 53/53/65
s 76
f 49/49/60 53/53/65 48/48/59
s 77
f 48/48/59 53/53/65 54/54/66
s 78
f 48/48/59 54/54/66 47/47/58
s 79
f 47/47/58 54/54/66 55/55/67
s 80
f 47/47/58 55/55/67 46/46/54
s 81
f 46/46/54 55/55/67 45/45/53
s 82
f 45/45/53 55/55/67 56/56/68
s 83
f 45/45/53 56/56/68 31/57/39
s 84
f 55/55/67 57/58/69 56/56/68
s 85
f 57/58/69 55/55/67 54/54/66
s 86
f 57/58/69 54/54/66 58/59/70
s 87
f 58/59/70 54/54/66 53/53/65
s 88
f 58/59/70 53/53/65 59/60/71
s 89
f 59/60/71 53/53/65 52/52/64
s 90
f 59/60/71 52/52/64 60/61/72
s 91
f 60/61/72 52/52/64 61/62/73
s 92
f 61/62/73 52/52/64 51/51/63
s 93
f 60/61/72 61/62/73 62/63/74
s 94
f 60/61/72 62/63/74 63/64/75
s 95
f 60/61/72 63/64/75 64/65/76
s 96
f 60/61/72 64/65/76 59/60/71
s 97
f 59/60/71 64/65/76 65/66/77
s 98
f 59/60/71 65/66/77 58/59/70
s 99
f 58/59/70 65/66/77 66/67/78
s 100
f 58/59/70 66/67/78 57/58/69
s 101
f 57/58/69 66/67/78 67/68/79
s 102
f 57/58/69 67/68/79 56/56/68
s 103
f 56/56/68 67/68/79 31/57/39
s 104
f 31/57/39 67/68/79 68/69/80
s 105
f 68/69/80 67/68/79 66/67/78
s 106
f 68/69/80 66/67/78 69/70/81
s 107
f 69/70/81 66/67/78 65/66/77
s 108
f 69/70/81 65/66/77 70/71/82
s 109
f 70/71/82 65/66/77 64/65/76
s 110
f 70/71/82 64/65/76 71/72/83
s 111
f 71/72/83 64/65/76 63/64/75
s 112
f 71/72/83 63/64/75 7/73/9
s 113
f 7/73/9 63/64/75 5/74/7
s 114
f 5/74/7 63/64/75 62/63/74
s 115
f 7/73/9 10/75/13 71/72/83
s 116
f 71/72/83 10/75/13 72/76/84
s 117
f 71/72/83 72/76/84 70/71/82
s 118
f 70/71/82 72/76/84 73/77/85
s 119
f 70/71/82 73/77/85 69/70/81
s 120
f 69/70/81 73/77/85 74/78/86
s 121
f 69/70/81 74/78/86 68/69/80
s 122
f 68/69/80 74/78/86 31/57/39
s 123
f 31/57/39 74/78/86 75/79/87
s 124
f 75/79/87 74/78/86 73/77/85
s 125
f 75/79/87 73/77/85 76/80/88
s 126
f 76/80/88 73/77/85 72/76/84
s 127
f 76/80/88 72/76/84 17/81/22
s 128
f 17/81/22 72/76/89 10/75/13
s 129
f 76/80/88 17/81/22 18/82/24
s 130
f 76/80/88 18/82/24 77/83/90
s 131
f 76/80/88 77/83/90 75/79/87
s 132
f 75/79/87 77/83/90 31/57/39
s 133
f 31/57/39 77/83/90 30/84/38
s 134
f 30/84/38 77/83/90 18/82/24
usemtl ma_sky_castle
s 135
f 78/85/91 79/86/92 80/87/93
s 136
f 79/86/92 78/85/91 81/88/94
s 137
f 81/88/94 78/85/91 82/89/95
s 138
f 81/88/94 82/89/95 83/90/96
usemtl ma_sky_moon_b
s 139
f 84/1/97 85/2/98 86/3/99
s 140
f 85/2/98 84/1/97 87/4/97