<svg xmlns="http://www.w3.org/2000/svg" width="512" height="512" style="shape-rendering:crispEdges;image-rendering:pixelated"><path stroke="#000" d="M301 1h60m-60 1h60m-60 1h60m-60 1h60m-60 1h60m-60 1h60m-60 1h60m-60 1h60m-60 1h60m-60 1h60m-80 1h90m-90 1h90m-90 1h90m-90 1h90m-90 1h90m-90 1h90m-90 1h90m-90 1h90m-90 1h90m-90 1h90m-110 1h120m-120 1h120m-120 1h120m-120 1h120m-120 1h120m-120 1h120m-120 1h120m-120 1h120m-120 1h120m-120 1h120m-140 1h60m60 0h30m-150 1h60m60 0h30m-150 1h60m60 0h30m-150 1h60m60 0h30m-150 1h60m60 0h30m-150 1h60m60 0h30m-150 1h60m60 0h30m-150 1h60m60 0h30m-150 1h60m60 0h30m-150 1h60m60 0h30m-160 1h40m90 0h30m-160 1h40m90 0h30m-160 1h40m90 0h30m-160 1h40m90 0h30m-160 1h40m90 0h30m-160 1h40m90 0h30m-160 1h40m90 0h30m-160 1h40m90 0h30m-160 1h40m90 0h30m-160 1h40m90 0h30m-180 1h50m110 0h30m-190 1h50m110 0h30m-190 1h50m110 0h30m-190 1h50m110 0h30m-190 1h50m110 0h30m-190 1h50m110 0h30m-190 1h50m110 0h30m-190 1h50m110 0h30m-190 1h50m110 0h30m-190 1h50m110 0h30m-200 1h40m130 0h30m-200 1h40m130 0h30m-200 1h40m130 0h30m-200 1h40m130 0h30m-200 1h40m130 0h30m-200 1h40m130 0h30m-200 1h40m130 0h30m-200 1h40m130 0h30m-200 1h40m130 0h30m-200 1h40m130 0h30m-220 1h50m150 0h30m-230 1h50m150 0h30m-230 1h50m150 0h30m-230 1h50m150 0h30m-230 1h50m150 0h30m-230 1h50m150 0h30m-230 1h50m150 0h30m-230 1h50m150 0h30m-230 1h50m150 0h30m-230 1h50m150 0h30m-240 1h40m170 0h30m-240 1h40m170 0h30m-240 1h40m170 0h30m-240 1h40m170 0h30m-240 1h40m170 0h30m-240 1h40m170 0h30m-240 1h40m170 0h30m-240 1h40m170 0h30m-240 1h40m170 0h30m-240 1h40m170 0h30m-250 1h30m190 0h30m-250 1h30m190 0h30m-250 1h30m190 0h30m-250 1h30m190 0h30m-250 1h30m190 0h30m-250 1h30m190 0h30m-250 1h30m190 0h30m-250 1h30m190 0h30m-250 1h30m190 0h30m-250 1h30m190 0h30m-260 1h30m210 0h20m-260 1h30m210 0h20m-260 1h30m210 0h20m-260 1h30m210 0h20m-260 1h30m210 0h20m-260 1h30m210 0h20m-260 1h30m210 0h20m-260 1h30m210 0h20m-260 1h30m210 0h20m-260 1h30m210 0h20m-280 1h40m220 0h20m-280 1h40m220 0h20m-280 1h40m220 0h20m-280 1h40m220 0h20m-280 1h40m220 0h20m-280 1h40m220 0h20m-280 1h40m220 0h20m-280 1h40m220 0h20m-280 1h40m220 0h20m-280 1h40m220 0h20m-290 1h30m240 0h30m-300 1h30m240 0h30m-300 1h30m240 0h30m-300 1h30m240 0h30m-300 1h30m240 0h30m-300 1h30m240 0h30m-300 1h30m240 0h30m-300 1h30m240 0h30m-300 1h30m240 0h30m-300 1h30m240 0h30m-310 1h30m250 0h30m-310 1h30m250 0h30m-310 1h30m250 0h30m-310 1h30m250 0h30m-310 1h30m250 0h30m-310 1h30m250 0h30m-310 1h30m250 0h30m-310 1h30m250 0h30m-310 1h30m250 0h30m-310 1h30m250 0h30m-320 1h30m260 0h30m-320 1h30m260 0h30m-320 1h30m260 0h30m-320 1h30m260 0h30m-320 1h30m260 0h30m-320 1h30m260 0h30m-320 1h30m260 0h30m-320 1h30m260 0h30m-320 1h30m260 0h30m-320 1h30m260 0h30m-330 1h30m270 0h30m-330 1h30m270 0h30m-330 1h30m270 0h30m-330 1h30m270 0h30m-330 1h30m270 0h30m-330 1h30m270 0h30m-330 1h30m270 0h30m-330 1h30m270 0h30m-330 1h30m270 0h30m-330 1h30m270 0h30m-340 1h30m160 0h50m80 0h20m-340 1h30m160 0h50m80 0h20m-340 1h30m160 0h50m80 0h20m-340 1h30m160 0h50m80 0h20m-340 1h30m160 0h50m80 0h20m-340 1h30m160 0h50m80 0h20m-340 1h30m160 0h50m80 0h20m-340 1h30m160 0h50m80 0h20m-340 1h30m160 0h50m80 0h20m-340 1h30m160 0h50m80 0h20m-350 1h30m160 0h80m60 0h20m-350 1h30m160 0h80m60 0h20m-350 1h30m160 0h80m60 0h20m-350 1h30m160 0h80m60 0h20m-350 1h30m160 0h80m60 0h20m-350 1h30m160 0h80m60 0h20m-350 1h30m160 0h80m60 0h20m-350 1h30m160 0h80m60 0h20m-350 1h30m160 0h80m60 0h20m-350 1h30m160 0h80m60 0h20m-360 1h30m160 0h20m50 0h30m50 0h20m-360 1h30m160 0h20m50 0h30m50 0h20m-360 1h30m160 0h20m50 0h30m50 0h20m-360 1h30m160 0h20m50 0h30m50 0h20m-360 1h30m160 0h20m50 0h30m50 0h20m-360 1h30m160 0h20m50 0h30m50 0h20m-360 1h30m160 0h20m50 0h30m50 0h20m-360 1h30m160 0h20m50 0h30m50 0h20m-360 1h30m160 0h20m50 0h30m50 0h20m-360 1h30m160 0h20m50 0h30m50 0h20m-370 1h30m160 0h30m60 0h30m40 0h30m-380 1h30m160 0h30m60 0h30m40 0h30m-380 1h30m160 0h30m60 0h30m40 0h30m-380 1h30m160 0h30m60 0h30m40 0h30m-380 1h30m160 0h30m60 0h30m40 0h30m-380 1h30m160 0h30m60 0h30m40 0h30m-380 1h30m160 0h30m60 0h30m40 0h30m-380 1h30m160 0h30m60 0h30m40 0h30m-380 1h30m160 0h30m60 0h30m40 0h30m-380 1h30m160 0h30m60 0h30m40 0h30m-380 1h20m170 0h20m80 0h20m50 0h30m-390 1h20m170 0h20m80 0h20m50 0h30m-390 1h20m170 0h20m80 0h20m50 0h30m-390 1h20m170 0h20m80 0h20m50 0h30m-390 1h20m170 0h20m80 0h20m50 0h30m-390 1h20m170 0h20m80 0h20m50 0h30m-390 1h20m170 0h20m80 0h20m50 0h30m-390 1h20m170 0h20m80 0h20m50 0h30m-390 1h20m170 0h20m80 0h20m50 0h30m-390 1h20m170 0h20m80 0h20m50 0h30m-400 1h30m160 0h20m90 0h30m40 0h60m-430 1h30m160 0h20m90 0h30m40 0h60m-430 1h30m160 0h20m90 0h30m40 0h60m-430 1h30m160 0h20m90 0h30m40 0h60m-430 1h30m160 0h20m90 0h30m40 0h60m-430 1h30m160 0h20m90 0h30m40 0h60m-430 1h30m160 0h20m90 0h30m40 0h60m-430 1h30m160 0h20m90 0h30m40 0h60m-430 1h30m160 0h20m90 0h30m40 0h60m-430 1h30m160 0h20m90 0h30m40 0h60m-440 1h30m170 0h20m100 0h20m60 0h50m-450 1h30m170 0h20m100 0h20m60 0h50m-450 1h30m170 0h20m100 0h20m60 0h50m-450 1h30m170 0h20m100 0h20m60 0h50m-450 1h30m170 0h20m100 0h20m60 0h50m-450 1h30m170 0h20m100 0h20m60 0h50m-450 1h30m170 0h20m100 0h20m60 0h50m-450 1h30m170 0h20m100 0h20m60 0h50m-450 1h30m170 0h20m100 0h20m60 0h50m-450 1h30m170 0h20m100 0h20m60 0h50m-450 1h20m180 0h20m40 0h30m30 0h30m80 0h30m-460 1h20m180 0h20m40 0h30m30 0h30m80 0h30m-460 1h20m180 0h20m40 0h30m30 0h30m80 0h30m-460 1h20m180 0h20m40 0h30m30 0h30m80 0h30m-460 1h20m180 0h20m40 0h30m30 0h30m80 0h30m-460 1h20m180 0h20m40 0h30m30 0h30m80 0h30m-460 1h20m180 0h20m40 0h30m30 0h30m80 0h30m-460 1h20m180 0h20m40 0h30m30 0h30m80 0h30m-460 1h20m180 0h20m40 0h30m30 0h30m80 0h30m-460 1h20m180 0h20m40 0h30m30 0h30m80 0h30m-470 1h20m190 0h20m30 0h50m20 0h30m90 0h30m-480 1h20m190 0h20m30 0h50m20 0h30m90 0h30m-480 1h20m190 0h20m30 0h50m20 0h30m90 0h30m-480 1h20m190 0h20m30 0h50m20 0h30m90 0h30m-480 1h20m190 0h20m30 0h50m20 0h30m90 0h30m-480 1h20m190 0h20m30 0h50m20 0h30m90 0h30m-480 1h20m190 0h20m30 0h50m20 0h30m90 0h30m-480 1h20m190 0h20m30 0h50m20 0h30m90 0h30m-480 1h20m190 0h20m30 0h50m20 0h30m90 0h30m-480 1h20m190 0h20m30 0h50m20 0h30m90 0h30m-480 1h20m190 0h20m20 0h10m30 0h30m20 0h20m100 0h20m-480 1h20m190 0h20m20 0h10m30 0h30m20 0h20m100 0h20m-480 1h20m190 0h20m20 0h10m30 0h30m20 0h20m100 0h20m-480 1h20m190 0h20m20 0h10m30 0h30m20 0h20m100 0h20m-480 1h20m190 0h20m20 0h10m30 0h30m20 0h20m100 0h20m-480 1h20m190 0h20m20 0h10m30 0h30m20 0h20m100 0h20m-480 1h20m190 0h20m20 0h10m30 0h30m20 0h20m100 0h20m-480 1h20m190 0h20m20 0h10m30 0h30m20 0h20m100 0h20m-480 1h20m190 0h20m20 0h10m30 0h30m20 0h20m100 0h20m-480 1h20m190 0h20m20 0h10m30 0h30m20 0h20m100 0h20m-480 1h20m190 0h20m20 0h10m40 0h20m20 0h20m100 0h20m-480 1h20m190 0h20m20 0h10m40 0h20m20 0h20m100 0h20m-480 1h20m190 0h20m20 0h10m40 0h20m20 0h20m100 0h20m-480 1h20m190 0h20m20 0h10m40 0h20m20 0h20m100 0h20m-480 1h20m190 0h20m20 0h10m40 0h20m20 0h20m100 0h20m-480 1h20m190 0h20m20 0h10m40 0h20m20 0h20m100 0h20m-480 1h20m190 0h20m20 0h10m40 0h20m20 0h20m100 0h20m-480 1h20m190 0h20m20 0h10m40 0h20m20 0h20m100 0h20m-480 1h20m190 0h20m20 0h10m40 0h20m20 0h20m100 0h20m-480 1h20m190 0h20m20 0h10m40 0h20m20 0h20m100 0h20m-490 1h20m200 0h20m70 0h20m20 0h20m100 0h20m-490 1h20m200 0h20m70 0h20m20 0h20m100 0h20m-490 1h20m200 0h20m70 0h20m20 0h20m100 0h20m-490 1h20m200 0h20m70 0h20m20 0h20m100 0h20m-490 1h20m200 0h20m70 0h20m20 0h20m100 0h20m-490 1h20m200 0h20m70 0h20m20 0h20m100 0h20m-490 1h20m200 0h20m70 0h20m20 0h20m100 0h20m-490 1h20m200 0h20m70 0h20m20 0h20m100 0h20m-490 1h20m200 0h20m70 0h20m20 0h20m100 0h20m-490 1h20m200 0h20m70 0h20m20 0h20m100 0h20m-490 1h20m200 0h20m70 0h20m20 0h20m100 0h20m-490 1h20m200 0h20m70 0h20m20 0h20m100 0h20m-490 1h20m200 0h20m70 0h20m20 0h20m100 0h20m-490 1h20m200 0h20m70 0h20m20 0h20m100 0h20m-490 1h20m200 0h20m70 0h20m20 0h20m100 0h20m-490 1h20m200 0h20m70 0h20m20 0h20m100 0h20m-490 1h20m200 0h20m70 0h20m20 0h20m100 0h20m-490 1h20m200 0h20m70 0h20m20 0h20m100 0h20m-490 1h20m200 0h20m70 0h20m20 0h20m100 0h20m-490 1h20m200 0h20m70 0h20m20 0h20m100 0h20m-490 1h20m210 0h20m60 0h10m30 0h20m100 0h20m-490 1h20m210 0h20m60 0h10m30 0h20m100 0h20m-490 1h20m210 0h20m60 0h10m30 0h20m100 0h20m-490 1h20m210 0h20m60 0h10m30 0h20m100 0h20m-490 1h20m210 0h20m60 0h10m30 0h20m100 0h20m-490 1h20m210 0h20m60 0h10m30 0h20m100 0h20m-490 1h20m210 0h20m60 0h10m30 0h20m100 0h20m-490 1h20m210 0h20m60 0h10m30 0h20m100 0h20m-490 1h20m210 0h20m60 0h10m30 0h20m100 0h20m-490 1h20m210 0h20m60 0h10m30 0h20m100 0h20m-490 1h20m210 0h20m100 0h20m90 0h30m-490 1h20m210 0h20m100 0h20m90 0h30m-490 1h20m210 0h20m100 0h20m90 0h30m-490 1h20m210 0h20m100 0h20m90 0h30m-490 1h20m210 0h20m100 0h20m90 0h30m-490 1h20m210 0h20m100 0h20m90 0h30m-490 1h20m210 0h20m100 0h20m90 0h30m-490 1h20m210 0h20m100 0h20m90 0h30m-490 1h20m210 0h20m100 0h20m90 0h30m-490 1h20m210 0h20m100 0h20m90 0h30m-490 1h20m210 0h30m90 0h20m90 0h20m-480 1h20m210 0h30m90 0h20m90 0h20m-480 1h20m210 0h30m90 0h20m90 0h20m-480 1h20m210 0h30m90 0h20m90 0h20m-480 1h20m210 0h30m90 0h20m90 0h20m-480 1h20m210 0h30m90 0h20m90 0h20m-480 1h20m210 0h30m90 0h20m90 0h20m-480 1h20m210 0h30m90 0h20m90 0h20m-480 1h20m210 0h30m90 0h20m90 0h20m-480 1h20m210 0h30m90 0h20m90 0h20m-480 1h20m220 0h30m70 0h30m80 0h30m-480 1h20m220 0h30m70 0h30m80 0h30m-480 1h20m220 0h30m70 0h30m80 0h30m-480 1h20m220 0h30m70 0h30m80 0h30m-480 1h20m220 0h30m70 0h30m80 0h30m-480 1h20m220 0h30m70 0h30m80 0h30m-480 1h20m220 0h30m70 0h30m80 0h30m-480 1h20m220 0h30m70 0h30m80 0h30m-480 1h20m220 0h30m70 0h30m80 0h30m-480 1h20m220 0h30m70 0h30m80 0h30m-480 1h20m230 0h30m60 0h20m90 0h20m-470 1h20m230 0h30m60 0h20m90 0h20m-470 1h20m230 0h30m60 0h20m90 0h20m-470 1h20m230 0h30m60 0h20m90 0h20m-470 1h20m230 0h30m60 0h20m90 0h20m-470 1h20m230 0h30m60 0h20m90 0h20m-470 1h20m230 0h30m60 0h20m90 0h20m-470 1h20m230 0h30m60 0h20m90 0h20m-470 1h20m230 0h30m60 0h20m90 0h20m-470 1h20m230 0h30m60 0h20m90 0h20m-470 1h20m240 0h40m30 0h30m80 0h30m-470 1h20m240 0h40m30 0h30m80 0h30m-470 1h20m240 0h40m30 0h30m80 0h30m-470 1h20m240 0h40m30 0h30m80 0h30m-470 1h20m240 0h40m30 0h30m80 0h30m-470 1h20m240 0h40m30 0h30m80 0h30m-470 1h20m240 0h40m30 0h30m80 0h30m-470 1h20m240 0h40m30 0h30m80 0h30m-470 1h20m240 0h40m30 0h30m80 0h30m-470 1h20m240 0h40m30 0h30m80 0h30m-470 1h20m240 0h90m90 0h20m-460 1h20m240 0h90m90 0h20m-460 1h20m240 0h90m90 0h20m-460 1h20m240 0h90m90 0h20m-460 1h20m240 0h90m90 0h20m-460 1h20m240 0h90m90 0h20m-460 1h20m240 0h90m90 0h20m-460 1h20m240 0h90m90 0h20m-460 1h20m240 0h90m90 0h20m-460 1h20m240 0h90m90 0h20m-460 1h20m190 0h20m30 0h70m100 0h30m-460 1h20m190 0h20m30 0h70m100 0h30m-460 1h20m190 0h20m30 0h70m100 0h30m-460 1h20m190 0h20m30 0h70m100 0h30m-460 1h20m190 0h20m30 0h70m100 0h30m-460 1h20m190 0h20m30 0h70m100 0h30m-460 1h20m190 0h20m30 0h70m100 0h30m-460 1h20m190 0h20m30 0h70m100 0h30m-460 1h20m190 0h20m30 0h70m100 0h30m-460 1h20m190 0h20m30 0h70m100 0h30m-460 1h30m170 0h50m30 0h50m90 0h30m-450 1h30m170 0h50m30 0h50m90 0h30m-450 1h30m170 0h50m30 0h50m90 0h30m-450 1h30m170 0h50m30 0h50m90 0h30m-450 1h30m170 0h50m30 0h50m90 0h30m-450 1h30m170 0h50m30 0h50m90 0h30m-450 1h30m170 0h50m30 0h50m90 0h30m-450 1h30m170 0h50m30 0h50m90 0h30m-450 1h30m170 0h50m30 0h50m90 0h30m-450 1h30m170 0h50m30 0h50m90 0h30m-440 1h20m170 0h70m10 0h20m10 0h10m90 0h30m-430 1h20m170 0h70m10 0h20m10 0h10m90 0h30m-430 1h20m170 0h70m10 0h20m10 0h10m90 0h30m-430 1h20m170 0h70m10 0h20m10 0h10m90 0h30m-430 1h20m170 0h70m10 0h20m10 0h10m90 0h30m-430 1h20m170 0h70m10 0h20m10 0h10m90 0h30m-430 1h20m170 0h70m10 0h20m10 0h10m90 0h30m-430 1h20m170 0h70m10 0h20m10 0h10m90 0h30m-430 1h20m170 0h70m10 0h20m10 0h10m90 0h30m-430 1h20m170 0h70m10 0h20m10 0h10m90 0h30m-430 1h30m150 0h30m20 0h60m100 0h30m-420 1h30m150 0h30m20 0h60m100 0h30m-420 1h30m150 0h30m20 0h60m100 0h30m-420 1h30m150 0h30m20 0h60m100 0h30m-420 1h30m150 0h30m20 0h60m100 0h30m-420 1h30m150 0h30m20 0h60m100 0h30m-420 1h30m150 0h30m20 0h60m100 0h30m-420 1h30m150 0h30m20 0h60m100 0h30m-420 1h30m150 0h30m20 0h60m100 0h30m-420 1h30m150 0h30m20 0h60m100 0h30m-410 1h30m50 0h20m70 0h20m50 0h40m90 0h30m-400 1h30m50 0h20m70 0h20m50 0h40m90 0h30m-400 1h30m50 0h20m70 0h20m50 0h40m90 0h30m-400 1h30m50 0h20m70 0h20m50 0h40m90 0h30m-400 1h30m50 0h20m70 0h20m50 0h40m90 0h30m-400 1h30m50 0h20m70 0h20m50 0h40m90 0h30m-400 1h30m50 0h20m70 0h20m50 0h40m90 0h30m-400 1h30m50 0h20m70 0h20m50 0h40m90 0h30m-400 1h30m50 0h20m70 0h20m50 0h40m90 0h30m-400 1h30m50 0h20m70 0h20m50 0h40m90 0h30m-390 1h30m40 0h50m30 0h20m70 0h20m90 0h30m-380 1h30m40 0h50m30 0h20m70 0h20m90 0h30m-380 1h30m40 0h50m30 0h20m70 0h20m90 0h30m-380 1h30m40 0h50m30 0h20m70 0h20m90 0h30m-380 1h30m40 0h50m30 0h20m70 0h20m90 0h30m-380 1h30m40 0h50m30 0h20m70 0h20m90 0h30m-380 1h30m40 0h50m30 0h20m70 0h20m90 0h30m-380 1h30m40 0h50m30 0h20m70 0h20m90 0h30m-380 1h30m40 0h50m30 0h20m70 0h20m90 0h30m-380 1h30m40 0h50m30 0h20m70 0h20m90 0h30m-370 1h30m20 0h20m10 0h50m10 0h20m170 0h30m-360 1h30m20 0h20m10 0h50m10 0h20m170 0h30m-360 1h30m20 0h20m10 0h50m10 0h20m170 0h30m-360 1h30m20 0h20m10 0h50m10 0h20m170 0h30m-360 1h30m20 0h20m10 0h50m10 0h20m170 0h30m-360 1h30m20 0h20m10 0h50m10 0h20m170 0h30m-360 1h30m20 0h20m10 0h50m10 0h20m170 0h30m-360 1h30m20 0h20m10 0h50m10 0h20m170 0h30m-360 1h30m20 0h20m10 0h50m10 0h20m170 0h30m-360 1h30m20 0h20m10 0h50m10 0h20m170 0h30m-350 1h30m10 0h20m40 0h50m160 0h30m-340 1h30m10 0h20m40 0h50m160 0h30m-340 1h30m10 0h20m40 0h50m160 0h30m-340 1h30m10 0h20m40 0h50m160 0h30m-340 1h30m10 0h20m40 0h50m160 0h30m-340 1h30m10 0h20m40 0h50m160 0h30m-340 1h30m10 0h20m40 0h50m160 0h30m-340 1h30m10 0h20m40 0h50m160 0h30m-340 1h30m10 0h20m40 0h50m160 0h30m-340 1h30m10 0h20m40 0h50m160 0h30m-330 1h50m60 0h20m160 0h30m-320 1h50m60 0h20m160 0h30m-320 1h50m60 0h20m160 0h30m-320 1h50m60 0h20m160 0h30m-320 1h50m60 0h20m160 0h30m-320 1h50m60 0h20m160 0h30m-320 1h50m60 0h20m160 0h30m-320 1h50m60 0h20m160 0h30m-320 1h50m60 0h20m160 0h30m-320 1h50m60 0h20m160 0h30m-310 1h40m220 0h40m-300 1h40m220 0h40m-300 1h40m220 0h40m-300 1h40m220 0h40m-300 1h40m220 0h40m-300 1h40m220 0h40m-300 1h40m220 0h40m-300 1h40m220 0h40m-300 1h40m220 0h40m-300 1h40m220 0h40m-280 1h30m200 0h30m-260 1h30m200 0h30m-260 1h30m200 0h30m-260 1h30m200 0h30m-260 1h30m200 0h30m-260 1h30m200 0h30m-260 1h30m200 0h30m-260 1h30m200 0h30m-260 1h30m200 0h30m-260 1h30m200 0h30m-250 1h40m160 0h40m-240 1h40m160 0h40m-240 1h40m160 0h40m-240 1h40m160 0h40m-240 1h40m160 0h40m-240 1h40m160 0h40m-240 1h40m160 0h40m-240 1h40m160 0h40m-240 1h40m160 0h40m-240 1h40m160 0h40m-220 1h60m90 0h60m-210 1h60m90 0h60m-210 1h60m90 0h60m-210 1h60m90 0h60m-210 1h60m90 0h60m-210 1h60m90 0h60m-210 1h60m90 0h60m-210 1h60m90 0h60m-210 1h60m90 0h60m-210 1h60m90 0h60m-190 1h170m-170 1h170m-170 1h170m-170 1h170m-170 1h170m-170 1h170m-170 1h170m-170 1h170m-170 1h170m-170 1h170m-130 1h90m-90 1h90m-90 1h90m-90 1h90m-90 1h90m-90 1h90m-90 1h90m-90 1h90m-90 1h90m-90 1h90"/><path stroke="#9dc1e8" d="M301 31h60m-60 1h60m-60 1h60m-60 1h60m-60 1h60m-60 1h60m-60 1h60m-60 1h60m-60 1h60m-60 1h60m-90 1h90m-90 1h90m-90 1h90m-90 1h90m-90 1h90m-90 1h90m-90 1h90m-90 1h90m-90 1h90m-90 1h90m-100 1h110m-110 1h110m-110 1h110m-110 1h110m-110 1h110m-110 1h110m-110 1h110m-110 1h110m-110 1h110m-110 1h110m-130 1h130m-130 1h130m-130 1h130m-130 1h130m-130 1h130m-130 1h130m-130 1h130m-130 1h130m-130 1h130m-130 1h130m-140 1h150m-150 1h150m-150 1h150m-150 1h150m-150 1h150m-150 1h150m-150 1h150m-150 1h150m-150 1h150m-150 1h150m-170 1h170m-170 1h170m-170 1h170m-170 1h170m-170 1h170m-170 1h170m-170 1h170m-170 1h170m-170 1h170m-170 1h170m-190 1h190m-190 1h190m-190 1h190m-190 1h190m-190 1h190m-190 1h190m-190 1h190m-190 1h190m-190 1h190m-190 1h190m-200 1h210m-210 1h210m-210 1h210m-210 1h210m-210 1h210m-210 1h210m-210 1h210m-210 1h210m-210 1h210m-210 1h210m-220 1h220m-220 1h220m-220 1h220m-220 1h220m-220 1h220m-220 1h220m-220 1h220m-220 1h220m-220 1h220m-220 1h220m-240 1h240m-240 1h240m-240 1h240m-240 1h240m-240 1h240m-240 1h240m-240 1h240m-240 1h240m-240 1h240m-240 1h240m-250 1h250m-250 1h250m-250 1h250m-250 1h250m-250 1h250m-250 1h250m-250 1h250m-250 1h250m-250 1h250m-250 1h250m-260 1h260m-260 1h260m-260 1h260m-260 1h260m-260 1h260m-260 1h260m-260 1h260m-260 1h260m-260 1h260m-260 1h260m-270 1h270m-270 1h270m-270 1h270m-270 1h270m-270 1h270m-270 1h270m-270 1h270m-270 1h270m-270 1h270m-270 1h270m-280 1h160m50 0h80m-290 1h160m50 0h80m-290 1h160m50 0h80m-290 1h160m50 0h80m-290 1h160m50 0h80m-290 1h160m50 0h80m-290 1h160m50 0h80m-290 1h160m50 0h80m-290 1h160m50 0h80m-290 1h160m50 0h80m-300 1h160m80 0h60m-300 1h160m80 0h60m-300 1h160m80 0h60m-300 1h160m80 0h60m-300 1h160m80 0h60m-300 1h160m80 0h60m-300 1h160m80 0h60m-300 1h160m80 0h60m-300 1h160m80 0h60m-300 1h160m80 0h60m-300 1h150m100 0h50m-300 1h150m100 0h50m-300 1h150m100 0h50m-300 1h150m100 0h50m-300 1h150m100 0h50m-300 1h150m100 0h50m-300 1h150m100 0h50m-300 1h150m100 0h50m-300 1h150m100 0h50m-300 1h150m100 0h50m-300 1h20m20 0h100m120 0h40m-300 1h20m20 0h100m120 0h40m-300 1h20m20 0h100m120 0h40m-300 1h20m20 0h100m120 0h40m-300 1h20m20 0h100m120 0h40m-300 1h20m20 0h100m120 0h40m-300 1h20m20 0h100m120 0h40m-300 1h20m20 0h100m120 0h40m-300 1h20m20 0h100m120 0h40m-300 1h20m20 0h100m120 0h40m-310 1h20m30 0h30m20 0h50m120 0h50m-320 1h20m30 0h30m20 0h50m120 0h50m-320 1h20m30 0h30m20 0h50m120 0h50m-320 1h20m30 0h30m20 0h50m120 0h50m-320 1h20m30 0h30m20 0h50m120 0h50m-320 1h20m30 0h30m20 0h50m120 0h50m-320 1h20m30 0h30m20 0h50m120 0h50m-320 1h20m30 0h30m20 0h50m120 0h50m-320 1h20m30 0h30m20 0h50m120 0h50m-320 1h20m30 0h30m20 0h50m120 0h50m-330 1h20m30 0h30m30 0h40m140 0h40m-330 1h20m30 0h30m30 0h40m140 0h40m-330 1h20m30 0h30m30 0h40m140 0h40m-330 1h20m30 0h30m30 0h40m140 0h40m-330 1h20m30 0h30m30 0h40m140 0h40m-330 1h20m30 0h30m30 0h40m140 0h40m-330 1h20m30 0h30m30 0h40m140 0h40m-330 1h20m30 0h30m30 0h40m140 0h40m-330 1h20m30 0h30m30 0h40m140 0h40m-330 1h20m30 0h30m30 0h40m140 0h40m-350 1h40m20 0h30m30 0h50m140 0h50m-360 1h40m20 0h30m30 0h50m140 0h50m-360 1h40m20 0h30m30 0h50m140 0h50m-360 1h40m20 0h30m30 0h50m140 0h50m-360 1h40m20 0h30m30 0h50m140 0h50m-360 1h40m20 0h30m30 0h50m140 0h50m-360 1h40m20 0h30m30 0h50m140 0h50m-360 1h40m20 0h30m30 0h50m140 0h50m-360 1h40m20 0h30m30 0h50m140 0h50m-360 1h40m20 0h30m30 0h50m140 0h50m-370 1h100m20 0h60m150 0h70m-400 1h100m20 0h60m150 0h70m-400 1h100m20 0h60m150 0h70m-400 1h100m20 0h60m150 0h70m-400 1h100m20 0h60m150 0h70m-400 1h100m20 0h60m150 0h70m-400 1h100m20 0h60m150 0h70m-400 1h100m20 0h60m150 0h70m-400 1h100m20 0h60m150 0h70m-400 1h100m20 0h60m150 0h70m-410 1h190m150 0h90m-430 1h190m150 0h90m-430 1h190m150 0h90m-430 1h190m150 0h90m-430 1h190m150 0h90m-430 1h190m150 0h90m-430 1h190m150 0h90m-430 1h190m150 0h90m-430 1h190m150 0h90m-430 1h190m150 0h90m-430 1h190m150 0h50m30 0h10m-430 1h190m150 0h50m30 0h10m-430 1h190m150 0h50m30 0h10m-430 1h190m150 0h50m30 0h10m-430 1h190m150 0h50m30 0h10m-430 1h190m150 0h50m30 0h10m-430 1h190m150 0h50m30 0h10m-430 1h190m150 0h50m30 0h10m-430 1h190m150 0h50m30 0h10m-430 1h190m150 0h50m30 0h10m-430 1h190m150 0h40m50 0h10m-440 1h190m150 0h40m50 0h10m-440 1h190m150 0h40m50 0h10m-440 1h190m150 0h40m50 0h10m-440 1h190m150 0h40m50 0h10m-440 1h190m150 0h40m50 0h10m-440 1h190m150 0h40m50 0h10m-440 1h190m150 0h40m50 0h10m-440 1h190m150 0h40m50 0h10m-440 1h190m150 0h40m50 0h10m-450 1h200m150 0h30m20 0h30m-430 1h200m150 0h30m20 0h30m-430 1h200m150 0h30m20 0h30m-430 1h200m150 0h30m20 0h30m-430 1h200m150 0h30m20 0h30m-430 1h200m150 0h30m20 0h30m-430 1h200m150 0h30m20 0h30m-430 1h200m150 0h30m20 0h30m-430 1h200m150 0h30m20 0h30m-430 1h200m150 0h30m20 0h30m-430 1h200m150 0h30m10 0h40m-430 1h200m150 0h30m10 0h40m-430 1h200m150 0h30m10 0h40m-430 1h200m150 0h30m10 0h40m-430 1h200m150 0h30m10 0h40m-430 1h200m150 0h30m10 0h40m-430 1h200m150 0h30m10 0h40m-430 1h200m150 0h30m10 0h40m-430 1h200m150 0h30m10 0h40m-430 1h200m150 0h30m10 0h40m-430 1h210m140 0h30m10 0h10m20 0h20m-440 1h210m140 0h30m10 0h10m20 0h20m-440 1h210m140 0h30m10 0h10m20 0h20m-440 1h210m140 0h30m10 0h10m20 0h20m-440 1h210m140 0h30m10 0h10m20 0h20m-440 1h210m140 0h30m10 0h10m20 0h20m-440 1h210m140 0h30m10 0h10m20 0h20m-440 1h210m140 0h30m10 0h10m20 0h20m-440 1h210m140 0h30m10 0h10m20 0h20m-440 1h210m140 0h30m10 0h10m20 0h20m-440 1h210m140 0h50m20 0h20m-440 1h210m140 0h50m20 0h20m-440 1h210m140 0h50m20 0h20m-440 1h210m140 0h50m20 0h20m-440 1h210m140 0h50m20 0h20m-440 1h210m140 0h50m20 0h20m-440 1h210m140 0h50m20 0h20m-440 1h210m140 0h50m20 0h20m-440 1h210m140 0h50m20 0h20m-440 1h210m140 0h50m20 0h20m-440 1h210m140 0h50m20 0h10m-430 1h210m140 0h50m20 0h10m-430 1h210m140 0h50m20 0h10m-430 1h210m140 0h50m20 0h10m-430 1h210m140 0h50m20 0h10m-430 1h210m140 0h50m20 0h10m-430 1h210m140 0h50m20 0h10m-430 1h210m140 0h50m20 0h10m-430 1h210m140 0h50m20 0h10m-430 1h210m140 0h50m20 0h10m-430 1h220m150 0h40m-410 1h220m150 0h40m-410 1h220m150 0h40m-410 1h220m150 0h40m-410 1h220m150 0h40m-410 1h220m150 0h40m-410 1h220m150 0h40m-410 1h220m150 0h40m-410 1h220m150 0h40m-410 1h220m150 0h40m-410 1h230m150 0h50m-430 1h230m150 0h50m-430 1h230m150 0h50m-430 1h230m150 0h50m-430 1h230m150 0h50m-430 1h230m150 0h50m-430 1h230m150 0h50m-430 1h230m150 0h50m-430 1h230m150 0h50m-430 1h230m150 0h50m-430 1h240m150 0h30m-420 1h240m150 0h30m-420 1h240m150 0h30m-420 1h240m150 0h30m-420 1h240m150 0h30m-420 1h240m150 0h30m-420 1h240m150 0h30m-420 1h240m150 0h30m-420 1h240m150 0h30m-420 1h240m150 0h30m-420 1h240m150 0h30m-420 1h240m150 0h30m-420 1h240m150 0h30m-420 1h240m150 0h30m-420 1h240m150 0h30m-420 1h240m150 0h30m-420 1h240m150 0h30m-420 1h240m150 0h30m-420 1h240m150 0h30m-420 1h240m150 0h30m-420 1h190m20 0h30m150 0h20m-410 1h190m20 0h30m150 0h20m-410 1h190m20 0h30m150 0h20m-410 1h190m20 0h30m150 0h20m-410 1h190m20 0h30m150 0h20m-410 1h190m20 0h30m150 0h20m-410 1h190m20 0h30m150 0h20m-410 1h190m20 0h30m150 0h20m-410 1h190m20 0h30m150 0h20m-410 1h190m20 0h30m150 0h20m-400 1h170m50 0h30m130 0h10m-390 1h170m50 0h30m130 0h10m-390 1h170m50 0h30m130 0h10m-390 1h170m50 0h30m130 0h10m-390 1h170m50 0h30m130 0h10m-390 1h170m50 0h30m130 0h10m-390 1h170m50 0h30m130 0h10m-390 1h170m50 0h30m130 0h10m-390 1h170m50 0h30m130 0h10m-390 1h170m50 0h30m130 0h10m-390 1h170m70 0h10m-250 1h170m70 0h10m-250 1h170m70 0h10m-250 1h170m70 0h10m-250 1h170m70 0h10m-250 1h170m70 0h10m-250 1h170m70 0h10m-250 1h170m70 0h10m-250 1h170m70 0h10m-250 1h170m70 0h10m-240 1h150m-150 1h150m-150 1h150m-150 1h150m-150 1h150m-150 1h150m-150 1h150m-150 1h150m-150 1h150m-150 1h150m-140 1h50m20 0h70m-140 1h50m20 0h70m-140 1h50m20 0h70m-140 1h50m20 0h70m-140 1h50m20 0h70m-140 1h50m20 0h70m-140 1h50m20 0h70m-140 1h50m20 0h70m-140 1h50m20 0h70m-140 1h50m20 0h70m-130 1h40m50 0h30m-120 1h40m50 0h30m-120 1h40m50 0h30m-120 1h40m50 0h30m-120 1h40m50 0h30m-120 1h40m50 0h30m-120 1h40m50 0h30m-120 1h40m50 0h30m-120 1h40m50 0h30m-120 1h40m50 0h30m-110 1h20m80 0h10m-110 1h20m80 0h10m-110 1h20m80 0h10m-110 1h20m80 0h10m-110 1h20m80 0h10m-110 1h20m80 0h10m-110 1h20m80 0h10m-110 1h20m80 0h10m-110 1h20m80 0h10m-110 1h20m80 0h10m-100 1h10m-10 1h10m-10 1h10m-10 1h10m-10 1h10m-10 1h10m-10 1h10m-10 1h10m-10 1h10m-10 1h10"/><path stroke="#504bca" d="M91 181h10m-10 1h10m-10 1h10m-10 1h10m-10 1h10m-10 1h10m-10 1h10m-10 1h10m-10 1h10m-10 1h10m-20 1h20m20 0h20m-60 1h20m20 0h20m-60 1h20m20 0h20m-60 1h20m20 0h20m-60 1h20m20 0h20m-60 1h20m20 0h20m-60 1h20m20 0h20m-60 1h20m20 0h20m-60 1h20m20 0h20m-60 1h20m20 0h20m-70 1h20m20 0h30m30 0h20m-120 1h20m20 0h30m30 0h20m-120 1h20m20 0h30m30 0h20m-120 1h20m20 0h30m30 0h20m-120 1h20m20 0h30m30 0h20m-120 1h20m20 0h30m30 0h20m-120 1h20m20 0h30m30 0h20m-120 1h20m20 0h30m30 0h20m-120 1h20m20 0h30m30 0h20m-120 1h20m20 0h30m30 0h20m-120 1h10m20 0h30m30 0h30m-120 1h10m20 0h30m30 0h30m-120 1h10m20 0h30m30 0h30m-120 1h10m20 0h30m30 0h30m-120 1h10m20 0h30m30 0h30m-120 1h10m20 0h30m30 0h30m-120 1h10m20 0h30m30 0h30m-120 1h10m20 0h30m30 0h30m-120 1h10m20 0h30m30 0h30m-120 1h10m20 0h30m30 0h30m-90 1h20m30 0h30m240 0h10m-330 1h20m30 0h30m240 0h10m-330 1h20m30 0h30m240 0h10m-330 1h20m30 0h30m240 0h10m-330 1h20m30 0h30m240 0h10m-330 1h20m30 0h30m240 0h10m-330 1h20m30 0h30m240 0h10m-330 1h20m30 0h30m240 0h10m-330 1h20m30 0h30m240 0h10m-330 1h20m30 0h30m240 0h10m-280 1h20m280 0h10m-310 1h20m280 0h10m-310 1h20m280 0h10m-310 1h20m280 0h10m-310 1h20m280 0h10m-310 1h20m280 0h10m-310 1h20m280 0h10m-310 1h20m280 0h10m-310 1h20m280 0h10m-310 1h20m280 0h10m-30 11h30m10 0h10m-50 1h30m10 0h10m-50 1h30m10 0h10m-50 1h30m10 0h10m-50 1h30m10 0h10m-50 1h30m10 0h10m-50 1h30m10 0h10m-50 1h30m10 0h10m-50 1h30m10 0h10m-50 1h30m10 0h10m-60 1h50m-50 1h50m-50 1h50m-50 1h50m-50 1h50m-50 1h50m-50 1h50m-50 1h50m-50 1h50m-50 1h50m-60 1h20m30 0h20m-70 1h20m30 0h20m-70 1h20m30 0h20m-70 1h20m30 0h20m-70 1h20m30 0h20m-70 1h20m30 0h20m-70 1h20m30 0h20m-70 1h20m30 0h20m-70 1h20m30 0h20m-70 1h20m30 0h20m-70 1h10m40 0h20m-70 1h10m40 0h20m-70 1h10m40 0h20m-70 1h10m40 0h20m-70 1h10m40 0h20m-70 1h10m40 0h20m-70 1h10m40 0h20m-70 1h10m40 0h20m-70 1h10m40 0h20m-70 1h10m40 0h20m-70 1h10m10 0h20m20 0h10m-70 1h10m10 0h20m20 0h10m-70 1h10m10 0h20m20 0h10m-70 1h10m10 0h20m20 0h10m-70 1h10m10 0h20m20 0h10m-70 1h10m10 0h20m20 0h10m-70 1h10m10 0h20m20 0h10m-70 1h10m10 0h20m20 0h10m-70 1h10m10 0h20m20 0h10m-70 1h10m10 0h20m20 0h10m-50 1h20m-20 1h20m-20 1h20m-20 1h20m-20 1h20m-20 1h20m-20 1h20m-20 1h20m-20 1h20m-20 1h20m-20 1h20m10 0h10m-40 1h20m10 0h10m-40 1h20m10 0h10m-40 1h20m10 0h10m-40 1h20m10 0h10m-40 1h20m10 0h10m-40 1h20m10 0h10m-40 1h20m10 0h10m-40 1h20m10 0h10m-40 1h20m10 0h10m-30 1h20m-20 1h20m-20 1h20m-20 1h20m-20 1h20m-20 1h20m-20 1h20m-20 1h20m-20 1h20m-20 1h20"/><path stroke="#fff" d="M271 181h50m-50 1h50m-50 1h50m-50 1h50m-50 1h50m-50 1h50m-50 1h50m-50 1h50m-50 1h50m-50 1h50m-50 1h60m-60 1h60m-60 1h60m-60 1h60m-60 1h60m-60 1h60m-60 1h60m-60 1h60m-60 1h60m-60 1h60m-70 1h80m-80 1h80m-80 1h80m-80 1h80m-80 1h80m-80 1h80m-80 1h80m-80 1h80m-80 1h80m-80 1h80m-90 1h90m-90 1h90m-90 1h90m-90 1h90m-90 1h90m-90 1h90m-90 1h90m-90 1h90m-90 1h90m-90 1h90m-90 1h100m-100 1h100m-100 1h100m-100 1h100m-100 1h100m-100 1h100m-100 1h100m-100 1h100m-100 1h100m-100 1h100m-100 1h40m30 0h30m-100 1h40m30 0h30m-100 1h40m30 0h30m-100 1h40m30 0h30m-100 1h40m30 0h30m-100 1h40m30 0h30m-100 1h40m30 0h30m-100 1h40m30 0h30m-100 1h40m30 0h30m-100 1h40m30 0h30m-100 1h30m50 0h20m-100 1h30m50 0h20m-100 1h30m50 0h20m-100 1h30m50 0h20m-100 1h30m50 0h20m-100 1h30m50 0h20m-100 1h30m50 0h20m-100 1h30m50 0h20m-100 1h30m50 0h20m-100 1h30m50 0h20m-100 1h20m10 0h30m30 0h20m-110 1h20m10 0h30m30 0h20m-110 1h20m10 0h30m30 0h20m-110 1h20m10 0h30m30 0h20m-110 1h20m10 0h30m30 0h20m-110 1h20m10 0h30m30 0h20m-110 1h20m10 0h30m30 0h20m-110 1h20m10 0h30m30 0h20m-110 1h20m10 0h30m30 0h20m-110 1h20m10 0h30m30 0h20m-110 1h20m10 0h40m20 0h20m-110 1h20m10 0h40m20 0h20m-110 1h20m10 0h40m20 0h20m-110 1h20m10 0h40m20 0h20m-110 1h20m10 0h40m20 0h20m-110 1h20m10 0h40m20 0h20m-110 1h20m10 0h40m20 0h20m-110 1h20m10 0h40m20 0h20m-110 1h20m10 0h40m20 0h20m-110 1h20m10 0h40m20 0h20m-110 1h70m20 0h20m-110 1h70m20 0h20m-110 1h70m20 0h20m-110 1h70m20 0h20m-110 1h70m20 0h20m-110 1h70m20 0h20m-110 1h70m20 0h20m-110 1h70m20 0h20m-110 1h70m20 0h20m-110 1h70m20 0h20m-110 1h70m20 0h20m-110 1h70m20 0h20m-110 1h70m20 0h20m-110 1h70m20 0h20m-110 1h70m20 0h20m-110 1h70m20 0h20m-110 1h70m20 0h20m-110 1h70m20 0h20m-110 1h70m20 0h20m-110 1h70m20 0h20m-100 1h60m10 0h30m-100 1h60m10 0h30m-100 1h60m10 0h30m-100 1h60m10 0h30m-100 1h60m10 0h30m-100 1h60m10 0h30m-100 1h60m10 0h30m-100 1h60m10 0h30m-100 1h60m10 0h30m-100 1h60m10 0h30m-100 1h100m-100 1h100m-100 1h100m-100 1h100m-100 1h100m-100 1h100m-100 1h100m-100 1h100m-100 1h100m-100 1h100m-90 1h90m-90 1h90m-90 1h90m-90 1h90m-90 1h90m-90 1h90m-90 1h90m-90 1h90m-90 1h90m-90 1h90m-80 1h70m-70 1h70m-70 1h70m-70 1h70m-70 1h70m-70 1h70m-70 1h70m-70 1h70m-70 1h70m-70 1h70m-60 1h60m-60 1h60m-60 1h60m-60 1h60m-60 1h60m-60 1h60m-60 1h60m-60 1h60m-60 1h60m-60 1h60m-40 1h30m-30 1h30m-30 1h30m-30 1h30m-30 1h30m-30 1h30m-30 1h30m-30 1h30m-30 1h30m-30 1h30"/><path stroke="#99e8c2" d="M381 321h20m-20 1h20m-20 1h20m-20 1h20m-20 1h20m-20 1h20m-20 1h20m-20 1h20m-20 1h20m-20 1h20m-30 1h40m-40 1h40m-40 1h40m-40 1h40m-40 1h40m-40 1h40m-40 1h40m-40 1h40m-40 1h40m-40 1h40m-40 1h50m-50 1h50m-50 1h50m-50 1h50m-50 1h50m-50 1h50m-50 1h50m-50 1h50m-50 1h50m-50 1h50m-60 1h60m-60 1h60m-60 1h60m-60 1h60m-60 1h60m-60 1h60m-60 1h60m-60 1h60m-60 1h60m-60 1h60m-80 1h80m-80 1h80m-80 1h80m-80 1h80m-80 1h80m-80 1h80m-80 1h80m-80 1h80m-80 1h80m-80 1h80m-80 1h80m-80 1h80m-80 1h80m-80 1h80m-80 1h80m-80 1h80m-80 1h80m-80 1h80m-80 1h80m-80 1h80m-110 1h10m10 0h90m-110 1h10m10 0h90m-110 1h10m10 0h90m-110 1h10m10 0h90m-110 1h10m10 0h90m-110 1h10m10 0h90m-110 1h10m10 0h90m-110 1h10m10 0h90m-110 1h10m10 0h90m-110 1h10m10 0h90m-190 1h20m60 0h100m-180 1h20m60 0h100m-180 1h20m60 0h100m-180 1h20m60 0h100m-180 1h20m60 0h100m-180 1h20m60 0h100m-180 1h20m60 0h100m-180 1h20m60 0h100m-180 1h20m60 0h100m-180 1h20m60 0h100m-190 1h50m40 0h90m-180 1h50m40 0h90m-180 1h50m40 0h90m-180 1h50m40 0h90m-180 1h50m40 0h90m-180 1h50m40 0h90m-180 1h50m40 0h90m-180 1h50m40 0h90m-180 1h50m40 0h90m-180 1h50m40 0h90m-190 1h70m20 0h90m-180 1h70m20 0h90m-180 1h70m20 0h90m-180 1h70m20 0h90m-180 1h70m20 0h90m-180 1h70m20 0h90m-180 1h70m20 0h90m-180 1h70m20 0h90m-180 1h70m20 0h90m-180 1h70m20 0h90m-270 1h10m80 0h170m-260 1h10m80 0h170m-260 1h10m80 0h170m-260 1h10m80 0h170m-260 1h10m80 0h170m-260 1h10m80 0h170m-260 1h10m80 0h170m-260 1h10m80 0h170m-260 1h10m80 0h170m-260 1h10m80 0h170m-260 1h40m50 0h160m-250 1h40m50 0h160m-250 1h40m50 0h160m-250 1h40m50 0h160m-250 1h40m50 0h160m-250 1h40m50 0h160m-250 1h40m50 0h160m-250 1h40m50 0h160m-250 1h40m50 0h160m-250 1h40m50 0h160m-250 1h60m20 0h160m-240 1h60m20 0h160m-240 1h60m20 0h160m-240 1h60m20 0h160m-240 1h60m20 0h160m-240 1h60m20 0h160m-240 1h60m20 0h160m-240 1h60m20 0h160m-240 1h60m20 0h160m-240 1h60m20 0h160m-240 1h220m-220 1h220m-220 1h220m-220 1h220m-220 1h220m-220 1h220m-220 1h220m-220 1h220m-220 1h220m-220 1h220m-210 1h200m-200 1h200m-200 1h200m-200 1h200m-200 1h200m-200 1h200m-200 1h200m-200 1h200m-200 1h200m-200 1h200m-180 1h160m-160 1h160m-160 1h160m-160 1h160m-160 1h160m-160 1h160m-160 1h160m-160 1h160m-160 1h160m-160 1h160m-120 1h90m-90 1h90m-90 1h90m-90 1h90m-90 1h90m-90 1h90m-90 1h90m-90 1h90m-90 1h90m-90 1h90"/></svg>